<svg width="24" height="27" viewBox="0 0 24 27" fill="none" xmlns="http://www.w3.org/2000/svg">
<path d="M8.93215 18.752C8.78009 18.4461 6.43656 13.7587 4.03856 13.169C3.2302 12.9874 2.5828 13.1477 2.5828 13.1477C1.69254 13.4062 1.04372 14.1775 0.790534 14.8509C0.283799 16.3505 1.06296 17.4935 1.82431 18.5647C3.34701 20.707 4.82484 22.8223 6.34755 24.9646C6.86711 25.6757 7.39556 26.4229 8.23063 26.7124C9.3171 27.0923 10.5585 26.556 11.2974 25.6861C12.0723 24.8072 12.4433 23.6848 12.8233 22.5983C13.0494 21.9698 13.2756 21.3412 13.5017 20.7127C14.2794 18.6117 15.138 16.5288 16.0414 14.4731C16.9448 12.4173 17.8931 10.3885 18.9223 8.37798C19.9514 6.36741 20.9895 4.39282 22.1443 2.42748C22.442 1.93392 22.7037 1.44926 23.0014 0.955697C23.0556 0.865959 23.4252 0.354593 23.3625 0.255596C23.2999 0.156599 22.8049 0.469971 22.697 0.496679C21.7793 0.952849 20.8972 1.55289 20.1049 2.20705C18.4932 3.56025 17.1774 5.18373 15.9153 6.87024C13.2556 10.6204 10.9188 14.5959 8.93215 18.752Z" fill="url(#paint0_linear_474_678)"/>
<defs>
<linearGradient id="paint0_linear_474_678" x1="-0.0283923" y1="-3.63467" x2="25.7364" y2="24.6005" gradientUnits="userSpaceOnUse">
<stop stop-color="#97E0FF"/>
<stop offset="1" stop-color="#1075FF"/>
</linearGradient>
</defs>
</svg>
