<svg width="201" height="201" viewBox="0 0 201 201" fill="none" xmlns="http://www.w3.org/2000/svg">
<path d="M200.758 0.0742188H0.757812V200.074H200.758V0.0742188Z" fill="black"/>
<path d="M37.542 25.0156H47.6314L68.939 75.0862H57.4855L52.9465 63.9385H31.9211L27.3821 75.0862H16.2344L37.542 25.0156ZM49.0425 54.2724L42.4338 38.1389L35.8252 54.2489H49.0425V54.2724Z" fill="white"/>
<path d="M66.1212 50.3992V50.2581C66.0598 46.7981 66.6994 43.3615 68.0017 40.1554C69.3041 36.9492 71.242 34.04 73.6989 31.6029C76.1557 29.1658 79.0806 27.2514 82.2971 25.9751C85.5137 24.6987 88.9553 24.0868 92.4147 24.1763C96.0894 23.9946 99.7607 24.5945 103.186 25.9364C106.612 27.2783 109.714 29.3316 112.288 31.9608L105.232 40.0982C101.849 36.5847 97.2202 34.5408 92.3442 34.4067C83.854 34.4067 77.7158 41.4623 77.7158 50.117V50.2581C77.7158 58.9129 83.6894 66.1094 92.3442 66.1094C98.1062 66.1094 101.752 63.7576 105.609 60.2064L112.664 67.2619C110.122 70.2262 106.941 72.5766 103.361 74.1366C99.7806 75.6966 95.8936 76.4257 91.9914 76.2694C88.5783 76.3267 85.1886 75.6966 82.024 74.4168C78.8594 73.137 75.9846 71.2335 73.5708 68.8197C71.1571 66.406 69.2536 63.5312 67.9738 60.3667C66.694 57.2021 66.064 53.8123 66.1212 50.3992Z" fill="white"/>
<path d="M94.4922 162.559H19.4922V175.047H94.4922V162.559Z" fill="white"/>
</svg>
