<svg width="201" height="200" viewBox="0 0 201 200" fill="none" xmlns="http://www.w3.org/2000/svg">
<path d="M20.0485 153.578C13.5497 153.578 6.86719 158.792 6.86719 167.917C6.86719 176.259 12.7427 182.151 20.0485 182.151C26.0791 182.151 28.7668 178.099 28.7668 178.099V179.865C28.7668 180.7 29.5553 181.632 30.5312 181.632H34.8904V154.202H28.7668V157.682C28.7668 157.682 26.0565 153.578 20.0485 153.578ZM21.1393 159.187C26.4892 159.187 29.2955 163.897 29.2955 167.915C29.2955 172.39 25.9635 176.639 21.1507 176.639C17.1274 176.639 13.0972 173.377 13.0972 167.856C13.0972 162.871 16.5654 159.187 21.1393 159.187Z" fill="black"/>
<path d="M43.3972 181.636C42.4564 181.636 41.6328 180.961 41.6328 179.87V154.206H47.7564V157.6C49.144 155.512 51.8549 153.574 56.016 153.574C62.817 153.574 66.4385 159.002 66.4385 164.077V181.636H62.1831C61.0673 181.636 60.3149 180.701 60.3149 179.766V165.427C60.3149 162.614 58.5932 159.198 54.6113 159.198C50.3148 159.198 47.7564 163.263 47.7564 167.09V181.636L43.3972 181.636Z" fill="black"/>
<path d="M84.2906 153.576C77.7918 153.576 71.1094 158.789 71.1094 167.915C71.1094 176.257 76.9848 182.149 84.2906 182.149C90.3211 182.149 93.0089 178.097 93.0089 178.097V179.863C93.0089 180.698 93.7974 181.63 94.7733 181.63H99.1325V140.484H93.0089V157.68C93.0089 157.68 90.2986 153.576 84.2906 153.576ZM85.3814 159.185C90.7313 159.185 93.5376 163.895 93.5376 167.913C93.5376 172.388 90.2056 176.637 85.3927 176.637C81.3695 176.637 77.3393 173.375 77.3393 167.854C77.3393 162.869 80.8075 159.185 85.3814 159.185Z" fill="black"/>
<path d="M107.647 181.633C106.706 181.633 105.883 180.957 105.883 179.866V154.202H112.006V158.774C113.06 156.213 115.335 153.891 119.375 153.891C120.502 153.891 121.555 154.098 121.555 154.098V160.436C121.555 160.436 120.24 159.917 118.649 159.917C114.352 159.917 112.006 163.982 112.006 167.809V181.633H107.647Z" fill="black"/>
<path d="M158.71 181.629C157.769 181.629 156.945 180.954 156.945 179.863V154.199H163.069V181.629L158.71 181.629Z" fill="black"/>
<path d="M181.025 153.576C174.526 153.576 167.844 158.789 167.844 167.915C167.844 176.257 173.719 182.149 181.025 182.149C187.056 182.149 189.743 178.097 189.743 178.097V179.863C189.743 180.698 190.532 181.63 191.508 181.63H195.867V140.484H189.743V157.68C189.743 157.68 187.033 153.576 181.025 153.576ZM182.116 159.185C187.466 159.185 190.272 163.895 190.272 167.913C190.272 172.388 186.94 176.637 182.127 176.637C178.104 176.637 174.074 173.375 174.074 167.854C174.074 162.869 177.542 159.185 182.116 159.185Z" fill="black"/>
<path d="M159.963 148.286C162.199 148.286 164.012 146.472 164.012 144.233C164.012 141.994 162.199 140.18 159.963 140.18C157.727 140.18 155.914 141.994 155.914 144.233C155.914 146.472 157.727 148.286 159.963 148.286Z" fill="black"/>
<path d="M137.705 153.574C130.899 153.574 123.422 158.66 123.422 167.873C123.422 176.269 129.791 182.158 137.69 182.158C147.426 182.158 152.18 174.323 152.18 167.926C152.18 160.077 146.058 153.574 137.705 153.574ZM137.728 159.299C142.434 159.299 145.945 163.096 145.945 167.89C145.945 172.768 142.218 176.531 137.742 176.531C133.586 176.531 129.547 173.146 129.547 167.972C129.547 162.713 133.389 159.299 137.728 159.299Z" fill="black"/>
<path d="M147.491 48.9464L163.159 21.7762C164.043 20.253 163.509 18.3181 162.008 17.433C160.507 16.5479 158.553 17.0625 157.69 18.5857L141.817 46.1059C129.706 40.5689 116.074 37.4813 101.414 37.4813C86.7538 37.4813 73.1217 40.5689 61.0112 46.1059L45.138 18.5857C44.2539 17.0625 42.3211 16.5479 40.7996 17.433C39.2781 18.3181 38.7641 20.253 39.6482 21.7762L55.3157 48.9464C28.2984 63.6019 9.99898 90.978 6.97656 123.026H195.851C192.829 90.9778 174.529 63.6017 147.491 48.9464ZM58.0504 96.4738C53.6709 96.4738 50.1344 92.9129 50.1344 88.5492C50.1344 84.1648 53.6915 80.6245 58.0504 80.6245C62.4299 80.6245 65.9664 84.1854 65.9664 88.5492C65.9871 92.9129 62.4299 96.4738 58.0504 96.4738ZM144.757 96.4738C140.377 96.4738 136.841 92.9129 136.841 88.5492C136.841 84.1648 140.398 80.6245 144.757 80.6245C149.136 80.6245 152.673 84.1854 152.673 88.5492C152.694 92.9129 149.136 96.4738 144.757 96.4738Z" fill="#32DE84"/>
</svg>
