<svg width="190" height="200" viewBox="0 0 190 200" fill="none" xmlns="http://www.w3.org/2000/svg">
<g clip-path="url(#clip0_1455_13683)">
<path d="M94.7103 0.253906L0.632812 33.2924L15.4996 156.29L94.8097 199.788L174.53 155.7L189.39 32.7074L94.7103 0.253906Z" fill="#B3B3B3"/>
<path d="M180.001 39.8155L94.4844 10.7148V189.395L166.151 149.815L180.001 39.8155Z" fill="#A6120D"/>
<path d="M11.1875 40.3389L23.9271 150.34L94.4869 189.394V10.7109L11.1882 40.3382L11.1875 40.3389Z" fill="#DD1B16"/>
<path d="M118.026 105.834L94.4863 116.819H69.6757L58.013 145.93L36.3203 146.33L94.4863 17.2031L118.026 105.835V105.834ZM115.751 100.304L94.6429 58.6048L77.3284 99.5865H94.4855L115.751 100.305V100.304Z" fill="#F2F2F2"/>
<path d="M94.4844 17.2031L94.6402 58.6055L114.286 99.6191H94.5289L94.4844 116.793L121.804 116.819L134.573 146.335L155.33 146.718L94.4844 17.2031Z" fill="#B3B3B3"/>
</g>
<defs>
<clipPath id="clip0_1455_13683">
<rect width="190" height="200" fill="white"/>
</clipPath>
</defs>
</svg>
