<svg width="24" height="24" viewBox="0 0 24 24" fill="none" xmlns="http://www.w3.org/2000/svg">
    <g clip-path="url(#clip0_19_13410)">
        <path
            d="M24 6.5V15.5C24 17.981 21.981 20 19.5 20H12.5V23H17.5C17.776 23 18 23.224 18 23.5C18 23.776 17.776 24 17.5 24H6.5C6.224 24 6 23.776 6 23.5C6 23.224 6.224 23 6.5 23H11.5V20H4.5C2.019 20 0 17.981 0 15.5V6.5C0 6.224 0.224 6 0.5 6C0.776 6 1 6.224 1 6.5V15.5C1 17.43 2.57 19 4.5 19H19.5C21.43 19 23 17.43 23 15.5V6.5C23 6.224 23.224 6 23.5 6C23.776 6 24 6.224 24 6.5ZM16 9.5V4C16 2.621 17.122 1.5 18.5 1.5H20.071C20.295 0.64 21.071 0 22 0C23.103 0 24 0.897 24 2C24 3.103 23.103 4 22 4C21.071 4 20.295 3.36 20.071 2.5H18.5C17.673 2.5 17 3.173 17 4V9.5C17 9.776 16.776 10 16.5 10C16.224 10 16 9.776 16 9.5ZM21 2C21 2.552 21.449 3 22 3C22.551 3 23 2.552 23 2C23 1.448 22.551 1 22 1C21.449 1 21 1.448 21 2ZM0 2C0 0.897 0.897 0 2 0C2.929 0 3.705 0.64 3.929 1.5H5.5C6.878 1.5 8 2.621 8 4V9.5C8 9.776 7.776 10 7.5 10C7.224 10 7 9.776 7 9.5V4C7 3.173 6.327 2.5 5.5 2.5H3.929C3.705 3.36 2.929 4 2 4C0.897 4 0 3.103 0 2ZM1 2C1 2.552 1.449 3 2 3C2.551 3 3 2.552 3 2C3 1.448 2.551 1 2 1C1.449 1 1 1.448 1 2ZM10 2C10 0.897 10.897 0 12 0C13.103 0 14 0.897 14 2C14 2.929 13.36 3.705 12.5 3.929V9.5C12.5 9.776 12.276 10 12 10C11.724 10 11.5 9.776 11.5 9.5V3.929C10.64 3.705 10 2.929 10 2ZM11 2C11 2.552 11.449 3 12 3C12.551 3 13 2.552 13 2C13 1.448 12.551 1 12 1C11.449 1 11 1.448 11 2Z"
            fill="#02E1B8" />
    </g>
    <defs>
        <clipPath id="clip0_19_13410">
            <rect width="24" height="24" fill="white" />
        </clipPath>
    </defs>
</svg>