<svg width="17" height="15" viewBox="0 0 17 15" fill="none" xmlns="http://www.w3.org/2000/svg">
<path d="M0 7.76153C0 7.38184 0.282154 7.06804 0.648229 7.01838L0.75 7.01153L13.934 7.01213L9.17101 2.2686C8.87749 1.97634 8.87647 1.50147 9.16873 1.20795C9.43442 0.941107 9.85103 0.916003 10.1451 1.13322L10.2294 1.20566L16.2794 7.22966C16.3181 7.26819 16.3517 7.30988 16.3802 7.35391C16.3883 7.36716 16.3965 7.38072 16.4042 7.39455C16.4114 7.40641 16.4178 7.41872 16.4239 7.43117C16.4324 7.44928 16.4407 7.46799 16.4482 7.48708C16.4543 7.5018 16.4594 7.51611 16.464 7.53054C16.4696 7.54844 16.4749 7.5675 16.4796 7.58686C16.483 7.60038 16.4857 7.61339 16.4881 7.62645C16.4914 7.64588 16.4943 7.66599 16.4963 7.68633C16.498 7.70185 16.4991 7.71723 16.4997 7.73262C16.4998 7.74195 16.5 7.75172 16.5 7.76153L16.4996 7.79059C16.4991 7.80531 16.498 7.82001 16.4966 7.83468L16.5 7.76153C16.5 7.80886 16.4956 7.85517 16.4872 7.90006C16.4853 7.91079 16.483 7.92179 16.4804 7.93276C16.4751 7.95533 16.4689 7.97707 16.4618 7.99839C16.4584 8.00898 16.4543 8.02029 16.45 8.03153C16.4412 8.05409 16.4317 8.07561 16.4212 8.09656C16.4163 8.10641 16.4109 8.11673 16.4052 8.12694C16.3958 8.1436 16.3861 8.15943 16.3759 8.17486C16.3687 8.18578 16.3607 8.19715 16.3524 8.20833L16.3459 8.21698C16.3257 8.24338 16.3038 8.26839 16.2803 8.29186L16.2794 8.29256L10.2294 14.3176C9.93593 14.6098 9.46106 14.6089 9.16877 14.3154C8.90306 14.0485 8.87971 13.6318 9.09818 13.3387L9.17097 13.2547L13.932 8.51213L0.75 8.51153C0.335786 8.51153 0 8.17575 0 7.76153Z" fill="#017EEB"/>
</svg>
