<?xml version="1.0" encoding="UTF-8"?> <svg xmlns="http://www.w3.org/2000/svg" id="Layer_1" data-name="Layer 1" viewBox="0 0 100 100"><defs><style>.cls-1{fill:#252f3e;}.cls-2{fill:#f90;}</style></defs><path class="cls-1" d="M29.49,42.22V32a10.35,10.35,0,0,0-2.58-7.68,11.33,11.33,0,0,0-8.19-2.55c-4.41,0-8.9,1.75-9.69,2.69-.2.38-.65,3.53.45,3.53a2.6,2.6,0,0,0,1.57-.4,17.87,17.87,0,0,1,6.73-1.5c4.43-.45,7,2.57,6.58,6.47v2.28A29.11,29.11,0,0,0,17.47,34C12.05,33.67,6.82,37.16,7,42.78c-.34,6.89,6.15,8.39,8.55,8.26a11.67,11.67,0,0,0,9.2-4.32c1.79,4,2.93,3.76,3,3.76a1.6,1.6,0,0,0,.83-.29l1.88-1.32a1.21,1.21,0,0,0,.6-.92C31.06,47,29.4,45.56,29.49,42.22Zm-5.44.29C23.58,44,21.57,46.9,16.8,47a4.07,4.07,0,0,1-4.39-4.48c-.16-3.89,3.9-4.9,6.13-4.72a24.56,24.56,0,0,1,5.8.71A14.83,14.83,0,0,1,24.05,42.51Z"></path><path class="cls-1" d="M41.91,50.36a1.68,1.68,0,0,1-1.86-1.52L32.73,24.66a6,6,0,0,1-.28-1.26.69.69,0,0,1,.57-.78h3.26a1.69,1.69,0,0,1,1.85,1.53l5.24,20.68,4.87-20.68a1.67,1.67,0,0,1,1.88-1.51h2.52a1.64,1.64,0,0,1,1.87,1.53l4.91,20.95,5.41-20.95a1.73,1.73,0,0,1,1.86-1.53h2.9c.12,0,.9-.12.77,1.26-.06.28.5-1.56-7.75,25a1.68,1.68,0,0,1-1.86,1.52H58a1.7,1.7,0,0,1-1.87-1.58L51.27,28.66,46.46,48.78a1.7,1.7,0,0,1-1.86,1.58Z"></path><path class="cls-1" d="M82.08,51.19a19.91,19.91,0,0,1-8.43-1.81,1.88,1.88,0,0,1-1.15-1.75V46.06c0-1.25.91-1,1.3-.87A19.8,19.8,0,0,0,78,46.6c5.38,1.11,7.75-.34,8.33-.66a3.37,3.37,0,0,0,.77-5.13c-1.54-1.29-2.27-1.34-7.8-3.09-.68-.18-6.42-2-6.43-7.69-.09-4.14,3.68-8.25,10.21-8.21,1.86,0,6.82.6,8.16,2.29a1.73,1.73,0,0,1,.28,1v1.49c0,.65-.24,1-.71,1C89.71,27.48,87.7,26,83.62,26c-1-.05-5.86.13-5.64,3.67-.07,2.78,3.9,3.83,4.36,3.95,5.35,1.61,7.14,1.87,9.27,4.34,2.52,3.27,1.16,7.09.64,8.14-2.8,5.51-10,5.06-10.17,5.06Z"></path><path class="cls-2" d="M88,66.59c-10.29,7.6-25.22,11.64-38,11.64A68.89,68.89,0,0,1,3.42,60.5c-1-.87-.12-2,1-1.39A93.66,93.66,0,0,0,51,71.46a92.43,92.43,0,0,0,35.48-7.28c1.73-.73,3.2,1.15,1.49,2.41Z"></path><path class="cls-2" d="M92.27,61.7c-1.32-1.69-8.71-.79-12-.4-1,.12-1.17-.75-.26-1.39,5.88-4.13,15.55-2.95,16.66-1.56s-.3,11.08-5.81,15.7c-.85.72-1.66.34-1.28-.6C90.8,70.33,93.58,63.39,92.27,61.7Z"></path></svg> 