<svg width="21" height="14" viewBox="0 0 21 14" fill="none" xmlns="http://www.w3.org/2000/svg">
<path d="M8.2964 6.31099C8.2964 6.31099 10.1881 6.1674 10.1881 3.90301C10.1881 1.6409 8.90495 0.526369 6.9437 0.526369L0.224609 0.516113V13.0153H7.09982C7.09982 13.0153 10.5369 13.1235 10.5369 9.26483C10.5369 9.26483 10.7899 6.31099 8.2964 6.31099ZM2.72489 2.39076H6.16193C6.16193 2.39076 7.338 2.41013 7.338 3.93492C7.338 5.51554 6.16193 5.51554 6.16193 5.51554H2.72489V2.39076ZM6.47418 11.1406H2.72489V7.39019H6.47532C6.47532 7.39019 8.34997 7.40956 8.34997 9.26483C8.34997 11.1212 6.74427 11.1406 6.47418 11.1406Z" fill="white" style="fill:white;fill-opacity:1;"/>
<path d="M15.8492 3.64111C11.1541 3.64111 11.1621 8.32829 11.1621 8.32829C11.1621 8.32829 10.8498 13.0155 15.8492 13.0155C15.8492 13.0155 20.2242 13.0155 20.2242 9.26505H17.7239C17.7239 9.26505 17.7239 11.1397 15.8492 11.1397C15.8492 11.1397 13.9746 11.1397 13.9746 8.6394C13.9746 8.6394 18.974 8.6394 20.2242 8.6394C20.2242 7.39154 20.2242 3.64111 15.8492 3.64111ZM13.9746 7.39154C13.9746 7.39154 13.9336 5.5169 15.8492 5.5169C17.7649 5.5169 17.7239 7.39154 17.7239 7.39154H13.9746Z" fill="white" style="fill:white;fill-opacity:1;"/>
<path d="M18.349 1.76611H13.3496V3.01626H18.349V1.76611Z" fill="white" style="fill:white;fill-opacity:1;"/>
</svg>
