<svg width="20" height="21" viewBox="0 0 20 21" fill="none" xmlns="http://www.w3.org/2000/svg">
<path d="M16.4224 19.8921C12.1542 20.3475 7.84965 20.3475 3.58145 19.8921C2.75261 19.8046 1.97881 19.4356 1.38906 18.8467C0.799305 18.2578 0.429235 17.4845 0.340545 16.6558C-0.114817 12.3876 -0.114817 8.08304 0.340545 3.81485C0.428072 2.98601 0.797056 2.21221 1.38598 1.62246C1.97491 1.0327 2.74819 0.662634 3.57691 0.573944C7.8451 0.118581 12.1496 0.118581 16.4178 0.573944C17.2467 0.66147 18.0205 1.03045 18.6102 1.61938C19.2 2.20831 19.57 2.98159 19.6587 3.81031C20.1141 8.0785 20.1141 12.383 19.6587 16.6512C19.5712 17.4801 19.2022 18.2539 18.6133 18.8436C18.0244 19.4334 17.2511 19.8034 16.4224 19.8921Z" fill="#0056FF"/>
<path d="M11.8706 6.81982H15.0036V7.59937H11.8706V6.81982Z" fill="white"/>
<path d="M16.2498 11.2005C16.2498 9.57322 14.9896 8.25391 13.4362 8.25391C11.8828 8.25391 10.6226 9.57322 10.6226 11.2005C10.6226 12.8278 11.7919 14.146 13.4362 14.146C14.6862 14.146 15.7544 13.596 16.1169 12.2755H14.7976C14.6764 12.5016 14.4961 12.6904 14.276 12.8219C14.0558 12.9534 13.804 13.0226 13.5476 13.0221C12.8101 13.0221 12.1612 12.4937 12.1998 11.605H16.2282C16.2498 11.4755 16.2498 11.3414 16.2498 11.2005ZM12.2044 10.6221C12.3021 9.89027 12.8191 9.42322 13.443 9.42322C14.0669 9.42322 14.5794 9.89027 14.6816 10.6221H12.2044Z" fill="white"/>
<path d="M10.1409 11.3242C10.0386 10.1947 8.76136 9.81398 8.76136 9.81398C9.24659 9.58671 9.825 9.12194 9.81932 8.09807C9.81023 6.6208 8.26932 6.3208 7.77386 6.3208H3.75V14.0049H7.40568C7.91364 14.0049 8.45455 13.9378 8.88295 13.7242C10.0386 13.156 10.2409 12.4549 10.1409 11.3242ZM5.44091 7.64694H7.17045C7.17045 7.64694 8.19318 7.62307 8.19318 8.52762C8.19318 9.43216 7.17045 9.40716 7.17045 9.40716H5.44091V7.64694ZM7.27273 12.7003H5.44091V10.5992H7.27273C7.27273 10.5992 8.49091 10.5708 8.49091 11.6492C8.49091 12.7276 7.27273 12.7003 7.27273 12.7003Z" fill="white"/>
</svg>
