<?xml version="1.0" encoding="UTF-8"?> <svg xmlns="http://www.w3.org/2000/svg" id="Layer_1" data-name="Layer 1" viewBox="0 0 100 100"><defs><style>.cls-1{fill:#3d89f5;}.cls-2{fill:#1656b9;}.cls-3{fill:#85b5f8;}</style></defs><path class="cls-1" d="M11,37.65,6.75,41.94a12.22,12.22,0,0,0-.34,17.28l.34.34L41.3,94.46a10.73,10.73,0,0,0,2.82,2.05V54.22Z"></path><path class="cls-2" d="M89,37.65l4.29,4.29a12.22,12.22,0,0,1,.34,17.28l-.34.34L58.69,94.46a10.57,10.57,0,0,1-2.82,2.05V54.22Z"></path><path class="cls-3" d="M80.66,28.9,59,7.22A12.27,12.27,0,0,0,41.68,7l-.27.27L19.73,28.9,50.11,44.05Z"></path></svg> 