<svg width="320" height="320" viewBox="0 0 320 320" fill="none" xmlns="http://www.w3.org/2000/svg">
<path d="M197.224 82.5972C167.749 82.5972 138.668 94.5217 116.479 117.938V2.40039H72.5615V196.961C72.5615 260.105 126.982 311.325 194.073 311.325C261.164 311.325 315.585 260.105 315.585 196.961C315.585 133.817 264.315 82.5972 197.224 82.5972ZM194.073 267.272C152.782 267.272 119.367 235.762 119.367 196.961C119.367 158.16 152.847 126.65 194.073 126.65C235.365 126.65 268.779 158.16 268.779 196.961C268.779 235.762 235.299 267.272 194.073 267.272Z" fill="white" style="fill:white;fill-opacity:1;"/>
<path d="M40.5915 311.325C57.1965 311.325 70.6576 298.656 70.6576 283.028C70.6576 267.4 57.1965 254.73 40.5915 254.73C23.9864 254.73 10.5254 267.4 10.5254 283.028C10.5254 298.656 23.9864 311.325 40.5915 311.325Z" fill="#C4F8F9" style="fill:#C4F8F9;fill:color(display-p3 0.7686 0.9725 0.9765);fill-opacity:1;"/>
</svg>
