<svg width="20" height="21" viewBox="0 0 20 21" fill="none" xmlns="http://www.w3.org/2000/svg">
<path d="M18.3082 15.5082C18.3082 15.8082 18.2415 16.1166 18.0998 16.4166C17.9582 16.7166 17.7748 16.9999 17.5332 17.2666C17.1248 17.7166 16.6748 18.0416 16.1665 18.2499C15.6665 18.4582 15.1248 18.5666 14.5415 18.5666C13.6915 18.5666 12.7832 18.3666 11.8248 17.9582C10.8665 17.5499 9.90817 16.9999 8.95817 16.3082C7.99984 15.6082 7.0915 14.8332 6.22484 13.9749C5.3665 13.1082 4.5915 12.1999 3.89984 11.2499C3.2165 10.2999 2.6665 9.3499 2.2665 8.40824C1.8665 7.45824 1.6665 6.5499 1.6665 5.68324C1.6665 5.11657 1.7665 4.5749 1.9665 4.0749C2.1665 3.56657 2.48317 3.0999 2.92484 2.68324C3.45817 2.15824 4.0415 1.8999 4.65817 1.8999C4.8915 1.8999 5.12484 1.9499 5.33317 2.0499C5.54984 2.1499 5.7415 2.2999 5.8915 2.51657L7.82484 5.24157C7.97484 5.4499 8.08317 5.64157 8.15817 5.8249C8.23317 5.9999 8.27484 6.1749 8.27484 6.33324C8.27484 6.53324 8.2165 6.73324 8.09984 6.9249C7.9915 7.11657 7.83317 7.31657 7.63317 7.51657L6.99984 8.1749C6.90817 8.26657 6.8665 8.3749 6.8665 8.50824C6.8665 8.5749 6.87484 8.63324 6.8915 8.6999C6.9165 8.76657 6.9415 8.81657 6.95817 8.86657C7.10817 9.14157 7.3665 9.4999 7.73317 9.93324C8.10817 10.3666 8.50817 10.8082 8.9415 11.2499C9.3915 11.6916 9.82484 12.0999 10.2665 12.4749C10.6998 12.8416 11.0582 13.0916 11.3415 13.2416C11.3832 13.2582 11.4332 13.2832 11.4915 13.3082C11.5582 13.3332 11.6248 13.3416 11.6998 13.3416C11.8415 13.3416 11.9498 13.2916 12.0415 13.1999L12.6748 12.5749C12.8832 12.3666 13.0832 12.2082 13.2748 12.1082C13.4665 11.9916 13.6582 11.9332 13.8665 11.9332C14.0248 11.9332 14.1915 11.9666 14.3748 12.0416C14.5582 12.1166 14.7498 12.2249 14.9582 12.3666L17.7165 14.3249C17.9332 14.4749 18.0832 14.6499 18.1748 14.8582C18.2582 15.0666 18.3082 15.2749 18.3082 15.5082Z" stroke="#504F4F" stroke-width="1.5" stroke-miterlimit="10"/>
<path d="M15.4167 7.73307C15.4167 7.23307 15.025 6.46641 14.4417 5.84141C13.9083 5.26641 13.2 4.81641 12.5 4.81641" stroke="#504F4F" stroke-width="1.5" stroke-linecap="round" stroke-linejoin="round"/>
<path d="M18.3333 7.73324C18.3333 4.50824 15.725 1.8999 12.5 1.8999" stroke="#504F4F" stroke-width="1.5" stroke-linecap="round" stroke-linejoin="round"/>
</svg>
