<svg xmlns="http://www.w3.org/2000/svg" width="50" height="50" viewBox="0 0 50 50">
  <g id="Cost-Effective" transform="translate(-22 -163)">
    <rect id="Rectangle_25" data-name="Rectangle 25" width="50" height="50" transform="translate(22 163)" fill="#c5c5c5"
      opacity="0" />
    <g id="noun-cost-3839019" transform="translate(-52.706 163.003)">
      <path id="Path_10300" data-name="Path 10300"
        d="M297.9,163.634l1.176-6.092a3.633,3.633,0,0,1,1.092,1.3.856.856,0,0,0,1.555-.714,4.931,4.931,0,0,0-2.269-2.353l.378-2.017a.832.832,0,1,0-1.639-.294l-.336,1.723c-.462-.042-.84-.084-1.218-.084a5.267,5.267,0,0,0-5.462,5.042,5.2,5.2,0,0,0,4.706,5l-1.219,6.26a3.468,3.468,0,0,1-1.513-1.6.856.856,0,1,0-1.555.714,5.332,5.332,0,0,0,2.731,2.6l-.42,2.185a.82.82,0,0,0,.672.966h.168a.9.9,0,0,0,.84-.672l.42-2.1a3.41,3.41,0,0,0,.672.042,5,5,0,0,0,1.218-9.915Zm-5.042-3.487a3.587,3.587,0,0,1,3.781-3.361,5.67,5.67,0,0,1,.84.084l-1.26,6.6a3.508,3.508,0,0,1-3.361-3.319Zm3.781,11.765a.931.931,0,0,1-.336-.042l1.26-6.6a3.468,3.468,0,0,1,2.857,3.235,3.592,3.592,0,0,1-3.781,3.4Z"
        transform="translate(-197.143 -139.142)" fill="#02E1B8" />
      <path id="Path_10301" data-name="Path 10301"
        d="M162.052,73.9a.816.816,0,0,0-.924.714,18.961,18.961,0,1,1-2.354-11.6.829.829,0,0,0,1.429-.841,20.55,20.55,0,1,0,2.563,12.69.849.849,0,0,0-.714-.967Z"
        transform="translate(-42.851 -47.138)" fill="#02E1B8" />
      <path id="Path_10302" data-name="Path 10302"
        d="M189.5,103.53A15.966,15.966,0,1,0,205.462,119.5,15.959,15.959,0,0,0,189.5,103.53Zm0,30.251A14.285,14.285,0,1,1,203.781,119.5,14.327,14.327,0,0,1,189.5,133.781Z"
        transform="translate(-90.001 -94.289)" fill="#02E1B8" />
      <path id="Path_10303" data-name="Path 10303"
        d="M77.227,11.43h1.681V8.91h2.521V7.229H78.908V4.708H77.227V7.229H74.706V8.91h2.521Z"
        transform="translate(0 -4.29)" fill="#02E1B8" />
      <path id="Path_10304" data-name="Path 10304"
        d="M554.2,188.23h-1.681v2.521H550v1.681h2.521v2.521H554.2v-2.521h2.521v-1.681H554.2Z"
        transform="translate(-432.859 -171.427)" fill="#02E1B8" />
      <path id="Path_10305" data-name="Path 10305"
        d="M554.2,480h-1.681v2.521H550V484.2h2.521v2.521H554.2V484.2h2.521v-1.681H554.2Z"
        transform="translate(-432.859 -437.146)" fill="#02E1B8" />
      <path id="Path_10306" data-name="Path 10306"
        d="M553.363,6.72A3.361,3.361,0,1,0,550,3.358,3.371,3.371,0,0,0,553.363,6.72Zm0-5.042a1.681,1.681,0,1,1-1.681,1.681,1.686,1.686,0,0,1,1.681-1.681Z"
        transform="translate(-432.859 0)" fill="#02E1B8" />
      <path id="Path_10307" data-name="Path 10307"
        d="M96.893,484.71a3.361,3.361,0,1,0,3.361,3.361A3.371,3.371,0,0,0,96.893,484.71Zm0,5.042a1.681,1.681,0,1,1,1.681-1.681A1.686,1.686,0,0,1,96.893,489.752Z"
        transform="translate(-17.145 -441.436)" fill="#02E1B8" />
    </g>
  </g>
</svg>