<svg width="24" height="24" viewBox="0 0 24 24" fill="none" xmlns="http://www.w3.org/2000/svg">
    <path
        d="M21 5.5C21 5.776 20.776 6 20.5 6H17.5C17.224 6 17 5.776 17 5.5C17 5.224 17.224 5 17.5 5H20.5C20.776 5 21 5.224 21 5.5ZM20.5 8H17.5C17.224 8 17 8.224 17 8.5C17 8.776 17.224 9 17.5 9H20.5C20.776 9 21 8.776 21 8.5C21 8.224 20.776 8 20.5 8ZM20.5 11H17.5C17.224 11 17 11.224 17 11.5C17 11.776 17.224 12 17.5 12H20.5C20.776 12 21 11.776 21 11.5C21 11.224 20.776 11 20.5 11ZM20.5 14H17.5C17.224 14 17 14.224 17 14.5C17 14.776 17.224 15 17.5 15H20.5C20.776 15 21 14.776 21 14.5C21 14.224 20.776 14 20.5 14ZM15 10C15 11.649 14.331 13.145 13.25 14.231C13.247 14.234 13.246 14.239 13.242 14.242C13.238 14.245 13.234 14.246 13.231 14.25C12.145 15.331 10.65 16 9 16C5.691 16 3 13.309 3 10C3 6.691 5.691 4 9 4C12.309 4 15 6.691 15 10ZM9.5 5.051V9.586C9.5 9.717 9.554 9.846 9.646 9.94L12.853 13.147C13.558 12.285 13.999 11.199 13.999 10.001C13.999 7.415 12.019 5.307 9.499 5.052L9.5 5.051ZM9 15C10.198 15 11.284 14.559 12.146 13.854L8.939 10.647C8.656 10.364 8.5 9.987 8.5 9.586V5.051C5.98 5.306 4 7.415 4 10C4 12.757 6.243 15 9 15ZM24 5.5V14.5C24 16.981 21.981 19 19.5 19H12.5V22H17.5C17.776 22 18 22.224 18 22.5C18 22.776 17.776 23 17.5 23H6.5C6.224 23 6 22.776 6 22.5C6 22.224 6.224 22 6.5 22H11.5V19H4.5C2.019 19 0 16.981 0 14.5V5.5C0 3.019 2.019 1 4.5 1H19.5C21.981 1 24 3.019 24 5.5ZM23 5.5C23 3.57 21.43 2 19.5 2H4.5C2.57 2 1 3.57 1 5.5V14.5C1 16.43 2.57 18 4.5 18H19.5C21.43 18 23 16.43 23 14.5V5.5Z"
        fill="#02E1B8" />
</svg>