<svg width="200" height="200" viewBox="0 0 200 200" fill="none" xmlns="http://www.w3.org/2000/svg">
<path d="M9.59691 102.157C9.08684 101.615 8.46519 101.185 7.77978 100.882C7.09438 100.579 6.36115 100.436 5.61198 100.436C4.86281 100.42 4.12959 100.579 3.44418 100.866C2.75877 101.169 2.13712 101.6 1.62705 102.141C1.10104 102.667 0.686606 103.289 0.41563 103.975C0.144655 104.676 0.00119748 105.409 0.00119748 106.142C-0.0147422 106.892 0.128715 107.625 0.41563 108.31C0.702546 108.996 1.11698 109.617 1.64299 110.143C2.15321 110.685 2.7715 111.114 3.45791 111.403C4.14432 111.691 4.88358 111.832 5.62792 111.817C6.37067 111.821 7.10657 111.675 7.79138 111.387C8.4762 111.1 9.09577 110.676 9.61285 110.143C10.1548 109.633 10.5692 109.011 10.8562 108.326C11.1431 107.641 11.2865 106.907 11.2865 106.158C11.2865 105.409 11.1431 104.676 10.8562 103.99C10.5533 103.289 10.1389 102.667 9.59691 102.157ZM76.3047 89.2143C76.225 92.7848 76.4003 96.3713 76.8147 99.9258H76.6235C76.1772 99.0492 75.1889 97.4233 73.6746 95.0483L37.332 38H26.3017V110.829H34.7817V58.1797C34.8773 54.8483 34.7339 51.5169 34.3832 48.1855H34.702C35.3077 49.7795 36.0887 51.3097 37.0132 52.7442L74.3441 110.829H84.7846V38H76.3047V89.2143ZM142.279 102.827H112.313V77.5943H138.533V69.9113H112.313V45.7148H140.446V38H103.625V110.829H142.231L142.279 102.827ZM148.767 38V45.7148H169.648V110.829H178.128V45.7148H199.248V38H148.767ZM65.6569 128.936C63.5389 129.781 61.6259 131.069 60.0462 132.714C58.4203 134.451 57.1451 136.492 56.3163 138.739C55.4874 140.987 55.1208 143.362 55.2164 145.737C55.057 150.136 56.5872 154.44 59.5201 157.723C60.9866 159.269 62.7718 160.465 64.7484 161.262C66.7249 162.059 68.8449 162.41 70.9649 162.314C74.1528 162.426 77.3248 161.756 80.2099 160.353L80.2418 156.639C77.5958 158.186 74.5832 158.951 71.5228 158.871C69.881 158.935 68.2392 158.648 66.7249 158.026C65.2106 157.405 63.8398 156.448 62.724 155.237C60.3907 152.526 59.1918 149.021 59.3767 145.45C59.1854 141.672 60.4765 137.974 62.9631 135.137C64.1427 133.83 65.5932 132.81 67.2031 132.108C68.8192 131.421 70.5642 131.089 72.3197 131.136C75.1092 131.088 77.8508 131.773 80.2896 133.128V129.127C77.7603 128.108 75.0452 127.63 72.3197 127.725C70.0404 127.693 67.761 128.091 65.6569 128.936ZM105.395 140.349C104.329 139.229 103.034 138.352 101.598 137.78C100.161 137.207 98.6182 136.953 97.0741 137.034C95.4324 136.954 93.8065 137.225 92.2763 137.815C90.7461 138.404 89.3593 139.297 88.1798 140.429C87.0321 141.704 86.1554 143.186 85.5816 144.812C85.0078 146.438 84.7687 148.144 84.8802 149.865C84.7209 153.133 85.8526 156.337 88.0204 158.775C89.1043 159.939 90.4113 160.863 91.8778 161.485C93.3442 162.091 94.9223 162.394 96.5003 162.33C98.1102 162.378 99.7201 162.075 101.218 161.453C102.717 160.832 104.056 159.891 105.156 158.696C107.391 156.176 108.547 152.879 108.375 149.514C108.567 146.167 107.499 142.899 105.395 140.349ZM102.478 156.719C101.776 157.529 100.899 158.167 99.9122 158.584C98.9257 159.001 97.8566 159.187 96.7872 159.126C95.6874 159.174 94.6035 158.967 93.5993 158.552C92.5951 158.122 91.7025 157.484 90.9692 156.655C89.4416 154.764 88.6743 152.371 88.8174 149.945C88.6739 147.442 89.439 144.972 90.9692 142.995C91.6865 142.166 92.5791 141.513 93.5833 141.066C94.5875 140.636 95.6874 140.429 96.7713 140.477C97.8552 140.413 98.9231 140.62 99.9114 141.05C100.9 141.481 101.776 142.134 102.478 142.963C103.926 144.967 104.631 147.413 104.47 149.881C104.63 152.304 103.928 154.743 102.478 156.719ZM120.952 138.787C119.756 139.855 118.88 141.242 118.449 142.788V137.783H114.464V161.756H118.449V149.53C118.322 147.315 118.896 145.099 120.075 143.218C120.506 142.533 121.079 141.959 121.781 141.56C122.482 141.162 123.263 140.923 124.06 140.907C125.08 140.827 126.1 141.098 126.961 141.672V137.719C126.228 137.48 125.463 137.368 124.698 137.4C123.327 137.384 122.004 137.878 120.952 138.787ZM150.281 148.685C150.472 145.641 149.564 142.644 147.731 140.221C146.822 139.201 145.706 138.388 144.447 137.862C143.188 137.336 141.833 137.097 140.478 137.177C138.98 137.129 137.481 137.432 136.095 138.038C134.724 138.643 133.496 139.552 132.508 140.7C130.344 143.225 129.221 146.479 129.368 149.801C129.161 153.117 130.197 156.4 132.269 158.983C133.273 160.082 134.517 160.943 135.887 161.517C137.258 162.091 138.757 162.33 140.239 162.266C143.188 162.41 146.105 161.613 148.559 159.987V156.384C146.462 158.088 143.85 159.032 141.147 159.062C140.111 159.126 139.059 158.967 138.087 158.584C137.115 158.201 136.222 157.644 135.489 156.894C134.065 155.171 133.342 152.974 133.465 150.742H150.313L150.281 148.685ZM133.433 147.57C133.64 145.673 134.469 143.888 135.776 142.501C136.362 141.871 137.073 141.372 137.863 141.034C138.654 140.696 139.507 140.528 140.366 140.54C141.195 140.492 142.008 140.636 142.773 140.955C143.538 141.273 144.208 141.752 144.75 142.373C145.866 143.856 146.424 145.673 146.344 147.522L133.433 147.57Z" fill="#621EE5"/>
</svg>
