<?xml version="1.0" encoding="UTF-8"?>
<svg width="759px" height="134px" viewBox="0 0 759 134" version="1.1" xmlns="http://www.w3.org/2000/svg" xmlns:xlink="http://www.w3.org/1999/xlink">
    <title>logo</title>
    <g id="Page-1" stroke="none" stroke-width="1" fill="none" fill-rule="evenodd">
        <g id="dotCMS-logo-white-bg" transform="translate(0.000000, -1.000000)" fill-rule="nonzero">
            <path d="M49.2,134.5 L48.7,134.5 C24.9,134.4 0.8,115.3 0.5,83.3 L0.5,81.7 C0.8,49.5 25,30 48.9,30 C68.8,30 81.7,41.3 89.9,53.9 L89.9,0.5 L99.5,0.5 L99.5,132.2 L89.9,132.2 L89.9,109.9 C81.3,122.9 68.7,134.4 49.2,134.5 M49.9,39.2 C28.2,39.2 10.8,55 10.8,81.8 L10.8,82.2 C10.8,108.4 29,125.2 49.9,125.2 C70.6,125.2 90.5,107.8 90.5,82.4 L90.5,82 C90.5,56.4 70.6,39.2 49.9,39.2" id="Fill-14" fill="#000000"></path>
            <path d="M243.9,107 L243.9,41.4 L229.4,41.4 L229.4,32.5 L243.9,32.5 L243.9,0.5 L253.5,0.5 L253.5,32.5 L288.5,32.5 L288.5,41.3 L253.5,41.3 L253.5,105.9 C253.5,120.2 261.9,125.4 273.4,125.4 C278.3,125.4 282.4,124.4 288.1,121.9 L288.1,130.9 C283,133.3 278.1,134.400882 271.9,134.400882 C256.4,134.5 243.9,126.1 243.9,107" id="Fill-16" fill="#000000"></path>
            <path d="M306.5,68 L306.5,67.5 C306.5,30.8 334.2,0.5 373.1,0.5 C397,0.5 412,8.7 423.8,22.1 L401.8,46.1 C393.7,37.5 385.7,31.9 372.9,31.9 C354.9,31.9 342.1,48 342.1,67 L342.1,67.5 C342.1,87.2 354.7,103 374.3,103 C386.4,103 394.7,97.7 403.4,89.3 L424.5,110.9 C412.2,124.6 398,134.400251 372.6,134.400251 C334.4,134.5 306.5,104.7 306.5,68" id="Fill-17" fill="#000000"></path>
            <path d="M442.5,2.9 L478.7,2.9 L478.7,21 C487.1,10.3 498,0.5 516.4,0.5 C533.1,0.5 545.7,7.9 552.4,20.7 C563.6,7.6 577,0.5 594.4,0.5 C621.3,0.5 637.5,16.7 637.5,47.4 L637.5,130.5 L601.3,130.5 L601.3,59.3 C601.3,42.2 593.7,33.3 580.1,33.3 C566.5,33.3 558.2,42.1 558.2,59.3 L558.2,130.5 L522,130.5 L522,59.3 C522,42.2 514.4,33.3 500.8,33.3 C487.2,33.3 478.9,42.1 478.9,59.3 L478.9,130.5 L442.7,130.5 L442.7,2.9" id="Fill-18" fill="#000000"></path>
            <path d="M653.5,113.2 L669.2,89.4 C683.2,99.4 697.9,104.7 710,104.7 C720.6,104.7 725.4,100.9 725.4,95.2 C725.4,86.9 712.9,84.2 698.6,80 C680.5,74.8 660,66.4 660,41.6 C660,15.1 681.2,0.6 707.3,0.6 C723.7,0.6 741.6,6.1 755.6,15.4 L741.6,40.4 C728.8,33 716,28.5 706.6,28.5 C697.7,28.5 693.1,32.3 693.1,37.3 C693.1,44.9 705.4,48.3 719.4,53 C737.5,59 758.5,67.5 758.5,90.9 C758.5,119.7 737,132.6 709,132.6 C690.9,132.5 670.6,126.5 653.5,113.2" id="Fill-19" fill="#000000"></path>
            <path d="M168.6,29.5 C139,29.5 117.4,53.9 117.4,82 L117.4,82.4 C117.4,110.5 138.8,134.5 168.2,134.5 C197.8,134.5 219.400347,110.1 219.400347,82 L219.400347,81.6 C219.5,53.5 198,29.5 168.6,29.5" id="Fill-20" fill="#C336E5"></path>
        </g>
    </g>
</svg>