<svg width="20" height="21" viewBox="0 0 20 21" fill="none" xmlns="http://www.w3.org/2000/svg">
<path d="M16.4224 19.8921C12.1542 20.3475 7.84965 20.3475 3.58145 19.8921C2.75261 19.8046 1.97881 19.4356 1.38906 18.8467C0.799305 18.2578 0.429235 17.4845 0.340545 16.6558C-0.114817 12.3876 -0.114817 8.08304 0.340545 3.81485C0.428072 2.98601 0.797056 2.21221 1.38598 1.62246C1.97491 1.0327 2.74819 0.662634 3.57691 0.573944C7.8451 0.118581 12.1496 0.118581 16.4178 0.573944C17.2467 0.66147 18.0205 1.03045 18.6102 1.61938C19.2 2.20831 19.57 2.98159 19.6587 3.81031C20.1141 8.0785 20.1141 12.383 19.6587 16.6512C19.5712 17.4801 19.2022 18.2539 18.6133 18.8436C18.0244 19.4334 17.2511 19.8034 16.4224 19.8921Z" fill="#E34984"/>
<path d="M10 16.4829C11.2361 16.4829 12.4445 16.1164 13.4723 15.4296C14.5001 14.7428 15.3012 13.7667 15.7742 12.6247C16.2473 11.4826 16.3711 10.226 16.1299 9.0136C15.8888 7.80122 15.2935 6.68757 14.4194 5.8135C13.5453 4.93942 12.4317 4.34416 11.2193 4.103C10.0069 3.86185 8.75027 3.98562 7.60823 4.45867C6.46619 4.93171 5.49007 5.73279 4.80332 6.7606C4.11656 7.78841 3.75 8.99678 3.75 10.2329C3.7536 11.8894 4.41324 13.477 5.58456 14.6484C6.75588 15.8197 8.3435 16.4793 10 16.4829ZM10 15.3465C8.96414 15.3474 7.95301 15.0301 7.10341 14.4375C8.03144 13.1137 9.34599 12.1091 10.867 11.5613C11.2285 12.7036 11.4573 13.8837 11.5489 15.0784C11.0495 15.2471 10.527 15.3375 10 15.3465ZM12.6364 14.592C12.5254 13.4597 12.2989 12.3418 11.9602 11.2556C12.9659 11.0551 14.0012 11.0551 15.0068 11.2556C14.8616 11.9449 14.5759 12.5968 14.1674 13.1706C13.759 13.7445 13.2366 14.228 12.633 14.5909L12.6364 14.592ZM15.1011 10.1193C13.9351 9.90383 12.7379 9.92082 11.5784 10.1693C11.4341 9.79882 11.2795 9.43178 11.1068 9.07155C12.1177 8.46463 12.9999 7.66548 13.7034 6.71928C14.5747 7.64017 15.0728 8.85187 15.1011 10.1193ZM10 5.11928C11.0068 5.11789 11.9914 5.41486 12.8295 5.97269C12.2249 6.80879 11.462 7.51804 10.5841 8.06019C10.0372 7.08381 9.3926 6.16547 8.66023 5.31928C9.09596 5.19341 9.54651 5.12615 10 5.11928ZM7.55455 5.76928C8.32799 6.6274 9.00373 7.56877 9.56932 8.57609C8.13942 9.18886 6.55968 9.3629 5.03068 9.07609C5.19557 8.37858 5.50553 7.72361 5.94039 7.15386C6.37524 6.5841 6.92524 6.11233 7.55455 5.76928ZM6.47727 10.3681C7.72423 10.3643 8.95663 10.0999 10.0955 9.592C10.2386 9.89087 10.3659 10.1852 10.4886 10.5011C8.78669 11.109 7.30888 12.2183 6.25 13.6829C5.37627 12.7463 4.88914 11.5138 4.88636 10.2329C5.41297 10.3142 5.94451 10.3594 6.47727 10.3681Z" fill="white"/>
</svg>
