<svg width="20" height="20" viewBox="0 0 20 20" fill="none" xmlns="http://www.w3.org/2000/svg">
<path d="M10.002 20C15.516 20 20.002 15.5138 20.002 9.99952C20.002 4.48577 15.516 0 10.002 0C4.48792 0 0.00195312 4.48577 0.00195312 9.99952C0.00195312 15.5138 4.48799 20 10.002 20ZM10.002 17.6708C8.41789 17.6708 6.91364 17.1966 5.62672 16.295C6.15154 15.4244 7.74678 13.2427 11.1638 11.9393C12.0251 14.2744 12.4638 16.2671 12.6418 17.2018C11.799 17.5132 10.9128 17.6708 10.002 17.6708ZM14.8731 15.917C14.6798 14.9725 14.2897 13.3105 13.6126 11.3523C13.955 11.3182 14.3056 11.301 14.6612 11.301C15.9023 11.301 16.9378 11.5086 17.4846 11.645C17.1194 13.3137 16.1934 14.8243 14.8731 15.917ZM16.2789 5.63026C17.0473 6.73031 17.5159 8.02184 17.632 9.35858C16.9273 9.2429 15.7202 9.0864 14.3461 9.0864C13.8016 9.0864 13.2745 9.11141 12.774 9.16081C12.7608 9.12944 12.7475 9.09795 12.7341 9.06633C12.6297 8.82215 12.5176 8.57161 12.3995 8.31765C14.4411 7.40185 15.6782 6.28022 16.2789 5.63026ZM10.002 2.35349C11.7213 2.35349 13.3833 2.93221 14.73 3.99194C14.2657 4.51104 13.2076 5.49934 11.3453 6.26904C10.4169 4.60869 9.46411 3.20103 8.91935 2.43006C9.27656 2.37914 9.63865 2.35349 10.002 2.35349ZM6.39357 3.25881C6.84284 3.89149 7.83383 5.32772 8.83427 7.04757C6.14329 7.69639 3.77872 7.83721 2.65002 7.86464C3.22532 5.9046 4.5831 4.23047 6.39357 3.25881ZM9.98386 9.1735C10.071 9.34969 10.1546 9.52334 10.2346 9.69375C6.83554 10.8619 4.72538 13.4672 3.90983 14.6479C2.94132 13.3781 2.39395 11.8408 2.34633 10.2407C3.52976 10.2283 6.68513 10.1004 9.98386 9.1735Z" fill="white" style="fill:white;fill-opacity:1;"/>
</svg>
