<svg width="24" height="24" viewBox="0 0 24 24" fill="none" xmlns="http://www.w3.org/2000/svg">
<g clip-path="url(#clip0_15_13402)">
<path d="M15 10C15.552 10 16 10.448 16 11C16 11.552 15.552 12 15 12C14.448 12 14 11.552 14 11C14 10.448 14.448 10 15 10ZM19 11C19 11.552 19.448 12 20 12C20.552 12 21 11.552 21 11C21 10.448 20.552 10 20 10C19.448 10 19 10.448 19 11ZM10 0.5C10 0.224 10.224 0 10.5 0H10.81C12.006 0 13.023 0.836 13.259 2H21.999C22.643 2 23.23 2.297 23.611 2.816C23.992 3.335 24.099 3.984 23.906 4.599L23.076 7.248C22.747 8.296 21.788 9 20.69 9H15.543C14.319 9 13.282 8.124 13.077 6.917L12.288 2.25C12.166 1.525 11.544 1 10.809 1H10.499C10.223 1 9.999 0.776 9.999 0.5H10ZM13.43 3L14.064 6.75C14.187 7.474 14.809 8 15.543 8H20.69C21.349 8 21.923 7.578 22.121 6.949L22.952 4.3C23.049 3.992 22.995 3.668 22.805 3.408C22.615 3.148 22.322 3 21.999 3H13.43ZM23.5 10C23.224 10 23 10.224 23 10.5V15.5C23 17.43 21.43 19 19.5 19H4.5C2.57 19 1 17.43 1 15.5V7.5C1 5.57 2.57 4 4.5 4H9.5C9.776 4 10 3.776 10 3.5C10 3.224 9.776 3 9.5 3H4.5C2.019 3 0 5.019 0 7.5V15.5C0 17.981 2.019 20 4.5 20H11.5V23H7.5C7.224 23 7 23.224 7 23.5C7 23.776 7.224 24 7.5 24H16.5C16.776 24 17 23.776 17 23.5C17 23.224 16.776 23 16.5 23H12.5V20H19.5C21.981 20 24 17.981 24 15.5V10.5C24 10.224 23.776 10 23.5 10Z" fill="black"/>
</g>
<defs>
<clipPath id="clip0_15_13402">
<rect width="24" height="24" fill="white"/>
</clipPath>
</defs>
</svg>
