<svg width="32" height="32" viewBox="0 0 32 32" fill="none" xmlns="http://www.w3.org/2000/svg">
<path d="M10.2079 24.8903C8.36285 24.8903 6.86719 26.386 6.86719 28.231C6.86719 30.0761 8.36292 31.5717 10.2079 31.5717C12.053 31.5717 13.5487 30.076 13.5487 28.231C13.5487 26.386 12.053 24.8903 10.2079 24.8903ZM10.2079 30.087C9.1829 30.087 8.35198 29.2561 8.35198 28.2311C8.35198 27.206 9.1829 26.3751 10.2079 26.3751C11.233 26.3751 12.0639 27.206 12.0639 28.2311C12.064 29.2561 11.233 30.087 10.2079 30.087Z" fill="black"/>
<path d="M24.3134 24.8903C22.4683 24.8903 20.9727 26.386 20.9727 28.231C20.9727 30.0761 22.4684 31.5717 24.3134 31.5717C26.1584 31.5717 27.6541 30.076 27.6541 28.231C27.6541 26.386 26.1585 24.8903 24.3134 24.8903ZM24.3134 30.087C23.2884 30.087 22.4574 29.2561 22.4574 28.2311C22.4574 27.206 23.2884 26.3751 24.3134 26.3751C25.3384 26.3751 26.1693 27.206 26.1693 28.2311C26.1694 29.2561 25.3384 30.087 24.3134 30.087Z" fill="black"/>
<path d="M31.8487 5.40244C31.6941 5.23356 31.4825 5.12783 31.2548 5.10545L7.08988 4.77138L6.42173 2.72978C5.95103 1.36499 4.67299 0.44362 3.22941 0.428345H0.742395C0.332369 0.428345 0 0.760714 0 1.17074C0 1.58077 0.332369 1.91313 0.742395 1.91313H3.22941C4.0366 1.93097 4.74738 2.44927 5.01118 3.21234L9.72538 17.4292L9.35422 18.2829C8.94021 19.3505 9.06455 20.5521 9.68829 21.5123C10.3061 22.4554 11.3454 23.0375 12.4723 23.0714H26.9119C27.3219 23.0714 27.6543 22.739 27.6543 22.329C27.6543 21.9189 27.3219 21.5866 26.9119 21.5866H12.4722C11.8358 21.5707 11.25 21.2359 10.9132 20.6957C10.5801 20.1621 10.5117 19.5047 10.7276 18.9139L11.0246 18.2458L26.652 16.6125C28.3685 16.4234 29.7806 15.1749 30.1784 13.4944L31.9601 6.03336C32.0404 5.81851 31.9978 5.57687 31.8487 5.40244ZM28.7307 13.1604C28.4897 14.2422 27.5712 15.0401 26.4664 15.1278L11.0246 16.7239L7.57244 6.25617L30.3268 6.59024L28.7307 13.1604Z" fill="black"/>
</svg>
