<svg xmlns="http://www.w3.org/2000/svg" width="50" height="50" viewBox="0 0 50 50">
  <g id="Education_and_eLearning_" data-name="Education and eLearning " transform="translate(-25 -164)">
    <rect id="Rectangle_25" data-name="Rectangle 25" width="50" height="50" transform="translate(25 164)" fill="#c5c5c5" opacity="0.04"/>
    <g id="elearning-computer-online-display-graph" transform="translate(23 162)">
      <path id="Path_2590" data-name="Path 2590" d="M47,12H35.167a8.5,8.5,0,0,0,.167-1.667,8.3,8.3,0,0,0-1.208-4.3l3.15-2.367h6.392V2H37a.82.82,0,0,0-.5.167L33.125,4.7a8.322,8.322,0,0,0-14.458,5.633A8.5,8.5,0,0,0,18.833,12H7a5,5,0,0,0-5,5V38.667a5,5,0,0,0,5,5H23.517L22.958,47H19.5a.814.814,0,0,0-.517.183l-4.167,3.333a.819.819,0,0,0-.267.925.833.833,0,0,0,.783.558H38.667a.833.833,0,0,0,.783-.558.819.819,0,0,0-.267-.925l-4.167-3.333A.814.814,0,0,0,34.5,47H31.042l-.558-3.333H47a5,5,0,0,0,5-5V17a5,5,0,0,0-5-5ZM27.833,3.725A6.648,6.648,0,0,1,31.783,5.7l-1.95,1.467,1,1.333,1.95-1.467a6.621,6.621,0,0,1,.883,3.3H27.833Zm-1.667,0v7.442A.833.833,0,0,0,27,12h6.45a6.645,6.645,0,0,1-10.475,3.633l2.208-3.158-1.367-.95-2.05,2.925a6.651,6.651,0,0,1,4.4-10.725Zm8.042,44.942,2.083,1.667H17.708l2.083-1.667ZM24.65,47l.558-3.333h3.583L29.35,47ZM47,42H7a3.333,3.333,0,0,1-3.333-3.333H50.333A3.333,3.333,0,0,1,47,42Zm3.333-5H3.667V17A3.333,3.333,0,0,1,7,13.667H19.367a8.309,8.309,0,0,0,1.417,2.192L18.233,19.5H9.5A2.507,2.507,0,0,0,7,22v3.333H8.667V22a.833.833,0,0,1,.833-.833h9.167a.833.833,0,0,0,.683-.358L22.017,17a8.312,8.312,0,0,0,12.617-3.333H47A3.333,3.333,0,0,1,50.333,17Z" transform="translate(0 0)" fill="#ffb302"/>
      <path id="Path_2591" data-name="Path 2591" d="M54,2h3.333V3.667H54Z" transform="translate(-8.667 0)" fill="#ffb302"/>
      <path id="Path_2592" data-name="Path 2592" d="M44,6h1.667V7.667H44Z" transform="translate(-7 -0.667)" fill="#ffb302"/>
      <path id="Path_2593" data-name="Path 2593" d="M48,6h8.333V7.667H48Z" transform="translate(-7.667 -0.667)" fill="#ffb302"/>
      <path id="Path_2594" data-name="Path 2594" d="M44,10h6.667v1.667H44Z" transform="translate(-7 -1.333)" fill="#ffb302"/>
      <path id="Path_2595" data-name="Path 2595" d="M54,10h3.333v1.667H54Z" transform="translate(-8.667 -1.333)" fill="#ffb302"/>
      <path id="Path_2596" data-name="Path 2596" d="M6.167,10.333h6.667a4.167,4.167,0,1,0,0-8.333H6.167a4.167,4.167,0,0,0,0,8.333Zm0-6.667h6.667a2.5,2.5,0,1,1,0,5H6.167a2.5,2.5,0,1,1,0-5Z" transform="translate(0 0)" fill="#ffb302"/>
      <path id="Path_2597" data-name="Path 2597" d="M47.333,24.667h5a3.333,3.333,0,0,0,0-6.667h-5a3.333,3.333,0,0,0,0,6.667Zm0-5h5a1.667,1.667,0,0,1,0,3.333h-5a1.667,1.667,0,1,1,0-3.333Z" transform="translate(-7 -2.667)" fill="#ffb302"/>
      <path id="Path_2598" data-name="Path 2598" d="M26.5,29h8.333a2.5,2.5,0,0,0,0-5H26.5a2.5,2.5,0,1,0,0,5Zm0-3.333h8.333a.833.833,0,0,1,0,1.667H26.5a.833.833,0,1,1,0-1.667Z" transform="translate(-3.667 -3.667)" fill="#ffb302"/>
      <path id="Path_2599" data-name="Path 2599" d="M10.167,40.333H39.333a.833.833,0,0,0,.285-.051l9.167-3.333a.833.833,0,0,0,0-1.565l-9.167-3.333A.833.833,0,0,0,39.333,32H10.167a4.167,4.167,0,0,0,0,8.333Zm30-6.31,1.667.606V37.7l-1.667.606ZM38.5,35.333H12.667V33.667H38.5ZM12.667,37H38.5v1.667H12.667Zm30.833.1V35.235l2.562.932ZM10.167,33.667H11v5h-.833a2.5,2.5,0,1,1,0-5Z" transform="translate(-0.667 -5)" fill="#ffb302"/>
    </g>
  </g>
</svg>
