<svg width="24" height="24" viewBox="0 0 24 24" fill="none" xmlns="http://www.w3.org/2000/svg">
    <g clip-path="url(#clip0_38_15)">
        <path
            d="M5.99955 4.99993C7.10255 4.99993 7.99955 4.10293 7.99955 2.99993C7.99955 1.89693 7.10255 0.999931 5.99955 0.999931C4.89655 0.999931 3.99955 1.89693 3.99955 2.99993C3.99955 4.10293 4.89655 4.99993 5.99955 4.99993ZM5.99955 1.99993C6.55055 1.99993 6.99955 2.44793 6.99955 2.99993C6.99955 3.55193 6.55055 3.99993 5.99955 3.99993C5.44855 3.99993 4.99955 3.55193 4.99955 2.99993C4.99955 2.44793 5.44855 1.99993 5.99955 1.99993ZM22.4996 20.9999H18.4996C17.6726 20.9999 16.9996 21.6729 16.9996 22.4999C16.9996 23.3269 17.6726 23.9999 18.4996 23.9999H22.4996C23.3266 23.9999 23.9996 23.3269 23.9996 22.4999C23.9996 21.6729 23.3266 20.9999 22.4996 20.9999ZM22.4996 22.9999H18.4996C18.2246 22.9999 17.9996 22.7749 17.9996 22.4999C17.9996 22.2249 18.2246 21.9999 18.4996 21.9999H22.4996C22.7746 21.9999 22.9996 22.2249 22.9996 22.4999C22.9996 22.7749 22.7746 22.9999 22.4996 22.9999ZM22.4996 16.9999H18.4996C17.6726 16.9999 16.9996 17.6729 16.9996 18.4999C16.9996 19.3269 17.6726 19.9999 18.4996 19.9999H22.4996C23.3266 19.9999 23.9996 19.3269 23.9996 18.4999C23.9996 17.6729 23.3266 16.9999 22.4996 16.9999ZM22.4996 18.9999H18.4996C18.2246 18.9999 17.9996 18.7749 17.9996 18.4999C17.9996 18.2249 18.2246 17.9999 18.4996 17.9999H22.4996C22.7746 17.9999 22.9996 18.2249 22.9996 18.4999C22.9996 18.7749 22.7746 18.9999 22.4996 18.9999ZM22.4996 12.9999H18.4996C17.6726 12.9999 16.9996 13.6729 16.9996 14.4999C16.9996 15.3269 17.6726 15.9999 18.4996 15.9999H22.4996C23.3266 15.9999 23.9996 15.3269 23.9996 14.4999C23.9996 13.6729 23.3266 12.9999 22.4996 12.9999ZM22.4996 14.9999H18.4996C18.2246 14.9999 17.9996 14.7749 17.9996 14.4999C17.9996 14.2249 18.2246 13.9999 18.4996 13.9999H22.4996C22.7746 13.9999 22.9996 14.2249 22.9996 14.4999C22.9996 14.7749 22.7746 14.9999 22.4996 14.9999ZM13.5216 20.9999H9.52155C8.69455 20.9999 8.02155 21.6729 8.02155 22.4999C8.02155 23.3269 8.69455 23.9999 9.52155 23.9999H13.5216C14.3486 23.9999 15.0216 23.3269 15.0216 22.4999C15.0216 21.6729 14.3486 20.9999 13.5216 20.9999ZM13.5216 22.9999H9.52155C9.24555 22.9999 9.02155 22.7749 9.02155 22.4999C9.02155 22.2249 9.24555 21.9999 9.52155 21.9999H13.5216C13.7966 21.9999 14.0216 22.2249 14.0216 22.4999C14.0216 22.7749 13.7966 22.9999 13.5216 22.9999ZM13.5216 16.9999H9.52155C8.69455 16.9999 8.02155 17.6729 8.02155 18.4999C8.02155 19.3269 8.69455 19.9999 9.52155 19.9999H13.5216C14.3486 19.9999 15.0216 19.3269 15.0216 18.4999C15.0216 17.6729 14.3486 16.9999 13.5216 16.9999ZM13.5216 18.9999H9.52155C9.24555 18.9999 9.02155 18.7749 9.02155 18.4999C9.02155 18.2249 9.24555 17.9999 9.52155 17.9999H13.5216C13.7966 17.9999 14.0216 18.2249 14.0216 18.4999C14.0216 18.7749 13.7966 18.9999 13.5216 18.9999ZM4.52155 20.9999H1.52255C0.695553 20.9999 0.022553 21.6729 0.022553 22.4999C0.022553 23.3269 0.695553 23.9999 1.52255 23.9999H4.52255C5.34955 23.9999 6.02255 23.3269 6.02255 22.4999C6.02255 21.6729 5.34855 20.9999 4.52155 20.9999ZM4.52155 22.9999H1.52255C1.24655 22.9999 1.02255 22.7749 1.02255 22.4999C1.02255 22.2249 1.24655 21.9999 1.52255 21.9999H4.52255C4.79855 21.9999 5.02255 22.2249 5.02255 22.4999C5.02255 22.7749 4.79755 22.9999 4.52155 22.9999ZM23.3156 0.324931C22.8956 0.0129307 22.3736 -0.0780693 21.8806 0.0679307C21.6466 0.137931 17.7376 1.87993 17.7376 1.87993C16.7636 2.50393 16.7646 4.15293 17.7376 4.77793C17.7686 4.79893 22.9986 6.84093 22.9986 6.84093V10.4989C22.9986 10.7749 23.2226 10.9989 23.4986 10.9989C23.7746 10.9989 23.9986 10.7749 23.9986 10.4989V1.68093C23.9986 1.14993 23.7426 0.643931 23.3146 0.325931L23.3156 0.324931ZM22.9996 5.76793L18.2656 3.92393C17.9166 3.69393 17.9396 2.95793 18.2266 2.74693C18.2266 2.74693 21.9756 1.08293 22.1686 1.02493C22.6726 0.914931 22.9756 1.25993 22.9996 1.67893V5.76793ZM10.2536 13.3409L11.0256 15.6569C11.1126 15.9209 11.4026 16.0599 11.6576 15.9729C11.9196 15.8849 12.0606 15.6019 11.9736 15.3399L11.2016 13.0239C10.9966 12.4109 10.4256 11.9989 9.77855 11.9989H7.99955V6.99993H11.4996C11.7756 6.99993 11.9996 6.77593 11.9996 6.49993C11.9996 6.22393 11.7756 5.99993 11.4996 5.99993H5.76455C4.67255 5.99993 3.62755 6.52093 2.96955 7.39393L0.100553 11.1989C-0.065447 11.4199 -0.021447 11.7329 0.199553 11.8989C0.418553 12.0639 0.732553 12.0229 0.899553 11.7999L3.76855 7.99393C3.83655 7.90393 3.92155 7.83093 3.99955 7.75193V12.4629L3.51355 15.8629L2.03955 19.3009C1.93055 19.5549 2.04855 19.8489 2.30255 19.9579C2.54955 20.0649 2.85055 19.9519 2.95855 19.6949L4.45855 16.1949C4.47655 16.1539 4.48755 16.1119 4.49455 16.0679L4.93355 12.9979H9.77955C9.99455 12.9979 10.1856 13.1359 10.2546 13.3399L10.2536 13.3409ZM4.99955 7.13693C5.24555 7.05693 5.50055 6.99993 5.76455 6.99993H6.99955V11.9999H4.99955V7.13693Z"
            fill="#02E1B8" />
    </g>
    <defs>
        <clipPath id="clip0_38_15">
            <rect width="24" height="24" fill="white" />
        </clipPath>
    </defs>
</svg>