<svg width="20" height="21" viewBox="0 0 20 21" fill="none" xmlns="http://www.w3.org/2000/svg">
<g clip-path="url(#clip0_138_516)">
<path d="M17.5 0.233398H2.5C1.12125 0.233398 0 1.35465 0 2.7334V17.7334C0 19.1121 1.12125 20.2334 2.5 20.2334H17.5C18.8787 20.2334 20 19.1121 20 17.7334V2.7334C20 1.35465 18.8787 0.233398 17.5 0.233398Z" fill="#1976D2"/>
<path d="M16.875 10.2334H13.75V7.7334C13.75 7.0434 14.31 7.1084 15 7.1084H16.25V3.9834H13.75C11.6788 3.9834 10 5.66215 10 7.7334V10.2334H7.5V13.3584H10V20.2334H13.75V13.3584H15.625L16.875 10.2334Z" fill="#FAFAFA"/>
</g>
<defs>
<clipPath id="clip0_138_516">
<rect width="20" height="20" fill="white" transform="translate(0 0.233398)"/>
</clipPath>
</defs>
</svg>
