<svg width="43" height="43" viewBox="0 0 43 43" fill="none" xmlns="http://www.w3.org/2000/svg">
<g clip-path="url(#clip0_1_36)">
<mask id="mask0_1_36" style="mask-type:luminance" maskUnits="userSpaceOnUse" x="0" y="0" width="43" height="43">
<path d="M43 0H0V43H43V0Z" fill="white"/>
</mask>
<g mask="url(#mask0_1_36)">
<path d="M21.5 43C33.3741 43 43 33.3741 43 21.5C43 9.62588 33.3741 0 21.5 0C9.62588 0 0 9.62588 0 21.5C0 33.3741 9.62588 43 21.5 43Z" fill="#017EEB"/>
<mask id="mask1_1_36" style="mask-type:luminance" maskUnits="userSpaceOnUse" x="18" y="12" width="8" height="18">
<path d="M26 12H18V30H26V12Z" fill="white"/>
</mask>
<g mask="url(#mask1_1_36)">
<path fill-rule="evenodd" clip-rule="evenodd" d="M22.4983 29.5232V20.7521H25.29L25.7333 17.8434H22.4983V16.3855C22.4983 15.6238 22.7383 14.9018 23.7867 14.9018H25.89V12H22.9083C20.4017 12 19.7183 13.7152 19.7183 16.0833V17.8434H18V20.7521H19.7183V29.5232H22.4983Z" fill="white"/>
</g>
</g>
</g>
<defs>
<clipPath id="clip0_1_36">
<rect width="43" height="43" fill="white"/>
</clipPath>
</defs>
</svg>
