<svg width="80" height="120" viewBox="0 0 80 120" fill="none" xmlns="http://www.w3.org/2000/svg">
<g clip-path="url(#clip0_1188_14968)">
<path d="M40 60C40 48.9545 48.9524 40 59.996 40C71.0393 40 79.992 48.9545 79.992 60C79.992 71.0458 71.0393 80 59.996 80C48.9524 80 40 71.0458 40 60Z" fill="#1ABCFE" style="fill:#1ABCFE;fill:color(display-p3 0.1020 0.7373 0.9961);fill-opacity:1;"/>
<path d="M0.0078125 100C0.0078125 88.9545 8.96023 80 20.0038 80H39.9998V100C39.9998 111.046 31.0474 120 20.0038 120C8.96023 120 0.0078125 111.046 0.0078125 100Z" fill="#0ACF83" style="fill:#0ACF83;fill:color(display-p3 0.0392 0.8118 0.5137);fill-opacity:1;"/>
<path d="M40 0V39.9997H59.996C71.0395 39.9997 79.992 31.0455 79.992 19.9997C79.992 8.95394 71.0395 0 59.996 0H40Z" fill="#FF7262" style="fill:#FF7262;fill:color(display-p3 1.0000 0.4471 0.3843);fill-opacity:1;"/>
<path d="M0.015625 20C0.015625 31.0458 8.96804 40 20.0116 40H40.0076V0H20.0116C8.96804 0 0.015625 8.9545 0.015625 20Z" fill="#F24E1E" style="fill:#F24E1E;fill:color(display-p3 0.9490 0.3059 0.1176);fill-opacity:1;"/>
<path d="M0.0078125 60C0.0078125 71.0458 8.96023 80 20.0038 80H39.9998V40H20.0038C8.96023 40 0.0078125 48.9545 0.0078125 60Z" fill="#A259FF" style="fill:#A259FF;fill:color(display-p3 0.6353 0.3490 1.0000);fill-opacity:1;"/>
</g>
<defs>
<clipPath id="clip0_1188_14968">
<rect width="80" height="120" fill="white" style="fill:white;fill-opacity:1;"/>
</clipPath>
</defs>
</svg>
