<svg width="32" height="32" viewBox="0 0 32 32" fill="none" xmlns="http://www.w3.org/2000/svg">
<path d="M31.5414 12.0951L24.6507 2.12018C23.8689 0.989075 22.3402 0.691177 21.2414 1.45772L5.11313 12.777H2.41736C1.08452 12.777 0 13.9005 0 15.2817V27.431C0 28.8119 1.08452 29.9355 2.41736 29.9355H23.3402C24.6716 29.9355 25.7547 28.8133 25.7547 27.4338V19.2046L30.9781 15.5368C31.4996 15.1728 31.8486 14.6215 31.9611 13.9846C32.0783 13.323 31.9287 12.6512 31.5414 12.0951ZM21.8932 2.40429C22.473 1.99838 23.2897 2.16688 23.7126 2.77815L24.1492 3.41012L10.8005 12.777H7.11354L21.8932 2.40429ZM24.6119 27.4338C24.6119 28.1779 24.0413 28.7832 23.3402 28.7832H2.41736C1.71453 28.7832 1.14283 28.1768 1.14283 27.431V17.2021H24.6119L24.6119 27.4338ZM24.6119 16.0499H1.14283V15.2817C1.14283 14.5359 1.71453 13.9292 2.41736 13.9292H10.971C10.9734 13.9292 10.9756 13.9309 10.978 13.9309C10.9817 13.9309 10.9854 13.9292 10.9891 13.9292H23.3374C24.0402 13.9292 24.6119 14.5359 24.6119 15.2817L24.6119 16.0499ZM30.8361 13.7826C30.7772 14.1151 30.5967 14.4018 30.3263 14.5905L25.7547 17.8006V15.2817C25.7547 13.9005 24.6702 12.777 23.3374 12.777H12.8012L24.8024 4.35567L30.6051 12.7556C30.8171 13.0602 30.8992 13.4251 30.8361 13.7826Z" fill="black"/>
<path d="M5.11608 26.8387H9.33535C10.4487 26.8387 11.3547 26.1441 11.3547 25.2902C11.3547 24.4366 10.4487 23.7419 9.33535 23.7419H5.11608C4.00271 23.7419 3.09668 24.4366 3.09668 25.2904C3.09668 26.1441 4.00271 26.8387 5.11608 26.8387ZM5.11608 24.6788H9.33535C9.77509 24.6788 10.1328 24.9533 10.1328 25.2904C10.1328 25.6276 9.77509 25.9018 9.33535 25.9018H5.11608C4.67634 25.9018 4.31864 25.6274 4.31864 25.2902C4.31864 24.9531 4.67634 24.6788 5.11608 24.6788Z" fill="black"/>
<path d="M12.9509 26.8387H20.0806C20.3922 26.8387 20.6448 26.6076 20.6448 26.3225C20.6448 26.0375 20.3922 25.8064 20.0806 25.8064H12.9509C12.6393 25.8064 12.3867 26.0375 12.3867 26.3225C12.3867 26.6076 12.6393 26.8387 12.9509 26.8387Z" fill="black"/>
<path d="M12.9045 24.7742H21.1593C21.4452 24.7742 21.677 24.5431 21.677 24.2581C21.677 23.973 21.4452 23.7419 21.1593 23.7419H12.9045C12.6186 23.7419 12.3867 23.973 12.3867 24.2581C12.3867 24.5431 12.6186 24.7742 12.9045 24.7742Z" fill="black"/>
</svg>
