<svg xmlns="http://www.w3.org/2000/svg" width="50.612" height="50" viewBox="0 0 50.612 50">
  <g id="Fintech_and_Banking" data-name="Fintech and Banking" transform="translate(-93 -164)">
    <rect id="Rectangle_26" data-name="Rectangle 26" width="50" height="50" transform="translate(93 164)" fill="#c8c8c8" opacity="0"/>
    <g id="bank" transform="translate(90.705 161)">
      <path id="Path_2600" data-name="Path 2600" d="M31.542,40.542a.848.848,0,0,1,.847.847h1.695A2.539,2.539,0,0,0,32.39,39V38H30.695v1a2.536,2.536,0,0,0,.847,4.929.847.847,0,1,1-.847.847H29a2.539,2.539,0,0,0,1.695,2.386v1H32.39v-1a2.536,2.536,0,0,0-.847-4.929.847.847,0,0,1,0-1.695Z" transform="translate(-4.059 -5.339)" fill="#a704bd"/>
      <path id="Path_2601" data-name="Path 2601" d="M22.475,46.1H20.78v-6.78h1.292a7.627,7.627,0,1,0,14.364,0h1.292V46.1H36.034V47.8h8.475V46.1H42.814v-6.78h.847a.847.847,0,0,0,.847-.847v-3.39a.846.846,0,0,0-.608-.813L29.493,30.035a.849.849,0,0,0-.478,0L14.608,34.272a.846.846,0,0,0-.608.813v3.39a.847.847,0,0,0,.847.847h.847V46.1H14V47.8h8.475Zm6.78,1.695a5.932,5.932,0,1,1,5.932-5.932A5.939,5.939,0,0,1,29.254,47.8ZM41.119,46.1H39.424v-6.78h1.695ZM15.695,35.719l13.559-3.988,13.559,3.988v1.908H35.592a7.619,7.619,0,0,0-12.675,0H15.695Zm1.695,3.6h1.695V46.1H17.39Z" transform="translate(-1.771 -4.119)" fill="#a704bd"/>
      <path id="Path_2602" data-name="Path 2602" d="M46.184,6.891A6.667,6.667,0,0,0,34.6,5.934,6.677,6.677,0,0,0,24,11.342v.98H13.924v1.695h6.019a4.144,4.144,0,0,0-.829,1.695H11.381v1.695h7.707a4.147,4.147,0,0,0,.758,1.695H7.144A1.7,1.7,0,0,0,5.449,20.8V46.22H4.083a1.695,1.695,0,0,0-1.608,2.231A6.644,6.644,0,0,0,8.786,53H46.18a6.646,6.646,0,0,0,6.312-4.549,1.694,1.694,0,0,0-1.609-2.231H49.517V20.8a1.679,1.679,0,0,0-.237-.85,6.954,6.954,0,0,0-3.1-13.056Zm4.7,41.025a4.952,4.952,0,0,1-4.7,3.39H8.786a4.951,4.951,0,0,1-4.7-3.39ZM44.432,46.22h-33.9V24.186h33.9ZM47.822,20.8V46.22H46.127V23.339a.847.847,0,0,0-.847-.847H9.686a.847.847,0,0,0-.847.847V46.22H7.144V20.8ZM45.952,19.1H23.187a2.484,2.484,0,1,1,0-4.968h1.666a.847.847,0,0,0,.847-.847V11.343a4.981,4.981,0,0,1,8.525-3.5A.847.847,0,0,0,35.6,7.6a4.974,4.974,0,0,1,9.216.415.848.848,0,0,0,.8.565h.338a5.26,5.26,0,1,1,0,10.519Z" fill="#a704bd"/>
      <path id="Path_2603" data-name="Path 2603" d="M54,17.9v1.695a3.4,3.4,0,0,0,2.526-1.13l-1.263-1.131A1.7,1.7,0,0,1,54,17.9Z" transform="translate(-7.873 -2.186)" fill="#a704bd"/>
      <path id="Path_2604" data-name="Path 2604" d="M54,12v1.695a1.7,1.7,0,0,1,1.695,1.695H57.39A3.393,3.393,0,0,0,54,12Z" transform="translate(-7.873 -1.373)" fill="#a704bd"/>
      <path id="Path_2605" data-name="Path 2605" d="M9,18h1.695v1.695H9Z" transform="translate(-1.009 -2.288)" fill="#a704bd"/>
      <path id="Path_2606" data-name="Path 2606" d="M12,14h1.695v1.695H12Z" transform="translate(-1.466 -1.678)" fill="#a704bd"/>
    </g>
  </g>
</svg>
