<svg xmlns="http://www.w3.org/2000/svg" width="50" height="50" viewBox="0 0 50 50">
  <g id="Flexibility_in_Time" data-name="Flexibility in Time" transform="translate(-269 -163)">
    <rect id="Rectangle_28" data-name="Rectangle 28" width="50" height="50" transform="translate(269 163)"
      fill="#02E1B8" opacity="0" />
    <g id="noun-flexible-1325440" transform="translate(193.442 157.434)">
      <path id="Path_10299" data-name="Path 10299"
        d="M123.6,6.566l-14.644,3.662,5.429,1.809L112.826,13.6a20.7,20.7,0,0,0-25.49,0l-1.563-1.563,5.43-1.809L76.558,6.567l3.661,14.644,1.809-5.43,1.57,1.57a20.645,20.645,0,0,0,0,25.475L82.028,44.4l-1.809-5.431L76.558,53.609,91.2,49.947l-5.429-1.809,1.562-1.562a20.671,20.671,0,0,0,25.483-.008l1.57,1.57-5.429,1.809L123.6,53.609l-3.661-14.644-1.81,5.43-1.562-1.564a20.67,20.67,0,0,0-.007-25.482l1.57-1.57,1.809,5.43ZM77.851,7.861l9.988,2.5-3.808,1.269,3.212,3.211.328-.265a19.905,19.905,0,0,1,25.019,0l.329.265,3.211-3.211-3.808-1.269,9.988-2.5-2.5,9.988-1.27-3.809-3.218,3.219.266.329A19.885,19.885,0,0,1,115.6,42.6l-.266.328,3.211,3.212,1.27-3.809,2.5,9.988-9.988-2.5,3.808-1.268-3.219-3.219-.329.266a19.883,19.883,0,0,1-25.012.007l-.329-.266-3.211,3.212,3.808,1.268-9.988,2.5,2.5-9.988,1.269,3.808,3.219-3.219-.266-.329a19.861,19.861,0,0,1,0-25.005l.265-.329-3.219-3.22-1.269,3.808Zm22.318,8.114s-4.353-.062-6.985,2.239a9.893,9.893,0,0,0-2.89,6.075h0a.38.38,0,0,0,0,.039,17.822,17.822,0,0,0,.313,3.124,1.059,1.059,0,0,1-.232.777,6.1,6.1,0,0,1-.883.987c-.351.332-.723.655-1.027.975a1.591,1.591,0,0,0-.6,1.111,1.206,1.206,0,0,0,.454.9,3.51,3.51,0,0,0,.716.428,3.183,3.183,0,0,1,.535.31c.108.09.116.108.116.178a1.229,1.229,0,0,1-.1.624c-.024.048-.057.1-.1.189a.938.938,0,0,0-.1.4.757.757,0,0,0,.264.542,1.333,1.333,0,0,0,.3.182c.005,0,0,0,.007,0a1.774,1.774,0,0,1-.082.272c-.068.169-.135.305-.135.305h0a.47.47,0,0,0,.145.592,2.689,2.689,0,0,1,.406.383,1.09,1.09,0,0,1,.313.7c-.034.308-.187.592-.224,1.032a1.905,1.905,0,0,0,.663,1.475,1.964,1.964,0,0,0,1.321.488,11.177,11.177,0,0,0,1.511-.048,4.506,4.506,0,0,1,2.376.21,4.889,4.889,0,0,1,1.208,1.952,11.455,11.455,0,0,1,.435,1.412.471.471,0,0,0,.459.368h10.619a.471.471,0,0,0,.427-.668s-.445-.964-.853-2.187a9.533,9.533,0,0,1-.625-3.612,14.355,14.355,0,0,1,1.753-4.364c.025-.032.532-.683,1.1-1.592a9.382,9.382,0,0,0,1.393-3.128,11.19,11.19,0,0,0-.311-4.738,10.2,10.2,0,0,0-4.14-6.039c-2.933-1.952-7.544-1.9-7.544-1.9Zm0,.941c.005,0,4.492.055,7.02,1.739a9.263,9.263,0,0,1,3.749,5.484,10.274,10.274,0,0,1,.3,4.356,9.161,9.161,0,0,1-1.262,2.784c-.555.887-1.072,1.552-1.072,1.552h0c-.01.013-.019.026-.028.04a14.275,14.275,0,0,0-1.887,4.73,9.641,9.641,0,0,0,.664,4.043,15.009,15.009,0,0,0,.631,1.617H98.693a8.029,8.029,0,0,0-.361-1.175,5.25,5.25,0,0,0-1.522-2.369,4.387,4.387,0,0,0-3.01-.4,10.857,10.857,0,0,1-1.38.047,1.2,1.2,0,0,1-.718-.214c-.4-.4-.406-.536-.39-.73s.167-.518.222-1.008A1.874,1.874,0,0,0,91,36a1.7,1.7,0,0,0-.282-.264c.012-.029.012-.025.025-.055a1.859,1.859,0,0,0,.185-.743.757.757,0,0,0-.264-.542,1.2,1.2,0,0,0-.276-.17c.014-.025.018-.029.035-.064a2.316,2.316,0,0,0,.2-1.044,1.208,1.208,0,0,0-.454-.9,3.493,3.493,0,0,0-.716-.429,3.215,3.215,0,0,1-.536-.31c-.108-.09-.115-.108-.115-.178a2.87,2.87,0,0,1,.34-.463c.255-.268.623-.59.993-.94a6.7,6.7,0,0,0,1.023-1.155,1.988,1.988,0,0,0,.366-1.477,16.959,16.959,0,0,1-.293-2.912c0-.018.334-3.48,2.569-5.433s6.36-2.006,6.365-2.006Z"
        fill="#014185" />
    </g>
  </g>
</svg>