<svg width="322" height="329" viewBox="0 0 322 329" fill="none" xmlns="http://www.w3.org/2000/svg">
<path fill-rule="evenodd" clip-rule="evenodd" d="M294.251 0.0509911C304.165 0.0509911 313.338 5.4039 317.989 14.096C322.435 22.4313 322.256 32.2449 317.503 40.4018L317.35 40.6822L275.649 110.27C270.922 118.147 262.413 123.041 253.316 123.143H253.01H205.38L225.183 168.337L225.26 168.464L225.388 168.668C230.038 177.08 229.936 187.072 225.107 195.331L224.953 195.611L183.252 265.199C178.525 273.075 170.016 277.969 160.92 278.071H160.613H102.175L60.1673 322.271L60.0906 322.348C56.13 326.35 50.7896 328.593 45.2193 328.593C43.8394 328.593 42.4341 328.44 41.0543 328.159C34.2574 326.783 28.6103 322.118 25.9018 315.72L25.8252 315.542L3.7225 264.918L3.59473 264.715L3.46698 264.511C3.46698 264.511 3.41586 264.434 3.41586 264.409C-1.23464 255.997 -1.13243 246.005 3.69694 237.746L3.85027 237.466L44.2994 169.968L14.5055 101.909L15.0421 101.629V101.578C13.7645 95.3075 14.7866 88.782 18.0317 83.0722L18.2106 82.7663L18.3639 82.4859L60.0651 12.898C64.7923 5.02154 73.3011 0.12745 82.3977 0H294.277L294.251 0.0509911ZM75.2942 277.562H30.9867L43.9928 307.589V307.665C44.2483 308.201 44.5805 308.507 45.117 308.609C45.577 308.71 45.9603 308.609 46.318 308.277L46.3691 308.226L75.2942 277.562ZM201.931 174.327H68.0118C67.8585 174.327 67.7052 174.327 67.5774 174.327H67.5263L104.245 258.113H160.587C162.913 258.113 165.136 256.864 166.413 254.901L166.516 254.748L208.268 185.109C209.52 183.044 209.648 180.623 208.677 178.456C207.527 175.958 204.895 174.327 201.956 174.327H201.931ZM54.0859 191.532L20.9447 247.254C19.616 249.471 19.5393 252.072 20.7403 254.366L20.868 254.595L20.9447 254.697L21.0724 254.926L21.328 255.309L21.6346 255.691L21.9157 256.022L21.9668 256.073L22.1456 256.277L22.3245 256.43C23.3721 257.373 24.6497 257.96 26.0807 258.087H26.3873L26.5662 258.113H26.7961H83.0365L54.0859 191.507V191.532ZM45.3726 123.27L59.9373 156.586L60.2184 156.484C62.7225 155.642 65.3544 155.184 68.0118 155.158H68.4207H198.251L184.325 123.296H45.3981L45.3726 123.27ZM293.868 19.4744H159.463L196.207 103.286H252.524C254.849 103.286 257.073 102.037 258.35 100.049L258.452 99.8957L300.205 30.2567C301.457 28.192 301.584 25.7705 300.613 23.6038C299.489 21.1568 296.934 19.5254 294.072 19.4489H293.893L293.868 19.4744ZM138.894 19.4744H82.8832C80.5835 19.4744 78.3605 20.6979 77.0829 22.6862L76.9806 22.8391L35.3306 92.478C34.0785 94.5682 33.9508 96.9643 34.9473 99.1309C36.046 101.578 38.6013 103.209 41.4375 103.26H41.6164H175.51L138.868 19.4489L138.894 19.4744Z" fill="#5966ef" style="fill:#5966ef;fill-opacity:1;"/>
</svg>
