<svg width="24" height="24" viewBox="0 0 24 24" fill="none" xmlns="http://www.w3.org/2000/svg">
    <g clip-path="url(#clip0_37_2)">
        <path
            d="M17.5 0.0129395H6.5C4.019 0.0129395 2 2.03094 2 4.51294V20.5129C2 22.4429 3.57 24.0129 5.5 24.0129H17.5C19.981 24.0129 22 21.9939 22 19.5129V4.51294C22 2.03094 19.981 0.0129395 17.5 0.0129395ZM3 4.51294C3 2.58294 4.57 1.01294 6.5 1.01294H17.5C19.43 1.01294 21 2.58294 21 4.51294V17.0129H5.5C4.522 17.0129 3.636 17.4169 3 18.0659V4.51294ZM17.5 23.0129H5.5C4.121 23.0129 3 21.8919 3 20.5129C3 19.1339 4.121 18.0129 5.5 18.0129H21V19.5129C21 21.4429 19.43 23.0129 17.5 23.0129ZM12 14.9999C15.309 14.9999 18 12.3089 18 8.99994C18 5.69094 15.309 2.99994 12 2.99994C8.691 2.99994 6 5.69094 6 8.99994C6 12.3089 8.691 14.9999 12 14.9999ZM7.025 9.49994H9.009C9.072 11.1709 9.448 12.6079 10.027 13.5939C8.394 12.8899 7.209 11.3399 7.025 9.49994ZM12 3.99994C12.888 3.99994 13.875 5.89294 13.989 8.49994H10.011C10.125 5.89294 11.112 3.99994 12 3.99994ZM13.989 9.49994C13.875 12.1069 12.888 13.9999 12 13.9999C11.112 13.9999 10.125 12.1069 10.011 9.49994H13.989ZM13.972 13.5939C14.552 12.6079 14.928 11.1699 14.99 9.49994H16.974C16.79 11.3409 15.604 12.8899 13.971 13.5939H13.972ZM16.975 8.49994H14.991C14.928 6.82894 14.552 5.39194 13.973 4.40594C15.606 5.10994 16.791 6.65994 16.975 8.49994ZM10.028 4.40594C9.448 5.39194 9.072 6.82994 9.01 8.49994H7.026C7.21 6.65894 8.396 5.10994 10.029 4.40594H10.028Z"
            fill="#02E1B8" />
    </g>
    <defs>
        <clipPath id="clip0_37_2">
            <rect width="24" height="24" fill="white" />
        </clipPath>
    </defs>
</svg>