<svg width="200" height="200" viewBox="0 0 200 200" fill="none" xmlns="http://www.w3.org/2000/svg">
<path d="M15.2722 85.7099C14.9979 85.7099 14.7235 85.4355 14.9979 85.1612L16.9183 82.4177C17.1926 82.1434 17.467 81.869 18.0157 81.869H52.5836C52.8579 81.869 53.1323 82.1434 52.8579 82.4177L51.2119 84.8869C50.9375 85.1612 50.6632 85.4356 50.1145 85.4356L15.2722 85.7099ZM0.731738 94.489C0.45739 94.489 0.18304 94.2147 0.457389 93.9404L2.37783 91.1969C2.65218 90.9225 2.92653 90.6482 3.47522 90.6482H47.6453C47.9197 90.6482 48.194 90.9225 48.194 91.1969L47.371 93.9404C47.371 94.2147 46.8223 94.489 46.5479 94.489H0.731738ZM24.0514 103.543C23.777 103.543 23.5027 103.268 23.777 102.994L25.1487 100.525C25.4231 100.25 25.6974 99.976 26.2461 99.976H45.4505C45.7249 99.976 45.9992 100.25 45.9992 100.525L45.7249 102.719C45.7249 102.994 45.4505 103.268 45.1762 103.268L24.0514 103.543ZM124.463 83.7895L108.276 87.9047C106.905 88.179 106.63 88.4534 105.533 86.8073C104.161 85.1612 103.064 84.0638 100.869 83.2408C94.8333 80.2229 88.7976 81.046 83.3106 84.6125C76.7262 88.7277 73.4341 95.0377 73.4341 102.994C73.4341 110.676 78.921 116.986 86.6028 118.083C93.1872 118.906 98.6741 116.711 103.064 111.773C103.887 110.676 104.71 109.578 105.807 108.206H87.1515C85.2311 108.206 84.6824 106.835 85.2311 105.189C86.6028 102.171 88.7976 97.2325 90.1693 94.7634C90.4437 94.2147 91.2667 93.1173 92.6385 93.1173H127.755C127.481 95.8608 127.481 98.3299 127.206 101.073C126.109 107.932 123.64 114.516 119.25 120.003C112.392 129.057 103.338 134.818 91.8154 136.464C82.2132 137.836 73.4341 135.916 65.7523 130.154C58.6193 124.667 54.504 117.534 53.4066 108.755C52.0349 98.3299 55.3271 88.7277 61.6371 80.4973C68.4958 71.4438 77.5493 65.6825 88.7976 63.762C97.8511 62.1159 106.63 63.2133 114.312 68.4259C119.525 71.7181 123.091 76.382 125.56 82.1434C125.835 83.2408 125.56 83.5151 124.463 83.7895Z" fill="#00ACD7"/>
<path d="M156.289 137.286C147.51 137.012 139.554 134.543 132.695 128.781C126.934 123.843 123.367 117.533 122.27 110.126C120.624 99.1518 123.642 89.5497 130.226 81.0449C137.359 71.717 145.864 67.0531 157.387 64.8583C167.263 63.2122 176.591 64.0353 184.822 69.7966C192.503 75.0092 197.167 82.1422 198.539 91.4701C200.185 104.639 196.344 115.064 187.565 124.118C181.255 130.702 173.299 134.543 164.52 136.463C161.502 137.012 158.758 137.012 156.289 137.286ZM179.335 98.3288C179.335 96.9571 179.335 96.134 179.06 95.0366C177.414 85.4344 168.635 79.9475 159.307 82.1423C150.254 84.0627 144.492 89.824 142.298 98.8775C140.651 106.285 144.218 113.967 151.077 117.259C156.289 119.454 161.776 119.179 166.715 116.71C174.671 112.869 178.786 106.559 179.335 98.3288Z" fill="#00ACD7"/>
</svg>
