<svg width="43" height="43" viewBox="0 0 43 43" fill="none" xmlns="http://www.w3.org/2000/svg">
<g clip-path="url(#clip0_274_45)">
<circle cx="21.5" cy="21.5" r="21.5" fill="#00C4C8"/>
<path d="M13.5437 17.8443C14.0819 16.7719 14.8423 15.8654 15.8005 15.1117C17.0991 14.0857 18.5886 13.4682 20.2587 13.2789C22.2204 13.0564 24.0641 13.4117 25.7688 14.3879C26.1924 14.6303 26.5882 14.9059 26.9667 15.2047C27.0604 15.2777 27.05 15.3209 26.9702 15.3939C26.1959 16.1311 25.4216 16.8682 24.6543 17.6119C24.564 17.6982 24.5154 17.6916 24.4182 17.6219C22.1683 15.965 18.8872 16.4133 17.2102 18.6047C16.9151 18.9898 16.6755 19.4049 16.5088 19.8564C16.495 19.8963 16.4672 19.9328 16.4463 19.9727C15.9985 19.6473 15.5471 19.3219 15.1027 18.9932C14.5818 18.6113 14.061 18.2295 13.5437 17.8443Z" fill="white"/>
<path d="M16.4464 23.0871C16.5957 23.4025 16.7207 23.7312 16.9082 24.0267C17.6963 25.2619 18.8213 26.0555 20.3039 26.3377C21.6406 26.5933 22.9253 26.4207 24.1231 25.7799C24.1648 25.7599 24.2065 25.74 24.2447 25.7201C24.2655 25.74 24.2828 25.7633 24.3037 25.7799C25.1995 26.4439 26.0987 27.108 26.9945 27.7721C26.564 28.1805 26.0744 28.5092 25.5536 28.7947C24.0433 29.6182 22.4079 29.9502 20.6858 29.824C18.5401 29.6646 16.6894 28.8545 15.1617 27.3935C14.4916 26.7527 13.9396 26.0289 13.5403 25.2021C13.9118 24.9299 14.2833 24.6609 14.6548 24.3887C15.252 23.9537 15.8492 23.5221 16.4464 23.0871Z" fill="white"/>
<path d="M26.998 27.7721C26.1022 27.108 25.2029 26.4439 24.3071 25.7799C24.2863 25.7633 24.2654 25.74 24.2481 25.7201C24.5571 25.491 24.873 25.2686 25.1265 24.9764C25.5501 24.4916 25.8313 23.9438 25.9772 23.3295C25.9945 23.2531 25.9806 23.2266 25.9008 23.2299C25.8591 23.2332 25.8209 23.2299 25.7793 23.2299C24.3627 23.2299 22.9426 23.2266 21.526 23.2332C21.3697 23.2332 21.335 23.1934 21.3385 23.0506C21.3454 22.0877 21.3454 21.1248 21.3385 20.1619C21.3385 20.0391 21.3732 20.0059 21.5017 20.0059C24.0988 20.0092 26.6959 20.0092 29.2965 20.0059C29.4076 20.0059 29.4527 20.0324 29.4805 20.1453C29.6923 21.0584 29.6784 21.9748 29.5499 22.8979C29.4458 23.635 29.2583 24.3488 28.9701 25.0395C28.543 26.0588 27.9146 26.9486 27.0882 27.7123C27.057 27.7355 27.0257 27.7521 26.998 27.7721Z" fill="white"/>
<path d="M16.4464 23.0871C15.8492 23.5221 15.252 23.9537 14.6548 24.3887C14.2833 24.6576 13.9118 24.9299 13.5403 25.2021C13.2521 24.6908 13.0646 24.1496 12.9118 23.5918C12.6202 22.5127 12.575 21.417 12.7347 20.318C12.8597 19.4547 13.1201 18.6246 13.5403 17.8477C14.0611 18.2295 14.5784 18.6146 15.0992 18.9965C15.5471 19.3252 15.995 19.6506 16.4429 19.976C16.3665 20.3313 16.2589 20.6799 16.2242 21.0451C16.1617 21.7092 16.2276 22.3566 16.4255 22.9941C16.4394 23.0207 16.4429 23.0539 16.4464 23.0871Z" fill="white"/>
</g>
<defs>
<clipPath id="clip0_274_45">
<rect width="43" height="43" fill="white"/>
</clipPath>
</defs>
</svg>
