<svg width="20" height="3" viewBox="0 0 20 3" fill="none" xmlns="http://www.w3.org/2000/svg">
<path d="M18.9999 0.536133H11.0001C10 0.536133 10 0.536447 9 0.536133H0.999939C0.448059 0.536133 0 0.984192 0 1.53607C0 2.08813 0.448059 2.53619 0.999939 2.53619H9C9.5 2.53595 10 2.53619 11.0001 2.53619H18.9999C19.552 2.53619 20.0001 2.08813 20.0001 1.53607C20.0001 0.984192 19.552 0.536133 18.9999 0.536133Z" fill="#6366F1"/>
<path d="M18.9999 0.536133H11.0001C10 0.536133 10 0.536447 9 0.536133H0.999939C0.448059 0.536133 0 0.984192 0 1.53607C0 2.08813 0.448059 2.53619 0.999939 2.53619H9C9.5 2.53595 10 2.53619 11.0001 2.53619H18.9999C19.552 2.53619 20.0001 2.08813 20.0001 1.53607C20.0001 0.984192 19.552 0.536133 18.9999 0.536133Z" fill="url(#paint0_linear_496_1997)"/>
<defs>
<linearGradient id="paint0_linear_496_1997" x1="8.02819" y1="-0.463898" x2="8.72834" y2="4.71085" gradientUnits="userSpaceOnUse">
<stop stop-color="#0182EA"/>
<stop offset="0.294752" stop-color="#0182EA"/>
<stop offset="0.589505" stop-color="#01DBD4"/>
<stop offset="0.821157" stop-color="#01DBD4"/>
</linearGradient>
</defs>
</svg>
