<svg width="20" height="21" viewBox="0 0 20 21" fill="none" xmlns="http://www.w3.org/2000/svg">
<g clip-path="url(#clip0_496_2004)">
<path d="M18.9999 9.53613H11.0001V1.53607C11.0001 0.984192 10.552 0.536133 9.99994 0.536133C9.44806 0.536133 9 0.984192 9 1.53607V9.53613H0.999939C0.448059 9.53613 0 9.98419 0 10.5361C0 11.0881 0.448059 11.5362 0.999939 11.5362H9V19.5361C9 20.0881 9.44806 20.5362 9.99994 20.5362C10.552 20.5362 11.0001 20.0881 11.0001 19.5361V11.5362H18.9999C19.552 11.5362 20.0001 11.0881 20.0001 10.5361C20.0001 9.98419 19.552 9.53613 18.9999 9.53613Z" fill="#6366F1"/>
<path d="M18.9999 9.53613H11.0001V1.53607C11.0001 0.984192 10.552 0.536133 9.99994 0.536133C9.44806 0.536133 9 0.984192 9 1.53607V9.53613H0.999939C0.448059 9.53613 0 9.98419 0 10.5361C0 11.0881 0.448059 11.5362 0.999939 11.5362H9V19.5361C9 20.0881 9.44806 20.5362 9.99994 20.5362C10.552 20.5362 11.0001 20.0881 11.0001 19.5361V11.5362H18.9999C19.552 11.5362 20.0001 11.0881 20.0001 10.5361C20.0001 9.98419 19.552 9.53613 18.9999 9.53613Z" fill="url(#paint0_linear_496_2004)"/>
</g>
<defs>
<linearGradient id="paint0_linear_496_2004" x1="8.02819" y1="-9.4639" x2="33.2152" y2="9.15215" gradientUnits="userSpaceOnUse">
<stop stop-color="#0182EA"/>
<stop offset="0.294752" stop-color="#0182EA"/>
<stop offset="0.589505" stop-color="#01DBD4"/>
<stop offset="0.821157" stop-color="#01DBD4"/>
</linearGradient>
<clipPath id="clip0_496_2004">
<rect width="20" height="20" fill="white" transform="translate(0 0.536133)"/>
</clipPath>
</defs>
</svg>
