<svg width="34" height="33" viewBox="0 0 34 33" fill="none" xmlns="http://www.w3.org/2000/svg">
<g clip-path="url(#clip0_46_1572)">
<path d="M33.2164 7.53084L25.9676 0.282054C25.6075 -0.0924835 24.9603 -0.0924191 24.6003 0.282054L17.3516 7.53084C17.0751 7.80734 16.9924 8.2232 17.142 8.58445C17.2916 8.94571 17.6442 9.18129 18.0351 9.18129H21.2106V32.0321C21.2106 32.566 21.6434 32.9988 22.1774 32.9988H28.3906C28.9246 32.9988 29.3574 32.566 29.3574 32.0321V9.18129H32.5328C32.9239 9.18129 33.2764 8.94571 33.426 8.58445C33.5756 8.2232 33.4929 7.80741 33.2164 7.53084Z" fill="black"/>
<path d="M18.0355 13.461H11.8223C11.2883 13.461 10.8555 13.8938 10.8555 14.4278V32.032C10.8555 32.566 11.2883 32.9988 11.8223 32.9988H18.0355C18.5695 32.9988 19.0023 32.566 19.0023 32.032V14.4278C19.0023 13.8938 18.5695 13.461 18.0355 13.461Z" fill="black"/>
<path d="M7.68008 21.7453H1.4668C0.932867 21.7453 0.5 22.1782 0.5 22.7121V32.0321C0.5 32.566 0.932867 32.9988 1.4668 32.9988H7.68008C8.21401 32.9988 8.64688 32.566 8.64688 32.0321V22.7121C8.64688 22.1782 8.21401 21.7453 7.68008 21.7453Z" fill="black"/>
</g>
<defs>
<clipPath id="clip0_46_1572">
<rect width="33" height="33" fill="white" transform="translate(0.5)"/>
</clipPath>
</defs>
</svg>
