<svg width="34" height="33" viewBox="0 0 34 33" fill="none" xmlns="http://www.w3.org/2000/svg">
<g clip-path="url(#clip0_46_1582)">
<path d="M0.783567 25.4692L8.03242 32.718C8.39245 33.0925 9.03969 33.0924 9.39966 32.718L16.6484 25.4692C16.9249 25.1927 17.0076 24.7768 16.858 24.4156C16.7084 24.0543 16.3558 23.8187 15.9649 23.8187H12.7894L12.7894 0.967964C12.7894 0.434032 12.3566 0.0011673 11.8226 0.0011673H5.60936C5.07543 0.0011673 4.64257 0.434032 4.64257 0.967964L4.64257 23.8187H1.46716C1.07612 23.8187 0.72356 24.0543 0.573965 24.4156C0.424368 24.7768 0.507063 25.1926 0.783567 25.4692Z" fill="black"/>
<path d="M15.9645 19.539H22.1777C22.7117 19.539 23.1445 19.1062 23.1445 18.5722L23.1445 0.96796C23.1445 0.434031 22.7117 0.00116348 22.1777 0.00116348H15.9645C15.4305 0.00116348 14.9977 0.434031 14.9977 0.96796L14.9977 18.5722C14.9977 19.1062 15.4305 19.539 15.9645 19.539Z" fill="black"/>
<path d="M26.3199 11.2547L32.5332 11.2547C33.0671 11.2547 33.5 10.8218 33.5 10.2879V0.967949C33.5 0.434019 33.0671 0.00115204 32.5332 0.00115204L26.3199 0.00115204C25.786 0.00115204 25.3531 0.434019 25.3531 0.967949V10.2879C25.3531 10.8218 25.786 11.2547 26.3199 11.2547Z" fill="black"/>
</g>
<defs>
<clipPath id="clip0_46_1582">
<rect width="33" height="33" fill="white" transform="matrix(-1 0 0 -1 33.5 33)"/>
</clipPath>
</defs>
</svg>
