<svg width="200" height="200" viewBox="0 0 200 200" fill="none" xmlns="http://www.w3.org/2000/svg">
<path d="M6.67532 133.382C8.31624 133.523 9.86357 134.157 11.3282 134.873C12.3489 135.399 13.0409 136.398 13.3848 137.473C14.2488 139.867 13.7635 142.649 12.1944 144.642C11.2172 145.824 10.0268 146.934 8.49034 147.299C6.20742 147.974 3.69165 147.147 2.0355 145.497C0.0616133 143.31 -0.658735 139.92 0.692734 137.23C1.75041 134.947 4.16607 133.395 6.67532 133.382ZM26.6797 110.831C29.7134 112.599 32.5861 114.762 34.7188 117.582C36.1487 119.482 37.4153 121.517 38.4294 123.669C39.1476 125.243 39.7134 126.927 39.7504 128.67C39.7961 130.346 38.7624 131.822 37.5828 132.914C36.2379 134.011 34.9191 135.167 33.3891 136.002C31.4218 137.036 29.1084 137.547 26.9017 137.134C24.1944 136.681 21.659 135.382 19.6068 133.576C20.3445 133.103 21.1693 132.446 21.1693 131.484C21.3195 129.685 19.5524 128.12 17.8026 128.253C17.1367 128.546 16.7145 129.191 16.2357 129.711C15.1345 127.985 14.2684 125.959 14.4686 123.874C15.0257 120.172 16.2422 116.503 18.4555 113.449C18.6884 113.171 18.7123 112.803 18.745 112.459C19.8657 111.702 20.6231 110.448 21.9376 109.978C23.5437 109.382 25.2977 109.946 26.6797 110.831ZM106.242 78.3722C107.356 79.4712 108.138 80.9163 108.436 82.4528C108.804 84.5986 108.688 86.8227 107.938 88.8771C107.315 90.9163 106.275 93.1274 104.247 94.0697C104.223 92.888 103.955 91.7324 103.755 90.5724C102.897 86.0023 101.565 81.5082 99.6177 77.2819C99.2673 76.4745 98.8734 75.6845 98.3511 74.9729C101.378 74.6769 104.005 76.5768 106.242 78.3722ZM117.219 70.0697C118.832 70.3178 120.24 71.4712 120.884 72.9598C121.737 74.9598 121.2 77.5126 119.43 78.8423C117.824 80.0871 115.372 80.0436 113.848 78.6813C114.619 77.9631 115.489 76.9729 115.232 75.8434C114.464 74.8532 112.936 74.9946 111.948 75.5648C111.713 73.9696 112.268 72.2438 113.533 71.2079C114.508 70.2917 115.903 69.9 117.219 70.0697ZM54.2662 56.2373C54.9517 56.4854 55.6285 56.8619 56.0333 57.4952C55.0192 57.6758 54.0747 58.0893 53.1193 58.4506C49.3478 59.9304 45.6416 61.5844 42.0834 63.5213C40.5165 64.3809 38.9474 65.2667 37.5959 66.4462C36.6274 67.3059 35.4849 67.9761 34.6644 68.9925C34.3837 66.3548 34.9147 63.5627 36.5208 61.4081C37.2194 60.2678 38.3554 59.5322 39.2694 58.5877C40.5339 57.4234 42.1008 56.6269 43.7199 56.0763C44.8059 55.8891 45.8244 55.3907 46.9365 55.345C49.4022 55.2602 51.9202 55.4125 54.2662 56.2373ZM27.5828 31.4908C28.9561 31.8238 30.4055 32.3592 31.2346 33.5757C32.6797 35.6149 32.4446 38.5093 30.9539 40.4593L30.8407 40.3461C30.5056 40.011 30.1791 39.6541 29.7743 39.4016C29.3282 39.1078 28.6166 39.3581 28.4947 39.8891C28.3358 40.6682 28.7101 41.4125 29.0845 42.0719C27.7678 42.3418 26.3358 42.5224 25.0649 41.9718C23.1606 41.1883 21.6895 39.3211 21.5262 37.2514C21.6307 35.5431 22.5643 33.9587 23.7548 32.7661C24.8168 31.9261 26.1987 31.2623 27.5828 31.4908Z" fill="#9B99A6"/>
<path d="M21.1693 131.485C21.1693 132.447 20.3444 133.104 19.6067 133.576C18.5795 134.207 17.5196 134.782 16.5142 135.448C15.4674 136.118 14.5033 136.917 13.3847 137.474C13.0409 136.399 12.3488 135.4 11.3281 134.873C12.5991 132.834 14.6818 131.507 16.2356 129.711C16.7144 129.191 17.1366 128.547 17.8026 128.253C19.5523 128.12 21.3194 129.685 21.1693 131.485ZM115.232 75.8439C115.489 76.9734 114.619 77.9636 113.848 78.6818C112.162 80.0898 110.388 81.4326 108.436 82.4532C108.138 80.9168 107.356 79.4717 106.242 78.3727C108.025 77.2041 110.12 76.6535 111.948 75.5653C112.936 74.9951 114.464 74.8537 115.232 75.8439ZM29.7743 39.4021C30.179 39.6545 30.5055 40.0115 30.8406 40.3466C31.45 41.0931 32.1573 41.746 32.8145 42.4489C35.4892 45.389 37.8961 48.5577 40.4337 51.6132C41.598 53.0321 42.7514 54.4598 43.8896 55.9005L43.7199 56.0767C42.1007 56.6273 40.5338 57.4239 39.2694 58.5882C38.7253 58.0289 38.3553 57.3433 37.9418 56.6905C35.6937 53.1018 33.5109 49.4696 31.4805 45.7525C30.7645 44.4728 29.82 43.339 29.0844 42.0724C28.7101 41.413 28.3357 40.6687 28.4946 39.8896C28.6165 39.3586 29.3281 39.1083 29.7743 39.4021Z" fill="#F79727"/>
<path d="M61.094 56.5439C63.8013 56.1108 66.5499 56.2262 69.2811 56.2697C77.3007 56.8159 85.3007 59.8997 91.1027 65.5559C91.9188 66.1173 92.4172 66.9922 93.1375 67.6538C95.1876 69.854 96.7523 72.4416 98.3475 74.9726C98.8698 75.6843 99.2637 76.4742 99.6141 77.2816C101.562 81.508 102.894 86.002 103.751 90.5722C103.951 91.7321 104.219 92.8877 104.243 94.0695C104.145 96.1065 104.598 98.1435 104.317 100.176C104.18 101.277 104.304 102.396 104.102 103.488C103.788 105.541 102.887 107.432 101.978 109.275C101.542 110.194 100.585 110.653 99.7839 111.197C98.9678 111.728 97.8861 112.213 96.9373 111.726C95.4378 110.873 94.7153 109.166 94.3736 107.552C93.9971 106.054 94.1277 104.505 94.1059 102.979C93.8687 98.718 93.6315 94.4242 92.687 90.2479C92.0537 87.5102 90.9699 84.7506 88.8568 82.8137C87.5183 81.6843 85.9863 80.7724 84.341 80.1717C81.8796 79.4405 79.3138 79.0161 76.7414 79.0705C73.6359 79.0009 70.576 79.6516 67.588 80.4329C64.5651 81.2185 61.7099 82.5069 58.8894 83.8279C56.65 84.7767 54.5325 85.9715 52.3802 87.0967C51.1745 87.7474 49.9819 88.4307 48.8959 89.2686C46.9308 90.768 44.8176 92.1282 43.2071 94.0325C41.5923 95.9367 40.1582 98.113 39.6685 100.6C39.0526 104.261 39.7534 108.026 41.057 111.464C42.5477 115.26 44.7741 118.753 47.5314 121.754C49.4378 124.143 51.9754 125.893 54.4367 127.66C55.7839 128.544 56.6674 130.106 56.6783 131.723C56.5521 133.073 55.5227 134.13 54.4607 134.868C53.316 135.575 51.9775 136.035 50.6217 135.993C47.4465 135.965 44.2452 135.586 41.2311 134.559C39.9601 134.133 38.7915 133.473 37.5793 132.914C38.7588 131.821 39.7926 130.346 39.7469 128.67C39.7099 126.927 39.144 125.242 38.4259 123.669C37.4117 121.517 36.1451 119.482 34.7153 117.582C32.5825 114.762 29.7099 112.598 26.6761 110.831C25.2942 109.945 23.5401 109.382 21.934 109.978C20.6195 110.448 19.8622 111.702 18.7414 112.459C18.4128 111.504 18.5673 110.474 18.4346 109.488C18.2692 108.337 18.3606 107.173 18.2496 106.019C18.0733 104.429 18.1582 102.825 18.1299 101.227C18.0842 98.1043 18.1429 94.9639 18.6239 91.8714C19.0896 89.0009 20.2692 86.3067 21.6054 83.7452C23.0548 81.0336 24.9046 78.5439 26.9939 76.2893C28.1364 74.9748 29.3551 73.7191 30.7131 72.6266C31.934 71.3099 33.5183 70.3807 34.6609 68.9922C35.4814 67.9759 36.6239 67.3056 37.5923 66.446C38.9438 65.2664 40.5129 64.3807 42.0798 63.521C45.638 61.5841 49.3442 59.9302 53.1157 58.4503C54.0711 58.089 55.0156 57.6756 56.0298 57.4949C57.7512 57.3665 59.3747 56.6962 61.094 56.5439Z" fill="#787880"/>
<path d="M155.594 119.462C156.484 120.748 156.488 122.38 156.467 123.882C158.417 121.505 160.819 119.338 163.805 118.402C167.67 117.207 172.038 117.71 175.524 119.769C177.916 121.138 179.82 123.268 181.096 125.695C182.952 129.114 183.531 133.081 183.444 136.929C183.344 141.103 182.262 145.355 179.823 148.792C177.492 152.08 173.72 154.3 169.703 154.689C166.641 154.977 163.361 154.563 160.784 152.77C159.124 151.703 157.801 150.228 156.478 148.787C156.454 153.323 156.484 157.858 156.462 162.393C156.428 164.043 156.23 165.869 155.059 167.138C154.136 168.139 152.678 168.374 151.383 168.234C150.356 168.15 149.244 167.74 148.721 166.794C148.025 165.521 147.886 164.032 147.849 162.607C147.844 149.329 147.849 136.054 147.844 122.776C147.851 121.32 148.138 119.703 149.272 118.683C151.07 117.105 154.26 117.429 155.594 119.462ZM74.2992 104.992C75.6223 106.062 75.9901 107.862 76.0054 109.484C76.0249 114.047 76.0162 118.611 76.0097 123.175C77.581 121.438 79.3481 119.786 81.5396 118.876C84.2796 117.736 87.3699 117.499 90.273 118.058C93.3089 118.641 96.0946 120.528 97.6093 123.244C99.1153 125.623 99.2959 128.524 99.3525 131.264C99.3634 137.068 99.3503 142.872 99.359 148.676C99.3808 150.086 99.2807 151.579 98.5233 152.811C97.0521 155.294 92.9042 155.499 91.2241 153.153C90.4319 151.975 90.2796 150.509 90.2709 149.127C90.2665 144.043 90.2709 138.959 90.2687 133.875C90.2447 131.475 90.0619 128.933 88.8041 126.824C87.692 125.066 85.4134 124.633 83.483 124.768C80.0576 124.944 77.0717 127.747 76.4363 131.077C76.1229 132.715 76.0554 134.391 76.0184 136.056C76.0054 140.48 76.0271 144.905 76.0075 149.331C75.9901 150.859 75.6767 152.528 74.5277 153.629C73.4221 154.724 71.7333 154.94 70.26 154.674C69.3089 154.506 68.4101 153.991 67.8617 153.188C67.087 152.073 66.902 150.672 66.8868 149.346C66.8889 136.572 66.8889 123.799 66.8889 111.024C66.8827 109.399 66.7932 107.669 67.5745 106.182C68.7736 103.78 72.2992 103.418 74.2992 104.992ZM198.323 118.946C199.442 119.962 199.838 121.529 199.818 122.996C199.818 131.771 199.823 140.548 199.816 149.323C199.807 150.8 199.494 152.4 198.41 153.481C197.213 154.746 195.248 155.077 193.635 154.513C192.38 154.071 191.437 152.961 191.048 151.708C190.58 150.308 190.726 148.818 190.706 147.37C190.715 139.103 190.682 130.837 190.721 122.572C190.726 120.567 191.87 118.406 193.94 117.923C195.446 117.542 197.183 117.838 198.323 118.946ZM128.123 117.74C131.302 118.073 134.737 118.859 136.976 121.318C139.13 123.732 139.614 127.122 139.781 130.237C139.857 134.28 139.764 138.326 139.753 142.369C139.762 144.528 140.323 146.628 140.952 148.676C141.248 149.862 141.757 151.183 141.139 152.354C140.321 153.897 138.547 154.937 136.789 154.752C135.914 154.654 135.141 154.163 134.51 153.575C133.274 152.411 132.354 150.968 131.448 149.545C128.491 151.867 125.152 153.936 121.376 154.519C118.051 155.04 114.441 154.866 111.483 153.114C108.974 151.697 107.124 149.151 106.626 146.306C106.238 144.039 106.556 141.597 107.755 139.61C108.83 137.819 110.506 136.426 112.408 135.584C114.406 134.661 116.615 134.4 118.741 133.917C122.804 133.098 126.854 132.202 130.837 131.053C130.743 129.131 130.495 127.064 129.298 125.486C128.149 124.171 126.269 123.965 124.63 123.886C122.351 123.854 119.831 123.971 117.979 125.471C116.271 126.744 115.433 128.765 114.158 130.409C113.603 131.103 112.615 131.109 111.803 131.12C110.136 131.14 108.445 129.943 108.162 128.254C107.947 126.724 108.388 125.164 109.144 123.838C110.488 121.394 112.976 119.849 115.516 118.879C119.533 117.405 123.912 117.386 128.123 117.74ZM130.863 136.5C127.27 137.716 123.505 138.269 119.836 139.196C118.428 139.582 117.03 140.345 116.19 141.568C115.124 143.364 115.59 145.858 117.163 147.214C118.621 148.596 120.774 148.837 122.687 148.583C125.492 148.228 128.373 146.798 129.757 144.232C130.915 141.836 130.824 139.096 130.863 136.5ZM164.127 124.694C161.662 125.175 159.561 126.929 158.386 129.114C156.998 131.771 156.784 134.866 156.954 137.808C157.135 140.741 158.149 143.78 160.428 145.753C162.436 147.608 165.45 148.274 168.058 147.451C169.923 146.859 171.487 145.497 172.46 143.812C174.199 140.903 174.486 137.377 174.201 134.069C173.929 131.161 172.867 128.143 170.558 126.232C168.804 124.748 166.362 124.215 164.127 124.694ZM198.149 105.399C200.036 106.683 200.262 109.508 199.196 111.386C197.688 113.836 193.87 114.089 191.881 112.099C190.793 111.053 190.53 109.407 190.798 107.975C191.111 106.319 192.545 105.029 194.145 104.628C195.507 104.302 197.015 104.561 198.149 105.399Z" fill="#464646"/>
</svg>
