<svg xmlns="http://www.w3.org/2000/svg" width="50" height="50" viewBox="0 0 50 50">
  <g id="Healthcare_and_Fitness" data-name="Healthcare and Fitness" transform="translate(-25 -164)">
    <rect id="Rectangle_25" data-name="Rectangle 25" width="50" height="50" transform="translate(25 164)" fill="#c5c5c5" opacity="0"/>
    <g id="scale" transform="translate(2.612 164)">
      <g id="Group_605" data-name="Group 605" transform="translate(24.388)">
        <g id="Group_604" data-name="Group 604">
          <path id="Path_2573" data-name="Path 2573" d="M216.388,115.579a3.221,3.221,0,1,0,3.221-3.221c-.042,0-.081.01-.122.012l-.8-2.658-1.543.463.8,2.66A3.213,3.213,0,0,0,216.388,115.579Zm3.221-1.61a1.61,1.61,0,1,1-1.61,1.61A1.612,1.612,0,0,1,219.609,113.968Z" transform="translate(-197.063 -98.67)" fill="#00c5d9"/>
          <path id="Path_2574" data-name="Path 2574" d="M69.479,34.4V24.632l-1.61.562V16.909a4.031,4.031,0,0,0-4.026-4.026H60.581a13.67,13.67,0,0,0-27.294,0H30.024A4.031,4.031,0,0,0,26,16.909v19.4l-1.61-.149v9.669l1.618.15a4.026,4.026,0,0,0,4.018,3.947H63.842a4.064,4.064,0,0,0,1.006-.126l.484-.181L69.479,50V40.33l-1.61-.149V34.935ZM46.933,1.61A12.083,12.083,0,0,1,58.97,12.883H57.36a10.457,10.457,0,0,0-20.853,0H34.9A12.083,12.083,0,0,1,46.933,1.61Zm-19.325,15.3a2.419,2.419,0,0,1,2.416-2.416h9.662v-1.61H38.117a8.82,8.82,0,0,1,2.014-4.859L41.24,9.133l1.139-1.139L41.27,6.886a8.814,8.814,0,0,1,4.859-2.014V6.442h1.61V4.872A8.815,8.815,0,0,1,52.6,6.887L51.488,8l1.139,1.139,1.109-1.109a8.811,8.811,0,0,1,2.014,4.859H54.18v1.61h9.662a2.419,2.419,0,0,1,2.416,2.416v8.847l-1.61.562V24.961h-1.61V26.88L33.916,37.038l-3.086-.286V17.714h6.039a2.015,2.015,0,0,1,2.013,2.013A3.628,3.628,0,0,0,42.5,23.351h8.857a3.628,3.628,0,0,0,3.623-3.623A2.015,2.015,0,0,1,57,17.714h6.039v5.636h1.61V16.1H57a3.628,3.628,0,0,0-3.623,3.623,2.015,2.015,0,0,1-2.013,2.013H42.5a2.015,2.015,0,0,1-2.013-2.013A3.628,3.628,0,0,0,36.868,16.1H29.219V36.6l-1.61-.149Zm2.416,31.4a2.41,2.41,0,0,1-2.392-2.186l23.613,2.186Zm37.844-.078L26,44.356V37.921l4.026.373v2.771h1.61V38.444l2.416.224V40.26h1.61V38.817l2.416.224V41.87h1.61v-2.68l2.416.224v1.651h1.61v-1.5l2.416.224v2.889h1.61v-2.74l2.416.224V41.87h1.61V40.308l2.416.224V43.48h1.61v-2.8l2.416.224v1.771h1.61V41.054l2.416.224v3.008h1.61V41.426l4.026.373ZM55.551,39.041l7.487-2.5v3.189Zm9.1.842V36.009l1.61-.537v4.561ZM51.565,38.672,37.78,37.4l8.348-2.912v1.75h1.61V33.922l2.416-.843v.739h1.61v-1.3l2.416-.843v2.143h1.61V31.113l2.416-.843V31.4h1.61v-1.61h-.24l2.656-.926V31.4h1.61V28.3l4.026-1.4v6.338Z" transform="translate(-24.388)" fill="#00c5d9"/>
        </g>
      </g>
    </g>
  </g>
</svg>
