<svg width="32" height="32" viewBox="0 0 32 32" fill="none" xmlns="http://www.w3.org/2000/svg">
<path d="M0.879352 28.7123H4.68166C5.6611 28.7123 6.46804 27.9891 6.61379 27.0499C7.36566 27.0832 8.27316 26.9272 9.5626 27.3572L15.2976 29.2692C16.4139 29.6405 17.68 29.5612 18.7703 28.9972L30.3784 22.9235C31.3954 22.4992 31.8779 21.3264 31.454 20.3095C31.0385 19.3117 29.8845 18.7978 28.8304 19.2382L22.0739 22.229C22.1684 21.0908 21.2832 20.2295 20.2607 20.2025C20.2579 20.2024 20.2555 20.2008 20.2527 20.2008H20.2447C20.2334 20.2007 20.223 20.1975 20.2117 20.1975C20.2058 20.1975 20.201 20.2007 20.1952 20.2008H15.4484L11.8202 18.5075C11.0498 18.1483 10.1934 17.9583 9.34379 17.9583H6.61391C6.46835 17.0188 5.66135 16.2954 4.68173 16.2954H0.879352C0.609977 16.2954 0.391602 16.5136 0.391602 16.7832V28.2245C0.391602 28.4942 0.610039 28.7123 0.879352 28.7123ZM11.4077 19.3915C15.3259 21.2026 15.1379 21.1763 15.3402 21.1763H20.2446C20.7265 21.1942 21.1138 21.5892 21.1138 22.0752C21.1138 22.5725 20.7092 22.9773 20.2116 22.9773H14.379C14.1096 22.9773 13.8912 23.1955 13.8912 23.4651C13.8912 23.7347 14.1096 23.9528 14.379 23.9528H20.2526C20.5416 23.9528 20.8386 23.8417 21.104 23.7247L29.2154 20.1341C29.7365 19.9173 30.3365 20.1637 30.5537 20.6847C30.7706 21.2053 30.5234 21.806 29.9645 22.0413L18.3202 28.1316C17.4859 28.5636 16.4968 28.6393 15.606 28.3435L9.87129 26.432C8.40035 25.9412 7.33873 26.1076 6.64416 26.0743V18.9338H9.34373C10.0518 18.9338 10.7655 19.0919 11.4077 19.3915ZM1.3671 17.2709H4.6816C5.22579 17.2709 5.66854 17.7134 5.66854 18.2578V26.7498C5.66854 27.2942 5.22579 27.7367 4.6816 27.7367H1.3671V17.2709Z" fill="black"/>
<path d="M18.363 18.2644C18.4468 18.323 18.5445 18.352 18.6421 18.352C18.7398 18.352 18.8374 18.3225 18.9215 18.2644C19.2706 18.02 27.4754 12.237 27.4754 7.5861C27.4754 4.78385 25.1952 2.50366 22.3928 2.50366C20.9531 2.50366 19.5919 3.11529 18.6407 4.1651C17.6844 3.11529 16.3214 2.50366 14.8846 2.50366C12.0819 2.50366 9.80176 4.78385 9.80176 7.5861C9.80176 12.237 18.0134 18.0205 18.363 18.2644ZM14.8846 3.47922C16.2188 3.47922 17.4744 4.13229 18.243 5.22591C18.3344 5.35597 18.4833 5.4331 18.6422 5.4331H18.6431C18.8024 5.4326 18.9513 5.35497 19.0423 5.22397C19.8037 4.13179 21.0562 3.47922 22.3928 3.47922C24.6574 3.47922 26.4999 5.32166 26.4999 7.5861C26.4999 11.2881 20.0723 16.2128 18.6419 17.2627C17.2105 16.2133 10.7773 11.291 10.7773 7.5861C10.7773 5.3216 12.6199 3.47922 14.8846 3.47922Z" fill="black"/>
</svg>
