<svg width="24" height="24" viewBox="0 0 24 24" fill="none" xmlns="http://www.w3.org/2000/svg">
    <g clip-path="url(#clip0_15_13400)">
        <path
            d="M5.99905 12C9.30805 12 11.999 9.309 11.999 6C11.999 2.691 9.30805 0 5.99905 0C2.69005 0 -0.000953125 2.691 -0.000953125 6C-0.000953125 9.309 2.69005 12 5.99905 12ZM7.99905 10.576C7.38505 10.845 6.71105 11 5.99905 11C5.28705 11 4.61305 10.846 3.99905 10.576V9C3.99905 8.448 4.44805 8 4.99905 8H6.99905C7.55005 8 7.99905 8.448 7.99905 9V10.576ZM5.99905 1C8.75605 1 10.999 3.243 10.999 6C10.999 7.627 10.206 9.061 8.99905 9.974V9C8.99905 7.897 8.10205 7 6.99905 7H4.99905C3.89605 7 2.99905 7.897 2.99905 9V9.974C1.79205 9.06 0.999047 7.626 0.999047 6C0.999047 3.243 3.24205 1 5.99905 1ZM5.99905 6C7.10205 6 7.99905 5.103 7.99905 4C7.99905 2.897 7.10205 2 5.99905 2C4.89605 2 3.99905 2.897 3.99905 4C3.99905 5.103 4.89605 6 5.99905 6ZM5.99905 3C6.55005 3 6.99905 3.448 6.99905 4C6.99905 4.552 6.55005 5 5.99905 5C5.44805 5 4.99905 4.552 4.99905 4C4.99905 3.448 5.44805 3 5.99905 3ZM24.015 6.05L23.083 6.413L21.239 1.688C19.74 6.086 12.945 16.32 -0.00195312 18.9V17.876C12.748 15.243 19.23 5.021 20.38 1.08L15.375 3.032L15.012 2.1L20.086 0.121C20.461 -0.025 20.871 -0.017 21.238 0.144C21.606 0.306 21.889 0.601 22.035 0.976L24.014 6.049L24.015 6.05ZM16.973 11.755L16.999 23.999L15.999 24.001L15.975 12.749C16.32 12.42 16.652 12.088 16.973 11.755ZM0.999047 20.711C1.33905 20.636 1.66805 20.55 1.99905 20.466V24H0.999047V20.711ZM20.999 8H21.999V24H20.999V8ZM11.982 15.985L11.999 23.999L10.999 24.001L10.983 16.628C11.319 16.416 11.66 16.206 11.982 15.985ZM6.98605 18.752L6.99905 23.998L5.99905 24L5.98705 19.188C6.32905 19.051 6.65405 18.899 6.98605 18.752Z"
            fill="#02E1B8" />
    </g>
    <defs>
        <clipPath id="clip0_15_13400">
            <rect width="24" height="24" fill="white" />
        </clipPath>
    </defs>
</svg>