<svg width="20" height="21" viewBox="0 0 20 21" fill="none" xmlns="http://www.w3.org/2000/svg">
<g clip-path="url(#clip0_138_527)">
<path d="M1.24976 1.59447C-0.321907 3.22697 -0.000240855 4.96114 -0.000240855 10.2295C-0.000240855 14.6045 -0.763574 18.9903 3.23143 20.0228C4.47893 20.3436 15.5323 20.3436 16.7781 20.0211C18.4414 19.592 19.7948 18.2428 19.9798 15.8903C20.0056 15.562 20.0056 4.90281 19.9789 4.56781C19.7823 2.06197 18.2398 0.617807 16.2073 0.325307C15.7414 0.257807 15.6481 0.237807 13.2581 0.233641C4.78059 0.237807 2.92226 -0.139693 1.24976 1.59447Z" fill="url(#paint0_linear_138_527)"/>
<path d="M9.99834 2.84941C6.97251 2.84941 4.09917 2.58025 3.00167 5.39691C2.54834 6.56025 2.61417 8.07108 2.61417 10.2344C2.61417 12.1327 2.55334 13.9169 3.00167 15.0711C4.09667 17.8894 6.99334 17.6194 9.99667 17.6194C12.8942 17.6194 15.8817 17.9211 16.9925 15.0711C17.4467 13.8961 17.38 12.4077 17.38 10.2344C17.38 7.34941 17.5392 5.48691 16.14 4.08858C14.7233 2.67191 12.8075 2.84941 9.99501 2.84941H9.99834ZM9.33667 4.18025C15.6483 4.17025 16.4517 3.46858 16.0083 13.2161C15.8508 16.6636 13.2258 16.2852 9.99917 16.2852C4.11584 16.2852 3.94667 16.1169 3.94667 10.2311C3.94667 4.27691 4.41334 4.18358 9.33667 4.17858V4.18025ZM13.94 5.40608C13.4508 5.40608 13.0542 5.80275 13.0542 6.29191C13.0542 6.78108 13.4508 7.17775 13.94 7.17775C14.4292 7.17775 14.8258 6.78108 14.8258 6.29191C14.8258 5.80275 14.4292 5.40608 13.94 5.40608ZM9.99834 6.44191C7.90417 6.44191 6.20667 8.14025 6.20667 10.2344C6.20667 12.3286 7.90417 14.0261 9.99834 14.0261C12.0925 14.0261 13.7892 12.3286 13.7892 10.2344C13.7892 8.14025 12.0925 6.44191 9.99834 6.44191ZM9.99834 7.77275C13.2525 7.77275 13.2567 12.6961 9.99834 12.6961C6.74501 12.6961 6.74001 7.77275 9.99834 7.77275Z" fill="white"/>
</g>
<defs>
<linearGradient id="paint0_linear_138_527" x1="1.28811" y1="18.9562" x2="19.876" y2="2.86862" gradientUnits="userSpaceOnUse">
<stop stop-color="#FFDD55"/>
<stop offset="0.5" stop-color="#FF543E"/>
<stop offset="1" stop-color="#C837AB"/>
</linearGradient>
<clipPath id="clip0_138_527">
<rect width="20" height="20" fill="white" transform="translate(0 0.233398)"/>
</clipPath>
</defs>
</svg>
