<svg width="32" height="32" viewBox="0 0 32 32" fill="none" xmlns="http://www.w3.org/2000/svg">
<g clip-path="url(#clip0_233_665)">
<path d="M29.6626 11.4099C29.5932 9.75829 28.8903 8.19682 27.7 7.04974C26.5096 5.90267 24.9232 5.25812 23.2701 5.24994C22.8969 5.25103 22.5246 5.28533 22.1576 5.35244C21.5525 3.69663 20.4277 2.28114 18.9515 1.31757C17.4752 0.353998 15.7267 -0.105891 13.9674 0.00665073C12.2081 0.119193 10.5324 0.798121 9.19097 1.94194C7.84951 3.08576 6.91428 4.63303 6.52508 6.35244H6.26008C5.43374 6.3567 4.61632 6.52368 3.85451 6.84384C3.0927 7.16401 2.40141 7.63109 1.82011 8.21843C1.23881 8.80576 0.778893 9.50184 0.466613 10.2669C0.154332 11.032 -0.00419463 11.8511 8.43688e-05 12.6774C8.43688e-05 16.3399 2.31258 18.9999 5.50008 18.9999H9.50008C9.63269 18.9999 9.75987 18.9473 9.85364 18.8535C9.94741 18.7597 10.0001 18.6325 10.0001 18.4999C10.0001 18.3673 9.94741 18.2402 9.85364 18.1464C9.75987 18.0526 9.63269 17.9999 9.50008 17.9999H5.50008C2.85008 17.9999 1.00008 15.8099 1.00008 12.6774C0.99475 11.2777 1.54417 9.93276 2.52811 8.93712C3.51204 7.94147 4.85033 7.37617 6.25008 7.36494C6.45396 7.36612 6.6576 7.37864 6.86008 7.40244C6.98725 7.42007 7.11633 7.38812 7.22058 7.31319C7.32483 7.23826 7.39627 7.1261 7.42008 6.99994C7.68577 5.40447 8.48328 3.94577 9.68298 2.86095C10.8827 1.77614 12.414 1.12899 14.0281 1.02471C15.6422 0.920422 17.2441 1.36514 18.5734 2.28655C19.9027 3.20797 20.8813 4.55192 21.3501 6.09994C21.3878 6.22234 21.4711 6.32559 21.5828 6.38839C21.6944 6.45119 21.8259 6.46875 21.9501 6.43744C22.3805 6.31983 22.824 6.25684 23.2701 6.24994C24.7058 6.25722 26.0802 6.83336 27.0919 7.85212C28.1036 8.87088 28.6702 10.2492 28.6676 11.6849C28.6676 11.6849 28.6676 11.7324 28.6676 11.7449C28.6657 11.8497 28.6968 11.9524 28.7565 12.0385C28.8161 12.1246 28.9014 12.1899 29.0001 12.2249C29.5843 12.4248 30.0913 12.8026 30.4499 13.3052C30.8086 13.8077 31.001 14.41 31.0001 15.0274C31.0001 16.4699 30.0351 17.9999 28.2501 17.9999H22.5001C22.3675 17.9999 22.2403 18.0526 22.1465 18.1464C22.0528 18.2402 22.0001 18.3673 22.0001 18.4999C22.0001 18.6325 22.0528 18.7597 22.1465 18.8535C22.2403 18.9473 22.3675 18.9999 22.5001 18.9999H28.2501C30.5976 18.9999 32.0001 16.9799 32.0001 15.0274C32.0008 14.2633 31.7805 13.5152 31.3657 12.8734C30.951 12.2315 30.3595 11.7233 29.6626 11.4099Z" fill="black"/>
<path d="M16.5 27.05V20.435C16.9713 20.3133 17.3821 20.0239 17.6553 19.621C17.9285 19.2181 18.0454 18.7294 17.9841 18.2465C17.9227 17.7636 17.6874 17.3197 17.3221 16.9979C16.9569 16.6761 16.4868 16.4985 16 16.4985C15.5132 16.4985 15.0431 16.6761 14.6779 16.9979C14.3126 17.3197 14.0773 17.7636 14.0159 18.2465C13.9546 18.7294 14.0715 19.2181 14.3447 19.621C14.6179 20.0239 15.0287 20.3133 15.5 20.435V27.05C14.893 27.1739 14.3536 27.5188 13.9864 28.0178C13.6192 28.5168 13.4504 29.1344 13.5127 29.7508C13.5749 30.3672 13.8639 30.9385 14.3234 31.354C14.783 31.7695 15.3805 31.9995 16 31.9995C16.6195 31.9995 17.217 31.7695 17.6766 31.354C18.1362 30.9385 18.4251 30.3672 18.4873 29.7508C18.5496 29.1344 18.3808 28.5168 18.0136 28.0178C17.6464 27.5188 17.107 27.1739 16.5 27.05ZM15 18.5C15 18.3022 15.0587 18.1089 15.1685 17.9445C15.2784 17.78 15.4346 17.6518 15.6173 17.5761C15.8 17.5005 16.0011 17.4807 16.1951 17.5192C16.3891 17.5578 16.5673 17.6531 16.7071 17.7929C16.847 17.9328 16.9422 18.111 16.9808 18.3049C17.0194 18.4989 16.9996 18.7 16.9239 18.8827C16.8482 19.0654 16.72 19.2216 16.5556 19.3315C16.3911 19.4414 16.1978 19.5 16 19.5C15.7348 19.5 15.4804 19.3947 15.2929 19.2071C15.1054 19.0196 15 18.7652 15 18.5ZM16 31C15.7033 31 15.4133 30.9121 15.1667 30.7472C14.92 30.5824 14.7277 30.3481 14.6142 30.0741C14.5007 29.8 14.4709 29.4984 14.5288 29.2074C14.5867 28.9164 14.7296 28.6491 14.9393 28.4394C15.1491 28.2296 15.4164 28.0867 15.7074 28.0288C15.9983 27.971 16.2999 28.0007 16.574 28.1142C16.8481 28.2277 17.0824 28.42 17.2472 28.6667C17.412 28.9133 17.5 29.2034 17.5 29.5C17.5 29.8979 17.342 30.2794 17.0607 30.5607C16.7794 30.842 16.3978 31 16 31Z" fill="black"/>
<path d="M13.5005 14C13.5007 13.6259 13.3961 13.2592 13.1984 12.9416C13.0006 12.624 12.7178 12.3682 12.382 12.2033C12.0461 12.0384 11.6708 11.971 11.2986 12.0088C10.9263 12.0465 10.5722 12.1879 10.2763 12.4169C9.98045 12.6459 9.75475 12.9533 9.62486 13.3042C9.49498 13.6551 9.46611 14.0353 9.54154 14.4018C9.61696 14.7682 9.79367 15.1062 10.0516 15.3772C10.3095 15.6482 10.6382 15.8415 11.0005 15.935V26H7.95047C7.82656 25.393 7.48167 24.8536 6.98267 24.4864C6.48367 24.1192 5.86611 23.9504 5.2497 24.0127C4.6333 24.075 4.06198 24.3639 3.6465 24.8235C3.23102 25.283 3.00098 25.8805 3.00098 26.5C3.00098 27.1196 3.23102 27.717 3.6465 28.1766C4.06198 28.6362 4.6333 28.9251 5.2497 28.9874C5.86611 29.0496 6.48367 28.8808 6.98267 28.5136C7.48167 28.1464 7.82656 27.607 7.95047 27H11.5005C11.6331 27 11.7603 26.9473 11.854 26.8536C11.9478 26.7598 12.0005 26.6326 12.0005 26.5V15.935C12.4295 15.8242 12.8097 15.5741 13.0811 15.2239C13.3526 14.8736 13.5001 14.4432 13.5005 14ZM5.50047 28C5.20379 28 4.91378 27.9121 4.66711 27.7472C4.42044 27.5824 4.22818 27.3481 4.11465 27.0741C4.00112 26.8 3.97141 26.4984 4.02929 26.2074C4.08717 25.9164 4.23003 25.6491 4.43981 25.4394C4.64958 25.2296 4.91686 25.0867 5.20783 25.0288C5.4988 24.971 5.8004 25.0007 6.07449 25.1142C6.34858 25.2277 6.58285 25.42 6.74767 25.6667C6.91249 25.9133 7.00047 26.2034 7.00047 26.5C7.00047 26.8979 6.84243 27.2794 6.56113 27.5607C6.27982 27.842 5.89829 28 5.50047 28ZM11.5005 15C11.3027 15 11.1093 14.9414 10.9449 14.8315C10.7804 14.7216 10.6523 14.5654 10.5766 14.3827C10.5009 14.2 10.4811 13.9989 10.5197 13.8049C10.5583 13.611 10.6535 13.4328 10.7934 13.2929C10.9332 13.1531 11.1114 13.0578 11.3054 13.0192C11.4994 12.9807 11.7004 13.0005 11.8832 13.0761C12.0659 13.1518 12.2221 13.28 12.3319 13.4445C12.4418 13.6089 12.5005 13.8022 12.5005 14C12.5005 14.2652 12.3951 14.5196 12.2076 14.7071C12.02 14.8947 11.7657 15 11.5005 15Z" fill="black"/>
<path d="M26.5 24C25.9237 23.9999 25.365 24.1989 24.9186 24.5634C24.4721 24.9278 24.1653 25.4353 24.05 26H21V15.935C21.4713 15.8133 21.8821 15.5239 22.1553 15.121C22.4285 14.7181 22.5454 14.2294 22.4841 13.7465C22.4227 13.2636 22.1874 12.8197 21.8221 12.4979C21.4569 12.1761 20.9868 11.9985 20.5 11.9985C20.0132 11.9985 19.5431 12.1761 19.1779 12.4979C18.8126 12.8197 18.5773 13.2636 18.5159 13.7465C18.4546 14.2294 18.5715 14.7181 18.8447 15.121C19.1179 15.5239 19.5287 15.8133 20 15.935V26.5C20 26.6326 20.0527 26.7598 20.1465 26.8536C20.2402 26.9473 20.3674 27 20.5 27H24.05C24.1446 27.4635 24.3688 27.8906 24.6964 28.2318C25.0241 28.5729 25.4418 28.8141 25.901 28.9273C26.3603 29.0406 26.8423 29.0212 27.2909 28.8714C27.7396 28.7217 28.1366 28.4477 28.4358 28.0814C28.735 27.715 28.9241 27.2713 28.9812 26.8017C29.0383 26.3322 28.961 25.856 28.7583 25.4287C28.5556 25.0013 28.2358 24.6402 27.836 24.3873C27.4363 24.1344 26.973 24.0001 26.5 24ZM19.5 14C19.5 13.8022 19.5587 13.6089 19.6685 13.4445C19.7784 13.28 19.9346 13.1518 20.1173 13.0761C20.3 13.0005 20.5011 12.9807 20.6951 13.0192C20.8891 13.0578 21.0673 13.1531 21.2071 13.2929C21.347 13.4328 21.4422 13.611 21.4808 13.8049C21.5194 13.9989 21.4996 14.2 21.4239 14.3827C21.3482 14.5654 21.22 14.7216 21.0556 14.8315C20.8911 14.9414 20.6978 15 20.5 15C20.2348 15 19.9804 14.8947 19.7929 14.7071C19.6054 14.5196 19.5 14.2652 19.5 14ZM26.5 28C26.2033 28 25.9133 27.9121 25.6667 27.7472C25.42 27.5824 25.2277 27.3481 25.1142 27.0741C25.0007 26.8 24.9709 26.4984 25.0288 26.2074C25.0867 25.9164 25.2296 25.6491 25.4393 25.4394C25.6491 25.2296 25.9164 25.0867 26.2074 25.0288C26.4983 24.971 26.7999 25.0007 27.074 25.1142C27.3481 25.2277 27.5824 25.42 27.7472 25.6667C27.912 25.9133 28 26.2034 28 26.5C28 26.8979 27.842 27.2794 27.5607 27.5607C27.2794 27.842 26.8978 28 26.5 28Z" fill="black"/>
</g>
<defs>
<clipPath id="clip0_233_665">
<rect width="32" height="32" fill="white"/>
</clipPath>
</defs>
</svg>
