<?xml version="1.0" encoding="UTF-8"?> <svg xmlns="http://www.w3.org/2000/svg" id="Layer_1" data-name="Layer 1" viewBox="0 0 100 100"><defs><style>.cls-1{fill:#5382a1;}.cls-2{fill:#f8981d;}</style></defs><g id="_181-java" data-name="181-java"><path class="cls-1" d="M65.79,60.45a30,30,0,0,1,4.3-2.3S63,59.44,55.92,60c-8.65.72-17.94.87-22.6.24-11-1.47,6-5.52,6-5.52a32.55,32.55,0,0,0-14.79,3.48C14.94,62.89,48.44,65,65.79,60.45Z"></path><path class="cls-2" d="M50.11,54.55c-3.48-7.84-15.25-14.72,0-26.77C69.15,12.77,59.39,3,59.39,3c3.94,15.51-13.88,20.21-20.33,29.85C34.67,39.44,41.21,46.51,50.11,54.55Z"></path><path class="cls-2" d="M71.15,22.2S39,30.24,54.36,47.94c4.53,5.22-1.2,9.92-1.2,9.92s11.51-6,6.23-13.39C54.45,37.53,50.67,34.08,71.15,22.2Z"></path><path class="cls-1" d="M70,71.87a2.17,2.17,0,0,1-.36.47c23.55-6.18,14.89-21.83,3.63-17.86a3.16,3.16,0,0,0-1.5,1.16,12.76,12.76,0,0,1,2-.56C79.51,53.89,87.68,62.7,70,71.87Z"></path><path class="cls-1" d="M78.7,83.3s2.66,2.19-2.92,3.89c-10.63,3.22-44.21,4.19-53.53.13-3.36-1.45,2.93-3.48,4.92-3.91a13,13,0,0,1,3.24-.36c-3.72-2.63-24.1,5.15-10.35,7.38,37.49,6.09,68.37-2.74,58.64-7.13Z"></path><path class="cls-1" d="M37.65,75.7c-14.45,4,8.79,12.38,27.19,4.5a34,34,0,0,1-5.18-2.53c-8.21,1.56-12,1.67-19.46.82-6.15-.69-2.55-2.79-2.55-2.79Z"></path><path class="cls-1" d="M70.66,93.55c-14.45,2.71-32.28,2.4-42.83.66,0,0,2.16,1.78,13.29,2.49,16.93,1.09,42.92-.6,43.53-8.61,0,0-1.18,3-14,5.46Z"></path><path class="cls-1" d="M62.65,67.81c-10.87,2.09-17.16,2-25.11,1.21-6.15-.64-2.13-3.62-2.13-3.62-15.94,5.29,8.85,11.28,31.12,4.76A11.19,11.19,0,0,1,62.65,67.81Z"></path></g></svg> 