<svg width="20" height="21" viewBox="0 0 20 21" fill="none" xmlns="http://www.w3.org/2000/svg">
<g clip-path="url(#clip0_138_531)">
<path d="M17.2727 0.233398H2.72727C1.22104 0.233398 0 1.45444 0 2.96067V17.5061C0 19.0124 1.22104 20.2334 2.72727 20.2334H17.2727C18.779 20.2334 20 19.0124 20 17.5061V2.96067C20 1.45444 18.779 0.233398 17.2727 0.233398Z" fill="#0077B5"/>
<path d="M7.2045 5.68794C7.2045 6.02507 7.10453 6.35463 6.91723 6.63494C6.72994 6.91525 6.46372 7.13373 6.15226 7.26274C5.84079 7.39175 5.49807 7.42551 5.16742 7.35974C4.83677 7.29397 4.53305 7.13162 4.29466 6.89324C4.05628 6.65485 3.89393 6.35113 3.82816 6.02048C3.76239 5.68983 3.79615 5.34711 3.92516 5.03564C4.05417 4.72418 4.27265 4.45796 4.55296 4.27067C4.83327 4.08337 5.16283 3.9834 5.49996 3.9834C5.95203 3.9834 6.38559 4.16298 6.70525 4.48265C7.02492 4.80231 7.2045 5.23587 7.2045 5.68794Z" fill="white"/>
<path d="M6.81816 8.52868V16.0594C6.81846 16.1149 6.80777 16.17 6.78672 16.2214C6.76567 16.2728 6.73466 16.3196 6.69548 16.3589C6.6563 16.3983 6.60973 16.4296 6.55843 16.4509C6.50713 16.4723 6.45212 16.4832 6.39657 16.4832H4.59998C4.54442 16.4834 4.48938 16.4725 4.43803 16.4514C4.38667 16.4302 4.34001 16.399 4.30073 16.3597C4.26144 16.3205 4.23031 16.2738 4.20912 16.2225C4.18793 16.1711 4.1771 16.1161 4.17725 16.0605V8.52868C4.17725 8.41657 4.22179 8.30905 4.30106 8.22977C4.38034 8.15049 4.48786 8.10596 4.59998 8.10596H6.39657C6.50848 8.10626 6.61571 8.15093 6.69474 8.23017C6.77378 8.30942 6.81816 8.41677 6.81816 8.52868Z" fill="white"/>
<path d="M16.209 12.4491V16.0946C16.2091 16.1457 16.1992 16.1963 16.1797 16.2435C16.1602 16.2907 16.1316 16.3336 16.0955 16.3697C16.0593 16.4059 16.0164 16.4345 15.9692 16.454C15.922 16.4734 15.8714 16.4834 15.8203 16.4832H13.8885C13.8374 16.4834 13.7868 16.4734 13.7396 16.454C13.6924 16.4345 13.6495 16.4059 13.6134 16.3697C13.5772 16.3336 13.5486 16.2907 13.5291 16.2435C13.5097 16.1963 13.4997 16.1457 13.4999 16.0946V12.5616C13.4999 12.0344 13.6544 10.2525 12.1214 10.2525C10.934 10.2525 10.6919 11.4719 10.6442 12.0196V16.0946C10.6442 16.1967 10.604 16.2947 10.5324 16.3674C10.4607 16.4401 10.3633 16.4817 10.2612 16.4832H8.39531C8.34433 16.4832 8.29385 16.4732 8.24676 16.4536C8.19967 16.4341 8.15691 16.4054 8.12091 16.3693C8.08491 16.3332 8.05639 16.2904 8.03698 16.2432C8.01758 16.1961 8.00766 16.1456 8.00781 16.0946V8.49573C8.00766 8.44475 8.01758 8.39424 8.03698 8.34709C8.05639 8.29995 8.08491 8.25709 8.12091 8.22099C8.15691 8.18489 8.19967 8.15624 8.24676 8.1367C8.29385 8.11715 8.34433 8.10709 8.39531 8.10709H10.2612C10.3643 8.10709 10.4631 8.14804 10.536 8.22092C10.6089 8.29381 10.6499 8.39266 10.6499 8.49573V9.15255C11.0908 8.49118 11.7442 7.98096 13.1385 7.98096C16.2271 7.98096 16.209 10.865 16.209 12.4491Z" fill="white"/>
</g>
<defs>
<clipPath id="clip0_138_531">
<rect width="20" height="20" fill="white" transform="translate(0 0.233398)"/>
</clipPath>
</defs>
</svg>
