<svg width="15" height="14" viewBox="0 0 15 14" fill="none" xmlns="http://www.w3.org/2000/svg">
<g clip-path="url(#clip0_51_29)">
<path fill-rule="evenodd" clip-rule="evenodd" d="M15 8.60711V14H11.8207V8.96871C11.8207 7.70502 11.3613 6.84243 10.2106 6.84243C9.33183 6.84243 8.80963 7.42323 8.57954 7.98579C8.4959 8.18675 8.47407 8.46611 8.47407 8.7479V14H5.29412C5.29412 14 5.33676 5.47805 5.29412 4.59581H8.47407V5.92839C8.46768 5.93872 8.45882 5.94905 8.45326 5.95918H8.47407V5.92839C8.89656 5.28904 9.65051 4.375 11.3395 4.375C13.4318 4.375 15 5.71872 15 8.60711ZM1.77538 0C0.701898 0 0 0.755936 0 1.74967C0 2.72203 0.681978 3.5 1.73411 3.5H1.75485C2.84906 3.5 3.52941 2.72203 3.52941 1.74967C3.50888 0.755936 2.84906 0 1.77538 0ZM0 14H3.52941V4.375H0V14Z" fill="white"/>
</g>
<defs>
<clipPath id="clip0_51_29">
<rect width="15" height="14" fill="white"/>
</clipPath>
</defs>
</svg>
