<svg width="54" height="15" viewBox="0 0 54 15" fill="none" xmlns="http://www.w3.org/2000/svg">
<g clip-path="url(#clip0_1231_815)">
<path d="M39.6875 1.36788C39.6875 0.798592 40.1527 0.336811 40.7265 0.336811H52.7084C53.2822 0.336811 53.7474 0.798592 53.7474 1.36788V13.6994C53.7474 14.2689 53.2822 14.7305 52.7084 14.7305H40.7265C40.1527 14.7305 39.6875 14.2689 39.6875 13.6994V1.36788Z" fill="white"/>
<path fill-rule="evenodd" clip-rule="evenodd" d="M0.330078 12.3945H6.19769V10.4349H2.45349V2.95833H0.330078V12.3945Z" fill="white"/>
<path fill-rule="evenodd" clip-rule="evenodd" d="M9.16908 12.3945V5.89518H7.04548V12.3945H9.16908ZM8.10728 5.00778C8.84783 5.00778 9.30876 4.50869 9.30876 3.88458C9.29496 3.24701 8.84783 2.76196 8.1214 2.76196C7.39488 2.76196 6.91992 3.24701 6.91992 3.88458C6.91992 4.50869 7.38076 5.00778 8.09342 5.00778H8.10728Z" fill="white"/>
<path fill-rule="evenodd" clip-rule="evenodd" d="M10.1543 12.3945H12.2779V8.76491C12.2779 8.57066 12.2917 8.3766 12.3479 8.23774C12.5013 7.84981 12.8507 7.44785 13.4374 7.44785C14.2059 7.44785 14.5133 8.04407 14.5133 8.91724V12.3945H16.6367V8.66779C16.6367 6.67142 15.589 5.74247 14.1918 5.74247C13.0462 5.74247 12.5432 6.39389 12.2638 6.83759H12.278V5.89518H10.1543C10.1822 6.50505 10.1543 12.3945 10.1543 12.3945Z" fill="white"/>
<path fill-rule="evenodd" clip-rule="evenodd" d="M19.6335 2.95833H17.5098V12.3945H19.6335V10.2874L20.1642 9.60769L21.8268 12.3945H24.4392L21.6452 8.36006L24.0901 5.61515H21.5335C21.5335 5.61515 19.7872 8.07099 19.6335 8.36218V2.95833Z" fill="white"/>
<path fill-rule="evenodd" clip-rule="evenodd" d="M30.118 9.68367C30.1459 9.51673 30.1879 9.1965 30.1879 8.83454C30.1879 7.15436 29.3495 5.44879 27.1422 5.44879C24.7811 5.44879 23.6914 7.34842 23.6914 9.07129C23.6914 11.2023 25.0186 12.5332 27.3377 12.5332C28.2599 12.5332 29.1119 12.3947 29.8106 12.1035L29.5311 10.6769C28.9583 10.8701 28.3716 10.9667 27.6452 10.9667C26.6532 10.9667 25.7871 10.5526 25.7172 9.66982L30.118 9.68328V9.68367ZM25.7033 8.22216C25.7592 7.66749 26.1224 6.84932 27.0305 6.84932C27.9943 6.84932 28.218 7.72307 28.218 8.22216H25.7033Z" fill="white"/>
<path fill-rule="evenodd" clip-rule="evenodd" d="M35.429 2.9562V6.22271H35.4011C35.0937 5.76554 34.4509 5.46051 33.5989 5.46051C31.9642 5.46051 30.5253 6.79142 30.5392 9.06493C30.5392 11.1725 31.8385 12.5449 33.4591 12.5449C34.3392 12.5449 35.1774 12.1566 35.5965 11.4079H35.6385L35.7224 12.3924H37.6085C37.5806 11.9349 37.5524 11.1446 37.5524 10.3683V2.9562H35.429ZM35.429 9.38401C35.429 9.55018 35.415 9.71673 35.387 9.85521C35.2614 10.4514 34.7583 10.8672 34.1438 10.8672C33.2636 10.8672 32.6907 10.1464 32.6907 9.00954C32.6907 7.94212 33.1798 7.08261 34.1576 7.08261C34.8142 7.08261 35.2753 7.53996 35.4011 8.10829C35.429 8.23331 35.429 8.37197 35.429 8.4966V9.38401Z" fill="white"/>
<path fill-rule="evenodd" clip-rule="evenodd" d="M43.9523 12.3867V5.88718H41.8287V12.3867H43.9523ZM42.8905 4.99977C43.631 4.99977 44.0919 4.50068 44.0919 3.87696C44.0781 3.2392 43.631 2.75396 42.9045 2.75396C42.1781 2.75396 41.7031 3.2392 41.7031 3.87696C41.7031 4.50068 42.164 4.99977 42.8766 4.99977H42.8905Z" fill="#0966C3"/>
<path fill-rule="evenodd" clip-rule="evenodd" d="M45.125 12.3867H47.2486V8.7571C47.2486 8.56285 47.2624 8.36879 47.3185 8.22993C47.472 7.84181 47.8214 7.43984 48.4081 7.43984C49.1765 7.43984 49.4839 8.03587 49.4839 8.90962V12.3867H51.6073V8.65997C51.6073 6.66361 50.5597 5.73466 49.1625 5.73466C48.0169 5.73466 47.5139 6.38608 47.2345 6.82978H47.2487V5.88718H45.1251C45.1529 6.49705 45.125 12.3867 45.125 12.3867Z" fill="#0966C3"/>
</g>
<defs>
<clipPath id="clip0_1231_815">
<rect width="54" height="15" fill="white"/>
</clipPath>
</defs>
</svg>
