<svg width="156" height="47" viewBox="0 0 156 47" fill="none" xmlns="http://www.w3.org/2000/svg">
<path d="M39.6169 40.2566C39.2018 40.2566 39.0635 40.0725 39.0635 39.6584V25.2135C39.0635 24.7996 39.2018 24.6155 39.6169 24.6155H43.8347C48.0075 24.6155 49.4139 26.1566 49.4139 28.0888V29.4459C49.4139 30.5729 48.8835 31.4701 47.6846 32.022C49.2524 32.5741 50.1284 33.5401 50.1284 34.8051V36.6224C50.1284 38.5543 48.722 40.2566 44.5492 40.2566H39.6169ZM42.1758 27.0996V31.1025H43.9052C45.3814 31.1025 46.3258 30.5506 46.3258 29.3771V28.5721C46.3258 27.422 45.3806 27.0992 43.836 27.0992L42.1758 27.0996ZM42.1758 33.4481V37.7725H44.5505C46.0951 37.7725 47.0633 37.2206 47.0633 36.0705V35.0355C47.0633 34.0465 46.0951 33.4483 44.5505 33.4483L42.1758 33.4481Z" fill="#212121"/>
<path d="M53.4067 40.1475C52.994 40.1475 52.8564 39.9647 52.8564 39.5535V25.2094C52.8564 24.7984 52.994 24.6155 53.4067 24.6155H58.2203C62.3694 24.6155 63.7676 26.42 63.7676 28.3387V30.5086C63.7676 31.8563 63.08 33.1352 61.2691 33.7748L63.7225 39.5535C63.8831 39.9192 63.608 40.1475 63.1953 40.1475H61.0397C60.673 40.1475 60.5585 39.9192 60.3979 39.5535L58.1752 34.2317H55.9525V39.5535C55.9525 39.9647 55.8149 40.1475 55.4023 40.1475H53.4067ZM55.951 27.1736V31.6734H58.2203C59.7562 31.6734 60.6961 31.1024 60.6961 29.9601V28.8865C60.6961 27.7447 59.7562 27.1732 58.2203 27.1732L55.951 27.1736Z" fill="#212121"/>
<path d="M69.5887 39.5535C69.5887 39.9647 69.4512 40.1475 69.0387 40.1475H67.0444C66.6317 40.1475 66.4941 39.9647 66.4941 39.5535V25.2094C66.4941 24.7984 66.6317 24.6155 67.0444 24.6155H69.0387C69.4512 24.6155 69.5887 24.7984 69.5887 25.2094V39.5535Z" fill="#212121"/>
<path d="M76.3317 37.5892H81.4435C81.8331 37.5892 82.0166 37.7263 82.0166 38.1375V39.5765C82.0166 39.9875 81.8331 40.1475 81.4435 40.1475H73.7186C73.3747 40.1475 73.2363 39.9419 73.2363 39.5535V25.2094C73.2363 24.7984 73.3739 24.6155 73.7865 24.6155H75.7809C76.1934 24.6155 76.3309 24.7984 76.3309 25.2094L76.3317 37.5892Z" fill="#212121"/>
<path d="M95.9437 32.9532C96.1043 33.5698 96.2417 34.4835 96.3335 35.2374C96.4251 34.4835 96.5851 33.5928 96.746 32.976L98.717 25.1872C98.8087 24.8218 98.9687 24.6162 99.3817 24.6162H101.124C101.513 24.6162 101.628 24.8218 101.536 25.1872L97.9148 39.5771C97.8229 39.9653 97.5937 40.1482 97.2041 40.1482H95.2557C94.889 40.1482 94.6826 39.9426 94.591 39.5771L92.5966 31.6055C92.505 31.2401 92.345 30.3264 92.2758 29.5042C92.184 30.3264 92.0464 31.2401 91.9548 31.6283L89.9376 39.5771C89.846 39.9653 89.6168 40.1482 89.227 40.1482H87.2785C86.9348 40.1482 86.7285 39.9426 86.6369 39.5771L82.9925 25.1866C82.9009 24.8211 83.0154 24.6155 83.428 24.6155H85.4452C85.8579 24.6155 86.0412 24.8211 86.133 25.1866L88.0584 32.9754C88.1959 33.5236 88.3335 34.3003 88.4251 34.8941C88.5169 34.323 88.7002 33.5464 88.8378 32.9754L90.8088 25.1866C90.9005 24.8211 91.084 24.6155 91.4736 24.6155H93.3532C93.7659 24.6155 93.9263 24.8211 94.0181 25.1866L95.9437 32.9532Z" fill="#212121"/>
<path d="M103.343 28.3385C103.343 26.42 104.764 24.6155 108.913 24.6155C113.062 24.6155 114.483 26.42 114.483 28.3385V36.7898C114.483 38.7083 113.062 40.5128 108.913 40.5128C104.764 40.5128 103.343 38.7083 103.343 36.7898V28.3385ZM111.389 28.8868C111.389 27.7447 110.449 27.1734 108.913 27.1734C107.377 27.1734 106.46 27.7445 106.46 28.8868V36.2416C106.46 37.3836 107.376 37.9549 108.913 37.9549C110.45 37.9549 111.389 37.3839 111.389 36.2416V28.8868Z" fill="#212121"/>
<path d="M118.664 40.1475C118.251 40.1475 118.113 39.9647 118.113 39.5535V25.2094C118.113 24.7984 118.251 24.6155 118.664 24.6155H123.477C127.626 24.6155 129.024 26.42 129.024 28.3387V30.5086C129.024 31.8563 128.337 33.1352 126.526 33.7748L128.979 39.5535C129.14 39.9192 128.865 40.1475 128.452 40.1475H126.296C125.929 40.1475 125.815 39.9192 125.654 39.5535L123.432 34.2317H121.209V39.5535C121.209 39.9647 121.071 40.1475 120.659 40.1475H118.664ZM121.208 27.1736V31.6734H123.477C125.013 31.6734 125.953 31.1024 125.953 29.9601V28.8865C125.953 27.7447 125.013 27.1732 123.477 27.1732L121.208 27.1736Z" fill="#212121"/>
<path d="M144.036 39.5541C144.242 39.8513 144.151 40.1482 143.761 40.1482H141.079C140.666 40.1482 140.46 39.874 140.254 39.5771L135.991 33.5928H135.67V39.5771C135.67 39.9653 135.532 40.1482 135.12 40.1482H133.125C132.713 40.1482 132.575 39.9653 132.575 39.5771V25.1866C132.575 24.7984 132.713 24.6155 133.125 24.6155H135.12C135.532 24.6155 135.67 24.7984 135.67 25.1866V31.3308H135.968L140.002 25.1866C140.185 24.8897 140.506 24.6155 140.919 24.6155H143.165C143.578 24.6155 143.646 24.8897 143.44 25.1866L138.649 32.2445L144.036 39.5541Z" fill="#212121"/>
<path d="M152.698 28.7499C152.698 27.6306 151.964 27.1053 150.475 27.1053C148.987 27.1053 148.229 27.6306 148.229 28.7499V29.0926C148.229 29.892 148.802 30.1889 149.169 30.3253L153.156 31.7416C154.715 32.2898 155.861 33.3406 155.861 35.0307V36.7896C155.861 38.7081 154.486 40.5126 150.406 40.5126C146.326 40.5126 144.927 38.7086 144.927 36.79V35.3508C144.927 34.9398 145.087 34.757 145.5 34.757H147.425C147.815 34.757 147.953 34.9398 147.953 35.3508V36.3788C147.953 37.4979 148.846 38.0234 150.382 38.0234C151.918 38.0234 152.836 37.4979 152.836 36.3788V35.6475C152.836 34.6655 151.758 34.2771 150.887 33.9572L147.334 32.6095C146.234 32.1985 145.225 31.0337 145.225 29.6634V28.3385C145.225 26.42 146.417 24.6155 150.475 24.6155C154.463 24.6155 155.724 26.42 155.724 28.3385V29.276C155.724 29.6644 155.563 29.8471 155.174 29.8471H153.248C152.836 29.8471 152.698 29.6644 152.698 29.276L152.698 28.7499Z" fill="#212121"/>
<path fill-rule="evenodd" clip-rule="evenodd" d="M0.137695 0H2.82203C5.73745 0 8.10083 2.36339 8.10083 5.27881V19.9824C9.83969 19.1926 11.7278 18.7851 13.6376 18.7875C21.0935 18.7875 27.1377 24.8874 27.1377 32.4119C27.1377 39.9363 21.0935 46.0363 13.6376 46.0363C6.20243 46.0363 0.171543 39.9699 0.137817 32.474L0.137695 0ZM13.637 40.1883C17.9319 40.1883 21.4135 36.7067 21.4135 32.4118C21.4135 28.1169 17.9319 24.6353 13.637 24.6353C9.34212 24.6353 5.86054 28.1175 5.86054 32.4118C5.86054 36.7061 9.34237 40.1883 13.637 40.1883Z" fill="url(#paint0_linear_46_1123)"/>
<path d="M8.97131 4.9765H11.6559C14.5713 4.9765 16.9348 7.33989 16.9348 10.2553V18.4142C14.5085 17.8542 11.8956 17.8542 8.97204 18.7253L8.97131 4.9765Z" fill="url(#paint1_linear_46_1123)"/>
<path d="M17.6805 12.8153H19.8671C22.7826 12.8153 25.1461 15.1787 25.1461 18.0941V23.64C24.0259 22.2093 20.5424 18.9742 17.6805 18.601V12.8153Z" fill="url(#paint2_linear_46_1123)"/>
<defs>
<linearGradient id="paint0_linear_46_1123" x1="-1.50037" y1="-0.999994" x2="23.8798" y2="38.8501" gradientUnits="userSpaceOnUse">
<stop stop-color="#007AEB"/>
<stop offset="0.416839" stop-color="#008CE7"/>
<stop offset="1" stop-color="#00DBD3"/>
</linearGradient>
<linearGradient id="paint1_linear_46_1123" x1="-1.50037" y1="-0.999994" x2="23.8798" y2="38.8501" gradientUnits="userSpaceOnUse">
<stop stop-color="#007AEB"/>
<stop offset="0.416839" stop-color="#008CE7"/>
<stop offset="1" stop-color="#00DBD3"/>
</linearGradient>
<linearGradient id="paint2_linear_46_1123" x1="-1.50037" y1="-0.999994" x2="23.8798" y2="38.8501" gradientUnits="userSpaceOnUse">
<stop stop-color="#007AEB"/>
<stop offset="0.416839" stop-color="#008CE7"/>
<stop offset="1" stop-color="#00DBD3"/>
</linearGradient>
</defs>
</svg>
