<svg xmlns="http://www.w3.org/2000/svg" width="50" height="50" viewBox="0 0 50 50">
  <g id="Automobile_" data-name="Automobile " transform="translate(-25 -164)">
    <rect id="Rectangle_25" data-name="Rectangle 25" width="50" height="50" transform="translate(25 164)" fill="#c5c5c5" opacity="0"/>
    <g id="automobile" transform="translate(16 134.942)">
      <path id="Path_2622" data-name="Path 2622" d="M17.792,42.009l-1.634,2.9c-.79,0-2.546,0-3.516,0a3.3,3.3,0,0,0-3.3,2.029A7.164,7.164,0,0,0,9,48.676a.686.686,0,0,0,.193.511A.7.7,0,0,0,9.7,49.4h0l2.434,0a4.628,4.628,0,0,0-1.744,3.718.731.731,0,0,0,.006.09l1.127,8.932a2.661,2.661,0,0,0,2.187,2.551v2.86a1.7,1.7,0,0,0,1.677,1.7h2.938a1.723,1.723,0,0,0,1.7-1.7V64.738H45.151a7.709,7.709,0,0,0,2.216,12.149.724.724,0,0,0,.694-.032.714.714,0,0,0,.344-.6v-3.65l2.389-1.6,2.453,1.72-.015,3.529a.7.7,0,0,0,1.013.632,7.724,7.724,0,0,0-.325-13.964V46.1a7.719,7.719,0,0,0,.323-13.958.709.709,0,0,0-1.025.628v3.65l-2.389,1.6-2.453-1.72.015-3.529a.7.7,0,0,0-1.013-.632,7.652,7.652,0,0,0-4.195,5.706,4.512,4.512,0,0,0-.709-.07H23.215C21.046,37.767,19.12,39.282,17.792,42.009Zm-7.282,6a5.651,5.651,0,0,1,.167-.623,1.965,1.965,0,0,1,1.965-1.068l2.724,0L14.417,48Zm8.116,19.546a.32.32,0,0,1-.3.292H15.39a.3.3,0,0,1-.274-.292V64.738h3.509Zm-4.46-4.219A1.237,1.237,0,0,1,12.932,62.1a.723.723,0,0,0-.006-.09L11.8,53.082A2.915,2.915,0,0,1,14.355,50,.72.72,0,0,0,14.474,50H47.6v4.015a2.707,2.707,0,0,0,0,5.165v3.748a4.805,4.805,0,0,0-.72.407ZM38.428,48.6a3.308,3.308,0,0,1,6.517,0ZM47.6,55.579v2.037a1.3,1.3,0,0,1,0-2.037Zm-.624-21.56-.006,2.635a.7.7,0,0,0,.3.577l3.153,2.205a.7.7,0,0,0,.792.009l3.1-2.072a.692.692,0,0,0,.3-.584V34.024a6.156,6.156,0,0,1,2.5,5.025,6.363,6.363,0,0,1-4.125,5.919.72.72,0,0,0-.476.658V63.4a.726.726,0,0,0,.481.658,6.357,6.357,0,0,1,4.118,5.919A6.273,6.273,0,0,1,54.631,75l.012-2.636a.7.7,0,0,0-.3-.577l-3.151-2.205a.7.7,0,0,0-.791-.009l-3.1,2.072a.692.692,0,0,0-.3.584V75a6.156,6.156,0,0,1-2.5-5.025,6.347,6.347,0,0,1,2.917-5.326A.662.662,0,0,0,47.5,64.6a6,6,0,0,1,1.076-.541.679.679,0,0,0,.43-.657V45.625a.68.68,0,0,0-.431-.658,6.321,6.321,0,0,1-1.6-10.949Zm-3.909,5.228A7.893,7.893,0,0,0,47.6,46.095v2.5H46.363a4.711,4.711,0,0,0-9.354,0H15.676l3.349-5.918c.007-.013.014-.031.02-.044.626-1.291,2-3.463,4.169-3.463H42.473A2.819,2.819,0,0,1,43.069,39.247Z" fill="#c70039"/>
      <path id="Path_2623" data-name="Path 2623" d="M65.118,249.8a2.707,2.707,0,1,0,2.707,2.707A2.707,2.707,0,0,0,65.118,249.8Zm0,4.011a1.3,1.3,0,1,1,1.3-1.3,1.3,1.3,0,0,1-1.3,1.3Z" transform="translate(-48.056 -195.915)" fill="#c70039"/>
      <path id="Path_2624" data-name="Path 2624" d="M147.085,246.115h18.572a.731.731,0,0,0,.664-.959l-.64-1.865a3.571,3.571,0,0,0-3.222-2.29H150.232a3.521,3.521,0,0,0-3.2,2.3l-.612,1.864a.733.733,0,0,0,.1.645A.716.716,0,0,0,147.085,246.115Zm1.28-2.357a2.156,2.156,0,0,1,1.868-1.353h12.227a2.2,2.2,0,0,1,1.893,1.354l.325.953H148.052Z" transform="translate(-123.608 -187.994)" fill="#c70039"/>
      <path id="Path_2625" data-name="Path 2625" d="M151.215,302H128.309a.7.7,0,1,0,0,1.4h22.906a.7.7,0,1,0,0-1.4Z" transform="translate(-106.715 -242.877)" fill="#c70039"/>
    </g>
  </g>
</svg>
