<svg width="24" height="25" viewBox="0 0 24 25" fill="none" xmlns="http://www.w3.org/2000/svg">
<g clip-path="url(#clip0_138_580)">
<path d="M17.5 0.233398C17.224 0.233398 17 0.457398 17 0.733398C17 4.1774 14.57 6.2334 10.5 6.2334H3.5C1.57 6.2334 0 7.8034 0 9.7334V11.7334C0 12.8914 0.565 13.9194 1.435 14.5574L5.043 22.6114C5.481 23.5964 6.46 24.2334 7.539 24.2334C8.382 24.2334 9.16 23.8114 9.62 23.1034C10.079 22.3964 10.149 21.5134 9.805 20.7384L7.28 15.2334H10.501C14.571 15.2334 17.001 17.2894 17.001 20.7334C17.001 21.0094 17.225 21.2334 17.501 21.2334C17.777 21.2334 18.001 21.0094 18.001 20.7334V0.733398C18.001 0.457398 17.776 0.233398 17.5 0.233398ZM8.893 21.1494C9.101 21.6164 9.06 22.1294 8.782 22.5584C8.503 22.9874 8.051 23.2334 7.539 23.2334C6.855 23.2334 6.234 22.8304 5.956 22.2044L2.801 15.1634C3.027 15.2094 3.261 15.2334 3.5 15.2334H6.179L8.893 21.1494ZM17 17.1354C15.783 15.2894 13.514 14.2334 10.5 14.2334H3.5C2.122 14.2334 1 13.1124 1 11.7334V9.7334C1 8.3544 2.122 7.2334 3.5 7.2334H10.5C13.514 7.2334 15.783 6.1764 17 4.3314V17.1354ZM23.947 15.9564C23.859 16.1314 23.682 16.2324 23.5 16.2324C23.425 16.2324 23.349 16.2154 23.276 16.1794L21.276 15.1794C21.029 15.0554 20.929 14.7554 21.052 14.5084C21.177 14.2614 21.476 14.1624 21.723 14.2844L23.723 15.2844C23.97 15.4084 24.07 15.7094 23.947 15.9564ZM21.052 6.9564C20.929 6.7094 21.029 6.4094 21.276 6.2854L23.276 5.2854C23.523 5.1624 23.823 5.2624 23.947 5.5094C24.07 5.7564 23.97 6.0564 23.723 6.1804L21.723 7.1804C21.651 7.2164 21.575 7.2334 21.499 7.2334C21.316 7.2334 21.14 7.1304 21.052 6.9564ZM20.999 10.7324C20.999 10.4564 21.223 10.2324 21.499 10.2324H23.499C23.775 10.2324 23.999 10.4564 23.999 10.7324C23.999 11.0084 23.775 11.2324 23.499 11.2324H21.499C21.223 11.2324 20.999 11.0084 20.999 10.7324Z" fill="black"/>
</g>
<defs>
<clipPath id="clip0_138_580">
<rect width="24" height="24" fill="white" transform="translate(0 0.233398)"/>
</clipPath>
</defs>
</svg>
