<svg width="200" height="196" viewBox="0 0 200 196" fill="none" xmlns="http://www.w3.org/2000/svg">
<g clip-path="url(#clip0_1455_13738)">
<path d="M0.34375 0.34375L171.317 181.373C171.317 181.373 177.142 185.479 181.596 180.688C186.05 175.897 182.624 171.107 182.624 171.107L0.344531 0.344531L0.34375 0.34375ZM54.4798 17.4543L184.68 157.76C184.68 157.76 190.505 161.867 194.959 157.076C199.413 152.285 195.987 147.494 195.987 147.494L54.4798 17.4543ZM16.4473 54.0712L146.647 194.377C146.647 194.377 152.471 198.483 156.926 193.692C161.38 188.901 157.954 184.111 157.954 184.111L16.4473 54.0712ZM100.244 32.1692L191.208 130.193C191.208 130.193 195.278 133.062 198.389 129.715C201.501 126.367 199.107 123.02 199.107 123.02L100.244 32.1692ZM28.9769 96.5048L119.94 194.528C119.94 194.528 124.01 197.397 127.122 194.05C130.233 190.703 127.84 187.356 127.84 187.356L28.9769 96.5048ZM146.991 53.3863L188.218 97.9486C188.218 97.9486 190.231 99.2933 191.77 97.7245C193.309 96.1565 192.126 94.5877 192.126 94.5877L146.991 53.3863ZM51.7386 141.676L92.9662 186.238C92.9662 186.238 94.9793 187.583 96.5183 186.015C98.0572 184.446 96.8737 182.878 96.8737 182.878L51.7386 141.676Z" fill="#DF4F4F"/>
</g>
<defs>
<clipPath id="clip0_1455_13738">
<rect width="200" height="196" fill="white"/>
</clipPath>
</defs>
</svg>
