<svg width="24" height="24" viewBox="0 0 24 24" fill="none" xmlns="http://www.w3.org/2000/svg">
    <g clip-path="url(#clip0_20_13415)">
        <path
            d="M7.339 9.2C7.124 9.416 6.999 9.719 7 10.04C7 10.362 7.128 10.664 7.357 10.89L9.835 13.128C10.04 13.314 10.056 13.629 9.871 13.834C9.686 14.04 9.369 14.054 9.165 13.87L6.671 11.617C6.234 11.187 6.002 10.634 6 10.043C5.998 9.452 6.227 8.897 6.645 8.48L9.159 6.133C9.361 5.945 9.678 5.955 9.866 6.157C10.054 6.359 10.043 6.676 9.842 6.864L7.34 9.198L7.339 9.2ZM14.165 13.129C13.96 13.315 13.944 13.63 14.129 13.835C14.314 14.041 14.631 14.055 14.835 13.871L17.345 11.602C17.765 11.187 17.998 10.634 18 10.043C18.002 9.452 17.773 8.897 17.343 8.468L14.841 6.134C14.639 5.946 14.323 5.957 14.134 6.158C13.946 6.36 13.957 6.677 14.158 6.865L16.648 9.187C16.876 9.415 17.001 9.718 17 10.04C17 10.362 16.872 10.664 16.659 10.875L14.165 13.129ZM10.5 17H9.707L8.853 16.146C8.759 16.052 8.632 16 8.499 16H3V7.5C3 5.57 4.57 4 6.5 4H17.5C19.43 4 21 5.57 21 7.5V8.5C21 8.776 21.224 9 21.5 9C21.776 9 22 8.776 22 8.5V7.5C22 5.019 19.981 3 17.5 3H6.5C4.019 3 2 5.019 2 7.5V16.051C0.86 16.283 0 17.293 0 18.5C0 19.879 1.122 21 2.5 21H8.5C8.776 21 9 20.776 9 20.5C9 20.224 8.776 20 8.5 20H2.5C1.673 20 1 19.327 1 18.5C1 17.673 1.673 17 2.5 17H8.293L9.147 17.854C9.241 17.948 9.368 18 9.501 18H10.501C10.777 18 11.001 17.776 11.001 17.5C11.001 17.224 10.777 17 10.501 17H10.5ZM24 13.5C24 14.168 23.74 14.795 23.268 15.268L15.561 22.975C14.91 23.626 14.007 24 13.086 24H11.5C11.224 24 11 23.776 11 23.5V21.914C11 20.978 11.364 20.1 12.025 19.439L19.732 11.732C20.675 10.788 22.324 10.788 23.267 11.732C23.739 12.204 24 12.832 24 13.5ZM23 13.5C23 13.1 22.844 12.723 22.561 12.439C21.995 11.873 21.006 11.873 20.44 12.439L12.733 20.146C12.261 20.618 12.001 21.246 12.001 21.914V23H13.087C13.745 23 14.389 22.733 14.855 22.268L22.562 14.561C22.845 14.278 23 13.901 23 13.5Z"
            fill="#02E1B8" />
    </g>
    <defs>
        <clipPath id="clip0_20_13415">
            <rect width="24" height="24" fill="white" />
        </clipPath>
    </defs>
</svg>