<svg width="24" height="24" viewBox="0 0 24 24" fill="none" xmlns="http://www.w3.org/2000/svg">
    <g clip-path="url(#clip0_37_5)">
        <path
            d="M21.4883 14.051L21.4993 9.95C22.9153 9.711 24.0003 8.484 24.0003 7C24.0003 5.346 22.6543 4 21.0003 4C20.0013 4 19.1213 4.495 18.5763 5.248L14.9753 3.247C14.9823 3.164 15.0003 3.085 15.0003 3C15.0003 1.346 13.6543 0 12.0003 0C10.3463 0 9.00033 1.346 9.00033 3C9.00033 3.086 9.01833 3.168 9.02633 3.252L5.41033 5.23C4.86333 4.488 3.99133 4 3.00133 4C1.34733 4 0.00132813 5.346 0.00132813 7C0.00132813 8.483 1.08433 9.709 2.50033 9.949L2.48933 14.05C1.07133 14.29 -0.0136719 15.516 -0.0136719 17C-0.0136719 18.654 1.33233 20 2.98633 20C3.97633 20 4.84933 19.512 5.39533 18.77L9.01133 20.748C9.00433 20.832 8.98633 20.914 8.98633 21C8.98633 22.654 10.3323 24 11.9863 24C13.6403 24 14.9863 22.654 14.9863 21C14.9863 20.916 14.9683 20.837 14.9613 20.755L18.5773 18.771C19.1243 19.513 19.9963 20 20.9863 20C22.6403 20 23.9863 18.654 23.9863 17C23.9863 15.517 22.9033 14.291 21.4873 14.051H21.4883ZM21.0003 5C22.1033 5 23.0003 5.897 23.0003 7C23.0003 8.103 22.1033 9 21.0003 9C19.8973 9 19.0003 8.103 19.0003 7C19.0003 5.897 19.8973 5 21.0003 5ZM12.0003 1C13.1033 1 14.0003 1.897 14.0003 3C14.0003 4.103 13.1033 5 12.0003 5C10.8973 5 10.0003 4.103 10.0003 3C10.0003 1.897 10.8973 1 12.0003 1ZM1.00033 7C1.00033 5.897 1.89733 5 3.00033 5C4.10333 5 5.00033 5.897 5.00033 7C5.00033 8.103 4.10333 9 3.00033 9C1.89733 9 1.00033 8.103 1.00033 7ZM2.98633 19C1.88333 19 0.986328 18.103 0.986328 17C0.986328 15.897 1.88333 15 2.98633 15C4.08933 15 4.98633 15.897 4.98633 17C4.98633 18.103 4.08933 19 2.98633 19ZM11.9863 23C10.8833 23 9.98633 22.103 9.98633 21C9.98633 19.897 10.8833 19 11.9863 19C13.0893 19 13.9863 19.897 13.9863 21C13.9863 22.103 13.0893 23 11.9863 23ZM14.7073 19.753C14.2323 18.721 13.1953 18 11.9863 18C10.7773 18 9.74433 18.72 9.26833 19.749L5.84133 17.874C5.92733 17.595 5.98633 17.306 5.98633 17C5.98633 15.517 4.90333 14.291 3.48733 14.051L3.49833 9.95C4.91433 9.711 5.99933 8.484 5.99933 7C5.99933 6.694 5.93933 6.404 5.85433 6.126L9.28133 4.252C9.75733 5.281 10.7933 6.001 11.9993 6.001C13.2053 6.001 14.2433 5.28 14.7183 4.25L18.1373 6.15C18.0563 6.422 17.9993 6.704 17.9993 7.001C17.9993 8.484 19.0823 9.71 20.4983 9.95L20.4873 14.051C19.0713 14.29 17.9863 15.517 17.9863 17.001C17.9863 17.307 18.0463 17.597 18.1313 17.875L14.7063 19.754L14.7073 19.753ZM20.9863 19C19.8833 19 18.9863 18.103 18.9863 17C18.9863 15.897 19.8833 15 20.9863 15C22.0893 15 22.9863 15.897 22.9863 17C22.9863 18.103 22.0893 19 20.9863 19ZM14.9923 9.135L12.9913 7.991C12.3773 7.64 11.6173 7.641 11.0063 7.991L9.00633 9.134C8.38533 9.49 7.99933 10.155 8.00033 10.871V13.369C8.00033 14.085 8.38733 14.749 9.00833 15.104L11.0073 16.248C11.3143 16.423 11.6573 16.511 12.0003 16.511C12.3433 16.511 12.6873 16.424 12.9923 16.249L14.9923 15.105C15.6143 14.75 16.0003 14.084 16.0003 13.368V10.87C16.0003 10.155 15.6133 9.49 14.9923 9.135ZM11.5023 8.86C11.6553 8.772 11.8273 8.729 11.9993 8.729C12.1713 8.729 12.3423 8.772 12.4953 8.86L14.4963 10.004C14.5553 10.038 14.6063 10.082 14.6563 10.126L12.0423 11.596C12.0283 11.595 12.0163 11.588 12.0023 11.588C11.9883 11.588 11.9763 11.595 11.9623 11.596L9.34433 10.124C9.39433 10.08 9.44333 10.037 9.50233 10.003L11.5023 8.86ZM9.50433 14.236C9.19433 14.059 9.00133 13.726 9.00133 13.369V11.077L11.5033 12.484V15.379L9.50433 14.236ZM14.4973 14.236L12.5033 15.376V12.484L15.0013 11.079V13.368C15.0013 13.726 14.8093 14.058 14.4983 14.236H14.4973Z"
            fill="#02E1B8" />
    </g>
    <defs>
        <clipPath id="clip0_37_5">
            <rect width="24" height="24" fill="white" />
        </clipPath>
    </defs>
</svg>