<?xml version="1.0" encoding="UTF-8"?> <svg xmlns="http://www.w3.org/2000/svg" xmlns:xlink="http://www.w3.org/1999/xlink" id="Layer_1" data-name="Layer 1" viewBox="0 0 100 100"><defs><style>.cls-1{fill:none;}.cls-2,.cls-4{fill:#689f63;}.cls-3{fill:#333;}.cls-3,.cls-4{fill-rule:evenodd;}.cls-5{clip-path:url(#clip-path);}.cls-6{fill:url(#linear-gradient);}.cls-7{clip-path:url(#clip-path-2);}.cls-8{fill:url(#linear-gradient-2);}.cls-9{clip-path:url(#clip-path-3);}.cls-10{fill:url(#linear-gradient-3);}</style><clipPath id="clip-path"><path class="cls-1" d="M37.15,34.51,28.2,39.68a1.07,1.07,0,0,0-.54.94V51a1.08,1.08,0,0,0,.54.94l9,5.17a1.09,1.09,0,0,0,1.08,0l9-5.17a1.1,1.1,0,0,0,.54-.94V40.62a1.08,1.08,0,0,0-.55-.94l-9-5.17a1.11,1.11,0,0,0-.54-.14,1.17,1.17,0,0,0-.54.14"></path></clipPath><linearGradient id="linear-gradient" x1="-569.13" y1="825.42" x2="-568.87" y2="825.42" gradientTransform="matrix(-50.75, 103.54, 103.54, 50.75, -114301.69, 17065.01)" gradientUnits="userSpaceOnUse"><stop offset="0.3" stop-color="#3e863d"></stop><stop offset="0.5" stop-color="#55934f"></stop><stop offset="0.8" stop-color="#5aad45"></stop></linearGradient><clipPath id="clip-path-2"><path class="cls-1" d="M27.88,51.62a1.24,1.24,0,0,0,.32.28l7.68,4.43,1.28.74a1.13,1.13,0,0,0,.62.14l.21,0,9.45-17.29a1.28,1.28,0,0,0-.26-.2L41.32,36.3l-3.1-1.79a1.17,1.17,0,0,0-.28-.11Z"></path></clipPath><linearGradient id="linear-gradient-2" x1="-561.43" y1="824.76" x2="-561.27" y2="824.76" gradientTransform="matrix(142.41, -105.22, -105.22, -142.41, 166761.03, 58430.63)" gradientUnits="userSpaceOnUse"><stop offset="0.57" stop-color="#3e863d"></stop><stop offset="0.72" stop-color="#619857"></stop><stop offset="1" stop-color="#76ac64"></stop></linearGradient><clipPath id="clip-path-3"><path class="cls-1" d="M37.59,34.38a1.12,1.12,0,0,0-.44.13l-8.92,5.16L37.85,57.2a1.06,1.06,0,0,0,.39-.13l8.95-5.17a1.13,1.13,0,0,0,.52-.74L37.9,34.39l-.22,0h-.09"></path></clipPath><linearGradient id="linear-gradient-3" x1="-561.23" y1="827.41" x2="-561.08" y2="827.41" gradientTransform="matrix(129.89, 0, 0, -129.89, 72925.44, 107516.93)" gradientUnits="userSpaceOnUse"><stop offset="0.16" stop-color="#6bbf47"></stop><stop offset="0.38" stop-color="#79b461"></stop><stop offset="0.47" stop-color="#75ac64"></stop><stop offset="0.7" stop-color="#659e5a"></stop><stop offset="0.9" stop-color="#3e863d"></stop></linearGradient></defs><path class="cls-2" d="M49.46,78.79a1.85,1.85,0,0,1-.89-.24l-2.83-1.68c-.43-.24-.22-.32-.08-.37a5.94,5.94,0,0,0,1.28-.58.2.2,0,0,1,.21,0l2.18,1.29a.24.24,0,0,0,.26,0l8.49-4.9a.25.25,0,0,0,.13-.23V62.3a.28.28,0,0,0-.13-.24l-8.49-4.89a.24.24,0,0,0-.26,0l-8.48,4.89a.29.29,0,0,0-.14.24v9.79a.27.27,0,0,0,.14.23l2.32,1.34c1.26.63,2-.11,2-.86V63.13a.24.24,0,0,1,.25-.24h1.08a.24.24,0,0,1,.24.24v9.68a2.35,2.35,0,0,1-2.51,2.65,3.6,3.6,0,0,1-2-.54l-2.23-1.28a1.79,1.79,0,0,1-.89-1.55V62.3a1.78,1.78,0,0,1,.89-1.55l8.5-4.9a1.82,1.82,0,0,1,1.78,0l8.49,4.9a1.79,1.79,0,0,1,.89,1.55v9.79a1.79,1.79,0,0,1-.89,1.55l-8.49,4.9a1.75,1.75,0,0,1-.89.24"></path><path class="cls-2" d="M52.08,72c-3.71,0-4.49-1.71-4.49-3.14a.24.24,0,0,1,.25-.24h1.09a.23.23,0,0,1,.24.2c.17,1.12.66,1.68,2.91,1.68,1.79,0,2.55-.4,2.55-1.35,0-.54-.22-1-3-1.22-2.32-.23-3.76-.74-3.76-2.6s1.45-2.74,3.87-2.74c2.71,0,4.06.95,4.23,3a.26.26,0,0,1-.06.19.27.27,0,0,1-.18.08H54.62a.26.26,0,0,1-.24-.19c-.26-1.17-.9-1.55-2.65-1.55-1.95,0-2.18.68-2.18,1.19s.27.8,2.91,1.15,3.84.83,3.84,2.67-1.54,2.91-4.23,2.91M62.41,61.66h.29A.24.24,0,0,0,63,61.4c0-.25-.17-.25-.26-.25h-.3Zm-.35-.81h.64c.21,0,.64,0,.64.49a.42.42,0,0,1-.35.45c.25,0,.27.18.3.41a2,2,0,0,0,.1.49H63c0-.09-.07-.55-.07-.58s-.06-.15-.19-.15h-.32v.73h-.36Zm-.75.92a1.36,1.36,0,0,0,1.36,1.37,1.39,1.39,0,0,0,1.38-1.37,1.38,1.38,0,0,0-2.75,0m3,0a1.64,1.64,0,1,1-1.63-1.64,1.65,1.65,0,0,1,1.63,1.64"></path><path class="cls-3" d="M23.17,40.46a1.08,1.08,0,0,0-.54-1l-9-5.18a1.07,1.07,0,0,0-.5-.14H13a1.14,1.14,0,0,0-.5.14l-9,5.18a1.12,1.12,0,0,0-.54,1L3,54.4a.52.52,0,0,0,.27.47.48.48,0,0,0,.54,0l5.35-3.06a1.09,1.09,0,0,0,.54-.94V44.35a1.08,1.08,0,0,1,.55-.94l2.27-1.31a1.07,1.07,0,0,1,1.09,0l2.28,1.31a1.09,1.09,0,0,1,.54.94v6.52a1.1,1.1,0,0,0,.55.94l5.34,3.06a.55.55,0,0,0,.82-.47Zm42.47,7.26a.25.25,0,0,1-.13.23l-3.09,1.79a.34.34,0,0,1-.28,0L59.05,48a.28.28,0,0,1-.13-.23V44.15a.28.28,0,0,1,.13-.24l3.09-1.78a.26.26,0,0,1,.27,0l3.1,1.78a.28.28,0,0,1,.13.24Zm.84-26.44a.55.55,0,0,0-.81.48V35.57a.37.37,0,0,1-.19.33.37.37,0,0,1-.38,0l-2.26-1.3a1.09,1.09,0,0,0-1.08,0l-9,5.2a1.08,1.08,0,0,0-.55.94V51.13a1.08,1.08,0,0,0,.55.94l9,5.2a1.07,1.07,0,0,0,1.09,0l9-5.2a1.09,1.09,0,0,0,.54-.94V25.22a1.09,1.09,0,0,0-.56-.95Zm30,22.78a1.11,1.11,0,0,0,.54-.94V40.6a1.09,1.09,0,0,0-.54-.94l-8.95-5.2a1.11,1.11,0,0,0-1.09,0l-9,5.2a1.07,1.07,0,0,0-.54.94V51a1.1,1.1,0,0,0,.55.95L86.37,57a1.1,1.1,0,0,0,1.07,0l5.41-3a.52.52,0,0,0,.27-.47.53.53,0,0,0-.27-.47l-9.06-5.2a.55.55,0,0,1-.27-.47V44.16a.55.55,0,0,1,.27-.47l2.82-1.63a.57.57,0,0,1,.54,0L90,43.69a.55.55,0,0,1,.27.47v2.56a.53.53,0,0,0,.28.47.52.52,0,0,0,.54,0Z"></path><path class="cls-4" d="M86.84,43.57a.18.18,0,0,1,.2,0l1.73,1a.19.19,0,0,1,.11.18v2a.2.2,0,0,1-.11.18l-1.73,1a.18.18,0,0,1-.2,0l-1.73-1a.2.2,0,0,1-.11-.18v-2a.19.19,0,0,1,.11-.18Z"></path><g class="cls-5"><path class="cls-6" d="M56.77,38.8,31.55,26.44,18.61,52.83,43.84,65.19Z"></path></g><g class="cls-7"><path class="cls-8" d="M17,42.46,34.79,66.57,58.34,49.16,40.53,25.06Z"></path></g><g class="cls-9"><path class="cls-10" d="M28.23,34.37V57.2H47.71V34.37Z"></path></g></svg> 