<svg width="61" height="60" viewBox="0 0 61 60" fill="none" xmlns="http://www.w3.org/2000/svg">
<path d="M29.9395 0C14.6274 0 15.5835 6.63948 15.5835 6.63948L15.6004 13.518H30.2109V15.5835H9.79752C9.79752 15.5835 0 14.4727 0 29.9255C0 45.3782 8.55175 44.8299 8.55175 44.8299H13.6558V37.6589C13.5937 36.5313 13.7677 35.4031 14.1667 34.3467C14.5657 33.2902 15.1809 32.3287 15.973 31.5237C16.765 30.7187 17.7164 30.0879 18.7662 29.6718C19.8161 29.2557 20.9413 29.0633 22.0697 29.1071H36.5622C36.5622 29.1071 44.7047 29.2379 44.7047 21.2331V8.00338C44.7047 8.00338 45.9393 0 29.9395 0ZM21.8813 4.62599C22.4877 4.62744 23.0748 4.83898 23.5427 5.2246C24.0107 5.61022 24.3305 6.14609 24.4478 6.74099C24.5651 7.33589 24.4726 7.95305 24.1861 8.48743C23.8996 9.02182 23.4367 9.4404 22.8763 9.67193C22.3159 9.90346 21.6926 9.93363 21.1124 9.7573C20.5323 9.58097 20.0312 9.20904 19.6944 8.70482C19.3576 8.20059 19.206 7.59524 19.2653 6.9918C19.3246 6.38835 19.5912 5.82411 20.0197 5.3951C20.264 5.15053 20.5542 4.95667 20.8737 4.82467C21.1932 4.69267 21.5356 4.62515 21.8813 4.62599Z" fill="url(#paint0_linear_257_435)"/>
<path d="M30.3724 60.0001C45.6846 60.0001 44.7284 53.3606 44.7284 53.3606L44.7116 46.4821H30.1053V44.4165H50.5144C50.5144 44.4165 60.312 45.5273 60.312 30.0746C60.312 14.6218 51.7588 15.1758 51.7588 15.1758H46.6562V22.3468C46.7183 23.4746 46.5442 24.6031 46.145 25.6597C45.7459 26.7164 45.1304 27.6781 44.3381 28.4831C43.5457 29.2882 42.594 29.9188 41.5438 30.3348C40.4936 30.7507 39.3681 30.9427 38.2394 30.8985H23.7568C23.7568 30.8985 15.6143 30.7678 15.6143 38.7726V52.0009C15.6143 52.0009 14.3713 60.0001 30.3724 60.0001ZM38.4306 55.3741C37.8235 55.3732 37.2354 55.1619 36.7665 54.7761C36.2976 54.3904 35.977 53.854 35.8591 53.2584C35.7413 52.6628 35.8336 52.0447 36.1203 51.5095C36.4069 50.9743 36.8703 50.555 37.4313 50.323C37.9924 50.091 38.6166 50.0607 39.1976 50.2372C39.7785 50.4137 40.2803 50.7861 40.6175 51.2911C40.9547 51.796 41.1064 52.4022 41.0469 53.0064C40.9873 53.6107 40.7201 54.1756 40.2909 54.605C40.0466 54.8492 39.7566 55.0429 39.4374 55.1749C39.1182 55.3069 38.7761 55.3746 38.4306 55.3741Z" fill="url(#paint1_linear_257_435)"/>
<defs>
<linearGradient id="paint0_linear_257_435" x1="5.81448" y1="5.24538" x2="35.6729" y2="35.123" gradientUnits="userSpaceOnUse">
<stop stop-color="#387EB8"/>
<stop offset="1" stop-color="#366994"/>
</linearGradient>
<linearGradient id="paint1_linear_257_435" x1="24.1333" y1="24.2732" x2="56.2258" y2="54.9032" gradientUnits="userSpaceOnUse">
<stop stop-color="#FFE052"/>
<stop offset="1" stop-color="#FFC331"/>
</linearGradient>
</defs>
</svg>
