<svg width="45" height="45" viewBox="0 0 45 45" fill="none" xmlns="http://www.w3.org/2000/svg">
<g clip-path="url(#clip0_496_1950)">
<path d="M34.1875 6.71582C39.875 6.71582 44.5 11.3421 44.5 17.0283C44.5 22.2198 40.6454 26.5276 35.6453 27.2376C36.0456 30.1456 37.1559 32.9125 38.8906 35.3119C39.228 35.7801 39.2154 36.4146 38.8554 36.8678C38.5022 37.3137 37.8884 37.4827 37.3497 37.2555C29.1647 33.8391 23.875 25.8982 23.875 17.0283C23.875 11.3421 28.5 6.71582 34.1875 6.71582ZM10.8125 6.71582C16.5 6.71582 21.125 11.3421 21.125 17.0283C21.125 22.2198 17.2704 26.5276 12.2703 27.2376C12.6706 30.1456 13.7809 32.9125 15.5156 35.3119C15.853 35.7801 15.8404 36.4146 15.4804 36.8678C15.1272 37.3137 14.5134 37.4827 13.9747 37.2555C5.78971 33.8391 0.5 25.8982 0.5 17.0283C0.5 11.3421 5.12498 6.71582 10.8125 6.71582Z" fill="url(#paint0_linear_496_1950)"/>
<path d="M34.1875 6.71582C39.875 6.71582 44.5 11.3421 44.5 17.0283C44.5 22.2198 40.6454 26.5276 35.6453 27.2376C36.0456 30.1456 37.1559 32.9125 38.8906 35.3119C39.228 35.7801 39.2154 36.4146 38.8554 36.8678C38.5022 37.3137 37.8884 37.4827 37.3497 37.2555C29.1647 33.8391 23.875 25.8982 23.875 17.0283C23.875 11.3421 28.5 6.71582 34.1875 6.71582ZM10.8125 6.71582C16.5 6.71582 21.125 11.3421 21.125 17.0283C21.125 22.2198 17.2704 26.5276 12.2703 27.2376C12.6706 30.1456 13.7809 32.9125 15.5156 35.3119C15.853 35.7801 15.8404 36.4146 15.4804 36.8678C15.1272 37.3137 14.5134 37.4827 13.9747 37.2555C5.78971 33.8391 0.5 25.8982 0.5 17.0283C0.5 11.3421 5.12498 6.71582 10.8125 6.71582Z" fill="url(#paint1_linear_496_1950)"/>
</g>
<defs>
<linearGradient id="paint0_linear_496_1950" x1="22.5" y1="37.3563" x2="22.5" y2="6.71582" gradientUnits="userSpaceOnUse">
<stop stop-color="#5558FF"/>
<stop offset="1" stop-color="#00C0FF"/>
</linearGradient>
<linearGradient id="paint1_linear_496_1950" x1="47.1694" y1="6.05025" x2="38.0864" y2="40.9692" gradientUnits="userSpaceOnUse">
<stop stop-color="#007AEB"/>
<stop offset="0.416839" stop-color="#008CE7"/>
<stop offset="1" stop-color="#00DBD3"/>
</linearGradient>
<clipPath id="clip0_496_1950">
<rect width="44" height="44" fill="white" transform="matrix(-1 0 0 1 44.5 0.0361328)"/>
</clipPath>
</defs>
</svg>
