<?xml version="1.0" encoding="UTF-8"?> <svg xmlns="http://www.w3.org/2000/svg" id="Layer_1" data-name="Layer 1" viewBox="0 0 100 100"><defs><style>.cls-1{fill:#5adafd;}.cls-2,.cls-3{fill:none;stroke:#5adafd;}</style></defs><circle class="cls-1" cx="50" cy="39.76" r="7.3"></circle><ellipse class="cls-2" cx="50" cy="39.76" rx="39.19" ry="14.96"></ellipse><ellipse class="cls-3" cx="50" cy="39.76" rx="14.96" ry="39.19" transform="translate(-13.18 30.33) rotate(-30)"></ellipse><ellipse class="cls-3" cx="50" cy="39.76" rx="39.19" ry="14.96" transform="translate(-9.44 63.18) rotate(-60)"></ellipse><path class="cls-1" d="M19.31,94.37H17.39V83h1.92ZM22.73,90H18.08V88.39h4.26a3.65,3.65,0,0,0,1.12-.17,1.71,1.71,0,0,0,.81-.57,1.77,1.77,0,0,0,.29-1.08,1.89,1.89,0,0,0-.29-1.14,1.55,1.55,0,0,0-.81-.58,3.65,3.65,0,0,0-1.12-.17H18.08V83h4.44a5.11,5.11,0,0,1,2.08.4A3.23,3.23,0,0,1,26,84.56a3.35,3.35,0,0,1,.53,2,2.95,2.95,0,0,1-1.89,2.91,4.84,4.84,0,0,1-1.95.37ZM27,94.37H24.73L22.78,91a1.85,1.85,0,0,0-.79-.8A3,3,0,0,0,20.7,90l2.15-.34a2.82,2.82,0,0,1,.92.23,2.55,2.55,0,0,1,.69.47,3.06,3.06,0,0,1,.56.76Z"></path><path class="cls-1" d="M31.56,94.54A4.22,4.22,0,0,1,29.4,94,3.6,3.6,0,0,1,28,92.49a4.78,4.78,0,0,1-.51-2.25A4.85,4.85,0,0,1,28,88a3.54,3.54,0,0,1,1.39-1.5,3.9,3.9,0,0,1,2.05-.54,4.1,4.1,0,0,1,2.11.51,3.37,3.37,0,0,1,1.31,1.39,4.61,4.61,0,0,1,.44,2.05c0,.16,0,.31,0,.46a1.57,1.57,0,0,1,0,.37H28.87V89.47H34l-.37.45A2.7,2.7,0,0,0,33,88.08a2,2,0,0,0-1.6-.63,2,2,0,0,0-1.57.65A2.82,2.82,0,0,0,29.28,90v.37a3.21,3.21,0,0,0,.28,1.42,1.93,1.93,0,0,0,.8.87,2.44,2.44,0,0,0,1.21.3,2.77,2.77,0,0,0,1.2-.22,2.21,2.21,0,0,0,.76-.56,2.66,2.66,0,0,0,.44-.67l1.17,1.24A4.1,4.1,0,0,1,33.81,94,4.24,4.24,0,0,1,31.56,94.54Z"></path><path class="cls-1" d="M44.28,94.37H43.09a1.94,1.94,0,0,1-.78-.15,1.22,1.22,0,0,1-.58-.5,1.74,1.74,0,0,1-.22-1V89.36a2.27,2.27,0,0,0-.32-1.27,1.44,1.44,0,0,0-1.28-.49,2.59,2.59,0,0,0-1.47.43,3,3,0,0,0-1,1.09l-1.14-1.36a4.11,4.11,0,0,1,.86-.86,4.9,4.9,0,0,1,1.26-.7,4.53,4.53,0,0,1,1.65-.28,2.92,2.92,0,0,1,3.22,3.21v3.12a.54.54,0,0,0,.11.38.45.45,0,0,0,.33.11h.53Zm-5.55.17a2.3,2.3,0,0,1-1.6-.52,1.8,1.8,0,0,1-.59-1.43,2,2,0,0,1,.58-1.46,4.53,4.53,0,0,1,1.6-1l3-1.27L42,90.1,39.4,91.26a2.51,2.51,0,0,0-.78.48.79.79,0,0,0-.23.56.71.71,0,0,0,.25.56,1.16,1.16,0,0,0,.77.2,2.55,2.55,0,0,0,.86-.13,2.09,2.09,0,0,0,.67-.38,1.64,1.64,0,0,0,.42-.59,1.89,1.89,0,0,0,.15-.77l.05.8a3.83,3.83,0,0,1-.43,1.16,2.69,2.69,0,0,1-.91,1A2.57,2.57,0,0,1,38.73,94.54Z"></path><path class="cls-1" d="M49.3,94.54A4.11,4.11,0,0,1,47.15,94a3.6,3.6,0,0,1-1.39-1.52,5.46,5.46,0,0,1,0-4.52,3.75,3.75,0,0,1,1.39-1.51,4.11,4.11,0,0,1,2.15-.54,3.91,3.91,0,0,1,2.52.78,3.71,3.71,0,0,1,1.3,2l-1.71.85a2.88,2.88,0,0,0-.62-1.44,1.84,1.84,0,0,0-1.46-.55,1.89,1.89,0,0,0-1.85,1.23,3.82,3.82,0,0,0-.26,1.49,3.75,3.75,0,0,0,.26,1.47A1.91,1.91,0,0,0,49.33,93a1.85,1.85,0,0,0,1.46-.56A2.88,2.88,0,0,0,51.41,91l1.71.86a3.68,3.68,0,0,1-1.3,2A3.91,3.91,0,0,1,49.3,94.54Z"></path><path class="cls-1" d="M59.52,87.57H53.79V86.09h5.73Zm-2,7a2.66,2.66,0,0,1-1.34-.31,2,2,0,0,1-.84-.85,2.79,2.79,0,0,1-.29-1.29v-7L57,83.88v7.77a1.14,1.14,0,0,0,.29.9,1.07,1.07,0,0,0,.7.22,1.17,1.17,0,0,0,.83-.32,2.37,2.37,0,0,0,.53-.68l.6,1.7a2.68,2.68,0,0,1-.88.74A3,3,0,0,1,57.55,94.56Z"></path><path class="cls-1" d="M68.28,94.54a4.31,4.31,0,0,1-2.94-1,5,5,0,0,1-1.53-2.74l1.66-1.22a4.63,4.63,0,0,0,.84,2.24,2.31,2.31,0,0,0,2,.89,2.68,2.68,0,0,0,1.31-.28,1.62,1.62,0,0,0,.69-1,6.1,6.1,0,0,0,.21-1.78V83h1.92v7A6.37,6.37,0,0,1,72,92.62a2.88,2.88,0,0,1-1.37,1.46A5,5,0,0,1,68.28,94.54Z"></path><path class="cls-1" d="M79,94.54a7.83,7.83,0,0,1-2.07-.27,4.92,4.92,0,0,1-1.76-.87,4.06,4.06,0,0,1-1.22-1.54l1.36-1.4a3.13,3.13,0,0,0,.92,1.35,4.06,4.06,0,0,0,1.37.74,5.1,5.1,0,0,0,1.44.22,3.4,3.4,0,0,0,1-.14,1.7,1.7,0,0,0,.74-.46,1.25,1.25,0,0,0,.28-.84,1.29,1.29,0,0,0-.29-.87A2.1,2.1,0,0,0,80,90c-.35-.12-.78-.24-1.28-.36l-1.09-.23A10,10,0,0,1,76.42,89a4.32,4.32,0,0,1-1.08-.58,2.53,2.53,0,0,1-.78-.93,2.88,2.88,0,0,1-.29-1.38,3,3,0,0,1,.55-1.81,3.43,3.43,0,0,1,1.47-1.11,5.22,5.22,0,0,1,2-.38,5.82,5.82,0,0,1,2.76.63,4.19,4.19,0,0,1,1.82,1.81l-1.45,1.37a3.29,3.29,0,0,0-1.34-1.54,3.9,3.9,0,0,0-1.91-.48,2.7,2.7,0,0,0-1,.17,1.49,1.49,0,0,0-.66.48,1.16,1.16,0,0,0-.24.75,1.2,1.2,0,0,0,.55,1.08,4.86,4.86,0,0,0,1.47.56l1.28.31a10.38,10.38,0,0,1,1.3.41A4.4,4.4,0,0,1,82,89a2.59,2.59,0,0,1,.76.94A3,3,0,0,1,83,91.3a2.92,2.92,0,0,1-.52,1.75,3.38,3.38,0,0,1-1.45,1.11A5.25,5.25,0,0,1,79,94.54Z"></path></svg> 