<?xml version="1.0" encoding="UTF-8"?> <svg xmlns="http://www.w3.org/2000/svg" id="Layer_1" data-name="Layer 1" viewBox="0 0 100 100"><defs><style>.cls-1{fill:#00d7fe;}.cls-2{fill:none;stroke:#00d7fe;stroke-miterlimit:10;}</style></defs><circle class="cls-1" cx="50" cy="39.97" r="7.77"></circle><ellipse class="cls-2" cx="50" cy="39.97" rx="41.68" ry="15.91"></ellipse><ellipse class="cls-2" cx="50" cy="39.97" rx="15.91" ry="41.68" transform="translate(-13.29 30.35) rotate(-30)"></ellipse><ellipse class="cls-2" cx="50" cy="39.97" rx="41.68" ry="15.91" transform="translate(-9.61 63.29) rotate(-60)"></ellipse><path class="cls-1" d="M13.29,93.17H12.06V83.74h1.23Zm3.09-3.77H12.46v-1H16A3.62,3.62,0,0,0,17,88.23a1.57,1.57,0,0,0,.78-.55,1.63,1.63,0,0,0,.3-1,1.74,1.74,0,0,0-.3-1.09A1.46,1.46,0,0,0,17,85,3.32,3.32,0,0,0,16,84.84H12.46v-1.1h3.73a3.93,3.93,0,0,1,1.63.34,2.72,2.72,0,0,1,1.14,1,2.77,2.77,0,0,1,.43,1.58,2.52,2.52,0,0,1-.4,1.45,2.6,2.6,0,0,1-1.07.92,3.45,3.45,0,0,1-1.54.31Zm3.32,3.77H18.25l-1.66-2.91a1.56,1.56,0,0,0-.68-.67,2.84,2.84,0,0,0-1.13-.19l1.61-.2a1.82,1.82,0,0,1,.63.14,1.77,1.77,0,0,1,.53.34,2.1,2.1,0,0,1,.44.58Z"></path><path class="cls-1" d="M23.52,93.31a3.27,3.27,0,0,1-1.69-.43,2.94,2.94,0,0,1-1.16-1.23,4.1,4.1,0,0,1-.41-1.88,4,4,0,0,1,.41-1.88,3,3,0,0,1,1.13-1.23,3.21,3.21,0,0,1,1.65-.42,3.37,3.37,0,0,1,1.66.39,2.66,2.66,0,0,1,1.07,1.13,3.85,3.85,0,0,1,.37,1.74c0,.1,0,.2,0,.3s0,.18,0,.25H21.19v-.89h4.57l-.29.42a2.5,2.5,0,0,0-.54-1.74,1.92,1.92,0,0,0-1.49-.59,1.82,1.82,0,0,0-1.45.61,2.71,2.71,0,0,0-.54,1.84v.15a3.24,3.24,0,0,0,.25,1.32,1.75,1.75,0,0,0,.72.84,2.07,2.07,0,0,0,1.1.29,2.62,2.62,0,0,0,1.13-.21,1.8,1.8,0,0,0,.67-.52,2.69,2.69,0,0,0,.37-.61l.76.83a3.28,3.28,0,0,1-1.09,1.07A3.39,3.39,0,0,1,23.52,93.31Z"></path><path class="cls-1" d="M33.91,93.17h-.79a1.61,1.61,0,0,1-.63-.12,1,1,0,0,1-.43-.41,1.63,1.63,0,0,1-.15-.76V89.05l0-.18a1.83,1.83,0,0,0-.32-1.09,1.34,1.34,0,0,0-1.17-.45,1.93,1.93,0,0,0-1.22.38,2.44,2.44,0,0,0-.75.93l-.85-.86a3.61,3.61,0,0,1,.63-.71,3.44,3.44,0,0,1,1-.6,3.73,3.73,0,0,1,1.34-.23,2.55,2.55,0,0,1,1.9.68,2.65,2.65,0,0,1,.67,1.93v2.79a.47.47,0,0,0,.1.32.43.43,0,0,0,.3.09h.42Zm-4.38.14a1.81,1.81,0,0,1-1.31-.45,1.46,1.46,0,0,1-.47-1.12,1.51,1.51,0,0,1,.46-1.13,4.38,4.38,0,0,1,1.2-.79l2.68-1.21.17.83-2.35,1.12a2.49,2.49,0,0,0-.7.45.74.74,0,0,0-.23.54.66.66,0,0,0,.24.55,1.07,1.07,0,0,0,.72.2,2.28,2.28,0,0,0,.8-.13,1.8,1.8,0,0,0,.61-.38,1.76,1.76,0,0,0,.41-.54,1.58,1.58,0,0,0,.15-.69l0,.66a3,3,0,0,1-.36,1,2.44,2.44,0,0,1-.79.81A2.28,2.28,0,0,1,29.53,93.31Z"></path><path class="cls-1" d="M38.12,93.31a3.23,3.23,0,0,1-1.7-.43,2.79,2.79,0,0,1-1.12-1.23,4.73,4.73,0,0,1,0-3.76,2.91,2.91,0,0,1,1.12-1.23,3.32,3.32,0,0,1,1.7-.42,3,3,0,0,1,3.15,2.37l-1.21.5a2.39,2.39,0,0,0-.54-1.34,1.74,1.74,0,0,0-1.38-.52,1.92,1.92,0,0,0-1,.29,1.89,1.89,0,0,0-.69.87,4,4,0,0,0,0,2.72,1.89,1.89,0,0,0,.69.87,1.85,1.85,0,0,0,1,.3,1.75,1.75,0,0,0,1.38-.53,2.42,2.42,0,0,0,.54-1.34l1.21.51a3,3,0,0,1-3.15,2.37Z"></path><path class="cls-1" d="M46.46,87.33H41.92v-1h4.54Zm-1.56,6a2.07,2.07,0,0,1-1-.23,1.7,1.7,0,0,1-.67-.66,2,2,0,0,1-.24-1V85.5l1.24-.91v6.46a1.15,1.15,0,0,0,.26.88,1.06,1.06,0,0,0,.67.22,1,1,0,0,0,.76-.31,2.26,2.26,0,0,0,.45-.62l.4,1.21a2,2,0,0,1-.69.62A2.28,2.28,0,0,1,44.9,93.33Z"></path><path class="cls-1" d="M52.36,93.17H51.12V83.74h1.1l4.2,6,1,1.47-.08-1.45v-6h1.24v9.43h-1.1L53.13,87l-.84-1.27L52.36,87Z"></path><path class="cls-1" d="M66.44,93.17h-.79a1.52,1.52,0,0,1-.62-.12,1,1,0,0,1-.43-.41,1.62,1.62,0,0,1-.16-.76V89.05l0-.18a1.76,1.76,0,0,0-.32-1.09,1.34,1.34,0,0,0-1.17-.45,2,2,0,0,0-1.22.38,2.53,2.53,0,0,0-.75.93l-.84-.86a3.53,3.53,0,0,1,.62-.71,3.44,3.44,0,0,1,1-.6,3.76,3.76,0,0,1,1.34-.23,2.57,2.57,0,0,1,1.91.68,2.69,2.69,0,0,1,.67,1.93v2.79a.47.47,0,0,0,.09.32.45.45,0,0,0,.3.09h.42Zm-4.37.14a1.82,1.82,0,0,1-1.32-.45,1.46,1.46,0,0,1-.47-1.12,1.51,1.51,0,0,1,.46-1.13,4.38,4.38,0,0,1,1.2-.79l2.69-1.21.17.83-2.35,1.12a2.56,2.56,0,0,0-.71.45.73.73,0,0,0-.22.54.66.66,0,0,0,.24.55,1,1,0,0,0,.71.2,2.28,2.28,0,0,0,.8-.13,2,2,0,0,0,.62-.38,1.93,1.93,0,0,0,.41-.54,1.74,1.74,0,0,0,.14-.69l0,.66a3.06,3.06,0,0,1-.37,1,2.44,2.44,0,0,1-.79.81A2.27,2.27,0,0,1,62.07,93.31Z"></path><path class="cls-1" d="M71.51,87.33H67v-1h4.55Zm-1.56,6a2.14,2.14,0,0,1-1-.23,1.68,1.68,0,0,1-.66-.66,2,2,0,0,1-.24-1V85.5l1.23-.91v6.46a1.11,1.11,0,0,0,.27.88,1,1,0,0,0,.66.22,1,1,0,0,0,.76-.31,1.91,1.91,0,0,0,.45-.62l.41,1.21a2,2,0,0,1-.69.62A2.3,2.3,0,0,1,70,93.33Z"></path><path class="cls-1" d="M74.27,85.25H73V83.74h1.23Zm0,7.92H73V86.38h1.23Z"></path><path class="cls-1" d="M79.27,93.17H77.73l-2.47-6.79H76.6l1.35,4,.58,1.86.58-1.86,1.33-4h1.31Z"></path><path class="cls-1" d="M85.33,93.31a3.28,3.28,0,0,1-1.7-.43,2.86,2.86,0,0,1-1.15-1.23,4,4,0,0,1-.42-1.88,4.1,4.1,0,0,1,.41-1.88,3,3,0,0,1,1.13-1.23,3.28,3.28,0,0,1,1.66-.42,3.33,3.33,0,0,1,1.65.39A2.66,2.66,0,0,1,88,87.76a3.73,3.73,0,0,1,.37,1.74c0,.1,0,.2,0,.3s0,.18,0,.25H83v-.89h4.57l-.29.42a2.5,2.5,0,0,0-.54-1.74,1.91,1.91,0,0,0-1.49-.59,1.82,1.82,0,0,0-1.45.61,2.77,2.77,0,0,0-.53,1.84v.15a3.24,3.24,0,0,0,.24,1.32,1.87,1.87,0,0,0,.72.84,2.11,2.11,0,0,0,1.11.29,2.57,2.57,0,0,0,1.12-.21,1.84,1.84,0,0,0,.68-.52,2.63,2.63,0,0,0,.36-.61l.76.83a3.19,3.19,0,0,1-1.09,1.07A3.35,3.35,0,0,1,85.33,93.31Z"></path></svg> 