<svg width="24" height="24" viewBox="0 0 24 24" fill="none" xmlns="http://www.w3.org/2000/svg">
    <g clip-path="url(#clip0_19_13413)">
        <path
            d="M19.5 11C19.224 11 19 11.224 19 11.5V17H5V16.5C5 16.224 4.776 16 4.5 16C4.224 16 4 16.224 4 16.5V19.5C4 21.981 6.019 24 8.5 24H15.5C17.981 24 20 21.981 20 19.5V11.5C20 11.224 19.776 11 19.5 11ZM15.5 23H8.5C6.57 23 5 21.43 5 19.5V18H19V19.5C19 21.43 17.43 23 15.5 23ZM14 20.5C14 20.776 13.776 21 13.5 21H10.5C10.224 21 10 20.776 10 20.5C10 20.224 10.224 20 10.5 20H13.5C13.776 20 14 20.224 14 20.5ZM8.325 15.689C9.008 16.143 10 15.655 9.997 14.774L9.999 8.002C9.999 6.352 8.65 5.002 7 5.001H3.001L3 5C1.343 5 0 6.343 0 8V10.999C0 12.657 1.343 14 3 14H5.872L8.326 15.69L8.325 15.689ZM1 11V8.001C1 6.898 1.898 6.001 3.001 6.001H7C8.103 6.003 9 6.9 8.999 8.003L8.997 14.777C8.997 14.806 8.991 14.817 8.979 14.829C8.959 14.849 8.927 14.862 8.892 14.866L6.438 13.176C6.271 13.061 6.073 13 5.871 13H3C1.897 13 1 12.103 1 11ZM21 0H17C15.35 0.002 14.001 1.352 14.001 3.002L14.003 9.774C14.001 10.655 14.992 11.143 15.675 10.689L18.129 8.999H21.001C22.658 8.999 24.001 7.656 24.001 5.999V3C24 1.344 22.657 0 21 0ZM23 5.999C23 7.102 22.103 7.999 21 7.999H18.128C17.925 7.999 17.728 8.06 17.561 8.175L15.098 9.861C15.072 9.861 15.04 9.847 15.02 9.828C15.008 9.816 15.002 9.804 15.002 9.773L15 3.001C15 1.898 15.897 1.001 16.999 1H20.998C22.101 1 22.998 1.896 22.998 2.999V5.998L23 5.999ZM4.603 2.25C5.406 0.862 6.899 0 8.5 0H12C12.276 0 12.5 0.224 12.5 0.5C12.5 0.776 12.276 1 12 1H8.5C7.255 1 6.093 1.671 5.468 2.75C5.329 2.991 5.02 3.07 4.785 2.933C4.546 2.794 4.464 2.489 4.603 2.25Z"
            fill="#02E1B8" />
    </g>
    <defs>
        <clipPath id="clip0_19_13413">
            <rect width="24" height="24" fill="white" />
        </clipPath>
    </defs>
</svg>