<svg xmlns="http://www.w3.org/2000/svg" width="50.001" height="50" viewBox="0 0 50.001 50">
  <g id="Travel_and_Hospitality_" data-name="Travel and Hospitality " transform="translate(-93 -164)">
    <rect id="Rectangle_26" data-name="Rectangle 26" width="50" height="50" transform="translate(93 164)" fill="#c8c8c8" opacity="0"/>
    <g id="travel-map" transform="translate(92.001 163)">
      <path id="Path_2575" data-name="Path 2575" d="M50.915,51.769l-12.1-24.194a.807.807,0,0,0-.722-.446H30.118l.1-.44a8.065,8.065,0,1,0-5.215,0l.1.44H13.9a.807.807,0,0,0-.722.446L1.085,51.769a.806.806,0,0,0,.722,1.167H50.193a.806.806,0,0,0,.722-1.167ZM24.623,47.86l3.462,3.462H25.527l-6.215-6.215a.806.806,0,0,0-1.14,0l-6.215,6.215H9.4l7.494-7.494a.806.806,0,0,0,0-1.14l-6.31-6.31.852-1.706,3.51,3.51a.806.806,0,0,0,1.141,0l4.032-4.032a.8.8,0,0,0,.236-.57V28.742h1.613V34.86l-4.6,4.6a.806.806,0,0,0,0,1.14L22.2,45.441a.806.806,0,0,0,1.14,0l7.022-7.022H42.437l.806,1.613h-11.6a.8.8,0,0,0-.57.236L24.623,46.72a.806.806,0,0,0,0,1.14Zm-1.377,3.462h-9.01l4.5-4.5ZM21.161,19.065a6.452,6.452,0,1,1,8.164,6.214.808.808,0,0,0-.572.6l-1.14,4.933-1.14-4.933a.806.806,0,0,0-.572-.6,6.463,6.463,0,0,1-4.74-6.214Zm5.665,15.5a.807.807,0,0,0,1.573,0l1.347-5.827H37.6l4.032,8.065h-11.6a.8.8,0,0,0-.57.236l-6.688,6.688-3.7-3.7,4.269-4.269a.8.8,0,0,0,.236-.57V28.742h1.9ZM14.4,28.742h4.34v4.5l-3.226,3.226-3.32-3.32ZM9.823,37.9l5.359,5.359L7.118,51.323H3.111ZM30.366,51.323,26.334,47.29l5.645-5.645H44.05L47.276,48.1H43.367l-2.986-4.48a.807.807,0,0,0-1.241-.123L37.613,45.02l-1.235-2.163a.839.839,0,0,0-1.4,0L31.984,48.1H30.032V49.71h18.05l.806,1.613ZM37.514,48.1H33.841l1.836-3.213Zm1.857,0-.928-1.625,1.142-1.141L41.429,48.1Z" transform="translate(0 -1.935)" fill="#22b573"/>
      <path id="Path_2576" data-name="Path 2576" d="M37.226,19.839h1.613A4.844,4.844,0,0,0,34,15v1.613A3.229,3.229,0,0,1,37.226,19.839Z" transform="translate(-6.387 -2.71)" fill="#22b573"/>
      <path id="Path_2577" data-name="Path 2577" d="M36.4,23.89l.969,1.29A4.853,4.853,0,0,0,38.9,23.245L37.422,22.6A3.22,3.22,0,0,1,36.4,23.89Z" transform="translate(-6.852 -4.181)" fill="#22b573"/>
      <path id="Path_2578" data-name="Path 2578" d="M3.419,12.29a.807.807,0,0,0-.671.359L1.135,15.069a.806.806,0,0,0,0,.894l1.613,2.419a.806.806,0,0,0,.671.36H7.452V26a.806.806,0,0,0,.806.806h3.226A.806.806,0,0,0,12.29,26V18.742h5.645a.806.806,0,0,0,.671-1.253l-1.315-1.973,1.315-1.972a.807.807,0,0,0-.671-1.254H12.29V10.677h4.032a.807.807,0,0,0,.671-.359L18.606,7.9a.806.806,0,0,0,0-.894L16.994,4.585a.806.806,0,0,0-.671-.36H12.29V1.806A.806.806,0,0,0,11.484,1H8.258a.806.806,0,0,0-.806.806V4.226H1.806a.806.806,0,0,0-.671,1.253L2.45,7.452,1.135,9.423a.807.807,0,0,0,.671,1.254H7.452V12.29Zm7.258,12.9H9.065V18.742h1.613Zm4.974-9.23.777,1.165H3.851L2.776,15.516,3.851,13.9H16.429l-.777,1.165A.807.807,0,0,0,15.652,15.964ZM9.065,2.613h1.613V4.226H9.065ZM4.09,7,3.313,5.839H15.891l1.075,1.613L15.891,9.065H3.313L4.09,7.9a.807.807,0,0,0,0-.9Zm4.974,3.673h1.613V12.29H9.065Z" transform="translate(0)" fill="#22b573"/>
      <path id="Path_2579" data-name="Path 2579" d="M5,18H6.613v1.613H5Z" transform="translate(-0.774 -3.29)" fill="#22b573"/>
      <path id="Path_2580" data-name="Path 2580" d="M9,18h1.613v1.613H9Z" transform="translate(-1.549 -3.29)" fill="#22b573"/>
      <path id="Path_2581" data-name="Path 2581" d="M17,8h1.613V9.613H17Z" transform="translate(-3.097 -1.355)" fill="#22b573"/>
      <path id="Path_2582" data-name="Path 2582" d="M13,8h1.613V9.613H13Z" transform="translate(-2.323 -1.355)" fill="#22b573"/>
    </g>
  </g>
</svg>
