<svg width="1300" height="541" viewBox="0 0 1300 541" fill="none" xmlns="http://www.w3.org/2000/svg">
<rect opacity="0.64" width="1300" height="541" rx="38" fill="url(#paint0_linear_341_750)"/>
<g opacity="0.1" clip-path="url(#clip0_341_750)">
<g clip-path="url(#clip1_341_750)">
<path d="M467.546 501.047C428.207 441.505 364.419 441.505 325.079 501.047C285.74 560.569 221.952 560.569 182.613 501.047L180.124 497.241C140.785 437.72 76.997 437.72 37.6576 497.241L33.0984 504.143C29.0108 510.384 24.3851 516.255 19.2742 521.69" stroke="black" stroke-width="4" stroke-miterlimit="10" stroke-dasharray="4.18 12.55"/>
<path d="M18.124 494.438C21.2108 498.183 24.1009 502.085 26.7824 506.129L29.5431 510.312C68.8824 569.855 132.67 569.855 172.01 510.312L176.569 503.431C215.908 443.91 279.675 443.91 319.015 503.431L325.08 512.613C364.419 572.155 428.207 572.155 467.546 512.613" stroke="black" stroke-width="4" stroke-miterlimit="10"/>
<path d="M12.9995 494.438C12.9995 495.452 13.3 496.442 13.8631 497.285C14.4261 498.128 15.2263 498.784 16.1626 499.172C17.0989 499.56 18.1291 499.662 19.1231 499.464C20.117 499.266 21.03 498.778 21.7466 498.062C22.4632 497.345 22.9512 496.432 23.1489 495.438C23.3467 494.444 23.2452 493.414 22.8574 492.478C22.4695 491.541 21.8128 490.741 20.9702 490.178C20.1275 489.615 19.1369 489.314 18.1235 489.314C16.7662 489.32 15.4661 489.862 14.5064 490.821C13.5466 491.781 13.005 493.081 12.9995 494.438Z" fill="black"/>
<path d="M12.9995 521.083C12.9995 522.097 13.3 523.087 13.8631 523.93C14.4261 524.772 15.2263 525.429 16.1626 525.817C17.0989 526.205 18.1291 526.306 19.1231 526.109C20.117 525.911 21.03 525.423 21.7466 524.706C22.4632 523.99 22.9512 523.077 23.1489 522.083C23.3467 521.089 23.2452 520.059 22.8574 519.122C22.4695 518.186 21.8128 517.386 20.9702 516.823C20.1275 516.26 19.1369 515.959 18.1235 515.959C16.7645 515.959 15.4612 516.499 14.5003 517.46C13.5394 518.421 12.9995 519.724 12.9995 521.083Z" fill="black"/>
<path d="M15.8447 521.083C15.8447 521.534 15.9784 521.975 16.2289 522.35C16.4794 522.724 16.8354 523.017 17.252 523.189C17.6685 523.362 18.1269 523.407 18.5691 523.319C19.0113 523.231 19.4175 523.014 19.7363 522.695C20.0551 522.376 20.2722 521.97 20.3602 521.528C20.4481 521.086 20.403 520.627 20.2305 520.211C20.0579 519.794 19.7657 519.438 19.3909 519.188C19.016 518.937 18.5752 518.803 18.1244 518.803C17.825 518.803 17.5286 518.862 17.252 518.977C16.9754 519.092 16.7241 519.259 16.5124 519.471C16.3007 519.683 16.1328 519.934 16.0183 520.211C15.9037 520.487 15.8447 520.784 15.8447 521.083Z" fill="black"/>
<path d="M130.808 459.282C133.095 459.282 134.949 457.428 134.949 455.141C134.949 452.854 133.095 451 130.808 451C128.521 451 126.667 452.854 126.667 455.141C126.667 457.428 128.521 459.282 130.808 459.282Z" fill="black"/>
<path d="M192.631 487.6C194.918 487.6 196.772 485.746 196.772 483.459C196.772 481.172 194.918 479.318 192.631 479.318C190.344 479.318 188.49 481.172 188.49 483.459C188.49 485.746 190.344 487.6 192.631 487.6Z" fill="black"/>
</g>
<g clip-path="url(#clip2_341_750)">
<path d="M904.546 501.047C865.207 441.505 801.419 441.505 762.079 501.047C722.74 560.569 658.952 560.569 619.613 501.047L617.124 497.241C577.785 437.72 513.997 437.72 474.658 497.241L470.098 504.143C466.011 510.384 461.385 516.255 456.274 521.69" stroke="black" stroke-width="4" stroke-miterlimit="10" stroke-dasharray="4.18 12.55"/>
<path d="M455.124 494.438C458.211 498.183 461.101 502.085 463.782 506.129L466.543 510.312C505.882 569.855 569.67 569.855 609.01 510.312L613.569 503.431C652.908 443.91 716.675 443.91 756.015 503.431L762.08 512.613C801.419 572.155 865.207 572.155 904.546 512.613" stroke="black" stroke-width="4" stroke-miterlimit="10"/>
<path d="M450 494.438C450 495.452 450.3 496.442 450.863 497.285C451.426 498.128 452.226 498.784 453.163 499.172C454.099 499.56 455.129 499.662 456.123 499.464C457.117 499.266 458.03 498.778 458.747 498.062C459.463 497.345 459.951 496.432 460.149 495.438C460.347 494.444 460.245 493.414 459.857 492.478C459.47 491.541 458.813 490.741 457.97 490.178C457.128 489.615 456.137 489.314 455.123 489.314C453.766 489.32 452.466 489.862 451.506 490.821C450.547 491.781 450.005 493.081 450 494.438Z" fill="black"/>
<path d="M450 521.083C450 522.097 450.3 523.087 450.863 523.93C451.426 524.772 452.226 525.429 453.163 525.817C454.099 526.205 455.129 526.306 456.123 526.109C457.117 525.911 458.03 525.423 458.747 524.706C459.463 523.99 459.951 523.077 460.149 522.083C460.347 521.089 460.245 520.059 459.857 519.122C459.47 518.186 458.813 517.386 457.97 516.823C457.128 516.26 456.137 515.959 455.123 515.959C453.765 515.959 452.461 516.499 451.5 517.46C450.539 518.421 450 519.724 450 521.083Z" fill="black"/>
<path d="M452.845 521.083C452.845 521.534 452.978 521.975 453.229 522.35C453.479 522.724 453.835 523.017 454.252 523.189C454.669 523.362 455.127 523.407 455.569 523.319C456.011 523.231 456.417 523.014 456.736 522.695C457.055 522.376 457.272 521.97 457.36 521.528C457.448 521.086 457.403 520.627 457.23 520.211C457.058 519.794 456.766 519.438 456.391 519.188C456.016 518.937 455.575 518.803 455.124 518.803C454.825 518.803 454.529 518.862 454.252 518.977C453.975 519.092 453.724 519.259 453.512 519.471C453.301 519.683 453.133 519.934 453.018 520.211C452.904 520.487 452.845 520.784 452.845 521.083Z" fill="black"/>
<path d="M567.808 459.282C570.095 459.282 571.949 457.428 571.949 455.141C571.949 452.854 570.095 451 567.808 451C565.521 451 563.667 452.854 563.667 455.141C563.667 457.428 565.521 459.282 567.808 459.282Z" fill="black"/>
<path d="M629.631 487.6C631.918 487.6 633.772 485.746 633.772 483.459C633.772 481.172 631.918 479.318 629.631 479.318C627.344 479.318 625.49 481.172 625.49 483.459C625.49 485.746 627.344 487.6 629.631 487.6Z" fill="black"/>
</g>
<g clip-path="url(#clip3_341_750)">
<path d="M1341.55 501.047C1302.21 441.505 1238.42 441.505 1199.08 501.047C1159.74 560.569 1095.95 560.569 1056.61 501.047L1054.12 497.241C1014.78 437.72 950.997 437.72 911.658 497.241L907.098 504.143C903.011 510.384 898.385 516.255 893.274 521.69" stroke="black" stroke-width="4" stroke-miterlimit="10" stroke-dasharray="4.18 12.55"/>
<path d="M892.124 494.438C895.211 498.183 898.101 502.085 900.782 506.129L903.543 510.312C942.882 569.855 1006.67 569.855 1046.01 510.312L1050.57 503.431C1089.91 443.91 1153.68 443.91 1193.01 503.431L1199.08 512.613C1238.42 572.155 1302.21 572.155 1341.55 512.613" stroke="black" stroke-width="4" stroke-miterlimit="10"/>
<path d="M887 494.438C887 495.452 887.3 496.442 887.863 497.285C888.426 498.128 889.227 498.784 890.163 499.172C891.099 499.56 892.129 499.662 893.123 499.464C894.117 499.266 895.03 498.778 895.747 498.062C896.463 497.345 896.951 496.432 897.149 495.438C897.347 494.444 897.245 493.414 896.858 492.478C896.47 491.541 895.813 490.741 894.97 490.178C894.128 489.615 893.137 489.314 892.124 489.314C890.766 489.32 889.466 489.862 888.507 490.821C887.547 491.781 887.005 493.081 887 494.438Z" fill="black"/>
<path d="M887 521.083C887 522.097 887.3 523.087 887.863 523.93C888.426 524.772 889.227 525.429 890.163 525.817C891.099 526.205 892.129 526.306 893.123 526.109C894.117 525.911 895.03 525.423 895.747 524.706C896.463 523.99 896.951 523.077 897.149 522.083C897.347 521.089 897.245 520.059 896.858 519.122C896.47 518.186 895.813 517.386 894.97 516.823C894.128 516.26 893.137 515.959 892.124 515.959C890.765 515.959 889.461 516.499 888.501 517.46C887.54 518.421 887 519.724 887 521.083Z" fill="black"/>
<path d="M889.845 521.083C889.845 521.534 889.978 521.975 890.229 522.35C890.479 522.724 890.835 523.017 891.252 523.189C891.669 523.362 892.127 523.407 892.569 523.319C893.011 523.231 893.417 523.014 893.736 522.695C894.055 522.376 894.272 521.97 894.36 521.528C894.448 521.086 894.403 520.627 894.23 520.211C894.058 519.794 893.766 519.438 893.391 519.188C893.016 518.937 892.575 518.803 892.124 518.803C891.825 518.803 891.529 518.862 891.252 518.977C890.975 519.092 890.724 519.259 890.512 519.471C890.301 519.683 890.133 519.934 890.018 520.211C889.904 520.487 889.845 520.784 889.845 521.083Z" fill="black"/>
<path d="M1004.81 459.282C1007.09 459.282 1008.95 457.428 1008.95 455.141C1008.95 452.854 1007.09 451 1004.81 451C1002.52 451 1000.67 452.854 1000.67 455.141C1000.67 457.428 1002.52 459.282 1004.81 459.282Z" fill="black"/>
<path d="M1066.63 487.6C1068.92 487.6 1070.77 485.746 1070.77 483.459C1070.77 481.172 1068.92 479.318 1066.63 479.318C1064.34 479.318 1062.49 481.172 1062.49 483.459C1062.49 485.746 1064.34 487.6 1066.63 487.6Z" fill="black"/>
</g>
</g>
<defs>
<linearGradient id="paint0_linear_341_750" x1="1294.5" y1="531.089" x2="-38.8402" y2="128.699" gradientUnits="userSpaceOnUse">
<stop stop-color="#02E1B8"/>
<stop offset="1" stop-color="#00B5D4"/>
</linearGradient>
<clipPath id="clip0_341_750">
<rect width="1287" height="90" fill="white" transform="translate(13 451)"/>
</clipPath>
<clipPath id="clip1_341_750">
<rect width="455.424" height="107.31" fill="white" transform="translate(13 451)"/>
</clipPath>
<clipPath id="clip2_341_750">
<rect width="455.424" height="107.31" fill="white" transform="translate(450 451)"/>
</clipPath>
<clipPath id="clip3_341_750">
<rect width="455.424" height="107.31" fill="white" transform="translate(887 451)"/>
</clipPath>
</defs>
</svg>
