<svg width="24" height="24" viewBox="0 0 24 24" fill="none" xmlns="http://www.w3.org/2000/svg">
<path d="M2 2H19C19.5304 2 20.0391 2.21071 20.4142 2.58579C20.7893 2.96086 21 3.46957 21 4V8C21 8.53043 20.7893 9.03914 20.4142 9.41421C20.0391 9.78929 19.5304 10 19 10H14" stroke="black" stroke-linecap="round" stroke-linejoin="round"/>
<path d="M21 22V16C21 15.4696 20.7893 14.9609 20.4142 14.5858C20.0391 14.2107 19.5304 14 19 14H11" stroke="black" stroke-linecap="round" stroke-linejoin="round"/>
<path d="M3.9 14C3.39609 14 2.91282 14.2107 2.5565 14.5858C2.20018 14.9609 2 15.4696 2 16V20C2 20.5304 2.20018 21.0391 2.5565 21.4142C2.91282 21.7893 3.39609 22 3.9 22C10.0215 22 13.4535 22 19.575 22H21L13.4 14H3.9Z" stroke="black" stroke-linecap="round" stroke-linejoin="round"/>
<path d="M6 18H6.01" stroke="black" stroke-linecap="round" stroke-linejoin="round"/>
<path d="M2 2L21 22" stroke="black" stroke-linecap="round" stroke-linejoin="round"/>
<path d="M2 2V8C2 8.53043 2.21071 9.03914 2.58579 9.41421C2.96086 9.78929 3.46957 10 4 10H15" stroke="black" stroke-linecap="round" stroke-linejoin="round"/>
</svg>
