<svg width="32" height="32" viewBox="0 0 32 32" fill="none" xmlns="http://www.w3.org/2000/svg">
<path d="M29.4227 20.0309C29.7507 19.9906 30 19.7016 30 19.3656V17.6855C30 17.3159 29.7048 17.0134 29.344 17.0134C28.9831 17.0134 28.6879 17.3159 28.6879 17.6855V18.7742L26.7329 19.0228C26.4442 19.0565 26.2146 19.2782 26.1687 19.5739C25.9063 21.0793 25.3421 22.4771 24.4958 23.7271C24.3318 23.9691 24.3383 24.2917 24.5155 24.5269L25.7291 26.1129L24.2268 27.6519L22.6785 26.4086C22.4489 26.2272 22.134 26.2204 21.8978 26.3884C20.6776 27.2554 19.313 27.8333 17.8435 28.1089C17.5614 28.1626 17.3449 28.3978 17.3055 28.6868L17.0628 30.6761H14.9372L14.6945 28.6734C14.6617 28.3844 14.4452 28.1492 14.1565 28.0954C12.687 27.8266 11.3224 27.2487 10.1022 26.375C9.86598 26.207 9.55108 26.2137 9.32146 26.3952L7.7732 27.6384L6.27085 26.0995L7.48454 24.5134C7.66167 24.2782 7.66823 23.9556 7.50422 23.7137C6.65792 22.4637 6.09372 21.0726 5.8313 19.5605C5.77882 19.2715 5.5492 19.0497 5.2671 19.0094L3.31209 18.7608V17.672C3.31209 17.3024 3.01687 17 2.65604 17C2.29522 17 2 17.3024 2 17.672V19.3522C2 19.6882 2.2493 19.9771 2.57732 20.0175L4.6373 20.2796C4.93252 21.6304 5.44424 22.9005 6.15933 24.0565L4.88004 25.7298C4.67666 25.9987 4.69634 26.375 4.93252 26.6169L7.25492 28.996C7.4911 29.2379 7.86504 29.2581 8.1209 29.0497L9.75445 27.7392C10.8894 28.4785 12.1228 29.0027 13.4414 29.2984L13.6973 31.4086C13.7366 31.7446 14.0187 32 14.3468 32H17.6336C17.9681 32 18.2437 31.7446 18.283 31.4086L18.5389 29.2984C19.8575 28.996 21.0909 28.4718 22.2259 27.7392L23.8725 29.0632C24.135 29.2715 24.5089 29.2513 24.7385 29.0094L27.0609 26.6304C27.2971 26.3884 27.3168 26.0121 27.1134 25.7433L25.8341 24.0699C26.5558 22.9073 27.0675 21.6438 27.3561 20.293L29.4227 20.0309Z" fill="black"/>
<path d="M22.7024 17.6369C22.7024 20.9936 19.9191 23.7261 16.5 23.7261C13.0809 23.7261 10.2976 20.9936 10.2976 17.6369C10.2976 17.2866 10.0056 17 9.64879 17C9.29196 17 9 17.2866 9 17.6369C9 21.6943 12.3672 25 16.5 25C20.6328 25 24 21.6943 24 17.6369C24 17.2866 23.708 17 23.3512 17C22.9944 17 22.7024 17.2866 22.7024 17.6369Z" fill="black"/>
<path d="M3.6405 12.0268C2.69557 12.2595 2 13.047 2 13.9776C2 15.0932 2.99742 16 4.21795 16H27.782C29.0091 16 30 15.0932 30 13.9776C30 13.047 29.2979 12.2595 28.3529 12.0268C28.1233 7.52274 24.9801 3.61521 20.3473 2.04027L20.4064 1.6704C20.472 1.2528 20.3342 0.823266 20.0258 0.507084C19.7239 0.184937 19.2777 0 18.8118 0H13.1947C12.7223 0 12.2826 0.184937 11.9742 0.507084C11.6658 0.829232 11.528 1.2528 11.5936 1.6704L11.6527 2.04027C7.01336 3.61521 3.87017 7.52871 3.6405 12.0268ZM11.8364 3.24534L12.7485 9.14541C12.801 9.47353 13.1291 9.70022 13.49 9.6525C13.8509 9.60477 14.1003 9.30649 14.0478 8.97837L12.8929 1.50336C12.8732 1.39597 12.9323 1.32438 12.9651 1.28859C12.9979 1.2528 13.0701 1.19314 13.1947 1.19314H18.8118C18.9299 1.19314 19.0021 1.2528 19.0415 1.28859C19.0743 1.32438 19.1268 1.39597 19.1137 1.50336L17.9588 8.98434C17.9063 9.31245 18.1556 9.61074 18.5165 9.65846C18.5493 9.66443 18.5756 9.66443 18.6084 9.66443C18.9299 9.66443 19.2121 9.44966 19.258 9.15138L20.1701 3.2513C24.3239 4.77852 27.0668 8.42953 27.0668 12.5578C27.0668 12.8859 27.3621 13.1544 27.723 13.1544H27.7952C28.2939 13.1544 28.7007 13.5242 28.7007 13.9776C28.7007 14.431 28.2939 14.8069 27.7952 14.8069H4.21795C3.71924 14.8069 3.3124 14.437 3.3124 13.9776C3.3124 13.5242 3.71924 13.1544 4.28357 13.1544C4.64448 13.1544 4.93977 12.8859 4.93977 12.5578C4.93977 8.42356 7.68268 4.77256 11.8364 3.24534Z" fill="black"/>
</svg>
