<svg width="32" height="32" viewBox="0 0 32 32" fill="none" xmlns="http://www.w3.org/2000/svg">
<g clip-path="url(#clip0_233_3250)">
<path d="M30.283 7.16569H27.8723C27.5975 7.16569 27.3747 7.3885 27.3747 7.66337C27.3747 7.93825 27.5975 8.16106 27.8723 8.16106H30.283C30.681 8.16106 31.0047 8.48562 31.0047 8.88462V21.9048H6.42551V17.2547C6.42551 16.9799 6.2027 16.7571 5.92789 16.7571C5.65308 16.7571 5.43026 16.9799 5.43026 17.2547V24.6014C5.43026 25.5482 6.20133 26.3184 7.14914 26.3184H15.9834V27.3155C15.9834 28.2621 15.4702 29.1464 14.644 29.6233C14.4489 29.7359 14.3538 29.9656 14.4121 30.1831C14.4703 30.4006 14.6675 30.552 14.8928 30.552H22.5375C22.7628 30.552 22.9599 30.4007 23.0182 30.1831C23.0765 29.9656 22.9814 29.7359 22.7863 29.6233C21.9601 29.1464 21.4469 28.2621 21.4469 27.3155V26.3184H30.2829C31.2297 26.3184 32 25.5481 32 24.6014V8.88462C32 7.93675 31.2297 7.16569 30.283 7.16569ZM21.224 29.5566H16.2063C16.6982 28.9235 16.9786 28.1367 16.9786 27.3155V26.3184H20.4516V27.3155C20.4516 28.1368 20.732 28.9235 21.224 29.5566ZM30.283 25.3231H7.14908C6.75014 25.3231 6.42551 24.9993 6.42551 24.6014V22.9002H31.0047V24.6014C31.0047 24.9993 30.6809 25.3231 30.283 25.3231ZM6.51326 15.4833L8.92414 19.6603C9.2537 20.2304 9.85358 20.5496 10.47 20.5496C10.7721 20.5496 11.0783 20.4728 11.3585 20.3114L11.8401 20.0327C12.6903 19.5412 12.9824 18.4501 12.4913 17.6006L10.2613 13.7394H15.334C15.5118 13.7394 15.6761 13.6446 15.765 13.4906C15.8538 13.3366 15.8538 13.1469 15.765 12.9929L13.8082 9.60419L15.2556 7.99644C15.3998 7.83625 15.4246 7.60137 15.3168 7.41475L14.055 5.22825C13.9473 5.04144 13.7314 4.94537 13.5204 4.99025L11.4041 5.44069L9.44726 2.05162C9.35839 1.89762 9.19408 1.80281 9.01626 1.80281C8.83845 1.80287 8.6742 1.89769 8.58533 2.05169L5.68533 7.075L1.92189 9.24775C0.0851383 10.3084 -0.545924 12.6661 0.515076 14.5036C1.22689 15.7362 2.52295 16.4262 3.85408 16.4262C4.50614 16.4262 5.1667 16.2606 5.77089 15.9121L6.51326 15.4833ZM11.3416 19.1711L10.8606 19.4495C10.4848 19.6661 10.0026 19.5372 9.78601 19.1625L7.37514 14.9855L9.21701 13.9216L11.6295 18.0986C11.846 18.473 11.717 18.9542 11.3416 19.1711ZM13.3736 6.03894L14.274 7.59906L13.2848 8.69781L11.9273 6.34681L13.3736 6.03894ZM9.0162 3.29569L14.4718 12.7441H9.68633L6.6242 7.43931L9.0162 3.29569ZM1.37701 14.0059C0.590451 12.6437 1.05814 10.8958 2.41958 10.1097L5.86745 8.11906L8.71939 13.0596L5.27333 15.0501C3.91101 15.836 2.16314 15.3674 1.37701 14.0059ZM17.9828 9.71925C17.7079 9.71925 17.4851 9.94206 17.4851 10.2169C17.4851 10.4918 17.708 10.7146 17.9828 10.7146H24.814C25.8484 10.7146 26.69 9.87306 26.69 8.83869V6.48631C26.69 5.45287 25.8484 4.61212 24.814 4.61212H24.034V2.74512C24.034 2.02994 23.453 1.448 22.7387 1.448C21.9201 1.448 21.6096 2.22794 21.4772 2.56025L20.6564 4.61212H17.9827C17.7078 4.61212 17.4851 4.83494 17.4851 5.10981C17.4851 5.38469 17.7079 5.6075 17.9827 5.6075H19.3186V9.71925H17.9828ZM20.314 5.60756H20.9934C21.1969 5.60756 21.3799 5.48369 21.4555 5.29469L22.4016 2.92919C22.5801 2.48087 22.6693 2.44337 22.7387 2.44337C22.9041 2.44337 23.0387 2.57869 23.0387 2.74512V5.10987C23.0387 5.38475 23.2615 5.60756 23.5363 5.60756H24.814C25.2996 5.60756 25.6946 6.00175 25.6946 6.48637V8.83875C25.6946 9.32431 25.2996 9.71931 24.814 9.71931H20.314V5.60756ZM24.2302 12.8274C24.2297 12.8274 24.2292 12.8274 24.2287 12.8274C23.5944 12.8274 22.9992 13.0733 22.5526 13.5199L22.0871 13.9854L21.6209 13.5202C21.1752 13.0734 20.5803 12.8274 19.9459 12.8274C19.3115 12.8274 18.7166 13.0735 18.2718 13.5194C17.8254 13.9647 17.5793 14.5591 17.579 15.1932C17.5786 15.8281 17.8245 16.4239 18.2713 16.8707L21.7355 20.3349C21.8327 20.432 21.96 20.4807 22.0874 20.4807C22.2148 20.4807 22.3421 20.4321 22.4393 20.3349L25.9035 16.8707C26.3503 16.4239 26.5962 15.8281 26.5958 15.1932C26.5954 14.5591 26.3494 13.9647 25.9039 13.5203C25.4587 13.0739 24.8643 12.8279 24.2302 12.8274ZM25.1998 16.1669L22.0875 19.2792L18.9753 16.1669C18.7165 15.9082 18.5742 15.5626 18.5744 15.1937C18.5746 14.8258 18.7168 14.4814 18.9757 14.2232C19.2333 13.965 19.5779 13.8227 19.9461 13.8227C20.3142 13.8227 20.6588 13.9649 20.9173 14.2239L21.7361 15.041C21.9305 15.235 22.2453 15.2349 22.4395 15.0406L23.2565 14.2236C23.5151 13.9651 23.8603 13.8227 24.2288 13.8227H24.2297C24.5976 13.8229 24.942 13.9651 25.2003 14.224C25.4583 14.4814 25.6005 14.8257 25.6007 15.1937C25.6008 15.5626 25.4585 15.9082 25.1998 16.1669Z" fill="black"/>
</g>
<defs>
<clipPath id="clip0_233_3250">
<rect width="32" height="32" fill="white"/>
</clipPath>
</defs>
</svg>
