<svg width="200" height="200" viewBox="0 0 200 200" fill="none" xmlns="http://www.w3.org/2000/svg">
<path d="M75.3472 5.76762C100.556 -0.697222 128.417 3.06996 150.649 16.7911C178.649 33.5356 196.928 65.2098 197.393 97.8145C198.417 130.744 181.253 163.396 153.672 181.303C122.975 201.954 80.5097 202.745 49.1605 183.117C17.2074 164.047 -1.44417 125.582 3.34723 88.6512C7.20661 49.6278 37.3472 15.209 75.3472 5.76762Z" fill="#010101"/>
<path d="M71.491 21.7204C119.119 2.65009 177.538 37.8595 182.468 88.9298C190.143 134.883 152.003 181.581 105.444 182.93C61.1652 187.349 18.3746 149.813 17.1191 105.349C13.8168 69.3485 37.5379 33.6274 71.491 21.7204Z" fill="white"/>
<path d="M76.2766 95.0719C97.6258 77.6297 118.509 59.5828 140.323 42.6523C128.881 60.2344 117.114 77.5828 105.672 95.1641C95.8578 95.2109 86.0445 95.2117 76.2766 95.0719ZM94.3234 104.792C104.184 104.792 113.998 104.792 123.812 104.932C102.323 122.28 81.5328 140.466 59.6719 157.351C71.1141 139.769 82.8812 122.374 94.3234 104.792Z" fill="#010101"/>
</svg>
