<svg width="200" height="200" viewBox="0 0 200 200" fill="none" xmlns="http://www.w3.org/2000/svg">
<g clip-path="url(#clip0_1455_13745)">
<path d="M181.896 10.4308C179.083 17.1486 175.514 23.528 171.216 29.3865C152.409 10.5871 126.882 0.015625 100.287 0.015625C45.2722 0.015625 0 45.3218 0 100.392C0 127.862 11.2529 154.161 31.1539 173.116L34.8528 176.397C52.9305 191.629 75.827 200.014 99.453 200.014C151.758 200.014 195.728 159.03 199.453 106.798C202.188 81.2282 194.686 48.889 181.896 10.4308ZM45.4024 173.689C43.7874 175.694 41.3128 176.866 38.734 176.866C34.0193 176.866 30.1641 172.986 30.1641 168.273C30.1641 163.56 34.0453 159.681 38.734 159.681C40.6877 159.681 42.6153 160.358 44.1261 161.608C47.7989 164.576 48.372 170.018 45.4024 173.689ZM181.48 143.641C156.734 176.632 103.881 165.513 69.9922 167.102C69.9922 167.102 63.975 167.466 57.9317 168.456C57.9317 168.456 60.198 167.492 63.1414 166.373C86.9237 158.093 98.1766 156.478 112.633 149.057C139.854 135.205 166.762 104.897 172.363 73.3648C161.995 103.699 130.581 129.763 101.954 140.361C82.3391 147.599 46.9133 154.629 46.9133 154.629L45.4806 153.874C21.3597 142.131 20.6304 89.8729 64.4699 73.0002C83.6676 65.6054 102.032 69.6674 122.766 64.7201C144.908 59.4604 170.513 42.8482 180.933 21.1845C192.602 55.8412 206.642 110.104 181.48 143.641Z" fill="#77BC1F"/>
</g>
<defs>
<clipPath id="clip0_1455_13745">
<rect width="200" height="200" fill="white"/>
</clipPath>
</defs>
</svg>
