<svg width="520" height="500" viewBox="0 0 520 500" fill="none" xmlns="http://www.w3.org/2000/svg">
<path d="M26.5224 195.461C26.5224 195.461 -22.2107 268.961 12.4404 379.823C47.0915 490.685 147.817 518.97 207.582 488.146C267.346 457.322 276.069 417.297 324.328 388.216C372.587 359.135 472.232 360.168 510.591 280.175C548.95 200.183 469.408 88.058 379.303 23.4923C289.198 -41.0722 93.6057 35.3216 26.5224 195.461Z" fill="#01DFB8"/>
<path opacity="0.7" d="M26.5224 195.461C26.5224 195.461 -22.2107 268.961 12.4404 379.823C47.0915 490.685 147.817 518.97 207.582 488.146C267.346 457.322 276.069 417.297 324.328 388.216C372.587 359.135 472.232 360.168 510.591 280.175C548.95 200.183 469.408 88.058 379.303 23.4923C289.198 -41.0722 93.6057 35.3216 26.5224 195.461Z" fill="white"/>
<path d="M336.379 354.07C340.679 355.948 351.196 355.711 351.204 355.711C351.313 355.708 348.942 348.826 348.744 348.408C346.437 343.58 339.138 335.61 333.201 336.412C328.925 336.99 326.546 341.271 327.51 345.298C328.496 349.414 332.716 352.468 336.379 354.07Z" fill="#263238"/>
<path d="M340.009 384.533C344.47 385.183 353.855 382.462 354.602 382.242C356.084 387.496 358.031 392.767 360.294 397.993C361.585 400.983 362.978 403.953 364.413 406.914C363.556 405.661 362.782 404.544 362.656 404.4C359.155 400.353 350.012 394.593 344.498 396.936C340.523 398.623 339.36 403.38 341.355 407.01C343.391 410.716 348.271 412.55 352.225 413.125C356.238 413.712 364.287 411.551 366.409 410.95C366.972 412.08 367.519 413.216 368.086 414.343C370.805 419.755 373.539 425.144 376.061 430.511C376.95 432.401 377.757 434.296 378.571 436.192C377.81 435.078 377.159 434.147 377.044 434.015C373.543 429.969 364.401 424.208 358.885 426.551C354.912 428.238 353.748 432.995 355.743 436.625C357.781 440.332 362.659 442.166 366.613 442.741C370.443 443.3 377.889 441.372 380.414 440.672C381.19 442.635 381.969 444.6 382.632 446.539C383.055 447.873 383.554 449.127 383.903 450.49C384.279 451.833 384.649 453.161 385.016 454.478C385.63 457.036 386.28 459.676 386.816 462.187C387.202 463.932 387.538 465.602 387.883 467.284C387.019 465.39 385.251 461.72 385.068 461.43C382.221 456.899 374.056 449.822 368.249 451.301C364.066 452.366 362.195 456.892 363.618 460.782C365.07 464.755 369.614 467.307 373.436 468.474C377.644 469.76 386.959 468.585 388.122 468.431C388.681 471.215 389.197 473.927 389.644 476.495C389.884 477.855 390.091 479.131 390.303 480.415H394.007C393.734 478.936 393.448 477.424 393.133 475.843C392.578 473.015 391.928 470.004 391.231 466.916C391.932 466.638 395.905 465.031 399.425 463.064C402.492 466.385 410.35 470.272 411.368 470.766C410.299 473.395 409.233 475.943 408.188 478.33C407.874 479.054 407.57 479.726 407.265 480.413H411.167C411.264 480.179 411.361 479.953 411.459 479.711C412.556 477.046 413.676 474.174 414.798 471.216C415.925 471.452 425.146 473.324 429.445 472.355C433.342 471.474 438.064 469.268 439.809 465.414C441.517 461.643 439.988 456.99 435.895 455.615C430.215 453.706 421.545 460.156 418.369 464.463C418.181 464.717 416.456 467.699 415.399 469.599C415.85 468.388 416.302 467.217 416.752 465.964C417.66 463.494 418.491 461.001 419.395 458.322C419.786 457.014 420.182 455.692 420.582 454.356C421.006 453.04 421.286 451.597 421.649 450.206C422.422 446.963 423.045 443.638 423.601 440.277C425.765 441.064 433.496 443.754 437.502 443.472C441.488 443.193 446.489 441.729 448.797 438.183C451.058 434.713 450.251 429.881 446.414 427.902C441.087 425.156 431.541 430.22 427.748 433.994C427.511 434.228 425.096 437.244 423.799 438.925C424.118 436.901 424.444 434.883 424.7 432.824C425.438 426.883 425.998 420.847 426.585 414.827C426.763 412.982 426.964 411.147 427.158 409.309C427.926 409.599 437.044 412.993 441.53 412.677C445.517 412.398 450.518 410.933 452.825 407.388C455.085 403.92 454.28 399.088 450.442 397.11C445.117 394.362 435.569 399.425 431.778 403.2C431.493 403.484 428.02 407.825 427.192 408.974C427.619 404.926 428.083 400.896 428.702 396.942C429.547 391.487 430.679 386.18 432.155 381.118C432.511 381.254 442.014 384.84 446.608 384.517C450.594 384.237 455.596 382.773 457.904 379.227C460.164 375.757 459.358 370.926 455.521 368.947C450.196 366.201 440.649 371.263 436.855 375.038C436.558 375.334 432.827 380.008 432.209 380.904C432.298 380.603 432.357 380.281 432.449 379.983C434.093 374.601 436.363 369.594 438.717 365.01C440.08 362.343 441.532 359.87 442.998 357.497C444.701 358.347 452.518 362.142 456.684 362.309C460.678 362.468 465.809 361.562 468.492 358.293C471.119 355.091 470.849 350.201 467.254 347.813C462.261 344.499 452.217 348.483 448.032 351.818C447.805 351.998 445.696 354.099 444.182 355.65C444.86 354.588 445.54 353.48 446.209 352.477C448.716 348.703 451.243 345.4 453.505 342.494C454.806 340.852 456.012 339.392 457.158 338.038C459.262 338.001 467.74 337.744 471.447 336.003C475.064 334.304 479.201 331.135 480.077 326.997C480.933 322.945 478.439 318.729 474.148 318.267C468.191 317.624 461.111 325.79 458.934 330.677C458.746 331.1 456.564 338.044 456.674 338.043C456.674 338.043 456.777 338.042 456.802 338.042C455.673 339.321 454.481 340.707 453.206 342.247C450.875 345.11 448.268 348.366 445.671 352.101C443.064 355.827 440.337 359.948 437.857 364.548C435.365 369.155 432.98 374.129 431.183 379.572C431.163 379.634 431.15 379.701 431.129 379.763C431.16 378.007 431.083 373.096 431.034 372.722C430.347 367.416 425.899 357.567 420.007 356.477C415.762 355.693 412.167 359.018 411.829 363.146C411.485 367.363 414.539 371.581 417.521 374.245C420.883 377.247 430.213 380.154 430.957 380.384C429.293 385.583 428.01 391.054 427.015 396.661C426.443 399.867 425.966 403.113 425.531 406.375C425.508 404.856 425.478 403.498 425.452 403.309C424.765 398.002 420.317 388.154 414.425 387.066C410.18 386.28 406.586 389.608 406.247 393.735C405.901 397.951 408.959 402.17 411.939 404.832C414.963 407.533 422.867 410.173 424.968 410.843C424.814 412.095 424.646 413.344 424.496 414.599C423.777 420.612 423.086 426.615 422.228 432.484C421.927 434.553 421.554 436.578 421.188 438.604C421.167 437.257 421.137 436.122 421.115 435.95C420.427 430.642 415.98 420.795 410.089 419.705C405.843 418.921 402.248 422.246 401.909 426.375C401.564 430.589 404.622 434.811 407.602 437.473C410.487 440.05 417.762 442.552 420.255 443.36C419.818 445.426 419.383 447.495 418.866 449.478C418.482 450.823 418.208 452.145 417.748 453.475C417.319 454.799 416.895 456.114 416.476 457.413C415.575 459.888 414.662 462.446 413.724 464.837C413.084 466.506 412.442 468.084 411.802 469.675C412.126 467.62 412.675 463.583 412.684 463.241C412.766 459.686 411.504 453.908 408.991 449.846C409.007 449.321 408.977 448.799 408.894 448.279C408.236 444.19 404.396 441.152 400.222 442.263C394.432 443.806 390.76 453.97 390.487 459.312C390.47 459.627 390.677 463.067 390.842 465.236C390.549 463.976 390.283 462.749 389.967 461.458C389.359 458.897 388.677 456.36 387.955 453.626C387.56 452.318 387.16 450.998 386.756 449.663C386.384 448.333 385.821 446.973 385.357 445.614C384.212 442.484 382.898 439.365 381.506 436.254C383.748 435.717 391.679 433.695 394.863 431.25C398.035 428.818 401.396 424.837 401.366 420.608C401.337 416.465 398.001 412.881 393.709 413.347C387.751 413.993 382.581 423.483 381.5 428.724C381.434 429.052 381.08 432.899 380.927 435.015C380.076 433.153 379.236 431.288 378.312 429.43C375.65 424.067 372.789 418.723 369.956 413.378C369.088 411.742 368.243 410.102 367.391 408.462C368.19 408.279 377.67 406.08 381.238 403.343C384.408 400.911 387.771 396.93 387.741 392.7C387.71 388.559 384.374 384.973 380.082 385.441C374.125 386.087 368.956 395.576 367.873 400.817C367.793 401.212 367.293 406.748 367.234 408.162C365.357 404.552 363.522 400.935 361.856 397.295C359.551 392.277 357.567 387.227 356.007 382.192C356.38 382.108 366.283 379.855 369.937 377.054C373.108 374.621 376.47 370.64 376.44 366.411C376.411 362.27 373.073 358.685 368.781 359.151C362.825 359.798 357.655 369.288 356.574 374.528C356.49 374.939 355.955 380.897 355.936 381.981C355.843 381.683 355.714 381.383 355.625 381.083C354.029 375.686 353.158 370.257 352.593 365.134C352.259 362.159 352.107 359.297 352.02 356.507C353.907 356.277 362.523 355.13 366.089 352.97C369.508 350.9 373.289 347.314 373.722 343.107C374.147 338.987 371.224 335.057 366.908 335.05C360.915 335.038 354.735 343.904 353.085 348.993C352.994 349.27 352.394 352.185 351.987 354.314C351.967 353.054 351.923 351.755 351.928 350.549C351.936 346.018 352.223 341.868 352.505 338.197C352.684 336.109 352.886 334.226 353.094 332.466C354.828 331.274 361.757 326.382 363.889 322.886C365.97 319.473 367.671 314.549 366.118 310.614C364.597 306.762 360.192 304.622 356.358 306.604C351.035 309.355 349.635 320.071 350.514 325.349C350.591 325.804 352.602 332.801 352.693 332.74C352.693 332.74 352.779 332.683 352.798 332.668C352.563 334.357 352.332 336.173 352.12 338.161C351.755 341.834 351.377 345.987 351.271 350.537C351.152 355.082 351.152 360.024 351.621 365.229C352.084 370.446 352.837 375.912 354.343 381.442C354.36 381.505 354.386 381.567 354.403 381.63C353.46 380.149 350.685 376.096 350.437 375.809C346.937 371.762 337.794 366.002 332.278 368.344C328.305 370.032 327.141 374.789 329.136 378.419C331.178 382.125 336.055 383.956 340.009 384.533Z" fill="#263238"/>
<path d="M442.761 356.383C442.854 356.441 444.674 349.393 444.738 348.935C445.475 343.637 443.786 332.962 438.39 330.355C434.504 328.478 430.157 330.737 428.743 334.629C427.296 338.603 429.129 343.48 431.302 346.836C433.851 350.775 442.754 356.379 442.761 356.383Z" fill="#263238"/>
<path d="M185.314 69.2148H26.9688V274.683H185.314V69.2148Z" stroke="#263238" stroke-miterlimit="10"/>
<path d="M180.821 75.043H31.4609V268.853H180.821V75.043Z" stroke="#263238" stroke-miterlimit="10"/>
<path d="M143.371 123.635H68.9062V220.261H143.371V123.635Z" stroke="#263238" stroke-miterlimit="10"/>
<path d="M339.086 145.225L342.403 121.71C348.882 117.715 354.878 113.366 360.389 108.667C365.896 103.968 370.469 98.7906 374.099 93.133C377.73 87.4778 380.015 81.3146 380.954 74.6492C381.685 69.4648 381.081 65.2568 379.146 62.0253C377.209 58.7962 374.02 56.8649 369.575 56.2376C365.624 55.6802 362.35 56.3508 359.755 58.2519C357.156 60.1519 355.589 63.0162 355.05 66.8425C354.806 68.5714 354.766 70.2016 354.927 71.7343C355.089 73.2682 355.293 74.9346 355.545 76.7321L331.88 78.4936C331.363 75.9038 331.059 73.373 330.968 70.906C330.873 68.4378 331.003 65.972 331.351 63.5014C332.813 53.1313 337.155 45.3113 344.385 40.0342C351.611 34.7607 361.152 32.9571 373.002 34.6283C385.098 36.3343 394.019 40.93 399.762 48.4116C405.505 55.8957 407.523 65.6842 405.817 77.7808C404.703 85.6815 402.287 92.7682 398.569 99.0411C394.852 105.316 390.052 110.998 384.175 116.084C378.293 121.173 371.648 125.901 364.234 130.268L361.676 148.413L339.086 145.225ZM332.728 183.608L336.201 158.981L361.012 162.48L357.539 187.106L332.728 183.608Z" stroke="#263238" stroke-miterlimit="10"/>
<path d="M206.499 246.83C206.499 246.83 129.207 247.861 126.802 253.357C124.397 258.853 113.405 325.497 112.717 348.513C112.03 371.528 111.687 386.643 114.091 389.392C116.495 392.141 153.94 413.783 153.94 413.783C153.94 413.783 136.42 475.273 141.917 477.335C147.413 479.396 181.078 487.984 202.72 488.327C224.362 488.67 245.661 488.67 247.377 488.67C249.096 488.67 304.402 490.732 323.639 486.266C342.876 481.8 348.716 481.456 348.716 473.9C348.716 466.342 343.907 457.067 343.563 455.35C343.219 453.632 356.616 323.437 349.059 291.49C341.501 259.543 331.539 247.176 323.982 245.114C316.424 243.053 262.491 244.427 262.491 244.427L206.499 246.83Z" fill="#01DFB8" stroke="#263238" stroke-miterlimit="10" stroke-linecap="round" stroke-linejoin="round"/>
<path d="M247.664 274.471C245.122 275.947 242.439 277.315 239.625 278.513" stroke="#263238" stroke-miterlimit="10" stroke-linecap="round" stroke-linejoin="round"/>
<path d="M276.306 248.5C276.306 248.5 266.921 262.025 251.297 272.23" stroke="#263238" stroke-miterlimit="10" stroke-linecap="round" stroke-linejoin="round"/>
<path d="M271.722 262.258C271.722 262.258 264.636 272.262 258.383 275.597" stroke="#263238" stroke-miterlimit="10" stroke-linecap="round" stroke-linejoin="round"/>
<path d="M222.611 372.319L220.586 366.031" stroke="#263238" stroke-miterlimit="10" stroke-linecap="round" stroke-linejoin="round"/>
<path d="M233.634 406.569L224.68 378.76" stroke="#263238" stroke-miterlimit="10" stroke-linecap="round" stroke-linejoin="round"/>
<path d="M236.383 407.254L245.314 393.17" stroke="#263238" stroke-miterlimit="10" stroke-linecap="round" stroke-linejoin="round"/>
<path d="M256.656 399.012L278.298 374.621" stroke="#263238" stroke-miterlimit="10" stroke-linecap="round" stroke-linejoin="round"/>
<path d="M200.797 475.094L247.378 488.669" stroke="#263238" stroke-miterlimit="10" stroke-linecap="round" stroke-linejoin="round"/>
<path d="M187.266 471.148L195.264 473.479" stroke="#263238" stroke-miterlimit="10" stroke-linecap="round" stroke-linejoin="round"/>
<path d="M206.021 94.0477C206.021 94.0477 181.749 88.472 177.156 94.7039C172.564 100.936 181.749 106.84 180.436 108.153C179.124 109.465 150.915 123.897 153.211 138.001C155.507 152.106 174.532 166.538 175.188 170.474C175.844 174.41 153.211 175.722 150.259 181.627C147.307 187.531 143.044 215.411 167.644 224.595C192.244 233.779 223.077 218.363 231.605 218.363C240.133 218.363 248.661 235.091 258.501 234.108C268.341 233.124 273.917 225.907 273.917 225.907C273.917 225.907 284.085 240.011 298.846 234.108C313.606 228.203 330.663 207.539 323.446 201.307C316.23 195.075 308.03 193.107 313.278 187.531C318.527 181.955 329.35 167.194 327.711 154.402C326.071 141.609 310.982 140.626 305.078 136.69C299.173 132.754 311.638 126.193 311.31 115.369C310.982 104.545 303.109 86.5046 263.093 74.3683C223.076 62.232 203.395 68.1364 201.428 78.3042C199.461 88.472 206.021 94.0477 206.021 94.0477Z" fill="#263238" stroke="#263238" stroke-miterlimit="10" stroke-linecap="round" stroke-linejoin="round"/>
<path d="M210.385 199.286C210.385 199.286 202.184 250.455 201.857 252.094C201.529 253.734 216.289 268.495 236.297 265.871C256.305 263.247 266.474 249.798 266.474 249.798L260.243 198.957C260.243 198.957 243.187 207.157 232.69 206.829C222.194 206.501 210.385 199.286 210.385 199.286Z" fill="white" stroke="#263238" stroke-miterlimit="10" stroke-linecap="round" stroke-linejoin="round"/>
<path d="M207.016 226.74L241.55 220.056L210.381 199.287L207.016 226.74Z" fill="#263238" stroke="#263238" stroke-miterlimit="10" stroke-linecap="round" stroke-linejoin="round"/>
<path d="M192.156 154.173C192.156 154.173 186.378 146.854 183.681 156.1C180.984 165.345 192.542 176.516 192.542 176.516L192.156 154.173Z" fill="white" stroke="#263238" stroke-miterlimit="10" stroke-linecap="round" stroke-linejoin="round"/>
<path d="M274.956 154.173C274.956 154.173 280.734 146.854 283.431 156.1C286.128 165.345 274.57 176.516 274.57 176.516L274.956 154.173Z" fill="white" stroke="#263238" stroke-miterlimit="10" stroke-linecap="round" stroke-linejoin="round"/>
<path d="M210.312 107.917C210.312 107.917 193.772 123.978 191.373 128.773C188.976 133.567 189.935 188.465 192.571 193.738C195.208 199.012 221.578 219.629 225.893 221.306C230.208 222.985 240.037 224.662 247.709 220.827C255.38 216.992 273.839 197.335 275.757 192.299C277.675 187.265 275.278 129.731 274.079 124.218C272.879 118.705 243.874 99.0472 231.647 98.0876C219.422 97.1292 210.312 107.917 210.312 107.917Z" fill="white" stroke="#263238" stroke-miterlimit="10" stroke-linecap="round" stroke-linejoin="round"/>
<path d="M223.317 98.0946C223.317 98.0946 248.095 120.7 265.918 121.569C283.741 122.438 283.741 122.438 283.741 122.438C283.741 122.438 244.617 117.221 232.445 90.7045C232.445 90.7045 218.97 79.4025 223.317 98.0946Z" fill="#263238" stroke="#263238" stroke-miterlimit="10" stroke-linecap="round" stroke-linejoin="round"/>
<path d="M237.164 142.918L239.082 167.129" stroke="#263238" stroke-miterlimit="10" stroke-linecap="round" stroke-linejoin="round"/>
<path d="M241 172.164C241 172.164 236.685 178.637 233.569 178.637C230.453 178.637 227.336 175.04 227.336 175.04" stroke="#263238" stroke-miterlimit="10" stroke-linecap="round" stroke-linejoin="round"/>
<path d="M214.867 180.074C214.867 180.074 220.38 189.184 227.573 189.663C234.764 190.142 242.436 187.985 242.436 187.985" stroke="#263238" stroke-miterlimit="10" stroke-linecap="round" stroke-linejoin="round"/>
<path d="M240.038 139.081C240.038 139.081 248.429 132.848 251.784 130.69C255.14 128.533 265.928 132.608 265.928 132.608C265.928 132.608 257.777 128.053 253.463 127.335C249.147 126.616 240.278 132.848 239.559 135.725C238.839 138.602 236.681 137.882 240.038 139.081Z" fill="#263238" stroke="#263238" stroke-miterlimit="10" stroke-linecap="round" stroke-linejoin="round"/>
<path d="M222.776 140.23C222.776 140.23 221.578 136.874 217.503 136.634C213.427 136.394 195.448 141.188 198.564 141.188C201.68 141.188 214.625 140.949 217.982 140.949C221.338 140.949 222.776 140.23 222.776 140.23Z" fill="#263238" stroke="#263238" stroke-miterlimit="10" stroke-linecap="round" stroke-linejoin="round"/>
<path d="M264.013 153.943C264.013 153.943 257.78 155.382 252.986 155.143C248.191 154.903 243.876 153.464 245.794 155.622C247.712 157.779 251.548 159.697 257.541 158.498C263.534 157.3 265.692 156.101 264.013 153.943Z" fill="#263238"/>
<path d="M220.623 153.943C220.623 153.943 214.39 155.382 209.595 155.143C204.801 154.903 200.486 153.464 202.404 155.622C204.322 157.779 208.158 159.697 214.15 158.498C220.143 157.3 222.301 156.101 220.623 153.943Z" fill="#263238"/>
<path d="M140.844 292.113C140.844 292.113 148.059 252.424 151.34 248.488C154.62 244.552 190.373 215.36 192.341 213.392C194.31 211.423 208.413 190.103 209.07 192.727C209.726 195.352 207.43 206.832 203.165 213.064C198.901 219.296 192.997 226.84 192.997 226.84C192.997 226.84 214.974 232.416 216.286 233.728C217.599 235.041 225.067 251.374 225.471 253.409C226.166 256.921 225.16 260.692 222.191 260.953C219.496 261.19 201.854 252.097 201.854 252.097L187.75 254.065C187.75 254.065 177.583 266.529 170.693 268.825C163.805 271.121 161.182 271.45 161.182 271.45L161.51 295.722L140.844 292.113Z" fill="white" stroke="#263238" stroke-miterlimit="10" stroke-linecap="round" stroke-linejoin="round"/>
<path d="M194.055 234.33C194.055 234.33 213.206 236.899 214.372 237.834C215.54 238.768 225.467 253.407 225.467 253.407" stroke="#263238" stroke-miterlimit="10" stroke-linecap="round" stroke-linejoin="round"/>
<path d="M195.367 243.055C195.367 243.055 214.378 247.41 215.78 248.577C217.181 249.745 224.654 258.386 224.654 258.386" stroke="#263238" stroke-miterlimit="10" stroke-linecap="round" stroke-linejoin="round"/>
<path d="M225.052 410.346C225.052 410.346 199.288 405.536 198.257 405.193C197.226 404.85 179.019 399.354 176.615 398.323C174.211 397.293 145.011 392.14 143.637 394.201C142.264 396.262 140.889 408.285 140.546 409.316C140.202 410.346 137.454 415.155 138.141 417.904C138.829 420.653 138.141 425.461 138.141 425.461C138.141 425.461 137.798 441.607 141.921 441.95C146.043 442.293 149.821 426.835 149.821 426.835C149.821 426.835 155.661 430.27 167.685 430.958C179.709 431.645 191.388 425.805 191.388 425.805L223.336 433.362L225.052 410.346Z" fill="white" stroke="#263238" stroke-miterlimit="10" stroke-linecap="round" stroke-linejoin="round"/>
<path d="M135.94 285.105L170.524 291.424L169.193 313.038C169.193 313.038 176.841 316.696 179.17 337.978C181.497 359.26 188.148 408.689 186.485 412.347C184.823 416.004 174.514 431.966 150.571 432.964C126.628 433.962 113.66 412.014 111.332 405.031C109.004 398.048 121.308 352.278 121.973 348.287C122.637 344.295 125.963 317.028 128.956 312.372C131.949 307.717 135.607 304.725 135.607 304.725L135.94 285.105Z" fill="#01DFB8" stroke="#263238" stroke-miterlimit="10" stroke-linecap="round" stroke-linejoin="round"/>
<path d="M157.43 310.01C159.395 310.24 161.344 310.377 163.205 310.377" stroke="#263238" stroke-miterlimit="10" stroke-linecap="round" stroke-linejoin="round"/>
<path d="M135.609 304.725C135.609 304.725 141.787 306.959 149.351 308.62" stroke="#263238" stroke-miterlimit="10" stroke-linecap="round" stroke-linejoin="round"/>
<path d="M326.045 295.952L322.61 384.581C322.61 384.581 318.832 384.924 317.457 386.642C316.083 388.36 315.052 390.421 315.052 390.421C315.052 390.421 280.357 391.795 263.868 396.605C247.379 401.414 236.387 407.254 236.387 407.254L221.272 406.911L218.18 446.76L238.448 447.447C238.448 447.447 248.41 453.287 293.755 457.409C339.1 461.532 360.054 462.562 364.864 457.066C369.674 451.57 371.734 442.982 372.422 438.516C373.109 434.05 381.353 406.568 381.353 366.72C381.353 326.872 343.909 269.16 335.665 256.107C327.42 243.053 318.832 244.083 312.992 245.457" fill="#01DFB8"/>
<path d="M326.045 295.952L322.61 384.581C322.61 384.581 318.832 384.924 317.457 386.642C316.083 388.36 315.052 390.421 315.052 390.421C315.052 390.421 280.357 391.795 263.868 396.605C247.379 401.414 236.387 407.254 236.387 407.254L221.272 406.911L218.18 446.76L238.448 447.447C238.448 447.447 248.41 453.287 293.755 457.409C339.1 461.532 360.054 462.562 364.864 457.066C369.674 451.57 371.734 442.982 372.422 438.516C373.109 434.05 381.353 406.568 381.353 366.72C381.353 326.872 343.909 269.16 335.665 256.107C327.42 243.053 318.832 244.083 312.992 245.457" stroke="#263238" stroke-miterlimit="10" stroke-linecap="round" stroke-linejoin="round"/>
<path d="M343.689 378.469L322.609 384.581L342.534 366.031" stroke="#263238" stroke-miterlimit="10" stroke-linecap="round" stroke-linejoin="round"/>
<path d="M356.963 374.617L350.297 376.551" stroke="#263238" stroke-miterlimit="10" stroke-linecap="round" stroke-linejoin="round"/>
<path d="M315.055 390.422C315.055 390.422 337.04 392.139 345.972 395.575" stroke="#263238" stroke-miterlimit="10" stroke-linecap="round" stroke-linejoin="round"/>
<path d="M349.164 409.994C350.195 411.069 351.195 412.216 352.148 413.438" stroke="#263238" stroke-miterlimit="10" stroke-linecap="round" stroke-linejoin="round"/>
<path d="M323.984 395.23C323.984 395.23 334.953 397.862 344.97 406.109" stroke="#263238" stroke-miterlimit="10" stroke-linecap="round" stroke-linejoin="round"/>
<path d="M236.039 411.033L236.382 444.355" stroke="#263238" stroke-miterlimit="10" stroke-linecap="round" stroke-linejoin="round"/>
<path d="M219.555 436.109H233.983" stroke="#263238" stroke-miterlimit="10" stroke-linecap="round" stroke-linejoin="round"/>
<path d="M222.984 416.528L228.825 416.184" stroke="#263238" stroke-miterlimit="10" stroke-linecap="round" stroke-linejoin="round"/>
</svg>
