<?xml version="1.0" encoding="UTF-8"?> <svg xmlns="http://www.w3.org/2000/svg" width="550" height="283" viewBox="0 0 550 283" fill="none"><g clip-path="url(#clip0_299_2)"><rect width="550" height="283" fill="#3D4886"></rect><rect width="550" height="283" fill="url(#paint0_linear_299_2)"></rect><path d="M40.5962 27.2383H42.296C44.1442 27.2383 45.6409 28.7764 45.6409 30.6759V35.9863C44.1023 35.6217 42.4476 35.6217 40.5962 36.1886V27.2383Z" fill="#01B5D0"></path><path d="M40.5962 27.2383H42.296C44.1442 27.2383 45.6409 28.7764 45.6409 30.6759V32.0184C44.1023 31.6538 42.4476 35.6217 40.5962 36.1886V27.2383Z" fill="white" fill-opacity="0.25"></path><path d="M46.115 32.3438H47.4987C49.3469 32.3438 50.8436 33.8819 50.8436 35.7813V39.3913C50.1339 38.4598 47.9277 36.3548 46.115 36.1095V32.3438Z" fill="#01DFB8"></path><path fill-rule="evenodd" clip-rule="evenodd" d="M35 24H36.6998C38.548 24 40.0447 25.5381 40.0447 27.4376V37.011C41.1155 36.5105 42.3025 36.232 43.5508 36.232C48.2729 36.232 52.1015 40.2033 52.1015 45.1028C52.1015 50.0022 48.2761 53.9702 43.5508 53.9702C38.8416 53.9702 35.0226 50.0221 35 45.1425V45.1127V45.1028V45.0928V24ZM43.5508 50.1646C46.2699 50.1646 48.4761 47.8972 48.4761 45.1028C48.4761 42.3083 46.2699 40.0409 43.5508 40.0409C40.8317 40.0409 38.6254 42.3083 38.6254 45.1028C38.6254 47.8972 40.8317 50.1646 43.5508 50.1646Z" fill="url(#paint1_linear_299_2)"></path><path d="M59.2202 50.3077V40.1641H62.0522C62.6812 40.1641 63.2069 40.2204 63.6262 40.3298C64.0488 40.4392 64.3842 40.595 64.6358 40.7939C64.8874 40.9928 65.068 41.2248 65.1809 41.4867C65.2906 41.7519 65.3486 42.0304 65.3486 42.3287V43.2668C65.3486 43.5254 65.3067 43.7641 65.2261 43.9828C65.1422 44.2016 65.0132 44.3972 64.8358 44.563C64.6552 44.732 64.4229 44.8712 64.1326 44.9806C64.5003 45.09 64.8035 45.2326 65.0454 45.4049C65.2874 45.5806 65.468 45.7828 65.5906 46.0182C65.7099 46.2536 65.7712 46.5121 65.7712 46.8005V48.0668C65.7712 48.4746 65.6712 48.8491 65.468 49.1873C65.2648 49.5254 64.9229 49.7972 64.4455 49.9994C63.9681 50.2049 63.3101 50.3044 62.478 50.3044H59.2202V50.3077ZM60.6298 41.374V44.5364H62.1522C62.5586 44.5364 62.894 44.4834 63.1521 44.3806C63.4133 44.2746 63.6101 44.1287 63.7391 43.9398C63.8681 43.7508 63.9359 43.5188 63.9359 43.2403V42.5541C63.9359 42.2757 63.8714 42.0536 63.7391 41.8845C63.6101 41.7154 63.4037 41.5895 63.1231 41.5033C62.8424 41.4204 62.4844 41.3773 62.049 41.3773H60.6298V41.374ZM60.6298 45.6701V49.1011H62.4747C62.9102 49.1011 63.265 49.0514 63.5424 48.9519C63.8165 48.8525 64.023 48.7066 64.1584 48.511C64.2939 48.3154 64.3616 48.0867 64.3616 47.8182V46.9066C64.3616 46.658 64.2939 46.4425 64.1584 46.2569C64.023 46.0746 63.8165 45.9287 63.5424 45.8259C63.265 45.7199 62.9102 45.6701 62.4747 45.6701H60.6298Z" fill="white"></path><path d="M69.2643 46.2967V50.3077H67.858V40.1641H71.0642C71.6931 40.1641 72.2189 40.227 72.6382 40.3497C73.0575 40.4757 73.3962 40.6447 73.6478 40.8569C73.8994 41.0723 74.08 41.3143 74.1929 41.5862C74.3026 41.8613 74.3606 42.1497 74.3606 42.458V44.0094C74.3606 44.4072 74.2574 44.7817 74.0542 45.1298C73.851 45.4779 73.5091 45.7596 73.0317 45.9718C72.5511 46.1873 71.8963 46.2933 71.0642 46.2933H69.2643V46.2967ZM69.2643 41.4038V45.0569H71.0642C71.4996 45.0569 71.8576 45.0038 72.1383 44.9011C72.4189 44.795 72.6253 44.6458 72.7543 44.4536C72.8833 44.2613 72.9511 44.0293 72.9511 43.7607V42.7C72.9511 42.5011 72.9156 42.3221 72.8414 42.163C72.7704 42.0038 72.6543 41.8679 72.4995 41.7519C72.3447 41.6392 72.1479 41.5497 71.9125 41.49C71.6738 41.4304 71.3932 41.4005 71.0642 41.4005H69.2643V41.4038ZM74.5348 50.3077H72.9801L71.0513 45.8624L72.5447 45.8458L74.5348 50.3077Z" fill="white"></path><path d="M77.9732 40.1641V50.3077H76.5669V40.1641H77.9732Z" fill="white"></path><path d="M81.9212 40.1641V49.0712H85.9143V50.3077H80.502V40.1641H81.9212Z" fill="white"></path><path d="M89.8752 47.7121L91.7331 40.1641H93.0684L94.8812 47.6956L96.7229 40.1641H98.0454L95.5488 50.3077H94.1554L92.3427 42.8491L90.4977 50.3077H89.1172L86.6078 40.1641H88.0593L89.8752 47.7121Z" fill="white"></path><path d="M99.542 42.3418C99.542 42.0335 99.5968 41.7418 99.7097 41.47C99.8194 41.1981 100.003 40.9528 100.261 40.7407C100.516 40.5285 100.858 40.3595 101.277 40.2335C101.7 40.1108 102.219 40.0479 102.838 40.0479C103.458 40.0479 103.98 40.1108 104.406 40.2335C104.832 40.3595 105.174 40.5285 105.429 40.7407C105.683 40.9561 105.867 41.1981 105.98 41.47C106.09 41.7451 106.148 42.0335 106.148 42.3418V48.1296C106.148 48.4379 106.093 48.7296 105.98 49.0014C105.867 49.2766 105.683 49.5186 105.429 49.7307C105.17 49.9462 104.832 50.1153 104.406 50.2379C103.98 50.3606 103.458 50.4235 102.838 50.4235C102.219 50.4235 101.7 50.3606 101.277 50.2379C100.858 50.1153 100.516 49.9462 100.261 49.7307C100.003 49.5186 99.8194 49.2733 99.7097 49.0014C99.5968 48.7296 99.542 48.4379 99.542 48.1296V42.3418ZM104.725 42.5804C104.725 42.3816 104.69 42.2025 104.616 42.0434C104.545 41.8843 104.429 41.7484 104.274 41.6324C104.119 41.5197 103.922 41.4302 103.687 41.3705C103.448 41.3108 103.167 41.281 102.838 41.281C102.519 41.281 102.242 41.3108 102.003 41.3705C101.764 41.4302 101.571 41.5164 101.416 41.6324C101.261 41.7484 101.148 41.8843 101.074 42.0434C101.003 42.2025 100.964 42.3816 100.964 42.5804V47.8909C100.964 48.0898 101 48.2688 101.074 48.428C101.145 48.5871 101.261 48.723 101.416 48.839C101.571 48.955 101.768 49.0412 102.003 49.1009C102.239 49.1606 102.519 49.1904 102.838 49.1904C103.167 49.1904 103.451 49.1606 103.687 49.1009C103.922 49.0412 104.119 48.955 104.274 48.839C104.429 48.7263 104.541 48.5871 104.616 48.428C104.687 48.2688 104.725 48.0898 104.725 47.8909V42.5804Z" fill="white"></path><path d="M109.922 46.2967V50.3077H108.515V40.1641H111.722C112.35 40.1641 112.876 40.227 113.296 40.3497C113.715 40.4757 114.054 40.6447 114.305 40.8569C114.557 41.0723 114.737 41.3143 114.85 41.5862C114.96 41.8613 115.018 42.1497 115.018 42.458V44.0094C115.018 44.4072 114.915 44.7817 114.712 45.1298C114.508 45.4779 114.166 45.7596 113.689 45.9718C113.208 46.1873 112.554 46.2933 111.722 46.2933H109.922V46.2967ZM109.922 41.4038V45.0569H111.722C112.157 45.0569 112.515 45.0038 112.796 44.9011C113.076 44.795 113.283 44.6458 113.412 44.4536C113.541 44.2613 113.608 44.0293 113.608 43.7607V42.7C113.608 42.5011 113.573 42.3221 113.499 42.163C113.428 42.0038 113.312 41.8679 113.157 41.7519C113.002 41.6392 112.805 41.5497 112.57 41.49C112.331 41.4304 112.051 41.4005 111.722 41.4005H109.922V41.4038ZM115.189 50.3077H113.637L111.709 45.8624L113.202 45.8458L115.189 50.3077Z" fill="white"></path><path d="M124.188 50.3077H122.388L118.95 45.8027H118.643V50.3077H117.221V40.1641H118.643V44.7121H118.934L122.127 40.1641H123.765L120.182 45.1464L124.188 50.3077Z" fill="white"></path><path d="M130.094 43.1333V42.5366C130.094 42.3377 130.062 42.1587 130 41.9996C129.936 41.8405 129.836 41.7079 129.694 41.5985C129.552 41.4891 129.371 41.4062 129.149 41.3532C128.926 41.3001 128.655 41.2703 128.336 41.2703C128.017 41.2703 127.746 41.2968 127.523 41.3532C127.301 41.4095 127.12 41.4891 126.978 41.5985C126.836 41.7079 126.736 41.8438 126.675 41.9996C126.61 42.1587 126.581 42.3377 126.581 42.5366V42.8349C126.581 43.0637 126.623 43.2427 126.704 43.3719C126.784 43.5012 126.881 43.6007 126.994 43.6703C127.104 43.7399 127.213 43.7963 127.32 43.836L129.962 44.8637C130.252 44.973 130.516 45.1189 130.762 45.2946C131.003 45.4736 131.197 45.6924 131.342 45.951C131.487 46.2095 131.561 46.5244 131.561 46.8924V48.1289C131.561 48.4371 131.507 48.7289 131.394 49.0007C131.281 49.2758 131.1 49.5178 130.849 49.73C130.597 49.9454 130.262 50.1145 129.845 50.2371C129.429 50.3598 128.917 50.4228 128.307 50.4228C127.697 50.4228 127.184 50.3598 126.768 50.2371C126.352 50.1145 126.017 49.9454 125.768 49.73C125.517 49.5178 125.333 49.2725 125.217 49.0007C125.101 48.7289 125.043 48.4371 125.043 48.1289V47.1145H126.436V47.9366C126.436 48.1355 126.472 48.3145 126.546 48.4736C126.617 48.6327 126.73 48.7686 126.881 48.8747C127.03 48.9841 127.223 49.067 127.455 49.12C127.688 49.1764 127.968 49.2029 128.297 49.2029C128.626 49.2029 128.91 49.1764 129.146 49.12C129.381 49.067 129.575 48.9841 129.726 48.8747C129.875 48.7653 129.987 48.6327 130.058 48.4736C130.129 48.3145 130.168 48.1355 130.168 47.9366V47.2338C130.168 46.9852 130.104 46.783 129.981 46.6305C129.855 46.478 129.697 46.3554 129.51 46.2659C129.32 46.1764 129.136 46.0935 128.952 46.0139L126.501 45.046C126.288 44.9664 126.081 44.8405 125.885 44.6648C125.685 44.4924 125.523 44.2802 125.398 44.0316C125.272 43.783 125.207 43.5045 125.207 43.1963V42.3476C125.207 42.0393 125.259 41.7476 125.368 41.4758C125.475 41.204 125.646 40.9587 125.885 40.7465C126.12 40.5344 126.439 40.3653 126.843 40.2393C127.243 40.1167 127.739 40.0537 128.329 40.0537C128.92 40.0537 129.42 40.1167 129.826 40.2393C130.233 40.3653 130.555 40.5344 130.797 40.7465C131.039 40.962 131.213 41.204 131.32 41.4758C131.426 41.7509 131.481 42.0393 131.481 42.3476V43.1366H130.094V43.1333Z" fill="white"></path><g clip-path="url(#clip1_299_2)"><path fill-rule="evenodd" clip-rule="evenodd" d="M438.924 183.475V130.467C438.924 129.56 438.564 128.691 437.923 128.05C437.282 127.409 436.412 127.049 435.506 127.049H382.56V72.333H490.161C490.61 72.3329 491.055 72.4213 491.47 72.593C491.884 72.7648 492.261 73.0165 492.579 73.334C492.896 73.6514 493.148 74.0282 493.32 74.443C493.492 74.8578 493.58 75.3023 493.58 75.7513V183.475H438.924Z" fill="#8E75FF"></path><path opacity="0.405" fill-rule="evenodd" clip-rule="evenodd" d="M382.56 72.333V127.049H332.027C331.689 127.049 331.359 126.949 331.078 126.761C330.797 126.573 330.578 126.306 330.448 125.994C330.319 125.682 330.285 125.338 330.351 125.007C330.416 124.675 330.579 124.371 330.818 124.132L382.56 72.333ZM438.924 234.061V183.475H493.58L441.842 235.269C441.603 235.508 441.299 235.67 440.967 235.736C440.636 235.802 440.292 235.768 439.98 235.639C439.668 235.51 439.401 235.291 439.213 235.01C439.025 234.729 438.924 234.399 438.924 234.061ZM382.56 127.049H437.215C437.668 127.049 438.103 127.229 438.423 127.55C438.744 127.87 438.924 128.305 438.924 128.758V183.475H385.978C385.529 183.475 385.085 183.386 384.67 183.214C384.255 183.043 383.878 182.791 383.561 182.474C383.244 182.156 382.992 181.779 382.82 181.365C382.648 180.95 382.56 180.505 382.56 180.056V127.049Z" fill="#8E75FF"></path></g><g opacity="0.24"><path fill-rule="evenodd" clip-rule="evenodd" d="M76.4657 245.721L39.9961 245.721C39.3725 245.721 38.7744 245.473 38.3335 245.032C37.8925 244.591 37.6448 243.993 37.6448 243.369L37.6448 206.942L4.5624e-08 206.942L-3.19033e-06 280.972C-6.40429e-05 281.281 0.0607218 281.587 0.178883 281.873C0.297044 282.158 0.470266 282.417 0.688655 282.636C0.907045 282.854 1.16632 283.027 1.45169 283.146C1.73705 283.264 2.0429 283.325 2.35178 283.325L76.4657 283.325L76.4657 245.721Z" fill="#8E75FF"></path><path opacity="0.405" fill-rule="evenodd" clip-rule="evenodd" d="M-1.5711e-06 206.943L37.6448 206.943L37.6448 172.176C37.6447 171.943 37.5758 171.716 37.4466 171.523C37.3174 171.329 37.1338 171.179 36.919 171.09C36.7042 171.001 36.4679 170.977 36.2398 171.022C36.0117 171.068 35.8022 171.18 35.6377 171.344L-1.5711e-06 206.943ZM111.269 245.721L76.4657 245.721L76.4657 283.325L112.1 247.729C112.265 247.565 112.376 247.355 112.422 247.127C112.467 246.899 112.444 246.663 112.355 246.448C112.266 246.233 112.115 246.049 111.922 245.92C111.729 245.791 111.502 245.722 111.269 245.721ZM37.6448 206.943L37.6448 244.545C37.6448 244.857 37.7686 245.156 37.9891 245.377C38.2096 245.597 38.5086 245.721 38.8205 245.721L76.4657 245.721L76.4657 209.294C76.4657 208.986 76.4049 208.68 76.2867 208.394C76.1685 208.109 75.9953 207.85 75.7769 207.631C75.5585 207.413 75.2993 207.24 75.0139 207.122C74.7286 207.003 74.4228 206.943 74.1139 206.943L37.6448 206.943Z" fill="#8E75FF"></path></g><path d="M44.5942 116.242C43.3858 116.242 42.2661 116.024 41.235 115.589C40.2039 115.138 39.3017 114.518 38.5283 113.728C37.7711 112.939 37.1831 112.021 36.7642 110.973C36.3453 109.926 36.1358 108.806 36.1358 107.614C36.1358 106.406 36.3453 105.278 36.7642 104.231C37.1831 103.184 37.7711 102.273 38.5283 101.5C39.3017 100.711 40.1958 100.098 41.2108 99.6633C42.2419 99.2122 43.3617 98.9867 44.57 98.9867C45.8911 98.9867 47.0511 99.2122 48.05 99.6633C49.0489 100.114 49.935 100.727 50.7083 101.5L49.1375 103.071C48.6058 102.475 47.9533 102.007 47.18 101.669C46.4228 101.331 45.5528 101.162 44.57 101.162C43.6839 101.162 42.8703 101.323 42.1292 101.645C41.3881 101.951 40.7436 102.394 40.1958 102.974C39.6481 103.554 39.2211 104.239 38.915 105.028C38.625 105.818 38.48 106.68 38.48 107.614C38.48 108.549 38.625 109.411 38.915 110.2C39.2211 110.989 39.6481 111.674 40.1958 112.254C40.7436 112.834 41.3881 113.285 42.1292 113.607C42.8703 113.914 43.6839 114.067 44.57 114.067C45.6172 114.067 46.5275 113.897 47.3008 113.559C48.0742 113.205 48.7267 112.729 49.2583 112.133L50.8292 113.68C50.0558 114.486 49.1456 115.114 48.0983 115.565C47.0672 116.016 45.8992 116.242 44.5942 116.242ZM61.8365 116V109.306C61.8365 108.436 61.5626 107.719 61.0149 107.155C60.4671 106.591 59.7582 106.309 58.8882 106.309C58.3082 106.309 57.7926 106.438 57.3415 106.696C56.8904 106.954 56.536 107.308 56.2782 107.759C56.0204 108.21 55.8915 108.726 55.8915 109.306L54.9974 108.798C54.9974 107.928 55.1907 107.155 55.5774 106.478C55.964 105.802 56.5037 105.27 57.1965 104.883C57.8893 104.481 58.6707 104.279 59.5407 104.279C60.4107 104.279 61.176 104.472 61.8365 104.859C62.5132 105.246 63.0449 105.786 63.4315 106.478C63.8182 107.171 64.0115 107.969 64.0115 108.871V116H61.8365ZM53.7165 116V98.745H55.8915V116H53.7165ZM72.6838 116.242C71.556 116.242 70.541 115.976 69.6388 115.444C68.7365 114.912 68.0196 114.196 67.4879 113.293C66.9563 112.375 66.6904 111.352 66.6904 110.224C66.6904 109.112 66.9563 108.114 67.4879 107.227C68.0196 106.325 68.7365 105.608 69.6388 105.077C70.541 104.545 71.556 104.279 72.6838 104.279C73.7954 104.279 74.8024 104.545 75.7046 105.077C76.6229 105.592 77.3479 106.301 77.8796 107.203C78.4113 108.106 78.6771 109.112 78.6771 110.224C78.6771 111.352 78.4113 112.375 77.8796 113.293C77.3479 114.196 76.6229 114.912 75.7046 115.444C74.8024 115.976 73.7954 116.242 72.6838 116.242ZM72.6838 114.139C73.4088 114.139 74.0532 113.97 74.6171 113.632C75.181 113.293 75.624 112.834 75.9463 112.254C76.2685 111.658 76.4296 110.981 76.4296 110.224C76.4296 109.483 76.2604 108.822 75.9221 108.242C75.5999 107.662 75.1568 107.211 74.5929 106.889C74.0452 106.551 73.4088 106.382 72.6838 106.382C71.9588 106.382 71.3143 106.551 70.7504 106.889C70.1865 107.211 69.7435 107.662 69.4213 108.242C69.099 108.822 68.9379 109.483 68.9379 110.224C68.9379 110.981 69.099 111.658 69.4213 112.254C69.7435 112.834 70.1865 113.293 70.7504 113.632C71.3143 113.97 71.9588 114.139 72.6838 114.139ZM86.8553 116.242C85.7275 116.242 84.7125 115.976 83.8102 115.444C82.908 114.912 82.1911 114.196 81.6594 113.293C81.1277 112.375 80.8619 111.352 80.8619 110.224C80.8619 109.112 81.1277 108.114 81.6594 107.227C82.1911 106.325 82.908 105.608 83.8102 105.077C84.7125 104.545 85.7275 104.279 86.8553 104.279C87.9669 104.279 88.9739 104.545 89.8761 105.077C90.7944 105.592 91.5194 106.301 92.0511 107.203C92.5828 108.106 92.8486 109.112 92.8486 110.224C92.8486 111.352 92.5828 112.375 92.0511 113.293C91.5194 114.196 90.7944 114.912 89.8761 115.444C88.9739 115.976 87.9669 116.242 86.8553 116.242ZM86.8553 114.139C87.5803 114.139 88.2247 113.97 88.7886 113.632C89.3525 113.293 89.7955 112.834 90.1178 112.254C90.44 111.658 90.6011 110.981 90.6011 110.224C90.6011 109.483 90.4319 108.822 90.0936 108.242C89.7714 107.662 89.3283 107.211 88.7644 106.889C88.2166 106.551 87.5803 106.382 86.8553 106.382C86.1303 106.382 85.4858 106.551 84.9219 106.889C84.358 107.211 83.915 107.662 83.5927 108.242C83.2705 108.822 83.1094 109.483 83.1094 110.224C83.1094 110.981 83.2705 111.658 83.5927 112.254C83.915 112.834 84.358 113.293 84.9219 113.632C85.4858 113.97 86.1303 114.139 86.8553 114.139ZM99.4317 116.242C98.7873 116.242 98.1751 116.161 97.5951 116C97.0312 115.823 96.5076 115.581 96.0242 115.275C95.5409 114.953 95.122 114.574 94.7676 114.139L96.1692 112.737C96.5881 113.253 97.0715 113.64 97.6192 113.897C98.167 114.139 98.7792 114.26 99.4559 114.26C100.133 114.26 100.656 114.147 101.027 113.922C101.397 113.68 101.583 113.35 101.583 112.931C101.583 112.512 101.43 112.19 101.123 111.964C100.833 111.722 100.455 111.529 99.9876 111.384C99.5203 111.223 99.0209 111.07 98.4892 110.925C97.9737 110.764 97.4823 110.562 97.0151 110.321C96.5478 110.079 96.1612 109.749 95.8551 109.33C95.5651 108.911 95.4201 108.355 95.4201 107.662C95.4201 106.97 95.5892 106.374 95.9276 105.874C96.2659 105.359 96.7331 104.964 97.3292 104.69C97.9415 104.416 98.6745 104.279 99.5284 104.279C100.431 104.279 101.228 104.44 101.921 104.762C102.63 105.069 103.21 105.536 103.661 106.164L102.259 107.566C101.937 107.147 101.534 106.825 101.051 106.599C100.584 106.374 100.052 106.261 99.4559 106.261C98.8276 106.261 98.3442 106.374 98.0059 106.599C97.6837 106.809 97.5226 107.107 97.5226 107.493C97.5226 107.88 97.6676 108.178 97.9576 108.387C98.2476 108.597 98.6262 108.774 99.0934 108.919C99.5767 109.064 100.076 109.217 100.592 109.378C101.107 109.523 101.599 109.725 102.066 109.982C102.533 110.24 102.912 110.587 103.202 111.022C103.508 111.457 103.661 112.029 103.661 112.737C103.661 113.817 103.274 114.671 102.501 115.299C101.744 115.927 100.721 116.242 99.4317 116.242ZM106.603 116V104.521H108.778V116H106.603ZM107.691 102.225C107.288 102.225 106.958 102.096 106.7 101.838C106.442 101.564 106.313 101.226 106.313 100.823C106.313 100.437 106.442 100.114 106.7 99.8567C106.958 99.5828 107.288 99.4458 107.691 99.4458C108.094 99.4458 108.424 99.5828 108.682 99.8567C108.939 100.114 109.068 100.437 109.068 100.823C109.068 101.226 108.939 101.564 108.682 101.838C108.424 102.096 108.094 102.225 107.691 102.225ZM120.587 116V109.306C120.587 108.436 120.313 107.719 119.765 107.155C119.218 106.591 118.509 106.309 117.639 106.309C117.059 106.309 116.543 106.438 116.092 106.696C115.641 106.954 115.286 107.308 115.029 107.759C114.771 108.21 114.642 108.726 114.642 109.306L113.748 108.798C113.748 107.928 113.941 107.155 114.328 106.478C114.715 105.802 115.254 105.27 115.947 104.883C116.64 104.481 117.421 104.279 118.291 104.279C119.161 104.279 119.926 104.497 120.587 104.932C121.264 105.367 121.795 105.939 122.182 106.647C122.569 107.34 122.762 108.081 122.762 108.871V116H120.587ZM112.467 116V104.521H114.642V116H112.467ZM130.951 121.051C129.775 121.051 128.728 120.833 127.809 120.398C126.907 119.963 126.182 119.351 125.634 118.562L127.036 117.136C127.503 117.732 128.059 118.183 128.703 118.489C129.348 118.811 130.113 118.973 130.999 118.973C132.175 118.973 133.102 118.658 133.778 118.03C134.471 117.418 134.818 116.588 134.818 115.541V112.689L135.204 110.103L134.818 107.542V104.521H136.993V115.541C136.993 116.636 136.735 117.595 136.219 118.417C135.72 119.238 135.011 119.883 134.093 120.35C133.19 120.817 132.143 121.051 130.951 121.051ZM130.951 115.807C129.904 115.807 128.961 115.557 128.123 115.057C127.302 114.558 126.649 113.873 126.166 113.003C125.683 112.117 125.441 111.126 125.441 110.031C125.441 108.935 125.683 107.961 126.166 107.107C126.649 106.237 127.302 105.552 128.123 105.052C128.961 104.537 129.904 104.279 130.951 104.279C131.853 104.279 132.651 104.456 133.343 104.811C134.036 105.165 134.584 105.665 134.987 106.309C135.406 106.937 135.631 107.679 135.663 108.532V111.577C135.615 112.415 135.381 113.156 134.963 113.801C134.56 114.429 134.012 114.921 133.319 115.275C132.626 115.629 131.837 115.807 130.951 115.807ZM131.386 113.752C132.095 113.752 132.715 113.599 133.247 113.293C133.795 112.987 134.213 112.56 134.503 112.012C134.793 111.449 134.938 110.796 134.938 110.055C134.938 109.314 134.785 108.669 134.479 108.122C134.189 107.558 133.778 107.123 133.247 106.817C132.715 106.494 132.087 106.333 131.362 106.333C130.637 106.333 130 106.494 129.453 106.817C128.905 107.123 128.47 107.558 128.148 108.122C127.841 108.669 127.688 109.306 127.688 110.031C127.688 110.756 127.841 111.4 128.148 111.964C128.47 112.528 128.905 112.971 129.453 113.293C130.016 113.599 130.661 113.752 131.386 113.752ZM147.943 116V99.7117H150.118V116H147.943ZM145.115 106.502V104.521H152.945V106.502H145.115ZM163.679 116V109.306C163.679 108.436 163.405 107.719 162.858 107.155C162.31 106.591 161.601 106.309 160.731 106.309C160.151 106.309 159.635 106.438 159.184 106.696C158.733 106.954 158.379 107.308 158.121 107.759C157.863 108.21 157.734 108.726 157.734 109.306L156.84 108.798C156.84 107.928 157.033 107.155 157.42 106.478C157.807 105.802 158.346 105.27 159.039 104.883C159.732 104.481 160.513 104.279 161.383 104.279C162.253 104.279 163.019 104.472 163.679 104.859C164.356 105.246 164.888 105.786 165.274 106.478C165.661 107.171 165.854 107.969 165.854 108.871V116H163.679ZM155.559 116V98.745H157.734V116H155.559ZM174.599 116.242C173.455 116.242 172.424 115.984 171.506 115.468C170.587 114.937 169.862 114.22 169.331 113.317C168.799 112.415 168.533 111.392 168.533 110.248C168.533 109.121 168.791 108.106 169.306 107.203C169.838 106.301 170.547 105.592 171.433 105.077C172.335 104.545 173.342 104.279 174.454 104.279C175.517 104.279 176.452 104.521 177.257 105.004C178.079 105.487 178.715 106.156 179.166 107.01C179.634 107.864 179.867 108.831 179.867 109.91C179.867 110.071 179.859 110.248 179.843 110.442C179.827 110.619 179.795 110.828 179.746 111.07H170.056V109.257H178.586L177.789 109.958C177.789 109.185 177.652 108.532 177.378 108.001C177.104 107.453 176.718 107.034 176.218 106.744C175.719 106.438 175.114 106.285 174.406 106.285C173.664 106.285 173.012 106.446 172.448 106.768C171.884 107.091 171.449 107.542 171.143 108.122C170.837 108.702 170.684 109.386 170.684 110.176C170.684 110.981 170.845 111.69 171.167 112.302C171.489 112.899 171.949 113.366 172.545 113.704C173.141 114.026 173.826 114.187 174.599 114.187C175.243 114.187 175.831 114.075 176.363 113.849C176.911 113.624 177.378 113.285 177.765 112.834L179.166 114.26C178.619 114.904 177.942 115.396 177.136 115.734C176.347 116.073 175.501 116.242 174.599 116.242ZM190.142 108.702V106.792H194.685C195.668 106.792 196.425 106.543 196.957 106.043C197.488 105.544 197.754 104.867 197.754 104.013C197.754 103.208 197.488 102.539 196.957 102.007C196.441 101.476 195.692 101.21 194.709 101.21H190.142V99.2283H194.782C195.845 99.2283 196.771 99.4378 197.561 99.8567C198.35 100.259 198.954 100.815 199.373 101.524C199.808 102.233 200.026 103.047 200.026 103.965C200.026 104.916 199.808 105.745 199.373 106.454C198.954 107.163 198.35 107.719 197.561 108.122C196.771 108.508 195.845 108.702 194.782 108.702H190.142ZM188.619 116V99.2283H190.891V116H188.619ZM198.286 116L192.196 108.484L194.347 107.735L201.162 116H198.286ZM203.962 116V104.521H206.137V116H203.962ZM205.05 102.225C204.647 102.225 204.316 102.096 204.059 101.838C203.801 101.564 203.672 101.226 203.672 100.823C203.672 100.437 203.801 100.114 204.059 99.8567C204.316 99.5828 204.647 99.4458 205.05 99.4458C205.452 99.4458 205.783 99.5828 206.04 99.8567C206.298 100.114 206.427 100.437 206.427 100.823C206.427 101.226 206.298 101.564 206.04 101.838C205.783 102.096 205.452 102.225 205.05 102.225ZM214.586 121.051C213.41 121.051 212.363 120.833 211.445 120.398C210.543 119.963 209.818 119.351 209.27 118.562L210.671 117.136C211.139 117.732 211.695 118.183 212.339 118.489C212.983 118.811 213.749 118.973 214.635 118.973C215.811 118.973 216.737 118.658 217.414 118.03C218.107 117.418 218.453 116.588 218.453 115.541V112.689L218.84 110.103L218.453 107.542V104.521H220.628V115.541C220.628 116.636 220.37 117.595 219.855 118.417C219.355 119.238 218.646 119.883 217.728 120.35C216.826 120.817 215.779 121.051 214.586 121.051ZM214.586 115.807C213.539 115.807 212.597 115.557 211.759 115.057C210.937 114.558 210.285 113.873 209.801 113.003C209.318 112.117 209.076 111.126 209.076 110.031C209.076 108.935 209.318 107.961 209.801 107.107C210.285 106.237 210.937 105.552 211.759 105.052C212.597 104.537 213.539 104.279 214.586 104.279C215.489 104.279 216.286 104.456 216.979 104.811C217.672 105.165 218.22 105.665 218.622 106.309C219.041 106.937 219.267 107.679 219.299 108.532V111.577C219.251 112.415 219.017 113.156 218.598 113.801C218.195 114.429 217.648 114.921 216.955 115.275C216.262 115.629 215.473 115.807 214.586 115.807ZM215.021 113.752C215.73 113.752 216.351 113.599 216.882 113.293C217.43 112.987 217.849 112.56 218.139 112.012C218.429 111.449 218.574 110.796 218.574 110.055C218.574 109.314 218.421 108.669 218.115 108.122C217.825 107.558 217.414 107.123 216.882 106.817C216.351 106.494 215.722 106.333 214.997 106.333C214.272 106.333 213.636 106.494 213.088 106.817C212.54 107.123 212.105 107.558 211.783 108.122C211.477 108.669 211.324 109.306 211.324 110.031C211.324 110.756 211.477 111.4 211.783 111.964C212.105 112.528 212.54 112.971 213.088 113.293C213.652 113.599 214.296 113.752 215.021 113.752ZM232.424 116V109.306C232.424 108.436 232.15 107.719 231.602 107.155C231.054 106.591 230.346 106.309 229.476 106.309C228.896 106.309 228.38 106.438 227.929 106.696C227.478 106.954 227.123 107.308 226.866 107.759C226.608 108.21 226.479 108.726 226.479 109.306L225.585 108.798C225.585 107.928 225.778 107.155 226.165 106.478C226.551 105.802 227.091 105.27 227.784 104.883C228.477 104.481 229.258 104.279 230.128 104.279C230.998 104.279 231.763 104.472 232.424 104.859C233.101 105.246 233.632 105.786 234.019 106.478C234.406 107.171 234.599 107.969 234.599 108.871V116H232.424ZM224.304 116V98.745H226.479V116H224.304ZM239.65 116V99.7117H241.825V116H239.65ZM236.822 106.502V104.521H244.652V106.502H236.822ZM36.9817 147V130.228H39.2533V147H36.9817ZM47.8083 147V130.228H50.08V147H47.8083ZM38.5283 139.363V137.285H48.3642V139.363H38.5283ZM59.458 147.242C58.3141 147.242 57.283 146.984 56.3647 146.468C55.4463 145.937 54.7213 145.22 54.1897 144.317C53.658 143.415 53.3922 142.392 53.3922 141.248C53.3922 140.121 53.6499 139.106 54.1655 138.203C54.6972 137.301 55.406 136.592 56.2922 136.077C57.1944 135.545 58.2013 135.279 59.313 135.279C60.3763 135.279 61.3108 135.521 62.1163 136.004C62.938 136.487 63.5744 137.156 64.0255 138.01C64.4927 138.864 64.7263 139.831 64.7263 140.91C64.7263 141.071 64.7183 141.248 64.7022 141.442C64.686 141.619 64.6538 141.828 64.6055 142.07H54.9147V140.257H63.4455L62.648 140.958C62.648 140.185 62.511 139.532 62.2372 139.001C61.9633 138.453 61.5766 138.034 61.0772 137.744C60.5777 137.438 59.9735 137.285 59.2647 137.285C58.5235 137.285 57.871 137.446 57.3072 137.768C56.7433 138.091 56.3083 138.542 56.0022 139.122C55.696 139.702 55.543 140.386 55.543 141.176C55.543 141.981 55.7041 142.69 56.0263 143.302C56.3485 143.899 56.8077 144.366 57.4038 144.704C57.9999 145.026 58.6847 145.187 59.458 145.187C60.1024 145.187 60.6905 145.075 61.2222 144.849C61.7699 144.624 62.2372 144.285 62.6238 143.834L64.0255 145.26C63.4777 145.904 62.801 146.396 61.9955 146.734C61.206 147.073 60.3602 147.242 59.458 147.242ZM72.4629 147.242C71.4156 147.242 70.4651 146.984 69.6112 146.468C68.7573 145.937 68.0806 145.22 67.5812 144.317C67.0979 143.415 66.8562 142.4 66.8562 141.272C66.8562 140.145 67.0979 139.13 67.5812 138.227C68.0806 137.325 68.7493 136.608 69.587 136.077C70.4409 135.545 71.3995 135.279 72.4629 135.279C73.3329 135.279 74.1062 135.464 74.7829 135.835C75.4756 136.189 76.0315 136.689 76.4504 137.333C76.8693 137.962 77.1029 138.695 77.1512 139.532V142.988C77.1029 143.81 76.8693 144.543 76.4504 145.187C76.0476 145.832 75.4998 146.339 74.807 146.71C74.1304 147.064 73.349 147.242 72.4629 147.242ZM72.8254 145.187C73.9048 145.187 74.7748 144.825 75.4354 144.1C76.0959 143.359 76.4262 142.416 76.4262 141.272C76.4262 140.483 76.2731 139.798 75.967 139.218C75.677 138.622 75.2581 138.163 74.7104 137.841C74.1626 137.502 73.5262 137.333 72.8012 137.333C72.0762 137.333 71.4318 137.502 70.8679 137.841C70.3201 138.179 69.8851 138.646 69.5629 139.242C69.2568 139.822 69.1037 140.491 69.1037 141.248C69.1037 142.022 69.2568 142.706 69.5629 143.302C69.8851 143.882 70.3281 144.342 70.892 144.68C71.4559 145.018 72.1004 145.187 72.8254 145.187ZM76.2812 147V143.907L76.692 141.103L76.2812 138.324V135.521H78.4804V147H76.2812ZM86.9878 147.242C85.9245 147.242 84.9739 146.984 84.1361 146.468C83.2983 145.937 82.6297 145.22 82.1303 144.317C81.647 143.415 81.4053 142.4 81.4053 141.272C81.4053 140.145 81.647 139.13 82.1303 138.227C82.6297 137.325 83.2983 136.608 84.1361 136.077C84.9739 135.545 85.9245 135.279 86.9878 135.279C87.8417 135.279 88.615 135.464 89.3078 135.835C90.0006 136.189 90.5564 136.689 90.9753 137.333C91.4103 137.962 91.652 138.695 91.7003 139.532V142.988C91.652 143.81 91.4183 144.543 90.9995 145.187C90.5806 145.832 90.0247 146.339 89.332 146.71C88.6392 147.064 87.8578 147.242 86.9878 147.242ZM87.3503 145.187C88.0753 145.187 88.7036 145.018 89.2353 144.68C89.7831 144.342 90.21 143.882 90.5161 143.302C90.8222 142.706 90.9753 142.03 90.9753 141.272C90.9753 140.483 90.8142 139.798 90.492 139.218C90.1858 138.638 89.7589 138.179 89.2111 137.841C88.6795 137.502 88.0511 137.333 87.3261 137.333C86.6011 137.333 85.9647 137.502 85.417 137.841C84.8692 138.179 84.4342 138.646 84.112 139.242C83.8058 139.822 83.6528 140.491 83.6528 141.248C83.6528 142.022 83.8058 142.706 84.112 143.302C84.4342 143.882 84.8692 144.342 85.417 144.68C85.9808 145.018 86.6253 145.187 87.3503 145.187ZM93.0295 147H90.8303V143.907L91.2411 141.103L90.8303 138.324V129.745H93.0295V147ZM96.6794 147V129.745H98.8544V147H96.6794ZM107.837 147.242C106.693 147.242 105.662 146.984 104.743 146.468C103.825 145.937 103.1 145.22 102.568 144.317C102.037 143.415 101.771 142.392 101.771 141.248C101.771 140.121 102.029 139.106 102.544 138.203C103.076 137.301 103.785 136.592 104.671 136.077C105.573 135.545 106.58 135.279 107.692 135.279C108.755 135.279 109.689 135.521 110.495 136.004C111.317 136.487 111.953 137.156 112.404 138.01C112.871 138.864 113.105 139.831 113.105 140.91C113.105 141.071 113.097 141.248 113.081 141.442C113.065 141.619 113.032 141.828 112.984 142.07H103.293V140.257H111.824L111.027 140.958C111.027 140.185 110.89 139.532 110.616 139.001C110.342 138.453 109.955 138.034 109.456 137.744C108.956 137.438 108.352 137.285 107.643 137.285C106.902 137.285 106.25 137.446 105.686 137.768C105.122 138.091 104.687 138.542 104.381 139.122C104.075 139.702 103.922 140.386 103.922 141.176C103.922 141.981 104.083 142.69 104.405 143.302C104.727 143.899 105.186 144.366 105.782 144.704C106.379 145.026 107.063 145.187 107.837 145.187C108.481 145.187 109.069 145.075 109.601 144.849C110.149 144.624 110.616 144.285 111.002 143.834L112.404 145.26C111.856 145.904 111.18 146.396 110.374 146.734C109.585 147.073 108.739 147.242 107.837 147.242ZM119.609 147.242C118.965 147.242 118.352 147.161 117.772 147C117.208 146.823 116.685 146.581 116.202 146.275C115.718 145.953 115.299 145.574 114.945 145.139L116.347 143.737C116.765 144.253 117.249 144.64 117.797 144.897C118.344 145.139 118.957 145.26 119.633 145.26C120.31 145.26 120.833 145.147 121.204 144.922C121.575 144.68 121.76 144.35 121.76 143.931C121.76 143.512 121.607 143.19 121.301 142.964C121.011 142.722 120.632 142.529 120.165 142.384C119.698 142.223 119.198 142.07 118.667 141.925C118.151 141.764 117.66 141.562 117.192 141.321C116.725 141.079 116.338 140.749 116.032 140.33C115.742 139.911 115.597 139.355 115.597 138.662C115.597 137.97 115.767 137.374 116.105 136.874C116.443 136.359 116.91 135.964 117.507 135.69C118.119 135.416 118.852 135.279 119.706 135.279C120.608 135.279 121.405 135.44 122.098 135.762C122.807 136.069 123.387 136.536 123.838 137.164L122.437 138.566C122.114 138.147 121.712 137.825 121.228 137.599C120.761 137.374 120.229 137.261 119.633 137.261C119.005 137.261 118.522 137.374 118.183 137.599C117.861 137.809 117.7 138.107 117.7 138.493C117.7 138.88 117.845 139.178 118.135 139.387C118.425 139.597 118.803 139.774 119.271 139.919C119.754 140.064 120.253 140.217 120.769 140.378C121.285 140.523 121.776 140.725 122.243 140.982C122.71 141.24 123.089 141.587 123.379 142.022C123.685 142.457 123.838 143.029 123.838 143.737C123.838 144.817 123.452 145.671 122.678 146.299C121.921 146.927 120.898 147.242 119.609 147.242ZM130.406 147.242C129.761 147.242 129.149 147.161 128.569 147C128.005 146.823 127.481 146.581 126.998 146.275C126.515 145.953 126.096 145.574 125.741 145.139L127.143 143.737C127.562 144.253 128.045 144.64 128.593 144.897C129.141 145.139 129.753 145.26 130.43 145.26C131.106 145.26 131.63 145.147 132.001 144.922C132.371 144.68 132.556 144.35 132.556 143.931C132.556 143.512 132.403 143.19 132.097 142.964C131.807 142.722 131.429 142.529 130.961 142.384C130.494 142.223 129.995 142.07 129.463 141.925C128.948 141.764 128.456 141.562 127.989 141.321C127.522 141.079 127.135 140.749 126.829 140.33C126.539 139.911 126.394 139.355 126.394 138.662C126.394 137.97 126.563 137.374 126.901 136.874C127.24 136.359 127.707 135.964 128.303 135.69C128.915 135.416 129.648 135.279 130.502 135.279C131.405 135.279 132.202 135.44 132.895 135.762C133.604 136.069 134.184 136.536 134.635 137.164L133.233 138.566C132.911 138.147 132.508 137.825 132.025 137.599C131.558 137.374 131.026 137.261 130.43 137.261C129.801 137.261 129.318 137.374 128.98 137.599C128.658 137.809 128.496 138.107 128.496 138.493C128.496 138.88 128.641 139.178 128.931 139.387C129.221 139.597 129.6 139.774 130.067 139.919C130.551 140.064 131.05 140.217 131.566 140.378C132.081 140.523 132.573 140.725 133.04 140.982C133.507 141.24 133.886 141.587 134.176 142.022C134.482 142.457 134.635 143.029 134.635 143.737C134.635 144.817 134.248 145.671 133.475 146.299C132.718 146.927 131.695 147.242 130.406 147.242ZM151.062 147.242C149.854 147.242 148.734 147.024 147.703 146.589C146.672 146.138 145.77 145.518 144.997 144.728C144.239 143.939 143.651 143.021 143.232 141.973C142.814 140.926 142.604 139.806 142.604 138.614C142.604 137.406 142.814 136.278 143.232 135.231C143.651 134.184 144.239 133.273 144.997 132.5C145.77 131.711 146.664 131.098 147.679 130.663C148.71 130.212 149.83 129.987 151.038 129.987C152.359 129.987 153.519 130.212 154.518 130.663C155.517 131.114 156.403 131.727 157.177 132.5L155.606 134.071C155.074 133.475 154.422 133.007 153.648 132.669C152.891 132.331 152.021 132.162 151.038 132.162C150.152 132.162 149.339 132.323 148.597 132.645C147.856 132.951 147.212 133.394 146.664 133.974C146.116 134.554 145.689 135.239 145.383 136.028C145.093 136.818 144.948 137.68 144.948 138.614C144.948 139.549 145.093 140.411 145.383 141.2C145.689 141.989 146.116 142.674 146.664 143.254C147.212 143.834 147.856 144.285 148.597 144.607C149.339 144.914 150.152 145.067 151.038 145.067C152.086 145.067 152.996 144.897 153.769 144.559C154.542 144.205 155.195 143.729 155.727 143.133L157.297 144.68C156.524 145.486 155.614 146.114 154.567 146.565C153.536 147.016 152.367 147.242 151.062 147.242ZM160.572 147V130.228H162.167L169.272 141.901H168.184L175.289 130.228H176.884V147H174.612V134.216L175.144 134.361L169.537 143.568H167.942L162.336 134.361L162.843 134.216V147H160.572ZM185.661 147.242C184.34 147.242 183.212 147 182.278 146.517C181.343 146.033 180.514 145.332 179.789 144.414L181.335 142.867C181.867 143.609 182.479 144.172 183.172 144.559C183.865 144.93 184.719 145.115 185.734 145.115C186.733 145.115 187.53 144.897 188.126 144.462C188.738 144.027 189.045 143.431 189.045 142.674C189.045 142.046 188.9 141.538 188.61 141.152C188.32 140.765 187.925 140.451 187.425 140.209C186.942 139.951 186.41 139.726 185.83 139.532C185.25 139.323 184.67 139.106 184.09 138.88C183.51 138.638 182.979 138.348 182.495 138.01C182.012 137.656 181.617 137.196 181.311 136.632C181.021 136.069 180.876 135.36 180.876 134.506C180.876 133.555 181.102 132.75 181.553 132.089C182.02 131.412 182.648 130.897 183.438 130.542C184.243 130.172 185.146 129.987 186.145 129.987C187.24 129.987 188.223 130.204 189.093 130.639C189.963 131.058 190.672 131.614 191.22 132.307L189.673 133.853C189.173 133.273 188.634 132.838 188.054 132.548C187.49 132.258 186.837 132.113 186.096 132.113C185.194 132.113 184.477 132.315 183.945 132.717C183.414 133.104 183.148 133.652 183.148 134.361C183.148 134.925 183.293 135.384 183.583 135.738C183.889 136.077 184.284 136.367 184.767 136.608C185.25 136.85 185.782 137.076 186.362 137.285C186.958 137.478 187.546 137.696 188.126 137.937C188.706 138.179 189.238 138.485 189.721 138.856C190.205 139.226 190.591 139.71 190.881 140.306C191.187 140.886 191.34 141.619 191.34 142.505C191.34 143.987 190.825 145.147 189.794 145.985C188.779 146.823 187.401 147.242 185.661 147.242ZM196.166 147.242C195.715 147.242 195.336 147.089 195.03 146.782C194.74 146.46 194.595 146.09 194.595 145.671C194.595 145.204 194.74 144.825 195.03 144.535C195.336 144.229 195.715 144.076 196.166 144.076C196.617 144.076 196.988 144.229 197.278 144.535C197.584 144.825 197.737 145.204 197.737 145.671C197.737 146.09 197.584 146.46 197.278 146.782C196.988 147.089 196.617 147.242 196.166 147.242ZM196.166 139.702C195.715 139.702 195.336 139.549 195.03 139.242C194.74 138.936 194.595 138.566 194.595 138.131C194.595 137.664 194.74 137.285 195.03 136.995C195.336 136.689 195.715 136.536 196.166 136.536C196.617 136.536 196.988 136.689 197.278 136.995C197.584 137.285 197.737 137.664 197.737 138.131C197.737 138.566 197.584 138.936 197.278 139.242C196.988 139.549 196.617 139.702 196.166 139.702Z" fill="#8E75FF"></path><path d="M40.8967 178L35.4108 160.938H39.1808L43.1925 174.061H41.7183L45.6333 160.938H48.6058L52.5208 174.061H51.0708L55.0583 160.938H58.8042L53.3183 178H50.3458L46.4067 164.877H47.8083L43.8692 178H40.8967ZM68.7597 178V171.306C68.7597 170.694 68.5664 170.202 68.1797 169.832C67.8091 169.445 67.3339 169.252 66.7539 169.252C66.3511 169.252 65.9966 169.34 65.6905 169.517C65.3844 169.679 65.1428 169.92 64.9655 170.242C64.7883 170.549 64.6997 170.903 64.6997 171.306L63.2739 170.605C63.2739 169.687 63.4672 168.881 63.8539 168.188C64.2405 167.496 64.7803 166.964 65.473 166.593C66.1658 166.207 66.9633 166.013 67.8655 166.013C68.7839 166.013 69.5894 166.207 70.2822 166.593C70.975 166.964 71.5066 167.487 71.8772 168.164C72.2639 168.825 72.4572 169.598 72.4572 170.484V178H68.7597ZM61.0022 178V160.455H64.6997V178H61.0022ZM78.9403 178.048L74.107 166.255H78.0945L81.1636 175.607H79.6895L82.8311 166.255H86.8186L81.792 178.048H78.9403ZM75.9195 182.954L79.4478 175.342L81.792 178.048L79.7136 182.954H75.9195ZM99.255 178.266C97.8534 178.266 96.645 178.04 95.63 177.589C94.6311 177.122 93.7128 176.421 92.875 175.487L95.34 173.046C95.8878 173.674 96.492 174.166 97.1525 174.52C97.8292 174.858 98.6106 175.027 99.4967 175.027C100.302 175.027 100.923 174.882 101.358 174.592C101.809 174.302 102.034 173.9 102.034 173.384C102.034 172.917 101.889 172.538 101.599 172.248C101.309 171.958 100.923 171.709 100.439 171.499C99.972 171.29 99.4484 171.088 98.8684 170.895C98.3045 170.702 97.7406 170.484 97.1767 170.242C96.6128 169.985 96.0892 169.671 95.6059 169.3C95.1386 168.913 94.76 168.438 94.47 167.874C94.18 167.294 94.035 166.569 94.035 165.699C94.035 164.652 94.2847 163.75 94.7842 162.992C95.2997 162.235 96.0086 161.663 96.9109 161.277C97.8131 160.874 98.8522 160.672 100.028 160.672C101.221 160.672 102.308 160.882 103.291 161.301C104.29 161.72 105.111 162.292 105.756 163.017L103.291 165.457C102.775 164.926 102.252 164.531 101.72 164.273C101.204 164.016 100.616 163.887 99.9559 163.887C99.2953 163.887 98.7717 164.016 98.385 164.273C97.9984 164.515 97.805 164.869 97.805 165.337C97.805 165.772 97.95 166.126 98.24 166.4C98.53 166.658 98.9086 166.883 99.3759 167.077C99.8592 167.27 100.383 167.463 100.947 167.657C101.527 167.85 102.099 168.076 102.663 168.333C103.226 168.591 103.742 168.921 104.209 169.324C104.693 169.711 105.079 170.21 105.369 170.822C105.659 171.419 105.804 172.16 105.804 173.046C105.804 174.673 105.224 175.954 104.064 176.888C102.904 177.807 101.301 178.266 99.255 178.266ZM110.034 178V161.397H113.731V178H110.034ZM107.375 169.397V166.255H116.389V169.397H107.375ZM118.502 178V166.255H122.199V178H118.502ZM122.199 171.547L120.653 170.339C120.959 168.97 121.474 167.906 122.199 167.149C122.924 166.392 123.931 166.013 125.22 166.013C125.784 166.013 126.275 166.102 126.694 166.279C127.129 166.44 127.508 166.698 127.83 167.052L125.631 169.832C125.47 169.654 125.269 169.517 125.027 169.421C124.785 169.324 124.511 169.276 124.205 169.276C123.593 169.276 123.102 169.469 122.731 169.856C122.377 170.226 122.199 170.79 122.199 171.547ZM133.874 178.242C132.795 178.242 131.828 177.976 130.974 177.444C130.136 176.912 129.468 176.187 128.968 175.269C128.485 174.351 128.243 173.304 128.243 172.127C128.243 170.951 128.485 169.904 128.968 168.986C129.468 168.067 130.136 167.342 130.974 166.811C131.828 166.279 132.795 166.013 133.874 166.013C134.663 166.013 135.372 166.166 136.001 166.472C136.645 166.779 137.169 167.206 137.571 167.753C137.974 168.285 138.2 168.897 138.248 169.59V174.665C138.2 175.358 137.974 175.978 137.571 176.526C137.185 177.057 136.669 177.476 136.025 177.782C135.38 178.089 134.663 178.242 133.874 178.242ZM134.623 174.907C135.413 174.907 136.049 174.649 136.532 174.133C137.016 173.602 137.257 172.933 137.257 172.127C137.257 171.58 137.145 171.096 136.919 170.677C136.71 170.259 136.403 169.936 136.001 169.711C135.614 169.469 135.163 169.348 134.647 169.348C134.132 169.348 133.673 169.469 133.27 169.711C132.883 169.936 132.569 170.259 132.327 170.677C132.102 171.096 131.989 171.58 131.989 172.127C131.989 172.659 132.102 173.134 132.327 173.553C132.553 173.972 132.867 174.302 133.27 174.544C133.673 174.786 134.124 174.907 134.623 174.907ZM137.112 178V174.834L137.668 171.982L137.112 169.131V166.255H140.737V178H137.112ZM150.591 178.242C149.801 178.242 149.076 178.089 148.416 177.782C147.755 177.476 147.215 177.057 146.797 176.526C146.378 175.978 146.136 175.358 146.072 174.665V169.711C146.136 169.018 146.378 168.39 146.797 167.826C147.215 167.262 147.755 166.819 148.416 166.497C149.076 166.174 149.801 166.013 150.591 166.013C151.702 166.013 152.685 166.279 153.539 166.811C154.409 167.342 155.086 168.067 155.569 168.986C156.068 169.904 156.318 170.951 156.318 172.127C156.318 173.304 156.068 174.351 155.569 175.269C155.086 176.187 154.409 176.912 153.539 177.444C152.685 177.976 151.702 178.242 150.591 178.242ZM149.914 174.907C150.446 174.907 150.905 174.786 151.292 174.544C151.694 174.302 152.008 173.972 152.234 173.553C152.46 173.134 152.572 172.659 152.572 172.127C152.572 171.58 152.46 171.096 152.234 170.677C152.008 170.259 151.694 169.936 151.292 169.711C150.905 169.469 150.454 169.348 149.938 169.348C149.423 169.348 148.963 169.469 148.561 169.711C148.174 169.936 147.868 170.259 147.642 170.677C147.417 171.096 147.304 171.58 147.304 172.127C147.304 172.659 147.409 173.134 147.618 173.553C147.844 173.972 148.158 174.302 148.561 174.544C148.963 174.786 149.415 174.907 149.914 174.907ZM143.824 182.954V166.255H147.522V169.276L146.917 172.127L147.473 174.979V182.954H143.824ZM158.68 178V166.255H162.377V178H158.68ZM160.541 164.636C159.961 164.636 159.477 164.442 159.091 164.056C158.72 163.653 158.535 163.17 158.535 162.606C158.535 162.026 158.72 161.542 159.091 161.156C159.477 160.769 159.961 160.576 160.541 160.576C161.121 160.576 161.596 160.769 161.967 161.156C162.337 161.542 162.522 162.026 162.522 162.606C162.522 163.17 162.337 163.653 161.967 164.056C161.596 164.442 161.121 164.636 160.541 164.636ZM170.888 178V160.938H174.682V178H170.888ZM173.812 178V174.665H182.247V178H173.812ZM190.191 178.266C188.918 178.266 187.782 178.008 186.783 177.492C185.801 176.961 185.027 176.228 184.463 175.293C183.9 174.359 183.618 173.304 183.618 172.127C183.618 170.951 183.892 169.904 184.439 168.986C185.003 168.051 185.76 167.318 186.711 166.787C187.662 166.255 188.733 165.989 189.925 165.989C191.085 165.989 192.108 166.239 192.994 166.738C193.88 167.238 194.573 167.931 195.073 168.817C195.588 169.703 195.846 170.718 195.846 171.862C195.846 172.071 195.83 172.297 195.798 172.538C195.782 172.764 195.741 173.03 195.677 173.336L185.551 173.36V170.822L194.106 170.798L192.511 171.862C192.495 171.185 192.39 170.629 192.197 170.194C192.003 169.743 191.713 169.405 191.327 169.179C190.956 168.937 190.497 168.817 189.949 168.817C189.369 168.817 188.862 168.954 188.427 169.227C188.008 169.485 187.678 169.856 187.436 170.339C187.21 170.822 187.098 171.411 187.098 172.103C187.098 172.796 187.218 173.392 187.46 173.892C187.718 174.375 188.072 174.754 188.523 175.027C188.991 175.285 189.538 175.414 190.167 175.414C190.747 175.414 191.27 175.317 191.738 175.124C192.205 174.915 192.616 174.609 192.97 174.206L195 176.236C194.42 176.912 193.719 177.42 192.898 177.758C192.076 178.097 191.174 178.266 190.191 178.266ZM203.02 178.242C201.94 178.242 200.974 177.976 200.12 177.444C199.282 176.912 198.614 176.187 198.114 175.269C197.631 174.351 197.389 173.304 197.389 172.127C197.389 170.951 197.631 169.904 198.114 168.986C198.614 168.067 199.282 167.342 200.12 166.811C200.974 166.279 201.94 166.013 203.02 166.013C203.809 166.013 204.518 166.166 205.147 166.472C205.791 166.779 206.315 167.206 206.717 167.753C207.12 168.285 207.346 168.897 207.394 169.59V174.665C207.346 175.358 207.12 175.978 206.717 176.526C206.331 177.057 205.815 177.476 205.171 177.782C204.526 178.089 203.809 178.242 203.02 178.242ZM203.769 174.907C204.559 174.907 205.195 174.649 205.678 174.133C206.162 173.602 206.403 172.933 206.403 172.127C206.403 171.58 206.29 171.096 206.065 170.677C205.855 170.259 205.549 169.936 205.147 169.711C204.76 169.469 204.309 169.348 203.793 169.348C203.278 169.348 202.819 169.469 202.416 169.711C202.029 169.936 201.715 170.259 201.473 170.677C201.248 171.096 201.135 171.58 201.135 172.127C201.135 172.659 201.248 173.134 201.473 173.553C201.699 173.972 202.013 174.302 202.416 174.544C202.819 174.786 203.27 174.907 203.769 174.907ZM206.258 178V174.834L206.814 171.982L206.258 169.131V166.255H209.883V178H206.258ZM217.972 178.242C216.861 178.242 215.87 177.976 215 177.444C214.146 176.912 213.469 176.187 212.97 175.269C212.487 174.351 212.245 173.304 212.245 172.127C212.245 170.951 212.487 169.904 212.97 168.986C213.469 168.067 214.146 167.342 215 166.811C215.87 166.279 216.861 166.013 217.972 166.013C218.778 166.013 219.503 166.166 220.147 166.472C220.808 166.779 221.348 167.206 221.767 167.753C222.202 168.285 222.443 168.897 222.492 169.59V174.544C222.443 175.237 222.21 175.865 221.791 176.429C221.372 176.977 220.832 177.42 220.172 177.758C219.511 178.081 218.778 178.242 217.972 178.242ZM218.625 174.907C219.157 174.907 219.616 174.794 220.002 174.568C220.389 174.327 220.695 173.996 220.921 173.577C221.146 173.159 221.259 172.675 221.259 172.127C221.259 171.58 221.146 171.104 220.921 170.702C220.711 170.283 220.405 169.952 220.002 169.711C219.616 169.469 219.165 169.348 218.649 169.348C218.134 169.348 217.674 169.469 217.272 169.711C216.885 169.952 216.571 170.283 216.329 170.702C216.104 171.121 215.991 171.596 215.991 172.127C215.991 172.659 216.104 173.134 216.329 173.553C216.555 173.972 216.869 174.302 217.272 174.544C217.674 174.786 218.126 174.907 218.625 174.907ZM224.739 178H221.114V174.834L221.67 171.982L221.042 169.131V160.455H224.739V178ZM232.103 178.29C231.411 178.29 230.726 178.201 230.049 178.024C229.389 177.847 228.768 177.597 228.188 177.275C227.624 176.937 227.141 176.55 226.738 176.115L228.841 173.988C229.228 174.407 229.687 174.737 230.218 174.979C230.75 175.205 231.33 175.317 231.958 175.317C232.393 175.317 232.724 175.253 232.949 175.124C233.191 174.995 233.312 174.818 233.312 174.592C233.312 174.302 233.167 174.085 232.877 173.94C232.603 173.779 232.248 173.642 231.813 173.529C231.378 173.4 230.919 173.263 230.436 173.118C229.953 172.973 229.493 172.772 229.058 172.514C228.623 172.256 228.269 171.902 227.995 171.451C227.721 170.984 227.584 170.396 227.584 169.687C227.584 168.929 227.778 168.277 228.164 167.729C228.551 167.165 229.099 166.722 229.808 166.4C230.516 166.078 231.346 165.917 232.297 165.917C233.296 165.917 234.214 166.094 235.052 166.448C235.906 166.787 236.598 167.294 237.13 167.971L235.028 170.097C234.657 169.662 234.238 169.356 233.771 169.179C233.32 169.002 232.877 168.913 232.442 168.913C232.023 168.913 231.709 168.978 231.499 169.107C231.29 169.219 231.185 169.389 231.185 169.614C231.185 169.856 231.322 170.049 231.596 170.194C231.87 170.339 232.224 170.468 232.659 170.581C233.094 170.694 233.553 170.831 234.037 170.992C234.52 171.153 234.979 171.37 235.414 171.644C235.849 171.918 236.204 172.289 236.478 172.756C236.751 173.207 236.888 173.803 236.888 174.544C236.888 175.688 236.453 176.598 235.583 177.275C234.729 177.952 233.569 178.29 232.103 178.29ZM37.9725 210V193.397H41.67V210H37.9725ZM35.3142 201.397V198.255H44.3283V201.397H35.3142ZM54.1983 210V203.306C54.1983 202.694 54.005 202.202 53.6183 201.832C53.2478 201.445 52.7725 201.252 52.1925 201.252C51.7897 201.252 51.4353 201.34 51.1292 201.517C50.8231 201.679 50.5814 201.92 50.4042 202.242C50.227 202.549 50.1383 202.903 50.1383 203.306L48.7125 202.605C48.7125 201.687 48.9058 200.881 49.2925 200.188C49.6792 199.496 50.2189 198.964 50.9117 198.593C51.6045 198.207 52.402 198.013 53.3042 198.013C54.2225 198.013 55.0281 198.207 55.7208 198.593C56.4136 198.964 56.9453 199.487 57.3158 200.164C57.7025 200.825 57.8958 201.598 57.8958 202.484V210H54.1983ZM46.4408 210V192.455H50.1383V210H46.4408ZM66.5539 210.266C65.2811 210.266 64.1453 210.008 63.1464 209.492C62.1636 208.961 61.3903 208.228 60.8264 207.293C60.2625 206.359 59.9806 205.304 59.9806 204.127C59.9806 202.951 60.2545 201.904 60.8023 200.986C61.3661 200.051 62.1234 199.318 63.0739 198.787C64.0245 198.255 65.0959 197.989 66.2881 197.989C67.4481 197.989 68.4712 198.239 69.3573 198.738C70.2434 199.238 70.9362 199.931 71.4356 200.817C71.9511 201.703 72.2089 202.718 72.2089 203.862C72.2089 204.071 72.1928 204.297 72.1606 204.538C72.1445 204.764 72.1042 205.03 72.0398 205.336L61.9139 205.36V202.822L70.4689 202.798L68.8739 203.862C68.8578 203.185 68.7531 202.629 68.5598 202.194C68.3664 201.743 68.0764 201.405 67.6898 201.179C67.3192 200.937 66.86 200.817 66.3123 200.817C65.7323 200.817 65.2248 200.954 64.7898 201.227C64.3709 201.485 64.0406 201.856 63.7989 202.339C63.5734 202.822 63.4606 203.411 63.4606 204.103C63.4606 204.796 63.5814 205.392 63.8231 205.892C64.0809 206.375 64.4353 206.754 64.8864 207.027C65.3536 207.285 65.9014 207.414 66.5298 207.414C67.1098 207.414 67.6334 207.317 68.1006 207.124C68.5678 206.915 68.9787 206.609 69.3331 206.206L71.3631 208.236C70.7831 208.912 70.0823 209.42 69.2606 209.758C68.4389 210.097 67.5367 210.266 66.5539 210.266ZM82.8007 203.789V200.841H86.4741C86.9413 200.841 87.3682 200.744 87.7549 200.551C88.1416 200.357 88.4477 200.076 88.6732 199.705C88.8988 199.334 89.0116 198.883 89.0116 198.352C89.0116 197.836 88.8988 197.393 88.6732 197.022C88.4477 196.652 88.1416 196.37 87.7549 196.177C87.3682 195.983 86.9413 195.887 86.4741 195.887H82.8007V192.938H87.0299C88.1093 192.938 89.0841 193.156 89.9541 193.591C90.8241 194.026 91.5088 194.654 92.0082 195.476C92.5238 196.281 92.7816 197.24 92.7816 198.352C92.7816 199.463 92.5238 200.43 92.0082 201.252C91.5088 202.057 90.8241 202.686 89.9541 203.137C89.0841 203.572 88.1093 203.789 87.0299 203.789H82.8007ZM79.9007 210V192.938H83.6949V210H79.9007ZM99.6545 210.242C98.5751 210.242 97.6084 209.976 96.7545 209.444C95.9167 208.912 95.2481 208.187 94.7487 207.269C94.2654 206.351 94.0237 205.304 94.0237 204.127C94.0237 202.951 94.2654 201.904 94.7487 200.986C95.2481 200.067 95.9167 199.342 96.7545 198.811C97.6084 198.279 98.5751 198.013 99.6545 198.013C100.444 198.013 101.153 198.166 101.781 198.472C102.426 198.779 102.949 199.206 103.352 199.753C103.755 200.285 103.98 200.897 104.029 201.59V206.665C103.98 207.358 103.755 207.978 103.352 208.526C102.965 209.057 102.45 209.476 101.805 209.782C101.161 210.089 100.444 210.242 99.6545 210.242ZM100.404 206.907C101.193 206.907 101.83 206.649 102.313 206.133C102.796 205.602 103.038 204.933 103.038 204.127C103.038 203.58 102.925 203.096 102.7 202.677C102.49 202.259 102.184 201.936 101.781 201.711C101.395 201.469 100.943 201.348 100.428 201.348C99.9123 201.348 99.4531 201.469 99.0504 201.711C98.6637 201.936 98.3495 202.259 98.1079 202.677C97.8823 203.096 97.7695 203.58 97.7695 204.127C97.7695 204.659 97.8823 205.134 98.1079 205.553C98.3334 205.972 98.6476 206.302 99.0504 206.544C99.4531 206.786 99.9042 206.907 100.404 206.907ZM102.893 210V206.834L103.449 203.982L102.893 201.131V198.255H106.518V210H102.893ZM115.284 210.266C114.075 210.266 112.98 210 111.997 209.468C111.014 208.937 110.241 208.204 109.677 207.269C109.113 206.335 108.831 205.287 108.831 204.127C108.831 202.951 109.113 201.904 109.677 200.986C110.257 200.051 111.038 199.318 112.021 198.787C113.004 198.255 114.108 197.989 115.332 197.989C116.25 197.989 117.088 198.15 117.845 198.472C118.619 198.779 119.303 199.246 119.9 199.874L117.531 202.242C117.257 201.936 116.935 201.711 116.565 201.566C116.21 201.421 115.799 201.348 115.332 201.348C114.8 201.348 114.325 201.469 113.906 201.711C113.503 201.936 113.181 202.259 112.94 202.677C112.714 203.08 112.601 203.556 112.601 204.103C112.601 204.651 112.714 205.134 112.94 205.553C113.181 205.972 113.512 206.302 113.93 206.544C114.349 206.786 114.817 206.907 115.332 206.907C115.815 206.907 116.242 206.826 116.613 206.665C117 206.488 117.33 206.246 117.604 205.94L119.948 208.308C119.336 208.953 118.643 209.444 117.87 209.782C117.096 210.105 116.234 210.266 115.284 210.266ZM129.593 210L125.484 203.91L129.569 198.255H133.701L128.771 204.611L128.892 203.088L133.943 210H129.593ZM122.077 210V192.455H125.774V210H122.077Z" fill="#FBFBFB"></path></g><defs><linearGradient id="paint0_linear_299_2" x1="203.5" y1="145" x2="550" y2="145" gradientUnits="userSpaceOnUse"><stop stop-color="#151652"></stop><stop offset="1" stop-color="#333472"></stop></linearGradient><linearGradient id="paint1_linear_299_2" x1="50.3317" y1="50.3781" x2="29.3474" y2="30.2786" gradientUnits="userSpaceOnUse"><stop stop-color="#00B3D1"></stop><stop offset="1" stop-color="#00E4B5"></stop></linearGradient><clipPath id="clip0_299_2"><rect width="550" height="283" fill="white"></rect></clipPath><clipPath id="clip1_299_2"><rect width="164" height="164" fill="white" transform="translate(330 72)"></rect></clipPath></defs></svg> 