<svg width="173" height="187" viewBox="0 0 173 187" fill="none" xmlns="http://www.w3.org/2000/svg">
<g clip-path="url(#clip0_62_1243)">
<path fill-rule="evenodd" clip-rule="evenodd" d="M46.2224 57.815C47.2744 55.2944 48.1283 52.8776 49.3879 50.7531C54.2378 42.8589 64.9492 43.3542 71.3049 51.4341C74.7904 55.8683 74.4918 61.175 75.2892 66.2606C75.514 67.5566 75.4408 68.9582 75.4695 70.4579C77.3921 71.6214 79.2822 71.0851 81.3761 70.745C83.0419 63.7119 83.0042 56.5113 83.1683 49.4069C83.4215 36.4997 85.1783 23.7637 84.6297 10.7718C84.4169 4.8748 88.4378 0.69714 92.6561 1.61663C96.0689 2.25148 98.7105 4.40141 100.666 7.26454C103.238 11.016 104.416 15.0942 104.402 19.5953C104.572 33.6946 103.742 47.8131 102.612 61.9373C101.218 77.9669 102.622 93.8429 106.919 109.364C107.777 112.348 109.393 113.217 112.395 113.26C120.199 113.41 127.135 109.977 134.399 108.038C144.051 105.453 153.452 105.373 162.821 108.894C165.137 109.75 166.966 111.216 168.6 112.985C171.662 116.227 172.241 120.316 171.017 124.34C169.796 128.465 165.922 129.839 162.318 129.708C146.204 129.116 134.557 137.24 123.557 147.752C111.773 159.18 99.2741 169.821 88.1019 181.837C86.6308 183.365 84.9579 184.797 82.9697 185.436C74.1192 188.105 71.8592 195.45 70.5068 203.177C69.9623 206.088 70.0197 209.088 69.7752 211.993C69.7001 213.294 69.623 214.496 68.4405 215.419C66.537 215.255 66.5064 213.656 66.3816 212.358C65.6229 204.071 66.4717 196.153 70.9331 188.866C72.8735 185.729 75.6347 183.675 79.0112 182.411C82.0896 181.252 84.5528 179.304 86.8064 176.861C99.1517 163.422 113.129 151.653 126.395 139.297C135.827 130.415 146.929 125.201 160.239 125.547C162.94 125.595 166.443 125.728 167.268 121.812C167.899 118.199 165.733 114.74 161.901 113.113C155.145 110.242 147.939 109.979 140.863 111.315C135.283 112.422 129.713 114.029 124.352 116.131C119.189 118.131 113.779 117.634 108.57 117.233C106.167 117.079 104.827 115.005 103.983 112.72C102.29 107.852 101.194 102.872 100.199 97.89C92.9617 96.0281 87.8105 98.6271 83.9221 104.502C82.6568 106.327 81.5029 108.75 78.0016 108.717C78.2945 103.11 82.3383 100.132 85.5726 96.6695C89.3954 92.5957 94.3041 93.0019 99.6299 94.3003C98.8923 87.1131 98.4623 80.32 98.3323 73.5212C98.2066 61.7215 100.484 50.0758 100.659 38.2703C100.825 31.2659 100.791 24.2653 100.557 17.2685C100.277 13.073 98.5062 9.40621 94.859 6.97551C91.4137 4.64097 89.1314 5.58482 88.7156 9.99358C88.3883 13.8005 88.661 17.596 88.6337 21.3972C88.6643 22.9969 88.6968 24.6966 88.7312 26.4963C91.3518 27.5464 94.5359 26.6853 96.6833 29.1447C94.5353 31.8863 91.1015 30.1516 88.5269 31.5011C87.9169 36.2136 87.205 40.8281 87.5968 45.6215C89.5289 47.2848 92.9805 44.7184 94.0472 48.1986C92.801 51.0229 89.5576 48.7846 87.6962 50.8205C89.9187 51.9782 92.2896 50.4326 94.4122 51.5922C93.2774 55.0145 89.8589 54.0797 87.3804 55.2273C86.9761 60.236 86.4738 65.3466 86.0752 70.6551C87.9806 70.9188 89.786 71.1843 91.4914 71.4517C92.9969 71.723 94.7023 71.9904 94.5349 73.6939C94.3751 75.7974 92.4678 75.4338 90.8681 75.4644C83.7694 75.6002 76.6707 75.736 68.9721 75.8832C67.5871 81.9108 68.1075 88.202 67.6262 94.4123C67.4587 96.1158 67.6912 97.8117 67.4219 99.4172C65.4116 109.357 57.0648 112.218 48.9687 107.271C46.5107 114.72 43.5399 116.277 34.2168 115.155C33.6278 120.967 35.4671 128.233 28.0163 130.876C22.9497 132.674 18.3123 130.762 15.5095 125.415C14.8435 132.429 12.5741 139.273 14.5114 146.438C15.1496 148.426 14.9917 150.629 14.8319 152.733C14.0927 161.148 17.7297 168.28 21.4667 175.41C23.439 179.173 27.2728 180.9 30.8104 182.833C32.2254 183.606 34.5384 184.262 33.3769 186.284C32.3134 188.205 30.3889 186.941 28.8739 186.17C25.5439 184.634 22.3062 182.695 19.1418 179.355C18.3682 185.971 17.783 191.983 16.4923 197.709C15.0226 204.538 13.0474 211.077 9.05711 216.855C8.18023 218.072 7.22245 220.291 5.19987 219.129C3.0773 217.969 4.54262 216.141 5.3157 214.726C11.429 204.907 12.6146 193.683 14.6038 182.642C15.6907 176.721 15.9874 171.314 12.7828 165.874C11.5448 163.898 11.2913 161.102 11.0435 158.606C9.4473 143.134 10.3526 127.714 13.3594 112.353C14.8137 104.724 13.0649 96.9562 14.4192 89.3289C14.679 87.2236 14.8388 85.1201 15.7023 83.2033C17.2351 79.6733 20.0269 79.2198 23.355 80.6564C23.6803 76.7495 23.9096 73.0444 24.0407 69.4413C24.5359 58.7298 31.937 53.4874 42.3944 56.3879C43.6018 56.7649 44.7131 57.3437 46.2224 57.815ZM31.47 107.506C31.4033 107.507 31.3693 107.475 31.3681 107.408C31.3001 107.343 31.2656 107.277 31.2643 107.21C31.2668 107.343 31.2354 107.444 31.17 107.512C31.3033 107.509 31.4033 107.507 31.47 107.506ZM45.8507 101.13C45.2289 89.5398 45.7108 78.1285 45.9907 66.621C46.0525 64.6195 45.4181 62.8312 43.5936 61.5659C37.6163 57.5795 28.9848 61.2452 28.5207 68.3554C27.993 77.3671 27.8651 86.3712 28.4353 95.262C28.7136 99.3574 29.1939 103.549 31.2643 107.21C31.9188 99.5961 35.4894 98.0276 45.8507 101.13ZM33.5059 109.368C35.4438 111.331 37.8472 111.485 40.4429 111.235C42.1388 111.003 43.2214 110.082 43.4869 108.276C43.6543 106.573 43.6219 104.873 41.7069 104.11C39.692 103.348 37.3828 102.892 35.9175 104.721C34.6483 106.345 33.3677 107.37 31.47 107.506C32.1493 108.16 32.8279 108.78 33.5059 109.368ZM50.49 103.142C50.4233 103.143 50.39 103.144 50.39 103.144C50.3887 103.077 50.3874 103.01 50.3862 102.944C50.3208 103.011 50.2894 103.112 50.2919 103.245C50.3586 103.244 50.4246 103.21 50.49 103.142ZM50.7364 100.336C51.1407 95.3278 53.0849 92.39 56.4861 92.425C61.1853 92.3351 62.0521 95.8192 62.7208 99.407C62.8227 99.5051 63.0265 99.7013 63.2283 99.7974C64.4033 98.4747 64.0727 96.8807 64.144 95.3791C64.1278 91.0453 64.1449 86.7108 64.1954 82.3757C64.2901 76.8729 65.2943 71.8528 71.874 70.7267C71.4842 66.0333 71.4038 61.8341 70.3256 57.754C69.1379 53.1758 63.3471 48.4858 58.7537 48.8737C54.2602 49.2597 52.4294 52.8954 51.1023 56.7214C50.7215 57.7289 50.3446 58.9363 50.3656 60.0361C50.1392 74.3431 48.613 88.6748 50.3862 102.944C50.4709 102.142 50.6536 101.238 50.7364 100.336ZM59.1286 105.077C61.0072 103.941 59.4558 101.27 59.3176 99.2721C59.1889 97.7743 58.6546 95.9842 56.7549 96.0205C55.0553 96.053 54.3879 97.7661 54.4128 99.0658C54.4701 102.065 52.6819 102.7 50.49 103.142C53.1239 104.892 55.9674 107.138 59.1286 105.077ZM20.3168 83.9151C18.9419 85.2417 18.7687 86.6453 18.5936 87.9488C17.4889 98.1718 17.8839 108.366 18.2809 118.66C18.4249 120.958 19.2649 123.042 20.303 125.023C21.7562 127.796 24.3576 127.846 26.8495 127.398C28.6435 127.064 29.6127 125.445 29.1841 123.953C28.5383 121.565 27.1984 119.49 24.1085 120.049C23.1106 120.168 22.0089 120.089 21.786 118.893C21.5612 117.598 22.4457 116.78 23.5359 116.26C25.9144 115.114 27.7466 116.779 29.7616 117.541C30.627 115.724 29.7946 114.039 29.068 112.653C24.8195 104.933 23.6591 96.5535 23.6946 87.9513C23.7506 85.6498 22.2336 84.7786 20.3168 83.9151Z" fill="#FFE4E4"/>
<path d="M57.251 179.427C52.825 178.111 51.9563 174.527 51.5933 171.233C49.943 158.162 51.8131 146.124 62.0315 136.527C66.7483 132.136 69.3389 126.386 71.4237 120.345C72.6508 116.521 73.9798 112.794 76.2143 109.351C78.3369 110.511 77.3658 112.03 77.0888 113.235C74.2882 123.691 70.3725 133.367 62.5289 141.619C54.0988 150.582 54.2206 162.181 56.6421 173.737C56.9745 175.431 58.2049 177.008 57.251 179.427Z" fill="#FFE4E4"/>
<path d="M53.9024 187.392C50.1495 184.663 49.1981 181.981 50.1214 177.962C53.4667 180.299 53.724 183.294 53.9024 187.392Z" fill="#FFE4E4"/>
</g>
<defs>
<clipPath id="clip0_62_1243">
<rect width="173" height="187" fill="white"/>
</clipPath>
</defs>
</svg>
