<svg width="169" height="203" viewBox="0 0 169 203" fill="none" xmlns="http://www.w3.org/2000/svg">
<g clip-path="url(#clip0_62_1238)">
<path fill-rule="evenodd" clip-rule="evenodd" d="M89.6166 132.3C88.7166 150 84.8166 166.2 85.5165 182.8C85.8165 187.8 84.3165 192.6 83.1166 197.3C82.1166 201.2 77.8165 203.1 71.5165 202.9C67.5165 202.8 64.0166 200.3 62.8166 196.3C61.8832 193.367 61.4499 190.333 61.5165 187.2C61.5165 179 61.4166 170.9 61.6166 162.8C61.8166 154.3 59.4166 146.1 60.1166 137.6C61.0166 125.1 61.4166 112.5 62.1166 99.9C62.5166 92.6 61.4166 86 55.5166 80.8C52.7165 78.4 49.9166 77.2 46.4166 77.3C37.3166 77.5 28.2166 78.2 19.1166 77C12.5166 76.1 6.01655 75.4 2.01655 68.8C-0.483448 64.6 -0.18343 60.2 0.416577 55.7C0.916577 52.6 3.61657 52 6.31657 52.2C11.3166 52.5 16.3166 53.1 21.3166 53.5C24.1166 53.8 26.6166 54.1 28.2166 50.5C29.6166 47.3 32.9166 47.8 35.6166 48.9C39.3166 50.3 41.7166 49.5 44.7166 46.8C49.8166 42.3 56.0166 39 62.1166 35.9C68.4166 32.8 74.8166 30 80.7166 26.1C84.5166 23.6 87.6166 20.8 90.0166 16.7C97.0166 4.80001 102.717 -7.5 104.617 -21.4C104.817 -23.2 105.017 -25.4 107.517 -26C109.317 -24.7 108.717 -22.9 108.617 -21.3C107.517 -10.4 104.617 0.100003 98.8166 9.6C97.2166 12.2 95.7166 15 94.5166 17.8C90.8166 26.5 82.9166 30.6 75.3166 34.6C65.5166 39.9 55.1166 44.2 45.3166 49.5C42.2166 51.2 39.6166 54.2 39.4166 58.4C36.2166 57.9 36.3166 55 34.8166 53.6C33.3166 52.1 32.0166 51.3 30.9166 53.5C28.6166 58 24.8166 57.7 20.7166 57.3C15.3166 56.8 10.0166 55.6 4.61656 56.1C2.41656 65.4 5.61656 70.4 14.5166 72.1C23.2165 73.9 31.8166 73.5 40.5166 73.2C41.8166 73.2 43.0166 73.1 44.3166 73.1C57.0166 72.8 66.3166 82.3 65.8166 94.9C65.2166 110.4 63.8166 126 64.3166 141.5C64.8166 157.4 65.9166 173.4 65.8166 189.3C65.8166 191.1 66.4165 192.8 67.0165 195.6C67.9165 191 67.8166 186.5 72.9166 186.9C77.9166 187.2 78.1166 191.6 78.7166 196C80.1166 190.6 81.1166 185.9 80.9166 181C80.4166 163.8 84.2165 147 85.5165 129.9C85.6165 128 85.2166 124.9 88.4166 124.6C91.3166 124.3 91.8166 126.9 92.8166 128.9C93.7166 130.8 94.7166 132.6 96.3166 134.1C100.117 137.5 103.817 137.2 106.917 133.1C109.517 129.7 110.417 125.7 111.217 121.8C111.917 118.2 113.917 117.6 117.017 119C125.017 122.4 129.217 121 132.817 113.1C134.117 110.2 135.317 109.1 138.717 109.7C142.517 110.4 144.817 107.5 146.617 104.5C149.517 99.8 151.617 94.7 152.717 89.3C154.417 80.9 156.317 72.4 156.817 63.7C157.817 45.1 156.417 26.4 159.217 7.79999C160.217 0.799987 161.817 -6.20001 163.717 -13.1C163.917 -13.7667 164.15 -14.4333 164.417 -15.1C165.017 -16.4 165.617 -17.9 167.417 -17.3C169.217 -16.7 168.717 -15.1 168.417 -13.8C167.017 -7.19999 165.417 -0.700001 164.217 6C161.317 22.2 162.317 38.7 161.717 55.1C161.117 71.5 159.417 87.7 152.517 103C150.817 106.7 148.817 110.2 145.217 112.5C144.517 112.9 143.717 113.8 143.017 113.7C137.617 112.9 135.817 117 133.017 120.3C128.217 126 123.817 126.6 115.117 123.3C114.017 126.7 113.517 130.3 111.717 133.5C106.217 142.7 98.1166 143.3 91.4166 134.9C91.0166 134.4 90.6166 133.8 89.6166 132.3ZM69.7166 198.4C71.5166 198 73.2166 199.3 74.1166 197.4C75.0166 195.8 75.0166 194 74.4166 192.2C74.0166 191.2 73.5166 190.4 72.3166 190.6C71.3166 190.8 70.9166 191.6 70.9166 192.4C70.9166 194.3 70.5166 196.1 69.7166 198.4Z" fill="white"/>
<path d="M78.417 150.3C77.417 155.1 74.817 157 70.117 156.7C70.317 154.8 69.417 153.3 67.817 151.9C71.317 149.8 74.517 148.7 78.417 150.3Z" fill="white"/>
<path d="M83.3165 115.4C83.8165 117.7 82.1165 118.2 80.4165 118.6C76.3165 119.8 72.5165 119.2 70.5165 117.2C73.0165 114.8 78.0165 114.1 83.3165 115.4Z" fill="white"/>
<path d="M112.617 114.2C110.417 110 110.717 106.5 111.217 103C111.417 102.2 111.917 101.7 112.617 101.6C113.417 101.5 114.117 102 114.217 102.7C114.517 106.2 115.517 109.9 112.617 114.2Z" fill="white"/>
</g>
<defs>
<clipPath id="clip0_62_1238">
<rect width="169" height="203" fill="white"/>
</clipPath>
</defs>
</svg>
