<?xml version="1.0" encoding="UTF-8"?> <svg xmlns="http://www.w3.org/2000/svg" width="550" height="283" viewBox="0 0 550 283" fill="none"><g clip-path="url(#clip0_285_2179)"><rect width="550" height="283" fill="#051F23"></rect><rect width="550" height="283" fill="#051F23"></rect><rect style="mix-blend-mode:color-dodge" width="550" height="283" fill="url(#paint0_radial_285_2179)"></rect><rect x="97" y="165.5" width="145" height="87" rx="18" fill="#F0F5FF"></rect><path d="M196.002 223.302C188.002 233.975 170.913 230.372 159.956 230.89C159.956 230.89 158.017 230.998 156.063 231.32C156.063 231.32 156.802 231.005 157.744 230.679C165.439 228.015 169.076 227.479 173.752 225.075C182.537 220.569 191.281 210.753 193.06 200.557C189.716 210.363 179.545 218.804 170.285 222.231C163.946 224.573 152.484 226.852 152.482 226.853C152.487 226.861 152.025 226.613 152.019 226.608C144.223 222.81 143.998 205.905 158.156 200.455C164.364 198.064 170.301 199.377 177.012 197.778C184.169 196.074 192.459 190.703 195.828 183.68C199.605 194.898 204.142 212.448 196.002 223.302ZM196.141 180.204C195.189 182.469 194.027 184.511 192.687 186.337C186.789 180.276 178.557 176.5 169.458 176.5C151.56 176.5 137 191.08 137 208.998C137 218.391 141.004 226.863 147.388 232.801L148.099 233.432C146.912 232.462 146.73 230.717 147.692 229.528C148.66 228.337 150.404 228.153 151.592 229.117C152.783 230.083 152.964 231.832 152 233.024C151.039 234.216 149.292 234.397 148.102 233.434L148.586 233.863C154.233 238.624 161.513 241.5 169.458 241.5C186.566 241.5 200.614 228.169 201.817 211.343C202.707 203.105 200.277 192.644 196.141 180.204Z" fill="#5FB832"></path><g clip-path="url(#clip1_285_2179)"><path d="M254 263C255.479 258.402 257 253.82 258.498 249.23L263.067 235.486C264.581 230.9 266.139 226.333 267.682 221.757L272.315 208.036L274.221 210.789L271.09 210.871C270.045 210.905 269.004 210.905 267.959 210.916C266.914 210.935 265.873 210.905 264.828 210.901C263.783 210.89 262.742 210.853 261.697 210.83L258.663 210.766L259.738 208.044L264.993 194.761C266.753 190.336 268.483 185.9 270.27 181.486L275.596 168.23C277.397 163.82 279.176 159.403 281 155C279.607 159.556 278.165 164.097 276.749 168.646L272.423 182.262C270.993 186.804 269.506 191.326 268.049 195.864L263.652 209.454L261.697 206.667C262.742 206.645 263.783 206.607 264.828 206.596C265.873 206.596 266.914 206.562 267.959 206.581C269.004 206.593 270.045 206.592 271.09 206.626L274.221 206.709L277.221 206.788L276.127 209.461L270.652 222.868C268.824 227.334 267.011 231.808 265.157 236.266L259.618 249.646C257.745 254.097 255.899 258.556 254.007 263H254Z" fill="#42E8E0"></path></g><rect x="293" y="165.5" width="145" height="87" rx="18" fill="#F0F5FF"></rect><path fill-rule="evenodd" clip-rule="evenodd" d="M371.263 176.515C370.795 176.515 370.358 176.616 369.959 176.747C370.814 177.325 371.282 178.077 371.52 178.936C371.536 179.052 371.57 179.137 371.585 179.256C371.601 179.376 371.624 179.457 371.624 179.565C371.693 181.049 371.24 181.234 370.918 182.109C370.431 183.238 370.565 184.452 371.148 185.424C371.201 185.554 371.268 185.678 371.348 185.794C370.711 181.531 374.252 180.887 374.904 179.557C374.954 178.393 373.999 177.618 373.243 177.078C372.522 176.639 371.862 176.5 371.263 176.5V176.515ZM376.597 177.479C376.527 177.865 376.581 177.764 376.558 177.969L376.52 178.408L376.405 178.813C376.366 178.948 376.32 179.083 376.27 179.218L376.086 179.603C376.036 179.673 376.002 179.738 375.952 179.804L375.852 179.958L375.599 180.293C375.499 180.393 375.415 180.513 375.292 180.602C375.169 180.69 375.092 180.802 374.973 180.887C374.62 181.157 374.218 181.357 373.849 181.611C373.734 181.696 373.619 181.766 373.515 181.866C373.402 181.947 373.295 182.037 373.197 182.136C373.082 182.236 372.997 182.336 372.89 182.456C372.783 182.575 372.706 182.675 372.637 182.791L372.407 183.146L372.222 183.531L372.088 183.917L371.973 184.341C371.958 184.41 371.958 184.495 371.935 184.56C371.912 184.626 371.919 184.695 371.896 184.761L371.881 185.185C371.881 185.285 371.881 185.385 371.896 185.493C371.896 185.628 371.912 185.763 371.946 185.917C371.981 186.072 371.996 186.187 372.031 186.322L372.165 186.727C372.203 186.812 372.249 186.896 372.28 186.958L368.42 185.455L366.475 184.954L365.416 184.699C364.406 184.497 363.386 184.345 362.361 184.244C362.323 184.244 362.311 184.229 362.277 184.229L359.273 184.075L357.074 184.16C356.05 184.229 355.025 184.36 354.004 184.53L353.249 184.665L351.737 185L350.981 185.2L350.26 185.52L349.707 185.775C349.669 185.79 349.638 185.79 349.623 185.813L349.155 186.045C349.105 186.06 349.07 186.083 349.039 186.095L348.518 186.364C348.402 186.415 348.287 186.48 348.184 186.534C348.134 186.573 348.069 186.6 348.03 186.619L347.593 186.873C347.454 186.95 347.319 187.035 347.19 187.128L346.856 187.359L346.488 187.629L346.204 187.86C346.166 187.876 346.135 187.91 346.104 187.93L345.851 188.149C345.836 188.188 345.801 188.199 345.782 188.219L345.475 188.504L345.141 188.824L344.857 189.132C344.819 189.171 344.773 189.202 344.742 189.232C344.652 189.338 344.557 189.44 344.458 189.537C344.443 189.576 344.408 189.587 344.389 189.622L344.005 190.027L343.1 190.902C342.793 191.171 342.478 191.426 342.16 191.642L341.154 192.282C340.821 192.467 340.464 192.636 340.095 192.783C339.739 192.935 339.375 193.07 339.006 193.188C338.3 193.342 337.578 193.627 336.957 193.677C336.822 193.677 336.673 193.716 336.535 193.727L336.113 193.827L335.71 193.982C335.572 194.036 335.438 194.098 335.307 194.167C335.192 194.251 335.054 194.321 334.939 194.398C334.823 194.475 334.708 194.583 334.605 194.683C334.501 194.783 334.374 194.884 334.271 194.992L333.987 195.327C333.903 195.462 333.803 195.581 333.734 195.712C333.646 195.836 333.568 195.966 333.5 196.102L333.315 196.541L333.162 196.981L333.078 197.385C333.028 197.586 333.028 197.79 333.009 197.887C332.989 197.983 333.009 198.11 333.009 198.23C333.005 198.303 333.01 198.377 333.024 198.449C333.039 198.565 333.062 198.669 333.093 198.769L333.208 199.078C333.258 199.193 333.323 199.297 333.392 199.398L333.611 199.706L333.895 199.976C333.993 200.075 334.1 200.165 334.213 200.246C334.616 200.6 334.712 200.716 335.238 200.986C335.322 201.036 335.407 201.071 335.506 201.121C335.556 201.171 335.556 201.186 335.575 201.221C335.591 201.356 335.625 201.491 335.66 201.626C335.692 201.765 335.737 201.9 335.794 202.03L335.928 202.339C335.944 202.377 335.967 202.408 335.978 202.424L336.178 202.794L336.431 203.148L336.715 203.468C336.815 203.569 336.915 203.653 337.034 203.754L337.367 204.008C337.482 204.093 337.598 204.162 337.736 204.228C337.86 204.3 337.989 204.361 338.123 204.413C338.223 204.463 338.342 204.498 338.457 204.528C338.572 204.559 338.676 204.598 338.741 204.613C338.691 205.523 338.672 206.386 338.81 206.687C338.964 207.022 339.7 205.993 340.437 204.818C340.337 205.982 340.268 207.346 340.437 207.747C340.606 208.148 341.626 206.853 342.501 205.403C354.396 202.64 365.254 210.9 366.394 222.565C366.175 220.746 363.946 219.732 362.922 219.982C362.423 221.231 361.563 222.835 360.186 223.826C360.301 222.708 360.251 221.567 360.017 220.453C359.642 222.005 358.932 223.455 357.937 224.701C356.345 224.816 354.753 224.045 353.909 222.881C353.839 222.831 353.824 222.727 353.774 222.661L353.64 222.307C353.59 222.191 353.556 222.076 353.54 221.952C353.525 221.829 353.525 221.721 353.525 221.582V221.328C353.54 221.212 353.575 221.096 353.609 220.973L353.724 220.618C353.793 220.503 353.839 220.387 353.924 220.264C354.208 219.493 354.208 218.799 353.694 218.413C353.594 218.344 353.494 218.298 353.375 218.244C353.306 218.228 353.222 218.194 353.156 218.174L353.022 218.124L352.669 218.04C352.554 218.006 352.436 217.989 352.316 217.989C352.194 217.97 352.071 217.958 351.948 217.955C351.863 217.955 351.779 217.97 351.695 217.97C351.57 217.969 351.446 217.986 351.326 218.02L350.973 218.086L350.62 218.201L350.286 218.356L349.968 218.525C346.054 221.089 348.395 227.083 351.058 228.825C350.052 229.01 349.024 229.23 348.744 229.45C349.435 229.92 350.187 230.298 350.977 230.614L353.694 231.385C355.086 231.693 356.495 231.79 357.922 231.705C361.548 231.438 364.974 229.936 367.635 227.447C370.295 224.958 372.03 221.631 372.552 218.016L372.652 218.456L372.806 219.4L372.875 219.855L372.913 220.356L372.951 220.911V221.181C372.951 221.266 372.967 221.366 372.967 221.451C372.967 221.536 372.951 221.652 372.951 221.759V221.991C372.951 222.106 372.936 222.21 372.936 222.326C372.936 222.392 372.936 222.461 372.921 222.546L372.905 222.916C372.89 222.966 372.89 223.016 372.89 223.07L372.84 223.456C372.84 223.506 372.84 223.556 372.825 223.61L372.76 224.099V224.138L372.66 224.608L372.56 225.109L372.426 225.634L372.291 226.158L372.123 226.697L371.754 227.677L371.555 228.166L371.325 228.636C371.309 228.687 371.286 228.721 371.275 228.752C370.15 231.011 368.539 232.954 366.524 234.465C366.39 234.55 366.256 234.65 366.122 234.75C366.083 234.789 366.037 234.8 366.006 234.835L365.638 235.089L365.688 235.19H365.703L366.409 235.089H366.425L367.729 234.858C367.844 234.843 367.983 234.808 368.098 234.773L368.328 234.723L368.681 234.658L368.988 234.573C370.665 234.168 372.288 233.609 373.853 232.954C371.186 236.616 367.61 239.561 363.432 241.5C365.362 241.365 367.292 241.045 369.149 240.505C375.91 238.501 381.6 233.933 385.007 227.777C384.316 231.68 382.775 235.381 380.495 238.617C382.122 237.537 383.614 236.292 384.976 234.877C388.732 230.938 391.197 225.938 392.04 220.549C392.616 223.209 392.777 225.961 392.528 228.675C404.641 211.698 393.533 194.097 388.883 189.464C388.867 189.425 388.844 189.414 388.844 189.379C388.806 189.579 388.794 189.784 388.779 189.984C388.729 190.37 388.679 190.744 388.61 191.114C388.541 191.484 388.426 191.854 388.326 192.232C388.226 192.609 388.073 192.956 387.923 193.311C387.774 193.666 387.605 194.005 387.424 194.34C387.24 194.67 387.038 194.99 386.822 195.3C386.603 195.62 386.369 195.924 386.131 196.21C385.881 196.503 385.617 196.785 385.341 197.054C385.172 197.208 385.023 197.339 384.854 197.478L384.47 197.813C384.17 198.052 383.856 198.272 383.53 198.472C383.21 198.68 382.879 198.872 382.54 199.047C382.187 199.216 381.834 199.367 381.481 199.517C381.124 199.653 380.76 199.771 380.391 199.872C380.023 199.972 379.635 200.057 379.267 200.126C378.899 200.196 378.5 200.226 378.127 200.261C377.859 200.277 377.59 200.3 377.36 200.3C376.976 200.3 376.593 200.261 376.221 200.23C375.848 200.199 375.453 200.145 375.077 200.061C374.696 199.991 374.321 199.896 373.953 199.775H373.938C374.306 199.737 374.674 199.706 375.05 199.64C375.426 199.575 375.806 199.486 376.174 199.386C376.543 199.286 376.911 199.166 377.264 199.031C377.617 198.897 377.986 198.723 378.323 198.561C378.667 198.393 379.003 198.207 379.328 198.006C379.647 197.786 379.965 197.567 380.269 197.331C380.569 197.096 380.855 196.843 381.124 196.572C381.408 196.318 381.661 196.032 381.915 195.747C382.168 195.462 382.402 195.142 382.621 194.837C382.659 194.787 382.69 194.722 382.72 194.668L383.208 193.897C383.392 193.561 383.561 193.222 383.706 192.868C383.852 192.513 383.99 192.158 384.109 191.788C384.228 191.418 384.309 191.064 384.393 190.693C384.478 190.323 384.528 189.934 384.562 189.564C384.597 189.194 384.627 188.793 384.627 188.419C384.627 188.149 384.612 187.879 384.589 187.648C384.551 187.263 384.505 186.889 384.455 186.519C384.388 186.138 384.303 185.762 384.201 185.389C384.086 185.035 383.971 184.665 383.833 184.31C383.695 183.955 383.526 183.601 383.365 183.269C383.204 182.938 382.997 182.594 382.789 182.275C382.582 181.955 382.352 181.65 382.118 181.349L381.351 180.49C381.209 180.345 381.063 180.205 380.913 180.07C380.161 179.482 379.383 178.931 378.58 178.416C378.465 178.35 378.362 178.3 378.246 178.246C377.694 177.892 377.172 177.707 376.654 177.537L376.597 177.479Z" fill="#EA2845"></path><path d="M184.881 100.24C183.521 100.24 182.353 100.008 181.377 99.544C180.417 99.08 179.545 98.384 178.761 97.456L180.921 95.296C181.417 95.952 181.993 96.464 182.649 96.832C183.305 97.184 184.105 97.36 185.049 97.36C185.897 97.36 186.569 97.192 187.065 96.856C187.577 96.52 187.833 96.056 187.833 95.464C187.833 94.952 187.689 94.536 187.401 94.216C187.113 93.896 186.729 93.624 186.249 93.4C185.785 93.176 185.265 92.976 184.689 92.8C184.129 92.608 183.561 92.392 182.985 92.152C182.425 91.912 181.905 91.616 181.425 91.264C180.961 90.896 180.585 90.432 180.297 89.872C180.009 89.296 179.865 88.576 179.865 87.712C179.865 86.688 180.113 85.816 180.609 85.096C181.105 84.376 181.785 83.824 182.649 83.44C183.513 83.056 184.489 82.864 185.577 82.864C186.729 82.864 187.769 83.08 188.697 83.512C189.625 83.944 190.385 84.504 190.977 85.192L188.817 87.352C188.321 86.808 187.809 86.408 187.281 86.152C186.769 85.896 186.185 85.768 185.529 85.768C184.777 85.768 184.185 85.912 183.753 86.2C183.321 86.488 183.105 86.904 183.105 87.448C183.105 87.912 183.249 88.288 183.537 88.576C183.825 88.864 184.201 89.112 184.665 89.32C185.145 89.528 185.665 89.728 186.225 89.92C186.801 90.112 187.369 90.328 187.929 90.568C188.505 90.808 189.025 91.12 189.489 91.504C189.969 91.888 190.353 92.384 190.641 92.992C190.929 93.584 191.073 94.32 191.073 95.2C191.073 96.768 190.521 98 189.417 98.896C188.313 99.792 186.801 100.24 184.881 100.24ZM200.225 100.24C199.393 100.24 198.641 100.072 197.969 99.736C197.297 99.384 196.761 98.912 196.361 98.32C195.961 97.728 195.745 97.048 195.713 96.28V92.176C195.745 91.408 195.961 90.728 196.361 90.136C196.777 89.528 197.313 89.048 197.969 88.696C198.641 88.344 199.393 88.168 200.225 88.168C201.297 88.168 202.257 88.432 203.105 88.96C203.953 89.488 204.617 90.208 205.097 91.12C205.593 92.032 205.841 93.064 205.841 94.216C205.841 95.352 205.593 96.376 205.097 97.288C204.617 98.2 203.953 98.92 203.105 99.448C202.257 99.976 201.297 100.24 200.225 100.24ZM199.673 97.336C200.249 97.336 200.761 97.208 201.209 96.952C201.657 96.68 202.001 96.312 202.241 95.848C202.497 95.368 202.625 94.816 202.625 94.192C202.625 93.584 202.497 93.048 202.241 92.584C202.001 92.104 201.657 91.736 201.209 91.48C200.761 91.208 200.249 91.072 199.673 91.072C199.113 91.072 198.609 91.208 198.161 91.48C197.713 91.736 197.361 92.104 197.105 92.584C196.865 93.048 196.745 93.584 196.745 94.192C196.745 94.816 196.865 95.368 197.105 95.848C197.361 96.312 197.705 96.68 198.137 96.952C198.585 97.208 199.097 97.336 199.673 97.336ZM193.793 104.848V88.408H196.937V91.456L196.409 94.264L196.913 97.072V104.848H193.793ZM208.382 100V88.408H211.526V100H208.382ZM211.526 93.592L210.302 92.776C210.446 91.352 210.862 90.232 211.55 89.416C212.238 88.584 213.23 88.168 214.526 88.168C215.086 88.168 215.59 88.264 216.038 88.456C216.486 88.632 216.894 88.928 217.262 89.344L215.294 91.6C215.118 91.408 214.902 91.264 214.646 91.168C214.406 91.072 214.126 91.024 213.806 91.024C213.134 91.024 212.582 91.24 212.15 91.672C211.734 92.088 211.526 92.728 211.526 93.592ZM218.847 100V88.408H222.015V100H218.847ZM220.431 86.536C219.919 86.536 219.495 86.368 219.159 86.032C218.823 85.68 218.655 85.248 218.655 84.736C218.655 84.24 218.823 83.816 219.159 83.464C219.495 83.112 219.919 82.936 220.431 82.936C220.959 82.936 221.383 83.112 221.703 83.464C222.039 83.816 222.207 84.24 222.207 84.736C222.207 85.248 222.039 85.68 221.703 86.032C221.383 86.368 220.959 86.536 220.431 86.536ZM233.08 100V93.352C233.08 92.664 232.864 92.104 232.432 91.672C232 91.24 231.44 91.024 230.752 91.024C230.304 91.024 229.904 91.12 229.552 91.312C229.2 91.504 228.92 91.776 228.712 92.128C228.52 92.48 228.424 92.888 228.424 93.352L227.2 92.728C227.2 91.816 227.392 91.024 227.776 90.352C228.176 89.664 228.72 89.128 229.408 88.744C230.112 88.36 230.904 88.168 231.784 88.168C232.632 88.168 233.392 88.384 234.064 88.816C234.736 89.232 235.264 89.784 235.648 90.472C236.032 91.144 236.224 91.872 236.224 92.656V100H233.08ZM225.28 100V88.408H228.424V100H225.28ZM244.085 105.136C242.853 105.136 241.765 104.912 240.821 104.464C239.877 104.032 239.125 103.416 238.565 102.616L240.557 100.624C241.005 101.152 241.501 101.552 242.045 101.824C242.605 102.112 243.277 102.256 244.061 102.256C245.037 102.256 245.805 102.008 246.365 101.512C246.941 101.016 247.229 100.328 247.229 99.448V96.544L247.757 94L247.253 91.456V88.408H250.373V99.4C250.373 100.552 250.101 101.552 249.557 102.4C249.029 103.264 248.293 103.936 247.349 104.416C246.405 104.896 245.317 105.136 244.085 105.136ZM243.941 99.688C242.901 99.688 241.965 99.44 241.133 98.944C240.301 98.432 239.645 97.736 239.165 96.856C238.701 95.976 238.469 94.992 238.469 93.904C238.469 92.816 238.701 91.84 239.165 90.976C239.645 90.112 240.301 89.432 241.133 88.936C241.965 88.424 242.901 88.168 243.941 88.168C244.805 88.168 245.565 88.336 246.221 88.672C246.893 89.008 247.421 89.472 247.805 90.064C248.189 90.64 248.397 91.32 248.429 92.104V95.752C248.397 96.52 248.181 97.208 247.781 97.816C247.397 98.408 246.869 98.872 246.197 99.208C245.541 99.528 244.789 99.688 243.941 99.688ZM244.565 96.832C245.141 96.832 245.637 96.712 246.053 96.472C246.485 96.216 246.821 95.872 247.061 95.44C247.301 94.992 247.421 94.488 247.421 93.928C247.421 93.352 247.301 92.848 247.061 92.416C246.821 91.984 246.485 91.648 246.053 91.408C245.637 91.152 245.141 91.024 244.565 91.024C243.989 91.024 243.485 91.152 243.053 91.408C242.621 91.648 242.285 91.992 242.045 92.44C241.805 92.872 241.685 93.368 241.685 93.928C241.685 94.472 241.805 94.968 242.045 95.416C242.285 95.848 242.621 96.192 243.053 96.448C243.485 96.704 243.989 96.832 244.565 96.832Z" fill="white"></path><path d="M266.625 96.5L263.889 85.3H265.105L267.649 95.828H266.929L273.729 85.3H274.977L267.777 96.5H266.625ZM277.963 96.596C277.419 96.596 276.88 96.5373 276.347 96.42C275.824 96.292 275.35 96.1213 274.923 95.908C274.496 95.684 274.155 95.4387 273.899 95.172L274.475 94.244C274.731 94.5107 275.046 94.7453 275.419 94.948C275.803 95.1507 276.224 95.3107 276.683 95.428C277.142 95.5347 277.6 95.588 278.059 95.588C278.72 95.588 279.296 95.5027 279.787 95.332C280.288 95.1613 280.678 94.9107 280.955 94.58C281.232 94.2493 281.371 93.8493 281.371 93.38C281.371 93.0067 281.264 92.708 281.051 92.484C280.838 92.2493 280.56 92.0627 280.219 91.924C279.878 91.7747 279.499 91.6413 279.083 91.524C278.667 91.4067 278.251 91.2787 277.835 91.14C277.419 91.0013 277.035 90.8307 276.683 90.628C276.342 90.4253 276.064 90.1587 275.851 89.828C275.648 89.4973 275.547 89.0813 275.547 88.58C275.547 87.876 275.739 87.2733 276.123 86.772C276.507 86.26 277.035 85.8707 277.707 85.604C278.379 85.3373 279.152 85.204 280.027 85.204C280.688 85.204 281.323 85.284 281.931 85.444C282.55 85.604 283.072 85.844 283.499 86.164L283.003 87.124C282.598 86.8253 282.134 86.6013 281.611 86.452C281.088 86.292 280.539 86.212 279.963 86.212C279.312 86.212 278.742 86.3027 278.251 86.484C277.76 86.6653 277.376 86.9267 277.099 87.268C276.832 87.5987 276.699 87.9987 276.699 88.468C276.699 88.8413 276.8 89.1453 277.003 89.38C277.216 89.6147 277.494 89.8067 277.835 89.956C278.187 90.1053 278.571 90.244 278.987 90.372C279.403 90.4893 279.819 90.6173 280.235 90.756C280.651 90.884 281.03 91.0493 281.371 91.252C281.723 91.444 282.006 91.7 282.219 92.02C282.432 92.3293 282.539 92.7293 282.539 93.22C282.539 93.9347 282.342 94.548 281.947 95.06C281.552 95.5613 281.008 95.9453 280.315 96.212C279.632 96.468 278.848 96.596 277.963 96.596Z" fill="#42E8E0"></path><path d="M295.93 100V83.128H298.21L299.194 86.392V100H295.93ZM307.594 100L297.586 87.04L298.21 83.128L308.218 96.088L307.594 100ZM307.594 100L306.658 96.832V83.128H309.946V100H307.594ZM319.056 100.24C317.84 100.24 316.76 99.984 315.816 99.472C314.872 98.944 314.12 98.224 313.56 97.312C313.016 96.4 312.744 95.36 312.744 94.192C312.744 93.04 313.008 92.016 313.536 91.12C314.08 90.208 314.816 89.488 315.744 88.96C316.672 88.416 317.704 88.144 318.84 88.144C319.96 88.144 320.944 88.4 321.792 88.912C322.656 89.408 323.328 90.096 323.808 90.976C324.304 91.84 324.552 92.824 324.552 93.928C324.552 94.136 324.536 94.352 324.504 94.576C324.488 94.784 324.448 95.024 324.384 95.296L314.64 95.32V92.968L322.92 92.944L321.648 93.928C321.616 93.24 321.488 92.664 321.264 92.2C321.056 91.736 320.744 91.384 320.328 91.144C319.928 90.888 319.432 90.76 318.84 90.76C318.216 90.76 317.672 90.904 317.208 91.192C316.744 91.464 316.384 91.856 316.128 92.368C315.888 92.864 315.768 93.456 315.768 94.144C315.768 94.848 315.896 95.464 316.152 95.992C316.424 96.504 316.808 96.904 317.304 97.192C317.8 97.464 318.376 97.6 319.032 97.6C319.624 97.6 320.16 97.504 320.64 97.312C321.12 97.104 321.536 96.8 321.888 96.4L323.736 98.248C323.176 98.904 322.488 99.4 321.672 99.736C320.872 100.072 320 100.24 319.056 100.24ZM330.96 100.264C330.304 100.264 329.656 100.176 329.016 100C328.392 99.824 327.816 99.584 327.288 99.28C326.76 98.96 326.304 98.576 325.92 98.128L327.792 96.232C328.192 96.68 328.656 97.016 329.184 97.24C329.712 97.464 330.296 97.576 330.936 97.576C331.448 97.576 331.832 97.504 332.088 97.36C332.36 97.216 332.496 97 332.496 96.712C332.496 96.392 332.352 96.144 332.064 95.968C331.792 95.792 331.432 95.648 330.984 95.536C330.536 95.408 330.064 95.272 329.568 95.128C329.088 94.968 328.624 94.768 328.176 94.528C327.728 94.272 327.36 93.928 327.072 93.496C326.8 93.048 326.664 92.472 326.664 91.768C326.664 91.032 326.84 90.392 327.192 89.848C327.56 89.304 328.08 88.88 328.752 88.576C329.424 88.272 330.216 88.12 331.128 88.12C332.088 88.12 332.952 88.288 333.72 88.624C334.504 88.96 335.152 89.464 335.664 90.136L333.768 92.032C333.416 91.6 333.016 91.288 332.568 91.096C332.136 90.904 331.664 90.808 331.152 90.808C330.688 90.808 330.328 90.88 330.072 91.024C329.832 91.168 329.712 91.368 329.712 91.624C329.712 91.912 329.848 92.136 330.12 92.296C330.408 92.456 330.776 92.6 331.224 92.728C331.672 92.84 332.136 92.976 332.616 93.136C333.112 93.28 333.576 93.488 334.008 93.76C334.456 94.032 334.816 94.392 335.088 94.84C335.376 95.288 335.52 95.864 335.52 96.568C335.52 97.704 335.112 98.608 334.296 99.28C333.48 99.936 332.368 100.264 330.96 100.264ZM339.824 100V83.584H342.968V100H339.824ZM337.112 91.168V88.408H345.68V91.168H337.112ZM351.624 100.24C350.6 100.24 349.696 100.048 348.912 99.664C348.144 99.264 347.504 98.728 346.992 98.056L349.2 95.944C349.488 96.36 349.832 96.68 350.232 96.904C350.648 97.112 351.104 97.216 351.6 97.216C352.096 97.216 352.528 97.112 352.896 96.904C353.28 96.696 353.568 96.392 353.76 95.992C353.968 95.592 354.072 95.104 354.072 94.528V83.128H357.36V94.336C357.36 95.52 357.12 96.56 356.64 97.456C356.176 98.336 355.512 99.024 354.648 99.52C353.8 100 352.792 100.24 351.624 100.24ZM365.758 100.24C364.398 100.24 363.23 100.008 362.254 99.544C361.294 99.08 360.422 98.384 359.638 97.456L361.798 95.296C362.294 95.952 362.87 96.464 363.526 96.832C364.182 97.184 364.982 97.36 365.926 97.36C366.774 97.36 367.446 97.192 367.942 96.856C368.454 96.52 368.71 96.056 368.71 95.464C368.71 94.952 368.566 94.536 368.278 94.216C367.99 93.896 367.606 93.624 367.126 93.4C366.662 93.176 366.142 92.976 365.566 92.8C365.006 92.608 364.438 92.392 363.862 92.152C363.302 91.912 362.782 91.616 362.302 91.264C361.838 90.896 361.462 90.432 361.174 89.872C360.886 89.296 360.742 88.576 360.742 87.712C360.742 86.688 360.99 85.816 361.486 85.096C361.982 84.376 362.662 83.824 363.526 83.44C364.39 83.056 365.366 82.864 366.454 82.864C367.606 82.864 368.646 83.08 369.574 83.512C370.502 83.944 371.262 84.504 371.854 85.192L369.694 87.352C369.198 86.808 368.686 86.408 368.158 86.152C367.646 85.896 367.062 85.768 366.406 85.768C365.654 85.768 365.062 85.912 364.63 86.2C364.198 86.488 363.982 86.904 363.982 87.448C363.982 87.912 364.126 88.288 364.414 88.576C364.702 88.864 365.078 89.112 365.542 89.32C366.022 89.528 366.542 89.728 367.102 89.92C367.678 90.112 368.246 90.328 368.806 90.568C369.382 90.808 369.902 91.12 370.366 91.504C370.846 91.888 371.23 92.384 371.518 92.992C371.806 93.584 371.95 94.32 371.95 95.2C371.95 96.768 371.398 98 370.294 98.896C369.19 99.792 367.678 100.24 365.758 100.24Z" fill="white"></path><rect x="143" y="109" width="265" height="32" rx="8" fill="#42E8E0"></rect><path d="M158.929 130L155.709 120.2H157.291L159.713 127.746H159.293L161.659 120.2H162.779L165.145 127.746H164.725L167.147 120.2H168.729L165.509 130H164.389L162.009 122.468H162.429L160.049 130H158.929ZM174.559 130V126.122C174.559 125.674 174.414 125.305 174.125 125.016C173.845 124.727 173.481 124.582 173.033 124.582C172.734 124.582 172.468 124.647 172.235 124.778C172.001 124.909 171.819 125.091 171.689 125.324C171.558 125.557 171.493 125.823 171.493 126.122L170.891 125.786C170.891 125.273 171.003 124.82 171.227 124.428C171.451 124.027 171.759 123.714 172.151 123.49C172.552 123.257 173 123.14 173.495 123.14C173.999 123.14 174.447 123.252 174.839 123.476C175.231 123.7 175.539 124.013 175.763 124.414C175.987 124.806 176.099 125.263 176.099 125.786V130H174.559ZM169.953 130V119.92H171.493V130H169.953ZM177.678 130V123.28H179.218V130H177.678ZM178.448 122.048C178.186 122.048 177.967 121.959 177.79 121.782C177.622 121.605 177.538 121.385 177.538 121.124C177.538 120.863 177.622 120.643 177.79 120.466C177.967 120.289 178.186 120.2 178.448 120.2C178.718 120.2 178.938 120.289 179.106 120.466C179.274 120.643 179.358 120.863 179.358 121.124C179.358 121.385 179.274 121.605 179.106 121.782C178.938 121.959 178.718 122.048 178.448 122.048ZM184.039 130.14C183.376 130.14 182.774 129.986 182.233 129.678C181.701 129.37 181.281 128.95 180.973 128.418C180.665 127.886 180.511 127.293 180.511 126.64C180.511 125.977 180.665 125.385 180.973 124.862C181.281 124.33 181.701 123.91 182.233 123.602C182.774 123.294 183.376 123.14 184.039 123.14C184.561 123.14 185.047 123.243 185.495 123.448C185.952 123.644 186.339 123.929 186.657 124.302L185.649 125.324C185.453 125.091 185.215 124.918 184.935 124.806C184.664 124.685 184.365 124.624 184.039 124.624C183.656 124.624 183.315 124.713 183.017 124.89C182.727 125.058 182.499 125.291 182.331 125.59C182.172 125.889 182.093 126.239 182.093 126.64C182.093 127.032 182.172 127.382 182.331 127.69C182.499 127.989 182.727 128.227 183.017 128.404C183.315 128.572 183.656 128.656 184.039 128.656C184.365 128.656 184.664 128.6 184.935 128.488C185.215 128.367 185.453 128.189 185.649 127.956L186.657 128.978C186.339 129.351 185.952 129.641 185.495 129.846C185.047 130.042 184.561 130.14 184.039 130.14ZM192.373 130V126.122C192.373 125.674 192.228 125.305 191.939 125.016C191.659 124.727 191.295 124.582 190.847 124.582C190.548 124.582 190.282 124.647 190.049 124.778C189.816 124.909 189.634 125.091 189.503 125.324C189.372 125.557 189.307 125.823 189.307 126.122L188.705 125.786C188.705 125.273 188.817 124.82 189.041 124.428C189.265 124.027 189.573 123.714 189.965 123.49C190.366 123.257 190.814 123.14 191.309 123.14C191.813 123.14 192.261 123.252 192.653 123.476C193.045 123.7 193.353 124.013 193.577 124.414C193.801 124.806 193.913 125.263 193.913 125.786V130H192.373ZM187.767 130V119.92H189.307V130H187.767ZM198.491 130V120.2H200.101V130H198.491ZM199.597 125.8V124.33H204.581V125.8H199.597ZM199.597 121.67V120.2H204.819V121.67H199.597ZM206.21 130V123.28H207.75V130H206.21ZM207.75 126.262L207.218 125.996C207.218 125.147 207.405 124.461 207.778 123.938C208.161 123.406 208.735 123.14 209.5 123.14C209.836 123.14 210.14 123.201 210.41 123.322C210.681 123.443 210.933 123.639 211.166 123.91L210.158 124.946C210.037 124.815 209.902 124.722 209.752 124.666C209.603 124.61 209.43 124.582 209.234 124.582C208.805 124.582 208.45 124.717 208.17 124.988C207.89 125.259 207.75 125.683 207.75 126.262ZM214.521 130.14C213.914 130.14 213.363 129.986 212.869 129.678C212.383 129.37 211.996 128.955 211.707 128.432C211.427 127.9 211.287 127.307 211.287 126.654C211.287 125.991 211.427 125.399 211.707 124.876C211.996 124.344 212.383 123.924 212.869 123.616C213.363 123.299 213.914 123.14 214.521 123.14C215.034 123.14 215.487 123.252 215.879 123.476C216.28 123.691 216.597 123.989 216.831 124.372C217.064 124.755 217.181 125.189 217.181 125.674V127.606C217.181 128.091 217.064 128.525 216.831 128.908C216.607 129.291 216.294 129.594 215.893 129.818C215.491 130.033 215.034 130.14 214.521 130.14ZM214.773 128.684C215.342 128.684 215.799 128.493 216.145 128.11C216.499 127.727 216.677 127.237 216.677 126.64C216.677 126.239 216.597 125.884 216.439 125.576C216.28 125.268 216.056 125.03 215.767 124.862C215.487 124.685 215.155 124.596 214.773 124.596C214.399 124.596 214.068 124.685 213.779 124.862C213.499 125.03 213.275 125.268 213.107 125.576C212.948 125.884 212.869 126.239 212.869 126.64C212.869 127.041 212.948 127.396 213.107 127.704C213.275 128.012 213.499 128.255 213.779 128.432C214.068 128.6 214.399 128.684 214.773 128.684ZM216.579 130V128.194L216.845 126.556L216.579 124.932V123.28H218.119V130H216.579ZM219.828 130V123.28H221.368V130H219.828ZM224.294 130V125.996C224.294 125.548 224.154 125.203 223.874 124.96C223.594 124.708 223.248 124.582 222.838 124.582C222.558 124.582 222.306 124.638 222.082 124.75C221.867 124.862 221.694 125.025 221.564 125.24C221.433 125.445 221.368 125.697 221.368 125.996L220.766 125.66C220.766 125.147 220.878 124.703 221.102 124.33C221.326 123.957 221.629 123.667 222.012 123.462C222.394 123.247 222.824 123.14 223.3 123.14C223.776 123.14 224.205 123.243 224.588 123.448C224.97 123.653 225.274 123.943 225.498 124.316C225.722 124.689 225.834 125.137 225.834 125.66V130H224.294ZM228.76 130V125.996C228.76 125.548 228.62 125.203 228.34 124.96C228.06 124.708 227.714 124.582 227.304 124.582C227.033 124.582 226.786 124.638 226.562 124.75C226.338 124.862 226.16 125.025 226.03 125.24C225.899 125.445 225.834 125.697 225.834 125.996L224.966 125.66C225.012 125.147 225.162 124.703 225.414 124.33C225.666 123.957 225.988 123.667 226.38 123.462C226.781 123.247 227.22 123.14 227.696 123.14C228.181 123.14 228.62 123.243 229.012 123.448C229.404 123.653 229.716 123.943 229.95 124.316C230.183 124.689 230.3 125.137 230.3 125.66V130H228.76ZM235.008 130.14C234.336 130.14 233.73 129.991 233.188 129.692C232.656 129.384 232.232 128.964 231.914 128.432C231.606 127.9 231.452 127.303 231.452 126.64C231.452 125.977 231.606 125.385 231.914 124.862C232.222 124.33 232.638 123.91 233.16 123.602C233.692 123.294 234.28 123.14 234.924 123.14C235.55 123.14 236.1 123.285 236.576 123.574C237.062 123.863 237.44 124.26 237.71 124.764C237.99 125.268 238.13 125.842 238.13 126.486C238.13 126.598 238.121 126.715 238.102 126.836C238.093 126.948 238.074 127.074 238.046 127.214H232.53V125.954H237.248L236.674 126.458C236.656 126.047 236.576 125.702 236.436 125.422C236.296 125.142 236.096 124.927 235.834 124.778C235.582 124.629 235.27 124.554 234.896 124.554C234.504 124.554 234.164 124.638 233.874 124.806C233.585 124.974 233.361 125.212 233.202 125.52C233.044 125.819 232.964 126.178 232.964 126.598C232.964 127.018 233.048 127.387 233.216 127.704C233.384 128.021 233.622 128.269 233.93 128.446C234.238 128.614 234.593 128.698 234.994 128.698C235.34 128.698 235.657 128.637 235.946 128.516C236.245 128.395 236.497 128.217 236.702 127.984L237.682 128.978C237.356 129.361 236.959 129.65 236.492 129.846C236.026 130.042 235.531 130.14 235.008 130.14ZM241.243 130L238.541 123.28H240.137L241.957 128.166L241.481 128.18L243.259 123.28H244.155L245.933 128.18L245.457 128.166L247.277 123.28H248.873L246.171 130H245.275L243.455 125.352H243.959L242.139 130H241.243ZM252.753 130.14C252.1 130.14 251.507 129.986 250.975 129.678C250.443 129.361 250.019 128.936 249.701 128.404C249.393 127.872 249.239 127.279 249.239 126.626C249.239 125.973 249.393 125.385 249.701 124.862C250.019 124.339 250.443 123.924 250.975 123.616C251.507 123.299 252.1 123.14 252.753 123.14C253.416 123.14 254.013 123.294 254.545 123.602C255.077 123.91 255.497 124.33 255.805 124.862C256.123 125.385 256.281 125.973 256.281 126.626C256.281 127.279 256.123 127.872 255.805 128.404C255.497 128.936 255.077 129.361 254.545 129.678C254.013 129.986 253.416 130.14 252.753 130.14ZM252.753 128.656C253.136 128.656 253.472 128.572 253.761 128.404C254.06 128.227 254.289 127.984 254.447 127.676C254.615 127.368 254.699 127.018 254.699 126.626C254.699 126.234 254.615 125.889 254.447 125.59C254.279 125.291 254.051 125.058 253.761 124.89C253.472 124.713 253.136 124.624 252.753 124.624C252.38 124.624 252.044 124.713 251.745 124.89C251.456 125.058 251.227 125.291 251.059 125.59C250.901 125.889 250.821 126.234 250.821 126.626C250.821 127.018 250.901 127.368 251.059 127.676C251.227 127.984 251.456 128.227 251.745 128.404C252.044 128.572 252.38 128.656 252.753 128.656ZM257.562 130V123.28H259.102V130H257.562ZM259.102 126.262L258.57 125.996C258.57 125.147 258.757 124.461 259.13 123.938C259.513 123.406 260.087 123.14 260.852 123.14C261.188 123.14 261.491 123.201 261.762 123.322C262.033 123.443 262.285 123.639 262.518 123.91L261.51 124.946C261.389 124.815 261.253 124.722 261.104 124.666C260.955 124.61 260.782 124.582 260.586 124.582C260.157 124.582 259.802 124.717 259.522 124.988C259.242 125.259 259.102 125.683 259.102 126.262ZM267.533 130L264.691 126.57L267.519 123.28H269.353L266.105 126.976L266.175 126.094L269.493 130H267.533ZM263.263 130V119.92H264.803V130H263.263ZM276.156 130.14C275.382 130.14 274.724 130 274.182 129.72C273.641 129.44 273.156 129.029 272.726 128.488L273.818 127.396C274.089 127.788 274.411 128.096 274.784 128.32C275.158 128.535 275.634 128.642 276.212 128.642C276.754 128.642 277.183 128.53 277.5 128.306C277.827 128.082 277.99 127.774 277.99 127.382C277.99 127.055 277.906 126.789 277.738 126.584C277.57 126.379 277.346 126.211 277.066 126.08C276.796 125.94 276.492 125.819 276.156 125.716C275.83 125.604 275.498 125.483 275.162 125.352C274.836 125.212 274.532 125.039 274.252 124.834C273.982 124.629 273.762 124.363 273.594 124.036C273.426 123.709 273.342 123.294 273.342 122.79C273.342 122.211 273.482 121.721 273.762 121.32C274.052 120.909 274.439 120.597 274.924 120.382C275.41 120.167 275.951 120.06 276.548 120.06C277.192 120.06 277.766 120.186 278.27 120.438C278.784 120.69 279.199 121.012 279.516 121.404L278.424 122.496C278.144 122.179 277.85 121.945 277.542 121.796C277.244 121.637 276.898 121.558 276.506 121.558C276.021 121.558 275.638 121.656 275.358 121.852C275.088 122.048 274.952 122.323 274.952 122.678C274.952 122.977 275.036 123.219 275.204 123.406C275.372 123.583 275.592 123.737 275.862 123.868C276.142 123.989 276.446 124.106 276.772 124.218C277.108 124.33 277.44 124.456 277.766 124.596C278.102 124.736 278.406 124.918 278.676 125.142C278.956 125.357 279.18 125.637 279.348 125.982C279.516 126.327 279.6 126.761 279.6 127.284C279.6 128.161 279.288 128.857 278.662 129.37C278.046 129.883 277.211 130.14 276.156 130.14ZM285.602 130V126.122C285.602 125.674 285.457 125.305 285.168 125.016C284.888 124.727 284.524 124.582 284.076 124.582C283.777 124.582 283.511 124.647 283.278 124.778C283.044 124.909 282.862 125.091 282.732 125.324C282.601 125.557 282.536 125.823 282.536 126.122L281.934 125.786C281.934 125.273 282.046 124.82 282.27 124.428C282.494 124.027 282.802 123.714 283.194 123.49C283.595 123.257 284.043 123.14 284.538 123.14C285.042 123.14 285.49 123.252 285.882 123.476C286.274 123.7 286.582 124.013 286.806 124.414C287.03 124.806 287.142 125.263 287.142 125.786V130H285.602ZM280.996 130V119.92H282.536V130H280.996ZM291.787 130.14C291.133 130.14 290.541 129.986 290.009 129.678C289.477 129.361 289.052 128.936 288.735 128.404C288.427 127.872 288.273 127.279 288.273 126.626C288.273 125.973 288.427 125.385 288.735 124.862C289.052 124.339 289.477 123.924 290.009 123.616C290.541 123.299 291.133 123.14 291.787 123.14C292.449 123.14 293.047 123.294 293.579 123.602C294.111 123.91 294.531 124.33 294.839 124.862C295.156 125.385 295.315 125.973 295.315 126.626C295.315 127.279 295.156 127.872 294.839 128.404C294.531 128.936 294.111 129.361 293.579 129.678C293.047 129.986 292.449 130.14 291.787 130.14ZM291.787 128.656C292.169 128.656 292.505 128.572 292.795 128.404C293.093 128.227 293.322 127.984 293.481 127.676C293.649 127.368 293.733 127.018 293.733 126.626C293.733 126.234 293.649 125.889 293.481 125.59C293.313 125.291 293.084 125.058 292.795 124.89C292.505 124.713 292.169 124.624 291.787 124.624C291.413 124.624 291.077 124.713 290.779 124.89C290.489 125.058 290.261 125.291 290.093 125.59C289.934 125.889 289.855 126.234 289.855 126.626C289.855 127.018 289.934 127.368 290.093 127.676C290.261 127.984 290.489 128.227 290.779 128.404C291.077 128.572 291.413 128.656 291.787 128.656ZM299.353 130.14C298.784 130.14 298.275 130.014 297.827 129.762C297.389 129.51 297.043 129.165 296.791 128.726C296.549 128.278 296.427 127.765 296.427 127.186V123.28H297.967V127.116C297.967 127.443 298.019 127.723 298.121 127.956C298.233 128.18 298.392 128.353 298.597 128.474C298.812 128.595 299.064 128.656 299.353 128.656C299.801 128.656 300.142 128.525 300.375 128.264C300.618 127.993 300.739 127.611 300.739 127.116V123.28H302.279V127.186C302.279 127.774 302.153 128.292 301.901 128.74C301.659 129.179 301.318 129.524 300.879 129.776C300.441 130.019 299.932 130.14 299.353 130.14ZM303.828 130V119.92H305.368V130H303.828ZM309.896 130.14C309.289 130.14 308.738 129.986 308.244 129.678C307.758 129.37 307.371 128.955 307.082 128.432C306.802 127.9 306.662 127.307 306.662 126.654C306.662 125.991 306.802 125.399 307.082 124.876C307.371 124.344 307.758 123.924 308.244 123.616C308.738 123.299 309.289 123.14 309.896 123.14C310.409 123.14 310.862 123.252 311.254 123.476C311.655 123.691 311.972 123.989 312.206 124.372C312.439 124.755 312.556 125.189 312.556 125.674V127.606C312.556 128.091 312.439 128.525 312.206 128.908C311.982 129.291 311.669 129.594 311.268 129.818C310.866 130.033 310.409 130.14 309.896 130.14ZM310.148 128.684C310.53 128.684 310.862 128.6 311.142 128.432C311.431 128.255 311.655 128.012 311.814 127.704C311.972 127.396 312.052 127.041 312.052 126.64C312.052 126.239 311.972 125.884 311.814 125.576C311.655 125.268 311.431 125.03 311.142 124.862C310.862 124.685 310.535 124.596 310.162 124.596C309.779 124.596 309.443 124.685 309.154 124.862C308.874 125.03 308.65 125.268 308.482 125.576C308.323 125.884 308.244 126.239 308.244 126.64C308.244 127.041 308.323 127.396 308.482 127.704C308.65 128.012 308.874 128.255 309.154 128.432C309.443 128.6 309.774 128.684 310.148 128.684ZM313.494 130H311.954V128.194L312.22 126.556L311.954 124.932V119.92H313.494V130ZM320.885 126.08L317.063 120.2H318.925L321.907 124.89H321.039L324.021 120.2H325.855L322.005 126.08H320.885ZM320.661 130V125.072H322.271V130H320.661ZM328.044 130.14C327.391 130.14 326.798 129.986 326.266 129.678C325.734 129.361 325.31 128.936 324.992 128.404C324.684 127.872 324.53 127.279 324.53 126.626C324.53 125.973 324.684 125.385 324.992 124.862C325.31 124.339 325.734 123.924 326.266 123.616C326.798 123.299 327.391 123.14 328.044 123.14C328.707 123.14 329.304 123.294 329.836 123.602C330.368 123.91 330.788 124.33 331.096 124.862C331.414 125.385 331.572 125.973 331.572 126.626C331.572 127.279 331.414 127.872 331.096 128.404C330.788 128.936 330.368 129.361 329.836 129.678C329.304 129.986 328.707 130.14 328.044 130.14ZM328.044 128.656C328.427 128.656 328.763 128.572 329.052 128.404C329.351 128.227 329.58 127.984 329.738 127.676C329.906 127.368 329.99 127.018 329.99 126.626C329.99 126.234 329.906 125.889 329.738 125.59C329.57 125.291 329.342 125.058 329.052 124.89C328.763 124.713 328.427 124.624 328.044 124.624C327.671 124.624 327.335 124.713 327.036 124.89C326.747 125.058 326.518 125.291 326.35 125.59C326.192 125.889 326.112 126.234 326.112 126.626C326.112 127.018 326.192 127.368 326.35 127.676C326.518 127.984 326.747 128.227 327.036 128.404C327.335 128.572 327.671 128.656 328.044 128.656ZM335.611 130.14C335.042 130.14 334.533 130.014 334.085 129.762C333.646 129.51 333.301 129.165 333.049 128.726C332.806 128.278 332.685 127.765 332.685 127.186V123.28H334.225V127.116C334.225 127.443 334.276 127.723 334.379 127.956C334.491 128.18 334.65 128.353 334.855 128.474C335.07 128.595 335.322 128.656 335.611 128.656C336.059 128.656 336.4 128.525 336.633 128.264C336.876 127.993 336.997 127.611 336.997 127.116V123.28H338.537V127.186C338.537 127.774 338.411 128.292 338.159 128.74C337.916 129.179 337.576 129.524 337.137 129.776C336.698 130.019 336.19 130.14 335.611 130.14ZM347.55 130.14C346.841 130.14 346.183 130.014 345.576 129.762C344.979 129.501 344.456 129.141 344.008 128.684C343.56 128.217 343.215 127.681 342.972 127.074C342.73 126.458 342.608 125.8 342.608 125.1C342.608 124.4 342.73 123.747 342.972 123.14C343.215 122.524 343.56 121.987 344.008 121.53C344.456 121.073 344.979 120.713 345.576 120.452C346.183 120.191 346.841 120.06 347.55 120.06C348.344 120.06 349.03 120.191 349.608 120.452C350.187 120.713 350.7 121.068 351.148 121.516L350.056 122.608C349.767 122.291 349.412 122.043 348.992 121.866C348.582 121.689 348.101 121.6 347.55 121.6C347.065 121.6 346.622 121.684 346.22 121.852C345.819 122.02 345.469 122.263 345.17 122.58C344.881 122.888 344.657 123.257 344.498 123.686C344.34 124.115 344.26 124.587 344.26 125.1C344.26 125.613 344.34 126.085 344.498 126.514C344.657 126.943 344.881 127.317 345.17 127.634C345.469 127.942 345.819 128.18 346.22 128.348C346.622 128.516 347.065 128.6 347.55 128.6C348.148 128.6 348.652 128.511 349.062 128.334C349.482 128.147 349.837 127.895 350.126 127.578L351.218 128.67C350.77 129.127 350.243 129.487 349.636 129.748C349.03 130.009 348.334 130.14 347.55 130.14ZM357.051 130V126.122C357.051 125.674 356.906 125.305 356.617 125.016C356.337 124.727 355.973 124.582 355.525 124.582C355.226 124.582 354.96 124.647 354.727 124.778C354.493 124.909 354.311 125.091 354.181 125.324C354.05 125.557 353.985 125.823 353.985 126.122L353.383 125.786C353.383 125.273 353.495 124.82 353.719 124.428C353.943 124.027 354.251 123.714 354.643 123.49C355.044 123.257 355.492 123.14 355.987 123.14C356.491 123.14 356.939 123.252 357.331 123.476C357.723 123.7 358.031 124.013 358.255 124.414C358.479 124.806 358.591 125.263 358.591 125.786V130H357.051ZM352.445 130V119.92H353.985V130H352.445ZM363.236 130.14C362.582 130.14 361.99 129.986 361.458 129.678C360.926 129.361 360.501 128.936 360.184 128.404C359.876 127.872 359.722 127.279 359.722 126.626C359.722 125.973 359.876 125.385 360.184 124.862C360.501 124.339 360.926 123.924 361.458 123.616C361.99 123.299 362.582 123.14 363.236 123.14C363.898 123.14 364.496 123.294 365.028 123.602C365.56 123.91 365.98 124.33 366.288 124.862C366.605 125.385 366.764 125.973 366.764 126.626C366.764 127.279 366.605 127.872 366.288 128.404C365.98 128.936 365.56 129.361 365.028 129.678C364.496 129.986 363.898 130.14 363.236 130.14ZM363.236 128.656C363.618 128.656 363.954 128.572 364.244 128.404C364.542 128.227 364.771 127.984 364.93 127.676C365.098 127.368 365.182 127.018 365.182 126.626C365.182 126.234 365.098 125.889 364.93 125.59C364.762 125.291 364.533 125.058 364.244 124.89C363.954 124.713 363.618 124.624 363.236 124.624C362.862 124.624 362.526 124.713 362.228 124.89C361.938 125.058 361.71 125.291 361.542 125.59C361.383 125.889 361.304 126.234 361.304 126.626C361.304 127.018 361.383 127.368 361.542 127.676C361.71 127.984 361.938 128.227 362.228 128.404C362.526 128.572 362.862 128.656 363.236 128.656ZM371.124 130.14C370.471 130.14 369.878 129.986 369.346 129.678C368.814 129.361 368.39 128.936 368.072 128.404C367.764 127.872 367.61 127.279 367.61 126.626C367.61 125.973 367.764 125.385 368.072 124.862C368.39 124.339 368.814 123.924 369.346 123.616C369.878 123.299 370.471 123.14 371.124 123.14C371.787 123.14 372.384 123.294 372.916 123.602C373.448 123.91 373.868 124.33 374.176 124.862C374.494 125.385 374.652 125.973 374.652 126.626C374.652 127.279 374.494 127.872 374.176 128.404C373.868 128.936 373.448 129.361 372.916 129.678C372.384 129.986 371.787 130.14 371.124 130.14ZM371.124 128.656C371.507 128.656 371.843 128.572 372.132 128.404C372.431 128.227 372.66 127.984 372.818 127.676C372.986 127.368 373.07 127.018 373.07 126.626C373.07 126.234 372.986 125.889 372.818 125.59C372.65 125.291 372.422 125.058 372.132 124.89C371.843 124.713 371.507 124.624 371.124 124.624C370.751 124.624 370.415 124.713 370.116 124.89C369.827 125.058 369.598 125.291 369.43 125.59C369.272 125.889 369.192 126.234 369.192 126.626C369.192 127.018 369.272 127.368 369.43 127.676C369.598 127.984 369.827 128.227 370.116 128.404C370.415 128.572 370.751 128.656 371.124 128.656ZM378.131 130.14C377.758 130.14 377.398 130.093 377.053 130C376.708 129.897 376.39 129.757 376.101 129.58C375.812 129.393 375.56 129.169 375.345 128.908L376.325 127.928C376.558 128.199 376.824 128.404 377.123 128.544C377.431 128.675 377.776 128.74 378.159 128.74C378.504 128.74 378.766 128.689 378.943 128.586C379.12 128.483 379.209 128.334 379.209 128.138C379.209 127.933 379.125 127.774 378.957 127.662C378.789 127.55 378.57 127.457 378.299 127.382C378.038 127.298 377.758 127.214 377.459 127.13C377.17 127.046 376.89 126.934 376.619 126.794C376.358 126.645 376.143 126.444 375.975 126.192C375.807 125.94 375.723 125.613 375.723 125.212C375.723 124.783 375.821 124.414 376.017 124.106C376.222 123.798 376.507 123.56 376.871 123.392C377.244 123.224 377.688 123.14 378.201 123.14C378.742 123.14 379.218 123.238 379.629 123.434C380.049 123.621 380.399 123.905 380.679 124.288L379.699 125.268C379.503 125.025 379.279 124.843 379.027 124.722C378.775 124.601 378.486 124.54 378.159 124.54C377.851 124.54 377.613 124.587 377.445 124.68C377.277 124.773 377.193 124.909 377.193 125.086C377.193 125.273 377.277 125.417 377.445 125.52C377.613 125.623 377.828 125.711 378.089 125.786C378.36 125.861 378.64 125.945 378.929 126.038C379.228 126.122 379.508 126.243 379.769 126.402C380.04 126.551 380.259 126.757 380.427 127.018C380.595 127.27 380.679 127.601 380.679 128.012C380.679 128.665 380.45 129.183 379.993 129.566C379.536 129.949 378.915 130.14 378.131 130.14ZM385.071 130.14C384.399 130.14 383.792 129.991 383.251 129.692C382.719 129.384 382.294 128.964 381.977 128.432C381.669 127.9 381.515 127.303 381.515 126.64C381.515 125.977 381.669 125.385 381.977 124.862C382.285 124.33 382.7 123.91 383.223 123.602C383.755 123.294 384.343 123.14 384.987 123.14C385.612 123.14 386.163 123.285 386.639 123.574C387.124 123.863 387.502 124.26 387.773 124.764C388.053 125.268 388.193 125.842 388.193 126.486C388.193 126.598 388.183 126.715 388.165 126.836C388.155 126.948 388.137 127.074 388.109 127.214H382.593V125.954H387.311L386.737 126.458C386.718 126.047 386.639 125.702 386.499 125.422C386.359 125.142 386.158 124.927 385.897 124.778C385.645 124.629 385.332 124.554 384.959 124.554C384.567 124.554 384.226 124.638 383.937 124.806C383.647 124.974 383.423 125.212 383.265 125.52C383.106 125.819 383.027 126.178 383.027 126.598C383.027 127.018 383.111 127.387 383.279 127.704C383.447 128.021 383.685 128.269 383.993 128.446C384.301 128.614 384.655 128.698 385.057 128.698C385.402 128.698 385.719 128.637 386.009 128.516C386.307 128.395 386.559 128.217 386.765 127.984L387.745 128.978C387.418 129.361 387.021 129.65 386.555 129.846C386.088 130.042 385.593 130.14 385.071 130.14ZM391.569 126.752V124.05H391.947C392.255 124.05 392.521 123.994 392.745 123.882C392.979 123.761 393.156 123.597 393.277 123.392C393.408 123.177 393.473 122.93 393.473 122.65C393.473 122.37 393.413 122.127 393.291 121.922C393.17 121.717 392.997 121.558 392.773 121.446C392.549 121.334 392.283 121.278 391.975 121.278C391.574 121.278 391.215 121.39 390.897 121.614C390.589 121.829 390.342 122.151 390.155 122.58L389.035 121.656C389.315 121.049 389.717 120.587 390.239 120.27C390.771 119.943 391.378 119.78 392.059 119.78C392.647 119.78 393.165 119.897 393.613 120.13C394.071 120.363 394.425 120.69 394.677 121.11C394.929 121.521 395.055 121.997 395.055 122.538C395.055 123.042 394.943 123.49 394.719 123.882C394.505 124.274 394.197 124.601 393.795 124.862C393.394 125.123 392.918 125.305 392.367 125.408L393.039 124.722L392.899 126.752H391.569ZM392.227 130.14C391.929 130.14 391.681 130.042 391.485 129.846C391.299 129.641 391.205 129.393 391.205 129.104C391.205 128.805 391.299 128.558 391.485 128.362C391.681 128.166 391.929 128.068 392.227 128.068C392.526 128.068 392.769 128.166 392.955 128.362C393.151 128.558 393.249 128.805 393.249 129.104C393.249 129.393 393.151 129.641 392.955 129.846C392.769 130.042 392.526 130.14 392.227 130.14Z" fill="#020C22"></path><path d="M231.596 27.2383H233.296C235.144 27.2383 236.641 28.7764 236.641 30.6759V35.9863C235.102 35.6217 233.448 35.6217 231.596 36.1886V27.2383Z" fill="#01B5D0"></path><path d="M231.596 27.2383H233.296C235.144 27.2383 236.641 28.7764 236.641 30.6759V32.0184C235.102 31.6538 233.448 35.6217 231.596 36.1886V27.2383Z" fill="white" fill-opacity="0.25"></path><path d="M237.115 32.3438H238.499C240.347 32.3438 241.844 33.8819 241.844 35.7813V39.3913C241.134 38.4598 238.928 36.3548 237.115 36.1095V32.3438Z" fill="#01DFB8"></path><path fill-rule="evenodd" clip-rule="evenodd" d="M226 24H227.7C229.548 24 231.045 25.5381 231.045 27.4376V37.0111C232.116 36.5105 233.303 36.232 234.551 36.232C239.273 36.232 243.102 40.2033 243.102 45.1028C243.102 50.0022 239.276 53.9702 234.551 53.9702C229.842 53.9702 226.023 50.0221 226 45.1425V45.1127V45.1028V45.0928V24ZM234.551 50.1646C237.27 50.1646 239.476 47.8972 239.476 45.1028C239.476 42.3083 237.27 40.0409 234.551 40.0409C231.832 40.0409 229.625 42.3083 229.625 45.1028C229.625 47.8972 231.832 50.1646 234.551 50.1646Z" fill="url(#paint1_linear_285_2179)"></path><path d="M250.22 50.3077V40.1641H253.052C253.681 40.1641 254.207 40.2204 254.626 40.3298C255.049 40.4392 255.384 40.595 255.636 40.7939C255.887 40.9928 256.068 41.2248 256.181 41.4867C256.291 41.7519 256.349 42.0304 256.349 42.3287V43.2668C256.349 43.5254 256.307 43.7641 256.226 43.9828C256.142 44.2016 256.013 44.3972 255.836 44.563C255.655 44.732 255.423 44.8712 255.133 44.9806C255.5 45.09 255.804 45.2326 256.045 45.4049C256.287 45.5806 256.468 45.7828 256.591 46.0182C256.71 46.2536 256.771 46.5121 256.771 46.8005V48.0668C256.771 48.4746 256.671 48.8491 256.468 49.1873C256.265 49.5254 255.923 49.7972 255.446 49.9994C254.968 50.2049 254.31 50.3044 253.478 50.3044H250.22V50.3077ZM251.63 41.374V44.5364H253.152C253.559 44.5364 253.894 44.4834 254.152 44.3806C254.413 44.2746 254.61 44.1287 254.739 43.9398C254.868 43.7508 254.936 43.5188 254.936 43.2403V42.5541C254.936 42.2757 254.871 42.0536 254.739 41.8845C254.61 41.7154 254.404 41.5895 254.123 41.5033C253.842 41.4204 253.484 41.3773 253.049 41.3773H251.63V41.374ZM251.63 45.6701V49.1011H253.475C253.91 49.1011 254.265 49.0514 254.542 48.9519C254.817 48.8525 255.023 48.7066 255.158 48.511C255.294 48.3154 255.362 48.0867 255.362 47.8182V46.9066C255.362 46.658 255.294 46.4425 255.158 46.2569C255.023 46.0746 254.817 45.9287 254.542 45.8259C254.265 45.7199 253.91 45.6701 253.475 45.6701H251.63Z" fill="white"></path><path d="M260.264 46.2967V50.3077H258.858V40.1641H262.064C262.693 40.1641 263.219 40.227 263.638 40.3497C264.058 40.4757 264.396 40.6447 264.648 40.8569C264.899 41.0723 265.08 41.3143 265.193 41.5862C265.303 41.8613 265.361 42.1497 265.361 42.458V44.0094C265.361 44.4072 265.257 44.7817 265.054 45.1298C264.851 45.4779 264.509 45.7596 264.032 45.9718C263.551 46.1873 262.896 46.2933 262.064 46.2933H260.264V46.2967ZM260.264 41.4038V45.0569H262.064C262.5 45.0569 262.858 45.0038 263.138 44.9011C263.419 44.795 263.625 44.6458 263.754 44.4536C263.883 44.2613 263.951 44.0293 263.951 43.7607V42.7C263.951 42.5011 263.916 42.3221 263.841 42.163C263.77 42.0038 263.654 41.8679 263.5 41.7519C263.345 41.6392 263.148 41.5497 262.912 41.49C262.674 41.4304 262.393 41.4005 262.064 41.4005H260.264V41.4038ZM265.535 50.3077H263.98L262.051 45.8624L263.545 45.8458L265.535 50.3077Z" fill="white"></path><path d="M268.973 40.1641V50.3077H267.567V40.1641H268.973Z" fill="white"></path><path d="M272.921 40.1641V49.0712H276.914V50.3077H271.502V40.1641H272.921Z" fill="white"></path><path d="M280.875 47.7121L282.733 40.1641H284.068L285.881 47.6956L287.723 40.1641H289.045L286.549 50.3077H285.155L283.343 42.8491L281.498 50.3077H280.117L277.608 40.1641H279.059L280.875 47.7121Z" fill="white"></path><path d="M290.542 42.3418C290.542 42.0335 290.597 41.7418 290.71 41.47C290.819 41.1981 291.003 40.9528 291.261 40.7407C291.516 40.5285 291.858 40.3595 292.277 40.2335C292.7 40.1108 293.219 40.0479 293.838 40.0479C294.458 40.0479 294.98 40.1108 295.406 40.2335C295.832 40.3595 296.174 40.5285 296.429 40.7407C296.683 40.9561 296.867 41.1981 296.98 41.47C297.09 41.7451 297.148 42.0335 297.148 42.3418V48.1296C297.148 48.4379 297.093 48.7296 296.98 49.0014C296.867 49.2766 296.683 49.5186 296.429 49.7307C296.17 49.9462 295.832 50.1153 295.406 50.2379C294.98 50.3606 294.458 50.4235 293.838 50.4235C293.219 50.4235 292.7 50.3606 292.277 50.2379C291.858 50.1153 291.516 49.9462 291.261 49.7307C291.003 49.5186 290.819 49.2733 290.71 49.0014C290.597 48.7296 290.542 48.4379 290.542 48.1296V42.3418ZM295.725 42.5804C295.725 42.3816 295.69 42.2025 295.616 42.0434C295.545 41.8843 295.429 41.7484 295.274 41.6324C295.119 41.5197 294.922 41.4302 294.687 41.3705C294.448 41.3108 294.167 41.281 293.838 41.281C293.519 41.281 293.242 41.3108 293.003 41.3705C292.764 41.4302 292.571 41.5164 292.416 41.6324C292.261 41.7484 292.148 41.8843 292.074 42.0434C292.003 42.2025 291.964 42.3816 291.964 42.5804V47.8909C291.964 48.0898 292 48.2688 292.074 48.428C292.145 48.5871 292.261 48.723 292.416 48.839C292.571 48.955 292.768 49.0412 293.003 49.1009C293.239 49.1606 293.519 49.1904 293.838 49.1904C294.167 49.1904 294.451 49.1606 294.687 49.1009C294.922 49.0412 295.119 48.955 295.274 48.839C295.429 48.7263 295.542 48.5871 295.616 48.428C295.687 48.2688 295.725 48.0898 295.725 47.8909V42.5804Z" fill="white"></path><path d="M300.922 46.2967V50.3077H299.515V40.1641H302.722C303.35 40.1641 303.876 40.227 304.296 40.3497C304.715 40.4757 305.054 40.6447 305.305 40.8569C305.557 41.0723 305.737 41.3143 305.85 41.5862C305.96 41.8613 306.018 42.1497 306.018 42.458V44.0094C306.018 44.4072 305.915 44.7817 305.712 45.1298C305.508 45.4779 305.166 45.7596 304.689 45.9718C304.208 46.1873 303.554 46.2933 302.722 46.2933H300.922V46.2967ZM300.922 41.4038V45.0569H302.722C303.157 45.0569 303.515 45.0038 303.796 44.9011C304.076 44.795 304.283 44.6458 304.412 44.4536C304.541 44.2613 304.608 44.0293 304.608 43.7607V42.7C304.608 42.5011 304.573 42.3221 304.499 42.163C304.428 42.0038 304.312 41.8679 304.157 41.7519C304.002 41.6392 303.805 41.5497 303.57 41.49C303.331 41.4304 303.051 41.4005 302.722 41.4005H300.922V41.4038ZM306.189 50.3077H304.637L302.709 45.8624L304.202 45.8458L306.189 50.3077Z" fill="white"></path><path d="M315.188 50.3077H313.388L309.95 45.8027H309.643V50.3077H308.221V40.1641H309.643V44.7121H309.934L313.127 40.1641H314.765L311.182 45.1464L315.188 50.3077Z" fill="white"></path><path d="M321.094 43.1333V42.5366C321.094 42.3377 321.062 42.1587 321 41.9996C320.936 41.8405 320.836 41.7079 320.694 41.5985C320.552 41.4891 320.371 41.4062 320.149 41.3532C319.926 41.3001 319.655 41.2703 319.336 41.2703C319.017 41.2703 318.746 41.2968 318.523 41.3532C318.301 41.4095 318.12 41.4891 317.978 41.5985C317.836 41.7079 317.736 41.8438 317.675 41.9996C317.61 42.1587 317.581 42.3377 317.581 42.5366V42.8349C317.581 43.0637 317.623 43.2427 317.704 43.3719C317.784 43.5012 317.881 43.6007 317.994 43.6703C318.104 43.7399 318.213 43.7963 318.32 43.836L320.962 44.8637C321.252 44.973 321.516 45.1189 321.762 45.2946C322.003 45.4736 322.197 45.6924 322.342 45.951C322.487 46.2095 322.561 46.5244 322.561 46.8924V48.1289C322.561 48.4371 322.507 48.7289 322.394 49.0007C322.281 49.2758 322.1 49.5178 321.849 49.73C321.597 49.9454 321.262 50.1145 320.845 50.2371C320.429 50.3598 319.917 50.4228 319.307 50.4228C318.697 50.4228 318.184 50.3598 317.768 50.2371C317.352 50.1145 317.017 49.9454 316.768 49.73C316.517 49.5178 316.333 49.2725 316.217 49.0007C316.101 48.7289 316.043 48.4371 316.043 48.1289V47.1145H317.436V47.9366C317.436 48.1355 317.472 48.3145 317.546 48.4736C317.617 48.6327 317.73 48.7686 317.881 48.8747C318.03 48.9841 318.223 49.067 318.455 49.12C318.688 49.1764 318.968 49.2029 319.297 49.2029C319.626 49.2029 319.91 49.1764 320.146 49.12C320.381 49.067 320.575 48.9841 320.726 48.8747C320.875 48.7653 320.987 48.6327 321.058 48.4736C321.129 48.3145 321.168 48.1355 321.168 47.9366V47.2338C321.168 46.9852 321.104 46.783 320.981 46.6305C320.855 46.478 320.697 46.3554 320.51 46.2659C320.32 46.1764 320.136 46.0935 319.952 46.0139L317.501 45.046C317.288 44.9664 317.081 44.8405 316.885 44.6648C316.685 44.4924 316.523 44.2802 316.398 44.0316C316.272 43.783 316.207 43.5045 316.207 43.1963V42.3476C316.207 42.0393 316.259 41.7476 316.368 41.4758C316.475 41.204 316.646 40.9587 316.885 40.7465C317.12 40.5344 317.439 40.3653 317.843 40.2393C318.243 40.1167 318.739 40.0537 319.329 40.0537C319.92 40.0537 320.42 40.1167 320.826 40.2393C321.233 40.3653 321.555 40.5344 321.797 40.7465C322.039 40.962 322.213 41.204 322.32 41.4758C322.426 41.7509 322.481 42.0393 322.481 42.3476V43.1366H321.094V43.1333Z" fill="white"></path></g><defs><radialGradient id="paint0_radial_285_2179" cx="0" cy="0" r="1" gradientUnits="userSpaceOnUse" gradientTransform="translate(144.65 147.373) rotate(-0.628807) scale(600.172 307.258)"><stop stop-color="#708DAB"></stop><stop offset="0.89"></stop></radialGradient><linearGradient id="paint1_linear_285_2179" x1="241.332" y1="50.3781" x2="220.347" y2="30.2786" gradientUnits="userSpaceOnUse"><stop stop-color="#00B3D1"></stop><stop offset="1" stop-color="#00E4B5"></stop></linearGradient><clipPath id="clip0_285_2179"><rect width="550" height="283" fill="white"></rect></clipPath><clipPath id="clip1_285_2179"><rect width="27" height="108" fill="white" transform="translate(254 155)"></rect></clipPath></defs></svg> 