<svg width="32" height="32" viewBox="0 0 32 32" fill="none" xmlns="http://www.w3.org/2000/svg">
<g clip-path="url(#clip0_46_1587)">
<path d="M16 32C24.8343 32 32 24.8343 32 16C32 7.1657 24.8343 0 16 0C7.1657 0 0 7.1657 0 16C0 24.8343 7.1657 32 16 32ZM14.8571 6.85716C14.8571 6.22856 15.3714 5.71427 16 5.71427C16.6286 5.71427 17.1429 6.22856 17.1429 6.85716V15.4514L22.4286 19.68C22.9201 20.0743 23 20.7943 22.6057 21.2857C22.3828 21.5657 22.0514 21.7143 21.7143 21.7143C21.4628 21.7143 21.2114 21.6342 21 21.4628L15.2858 16.8915C15.0172 16.6743 14.8572 16.3486 14.8572 16V6.85716H14.8571Z" fill="black"/>
</g>
<defs>
<clipPath id="clip0_46_1587">
<rect width="32" height="32" fill="white"/>
</clipPath>
</defs>
</svg>
