<svg width="202" height="214" viewBox="0 0 202 214" fill="none" xmlns="http://www.w3.org/2000/svg">
<path d="M101.119 60.6309L92.3452 47.9285L101.119 49.8928L109.238 47.9285L101.119 60.6309Z" fill="#18AAD1"/>
<path d="M121.242 104.574L116.94 101.512H122.219L123.979 96L125.543 101.512H130.821L126.52 104.574L128.084 109.881L123.783 106.615L119.287 109.881L121.242 104.574Z" fill="#2AD2FF"/>
<path d="M144.123 104.574L139.822 101.512H145.1L146.86 96L148.424 101.512H153.702L149.401 104.574L150.965 109.881L146.664 106.615L142.168 109.881L144.123 104.574Z" fill="#2AD2FF"/>
<path d="M98.3607 104.574L94.0596 101.512H99.3382L101.098 96L102.662 101.512H107.941L103.639 104.574L105.203 109.881L100.902 106.615L96.6012 109.881L98.3607 104.574Z" fill="#2AD2FF"/>
<path d="M75.4798 104.574L71.1787 101.512H76.4574L78.2169 96L79.781 101.512H85.0597L80.7585 104.574L82.3226 109.881L78.0214 106.615L73.7203 109.881L75.4798 104.574Z" fill="#2AD2FF"/>
<path d="M52.5987 104.574L48.2976 101.512H53.5763L55.3358 96L56.8999 101.512H62.1786L57.8774 104.574L59.4415 109.881L55.1403 106.615L50.8392 109.881L52.5987 104.574Z" fill="#2AD2FF"/>
<path d="M132.286 44.7856L100.857 90.7499L69.2976 44.7856C72.5714 45.0912 79.9833 45.9118 83.4405 46.7499C86.8976 47.588 90.2936 52.1626 91.5595 54.3452L100.857 68.0952C102.996 64.7777 107.824 57.3833 110.024 54.3452C112.774 50.5475 114.476 47.9285 118.798 46.7499C122.255 45.8071 129.23 45.0475 132.286 44.7856Z" fill="#2AD2FF"/>
<path d="M99.4561 46.0952C102.599 47.0118 106.784 46.5031 110.194 43.0833C113.981 39.2856 114.112 32.9259 114.123 29.4642C114.122 30.6428 113.086 33.3345 112.158 34.9642C110.445 37.9761 107.695 38.6309 106.528 38.6309C105.993 38.6309 104.552 38.369 104.694 36.5356C104.888 34.0401 107.706 32.0833 109.278 29.7261C110.849 27.369 111.624 24.3571 110.587 19.7737C109.837 16.4578 107.051 12.0476 107.051 12.1785C107.051 12.3095 106.92 14.6666 106.397 16.6309C105.873 18.5952 105.207 21.0833 102.337 24.0952C99.3287 27.2524 96.6406 29.3333 95.2656 31.1666C94.087 32.738 92.8974 35.488 93.1704 38.6309C93.4992 42.4165 96.3132 45.1785 99.4561 46.0952Z" fill="#2AD2FF"/>
<path d="M90.3808 36.4048C90.3808 40.2024 91.1664 41.7738 91.6902 42.9524C90.2498 42.2976 88.9403 40.8571 87.8926 38.8929C86.7902 36.8259 85.9602 34.1772 86.0593 30.5119C86.2868 22.0933 89.857 17.2857 91.4284 15.7757C91.9522 15.1905 91.6109 15.9287 91.5593 16.2381C90.7401 21.1534 94.1783 21.6071 94.4403 21.6071H94.4463C94.7224 21.6072 96.0687 21.6077 97.0593 20.1667C98.2296 18.4643 97.3129 16.7619 96.5355 15.0595C96.3394 14.63 95.3569 13.0952 95.3569 10.6071C95.3569 7.59524 96.6664 5.36905 97.3212 4.19048C97.845 3.24762 98.3688 2.4881 100.202 0C100.77 0.785714 102.062 2.64524 102.69 3.79762C103.476 5.2381 104.393 6.94048 105.047 10.869C105.601 14.19 104.387 16.8895 102.821 19.381C99.9403 23.9643 97.4522 24.881 94.1783 28.2857C90.9591 31.6337 90.3808 34.1786 90.3808 36.4048Z" fill="#2AD2FF"/>
<g opacity="0.5">
<path d="M132.286 44.7856L100.857 68.0952C103.738 63.6428 109.733 54.9045 111.988 51.7261C114.869 47.6666 117.095 47.0118 122.071 46.0952C124.422 45.6623 129.536 45.0475 132.286 44.7856Z" fill="#18AAD1"/>
<path d="M69.2977 44.7856L100.857 68.0952C97.8453 63.7737 92.6072 55.9166 89.3334 51.2023C87.429 48.46 84.75 46.7844 79.5119 46.0952C72.4423 45.165 72.0477 45.0475 69.2977 44.7856Z" fill="#18AAD1"/>
</g>
<path d="M109.75 20.9524C109.881 18.4643 108.572 15.3214 107.786 13.2262L107.786 13.2262C108.441 14.4048 109.75 16.7619 110.286 18.5952L110.29 18.6101C110.973 20.9496 111.394 22.3897 110.809 26.1905C110.286 29.5952 106.881 32.4762 106.095 33.5238C105.015 34.9643 104.493 36.1502 104.786 37.3214C105.128 38.6896 106.652 38.668 106.954 38.6396C106.976 38.634 106.991 38.631 107 38.631C107.017 38.631 106.999 38.6353 106.954 38.6396C106.656 38.7171 105.183 39.2946 103.595 39.4167C101.893 39.5476 100.558 38.9284 100.06 38.3691C98.8928 37.0595 98.8928 35.6191 99.2739 34.3095C99.6638 32.9696 100.452 31.6905 102.286 30.1191C104.119 28.5476 104.524 28.8095 106.738 26.9762C108.781 25.2852 109.619 23.4405 109.75 20.9524Z" fill="#18AAD1"/>
<path d="M100.726 17.4489C100.726 22.5039 94.5636 21.8093 94.1785 21.6071H94.3094C96.0426 21.6071 97.4523 20.4819 97.4523 18.4599C97.4523 16.4379 95.3339 14.4159 95.3339 10.3719C95.3339 5.63095 100.202 0 100.202 0C98.6617 2.6286 97.6449 5.72129 97.4523 8.55209C97.4523 13.2027 100.726 13.6071 100.726 17.4489Z" fill="#18AAD1"/>
<path d="M43.1614 128.881V119.857H46.3934V118.209H38.0574V119.857H41.2894V128.881H43.1614ZM52.5655 129.073C55.7495 129.073 58.0215 126.737 58.0215 123.553C58.0215 120.369 55.7495 118.033 52.5655 118.033C49.3655 118.033 47.1095 120.369 47.1095 123.553C47.1095 126.737 49.3655 129.073 52.5655 129.073ZM52.5655 127.409C50.4055 127.409 49.0295 125.745 49.0295 123.553C49.0295 121.345 50.4055 119.697 52.5655 119.697C54.7095 119.697 56.1015 121.345 56.1015 123.553C56.1015 125.745 54.7095 127.409 52.5655 127.409ZM61.6799 128.881V124.881H64.5119C66.7359 124.881 67.9839 123.361 67.9839 121.553C67.9839 119.729 66.7519 118.209 64.5119 118.209H59.8079V128.881H61.6799ZM64.2559 123.233H61.6799V119.857H64.2559C65.3119 119.857 66.0639 120.529 66.0639 121.553C66.0639 122.561 65.3119 123.233 64.2559 123.233ZM84.7709 128.881V118.209H82.1309L79.2349 125.537L76.3229 118.209H73.6829V128.881H75.5549V120.641L78.8349 128.881H79.6349L82.8989 120.641V128.881H84.7709ZM92.0343 129.073C95.2183 129.073 97.4903 126.737 97.4903 123.553C97.4903 120.369 95.2183 118.033 92.0343 118.033C88.8343 118.033 86.5783 120.369 86.5783 123.553C86.5783 126.737 88.8343 129.073 92.0343 129.073ZM92.0343 127.409C89.8743 127.409 88.4983 125.745 88.4983 123.553C88.4983 121.345 89.8743 119.697 92.0343 119.697C94.1783 119.697 95.5703 121.345 95.5703 123.553C95.5703 125.745 94.1783 127.409 92.0343 127.409ZM104.669 128.881C106.685 128.881 107.773 127.649 107.773 125.985C107.773 124.689 106.861 123.553 105.709 123.377C106.701 123.169 107.565 122.257 107.565 120.929C107.565 119.425 106.493 118.209 104.525 118.209H99.2766V128.881H104.669ZM104.157 122.609H101.149V119.857H104.157C105.101 119.857 105.645 120.449 105.645 121.233C105.645 122.049 105.101 122.609 104.157 122.609ZM104.237 127.233H101.149V124.257H104.237C105.293 124.257 105.853 124.945 105.853 125.745C105.853 126.673 105.245 127.233 104.237 127.233ZM111.539 128.881V118.209H109.667V128.881H111.539ZM120.256 128.881V127.233H115.552V118.209H113.68V128.881H120.256ZM129.214 128.881V127.233H123.774V124.257H129.102V122.609H123.774V119.857H129.214V118.209H121.902V128.881H129.214ZM144.877 128.881L140.685 118.209H138.349L134.157 128.881H136.285L137.069 126.817H141.965L142.749 128.881H144.877ZM141.437 125.169H137.597L139.517 120.081L141.437 125.169ZM147.899 128.881V124.881H150.731C152.955 124.881 154.203 123.361 154.203 121.553C154.203 119.729 152.971 118.209 150.731 118.209H146.027V128.881H147.899ZM150.475 123.233H147.899V119.857H150.475C151.531 119.857 152.283 120.529 152.283 121.553C152.283 122.561 151.531 123.233 150.475 123.233ZM157.649 128.881V124.881H160.481C162.705 124.881 163.953 123.361 163.953 121.553C163.953 119.729 162.721 118.209 160.481 118.209H155.777V128.881H157.649ZM160.225 123.233H157.649V119.857H160.225C161.281 119.857 162.033 120.529 162.033 121.553C162.033 122.561 161.281 123.233 160.225 123.233ZM49.3544 146.881C52.6824 146.881 54.9224 144.689 54.9224 141.537C54.9224 138.417 52.6824 136.209 49.3384 136.209H45.3704V146.881H49.3544ZM49.3384 145.233H47.2424V137.857H49.3544C51.7224 137.857 53.0024 139.489 53.0024 141.537C53.0024 143.569 51.6584 145.233 49.3384 145.233ZM64.0417 146.881V145.233H58.6018V142.257H63.9298V140.609H58.6018V137.857H64.0417V136.209H56.7298V146.881H64.0417ZM71.3881 146.881L75.5801 136.209H73.4521L70.2201 144.833L66.9881 136.209H64.8601L69.0521 146.881H71.3881ZM84.0417 146.881V145.233H78.6018V142.257H83.9298V140.609H78.6018V137.857H84.0417V136.209H76.7298V146.881H84.0417ZM92.4121 146.881V145.233H87.7081V136.209H85.8361V146.881H92.4121ZM98.5655 147.073C101.75 147.073 104.022 144.737 104.022 141.553C104.022 138.369 101.75 136.033 98.5655 136.033C95.3655 136.033 93.1095 138.369 93.1095 141.553C93.1095 144.737 95.3655 147.073 98.5655 147.073ZM98.5655 145.409C96.4055 145.409 95.0295 143.745 95.0295 141.553C95.0295 139.345 96.4055 137.697 98.5655 137.697C100.71 137.697 102.102 139.345 102.102 141.553C102.102 143.745 100.71 145.409 98.5655 145.409ZM107.68 146.881V142.881H110.512C112.736 142.881 113.984 141.361 113.984 139.553C113.984 137.729 112.752 136.209 110.512 136.209H105.808V146.881H107.68ZM110.256 141.233H107.68V137.857H110.256C111.312 137.857 112.064 138.529 112.064 139.553C112.064 140.561 111.312 141.233 110.256 141.233ZM126.646 146.881V136.209H124.006L121.11 143.537L118.198 136.209H115.558V146.881H117.43V138.641L120.71 146.881H121.51L124.774 138.641V146.881H126.646ZM136.229 146.881V145.233H130.789V142.257H136.117V140.609H130.789V137.857H136.229V136.209H128.917V146.881H136.229ZM147.4 146.881V136.209H145.528V143.601L140.072 136.209H138.152V146.881H140.024V139.249L145.592 146.881H147.4ZM154.083 146.881V137.857H157.315V136.209H148.979V137.857H152.211V146.881H154.083ZM68.5142 165.073C70.6582 165.073 71.9862 163.937 72.8022 162.657L71.2022 161.857C70.6902 162.737 69.6502 163.409 68.5142 163.409C66.4022 163.409 64.8342 161.777 64.8342 159.553C64.8342 157.297 66.4022 155.697 68.5142 155.697C69.6502 155.697 70.6902 156.353 71.2022 157.249L72.7862 156.417C72.0022 155.137 70.6582 154.033 68.5142 154.033C65.3622 154.033 62.9142 156.257 62.9142 159.553C62.9142 162.833 65.3622 165.073 68.5142 165.073ZM79.2764 165.073C82.4604 165.073 84.7324 162.737 84.7324 159.553C84.7324 156.369 82.4604 154.033 79.2764 154.033C76.0764 154.033 73.8204 156.369 73.8204 159.553C73.8204 162.737 76.0764 165.073 79.2764 165.073ZM79.2764 163.409C77.1164 163.409 75.7404 161.745 75.7404 159.553C75.7404 157.345 77.1164 155.697 79.2764 155.697C81.4204 155.697 82.8124 157.345 82.8124 159.553C82.8124 161.745 81.4204 163.409 79.2764 163.409ZM97.6068 164.881V154.209H94.9668L92.0708 161.537L89.1588 154.209H86.5188V164.881H88.3908V156.641L91.6708 164.881H92.4708L95.7348 156.641V164.881H97.6068ZM101.75 164.881V160.881H104.582C106.806 160.881 108.054 159.361 108.054 157.553C108.054 155.729 106.822 154.209 104.582 154.209H99.8782V164.881H101.75ZM104.326 159.233H101.75V155.857H104.326C105.382 155.857 106.134 156.529 106.134 157.553C106.134 158.561 105.382 159.233 104.326 159.233ZM118.041 164.881L113.849 154.209H111.513L107.321 164.881H109.449L110.233 162.817H115.129L115.913 164.881H118.041ZM114.601 161.169H110.761L112.681 156.081L114.601 161.169ZM128.439 164.881V154.209H126.567V161.601L121.111 154.209H119.191V164.881H121.063V157.249L126.631 164.881H128.439ZM135.618 164.881V160.449L139.746 154.209H137.602L134.674 158.769L131.746 154.209H129.602L133.746 160.449V164.881H135.618Z" fill="black"/>
<path d="M157.449 186.881L168.551 186.881L164.399 176.381L168.551 165.881H152.949L157.449 170.881V186.881Z" fill="#0460B5"/>
<path d="M44.5508 186.881L33.4492 186.881L37.601 176.381L33.4492 165.881H49.0508L44.5508 170.881V186.881Z" fill="#0460B5"/>
<path d="M155.449 171.881H46.4492V192.881H155.449V171.881Z" fill="#0460B5"/>
<path d="M61.0856 179.426C61.631 179.699 62.0856 180.154 62.3583 180.608C62.631 181.154 62.8129 181.79 62.8129 182.336C62.8129 182.972 62.631 183.517 62.3583 184.063C62.0856 184.608 61.631 184.972 61.0856 185.245C60.5401 185.517 59.9038 185.699 59.2674 185.699H56.4492V178.881H59.2674C59.9038 178.972 60.5401 179.063 61.0856 179.426ZM60.4492 184.336C60.8129 184.154 61.0856 183.881 61.2674 183.517C61.631 182.79 61.631 181.881 61.2674 181.154C61.0856 180.79 60.8129 180.517 60.4492 180.336C60.0856 180.154 59.7219 180.063 59.2674 180.063H57.7219V184.608H59.2674C59.631 184.608 60.0856 184.517 60.4492 184.336Z" fill="white"/>
<path d="M63.9041 178.972H68.9041V180.063H65.2677V181.79H68.5404V182.881H65.2677V184.608H69.0859V185.699H63.9041V178.972Z" fill="white"/>
<path d="M73.6311 180.245C73.3584 180.154 72.9947 180.063 72.6311 180.063C72.3584 180.063 72.0856 180.154 71.9038 180.245C71.722 180.336 71.6311 180.517 71.6311 180.699C71.6311 180.881 71.722 181.063 71.8129 181.154C71.9038 181.245 72.0857 181.426 72.2675 181.426C72.5402 181.517 72.8129 181.608 73.0856 181.699C73.4493 181.79 73.8129 181.972 74.1766 182.063C74.4493 182.245 74.722 182.426 74.9038 182.699C75.0857 182.972 75.2675 183.336 75.1766 183.79C75.1766 184.154 75.0857 184.608 74.8129 184.881C74.5402 185.154 74.2675 185.426 73.9038 185.608C73.4493 185.79 72.9947 185.881 72.5402 185.881C71.9947 185.881 71.4493 185.79 70.9947 185.608C70.5402 185.426 70.0856 185.154 69.6311 184.79L70.1766 183.699C70.5402 183.972 70.9038 184.245 71.3584 184.426C71.722 184.608 72.1766 184.699 72.5402 184.699C72.8129 184.699 73.1766 184.608 73.3584 184.517C73.722 184.336 73.722 183.881 73.5402 183.517L73.4493 183.426C73.2675 183.336 73.1766 183.154 72.9947 183.154C72.8129 183.063 72.5402 182.972 72.1766 182.881C71.8129 182.79 71.4493 182.608 71.0857 182.517C70.8129 182.426 70.5402 182.154 70.3584 181.972C70.1766 181.699 69.9947 181.336 70.0856 180.972C70.0856 180.608 70.1766 180.245 70.3584 179.972C70.6311 179.699 70.9038 179.426 71.2675 179.245C71.722 179.063 72.1766 178.972 72.6311 178.972C73.0856 178.972 73.5402 179.063 73.9038 179.154C74.2675 179.245 74.722 179.426 75.0857 179.699L74.5402 180.79C74.3584 180.517 73.9947 180.336 73.6311 180.245Z" fill="white"/>
<path d="M76.5403 178.972H77.813V185.79H76.5403V178.972Z" fill="white"/>
<path d="M84.0859 182.336H85.1768V184.972C84.8131 185.245 84.3586 185.426 83.9041 185.608C83.4495 185.79 82.995 185.881 82.4495 185.881C81.8131 185.881 81.1768 185.699 80.6313 185.426C80.0859 185.154 79.6313 184.699 79.3586 184.154C78.995 183.608 78.9041 182.972 78.9041 182.336C78.9041 181.699 79.0859 181.063 79.3586 180.608C79.7222 180.063 80.1768 179.608 80.7222 179.336C81.2677 179.063 81.9041 178.881 82.5404 178.881C82.995 178.881 83.5404 178.972 83.995 179.154C84.4495 179.336 84.9041 179.517 85.1768 179.881L84.4495 180.881C84.1768 180.608 83.9041 180.426 83.5404 180.336C83.1768 180.245 82.9041 180.154 82.5404 180.154C82.0859 180.154 81.7222 180.245 81.3586 180.426C80.2677 181.063 79.9041 182.517 80.5404 183.608C80.995 184.336 81.7222 184.79 82.5404 184.79C82.8131 184.79 82.995 184.79 83.2677 184.699C83.5404 184.608 83.8131 184.517 83.995 184.336L84.0859 182.336Z" fill="white"/>
<path d="M91.5405 178.972H92.8132V185.79H91.6314L88.086 181.063V185.79H86.8132V178.972H88.086L91.6314 183.699L91.5405 178.972Z" fill="white"/>
<path d="M98.7222 185.79L97.5404 183.79H95.7222V185.79H94.4495V178.972H97.2676C97.9949 178.881 98.7222 179.154 99.3586 179.517C99.8131 179.972 100.086 180.608 100.086 181.245C100.086 181.699 99.9949 182.154 99.7222 182.608C99.4495 182.972 99.0858 183.245 98.7222 183.426L100.268 185.699L98.7222 185.79ZM95.7222 182.608H97.2676C97.7222 182.608 98.0858 182.517 98.4495 182.245C98.7222 181.972 98.8131 181.699 98.8131 181.335C98.8131 180.972 98.7222 180.608 98.4495 180.426C98.0858 180.245 97.7222 180.063 97.3586 180.154H95.7222V182.608Z" fill="white"/>
<path d="M103.086 184.245C103.449 184.517 103.904 184.699 104.268 184.699C104.722 184.699 105.177 184.517 105.449 184.245C105.722 183.881 105.904 183.426 105.904 182.972V178.972H107.177V182.972C107.177 183.517 107.086 184.063 106.813 184.517C106.54 184.972 106.177 185.336 105.813 185.517C105.358 185.79 104.813 185.881 104.268 185.881C103.722 185.881 103.177 185.79 102.631 185.517C102.177 185.336 101.813 184.972 101.631 184.517C101.358 184.063 101.268 183.517 101.268 182.972V178.972H102.54V182.972C102.631 183.426 102.813 183.881 103.086 184.245Z" fill="white"/>
<path d="M112.086 180.245C111.813 180.154 111.45 180.063 111.086 180.063C110.813 180.063 110.54 180.154 110.359 180.245C110.177 180.336 110.086 180.517 110.086 180.699C110.086 180.881 110.177 181.063 110.268 181.154C110.359 181.245 110.54 181.426 110.722 181.426C110.995 181.517 111.268 181.608 111.54 181.699C111.904 181.79 112.268 181.972 112.631 182.063C112.904 182.245 113.177 182.426 113.359 182.699C113.54 182.972 113.722 183.336 113.631 183.79C113.631 184.154 113.54 184.608 113.268 184.881C112.995 185.154 112.722 185.426 112.359 185.608C111.904 185.79 111.45 185.881 110.995 185.881C110.45 185.881 109.904 185.79 109.45 185.608C108.995 185.426 108.54 185.154 108.086 184.79L108.631 183.699C108.995 183.972 109.359 184.245 109.813 184.426C110.177 184.608 110.631 184.699 110.995 184.699C111.268 184.699 111.631 184.608 111.813 184.517C112.177 184.336 112.177 183.881 111.995 183.517L111.904 183.426C111.722 183.336 111.631 183.154 111.45 183.154C111.268 183.063 110.995 182.972 110.631 182.881C110.268 182.79 109.904 182.608 109.54 182.517C109.268 182.426 108.995 182.154 108.813 181.972C108.631 181.699 108.45 181.336 108.54 180.972C108.54 180.608 108.631 180.245 108.813 179.972C109.086 179.699 109.359 179.426 109.722 179.245C110.177 179.063 110.631 178.972 111.086 178.972C111.54 178.972 111.995 179.063 112.359 179.154C112.722 179.245 113.177 179.426 113.54 179.699L112.995 180.79C112.813 180.517 112.45 180.336 112.086 180.245Z" fill="white"/>
<path d="M114.995 178.972H116.268V181.881H119.631V178.972H120.904V185.79H119.631V183.063H116.268V185.79H114.995V178.972Z" fill="white"/>
<path d="M123.359 184.608C123.45 184.699 123.541 184.881 123.541 185.154C123.541 185.335 123.45 185.517 123.359 185.699C123.268 185.79 123.086 185.881 122.904 185.881C122.722 185.881 122.541 185.79 122.45 185.699C122.359 185.517 122.268 185.335 122.268 185.154C122.268 184.972 122.359 184.79 122.45 184.608C122.541 184.517 122.722 184.426 122.904 184.426C123.086 184.426 123.268 184.517 123.359 184.608Z" fill="white"/>
<path d="M126.995 181.608C126.631 181.608 126.267 181.79 125.995 182.063C125.722 182.336 125.631 182.79 125.631 183.154C125.631 183.608 125.722 183.972 125.995 184.245C126.267 184.517 126.631 184.699 126.995 184.699C127.54 184.699 128.085 184.517 128.358 184.063L129.176 184.699C128.904 185.063 128.631 185.336 128.267 185.517C127.813 185.699 127.358 185.79 126.904 185.79C126.449 185.79 125.995 185.699 125.54 185.426C125.176 185.245 124.813 184.881 124.631 184.517C124.176 183.699 124.176 182.608 124.631 181.79C124.813 181.426 125.176 181.063 125.54 180.881C125.995 180.699 126.449 180.517 126.904 180.517C127.358 180.517 127.813 180.608 128.176 180.79C128.54 180.972 128.813 181.154 129.085 181.517L128.358 182.245C128.085 181.881 127.54 181.608 126.995 181.608Z" fill="white"/>
<path d="M133.813 180.881C134.177 181.063 134.541 181.426 134.813 181.79C135.086 182.245 135.177 182.699 135.177 183.154C135.177 183.608 135.086 184.154 134.813 184.517C134.541 184.881 134.268 185.245 133.813 185.426C133.359 185.608 132.904 185.79 132.359 185.79C131.813 185.79 131.359 185.699 130.904 185.426C130.541 185.245 130.177 184.881 129.904 184.517C129.631 184.063 129.541 183.608 129.541 183.154C129.541 182.699 129.631 182.154 129.904 181.79C130.177 181.426 130.45 181.063 130.904 180.881C131.359 180.608 131.813 180.517 132.359 180.517C132.904 180.517 133.359 180.608 133.813 180.881ZM131.359 182.063C130.813 182.699 130.813 183.699 131.359 184.336C131.631 184.608 131.995 184.79 132.45 184.79C132.813 184.79 133.268 184.608 133.541 184.336C134.086 183.699 134.086 182.699 133.541 182.063C133.268 181.79 132.904 181.608 132.45 181.608C131.995 181.608 131.631 181.699 131.359 182.063Z" fill="white"/>
<path d="M144.45 181.063C144.813 181.426 144.995 181.972 144.995 182.517V185.79H143.722V182.881C143.722 182.517 143.631 182.245 143.45 181.972C143.268 181.79 142.904 181.608 142.631 181.608C142.268 181.608 141.904 181.79 141.631 182.063C141.359 182.335 141.268 182.699 141.268 183.154V185.699H139.995V182.881C139.995 182.517 139.904 182.245 139.722 181.972C139.54 181.79 139.177 181.608 138.904 181.608C138.54 181.608 138.177 181.79 137.904 182.063C137.631 182.335 137.54 182.79 137.631 183.154V185.699H136.359V180.517H137.631V181.517C138.268 180.517 139.631 180.245 140.631 180.79C140.904 180.972 141.177 181.335 141.268 181.699C141.54 180.881 142.359 180.426 143.177 180.426C143.631 180.426 144.086 180.699 144.45 181.063Z" fill="white"/>
<path d="M92.9964 205.881V204.256H89.4604C91.7094 202.618 92.9314 201.331 92.9314 199.849C92.9314 198.12 91.4754 197.08 89.6164 197.08C88.4074 197.08 87.1204 197.522 86.2754 198.497L87.3284 199.719C87.9134 199.108 88.6674 198.718 89.6554 198.718C90.3704 198.718 91.0594 199.082 91.0594 199.849C91.0594 200.915 90.0194 201.799 86.4704 204.425V205.881H92.9964ZM97.6843 206.037C100.167 206.037 101.272 203.788 101.272 201.552C101.272 199.316 100.167 197.08 97.6843 197.08C95.2013 197.08 94.0963 199.316 94.0963 201.552C94.0963 203.788 95.2013 206.037 97.6843 206.037ZM97.6843 204.399C96.4493 204.399 95.9813 203.151 95.9813 201.552C95.9813 199.953 96.4493 198.718 97.6843 198.718C98.9323 198.718 99.3873 199.953 99.3873 201.552C99.3873 203.151 98.9193 204.399 97.6843 204.399ZM108.853 205.881V204.256H105.317C107.566 202.618 108.788 201.331 108.788 199.849C108.788 198.12 107.332 197.08 105.473 197.08C104.264 197.08 102.977 197.522 102.132 198.497L103.185 199.719C103.77 199.108 104.524 198.718 105.512 198.718C106.227 198.718 106.916 199.082 106.916 199.849C106.916 200.915 105.876 201.799 102.327 204.425V205.881H108.853ZM113.19 206.037C115.27 206.037 116.609 204.984 116.609 203.489C116.609 202.189 115.465 201.5 114.581 201.409C115.543 201.24 116.479 200.525 116.479 199.433C116.479 197.99 115.231 197.08 113.203 197.08C111.682 197.08 110.59 197.665 109.888 198.458L110.811 199.615C111.422 199.03 112.176 198.718 113.021 198.718C113.918 198.718 114.633 199.056 114.633 199.745C114.633 200.382 113.983 200.668 113.021 200.668C112.696 200.668 112.098 200.668 111.942 200.655V202.319C112.072 202.306 112.657 202.293 113.021 202.293C114.23 202.293 114.763 202.605 114.763 203.294C114.763 203.944 114.178 204.399 113.125 204.399C112.28 204.399 111.331 204.035 110.746 203.411L109.771 204.646C110.408 205.426 111.604 206.037 113.19 206.037Z" fill="black"/>
<line x1="46.5" y1="201.381" x2="78.5" y2="201.381" stroke="black"/>
<line x1="123.5" y1="201.381" x2="155.5" y2="201.381" stroke="black"/>
</svg>
