<?xml version="1.0" encoding="UTF-8"?> <svg xmlns="http://www.w3.org/2000/svg" id="Layer_1" data-name="Layer 1" viewBox="0 0 100 100"><defs><style>.cls-1{fill:#eb5e03;}.cls-2{fill:#ffcf00;}.cls-3{fill:#fff;}.cls-3,.cls-4{fill-rule:evenodd;}</style></defs><g id="Logo"><circle id="Oval" class="cls-1" cx="29.31" cy="50" r="26.31"></circle><circle id="Oval-2" data-name="Oval" class="cls-2" cx="70.69" cy="50" r="26.31"></circle><path id="UX" class="cls-3" d="M29,53.42A11.56,11.56,0,0,1,28.67,56a6.1,6.1,0,0,1-.93,2.14A4.56,4.56,0,0,1,26,59.63a5.6,5.6,0,0,1-2.58.54,5.48,5.48,0,0,1-2.56-.54,4.59,4.59,0,0,1-1.67-1.45A5.91,5.91,0,0,1,18.3,56,12.17,12.17,0,0,1,18,53.42V41.34h2.34V53.18A11.75,11.75,0,0,0,20.5,55a5.07,5.07,0,0,0,.5,1.54,2.79,2.79,0,0,0,1,1.08,2.71,2.71,0,0,0,1.54.4,2.69,2.69,0,0,0,1.54-.4A2.9,2.9,0,0,0,26,56.53a5.07,5.07,0,0,0,.5-1.54,11.75,11.75,0,0,0,.14-1.81V41.34H29Zm7.42-5.22,3-6.86H41.8L37.62,50l4.68,9.69H39.75L36.3,52l-3.45,7.74H30.38L35,50l-4.18-8.67h2.46Z"></path><path id="UI" class="cls-4" d="M73.16,53.42A11.56,11.56,0,0,1,72.87,56a6.1,6.1,0,0,1-.93,2.14,4.53,4.53,0,0,1-1.7,1.45,5.61,5.61,0,0,1-2.59.54,5.41,5.41,0,0,1-2.55-.54,4.63,4.63,0,0,1-1.68-1.45A5.91,5.91,0,0,1,62.5,56a12.18,12.18,0,0,1-.27-2.62V41.34h2.33V53.18A10.61,10.61,0,0,0,64.71,55a5.06,5.06,0,0,0,.49,1.54,2.79,2.79,0,0,0,1,1.08,2.75,2.75,0,0,0,1.55.4,2.68,2.68,0,0,0,1.53-.4,2.93,2.93,0,0,0,1-1.08A5.35,5.35,0,0,0,70.68,55a11.75,11.75,0,0,0,.14-1.81V41.34h2.34Zm3.32,6.31V41.34h2.33V59.73Z"></path></g></svg> 