<svg width="24" height="24" viewBox="0 0 24 24" fill="none" xmlns="http://www.w3.org/2000/svg">
    <g clip-path="url(#clip0_16_13408)">
        <path
            d="M19.5 0H4.5C2.019 0 0 2.019 0 4.5V19.5C0 21.981 2.019 24 4.5 24H19.5C21.981 24 24 21.981 24 19.5V4.5C24 2.019 21.981 0 19.5 0ZM23 19.5C23 21.43 21.43 23 19.5 23H4.5C2.57 23 1 21.43 1 19.5V4.5C1 2.57 2.57 1 4.5 1H19.5C21.43 1 23 2.57 23 4.5V19.5ZM19 5.5V8.5C19 9.327 18.327 10 17.5 10H14.5C14.224 10 14 9.776 14 9.5C14 9.224 14.224 9 14.5 9H17.183C16.109 7.148 14.154 6 12 6C8.882 6 6.254 8.433 6.018 11.538C5.997 11.8 5.779 12 5.52 12C5.506 12 5.494 12 5.481 11.999C5.206 11.978 5 11.738 5.02 11.462C5.296 7.838 8.363 5 12 5C14.483 5 16.738 6.308 18 8.424V5.5C18 5.224 18.224 5 18.5 5C18.776 5 19 5.224 19 5.5ZM18.98 12.538C18.704 16.162 15.637 19 12 19C9.517 19 7.262 17.692 6 15.576V18.5C6 18.776 5.776 19 5.5 19C5.224 19 5 18.776 5 18.5V15.5C5 14.673 5.673 14 6.5 14H9.5C9.776 14 10 14.224 10 14.5C10 14.776 9.776 15 9.5 15H6.817C7.891 16.852 9.846 18 12 18C15.118 18 17.746 15.567 17.982 12.462C18.003 12.186 18.266 11.983 18.519 12.002C18.794 12.023 19 12.262 18.98 12.538Z"
            fill="#02E1B8" />
    </g>
    <defs>
        <clipPath id="clip0_16_13408">
            <rect width="24" height="24" fill="white" />
        </clipPath>
    </defs>
</svg>