<svg width="20" height="20" viewBox="0 0 20 20" fill="none" xmlns="http://www.w3.org/2000/svg">
<g clip-path="url(#clip0_803_268)">
<path d="M18.5232 0H1.4776C0.6616 0 0 0.6416 0 1.4328V18.5664C0 19.3584 0.6616 20 1.4776 20H18.5232C19.3392 20 20 19.3576 20 18.5664V1.4328C20 0.6416 19.3392 0 18.5232 0Z" fill="#6FDA44" style="fill:#6FDA44;fill:color(display-p3 0.4353 0.8549 0.2667);fill-opacity:1;"/>
<path d="M14.6768 11.6298C13.8896 11.6298 13.1528 11.2962 12.4824 10.753L12.6456 9.98656L12.6528 9.95856C12.7984 9.14256 13.2592 7.77216 14.6768 7.77216C15.74 7.77216 16.6048 8.63856 16.6048 9.70256C16.6016 10.7634 15.7368 11.6298 14.6768 11.6298ZM14.6768 5.81616C12.8656 5.81616 11.4616 6.99456 10.8912 8.93216C10.0192 7.62256 9.35998 6.05056 8.97358 4.72656H7.02478V9.80496C7.02478 10.8058 6.20958 11.6218 5.20958 11.6218C4.20958 11.6218 3.39518 10.8058 3.39518 9.80496V4.72656H1.44558V9.80496C1.43838 11.885 3.12958 13.5922 5.20638 13.5922C7.28318 13.5922 8.97438 11.885 8.97438 9.80496V8.95296C9.35358 9.74416 9.81758 10.5426 10.3816 11.253L9.18718 16.8746H11.1832L12.048 12.797C12.8064 13.2834 13.6784 13.5882 14.6784 13.5882C16.816 13.5882 18.556 11.8346 18.556 9.69456C18.5544 7.55856 16.8144 5.81616 14.6768 5.81616Z" fill="white" style="fill:white;fill-opacity:1;"/>
</g>
<defs>
<clipPath id="clip0_803_268">
<rect width="20" height="20" rx="4" fill="white" style="fill:white;fill-opacity:1;"/>
</clipPath>
</defs>
</svg>
