<svg width="21" height="15" viewBox="0 0 21 15" fill="none" xmlns="http://www.w3.org/2000/svg">
<path d="M16.0044 1.41007C13.8499 1.41007 12.2239 2.83283 11.5735 5.0686C10.5573 3.48324 9.74424 1.69462 9.29709 0.149902H7.02067V6.12551C7.02067 7.30437 6.04506 8.27998 4.86619 8.27998C3.68733 8.27998 2.71172 7.30437 2.71172 6.12551V0.190553H0.516602V6.16616C0.516602 8.64584 2.50847 10.6377 4.9475 10.6377C7.38652 10.6377 9.37839 8.64584 9.37839 6.16616V5.1499C9.82554 6.04421 10.3947 7.01982 11.0044 7.87348L9.58164 14.4995H11.8987L12.8743 9.6621C13.7686 10.2312 14.7849 10.5564 16.0044 10.5564C18.4841 10.5564 20.5166 8.52389 20.5166 5.92226C20.5166 3.44258 18.4841 1.41007 16.0044 1.41007ZM16.0044 8.27998C15.1101 8.27998 14.1751 7.87348 13.4434 7.26372L13.6873 6.36941V6.32876C13.8499 5.35315 14.3784 3.72714 16.0451 3.72714C17.3052 3.72714 18.3215 4.7434 18.3215 6.00356C18.2808 7.26372 17.1833 8.27998 16.0044 8.27998Z" fill="white" style="fill:white;fill-opacity:1;"/>
</svg>
