<svg width="24" height="24" viewBox="0 0 24 24" fill="none" xmlns="http://www.w3.org/2000/svg">
    <g clip-path="url(#clip0_15_13394)">
        <path
            d="M19.5 1H4.5C2.019 1 0 3.019 0 5.5V14.5C0 16.981 2.019 19 4.5 19H11.5V22H7C6.724 22 6.5 22.224 6.5 22.5C6.5 22.776 6.724 23 7 23H17C17.276 23 17.5 22.776 17.5 22.5C17.5 22.224 17.276 22 17 22H12.5V19H19.5C21.981 19 24 16.981 24 14.5V5.5C24 3.019 21.981 1 19.5 1ZM23 14.5C23 16.43 21.43 18 19.5 18H4.5C2.57 18 1 16.43 1 14.5V5.5C1 3.57 2.57 2 4.5 2H19.5C21.43 2 23 3.57 23 5.5V14.5ZM18.268 8.234C19.243 9.209 19.243 10.796 18.268 11.77L15.185 14.853C15.087 14.951 14.959 14.999 14.831 14.999C14.703 14.999 14.575 14.95 14.477 14.853C14.282 14.658 14.282 14.341 14.477 14.146L17.56 11.063C18.145 10.478 18.145 9.526 17.56 8.941L14.472 5.853C14.277 5.658 14.277 5.341 14.472 5.146C14.667 4.951 14.984 4.951 15.179 5.146L18.268 8.234ZM6.44 8.941C5.855 9.526 5.855 10.478 6.44 11.063L9.523 14.146C9.718 14.341 9.718 14.658 9.523 14.853C9.425 14.951 9.297 14.999 9.169 14.999C9.041 14.999 8.913 14.95 8.815 14.853L5.732 11.77C4.757 10.795 4.757 9.208 5.732 8.234L8.82 5.146C9.015 4.951 9.332 4.951 9.527 5.146C9.722 5.341 9.722 5.658 9.527 5.853L6.44 8.941Z"
            fill="#02E1B8" />
    </g>
    <defs>
        <clipPath id="clip0_15_13394">
            <rect width="24" height="24" fill="white" />
        </clipPath>
    </defs>
</svg>