<svg width="20" height="21" viewBox="0 0 20 21" fill="none" xmlns="http://www.w3.org/2000/svg">
<path fill-rule="evenodd" clip-rule="evenodd" d="M15 20.2334H5C3.67394 20.2333 2.4022 19.7065 1.46453 18.7689C0.526861 17.8312 5.80115e-05 16.5595 0 15.2334L0 5.2334C5.80115e-05 3.90733 0.526861 2.6356 1.46453 1.69793C2.4022 0.760259 3.67394 0.233456 5 0.233398L15 0.233398C16.3261 0.233398 17.5979 0.760183 18.5355 1.69786C19.4732 2.63555 20 3.90732 20 5.2334V15.2334C20 16.5595 19.4732 17.8313 18.5355 18.7689C17.5979 19.7066 16.3261 20.2334 15 20.2334Z" fill="#FF0000"/>
<path fill-rule="evenodd" clip-rule="evenodd" d="M9.375 5.8584H15C15.721 5.85835 16.4145 5.58142 16.9372 5.08478C17.4599 4.58814 17.7719 3.90973 17.8088 3.18965C17.8457 2.46957 17.6047 1.76282 17.1355 1.21536C16.6663 0.667889 16.0047 0.321518 15.2875 0.247773C15.1919 0.242461 15.0972 0.233398 15 0.233398H5C3.67394 0.233456 2.4022 0.760259 1.46453 1.69793C0.526861 2.6356 5.80115e-05 3.90733 0 5.2334L0 15.2334C5.80137e-05 12.747 0.987797 10.3625 2.74594 8.60434C4.50408 6.8462 6.88861 5.85846 9.375 5.8584Z" fill="#FF5A51"/>
<path fill-rule="evenodd" clip-rule="evenodd" d="M15 10.2334C14.0111 10.2334 13.0444 10.5266 12.2222 11.0761C11.3999 11.6255 10.759 12.4064 10.3806 13.32C10.0022 14.2336 9.90315 15.2389 10.0961 16.2088C10.289 17.1788 10.7652 18.0697 11.4645 18.7689C12.1637 19.4682 13.0546 19.9444 14.0246 20.1373C14.9945 20.3303 15.9998 20.2312 16.9134 19.8528C17.8271 19.4744 18.6079 18.8335 19.1574 18.0112C19.7068 17.189 20 16.2223 20 15.2334V5.2334C20 6.55948 19.4732 7.83125 18.5355 8.76893C17.5979 9.70661 16.3261 10.2334 15 10.2334Z" fill="#D5002C"/>
<path fill-rule="evenodd" clip-rule="evenodd" d="M7.8275 5.81988C7.73282 5.76155 7.62429 5.72956 7.51311 5.72719C7.40193 5.72483 7.29213 5.75217 7.19506 5.80642C7.09798 5.86066 7.01713 5.93982 6.96087 6.03574C6.90461 6.13166 6.87496 6.24086 6.875 6.35206V14.1152C6.87496 14.2264 6.90461 14.3356 6.96087 14.4315C7.01713 14.5274 7.09798 14.6066 7.19506 14.6608C7.29213 14.7151 7.40193 14.7424 7.51311 14.7401C7.62429 14.7377 7.73282 14.7057 7.8275 14.6474C9.42094 13.6671 12.6022 11.7092 14.135 10.7658C14.2259 10.7099 14.301 10.6316 14.3531 10.5385C14.4052 10.4453 14.4325 10.3404 14.4325 10.2336C14.4325 10.1269 14.4052 10.0219 14.3531 9.92878C14.301 9.83561 14.2259 9.75734 14.135 9.70144C12.6022 8.758 9.42094 6.80019 7.8275 5.81988Z" fill="white"/>
</svg>
