<svg width="20" height="16" viewBox="0 0 20 16" fill="none" xmlns="http://www.w3.org/2000/svg">
<g clip-path="url(#clip0_647_1108)">
<path d="M19.582 2.84238C19.352 1.92048 18.6742 1.19429 17.8138 0.947857C16.2542 0.5 10 0.5 10 0.5C10 0.5 3.74578 0.5 2.18622 0.947857C1.32578 1.19429 0.648 1.92048 0.418 2.84238C0 4.51333 0 8 0 8C0 8 0 11.4867 0.418 13.1576C0.648 14.0795 1.32578 14.8057 2.18622 15.0521C3.74578 15.5 10 15.5 10 15.5C10 15.5 16.2542 15.5 17.8138 15.0521C18.6742 14.8057 19.352 14.0795 19.582 13.1576C20 11.4867 20 8 20 8C20 8 20 4.51333 19.582 2.84238ZM8 11.2143V4.78571L13.196 8L8 11.2143Z" fill="white" style="fill:white;fill-opacity:1;"/>
</g>
<defs>
<clipPath id="clip0_647_1108">
<rect width="20" height="15" fill="white" style="fill:white;fill-opacity:1;" transform="translate(0 0.5)"/>
</clipPath>
</defs>
</svg>
