<svg width="1440" height="960" viewBox="0 0 1440 960" fill="none" xmlns="http://www.w3.org/2000/svg">
<g clip-path="url(#clip0_102_2302)">
<rect width="1440" height="960" fill="white"/>
<g filter="url(#filter0_f_102_2302)">
<circle cx="1184.17" cy="855" r="280" fill="#11A9F1"/>
</g>
<path d="M1440 83.3333V140H1212C1207.4 140 1203.67 136.269 1203.67 131.667V91.6667C1203.67 87.0643 1207.4 83.3333 1212 83.3333L1440 83.3333Z" fill="#0486FF"/>
<path d="M1243.83 107.911H1238.64C1238.55 107.241 1238.36 106.645 1238.06 106.124C1237.77 105.595 1237.4 105.145 1236.94 104.775C1236.48 104.404 1235.95 104.12 1235.35 103.922C1234.76 103.725 1234.12 103.626 1233.42 103.626C1232.17 103.626 1231.08 103.938 1230.15 104.562C1229.21 105.177 1228.49 106.077 1227.98 107.26C1227.47 108.436 1227.21 109.865 1227.21 111.545C1227.21 113.274 1227.47 114.726 1227.98 115.901C1228.5 117.077 1229.23 117.965 1230.16 118.565C1231.09 119.165 1232.17 119.464 1233.39 119.464C1234.07 119.464 1234.71 119.374 1235.29 119.192C1235.89 119.011 1236.41 118.746 1236.87 118.399C1237.33 118.044 1237.7 117.614 1238 117.109C1238.31 116.604 1238.53 116.028 1238.64 115.381L1243.83 115.404C1243.69 116.517 1243.36 117.59 1242.82 118.624C1242.29 119.65 1241.58 120.569 1240.68 121.382C1239.79 122.187 1238.72 122.826 1237.48 123.3C1236.25 123.765 1234.86 123.998 1233.31 123.998C1231.14 123.998 1229.21 123.509 1227.51 122.53C1225.81 121.552 1224.47 120.135 1223.48 118.281C1222.5 116.426 1222.01 114.181 1222.01 111.545C1222.01 108.902 1222.51 106.653 1223.5 104.798C1224.5 102.944 1225.85 101.531 1227.55 100.561C1229.26 99.582 1231.17 99.0928 1233.31 99.0928C1234.71 99.0928 1236.01 99.29 1237.21 99.6846C1238.42 100.079 1239.49 100.655 1240.42 101.413C1241.35 102.163 1242.11 103.082 1242.69 104.171C1243.28 105.26 1243.66 106.507 1243.83 107.911ZM1255.62 124.022C1253.79 124.022 1252.2 123.631 1250.85 122.85C1249.52 122.061 1248.49 120.964 1247.76 119.559C1247.04 118.147 1246.68 116.509 1246.68 114.647C1246.68 112.769 1247.04 111.127 1247.76 109.722C1248.49 108.31 1249.52 107.213 1250.85 106.432C1252.2 105.643 1253.79 105.248 1255.62 105.248C1257.46 105.248 1259.05 105.643 1260.38 106.432C1261.72 107.213 1262.76 108.31 1263.48 109.722C1264.21 111.127 1264.57 112.769 1264.57 114.647C1264.57 116.509 1264.21 118.147 1263.48 119.559C1262.76 120.964 1261.72 122.061 1260.38 122.85C1259.05 123.631 1257.46 124.022 1255.62 124.022ZM1255.65 120.115C1256.48 120.115 1257.18 119.879 1257.74 119.405C1258.3 118.924 1258.73 118.269 1259.01 117.44C1259.3 116.612 1259.45 115.669 1259.45 114.611C1259.45 113.554 1259.3 112.611 1259.01 111.782C1258.73 110.954 1258.3 110.299 1257.74 109.817C1257.18 109.336 1256.48 109.095 1255.65 109.095C1254.8 109.095 1254.09 109.336 1253.52 109.817C1252.95 110.299 1252.52 110.954 1252.23 111.782C1251.94 112.611 1251.8 113.554 1251.8 114.611C1251.8 115.669 1251.94 116.612 1252.23 117.44C1252.52 118.269 1252.95 118.924 1253.52 119.405C1254.09 119.879 1254.8 120.115 1255.65 120.115ZM1267.85 123.667V105.485H1272.74V108.657H1272.93C1273.26 107.529 1273.82 106.676 1274.6 106.1C1275.38 105.516 1276.28 105.224 1277.3 105.224C1277.55 105.224 1277.82 105.24 1278.11 105.272C1278.41 105.303 1278.66 105.347 1278.88 105.402V109.876C1278.65 109.805 1278.32 109.742 1277.9 109.687C1277.48 109.632 1277.1 109.604 1276.75 109.604C1276.01 109.604 1275.35 109.766 1274.77 110.089C1274.19 110.405 1273.73 110.847 1273.39 111.415C1273.06 111.983 1272.89 112.638 1272.89 113.38V123.667H1267.85ZM1288.93 124.022C1287.06 124.022 1285.45 123.643 1284.1 122.885C1282.76 122.12 1281.73 121.039 1281 119.642C1280.27 118.237 1279.91 116.576 1279.91 114.659C1279.91 112.788 1280.27 111.147 1281 109.734C1281.73 108.322 1282.75 107.221 1284.07 106.432C1285.39 105.643 1286.95 105.248 1288.73 105.248C1289.93 105.248 1291.05 105.441 1292.08 105.828C1293.12 106.207 1294.03 106.779 1294.8 107.544C1295.58 108.31 1296.19 109.273 1296.63 110.433C1297.06 111.585 1297.28 112.934 1297.28 114.481V115.866H1281.92V112.741H1292.53C1292.53 112.015 1292.37 111.372 1292.06 110.812C1291.74 110.251 1291.3 109.813 1290.74 109.498C1290.19 109.174 1289.55 109.012 1288.81 109.012C1288.05 109.012 1287.37 109.19 1286.78 109.545C1286.19 109.892 1285.74 110.362 1285.4 110.954C1285.07 111.538 1284.9 112.189 1284.89 112.907V115.878C1284.89 116.777 1285.06 117.555 1285.39 118.21C1285.73 118.865 1286.21 119.37 1286.82 119.725C1287.44 120.08 1288.17 120.258 1289.01 120.258C1289.57 120.258 1290.09 120.179 1290.55 120.021C1291.02 119.863 1291.42 119.626 1291.75 119.311C1292.08 118.995 1292.33 118.608 1292.51 118.151L1297.17 118.458C1296.93 119.579 1296.45 120.557 1295.71 121.394C1294.99 122.222 1294.05 122.87 1292.9 123.335C1291.75 123.793 1290.43 124.022 1288.93 124.022ZM1312.76 99.4242L1318.62 117.843H1318.84L1324.71 99.4242H1330.39L1322.04 123.667H1315.43L1307.06 99.4242H1312.76ZM1336.38 124.01C1335.22 124.01 1334.19 123.809 1333.28 123.406C1332.37 122.996 1331.66 122.392 1331.13 121.595C1330.61 120.79 1330.35 119.788 1330.35 118.589C1330.35 117.578 1330.53 116.73 1330.9 116.044C1331.27 115.357 1331.78 114.805 1332.42 114.386C1333.06 113.968 1333.78 113.652 1334.6 113.439C1335.42 113.226 1336.28 113.076 1337.18 112.99C1338.23 112.879 1339.09 112.776 1339.73 112.682C1340.38 112.579 1340.85 112.429 1341.14 112.232C1341.43 112.035 1341.58 111.743 1341.58 111.356V111.285C1341.58 110.535 1341.34 109.955 1340.87 109.545C1340.4 109.135 1339.74 108.929 1338.88 108.929C1337.97 108.929 1337.25 109.131 1336.71 109.533C1336.18 109.928 1335.82 110.425 1335.65 111.025L1330.99 110.646C1331.22 109.541 1331.69 108.586 1332.38 107.781C1333.08 106.968 1333.97 106.345 1335.07 105.911C1336.17 105.469 1337.45 105.248 1338.9 105.248C1339.91 105.248 1340.88 105.366 1341.8 105.603C1342.74 105.84 1343.56 106.207 1344.28 106.704C1345 107.201 1345.58 107.84 1345.99 108.622C1346.41 109.395 1346.62 110.322 1346.62 111.403V123.667H1341.84V121.145H1341.7C1341.41 121.714 1341.02 122.215 1340.53 122.649C1340.04 123.075 1339.45 123.41 1338.76 123.655C1338.08 123.892 1337.28 124.01 1336.38 124.01ZM1337.83 120.53C1338.57 120.53 1339.22 120.384 1339.79 120.092C1340.36 119.792 1340.81 119.389 1341.13 118.884C1341.45 118.379 1341.62 117.807 1341.62 117.168V115.239C1341.46 115.341 1341.24 115.436 1340.96 115.523C1340.7 115.602 1340.39 115.677 1340.05 115.748C1339.71 115.811 1339.37 115.87 1339.03 115.925C1338.7 115.972 1338.39 116.016 1338.11 116.055C1337.52 116.142 1337 116.28 1336.56 116.47C1336.12 116.659 1335.78 116.916 1335.53 117.239C1335.29 117.555 1335.16 117.949 1335.16 118.423C1335.16 119.109 1335.41 119.634 1335.91 119.997C1336.41 120.352 1337.05 120.53 1337.83 120.53ZM1355.58 99.4242V123.667H1350.53V99.4242H1355.58ZM1371.28 115.925V105.485H1376.32V123.667H1371.48V120.364H1371.29C1370.88 121.429 1370.19 122.286 1369.24 122.933C1368.29 123.58 1367.14 123.903 1365.77 123.903C1364.56 123.903 1363.49 123.627 1362.56 123.075C1361.64 122.522 1360.92 121.737 1360.4 120.719C1359.88 119.701 1359.62 118.482 1359.62 117.062V105.485H1364.66V116.162C1364.67 117.235 1364.96 118.083 1365.52 118.707C1366.09 119.33 1366.85 119.642 1367.81 119.642C1368.42 119.642 1368.98 119.504 1369.51 119.228C1370.04 118.944 1370.47 118.525 1370.79 117.973C1371.12 117.421 1371.28 116.738 1371.28 115.925ZM1388.64 124.022C1386.77 124.022 1385.16 123.643 1383.81 122.885C1382.47 122.12 1381.43 121.039 1380.71 119.642C1379.98 118.237 1379.62 116.576 1379.62 114.659C1379.62 112.788 1379.98 111.147 1380.71 109.734C1381.43 108.322 1382.46 107.221 1383.77 106.432C1385.1 105.643 1386.65 105.248 1388.44 105.248C1389.64 105.248 1390.75 105.441 1391.79 105.828C1392.83 106.207 1393.74 106.779 1394.51 107.544C1395.29 108.31 1395.9 109.273 1396.33 110.433C1396.77 111.585 1396.98 112.934 1396.98 114.481V115.866H1381.63V112.741H1392.24C1392.24 112.015 1392.08 111.372 1391.76 110.812C1391.45 110.251 1391.01 109.813 1390.45 109.498C1389.9 109.174 1389.25 109.012 1388.52 109.012C1387.75 109.012 1387.08 109.19 1386.48 109.545C1385.9 109.892 1385.44 110.362 1385.11 110.954C1384.78 111.538 1384.61 112.189 1384.6 112.907V115.878C1384.6 116.777 1384.77 117.555 1385.1 118.21C1385.44 118.865 1385.92 119.37 1386.53 119.725C1387.15 120.08 1387.88 120.258 1388.72 120.258C1389.28 120.258 1389.79 120.179 1390.26 120.021C1390.73 119.863 1391.12 119.626 1391.46 119.311C1391.79 118.995 1392.04 118.608 1392.21 118.151L1396.88 118.458C1396.64 119.579 1396.15 120.557 1395.42 121.394C1394.69 122.222 1393.76 122.87 1392.6 123.335C1391.46 123.793 1390.14 124.022 1388.64 124.022Z" fill="white"/>
<path d="M193.518 491.611L188.052 459.457L180.605 432.989L221.625 414.237C226.117 416.982 225.922 420.097 225.922 424.394L218.109 455.647L227.68 484.174L193.518 491.611Z" fill="#FFBF9D"/>
<path d="M110.836 373.148C112.5 376.486 113.813 379.135 114.776 381.094L143.167 441.915L143.209 442.098C139.721 443.668 135.757 444.835 131.314 445.598C126.9 446.483 122.645 446.946 118.551 446.989L118.368 447.031C117.189 445.249 115.927 443.102 114.58 440.589C113.356 438.048 112.056 435.461 110.682 432.826C109.43 430.163 108.144 427.637 106.826 425.246C105.507 422.855 104.212 420.844 102.94 419.212C101.3 419.332 100.053 419.489 99.2003 419.685C98.3474 419.881 97.5554 420.063 96.8244 420.231C96.2152 420.37 95.4981 420.599 94.6732 420.917C93.9421 421.085 92.9064 421.322 91.5662 421.63C91.1608 423.775 90.9611 426.258 90.9672 429.079C91.0672 431.749 91.1482 434.616 91.2102 437.681C91.3662 440.595 91.4472 443.462 91.4533 446.283C91.4594 449.103 91.1519 451.675 90.5307 453.998C90.4089 454.026 90.301 454.115 90.2072 454.264C90.2072 454.264 90.1462 454.278 90.0244 454.306C89.1056 454.774 86.6687 455.333 82.7138 455.984C78.7589 456.636 72.6528 457.973 64.3954 459.997C64.2736 460.025 64.1377 459.992 63.9879 459.898C64.0358 458.989 63.9169 456.515 63.6311 452.477C63.3453 448.438 63.0375 443.186 62.7077 436.72C62.3778 430.254 62.021 422.833 61.6372 414.455C61.3472 405.928 61.1891 396.858 61.1627 387.244C61.1364 377.631 61.2089 367.609 61.3803 357.181C61.5517 346.752 61.9807 336.328 62.6674 325.91C63.4923 325.592 64.3922 325.321 65.3669 325.098C66.3417 324.874 67.621 324.58 69.205 324.217C70.7889 323.853 72.7994 323.391 75.2362 322.832C77.767 322.123 81.0008 321.124 84.9377 319.836C85.6668 321.336 86.7745 323.647 88.2607 326.769C89.8408 329.741 91.5328 333.2 93.3366 337.147C95.2343 340.944 97.202 345.046 99.2395 349.452C101.399 353.83 103.455 358.04 105.409 362.081C107.363 366.121 109.172 369.811 110.836 373.148ZM91.9578 399.03C94.2448 398.377 96.5459 397.784 98.8609 397.253C95.2371 387.054 92.2666 379.142 89.9494 373.518C87.754 367.865 86.053 364.087 84.8465 362.183C83.7618 360.252 82.9937 359.979 82.5424 361.365C82.1849 362.602 82.1071 365.057 82.309 368.73C82.6327 372.375 83.0443 376.963 83.5439 382.491C84.1653 387.992 84.7628 393.948 85.3363 400.357C87.4356 400.004 89.6428 399.561 91.9578 399.03ZM157.074 332.521C155.452 333.278 154.266 334.256 153.515 335.454C153.327 335.754 153.181 336.236 153.077 336.901C153.067 337.417 153.03 337.81 152.964 338.082C152.804 338.503 153.05 340.691 153.701 344.646C154.474 348.573 155.415 353.231 156.524 358.62C157.633 364.009 158.858 369.628 160.201 375.477C161.515 381.203 162.845 386.157 164.189 390.337C165.366 393.787 167.077 397.05 169.322 400.126C171.661 403.052 174.709 404.597 178.467 404.76C181.203 404.389 183.617 403.45 185.708 401.944C187.893 400.288 189.315 398.102 189.975 395.385C190.671 392.275 190.549 389.225 189.606 386.235C188.757 383.095 188.287 379.932 188.197 376.746C189.959 376.598 191.861 376.225 193.905 375.628C196.07 375.003 198.249 374.438 200.442 373.935C202.635 373.432 204.782 373.003 206.881 372.649C209.102 372.268 211.122 372.125 212.939 372.221C216.465 378.081 218.468 384.291 218.947 390.851C219.399 397.288 218.553 403.383 216.41 409.133C214.267 414.884 210.893 420.02 206.287 424.54C201.775 428.911 196.182 431.926 189.509 433.586C185.262 435.202 180.754 436.237 175.984 436.691C171.242 437.266 166.651 437.102 162.211 436.197C157.742 435.17 153.715 433.273 150.13 430.505C146.666 427.708 144.103 423.807 142.441 418.802C141.191 414.471 139.959 409.944 138.746 405.22C137.534 400.496 136.195 395.224 134.731 389.404C133.36 383.433 131.822 376.732 130.116 369.3C128.504 361.717 126.626 352.978 124.482 343.08C123.763 341.065 123.349 338.98 123.239 336.825C123.223 334.519 123.37 332.369 123.682 330.374C124.051 326.954 124.72 323.722 125.689 320.678C126.779 317.606 128.244 314.769 130.084 312.166C131.2 310.883 132.481 309.756 133.925 308.783C135.341 307.688 136.846 306.702 138.44 305.823C143.625 302.708 149.001 300.705 154.568 299.812C160.135 298.919 165.546 299.023 170.801 300.126C176.151 301.078 181.18 302.874 185.89 305.512C190.6 308.151 194.644 311.519 198.022 315.618C201.372 319.595 203.906 324.208 205.624 329.457C207.342 334.706 207.869 340.357 207.207 346.409C202.922 348.419 198.559 349.805 194.116 350.568C189.768 351.182 185.181 351.593 180.355 351.803C179.458 349.572 178.613 347.008 177.82 344.112C177.149 341.188 176.229 338.577 175.06 336.28C173.864 333.861 172.231 332.056 170.161 330.863C168.214 329.643 165.487 329.499 161.982 330.432C160.454 331.039 158.818 331.736 157.074 332.521ZM246.315 312.036C244.693 312.793 243.506 313.771 242.755 314.969C242.568 315.269 242.422 315.751 242.318 316.416C242.308 316.932 242.27 317.325 242.204 317.597C242.044 318.018 242.29 320.206 242.941 324.161C243.715 328.088 244.656 332.746 245.764 338.135C246.873 343.524 248.099 349.143 249.441 354.992C250.756 360.718 252.085 365.672 253.43 369.852C254.606 373.302 256.317 376.565 258.563 379.641C260.902 382.567 263.95 384.112 267.707 384.275C270.444 383.904 272.857 382.965 274.949 381.459C277.134 379.803 278.556 377.616 279.215 374.9C279.912 371.79 279.789 368.74 278.846 365.75C277.997 362.61 277.528 359.447 277.438 356.261C279.199 356.113 281.102 355.74 283.145 355.143C285.31 354.518 287.49 353.953 289.683 353.45C291.876 352.947 294.022 352.518 296.122 352.164C298.343 351.783 300.362 351.64 302.18 351.736C305.705 357.596 307.708 363.806 308.188 370.366C308.639 376.803 307.794 382.898 305.651 388.648C303.508 394.399 300.133 399.535 295.527 404.055C291.015 408.426 285.423 411.441 278.749 413.101C274.503 414.717 269.994 415.752 265.225 416.206C260.483 416.781 255.891 416.616 251.451 415.712C246.983 414.685 242.956 412.788 239.37 410.02C235.907 407.223 233.344 403.322 231.682 398.317C230.431 393.986 229.2 389.459 227.987 384.735C226.774 380.011 225.436 374.739 223.971 368.919C222.601 362.948 221.063 356.247 219.357 348.815C217.744 341.232 215.866 332.493 213.723 322.595C213.004 320.58 212.589 318.495 212.479 316.339C212.463 314.034 212.611 311.884 212.922 309.889C213.292 306.469 213.961 303.237 214.929 300.193C216.02 297.121 217.485 294.283 219.324 291.681C220.441 290.398 221.721 289.271 223.165 288.298C224.582 287.203 226.087 286.216 227.68 285.337C232.866 282.223 238.242 280.22 243.809 279.327C249.375 278.433 254.787 278.538 260.042 279.641C265.391 280.593 270.421 282.389 275.131 285.027C279.841 287.665 283.885 291.034 287.263 295.133C290.612 299.109 293.146 303.722 294.864 308.972C296.582 314.221 297.11 319.872 296.447 325.924C292.163 327.934 287.799 329.32 283.357 330.083C279.009 330.696 274.421 331.108 269.596 331.318C268.699 329.087 267.854 326.523 267.061 323.627C266.389 320.703 265.469 318.092 264.301 315.795C263.104 313.376 261.471 311.571 259.402 310.378C257.454 309.158 254.728 309.014 251.222 309.947C249.694 310.554 248.058 311.251 246.315 312.036ZM364.44 265.681C368.701 268.037 372.052 271.18 374.493 275.109C375.765 276.741 376.808 278.49 377.621 280.355C378.528 282.071 379.327 283.876 380.018 285.769C380.961 288.759 381.782 291.777 382.481 294.824C383.274 297.72 383.96 300.705 384.537 303.779C385.654 310.321 386.972 316.623 388.493 322.688C390.013 328.752 391.257 335.008 392.224 341.456L393.06 347.613C393.795 351.933 394.118 356.412 394.028 361.05C393.91 365.567 393.161 369.843 391.778 373.88C390.378 377.28 388.182 380.285 385.19 382.896C382.292 385.357 379.066 387.508 375.513 389.35C372.325 391.108 368.992 392.514 365.515 393.569C362.159 394.596 358.687 395.393 355.097 395.96C352.483 396.304 349.901 396.512 347.352 396.584C344.953 396.75 342.545 396.597 340.128 396.126C337.833 395.626 335.665 394.841 333.624 393.771C331.554 392.578 329.692 390.89 328.036 388.705C325.631 386.05 323.732 383.087 322.339 379.815C321.041 376.394 319.925 372.93 318.992 369.425C316.445 360.005 313.837 350.599 311.168 341.207C308.593 331.665 306.506 322.012 304.905 312.246C303.768 306.735 303.18 301.099 303.14 295.336C303.193 289.424 304.619 283.902 307.418 278.77C308.356 277.272 309.506 275.854 310.866 274.515C314.439 271.643 318.443 269.249 322.877 267.333C327.406 265.267 332.013 263.825 336.699 263.006C341.506 262.159 346.271 261.963 350.993 262.418C355.809 262.724 360.291 263.811 364.44 265.681ZM367.187 332.965L365.174 324.193L361.955 311.849C361.927 311.727 361.526 310.536 360.751 308.277C360.069 305.868 359.43 303.642 358.833 301.599C357.806 298.243 356.118 295.36 353.769 292.949C351.542 290.51 348.873 288.942 345.763 288.245C343.102 287.83 340.563 288.221 338.144 289.417C335.725 290.614 333.709 292.167 332.095 294.076C328.585 298.345 326.687 303.206 326.4 308.659C326.488 313.513 326.997 318.526 327.928 323.7C328.981 328.845 330.217 333.949 331.635 339.01C333.223 343.135 334.656 347.423 335.935 351.875C337.186 356.206 338.882 360.242 341.023 363.983C342.801 366.14 345.001 367.623 347.624 368.432C350.246 369.241 352.926 369.459 355.662 369.088C358.371 368.594 360.968 367.613 363.452 366.145C365.909 364.555 367.814 362.515 369.166 360.024C369.927 358.31 370.453 356.971 370.745 356.006C371.008 354.919 371.075 353.814 370.945 352.689C370.815 351.564 370.522 350.285 370.064 348.851C369.701 347.267 369.347 345.168 369.003 342.553C368.566 340.088 368.137 337.942 367.718 336.114C367.42 334.259 367.243 333.209 367.187 332.965ZM459.416 239.069C461.787 238.781 463.801 238.896 465.459 239.413C469.77 254.842 473.636 270.564 477.056 286.582C480.448 302.477 483.095 318.48 484.998 334.589C485.869 342.854 484.389 350.377 480.558 357.156C476.727 363.936 470.523 368.759 461.947 371.625C456.941 373.288 451.585 374.261 445.878 374.544C440.199 374.95 434.84 374.513 429.801 373.233C424.855 371.803 420.412 369.488 416.47 366.288C412.623 362.939 409.935 358.489 408.404 352.94C404.712 336.857 401.175 320.61 397.793 304.199C394.411 287.788 390.752 271.569 386.816 255.542L386.591 255.401L386.774 255.359C388.602 254.94 390.598 254.417 392.763 253.792C395.05 253.139 397.352 252.546 399.667 252.015C401.982 251.483 404.264 251.088 406.513 250.828C408.734 250.447 410.814 250.29 412.754 250.358L412.796 250.54C418.224 280.334 425.639 310.121 435.04 339.9C436.564 342.629 438.576 344.411 441.077 345.248C443.7 346.057 446.216 346.121 448.625 345.439C451.033 344.758 453.092 343.388 454.799 341.329C456.507 339.269 457.344 336.768 457.31 333.826C454.563 319.065 451.455 304.13 447.987 289.022C444.641 273.885 441.528 259.208 438.649 244.99C440.205 244.505 442.174 243.861 444.555 243.058C447.03 242.105 449.532 241.274 452.063 240.565C454.594 239.855 457.045 239.357 459.416 239.069ZM582.088 341.931C581.291 342.37 579.857 342.828 577.786 343.303C575.349 343.863 572.505 344.323 569.253 344.685C566.029 345.168 563.199 345.69 560.762 346.249C554.671 338.156 548.651 330.367 542.7 322.883C536.843 315.249 531.618 307.854 527.026 300.7L523.94 295.636C523.145 294.408 522.378 293.301 521.639 292.317C520.993 291.182 520.549 290.643 520.305 290.699C520.183 290.727 520.336 292.231 520.764 295.211C521.313 298.163 522.044 301.907 522.957 306.443C523.87 310.98 524.895 316.003 526.032 321.514C527.291 326.997 528.507 332.297 529.682 337.415C530.325 340.217 530.955 342.958 531.57 345.639C532.157 348.198 532.75 350.499 533.347 352.542C532.091 353.215 530.806 353.767 529.494 354.196C528.182 354.626 526.855 354.994 525.515 355.302C522.591 355.973 519.564 356.476 516.434 356.809C513.426 357.115 510.52 357.589 507.718 358.233L504.781 345.439C502.124 333.864 499.471 322.865 496.822 312.443C494.295 301.992 491.717 291.04 489.088 279.587C487.158 271.18 485.378 262.867 483.748 254.647C482.089 246.306 480.67 238.166 479.489 230.229C480.652 229.705 481.889 229.229 483.201 228.799C484.635 228.342 486.084 227.945 487.546 227.61C488.277 227.442 489.509 227.223 491.243 226.953C492.949 226.562 494.683 226.292 496.444 226.144C498.178 225.874 499.682 225.722 500.956 225.686C502.353 225.622 503.079 225.711 503.135 225.955C504.491 227.953 505.703 229.598 506.769 230.893C507.836 232.187 508.828 233.434 509.745 234.635C510.783 235.807 511.864 237.162 512.987 238.7C514.203 240.089 515.653 241.936 517.337 244.243C517.721 244.796 518.535 245.828 519.779 247.338C521.024 248.848 522.46 250.635 524.088 252.698C525.688 254.64 527.391 256.75 529.197 259.029C530.974 261.186 532.588 263.188 534.039 265.036C535.583 266.734 536.888 268.23 537.955 269.524C538.994 270.697 539.574 271.269 539.696 271.241C540.005 270.913 540.03 269.625 539.77 267.376C539.511 265.127 539.143 262.966 538.668 260.895C537.549 256.021 536.392 251.541 535.198 247.454C534.097 243.218 533.043 238.906 532.036 234.52C531.449 231.961 530.861 229.403 530.274 226.844C529.781 224.135 529.245 221.244 528.668 218.17C532.643 216.488 536.945 215.116 541.575 214.053C546.083 213.018 550.188 212.461 553.889 212.381L567.398 271.231C568.695 276.32 569.944 281.485 571.147 286.724C572.35 291.963 573.552 297.202 574.755 302.442C575.566 305.975 576.288 309.401 576.922 312.718C577.677 316.008 578.446 319.359 579.229 322.77C579.788 325.207 580.348 327.644 580.907 330.081C581.588 332.49 582.209 334.913 582.768 337.35L583.607 341.005C583.392 341.183 582.885 341.491 582.088 341.931ZM601.74 201.204C614.993 198.034 628.048 195.678 640.906 194.138C642.072 198.102 643.196 202.718 644.277 207.986C645.48 213.225 646.28 218.108 646.678 222.634C644.251 222.678 641.345 223.152 637.962 224.057C634.578 224.962 630.051 226.194 624.38 227.752L624.015 227.836L623.832 227.878C623.86 228 623.827 228.136 623.733 228.286C623.733 228.286 623.747 228.346 623.775 228.468C623.793 229.105 623.895 230.108 624.081 231.476C624.36 232.695 624.822 234.705 625.465 237.508C626.081 240.188 626.906 243.783 627.94 248.291C629.069 252.649 630.506 258.348 632.25 265.387C633.966 272.304 636.017 280.683 638.405 290.524C640.764 300.244 643.59 311.716 646.882 324.941L646.924 325.124L646.966 325.306C644.857 326.175 642.476 326.979 639.823 327.716C637.265 328.303 634.645 328.904 631.964 329.52C629.406 330.107 626.847 330.694 624.288 331.282C621.73 331.869 619.396 332.597 617.286 333.466C617.053 333.007 616.549 330.814 615.776 326.887C615.003 322.96 613.735 317.158 611.973 309.482C610.305 301.656 607.965 291.74 604.952 279.733C602.061 267.699 598.293 253.237 593.646 236.346L593.421 236.206C591.791 235.81 589.866 235.803 587.645 236.185C585.395 236.445 583.174 236.826 580.981 237.33C578.76 237.711 576.736 238.112 574.908 238.531C573.08 238.951 571.773 239.123 570.986 239.047C570.63 238.615 570.107 237.453 569.416 235.559C568.846 233.638 568.193 231.351 567.456 228.698C566.813 225.896 566.128 222.911 565.4 219.743C564.673 216.575 564.096 213.501 563.668 210.521C563.64 210.399 563.565 210.352 563.444 210.38C563.444 210.38 563.43 210.319 563.402 210.197C575.802 207.222 588.581 204.225 601.74 201.204ZM711.424 235.284C713.088 238.621 714.402 241.27 715.364 243.229L743.756 304.051L743.797 304.233C740.31 305.803 736.345 306.97 731.903 307.733C727.489 308.618 723.234 309.082 719.139 309.124L718.956 309.166C717.778 307.384 716.515 305.237 715.169 302.724C713.945 300.184 712.645 297.596 711.271 294.961C710.018 292.299 708.733 289.772 707.414 287.381C706.096 284.99 704.801 282.979 703.528 281.347C701.888 281.467 700.642 281.625 699.789 281.821C698.936 282.016 698.144 282.198 697.413 282.366C696.804 282.506 696.087 282.735 695.262 283.052C694.531 283.22 693.495 283.458 692.155 283.766C691.749 285.911 691.55 288.394 691.556 291.214C691.656 293.885 691.737 296.752 691.799 299.816C691.955 302.73 692.036 305.598 692.042 308.418C692.048 311.238 691.74 313.81 691.119 316.133C690.998 316.161 690.89 316.25 690.796 316.4C690.796 316.4 690.735 316.414 690.613 316.442C689.694 316.909 687.257 317.469 683.302 318.12C679.348 318.771 673.241 320.109 664.984 322.132C664.862 322.16 664.726 322.127 664.577 322.034C664.624 321.125 664.505 318.651 664.22 314.612C663.934 310.573 663.626 305.321 663.296 298.855C662.966 292.39 662.61 284.968 662.226 276.591C661.936 268.064 661.778 258.993 661.751 249.38C661.725 239.766 661.797 229.745 661.969 219.316C662.14 208.887 662.569 198.464 663.256 188.045C664.081 187.727 664.981 187.457 665.956 187.233C666.93 187.009 668.21 186.716 669.794 186.352C671.378 185.988 673.388 185.527 675.825 184.968C678.356 184.258 681.589 183.259 685.526 181.971C686.255 183.471 687.363 185.782 688.849 188.904C690.429 191.876 692.121 195.336 693.925 199.283C695.823 203.08 697.791 207.181 699.828 211.588C701.988 215.966 704.044 220.175 705.998 224.216C707.951 228.257 709.76 231.946 711.424 235.284ZM692.546 261.165C694.833 260.512 697.134 259.92 699.449 259.388C695.826 249.19 692.855 241.278 690.538 235.653C688.343 230 686.642 226.222 685.435 224.319C684.35 222.387 683.582 222.115 683.131 223.501C682.773 224.737 682.696 227.192 682.898 230.866C683.221 234.511 683.633 239.098 684.133 244.627C684.754 250.128 685.351 256.083 685.925 262.493C688.024 262.139 690.231 261.697 692.546 261.165ZM799.782 225.776C800.137 226.207 800.703 226.718 801.48 227.31C803.989 229.299 806.376 231.316 808.641 233.362C811.001 235.257 813.097 237.405 814.931 239.806C816.858 242.057 818.429 244.711 819.644 247.767C820.859 250.823 821.548 254.384 821.712 258.451C822.052 264.401 821.24 269.526 819.276 273.824C817.407 277.973 814.747 281.47 811.295 284.314C807.844 287.159 803.826 289.492 799.242 291.314C794.63 293.014 789.765 294.451 784.648 295.626C779.68 296.894 774.596 297.933 769.394 298.742C764.315 299.524 759.568 300.357 755.154 301.242C754.422 301.41 753.691 301.577 752.96 301.745C752.351 301.885 751.714 301.903 751.049 301.799C745.479 280.888 740.5 260.034 736.111 239.237C731.693 218.318 726.869 197.3 721.637 176.183L721.777 175.958C726.343 173.499 731.284 171.275 736.599 169.285C741.914 167.296 747.28 165.807 752.697 164.82C758.114 163.833 763.414 163.451 768.595 163.672C773.898 163.866 778.788 165.052 783.264 167.231C787.713 169.288 791.579 172.441 794.863 176.69C798.119 180.816 800.53 186.291 802.096 193.114C803.271 198.232 803.504 203.437 802.795 208.73C802.208 213.996 801.171 218.979 799.686 223.681C799.394 224.646 799.426 225.344 799.782 225.776ZM787.634 265.889C789.172 264.766 790.382 263.334 791.265 261.592C792.186 259.457 792.291 257.124 791.582 254.593C790.995 252.034 790.037 249.817 788.709 247.942C787.642 246.647 786.252 245.62 784.538 244.859C782.796 243.976 781.091 243.534 779.423 243.532C776.968 243.454 774.523 243.695 772.086 244.254C769.621 244.692 767.203 245.054 764.832 245.342C764.764 247.281 764.813 249.451 764.979 251.85C765.145 254.248 765.447 256.68 765.884 259.145C766.416 261.46 767.116 263.672 767.985 265.782C768.854 267.891 769.943 269.565 771.254 270.803L771.661 270.902C773.367 270.51 775.148 270.166 777.003 269.868C778.953 269.421 780.827 268.926 782.627 268.385C784.521 267.694 786.19 266.862 787.634 265.889ZM776.069 214.673C777.551 213.306 778.57 211.598 779.125 209.546C779.643 207.888 779.982 206.015 780.144 203.925C780.306 201.836 779.675 199.928 778.253 198.203C776.831 196.477 775.216 195.308 773.408 194.697C771.694 193.936 769.807 193.536 767.745 193.496C765.197 193.568 762.521 193.926 759.719 194.569C757.01 195.063 754.854 196.006 753.25 197.401C754.137 200.147 754.798 203.587 755.234 207.719C755.791 211.824 757.108 215.883 759.183 219.896C761.067 219.72 763.058 219.455 765.158 219.101C767.257 218.748 769.253 218.225 771.147 217.534C773.04 216.843 774.681 215.889 776.069 214.673ZM824.357 150.487C827.309 149.938 831.513 148.973 836.968 147.593L841.354 146.586L841.522 147.317C843.927 157.795 846.164 168.377 848.232 179.061C850.421 189.717 852.625 200.434 854.842 211.212C857.154 221.841 859.587 232.441 862.142 243.013C864.697 253.586 867.468 263.98 870.455 274.197C869.704 275.396 867.758 276.42 864.618 277.269C861.628 278.211 858.292 279.042 854.608 279.759C851.047 280.448 847.593 281.048 844.248 281.56C840.93 282.193 838.704 282.832 837.569 283.478C835.905 272.316 833.739 261.205 831.072 250.146C828.405 239.086 825.644 228.176 822.79 217.416C820.029 206.506 817.371 195.765 814.816 185.192C812.354 174.47 810.497 163.866 809.244 153.379L809.161 153.014C809.742 152.752 810.913 152.547 812.675 152.399C814.531 152.102 815.885 151.855 816.738 151.659C818.959 151.278 821.499 150.887 824.357 150.487ZM956.517 234.433C956.797 235.651 957.11 236.734 957.455 237.68C958.706 242.011 959.597 245.334 960.128 247.649C960.632 249.842 960.827 251.529 960.713 252.709C960.693 253.74 960.331 254.4 959.628 254.69C958.897 254.857 957.861 255.095 956.521 255.403C955.153 255.589 953.386 255.994 951.221 256.619C949.178 257.217 945.611 258.164 940.522 259.46C935.554 260.729 928.623 262.384 919.729 264.426C910.956 266.439 899.17 269.017 884.371 272.157L883.616 268.867C881.884 259.645 880.301 251.351 878.866 243.984C877.404 236.496 875.945 229.584 874.491 223.248C873.13 216.762 871.765 210.534 870.394 204.564C869.024 198.594 867.565 192.516 866.016 186.33C864.468 180.144 862.836 173.592 861.12 166.675C859.376 159.636 857.464 151.866 855.384 143.365C856.491 142.598 858.295 141.799 860.798 140.968C863.273 140.015 865.973 139.203 868.897 138.532C871.821 137.86 874.726 137.386 877.613 137.108C880.499 136.83 882.879 136.861 884.752 137.201C886.327 145.177 888.079 153.368 890.009 161.775C892.032 170.033 894.07 178.351 896.122 186.73C898.174 195.109 900.164 203.502 902.094 211.91C904.118 220.167 905.964 228.209 907.632 236.034L907.674 236.217C908.471 235.778 910.041 235.353 912.384 234.944C914.821 234.384 917.637 233.802 920.833 233.197C924.029 232.591 927.422 232.005 931.011 231.437C934.694 230.72 938.134 230.059 941.33 229.454C944.647 228.82 947.539 228.285 950.003 227.847C952.562 227.26 954.315 226.793 955.262 226.448C955.569 227.788 955.816 229.142 956.002 230.511C956.16 231.757 956.332 233.064 956.517 234.433ZM956.076 120.251C959.028 119.702 963.232 118.737 968.687 117.357L973.073 116.35L973.241 117.081C975.646 127.559 977.883 138.141 979.951 148.825C982.14 159.481 984.344 170.198 986.561 180.976C988.873 191.605 991.306 202.205 993.861 212.778C996.416 223.35 999.187 233.744 1002.17 243.961C1001.42 245.16 999.477 246.184 996.337 247.033C993.347 247.975 990.011 248.806 986.327 249.523C982.766 250.212 979.312 250.812 975.967 251.324C972.649 251.957 970.423 252.596 969.288 253.242C967.624 242.08 965.458 230.969 962.791 219.91C960.124 208.85 957.363 197.94 954.509 187.18C951.748 176.27 949.09 165.529 946.535 154.956C944.073 144.234 942.216 133.63 940.964 123.143L940.88 122.778C941.461 122.516 942.632 122.311 944.394 122.163C946.25 121.866 947.604 121.619 948.457 121.423C950.678 121.042 953.218 120.651 956.076 120.251ZM1020.1 105.17C1033.35 102 1046.41 99.644 1059.27 98.1035C1060.43 102.068 1061.56 106.684 1062.64 111.952C1063.84 117.191 1064.64 122.074 1065.04 126.6C1062.61 126.644 1059.7 127.118 1056.32 128.023C1052.94 128.928 1048.41 130.16 1042.74 131.718L1042.37 131.802L1042.19 131.844C1042.22 131.966 1042.19 132.102 1042.09 132.251C1042.09 132.251 1042.11 132.312 1042.13 132.434C1042.15 133.071 1042.25 134.074 1042.44 135.442C1042.72 136.661 1043.18 138.671 1043.82 141.474C1044.44 144.154 1045.27 147.749 1046.3 152.257C1047.43 156.615 1048.87 162.314 1050.61 169.353C1052.33 176.27 1054.38 184.649 1056.76 194.49C1059.12 204.21 1061.95 215.682 1065.24 228.907L1065.28 229.09L1065.33 229.272C1063.22 230.141 1060.84 230.945 1058.18 231.682C1055.62 232.269 1053 232.87 1050.32 233.486C1047.77 234.073 1045.21 234.66 1042.65 235.248C1040.09 235.835 1037.76 236.563 1035.65 237.432C1035.41 236.973 1034.91 234.78 1034.14 230.853C1033.36 226.926 1032.09 221.124 1030.33 213.448C1028.66 205.622 1026.32 195.706 1023.31 183.699C1020.42 171.665 1016.65 157.203 1012.01 140.312L1011.78 140.172C1010.15 139.776 1008.23 139.769 1006 140.151C1003.75 140.411 1001.53 140.792 999.341 141.296C997.119 141.677 995.095 142.078 993.267 142.497C991.44 142.917 990.132 143.089 989.345 143.013C988.99 142.581 988.467 141.419 987.775 139.525C987.206 137.604 986.553 135.317 985.816 132.664C985.172 129.862 984.487 126.877 983.76 123.709C983.033 120.541 982.455 117.467 982.028 114.487C982 114.365 981.925 114.318 981.803 114.346C981.803 114.346 981.789 114.285 981.761 114.163C994.161 111.188 1006.94 108.191 1020.1 105.17ZM1140.7 79.6019C1141.92 79.3222 1142.91 79.1594 1143.67 79.1134L1143.71 79.2962C1142.82 91.0452 1141.26 102.69 1139.03 114.232C1136.81 125.773 1134.4 137.356 1131.81 148.981C1129.19 160.485 1126.71 172.021 1124.36 183.591C1121.99 195.038 1120.2 206.542 1119.01 218.104C1118.25 218.15 1117.51 218.256 1116.78 218.424C1116.04 218.592 1115.25 218.774 1114.4 218.97C1111.84 219.557 1109.05 220.261 1106.03 221.082C1103.04 222.025 1100.15 222.818 1097.35 223.462C1096.61 223.629 1095.88 223.797 1095.15 223.965C1094.42 224.133 1093.68 224.24 1092.92 224.286L1092.55 224.37C1093.45 213.773 1094.81 202.624 1096.61 190.923C1098.39 179.1 1100.17 167.338 1101.98 155.637L1101.89 155.272C1099.32 150.218 1096.4 145.31 1093.13 140.546C1089.82 135.66 1086.41 130.863 1082.9 126.156C1079.5 121.42 1076.17 116.67 1072.89 111.906C1069.62 107.142 1066.78 102.342 1064.39 97.504C1066.83 96.9446 1069.35 96.1745 1071.94 95.1936C1074.54 94.2128 1077.18 93.4147 1079.86 92.7994C1081.32 92.4638 1082.81 92.25 1084.33 92.158C1085.82 91.9442 1087.3 91.9881 1088.78 92.2897C1090.01 94.8304 1091.59 97.8025 1093.52 101.206C1095.58 104.582 1097.65 108.018 1099.74 111.516C1101.95 114.985 1104.11 118.272 1106.23 121.376C1108.48 124.452 1110.42 127.021 1112.04 129.085C1112.76 126.612 1113.33 123.53 1113.77 119.838C1114.3 115.997 1114.74 112.048 1115.09 107.992C1115.56 103.907 1115.99 99.8969 1116.37 95.9619C1116.75 92.0269 1117.21 88.7152 1117.74 86.0266C1119.83 85.0358 1122.68 84.0599 1126.31 83.099C1130.03 81.9883 1133.47 81.0693 1136.64 80.3421C1138.1 80.0065 1139.46 79.7597 1140.7 79.6019Z" fill="#0486FF"/>
<path d="M637.974 356.814L620.687 333.055L634.928 329.652C634.928 329.652 638.246 303.062 643.687 298.586C649.127 294.11 652.351 297.903 651.557 303.704C650.763 309.506 648.45 310.568 648.261 316.256C648.071 321.943 648.761 325.6 648.761 325.6C648.761 325.6 659.006 336.848 661.091 351.218L660.597 358.535L637.974 356.814Z" fill="#F3B493"/>
<path d="M653.701 323.604C661 325.006 663.42 327.64 667.397 332.704C667.397 332.704 671.762 346.764 667.122 359.749C665.17 365.208 673.672 394.632 673.672 394.632L635.164 392.045L637.144 355.64L646.722 326.403L653.701 323.604Z" fill="#F3B493"/>
<path d="M196.099 451.764C193.012 439.427 196.959 425.576 206.091 416.722C201.692 410.905 199.237 403.642 199.205 396.348C199.199 394.722 199.326 393.036 200.094 391.603C200.866 390.171 202.425 389.054 204.042 389.26C206.107 389.522 207.373 391.743 207.635 393.808C207.898 395.874 207.499 397.987 207.841 400.043C208.688 405.132 213.61 408.314 217.862 411.234C222.113 414.157 226.56 418.484 225.706 423.57L219.506 450.28L196.099 451.764Z" fill="#FFBF9D"/>
<path d="M468.259 794.399L359.965 781.294L355.701 796.984C349.944 812.455 346.325 828.622 345.329 845.098C341.002 916.81 340.594 1028.88 340.594 1028.88L263.141 1236.37L334.77 1249.38L432.683 1033.84L458.349 884.467L468.259 794.399Z" fill="#263238"/>
<path d="M532.964 789.683C532.787 790.569 533.366 805.847 533.366 805.847C565.715 849.985 646.986 982.282 651.753 1004.15C657.674 1031.32 593.541 1244.06 593.541 1244.06L518.904 1233.65L572.016 1032.61L456.77 891.606L461.903 794.864L532.964 789.683Z" fill="#263238"/>
<path d="M359.055 796L384.645 800.716L387.045 787.478L361.962 783.743L359.055 796Z" fill="#455A64"/>
<path d="M391.16 801.757L428.903 807.008L432.136 793.818L394.045 789.051L391.16 801.757Z" fill="#455A64"/>
<path d="M434.406 808.03L436.962 794.852C436.962 794.852 457.81 798.255 470.008 798.028C482.202 797.803 507.577 794.852 507.577 794.852L507.577 808.621C507.577 808.621 481.613 811.572 469.419 810.785C457.222 809.997 434.406 808.03 434.406 808.03Z" fill="#455A64"/>
<path d="M512.895 808.029C512.895 807.242 512.895 794.852 512.895 794.852L532.949 792.229L533.37 805.847L512.895 808.029Z" fill="#455A64"/>
<path d="M471.723 868.136C472.112 868.338 467.937 877.144 462.398 887.804C456.86 898.467 452.055 906.944 451.666 906.742C451.277 906.539 455.452 897.733 460.991 887.07C466.529 876.414 471.334 867.933 471.723 868.136Z" fill="#455A64"/>
<path d="M401.717 814.571C401.876 814.656 400.607 817.462 397.805 821.565C395.015 825.664 390.542 830.956 384.671 835.786C378.785 840.6 372.717 843.95 368.15 845.883C363.579 847.828 360.581 848.518 360.527 848.35C360.296 847.86 372.132 844.127 383.665 834.562C395.306 825.126 401.284 814.251 401.717 814.571Z" fill="#455A64"/>
<path d="M181.758 459.398C182.334 461.448 189.89 566.294 206.212 577.2C222.537 588.107 365.702 614.035 365.702 614.035L361.375 525.755L322.727 539.904L244.448 529.569L218.216 446.094L181.758 459.398Z" fill="#224670"/>
<path d="M346.773 608.842L353.486 761.461L352.515 764.513C350.648 770.381 355.415 779.886 361.413 781.294C385.377 786.921 440.843 796.338 468.947 797.439C505.15 798.859 532.967 789.68 532.967 789.68C537.718 784.394 540.903 776.087 535.788 771.634L540.466 589.407L531.882 533.97L524.983 525.106L481.863 526.403L469.245 512.773L407.997 508.297L396.625 523.114L361.381 525.752L346.773 608.842Z" fill="#224670"/>
<path opacity="0.3" d="M451.666 591.447L432.137 757.829L463.073 787.38L487.343 757.848L451.666 591.447Z" fill="black"/>
<path d="M454.809 559.613L438.797 753.208L464.975 782.246L487.339 757.848C487.339 757.848 473.794 619.131 470.565 594.686C467.006 567.745 465.481 558.088 465.481 558.088L454.809 559.613Z" fill="#11A9F1"/>
<path d="M632.768 372.452L623.314 458.933L567.731 510.192C549.641 513.905 522.187 525.109 522.187 527.219L538.668 618.059L564.441 584.001C564.441 584.001 667.016 504.953 671.22 490.182C675.424 475.413 676.743 372.452 676.743 372.452L632.768 372.452Z" fill="#224670"/>
<path d="M456.929 539.245C457.062 539.324 456.021 541.355 454.073 544.781C453.01 546.593 451.808 548.634 450.482 550.892C449.752 552.069 448.99 553.299 448.196 554.584C447.31 555.893 446.63 557.168 445.289 558.639L444.941 559.021L444.431 558.67C440.069 555.646 435.182 552.259 430.011 548.675C420.97 542.345 412.838 536.544 406.998 532.28C404.079 530.148 401.732 528.399 400.128 527.162C398.528 525.925 397.67 525.198 397.734 525.109C397.797 525.021 398.771 525.574 400.482 526.656C402.194 527.738 404.639 529.345 407.641 531.36C413.644 535.389 421.878 541.045 430.918 547.375C436.055 551.006 440.911 554.441 445.244 557.503L444.387 557.535C446.285 555.286 447.999 552.452 449.48 550.263C450.906 548.074 452.2 546.094 453.345 544.341C455.506 541.045 456.793 539.166 456.929 539.245Z" fill="#263238"/>
<path d="M455.369 563.735L448.523 553.964L455.267 542.478L461.04 542.478L469.843 551.512L466.155 562.542L455.369 563.735Z" fill="#11A9F1"/>
<path d="M479.001 529.557C479.2 529.576 479.2 532.176 478.549 536.326C477.897 540.467 476.508 546.154 473.959 552.057C473.677 552.689 473.399 553.312 473.137 553.901L472.687 554.91L471.878 554.144C467.595 550.089 463.834 546.423 461.18 543.728C458.526 541.036 456.976 539.319 457.118 539.167C457.261 539.015 459.07 540.457 461.917 542.947C464.767 545.433 468.654 548.966 472.963 552.993L471.704 553.237C471.96 552.661 472.229 552.047 472.504 551.427C477.527 539.847 478.498 529.472 479.001 529.557Z" fill="#263238"/>
<path d="M644.512 475.767C644.145 476.077 640.207 471.529 634.185 467.369C628.197 463.156 622.57 461.033 622.734 460.581C622.823 460.192 628.88 461.701 635.092 466.066C641.336 470.387 644.848 475.549 644.512 475.767Z" fill="#263238"/>
<path d="M358.608 536.364C358.716 536.351 358.921 537.379 359.197 539.252C359.491 541.125 359.75 543.854 359.915 547.242C360.256 554.008 359.927 563.441 358.004 573.632C356.056 583.824 352.905 592.719 350.106 598.89C348.711 601.981 347.471 604.426 346.509 606.061C345.567 607.703 345 608.585 344.902 608.532C344.668 608.408 346.566 604.688 349.071 598.454C351.583 592.226 354.521 583.397 356.445 573.338C358.343 563.276 358.846 553.986 358.792 547.274C358.751 540.552 358.346 536.393 358.608 536.364Z" fill="#263238"/>
<path d="M539.638 621.661C539.527 621.658 539.451 620.389 539.407 618.103C539.375 615.48 539.337 612.241 539.293 608.414C539.179 600.24 539.052 588.941 538.081 576.526C537.161 564.107 535.31 552.964 533.115 545.128C530.942 537.277 528.478 532.827 528.747 532.688C528.842 532.634 529.49 533.725 530.585 535.753C531.625 537.806 532.928 540.883 534.194 544.806C536.696 552.657 538.742 563.905 539.666 576.399C540.64 588.891 540.59 600.227 540.416 608.417C540.308 612.513 540.178 615.825 540.027 618.112C539.878 620.402 539.745 621.664 539.638 621.661Z" fill="#263238"/>
<path d="M346.775 573.525C346.358 573.705 342.385 565.24 337.118 555.004C331.867 544.756 327.306 536.598 327.695 536.364C328.053 536.142 333.25 543.974 338.529 554.28C343.827 564.576 347.164 573.363 346.775 573.525Z" fill="#263238"/>
<path d="M246.191 530.462C246.593 530.408 247.596 537.069 246.691 545.272C245.824 553.48 243.427 559.775 243.044 559.635C242.595 559.503 244.268 553.129 245.113 545.101C246.002 537.079 245.723 530.493 246.191 530.462Z" fill="#263238"/>
<path opacity="0.3" d="M413.805 536.363L445.844 565.215L461.04 542.478L456.928 539.992L444.835 558.088L413.805 537.765" fill="black"/>
<path d="M438.799 780.765C438.789 780.876 437.765 780.882 435.911 780.806C434.057 780.737 431.388 780.531 428.092 780.186C421.503 779.503 412.434 778.127 402.581 775.821C392.728 773.502 383.994 770.694 377.791 768.372C374.688 767.211 372.205 766.205 370.516 765.44C368.823 764.684 367.909 764.219 367.951 764.114C368.039 763.89 371.889 765.269 378.161 767.309C384.431 769.352 393.158 771.971 402.945 774.274C412.731 776.564 421.712 778.105 428.234 779.07C434.76 780.041 438.821 780.525 438.799 780.765Z" fill="#263238"/>
<path d="M432.035 362.041C434.258 357.534 439.591 354.782 444.554 355.588C450.264 350.872 459.333 350.856 465.061 355.557C469.388 352.871 475.129 352.643 479.656 354.978C484.182 357.312 487.327 362.123 487.649 367.203C492.723 366.289 498.243 368.934 500.71 373.46C503.177 377.99 502.405 384.06 498.885 387.827C504.465 389.513 508.235 395.77 507.118 401.489C506.002 407.211 500.156 411.592 494.352 411.054L434.54 375.899C430.877 372.454 429.811 366.552 432.035 362.041Z" fill="#263238"/>
<path d="M474.269 518.216L474.354 508.878C474.354 508.878 501.352 504.108 501.127 477.025C501.02 463.946 498.603 437.027 496.136 412.69C493.482 386.524 471.178 366.786 444.886 367.33L442.273 367.384C414.137 369.611 400.308 394.751 403.31 422.818L407.985 508.306L456.602 536.366" fill="#F3B493"/>
<path d="M474.328 508.919C474.328 508.919 457.313 510.231 438.891 499.182C438.891 499.182 447.586 518.55 474.299 515.637L474.328 508.919Z" fill="#FF9A6C"/>
<path d="M484.086 439.105C484.2 441.145 482.568 442.926 480.439 443.084C478.313 443.242 476.494 441.721 476.381 439.681C476.267 437.64 477.899 435.856 480.025 435.698C482.154 435.54 483.969 437.068 484.086 439.105Z" fill="#263238"/>
<path d="M490.902 427.43C490.434 427.942 487.461 425.836 483.298 425.934C479.141 425.972 476.13 428.173 475.668 427.673C475.441 427.452 475.912 426.531 477.222 425.535C478.512 424.545 480.723 423.561 483.317 423.517C485.908 423.479 488.109 424.387 489.381 425.339C490.684 426.294 491.133 427.196 490.902 427.43Z" fill="#263238"/>
<path d="M446.352 439.856C446.466 441.896 444.833 443.674 442.705 443.832C440.579 443.99 438.76 442.469 438.646 440.429C438.532 438.388 440.168 436.607 442.29 436.449C444.419 436.288 446.238 437.816 446.352 439.856Z" fill="#263238"/>
<path d="M451.101 427.67C450.633 428.185 447.654 426.076 443.497 426.174C439.341 426.212 436.33 428.413 435.868 427.913C435.64 427.692 436.108 426.771 437.421 425.778C438.708 424.788 440.922 423.804 443.516 423.76C446.107 423.722 448.308 424.63 449.583 425.582C450.877 426.537 451.332 427.442 451.101 427.67Z" fill="#263238"/>
<path d="M465.498 458.223C465.473 457.985 468.051 457.486 472.233 456.862C473.292 456.733 474.295 456.499 474.459 455.771C474.694 454.999 474.225 453.861 473.684 452.637C472.631 450.087 471.53 447.411 470.376 444.612C465.773 433.18 462.421 423.776 462.882 423.592C463.344 423.412 467.45 432.528 472.049 443.96C473.16 446.778 474.219 449.467 475.228 452.039C475.655 453.238 476.376 454.595 475.864 456.198C475.595 456.999 474.826 457.59 474.15 457.789C473.473 458.011 472.875 458.036 472.35 458.077C468.133 458.384 465.52 458.457 465.498 458.223Z" fill="#263238"/>
<path d="M450.914 415.78C450.443 416.871 446.837 415.976 442.484 416.137C438.129 416.201 434.523 417.279 434.054 416.213C433.849 415.704 434.557 414.704 436.066 413.752C437.562 412.8 439.881 411.984 442.491 411.918C445.1 411.854 447.416 412.55 448.912 413.426C450.414 414.296 451.12 415.261 450.914 415.78Z" fill="#263238"/>
<path d="M489.743 416.035C489.11 417.051 486.159 416.368 482.724 416.678C479.279 416.864 476.454 417.962 475.686 417.048C475.344 416.598 475.705 415.612 476.881 414.59C478.039 413.575 480.057 412.635 482.423 412.461C484.786 412.293 486.918 412.936 488.208 413.774C489.521 414.615 490.018 415.542 489.743 416.035Z" fill="#263238"/>
<path d="M493.296 400.323C493.296 400.323 485.806 383.514 477.547 379.725C467.548 375.138 463.512 386.092 454.022 383.65C444.533 381.208 434.99 376.805 425.5 384.296C415.112 392.494 420.17 397.992 419.769 410.021C418.13 458.788 409.517 472.744 406.515 449.852C406.186 447.344 399.17 445.49 397.914 434.89C396.292 421.146 395.415 404.435 398.288 394.598C400.711 386.307 405.288 380.519 413.581 374.072C426.674 363.893 444.931 363.305 457.356 364.298C469.784 365.288 493.989 379.067 493.296 400.323Z" fill="#263238"/>
<path d="M408.211 449.081C407.955 444.905 404.285 441.679 400.129 442.16C395.09 442.745 389.529 445.728 390.076 456.157C391.048 474.658 409.422 469.863 409.426 469.331C409.432 468.971 408.689 456.818 408.211 449.081Z" fill="#F3B493"/>
<path d="M405.046 462.584C404.961 462.53 404.737 462.827 404.205 463.106C403.686 463.378 402.782 463.593 401.798 463.28C399.805 462.666 397.996 459.648 397.733 456.321C397.597 454.641 397.866 453.018 398.394 451.658C398.888 450.276 399.713 449.283 400.688 449.058C401.656 448.78 402.383 449.333 402.636 449.842C402.911 450.345 402.813 450.722 402.914 450.75C402.968 450.795 403.294 450.418 403.108 449.662C403.009 449.298 402.772 448.875 402.317 448.542C401.855 448.204 401.191 448.055 400.511 448.166C399.09 448.34 397.876 449.719 397.294 451.212C396.636 452.715 396.294 454.54 396.446 456.428C396.759 460.151 398.853 463.539 401.567 464.172C402.886 464.444 403.952 463.994 404.49 463.526C405.037 463.033 405.113 462.612 405.046 462.584Z" fill="#FF9A6C"/>
<path d="M407.841 413.209C410.28 414.8 412.855 416.442 415.756 416.666C418.659 416.894 421.936 415.161 422.367 412.282C422.559 410.988 422.215 409.502 423.04 408.486C424.027 407.278 425.9 407.61 427.453 407.743C432.846 408.205 438.281 404.282 439.543 399.019C440.957 401.047 444.161 400.892 446.211 399.509C448.26 398.127 449.554 395.91 451.142 394.012C452.73 392.117 454.976 390.402 457.43 390.703C458.803 390.867 460.1 391.658 461.476 391.506C463.902 391.241 465.031 388.369 465.348 385.949C465.667 383.529 465.895 380.707 467.926 379.354C469.808 378.098 472.297 378.749 474.54 379.034C476.782 379.319 479.664 378.734 480.192 376.532C480.471 375.377 479.952 374.179 479.294 373.192C476.317 368.713 469.991 366.827 465.047 368.944C463.108 362.864 457.291 358.22 450.933 357.683C444.575 357.145 438.059 360.742 435.127 366.41C431.141 362.94 425.425 361.567 420.298 362.848C415.17 364.129 410.774 368.029 408.888 372.964C404.362 371.873 399.263 373.72 396.486 377.459C393.708 381.198 393.414 386.613 395.768 390.63C392.478 392.601 389.698 395.966 389.707 399.797C389.717 403.631 393.528 407.373 397.204 406.288C395.771 409.302 397.071 413.326 399.997 414.933C402.923 416.54 407.016 415.48 408.794 412.652" fill="#263238"/>
<path d="M455.283 465.063C454.897 464.88 454.451 464.696 454.056 464.854C453.698 464.997 453.499 465.37 453.347 465.724C452.132 468.615 452.544 472.13 454.391 474.66C454.41 474.685 454.429 474.711 454.448 474.736C457.19 478.405 462.976 477.542 464.912 473.389L466.36 470.279C463.823 469.087 457.82 466.252 455.283 465.063Z" fill="#FF9A6C"/>
<path d="M463.899 474.92C464.051 474.967 462.675 476.824 459.309 477.229C458.509 477.327 457.452 477.191 456.592 476.783C455.709 476.426 454.722 475.85 454.017 474.92C452.663 473.073 452.132 470.634 452.17 468.157C452.189 467.524 452.205 466.958 452.319 466.291C452.455 465.668 452.657 464.912 453.419 464.428C454.223 463.953 455.083 464.295 455.558 464.532C456.042 464.776 456.516 465.019 456.987 465.256C458.714 466.158 460.343 467.006 461.874 467.803C464.639 469.283 466.312 470.276 466.24 470.428C466.167 470.58 464.358 469.859 461.495 468.575C459.929 467.85 458.259 467.078 456.494 466.262C455.596 465.88 454.403 465.105 454.033 465.453C453.508 465.753 453.4 467.059 453.391 468.176C453.34 470.46 453.843 472.696 454.915 474.243C455.45 474.996 456.206 475.486 457.003 475.859C457.807 476.274 458.502 476.381 459.265 476.369C462.286 476.229 463.81 474.755 463.899 474.92Z" fill="#263238"/>
<path d="M395.84 406.276C395.773 406.229 395.53 407.839 397.067 409.809C397.826 410.746 399.114 411.707 400.822 411.944C402.495 412.191 404.532 411.739 406.067 410.303L405.282 410.202C406.231 411.777 407.474 413.374 409.072 414.741C410.103 415.611 411.238 416.348 412.488 416.768C413.712 417.227 415.097 417.246 416.22 417.04C418.561 416.733 420.582 415.43 421.499 413.864C422.455 412.333 422.74 410.923 422.92 409.98C423.087 409.028 423.097 408.493 423.03 408.481C422.948 408.465 422.803 408.977 422.515 409.879C422.221 410.771 421.819 412.106 420.876 413.434C419.178 416.126 413.487 417.6 409.758 413.925C408.271 412.656 407.072 411.147 406.145 409.67L405.807 409.132L405.358 409.569C404.112 410.78 402.372 411.239 400.923 411.084C399.452 410.942 398.291 410.179 397.535 409.385C396.02 407.734 395.998 406.225 395.84 406.276Z" fill="#455A64"/>
<path d="M429.942 363.274C429.932 363.338 430.429 363.395 431.261 363.727C432.073 364.065 433.282 364.736 434.186 366.112L434.414 366.46L434.664 366.112C436.347 363.755 439.188 360.712 443.464 358.678C445.593 357.682 448.07 356.976 450.72 356.929C453.359 356.863 456.133 357.565 458.606 359.007C460.529 360.127 462.158 361.633 463.367 363.334C464.55 365.055 465.29 366.975 465.518 368.873L465.587 369.458L466.144 369.294C468.912 368.471 471.755 368.955 473.856 370.072C475.988 371.189 477.367 372.931 478.158 374.494C479.717 377.72 479.236 379.985 479.426 379.954C479.467 379.96 479.61 379.435 479.619 378.435C479.616 377.445 479.464 375.946 478.698 374.238C477.946 372.552 476.535 370.619 474.251 369.348C472.008 368.082 468.937 367.484 465.866 368.351L466.495 368.769C466.277 366.7 465.489 364.603 464.224 362.74C462.937 360.896 461.197 359.279 459.144 358.084C456.509 356.543 453.517 355.8 450.698 355.895C447.877 355.971 445.27 356.752 443.062 357.834C438.624 360.042 435.79 363.284 434.186 365.783L434.664 365.783C433.592 364.315 432.247 363.695 431.362 363.432C430.451 363.183 429.942 363.233 429.942 363.274Z" fill="#455A64"/>
<path d="M663.235 350.123C663.001 350.123 662.862 348.383 662.485 345.635C662.099 342.902 661.422 339.103 659.521 335.43C657.617 331.777 654.704 329.224 652.322 327.987C649.934 326.713 648.172 326.551 648.204 326.286C648.188 326.118 650.063 325.862 652.8 326.972C655.51 328.038 658.854 330.704 660.926 334.693C662.982 338.669 663.491 342.715 663.602 345.533C663.7 348.383 663.437 350.126 663.235 350.123Z" fill="#FF9A6C"/>
<path d="M197.266 448.498C197.104 448.561 196.184 446.834 195.586 443.747C194.979 440.682 194.903 436.231 196.2 431.585C197.512 426.944 199.894 423.183 202.01 420.881C204.126 418.559 205.812 417.559 205.917 417.702C206.084 417.901 204.686 419.188 202.877 421.592C201.064 423.984 198.974 427.615 197.727 432.015C196.503 436.418 196.396 440.606 196.699 443.592C196.987 446.588 197.515 448.416 197.266 448.498Z" fill="#FF9A6C"/>
<path d="M729.923 611.883C731.548 611.883 732.776 611.883 733.607 611.883C734.476 611.883 735.118 611.883 735.533 611.883C737.724 611.883 739.708 611.713 741.483 611.373C743.297 611.033 744.827 610.391 746.073 609.447C747.358 608.502 748.34 607.199 749.02 605.537C749.7 603.837 750.04 601.664 750.04 599.02C750.04 596.111 749.436 593.731 748.227 591.88C747.056 589.991 745.374 588.593 743.183 587.687C741.03 586.78 738.48 586.327 735.533 586.327H729.923V611.883ZM753.893 599.02C753.893 603.213 753.1 606.481 751.513 608.823C749.927 611.128 747.698 612.733 744.827 613.64C741.956 614.547 738.593 615 734.74 615C734.136 615 733.172 615 731.85 615C730.566 615 728.714 615 726.297 615V583.097C728.866 583.097 730.773 583.097 732.02 583.097C733.304 583.097 734.211 583.097 734.74 583.097C738.593 583.097 741.956 583.701 744.827 584.91C747.698 586.081 749.927 587.838 751.513 590.18C753.1 592.522 753.893 595.469 753.893 599.02ZM768.45 615.567C765.919 615.567 763.823 615 762.16 613.867C760.536 612.695 759.327 611.203 758.534 609.39C757.778 607.539 757.4 605.631 757.4 603.667C757.4 601.513 757.816 599.549 758.647 597.773C759.516 595.96 760.763 594.524 762.387 593.467C764.049 592.409 766.033 591.88 768.337 591.88C770.339 591.88 772.096 592.314 773.607 593.183C775.156 594.014 776.384 595.223 777.29 596.81C778.235 598.397 778.764 600.267 778.877 602.42C778.915 602.571 778.934 602.798 778.934 603.1C778.934 603.364 778.934 603.61 778.934 603.837H760.914C760.914 606.519 761.556 608.634 762.84 610.183C764.163 611.694 766.014 612.45 768.394 612.45C770.169 612.45 771.68 611.997 772.927 611.09C774.212 610.183 775.005 608.955 775.307 607.407H778.877C778.613 608.955 778.027 610.353 777.12 611.6C776.214 612.847 775.024 613.829 773.55 614.547C772.077 615.227 770.377 615.567 768.45 615.567ZM761.027 601.853H775.194C775.194 601.249 775.062 600.569 774.797 599.813C774.57 599.02 774.193 598.264 773.664 597.547C773.135 596.791 772.436 596.168 771.567 595.677C770.698 595.185 769.603 594.94 768.28 594.94C767.109 594.94 766.089 595.148 765.22 595.563C764.352 595.941 763.615 596.47 763.01 597.15C762.444 597.792 761.99 598.529 761.65 599.36C761.348 600.191 761.14 601.022 761.027 601.853ZM784.327 615V583.097H787.897V615H784.327ZM793.79 615V591.937H797.473V615H793.79ZM795.66 588.48C794.715 588.48 794.073 588.234 793.733 587.743C793.393 587.252 793.223 586.685 793.223 586.043C793.223 585.439 793.393 584.91 793.733 584.457C794.073 583.965 794.715 583.72 795.66 583.72C796.604 583.72 797.228 583.965 797.53 584.457C797.832 584.91 797.983 585.439 797.983 586.043C797.983 586.685 797.832 587.252 797.53 587.743C797.228 588.234 796.604 588.48 795.66 588.48ZM819.447 591.937H823.074V592.73L814.347 615H809.191L800.407 592.73V591.937H804.034L811.741 611.997H811.854L819.447 591.937ZM836.351 615.567C833.82 615.567 831.723 615 830.061 613.867C828.436 612.695 827.228 611.203 826.434 609.39C825.679 607.539 825.301 605.631 825.301 603.667C825.301 601.513 825.716 599.549 826.548 597.773C827.416 595.96 828.663 594.524 830.288 593.467C831.95 592.409 833.933 591.88 836.238 591.88C838.24 591.88 839.996 592.314 841.508 593.183C843.056 594.014 844.284 595.223 845.191 596.81C846.135 598.397 846.664 600.267 846.778 602.42C846.815 602.571 846.834 602.798 846.834 603.1C846.834 603.364 846.834 603.61 846.834 603.837H828.814C828.814 606.519 829.456 608.634 830.741 610.183C832.063 611.694 833.914 612.45 836.294 612.45C838.07 612.45 839.581 611.997 840.828 611.09C842.112 610.183 842.905 608.955 843.208 607.407H846.778C846.513 608.955 845.928 610.353 845.021 611.6C844.114 612.847 842.924 613.829 841.451 614.547C839.978 615.227 838.278 615.567 836.351 615.567ZM828.928 601.853H843.094C843.094 601.249 842.962 600.569 842.698 599.813C842.471 599.02 842.093 598.264 841.564 597.547C841.035 596.791 840.336 596.168 839.468 595.677C838.599 595.185 837.503 594.94 836.181 594.94C835.01 594.94 833.99 595.148 833.121 595.563C832.252 595.941 831.515 596.47 830.911 597.15C830.344 597.792 829.891 598.529 829.551 599.36C829.249 600.191 829.041 601.022 828.928 601.853ZM852.001 615V591.937H855.287L855.684 598.567L855.627 603.553V615H852.001ZM855.627 604.233L855.457 599.19C855.533 598.321 855.759 597.452 856.137 596.583C856.515 595.714 857.044 594.94 857.724 594.26C858.442 593.542 859.348 592.975 860.444 592.56C861.539 592.144 862.824 591.937 864.297 591.937H865.374V595.96H864.241C862.427 595.96 860.954 596.168 859.821 596.583C858.687 596.961 857.818 597.528 857.214 598.283C856.609 599.001 856.194 599.87 855.967 600.89C855.741 601.91 855.627 603.024 855.627 604.233ZM869.327 615V591.937H873.01V615H869.327ZM871.197 588.48C870.252 588.48 869.61 588.234 869.27 587.743C868.93 587.252 868.76 586.685 868.76 586.043C868.76 585.439 868.93 584.91 869.27 584.457C869.61 583.965 870.252 583.72 871.197 583.72C872.141 583.72 872.765 583.965 873.067 584.457C873.369 584.91 873.52 585.439 873.52 586.043C873.52 586.685 873.369 587.252 873.067 587.743C872.765 588.234 872.141 588.48 871.197 588.48ZM878.107 615V591.937H881.224L881.847 597.66H881.96C882.036 597.471 882.206 597.074 882.47 596.47C882.773 595.828 883.226 595.167 883.83 594.487C884.435 593.807 885.247 593.221 886.267 592.73C887.325 592.201 888.647 591.937 890.234 591.937C891.82 591.937 893.143 592.182 894.2 592.673C895.258 593.127 896.089 593.769 896.694 594.6C897.336 595.393 897.808 596.3 898.11 597.32C898.413 598.34 898.602 599.398 898.677 600.493C898.79 601.551 898.847 602.59 898.847 603.61V615H895.334V603.61C895.334 601.948 895.145 600.493 894.767 599.247C894.427 597.962 893.804 596.98 892.897 596.3C891.99 595.582 890.706 595.223 889.044 595.223C887.344 595.223 885.965 595.639 884.907 596.47C883.849 597.263 883.075 598.34 882.584 599.7C882.093 601.022 881.847 602.477 881.847 604.063V615H878.107ZM909.063 624.52V621.063H920.567V609.9H920.453C920.378 610.089 920.17 610.485 919.83 611.09C919.528 611.694 919.037 612.337 918.357 613.017C917.715 613.697 916.865 614.301 915.807 614.83C914.787 615.321 913.54 615.567 912.067 615.567C909.838 615.567 907.968 615.057 906.457 614.037C904.983 612.979 903.869 611.562 903.113 609.787C902.358 608.011 901.98 606.009 901.98 603.78C901.98 601.475 902.358 599.435 903.113 597.66C903.869 595.847 905.002 594.449 906.513 593.467C908.025 592.447 909.895 591.937 912.123 591.937C913.635 591.937 914.919 592.201 915.977 592.73C917.035 593.221 917.866 593.825 918.47 594.543C919.112 595.261 919.585 595.922 919.887 596.527C920.189 597.131 920.378 597.528 920.453 597.717H920.567V591.937H924.307V618.967C924.307 620.175 924.156 621.195 923.853 622.027C923.589 622.858 923.098 623.481 922.38 623.897C921.7 624.312 920.775 624.52 919.603 624.52H909.063ZM912.86 612.337C914.371 612.337 915.693 611.997 916.827 611.317C917.998 610.637 918.886 609.654 919.49 608.37C920.132 607.048 920.453 605.518 920.453 603.78C920.453 602.042 920.151 600.531 919.547 599.247C918.98 597.962 918.149 596.98 917.053 596.3C915.958 595.62 914.673 595.28 913.2 595.28C911.425 595.28 909.97 595.695 908.837 596.527C907.703 597.32 906.872 598.359 906.343 599.643C905.815 600.928 905.55 602.307 905.55 603.78C905.55 605.215 905.777 606.594 906.23 607.917C906.721 609.201 907.496 610.259 908.553 611.09C909.649 611.921 911.085 612.337 912.86 612.337ZM943.653 615V583.097H965.016V586.327H947.223V597.32H961.333V600.38H947.223V611.94H965.583V615H943.653ZM968.106 615L976.549 603.1L968.502 591.937H972.639L978.872 600.777L985.106 591.937H989.242L981.196 603.1L989.752 615H985.559L978.872 605.48L972.186 615H968.106ZM1003.97 615.567C1001.82 615.567 999.894 615.113 998.194 614.207C996.494 613.3 995.153 611.978 994.171 610.24C993.188 608.502 992.697 606.405 992.697 603.95C992.773 601.532 993.283 599.417 994.227 597.603C995.209 595.79 996.551 594.392 998.251 593.41C999.951 592.39 1001.9 591.88 1004.09 591.88C1006.13 591.88 1007.9 592.277 1009.41 593.07C1010.93 593.825 1012.13 594.845 1013.04 596.13C1013.95 597.377 1014.51 598.774 1014.74 600.323H1011.4C1011.06 598.699 1010.25 597.433 1008.96 596.527C1007.68 595.582 1006.09 595.11 1004.2 595.11C1002.58 595.11 1001.18 595.488 1000.01 596.243C998.836 596.961 997.929 597.981 997.287 599.303C996.645 600.588 996.305 602.08 996.267 603.78C996.267 606.349 996.966 608.408 998.364 609.957C999.762 611.505 1001.69 612.28 1004.14 612.28C1005.96 612.28 1007.53 611.827 1008.85 610.92C1010.21 610.013 1011.06 608.71 1011.4 607.01H1014.74C1014.51 608.559 1013.93 609.994 1012.98 611.317C1012.08 612.601 1010.85 613.64 1009.3 614.433C1007.79 615.189 1006.01 615.567 1003.97 615.567ZM1029.48 615.567C1026.95 615.567 1024.85 615 1023.19 613.867C1021.57 612.695 1020.36 611.203 1019.57 609.39C1018.81 607.539 1018.43 605.631 1018.43 603.667C1018.43 601.513 1018.85 599.549 1019.68 597.773C1020.55 595.96 1021.79 594.524 1023.42 593.467C1025.08 592.409 1027.06 591.88 1029.37 591.88C1031.37 591.88 1033.13 592.314 1034.64 593.183C1036.19 594.014 1037.42 595.223 1038.32 596.81C1039.27 598.397 1039.8 600.267 1039.91 602.42C1039.95 602.571 1039.97 602.798 1039.97 603.1C1039.97 603.364 1039.97 603.61 1039.97 603.837H1021.95C1021.95 606.519 1022.59 608.634 1023.87 610.183C1025.19 611.694 1027.05 612.45 1029.43 612.45C1031.2 612.45 1032.71 611.997 1033.96 611.09C1035.24 610.183 1036.04 608.955 1036.34 607.407H1039.91C1039.64 608.955 1039.06 610.353 1038.15 611.6C1037.25 612.847 1036.06 613.829 1034.58 614.547C1033.11 615.227 1031.41 615.567 1029.48 615.567ZM1022.06 601.853H1036.23C1036.23 601.249 1036.09 600.569 1035.83 599.813C1035.6 599.02 1035.22 598.264 1034.7 597.547C1034.17 596.791 1033.47 596.168 1032.6 595.677C1031.73 595.185 1030.63 594.94 1029.31 594.94C1028.14 594.94 1027.12 595.148 1026.25 595.563C1025.38 595.941 1024.65 596.47 1024.04 597.15C1023.48 597.792 1023.02 598.529 1022.68 599.36C1022.38 600.191 1022.17 601.022 1022.06 601.853ZM1045.36 615V583.097H1048.93V615H1045.36ZM1054.82 615V583.097H1058.39V615H1054.82ZM1073.97 615.567C1071.44 615.567 1069.35 615 1067.68 613.867C1066.06 612.695 1064.85 611.203 1064.06 609.39C1063.3 607.539 1062.92 605.631 1062.92 603.667C1062.92 601.513 1063.34 599.549 1064.17 597.773C1065.04 595.96 1066.29 594.524 1067.91 593.467C1069.57 592.409 1071.56 591.88 1073.86 591.88C1075.86 591.88 1077.62 592.314 1079.13 593.183C1080.68 594.014 1081.91 595.223 1082.81 596.81C1083.76 598.397 1084.29 600.267 1084.4 602.42C1084.44 602.571 1084.46 602.798 1084.46 603.1C1084.46 603.364 1084.46 603.61 1084.46 603.837H1066.44C1066.44 606.519 1067.08 608.634 1068.36 610.183C1069.69 611.694 1071.54 612.45 1073.92 612.45C1075.69 612.45 1077.2 611.997 1078.45 611.09C1079.74 610.183 1080.53 608.955 1080.83 607.407H1084.4C1084.14 608.955 1083.55 610.353 1082.64 611.6C1081.74 612.847 1080.55 613.829 1079.07 614.547C1077.6 615.227 1075.9 615.567 1073.97 615.567ZM1066.55 601.853H1080.72C1080.72 601.249 1080.59 600.569 1080.32 599.813C1080.09 599.02 1079.72 598.264 1079.19 597.547C1078.66 596.791 1077.96 596.168 1077.09 595.677C1076.22 595.185 1075.13 594.94 1073.8 594.94C1072.63 594.94 1071.61 595.148 1070.74 595.563C1069.88 595.941 1069.14 596.47 1068.53 597.15C1067.97 597.792 1067.51 598.529 1067.17 599.36C1066.87 600.191 1066.66 601.022 1066.55 601.853ZM1089.06 615V591.937H1092.17L1092.8 597.66H1092.91C1092.99 597.471 1093.16 597.074 1093.42 596.47C1093.72 595.828 1094.18 595.167 1094.78 594.487C1095.39 593.807 1096.2 593.221 1097.22 592.73C1098.28 592.201 1099.6 591.937 1101.18 591.937C1102.77 591.937 1104.09 592.182 1105.15 592.673C1106.21 593.127 1107.04 593.769 1107.64 594.6C1108.29 595.393 1108.76 596.3 1109.06 597.32C1109.36 598.34 1109.55 599.398 1109.63 600.493C1109.74 601.551 1109.8 602.59 1109.8 603.61V615H1106.28V603.61C1106.28 601.948 1106.1 600.493 1105.72 599.247C1105.38 597.962 1104.75 596.98 1103.85 596.3C1102.94 595.582 1101.66 595.223 1099.99 595.223C1098.29 595.223 1096.92 595.639 1095.86 596.47C1094.8 597.263 1094.03 598.34 1093.53 599.7C1093.04 601.022 1092.8 602.477 1092.8 604.063V615H1089.06ZM1124.94 615.567C1122.79 615.567 1120.86 615.113 1119.16 614.207C1117.46 613.3 1116.12 611.978 1115.14 610.24C1114.16 608.502 1113.67 606.405 1113.67 603.95C1113.74 601.532 1114.25 599.417 1115.2 597.603C1116.18 595.79 1117.52 594.392 1119.22 593.41C1120.92 592.39 1122.87 591.88 1125.06 591.88C1127.1 591.88 1128.87 592.277 1130.38 593.07C1131.9 593.825 1133.1 594.845 1134.01 596.13C1134.92 597.377 1135.48 598.774 1135.71 600.323H1132.37C1132.03 598.699 1131.22 597.433 1129.93 596.527C1128.65 595.582 1127.06 595.11 1125.17 595.11C1123.55 595.11 1122.15 595.488 1120.98 596.243C1119.81 596.961 1118.9 597.981 1118.26 599.303C1117.62 600.588 1117.28 602.08 1117.24 603.78C1117.24 606.349 1117.94 608.408 1119.33 609.957C1120.73 611.505 1122.66 612.28 1125.11 612.28C1126.93 612.28 1128.5 611.827 1129.82 610.92C1131.18 610.013 1132.03 608.71 1132.37 607.01H1135.71C1135.48 608.559 1134.9 609.994 1133.95 611.317C1133.05 612.601 1131.82 613.64 1130.27 614.433C1128.76 615.189 1126.98 615.567 1124.94 615.567ZM1150.45 615.567C1147.92 615.567 1145.82 615 1144.16 613.867C1142.54 612.695 1141.33 611.203 1140.54 609.39C1139.78 607.539 1139.4 605.631 1139.4 603.667C1139.4 601.513 1139.82 599.549 1140.65 597.773C1141.52 595.96 1142.76 594.524 1144.39 593.467C1146.05 592.409 1148.03 591.88 1150.34 591.88C1152.34 591.88 1154.1 592.314 1155.61 593.183C1157.16 594.014 1158.39 595.223 1159.29 596.81C1160.24 598.397 1160.77 600.267 1160.88 602.42C1160.92 602.571 1160.94 602.798 1160.94 603.1C1160.94 603.364 1160.94 603.61 1160.94 603.837H1142.92C1142.92 606.519 1143.56 608.634 1144.84 610.183C1146.16 611.694 1148.02 612.45 1150.4 612.45C1152.17 612.45 1153.68 611.997 1154.93 611.09C1156.21 610.183 1157.01 608.955 1157.31 607.407H1160.88C1160.61 608.955 1160.03 610.353 1159.12 611.6C1158.22 612.847 1157.03 613.829 1155.55 614.547C1154.08 615.227 1152.38 615.567 1150.45 615.567ZM1143.03 601.853H1157.2C1157.2 601.249 1157.06 600.569 1156.8 599.813C1156.57 599.02 1156.19 598.264 1155.67 597.547C1155.14 596.791 1154.44 596.168 1153.57 595.677C1152.7 595.185 1151.6 594.94 1150.28 594.94C1149.11 594.94 1148.09 595.148 1147.22 595.563C1146.35 595.941 1145.62 596.47 1145.01 597.15C1144.45 597.792 1143.99 598.529 1143.65 599.36C1143.35 600.191 1143.14 601.022 1143.03 601.853ZM1191.28 584.117V615H1187.65V584.117H1191.28ZM1177.4 586.27V583.097H1201.48V586.27H1177.4ZM1204.67 615V583.097H1208.35V597.66H1208.46C1208.54 597.471 1208.71 597.074 1208.97 596.47C1209.27 595.828 1209.73 595.167 1210.33 594.487C1210.94 593.807 1211.75 593.221 1212.77 592.73C1213.79 592.201 1215.07 591.937 1216.62 591.937C1218.21 591.937 1219.53 592.182 1220.59 592.673C1221.65 593.127 1222.5 593.769 1223.14 594.6C1223.78 595.431 1224.25 596.375 1224.56 597.433C1224.9 598.453 1225.12 599.492 1225.24 600.55C1225.35 601.608 1225.41 602.628 1225.41 603.61V615H1221.84V603.61C1221.84 601.948 1221.65 600.493 1221.27 599.247C1220.93 597.962 1220.31 596.98 1219.4 596.3C1218.53 595.582 1217.26 595.223 1215.6 595.223C1213.86 595.223 1212.47 595.639 1211.41 596.47C1210.35 597.263 1209.58 598.34 1209.09 599.7C1208.59 601.022 1208.35 602.477 1208.35 604.063V615H1204.67ZM1230.68 615V591.937H1233.97L1234.37 598.567L1234.31 603.553V615H1230.68ZM1234.31 604.233L1234.14 599.19C1234.21 598.321 1234.44 597.452 1234.82 596.583C1235.2 595.714 1235.73 594.94 1236.41 594.26C1237.12 593.542 1238.03 592.975 1239.13 592.56C1240.22 592.144 1241.51 591.937 1242.98 591.937H1244.06V595.96H1242.92C1241.11 595.96 1239.64 596.168 1238.5 596.583C1237.37 596.961 1236.5 597.528 1235.9 598.283C1235.29 599.001 1234.88 599.87 1234.65 600.89C1234.42 601.91 1234.31 603.024 1234.31 604.233ZM1257.25 615.567C1254.8 615.567 1252.74 615.057 1251.08 614.037C1249.45 613.017 1248.23 611.619 1247.39 609.843C1246.6 608.068 1246.2 606.047 1246.2 603.78C1246.2 601.475 1246.6 599.435 1247.39 597.66C1248.23 595.847 1249.45 594.43 1251.08 593.41C1252.74 592.39 1254.8 591.88 1257.25 591.88C1260.84 591.88 1263.58 592.975 1265.47 595.167C1267.36 597.32 1268.3 600.191 1268.3 603.78C1268.3 606.009 1267.91 608.011 1267.11 609.787C1266.32 611.562 1265.11 612.979 1263.49 614.037C1261.86 615.057 1259.79 615.567 1257.25 615.567ZM1257.25 612.393C1259.26 612.393 1260.79 611.959 1261.84 611.09C1262.9 610.221 1263.64 609.125 1264.05 607.803C1264.51 606.443 1264.73 605.064 1264.73 603.667C1264.73 602.269 1264.51 600.89 1264.05 599.53C1263.64 598.17 1262.9 597.055 1261.84 596.187C1260.79 595.318 1259.26 594.883 1257.25 594.883C1255.33 594.883 1253.8 595.318 1252.66 596.187C1251.57 597.055 1250.81 598.17 1250.4 599.53C1249.98 600.89 1249.77 602.269 1249.77 603.667C1249.77 605.064 1249.98 606.443 1250.4 607.803C1250.81 609.125 1251.57 610.221 1252.66 611.09C1253.8 611.959 1255.33 612.393 1257.25 612.393ZM1281.28 615.567C1279.81 615.567 1278.54 615.34 1277.49 614.887C1276.47 614.433 1275.62 613.829 1274.94 613.073C1274.29 612.28 1273.8 611.392 1273.46 610.41C1273.12 609.39 1272.88 608.332 1272.73 607.237C1272.61 606.103 1272.56 604.97 1272.56 603.837V591.937H1276.18V603.893C1276.18 605.404 1276.33 606.802 1276.64 608.087C1276.98 609.371 1277.6 610.391 1278.51 611.147C1279.41 611.902 1280.75 612.28 1282.53 612.28C1284.23 612.28 1285.55 611.883 1286.5 611.09C1287.48 610.297 1288.2 609.295 1288.65 608.087C1289.1 606.84 1289.37 605.537 1289.44 604.177V591.937H1293.18V615H1290.07L1289.44 609.843H1289.33C1289.18 610.334 1288.91 610.901 1288.54 611.543C1288.2 612.185 1287.71 612.809 1287.06 613.413C1286.42 614.018 1285.61 614.528 1284.63 614.943C1283.68 615.359 1282.57 615.567 1281.28 615.567ZM1303.63 624.52V621.063H1315.13V609.9H1315.02C1314.94 610.089 1314.73 610.485 1314.39 611.09C1314.09 611.694 1313.6 612.337 1312.92 613.017C1312.28 613.697 1311.43 614.301 1310.37 614.83C1309.35 615.321 1308.1 615.567 1306.63 615.567C1304.4 615.567 1302.53 615.057 1301.02 614.037C1299.55 612.979 1298.43 611.562 1297.68 609.787C1296.92 608.011 1296.54 606.009 1296.54 603.78C1296.54 601.475 1296.92 599.435 1297.68 597.66C1298.43 595.847 1299.57 594.449 1301.08 593.467C1302.59 592.447 1304.46 591.937 1306.69 591.937C1308.2 591.937 1309.48 592.201 1310.54 592.73C1311.6 593.221 1312.43 593.825 1313.03 594.543C1313.68 595.261 1314.15 595.922 1314.45 596.527C1314.75 597.131 1314.94 597.528 1315.02 597.717H1315.13V591.937H1318.87V618.967C1318.87 620.175 1318.72 621.195 1318.42 622.027C1318.15 622.858 1317.66 623.481 1316.94 623.897C1316.26 624.312 1315.34 624.52 1314.17 624.52H1303.63ZM1307.42 612.337C1308.93 612.337 1310.26 611.997 1311.39 611.317C1312.56 610.637 1313.45 609.654 1314.05 608.37C1314.7 607.048 1315.02 605.518 1315.02 603.78C1315.02 602.042 1314.71 600.531 1314.11 599.247C1313.54 597.962 1312.71 596.98 1311.62 596.3C1310.52 595.62 1309.24 595.28 1307.76 595.28C1305.99 595.28 1304.53 595.695 1303.4 596.527C1302.27 597.32 1301.44 598.359 1300.91 599.643C1300.38 600.928 1300.11 602.307 1300.11 603.78C1300.11 605.215 1300.34 606.594 1300.79 607.917C1301.28 609.201 1302.06 610.259 1303.12 611.09C1304.21 611.921 1305.65 612.337 1307.42 612.337ZM1323.92 615V583.097H1327.6V597.66H1327.72C1327.79 597.471 1327.96 597.074 1328.23 596.47C1328.53 595.828 1328.98 595.167 1329.59 594.487C1330.19 593.807 1331 593.221 1332.02 592.73C1333.04 592.201 1334.33 591.937 1335.88 591.937C1337.46 591.937 1338.79 592.182 1339.84 592.673C1340.9 593.127 1341.75 593.769 1342.39 594.6C1343.04 595.431 1343.51 596.375 1343.81 597.433C1344.15 598.453 1344.38 599.492 1344.49 600.55C1344.6 601.608 1344.66 602.628 1344.66 603.61V615H1341.09V603.61C1341.09 601.948 1340.9 600.493 1340.52 599.247C1340.18 597.962 1339.56 596.98 1338.65 596.3C1337.78 595.582 1336.52 595.223 1334.86 595.223C1333.12 595.223 1331.72 595.639 1330.66 596.47C1329.61 597.263 1328.83 598.34 1328.34 599.7C1327.85 601.022 1327.6 602.477 1327.6 604.063V615H1323.92Z" fill="#434C54"/>
<path d="M744.85 690.05C738.05 690.05 732.85 688.075 729.25 684.125C725.65 680.125 723.85 674.75 723.85 668C723.85 663.55 724.625 659.7 726.175 656.45C727.725 653.15 730.05 650.6 733.15 648.8C736.3 646.95 740.2 646.025 744.85 646.025C751.7 646.025 756.9 648.025 760.45 652.025C764.05 655.975 765.85 661.3 765.85 668C765.85 672.35 765.05 676.2 763.45 679.55C761.85 682.85 759.5 685.425 756.4 687.275C753.3 689.125 749.45 690.05 744.85 690.05ZM744.775 682.7C747.825 682.7 750.35 682.075 752.35 680.825C754.35 679.525 755.85 677.775 756.85 675.575C757.85 673.325 758.35 670.8 758.35 668C758.35 665.15 757.85 662.625 756.85 660.425C755.85 658.175 754.35 656.425 752.35 655.175C750.35 653.875 747.825 653.225 744.775 653.225C740.375 653.225 737.025 654.575 734.725 657.275C732.425 659.975 731.275 663.55 731.275 668C731.275 670.75 731.75 673.25 732.7 675.5C733.7 677.7 735.2 679.45 737.2 680.75C739.2 682.05 741.725 682.7 744.775 682.7ZM776.073 689L768.873 659.45V658.1H776.373L781.473 682.625H781.623L788.223 658.1H794.823L801.648 682.625H801.798L806.898 658.1H814.323V659.45L807.048 689H796.398L791.598 671.375H791.448L786.873 689H776.073ZM818.879 689V658.175H825.404L826.679 664.85H826.829C826.879 664.7 827.054 664.3 827.354 663.65C827.704 662.95 828.254 662.175 829.004 661.325C829.804 660.475 830.854 659.75 832.154 659.15C833.504 658.5 835.179 658.175 837.179 658.175C839.379 658.175 841.154 658.55 842.504 659.3C843.904 660 845.004 660.95 845.804 662.15C846.604 663.3 847.154 664.6 847.454 666.05C847.804 667.45 848.004 668.85 848.054 670.25C848.154 671.65 848.204 672.925 848.204 674.075V689H840.704V674C840.704 672.35 840.529 670.85 840.179 669.5C839.879 668.15 839.254 667.05 838.304 666.2C837.404 665.35 835.979 664.925 834.029 664.925C832.029 664.925 830.504 665.4 829.454 666.35C828.404 667.25 827.679 668.4 827.279 669.8C826.879 671.2 826.679 672.7 826.679 674.3V689H818.879ZM868.215 689.75C864.665 689.75 861.765 689 859.515 687.5C857.315 685.95 855.665 683.975 854.565 681.575C853.515 679.175 852.965 676.675 852.915 674.075C852.865 670.975 853.44 668.225 854.64 665.825C855.89 663.375 857.64 661.475 859.89 660.125C862.19 658.725 864.89 658.025 867.99 658.025C870.74 658.025 873.215 658.625 875.415 659.825C877.615 661.025 879.34 662.7 880.59 664.85C881.89 667 882.565 669.575 882.615 672.575C882.615 672.675 882.615 672.975 882.615 673.475C882.615 673.925 882.615 674.275 882.615 674.525H860.19C860.19 677.375 860.89 679.575 862.29 681.125C863.74 682.625 865.665 683.375 868.065 683.375C869.965 683.375 871.54 682.9 872.79 681.95C874.09 681 874.865 679.75 875.115 678.2H882.54C882.34 680.35 881.64 682.3 880.44 684.05C879.24 685.8 877.615 687.2 875.565 688.25C873.515 689.25 871.065 689.75 868.215 689.75ZM860.415 671.075H874.965C874.915 670.725 874.815 670.175 874.665 669.425C874.515 668.675 874.19 667.9 873.69 667.1C873.19 666.3 872.465 665.625 871.515 665.075C870.565 664.525 869.34 664.25 867.84 664.25C866.34 664.25 865.115 664.5 864.165 665C863.215 665.5 862.49 666.125 861.99 666.875C861.49 667.625 861.115 668.375 860.865 669.125C860.615 669.875 860.465 670.525 860.415 671.075ZM888.834 689V658.175H895.959L896.559 667.175L896.484 673.775V689H888.834ZM896.484 675.725L896.259 668.9C896.259 667.85 896.459 666.725 896.859 665.525C897.259 664.275 897.909 663.1 898.809 662C899.759 660.9 900.984 660 902.484 659.3C903.984 658.55 905.834 658.175 908.034 658.175H909.159V666.725H908.034C905.884 666.725 904.059 666.9 902.559 667.25C901.059 667.55 899.859 668.05 898.959 668.75C898.109 669.45 897.484 670.375 897.084 671.525C896.684 672.675 896.484 674.075 896.484 675.725ZM927 689.75C925.95 689.75 924.8 689.6 923.55 689.3C922.3 689.05 921.05 688.65 919.8 688.1C918.55 687.5 917.4 686.75 916.35 685.85C915.35 684.95 914.55 683.9 913.95 682.7C913.35 681.5 913.05 680.1 913.05 678.5H920.1C920.1 678.55 920.125 678.875 920.175 679.475C920.275 680.075 920.525 680.75 920.925 681.5C921.325 682.2 921.975 682.825 922.875 683.375C923.775 683.925 925.075 684.2 926.775 684.2C928.125 684.2 929.225 684.025 930.075 683.675C930.925 683.325 931.55 682.9 931.95 682.4C932.4 681.85 932.625 681.25 932.625 680.6C932.625 679.5 932.15 678.65 931.2 678.05C930.3 677.4 929.125 676.875 927.675 676.475C926.225 676.075 924.675 675.675 923.025 675.275C921.425 674.825 919.9 674.25 918.45 673.55C917.05 672.85 915.9 671.9 915 670.7C914.1 669.45 913.65 667.85 913.65 665.9C913.65 663 914.8 660.825 917.1 659.375C919.4 657.925 922.325 657.2 925.875 657.2C927.775 657.2 929.55 657.425 931.2 657.875C932.9 658.275 934.4 658.95 935.7 659.9C937 660.8 938.025 661.975 938.775 663.425C939.575 664.825 939.975 666.55 939.975 668.6H932.925C932.975 667.45 932.775 666.525 932.325 665.825C931.925 665.075 931.375 664.5 930.675 664.1C929.975 663.7 929.225 663.425 928.425 663.275C927.625 663.125 926.85 663.05 926.1 663.05C924.3 663.05 922.925 663.375 921.975 664.025C921.075 664.625 920.625 665.425 920.625 666.425C920.625 667.575 921.075 668.475 921.975 669.125C922.925 669.725 924.125 670.225 925.575 670.625C927.075 671.025 928.65 671.45 930.3 671.9C931.95 672.3 933.5 672.85 934.95 673.55C936.4 674.25 937.575 675.2 938.475 676.4C939.425 677.55 939.9 679.1 939.9 681.05C939.9 683 939.35 684.625 938.25 685.925C937.2 687.175 935.7 688.125 933.75 688.775C931.85 689.425 929.6 689.75 927 689.75ZM945.378 689V646.775H953.253V664.85H953.403C953.453 664.7 953.628 664.3 953.928 663.65C954.228 662.95 954.753 662.175 955.503 661.325C956.253 660.475 957.253 659.75 958.503 659.15C959.803 658.5 961.428 658.175 963.378 658.175C965.528 658.175 967.303 658.55 968.703 659.3C970.103 660.05 971.203 661.025 972.003 662.225C972.853 663.425 973.453 664.75 973.803 666.2C974.203 667.6 974.453 669 974.553 670.4C974.653 671.75 974.703 672.975 974.703 674.075V689H967.278V674C967.278 672.35 967.103 670.85 966.753 669.5C966.453 668.15 965.828 667.05 964.878 666.2C963.928 665.35 962.478 664.925 960.528 664.925C958.578 664.925 957.078 665.4 956.028 666.35C954.978 667.25 954.253 668.4 953.853 669.8C953.453 671.2 953.253 672.7 953.253 674.3V689H945.378ZM981.717 689V658.175H989.367V689H981.717ZM985.542 654.2C983.892 654.2 982.767 653.775 982.167 652.925C981.617 652.075 981.342 651.1 981.342 650C981.342 648.9 981.617 647.95 982.167 647.15C982.767 646.3 983.892 645.875 985.542 645.875C987.242 645.875 988.342 646.3 988.842 647.15C989.392 647.95 989.667 648.9 989.667 650C989.667 651.1 989.392 652.075 988.842 652.925C988.342 653.775 987.242 654.2 985.542 654.2ZM1014.88 689.75C1012.98 689.75 1011.38 689.475 1010.08 688.925C1008.83 688.325 1007.81 687.625 1007.01 686.825C1006.26 686.025 1005.68 685.3 1005.28 684.65C1004.93 684 1004.73 683.625 1004.68 683.525H1004.53V702.725H996.658V658.175H1003.33L1004.61 664.925H1004.76C1004.81 664.775 1004.98 664.35 1005.28 663.65C1005.58 662.95 1006.11 662.175 1006.86 661.325C1007.61 660.475 1008.63 659.75 1009.93 659.15C1011.23 658.5 1012.86 658.175 1014.81 658.175C1017.91 658.175 1020.38 658.85 1022.23 660.2C1024.13 661.55 1025.51 663.425 1026.36 665.825C1027.26 668.225 1027.71 671 1027.71 674.15C1027.71 677.35 1027.26 680.125 1026.36 682.475C1025.46 684.775 1024.06 686.575 1022.16 687.875C1020.31 689.125 1017.88 689.75 1014.88 689.75ZM1012.56 683.3C1014.66 683.3 1016.26 682.875 1017.36 682.025C1018.51 681.125 1019.28 679.975 1019.68 678.575C1020.13 677.125 1020.36 675.625 1020.36 674.075C1020.36 672.525 1020.13 671.05 1019.68 669.65C1019.23 668.25 1018.41 667.125 1017.21 666.275C1016.06 665.425 1014.46 665 1012.41 665C1010.56 665 1009.06 665.4 1007.91 666.2C1006.76 666.95 1005.91 668.025 1005.36 669.425C1004.86 670.775 1004.61 672.325 1004.61 674.075C1004.61 675.875 1004.88 677.475 1005.43 678.875C1005.98 680.225 1006.83 681.3 1007.98 682.1C1009.18 682.9 1010.71 683.3 1012.56 683.3ZM1090.71 689.15C1088.86 688.4 1087.11 687.6 1085.46 686.75C1083.86 685.9 1082.21 684.925 1080.51 683.825C1078.41 685.775 1076.01 687.25 1073.31 688.25C1070.61 689.2 1067.88 689.675 1065.13 689.675C1062.38 689.675 1059.86 689.2 1057.56 688.25C1055.26 687.3 1053.38 685.9 1051.93 684.05C1050.53 682.2 1049.83 679.875 1049.83 677.075C1049.83 675.025 1050.23 673.325 1051.03 671.975C1051.88 670.575 1052.86 669.45 1053.96 668.6C1055.11 667.7 1056.18 667.025 1057.18 666.575C1058.23 666.075 1058.98 665.725 1059.43 665.525C1059.18 665.125 1058.68 664.5 1057.93 663.65C1057.18 662.75 1056.48 661.625 1055.83 660.275C1055.18 658.925 1054.86 657.4 1054.86 655.7C1054.86 653.6 1055.41 651.85 1056.51 650.45C1057.66 649.05 1059.11 648 1060.86 647.3C1062.66 646.55 1064.56 646.175 1066.56 646.175C1068.56 646.125 1070.43 646.45 1072.18 647.15C1073.93 647.8 1075.36 648.825 1076.46 650.225C1077.61 651.575 1078.18 653.3 1078.18 655.4C1078.18 657.15 1077.76 658.7 1076.91 660.05C1076.06 661.35 1075.06 662.475 1073.91 663.425C1072.76 664.375 1071.71 665.1 1070.76 665.6C1069.81 666.1 1069.23 666.4 1069.03 666.5C1069.38 667 1069.98 667.675 1070.83 668.525C1071.73 669.375 1072.78 670.35 1073.98 671.45C1075.18 672.5 1076.48 673.6 1077.88 674.75C1078.18 674.3 1078.51 673.7 1078.86 672.95C1079.21 672.2 1079.48 671.375 1079.68 670.475C1079.88 669.575 1079.91 668.675 1079.76 667.775C1079.61 666.875 1079.16 666.075 1078.41 665.375L1084.78 661.175C1085.03 661.425 1085.36 661.975 1085.76 662.825C1086.16 663.625 1086.51 664.625 1086.81 665.825C1087.16 667.025 1087.36 668.35 1087.41 669.8C1087.51 671.25 1087.36 672.75 1086.96 674.3C1086.56 675.85 1085.81 677.4 1084.71 678.95C1085.96 679.75 1087.23 680.525 1088.53 681.275C1089.88 681.975 1091.53 682.725 1093.48 683.525L1090.71 689.15ZM1074.58 679.55C1073.18 678.45 1071.83 677.35 1070.53 676.25C1069.23 675.1 1068.01 673.925 1066.86 672.725C1065.71 671.475 1064.61 670.25 1063.56 669.05C1062.01 669.85 1060.58 670.775 1059.28 671.825C1058.03 672.825 1057.41 674.275 1057.41 676.175C1057.41 677.675 1057.81 678.95 1058.61 680C1059.41 681 1060.46 681.775 1061.76 682.325C1063.11 682.825 1064.53 683.075 1066.03 683.075C1067.58 683.025 1069.11 682.725 1070.61 682.175C1072.11 681.575 1073.43 680.7 1074.58 679.55ZM1064.83 662.975C1065.23 662.775 1065.71 662.525 1066.26 662.225C1066.81 661.925 1067.38 661.575 1067.98 661.175C1068.58 660.775 1069.16 660.325 1069.71 659.825C1070.26 659.325 1070.71 658.8 1071.06 658.25C1071.41 657.7 1071.61 657.125 1071.66 656.525C1071.76 655.325 1071.48 654.375 1070.83 653.675C1070.18 652.975 1069.36 652.5 1068.36 652.25C1067.36 651.95 1066.33 651.925 1065.28 652.175C1064.28 652.375 1063.43 652.825 1062.73 653.525C1062.03 654.225 1061.71 655.2 1061.76 656.45C1061.81 657.35 1062.08 658.375 1062.58 659.525C1063.08 660.625 1063.83 661.775 1064.83 662.975ZM1131.97 648.125V689H1124.32V648.125H1131.97ZM1111.87 653.375V646.775H1144.5V653.375H1111.87ZM1145.11 689V658.175H1152.23L1152.83 667.175L1152.76 673.775V689H1145.11ZM1152.76 675.725L1152.53 668.9C1152.53 667.85 1152.73 666.725 1153.13 665.525C1153.53 664.275 1154.18 663.1 1155.08 662C1156.03 660.9 1157.26 660 1158.76 659.3C1160.26 658.55 1162.11 658.175 1164.31 658.175H1165.43V666.725H1164.31C1162.16 666.725 1160.33 666.9 1158.83 667.25C1157.33 667.55 1156.13 668.05 1155.23 668.75C1154.38 669.45 1153.76 670.375 1153.36 671.525C1152.96 672.675 1152.76 674.075 1152.76 675.725ZM1180.8 689.75C1178.65 689.75 1176.87 689.4 1175.47 688.7C1174.12 688 1173.05 687.075 1172.25 685.925C1171.5 684.775 1170.95 683.5 1170.6 682.1C1170.25 680.7 1170.02 679.3 1169.92 677.9C1169.82 676.45 1169.77 675.125 1169.77 673.925V658.175H1177.2V673.925C1177.2 675.475 1177.35 676.95 1177.65 678.35C1177.95 679.7 1178.57 680.825 1179.52 681.725C1180.52 682.575 1182.02 683 1184.02 683C1185.97 683 1187.45 682.575 1188.45 681.725C1189.45 680.825 1190.12 679.7 1190.47 678.35C1190.82 676.95 1191.02 675.55 1191.07 674.15V658.175H1198.95V689H1192.42L1191.15 683.15H1191C1190.9 683.45 1190.65 683.95 1190.25 684.65C1189.85 685.35 1189.25 686.1 1188.45 686.9C1187.7 687.7 1186.7 688.375 1185.45 688.925C1184.2 689.475 1182.65 689.75 1180.8 689.75ZM1217.85 689.75C1216.8 689.75 1215.65 689.6 1214.4 689.3C1213.15 689.05 1211.9 688.65 1210.65 688.1C1209.4 687.5 1208.25 686.75 1207.2 685.85C1206.2 684.95 1205.4 683.9 1204.8 682.7C1204.2 681.5 1203.9 680.1 1203.9 678.5H1210.95C1210.95 678.55 1210.97 678.875 1211.02 679.475C1211.12 680.075 1211.37 680.75 1211.77 681.5C1212.17 682.2 1212.82 682.825 1213.72 683.375C1214.62 683.925 1215.92 684.2 1217.62 684.2C1218.97 684.2 1220.07 684.025 1220.92 683.675C1221.77 683.325 1222.4 682.9 1222.8 682.4C1223.25 681.85 1223.47 681.25 1223.47 680.6C1223.47 679.5 1223 678.65 1222.05 678.05C1221.15 677.4 1219.97 676.875 1218.52 676.475C1217.07 676.075 1215.52 675.675 1213.87 675.275C1212.27 674.825 1210.75 674.25 1209.3 673.55C1207.9 672.85 1206.75 671.9 1205.85 670.7C1204.95 669.45 1204.5 667.85 1204.5 665.9C1204.5 663 1205.65 660.825 1207.95 659.375C1210.25 657.925 1213.17 657.2 1216.72 657.2C1218.62 657.2 1220.4 657.425 1222.05 657.875C1223.75 658.275 1225.25 658.95 1226.55 659.9C1227.85 660.8 1228.87 661.975 1229.62 663.425C1230.42 664.825 1230.82 666.55 1230.82 668.6H1223.77C1223.82 667.45 1223.62 666.525 1223.17 665.825C1222.77 665.075 1222.22 664.5 1221.52 664.1C1220.82 663.7 1220.07 663.425 1219.27 663.275C1218.47 663.125 1217.7 663.05 1216.95 663.05C1215.15 663.05 1213.77 663.375 1212.82 664.025C1211.92 664.625 1211.47 665.425 1211.47 666.425C1211.47 667.575 1211.92 668.475 1212.82 669.125C1213.77 669.725 1214.97 670.225 1216.42 670.625C1217.92 671.025 1219.5 671.45 1221.15 671.9C1222.8 672.3 1224.35 672.85 1225.8 673.55C1227.25 674.25 1228.42 675.2 1229.32 676.4C1230.27 677.55 1230.75 679.1 1230.75 681.05C1230.75 683 1230.2 684.625 1229.1 685.925C1228.05 687.175 1226.55 688.125 1224.6 688.775C1222.7 689.425 1220.45 689.75 1217.85 689.75ZM1245.9 689C1243.45 689 1241.6 688.4 1240.35 687.2C1239.15 686 1238.55 684.05 1238.55 681.35V662.75H1245.67V683H1252.87V689H1245.9ZM1233.9 663.575V658.175C1235 658.175 1235.9 658.1 1236.6 657.95C1237.3 657.8 1237.85 657.475 1238.25 656.975C1238.7 656.475 1239.02 655.7 1239.22 654.65C1239.42 653.6 1239.52 652.15 1239.52 650.3H1245.67V658.175H1252.72V663.575H1233.9ZM1263.05 689C1261.25 689 1260.02 688.55 1259.37 687.65C1258.77 686.75 1258.47 685.65 1258.47 684.35C1258.47 683.15 1258.77 682.1 1259.37 681.2C1260.02 680.3 1261.25 679.85 1263.05 679.85C1264.75 679.85 1265.9 680.3 1266.5 681.2C1267.15 682.1 1267.47 683.15 1267.47 684.35C1267.47 685.65 1267.15 686.75 1266.5 687.65C1265.9 688.55 1264.75 689 1263.05 689Z" fill="#0486FF"/>
</g>
<defs>
<filter id="filter0_f_102_2302" x="-174.165" y="-503.333" width="2716.67" height="2716.67" filterUnits="userSpaceOnUse" color-interpolation-filters="sRGB">
<feFlood flood-opacity="0" result="BackgroundImageFix"/>
<feBlend mode="normal" in="SourceGraphic" in2="BackgroundImageFix" result="shape"/>
<feGaussianBlur stdDeviation="539.167" result="effect1_foregroundBlur_102_2302"/>
</filter>
<clipPath id="clip0_102_2302">
<rect width="1440" height="960" fill="white"/>
</clipPath>
</defs>
</svg>
