<svg width="32" height="32" viewBox="0 0 32 32" fill="none" xmlns="http://www.w3.org/2000/svg">
<path d="M7.28006 24.6524V20.7591C7.28006 19.4658 8.2934 18.3058 9.7334 18.3058C11.0267 18.3058 12.1867 19.3191 12.1867 20.7591V24.5058C12.1867 27.1058 10.0267 29.2658 7.42673 29.2658C4.82673 29.2658 2.66673 27.0924 2.66673 24.5058L2.66673 16.2924C2.52006 8.79909 8.44006 2.73242 15.9334 2.73242C23.4267 2.73242 29.3334 8.79909 29.3334 16.1458V24.3591C29.3334 26.9591 27.1734 29.1191 24.5734 29.1191C21.9734 29.1191 19.8134 26.9591 19.8134 24.3591V20.6124C19.8134 19.3191 20.8267 18.1591 22.2667 18.1591C23.5601 18.1591 24.7201 19.1724 24.7201 20.6124V24.6524" stroke="#212121" stroke-width="1.5" stroke-linecap="round" stroke-linejoin="round"/>
</svg>
