<svg width="33" height="32" viewBox="0 0 33 32" fill="none" xmlns="http://www.w3.org/2000/svg">
<path d="M7.45469 19.1176C7.13941 19.4117 7.37516 19.9865 7.80799 19.9713C7.80796 19.9713 12.2865 19.9713 12.2865 19.9713C12.5626 19.9713 12.7865 19.7475 12.7865 19.4713C12.7865 19.1952 12.5626 18.9713 12.2865 18.9713H9.01621L11.6493 16.3417C13.8183 14.0463 10.5714 10.8055 8.27252 12.9675C8.27255 12.9674 7.45468 13.7841 7.45468 13.7841C6.995 14.2494 7.6958 14.951 8.16126 14.4916C8.16123 14.4916 8.9791 13.6749 8.9791 13.6749C9.72876 12.8751 11.1929 13.3442 11.3311 14.433C11.4034 14.8778 11.2618 15.3156 10.9427 15.6342L7.45469 19.1176Z" fill="black"/>
<path d="M15.9459 19.97C16.222 19.97 16.4459 19.7462 16.4459 19.47V17.3284L16.7127 17.326C16.9888 17.3236 17.2107 17.0977 17.2083 16.8216C17.2059 16.5469 16.9825 16.326 16.7083 16.326C16.7091 16.3249 16.4467 16.3291 16.4459 16.3284V12.359C16.4615 11.8799 15.7842 11.6729 15.5301 12.0812C15.5301 12.0811 12.5225 16.5821 12.5225 16.5821C12.2945 16.9022 12.5559 17.3677 12.9427 17.3599C12.9427 17.3599 15.4459 17.3375 15.4459 17.3375V19.47C15.4459 19.7462 15.6697 19.97 15.9459 19.97ZM13.8795 16.3514L15.4459 14.0071V16.3372L13.8795 16.3514Z" fill="black"/>
<path d="M22.5828 19.4712C22.5932 20.1256 23.5713 20.1306 23.5828 19.4712V17.073C23.5828 16.2144 24.8301 13.887 25.6162 12.6216C25.8267 12.3056 25.5721 11.8453 25.1917 11.8577H21.6336C20.9769 11.8697 20.9757 12.8458 21.6336 12.8577H24.3116C23.6634 13.9824 22.5828 16.0159 22.5828 17.073V19.4712Z" fill="black"/>
<path d="M20.0657 10.624L17.3104 21.121C17.1542 21.7542 18.0965 22.012 18.2776 21.3749C18.2776 21.3749 21.033 10.8779 21.033 10.8779C21.189 10.2437 20.2451 9.98782 20.0657 10.624Z" fill="black"/>
<path d="M30.0175 15.5004H28.33C27.6678 15.5128 27.6772 16.4902 28.33 16.5004C28.33 16.5004 29.5048 16.5004 29.5048 16.5004C29.3826 19.7082 28.0921 22.6212 26.0453 24.827L25.2182 24.0011C25.0224 23.8058 24.706 23.8058 24.5112 24.0016C24.3161 24.1969 24.3163 24.5136 24.5117 24.7086L25.3377 25.5335C23.1287 27.5773 20.2114 28.8658 16.999 28.9877V27.3954C16.999 27.1193 16.7751 26.8954 16.499 26.8954C16.2228 26.8954 15.999 27.1193 15.999 27.3954V28.9877C12.7865 28.8658 9.86924 27.5773 7.66019 25.5335L8.48627 24.7086C8.94977 24.2389 8.24085 23.5445 7.7797 24.0011C7.77973 24.0011 6.95264 24.827 6.95264 24.827C4.90583 22.6212 3.61536 19.7082 3.49311 16.5004H4.66791C4.94404 16.5004 5.16791 16.2765 5.16791 16.0004C5.16791 15.7243 4.94404 15.5004 4.66791 15.5004H3.49311C3.61536 12.2925 4.90583 9.37956 6.95264 7.17375L7.77973 7.99964C7.97507 8.19468 8.29172 8.19471 8.48676 7.99915C8.68183 7.80384 8.68158 7.48719 8.48627 7.29212L7.66019 6.46723C9.86923 4.42341 12.7865 3.13496 15.999 3.01304V4.18543C15.999 4.46156 16.2228 4.68543 16.499 4.68543C16.7751 4.68543 16.999 4.46156 16.999 4.18543V3.01252C19.8836 3.12085 22.6039 4.16373 24.8093 5.99766L23.1137 6.07044C22.8378 6.08216 22.6237 6.31556 22.6357 6.59144C22.6469 6.86768 22.8832 7.0821 23.1567 7.06946L26.0464 6.94538C26.1086 6.94974 26.1774 6.92792 26.2354 6.90818C26.4415 6.84586 26.5815 6.63596 26.5688 6.42176L26.4392 3.49207C26.394 2.84244 25.4255 2.87354 25.4401 3.53653C25.4401 3.5365 25.5176 5.28791 25.5176 5.28791C16.4608 -2.33852 2.49805 4.13642 2.48047 16.0005C2.53671 28.5221 17.7051 34.6399 26.4322 25.8687C28.9554 23.3358 30.5175 19.8471 30.5175 16.0004C30.5175 15.7243 30.2936 15.5004 30.0175 15.5004Z" fill="black"/>
</svg>
