<svg width="52" height="52" viewBox="0 0 52 52" fill="none" xmlns="http://www.w3.org/2000/svg">
<path d="M49.2518 27.7333L34.1381 2.13259C33.3414 0.782924 31.9294 -0.00916219 30.3626 7.99935e-05C28.7953 0.0145019 27.3987 0.837463 26.6268 2.20165L23.9056 7.01114C23.6696 7.42816 23.8165 7.9576 24.2335 8.19353C24.6503 8.42946 25.1797 8.28281 25.4159 7.86569L28.1372 3.0562C28.6002 2.2377 29.4382 1.74381 30.3786 1.73517C30.387 1.73507 30.3953 1.73507 30.4035 1.73507C31.3339 1.73507 32.17 2.21211 32.6438 3.01476L47.7575 28.6155C48.2385 29.4304 48.2457 30.4074 47.7765 31.2292C47.3074 32.051 46.4624 32.5416 45.5161 32.5416H40.7499C40.2706 32.5416 39.8824 32.9301 39.8824 33.4092C39.8824 33.8883 40.2707 34.2767 40.7499 34.2767H45.5161C47.0932 34.2767 48.5017 33.459 49.2835 32.0895C50.0655 30.7199 50.0535 29.0914 49.2518 27.7333Z" fill="black"/>
<path d="M36.96 37.0692C38.5418 34.33 39.4478 31.1539 39.4478 27.7699C39.4478 17.4842 31.0798 9.11621 20.7942 9.11621C10.5086 9.11621 2.14062 17.4841 2.14062 27.7699C2.14062 38.0555 10.5086 46.4235 20.7942 46.4235C23.7214 46.4235 26.4929 45.7449 28.9607 44.5381L34.8997 50.477C35.8818 51.4591 37.1889 52.0001 38.5803 52.0001C43.1864 52.0001 45.9814 46.0906 42.6339 42.7429L36.96 37.0692ZM37.7126 27.7699C37.7126 30.9394 36.8358 33.9075 35.3131 36.446H12.027C11.0869 36.446 10.2442 35.9608 9.77295 35.1481C9.3022 34.3364 9.29936 33.3659 9.76543 32.5514L22.1323 10.9043C23.0372 10.9754 23.922 11.1189 24.7817 11.3274C24.4534 11.8165 24.2648 12.4008 24.2648 13.0206V23.432C24.2648 25.0869 25.6475 26.4686 27.3014 26.4686C28.9759 26.4686 30.338 25.1064 30.338 23.432V13.8081C34.7876 16.859 37.7126 21.979 37.7126 27.7699ZM28.6027 12.7647V23.4318C28.6027 24.1493 28.019 24.7332 27.3014 24.7332C26.5876 24.7332 25.9999 24.1455 25.9999 23.4318V13.0205C25.9999 12.5497 26.2518 12.1256 26.6469 11.8956C27.32 12.1445 27.9728 12.4356 28.6027 12.7647ZM3.87582 27.7699C3.87582 18.6548 11.1221 11.2013 20.1564 10.8646L8.25905 31.69C7.48241 33.0473 7.48718 34.6655 8.27185 36.0186C9.05713 37.3727 10.4609 38.1812 12.027 38.1812H34.1207C31.0213 42.1397 26.1999 44.6883 20.7942 44.6883C11.4654 44.6883 3.87582 37.0987 3.87582 27.7699ZM41.4121 48.8815C40.0871 50.4764 37.6336 50.7568 36.1268 49.2501L30.5434 43.6667C32.6865 42.3476 34.5443 40.6082 36.0001 38.5632C36.0001 38.5632 41.4009 43.964 41.4068 43.9699C42.8159 45.379 42.5613 47.4981 41.4121 48.8815Z" fill="black"/>
<path d="M27.3025 27.7695C25.3889 27.7695 23.832 29.3264 23.832 31.2399C23.832 33.1536 25.3889 34.7103 27.3025 34.7103C29.2162 34.7103 30.773 33.1535 30.773 31.2399C30.773 29.3263 29.2162 27.7695 27.3025 27.7695ZM27.3025 32.9751C26.3456 32.9751 25.5672 32.1967 25.5672 31.2399C25.5672 30.2831 26.3456 29.5047 27.3025 29.5047C28.2594 29.5047 29.0378 30.2831 29.0378 31.2399C29.0378 32.1967 28.2594 32.9751 27.3025 32.9751Z" fill="black"/>
</svg>
