<svg width="32" height="32" viewBox="0 0 32 32" fill="none" xmlns="http://www.w3.org/2000/svg">
<path d="M18.1366 14.4498C18.1366 13.2627 17.1737 12.2969 15.9902 12.2969C14.8066 12.2969 13.8438 13.2627 13.8438 14.4498C13.8438 15.4483 14.5248 16.2899 15.4454 16.5324L15.4563 18.8137C15.4577 19.1149 15.7023 19.3504 16.0032 19.3504H16.0059C16.308 19.3504 16.5516 19.1137 16.5503 18.8116L16.5394 16.5311C17.4578 16.2871 18.1366 15.4466 18.1366 14.4498ZM15.9903 15.5088C15.41 15.5088 14.9378 15.0338 14.9378 14.4498C14.9378 13.8659 15.4099 13.3909 15.9903 13.3909C16.5705 13.3909 17.0427 13.8659 17.0427 14.4498C17.0427 15.0338 16.5705 15.5088 15.9903 15.5088Z" fill="black"/>
<path d="M29.9467 13.8128C29.0042 13.8128 28.2085 14.4277 27.9682 15.3166H24.2863C24.5023 14.291 24.6594 13.2654 24.7815 12.1713H27.4531C27.7551 12.1713 27.9658 11.9477 27.9658 11.6456V6.42166C28.8547 6.18282 29.4922 5.38713 29.4922 4.44443C29.4922 3.31356 28.5797 2.39355 27.4475 2.39355C26.3153 2.39355 25.3814 3.31356 25.3814 4.44443C25.3814 5.38501 26.0513 6.1792 26.8718 6.42002V11.0773H24.8946C24.9741 10.2568 25.0375 9.37304 25.0963 8.50186C25.1199 8.15267 24.8053 7.88648 24.4665 7.93913C23.8169 8.06337 23.1601 8.15697 22.4974 8.15697C20.2964 8.15684 18.274 7.15882 16.3475 5.13632C16.0736 4.90296 15.8042 4.90795 15.5394 5.1513C13.4935 7.55137 10.6548 8.54911 7.53395 7.93892C7.19385 7.87239 6.85956 8.1526 6.88321 8.502C6.94318 9.38699 7.00629 10.2568 7.08335 11.0773H5.26496V6.42002C6.08547 6.1792 6.76246 5.38508 6.76246 4.44443C6.76246 3.31356 5.8385 2.39355 4.70633 2.39355C3.57415 2.39355 2.65737 3.31356 2.65737 4.44443C2.65737 5.3872 3.28205 6.18282 4.17094 6.42166V11.6455C4.17094 11.9476 4.40424 12.1713 4.70633 12.1713H7.19398C7.31487 13.2653 7.46906 14.2909 7.68178 15.3166H4.03186C3.79152 14.4277 2.9959 13.8127 2.05333 13.8127C0.921094 13.8128 0 14.7328 0 15.8637C0 16.9945 0.921094 17.9145 2.05327 17.9145C2.99583 17.9145 3.79145 17.2995 4.0318 16.4106H7.94263C8.23556 17.5071 8.64964 18.524 9.11098 19.5559H4.70633C4.40424 19.5559 4.17094 19.7797 4.17094 20.0818V25.58C3.28205 25.8197 2.65894 26.6147 2.65894 27.5564C2.65894 28.6872 3.57709 29.6072 4.70927 29.6072C5.8415 29.6072 6.76691 28.6872 6.76691 27.5564C6.76691 26.6147 6.15385 25.8197 5.26496 25.58V20.65H9.73716C11.1381 22.838 13.1407 24.3791 15.8063 25.3731C15.935 25.4117 16.0639 25.412 16.1928 25.3741C18.8337 24.3637 20.8223 22.7696 22.2187 20.65H26.8718V25.58C26.0513 25.8197 25.3826 26.6147 25.3826 27.5564C25.3826 28.6872 26.3123 29.6072 27.4445 29.6072C28.5768 29.6072 29.4849 28.6872 29.4849 27.5564C29.4849 26.6147 28.8547 25.8197 27.9658 25.58V20.0818C27.9658 19.7797 27.7551 19.556 27.4531 19.556H22.8485C23.3187 18.5272 23.7317 17.5058 24.024 16.4107H27.9681C28.2085 17.2996 29.0041 17.9146 29.9467 17.9146C31.0789 17.9145 32 16.9945 32 15.8636C32 14.7328 31.0789 13.8128 29.9467 13.8128ZM26.4968 4.44443C26.4968 3.91677 26.9271 3.48757 27.456 3.48757C27.9849 3.48757 28.4152 3.91677 28.4152 4.44443C28.4152 4.97208 27.9849 5.40128 27.456 5.40128C26.9271 5.40128 26.4968 4.97208 26.4968 4.44443ZM3.74414 4.44443C3.74414 3.91677 4.1745 3.48757 4.70338 3.48757C5.23227 3.48757 5.66263 3.91677 5.66263 4.44443C5.66263 4.97208 5.23227 5.40128 4.70338 5.40128C4.1745 5.40128 3.74414 4.97208 3.74414 4.44443ZM2.05327 16.8205C1.52438 16.8205 1.09402 16.3913 1.09402 15.8637C1.09402 15.3361 1.52438 14.9069 2.05327 14.9069C2.58215 14.9069 3.01251 15.3361 3.01251 15.8637C3.01258 16.3913 2.58222 16.8205 2.05327 16.8205ZM5.66557 27.5564C5.66557 28.084 5.23521 28.5132 4.70633 28.5132C4.17744 28.5132 3.74715 28.084 3.74715 27.5564C3.74715 27.0287 4.17744 26.5995 4.70633 26.5995C5.23521 26.5995 5.66557 27.0287 5.66557 27.5564ZM28.4123 27.5564C28.4123 28.084 27.982 28.5132 27.4531 28.5132C26.9242 28.5132 26.4938 28.084 26.4938 27.5564C26.4938 27.0287 26.9242 26.5995 27.4531 26.5995C27.982 26.5995 28.4123 27.0287 28.4123 27.5564ZM8.02297 9.12573C10.9744 9.5061 13.99 8.58665 15.9768 6.3128C18.127 8.39759 20.9311 9.62617 23.957 9.12156C23.4456 16.1512 22.3919 21.7148 15.9949 24.2636C9.59419 21.7748 8.53792 16.1913 8.02297 9.12573ZM29.9467 16.8205C29.4178 16.8205 28.9875 16.3913 28.9875 15.8637C28.9875 15.3361 29.4178 14.9069 29.9467 14.9069C30.4756 14.9069 30.906 15.3361 30.906 15.8637C30.906 16.3913 30.4756 16.8205 29.9467 16.8205Z" fill="black"/>
</svg>
