<svg width="80" height="80" viewBox="0 0 80 80" fill="none" xmlns="http://www.w3.org/2000/svg">
<path d="M37.4182 33.3575C33.9515 33.3575 31.1273 36.1818 31.1273 39.6363C31.1273 43.103 33.9515 45.9272 37.4182 45.9272C40.8848 45.9272 43.697 43.103 43.697 39.6363C43.697 36.1818 40.8727 33.3575 37.4182 33.3575ZM37.4182 44.1212C34.9454 44.1212 32.9454 42.1091 32.9454 39.6485C32.9454 37.1878 34.9576 35.1878 37.4182 35.1878C39.8788 35.1878 41.8788 37.1878 41.8788 39.6485C41.8788 42.1091 39.8788 44.1212 37.4182 44.1212Z" fill="black"/>
<path d="M48.5818 45.6605C48.9939 44.8969 49.3212 44.0969 49.5636 43.2848L52.1697 42.6545C52.5818 42.5575 52.8606 42.1938 52.8606 41.7696V37.5029C52.8606 37.0787 52.5697 36.7151 52.1697 36.6181L49.5636 35.9878C49.3212 35.1757 48.9939 34.3878 48.5818 33.612L49.9757 31.3332C50.1939 30.9817 50.1454 30.509 49.8424 30.2181L46.8242 27.1999C46.5212 26.8969 46.0606 26.8484 45.7091 27.0666L43.4181 28.4605C42.6545 28.0484 41.8666 27.7211 41.0545 27.4787L40.4242 24.8848C40.3272 24.4726 39.9636 24.1938 39.5394 24.1938H35.2727C34.8484 24.1938 34.4848 24.4848 34.3878 24.8848L33.7575 27.4787C32.9333 27.7332 32.1333 28.0605 31.3818 28.4605L29.103 27.0666C28.7515 26.8484 28.2787 26.8969 27.9878 27.1999L24.9575 30.2181C24.6545 30.5211 24.606 30.9817 24.8242 31.3332L26.2303 33.612C25.8303 34.3635 25.4909 35.1514 25.2484 35.9878L22.6424 36.6181C22.2303 36.7151 21.9515 37.0787 21.9515 37.5029V41.7696C21.9515 42.1938 22.2424 42.5575 22.6424 42.6545L25.2484 43.2848C25.503 44.1211 25.8303 44.909 26.2303 45.6605L24.8242 47.9393C24.606 48.3029 24.6545 48.7635 24.9575 49.0545L27.9878 52.0726C28.2787 52.3635 28.7515 52.4242 29.103 52.206L31.3818 50.812C32.1212 51.212 32.9212 51.5393 33.7575 51.7938L34.3878 54.3999C34.4848 54.812 34.8484 55.0908 35.2727 55.0908H39.5394C39.9636 55.0908 40.3272 54.7999 40.4242 54.3999L41.0545 51.7938C41.8909 51.5393 42.6787 51.212 43.4181 50.812L45.7091 52.206C46.0727 52.4242 46.5212 52.3635 46.8242 52.0726L49.8424 49.0545C50.1454 48.7514 50.1939 48.2908 49.9757 47.9393L48.5818 45.6605ZM46.7515 46.1575L48.0484 48.2787L46.0484 50.2787L43.903 48.9817C43.6121 48.7999 43.2484 48.7999 42.9575 48.9817C42.0848 49.5151 41.103 49.9151 40.0606 50.1817C39.7333 50.2666 39.4787 50.5211 39.406 50.8484L38.8121 53.2848H36L35.4181 50.8484C35.3333 50.5211 35.0787 50.2666 34.7636 50.1817C33.7091 49.9151 32.7272 49.5029 31.8545 48.9817C31.5636 48.812 31.2 48.812 30.9091 48.9817L28.7757 50.2787L26.7636 48.2787L28.0727 46.1575C28.2545 45.8666 28.2545 45.5029 28.0727 45.212C27.5394 44.3151 27.1272 43.3454 26.8727 42.3029C26.7878 41.9757 26.5333 41.7211 26.206 41.6484L23.7697 41.0545V38.2181L26.206 37.6242C26.5333 37.5514 26.7878 37.2969 26.8727 36.9696C27.1394 35.9272 27.5394 34.9575 28.0727 34.0605C28.2424 33.7696 28.2424 33.406 28.0727 33.1151L26.7636 30.9938L28.7757 28.9938L30.8969 30.3029C31.1878 30.4848 31.5515 30.4848 31.8303 30.3029C32.7394 29.7575 33.7212 29.3575 34.7394 29.0908C35.0666 29.006 35.3212 28.7514 35.3939 28.4242L35.9757 25.9999H38.8121L39.406 28.4242C39.4909 28.7514 39.7333 29.006 40.0606 29.0908C41.0666 29.3454 42.0484 29.7575 42.9575 30.3029C43.2484 30.4726 43.6121 30.4726 43.8909 30.3029L46.0363 29.006L48.0363 31.006L46.7394 33.1393C46.5697 33.4302 46.5575 33.7817 46.7272 34.0726C47.2727 35.006 47.6727 35.9757 47.9272 36.9817C48.0121 37.309 48.2666 37.5635 48.5939 37.6484L51.0303 38.2423V41.0787L48.5939 41.6726C48.2666 41.7575 48.0121 42.012 47.9272 42.3393C47.6848 43.3332 47.2848 44.3151 46.7272 45.2484C46.5697 45.5151 46.5818 45.8666 46.7515 46.1575Z" fill="black"/>
<path d="M78.1697 63.9757L68.206 55.4181C67.9394 55.1878 67.5515 55.1393 67.2364 55.2848C66.9091 55.4302 66.703 55.7575 66.703 56.109V58.5696H62.0485C66.2182 53.1636 68.5212 46.5212 68.5212 39.6484C68.5212 35.406 67.6727 31.309 66.0242 27.4545C71.6364 27.0545 76.0727 22.3757 76.0727 16.6787C76.0727 10.7151 71.2242 5.85449 65.2485 5.85449C60.2424 5.85449 56.0364 9.27267 54.8 13.8909C49.6485 10.3878 43.6606 8.53328 37.3939 8.53328C20.2424 8.53328 6.29089 22.4969 6.29089 39.6484C6.29089 46.509 8.59392 53.1515 12.7879 58.5696H2.42423C1.92726 58.5696 1.51514 58.9818 1.51514 59.4787C1.51514 59.9757 1.92726 60.3999 2.42423 60.3999H14.2667C17.7818 64.3151 22.1697 67.2242 26.9939 68.9454H2.42423C1.92726 68.9454 1.51514 69.3575 1.51514 69.8545C1.51514 70.3515 1.92726 70.7636 2.42423 70.7636H37.406H37.4303H66.6909V73.2363C66.6909 73.5878 66.897 73.9151 67.2242 74.0606C67.3454 74.1212 67.4788 74.1454 67.6 74.1454C67.8182 74.1454 68.0242 74.0727 68.1939 73.9272L78.1576 65.3575C78.3636 65.1878 78.4727 64.9333 78.4727 64.6666C78.4727 64.3999 78.3636 64.1454 78.1697 63.9757ZM65.2606 7.6848C70.2182 7.6848 74.2667 11.7212 74.2667 16.6909C74.2667 21.6606 70.2303 25.6969 65.2606 25.6969C60.2909 25.6969 56.2545 21.6606 56.2545 16.6909C56.2545 11.7212 60.2909 7.6848 65.2606 7.6848ZM68.5212 71.2484V69.8424C68.5212 69.3454 68.1091 68.9333 67.6121 68.9333H37.406C28.9697 68.9333 20.9333 65.2727 15.3454 58.8727C10.6788 53.5393 8.10908 46.7151 8.10908 39.6484C8.10908 23.4909 21.2485 10.3515 37.406 10.3515C43.5879 10.3515 49.4788 12.2666 54.4848 15.8666C54.4606 16.1333 54.4485 16.3999 54.4485 16.6787C54.4485 22.2303 58.6424 26.7999 64.0364 27.4181C65.8061 31.2606 66.7151 35.3696 66.7151 39.6484C66.7151 46.5818 64.2424 53.2848 59.7576 58.5696H45.8545C53.0909 55.3212 58.1454 48.0606 58.1454 39.6484C58.1454 28.206 48.8363 18.8969 37.3939 18.8969C33.4909 18.8969 29.6848 19.9999 26.3879 22.0969C20.2909 25.9393 16.6424 32.4969 16.6424 39.6484C16.6424 46.7878 20.2788 53.3454 26.3757 57.1878C29.6848 59.2848 33.503 60.3878 37.3939 60.3878H37.5273H60.1454H67.6C68.097 60.3878 68.5091 59.9757 68.5091 59.4787V58.0848L76.1697 64.6545L68.5212 71.2484ZM37.406 58.5696C33.8545 58.5696 30.3757 57.5636 27.3576 55.6484C21.7939 52.1454 18.4727 46.1575 18.4727 39.6484C18.4727 33.1272 21.7939 27.1393 27.3697 23.6363C30.3757 21.7212 33.8545 20.7151 37.406 20.7151C47.8424 20.7151 56.3394 29.2121 56.3394 39.6484C56.3394 50.0242 47.903 58.509 37.5394 58.5696H37.406Z" fill="black"/>
<path d="M62.9091 19.9636C63.0788 20.1333 63.3091 20.2303 63.5515 20.2303C63.7939 20.2303 64.0242 20.1333 64.1939 19.9636L69.4788 14.6666C69.8303 14.3151 69.8303 13.7333 69.4788 13.3818C69.1273 13.0303 68.5455 13.0303 68.1939 13.3818L63.5515 18.0242L62.3151 16.7879C61.9636 16.4363 61.3818 16.4363 61.0303 16.7879C60.6788 17.1394 60.6788 17.7212 61.0303 18.0727L62.9091 19.9636Z" fill="black"/>
</svg>
