<svg width="52" height="52" viewBox="0 0 52 52" fill="none" xmlns="http://www.w3.org/2000/svg">
<g clip-path="url(#clip0_1036_13462)">
<path d="M7.80284 37.2686H2.60355C1.16847 37.2701 0.00542948 38.4331 0.00390625 39.8682V51.1333C0.00390625 51.6119 0.391822 51.9998 0.870421 51.9998H9.53587C10.0145 51.9998 10.4024 51.6119 10.4024 51.1333V39.8682C10.4009 38.4331 9.23792 37.2702 7.80284 37.2686ZM8.66935 50.2668H1.73693V39.8682C1.73754 39.3899 2.12516 39.0023 2.60345 39.0017H7.80274C8.28103 39.0023 8.66864 39.3899 8.66925 39.8682L8.66935 50.2668Z" fill="black"/>
<path d="M21.6661 25.1377H16.4668C15.0317 25.1392 13.8687 26.3023 13.8672 27.7373V51.1341C13.8672 51.6127 14.2551 52.0007 14.7337 52.0007H23.3991C23.8777 52.0007 24.2657 51.6127 24.2657 51.1341V27.7373C24.2641 26.3022 23.1012 25.1392 21.6661 25.1377ZM22.5326 50.2675H15.6002V27.7373C15.6008 27.259 15.9884 26.8714 16.4667 26.8708H21.666C22.1443 26.8714 22.5319 27.259 22.5325 27.7373L22.5326 50.2675Z" fill="black"/>
<path d="M35.5333 30.3369H30.334C28.8989 30.3384 27.7359 31.5015 27.7344 32.9366V51.1341C27.7344 51.6127 28.1223 52.0006 28.6009 52.0006H37.2663C37.7449 52.0006 38.1329 51.6127 38.1329 51.1341V32.9366C38.1314 31.5014 36.9684 30.3384 35.5333 30.3369ZM36.3999 50.2675H29.4675V32.9366C29.4681 32.4583 29.8557 32.0707 30.334 32.07H35.5333C36.0116 32.0707 36.3992 32.4583 36.3998 32.9366L36.3999 50.2675Z" fill="black"/>
<path d="M49.3966 23.4043H44.1973C42.7622 23.4058 41.5992 24.5689 41.5977 26.0039V51.1339C41.5977 51.6125 41.9856 52.0004 42.4642 52.0004H51.1296C51.6082 52.0004 51.9961 51.6125 51.9961 51.1339V26.0039C51.9946 24.5689 50.8317 23.4058 49.3966 23.4043ZM50.2631 50.2673H43.3307V26.0039C43.3313 25.5256 43.7189 25.138 44.1972 25.1374H49.3965C49.8748 25.138 50.2624 25.5256 50.263 26.0039V50.2673H50.2631Z" fill="black"/>
<path d="M42.9163 10.3874C44.5038 12.1743 47.1056 12.6477 49.2208 11.5345C51.3359 10.4213 52.4188 8.00874 51.8448 5.68846C51.2707 3.36817 49.1878 1.73893 46.7976 1.74035C45.0624 1.73903 43.441 2.60402 42.476 4.04611C41.5109 5.4882 41.3295 7.31689 41.9925 8.92045L36.8142 12.1573C35.8825 11.1011 34.5604 10.4703 33.1532 10.4104C31.7461 10.3505 30.3753 10.8668 29.3573 11.8401L23.6856 7.5863C24.8847 5.26703 24.1775 2.41819 22.033 0.928874C19.8885 -0.560438 16.972 -0.228171 15.2175 1.70542C13.4631 3.639 13.4149 6.57396 15.105 8.56401L7.84002 17.1975C5.51049 15.8268 2.51918 16.4697 0.958476 18.6764C-0.602225 20.8832 -0.211872 23.9178 1.85667 25.6576C3.92522 27.3974 6.98173 27.2622 8.88851 25.3464C10.7953 23.4307 10.9161 20.3735 9.16655 18.3132L16.4315 9.67972C18.4263 10.8663 20.9676 10.5765 22.644 8.97122L28.3157 13.225C27.2118 15.3631 27.7198 17.9794 29.5435 19.5491C31.3672 21.1189 34.03 21.2316 35.98 19.8217C37.9299 18.4118 38.6573 15.8479 37.7382 13.6241L42.9163 10.3874ZM46.7976 3.47348C48.7119 3.47348 50.2638 5.02534 50.2638 6.93964C50.2615 8.85302 48.711 10.4037 46.7976 10.4058C44.8833 10.4058 43.3315 8.85393 43.3315 6.93964C43.3315 5.02534 44.8832 3.47348 46.7976 3.47348ZM5.20331 25.1373C3.28902 25.1373 1.73715 23.5854 1.73715 21.6711C1.73715 19.7568 3.28902 18.2049 5.20331 18.2049C7.1176 18.2049 8.66947 19.7568 8.66947 21.6711C8.66723 23.5845 7.11669 25.135 5.20331 25.1373ZM19.068 8.67277C17.1538 8.67277 15.6019 7.1209 15.6019 5.20661C15.6019 3.29232 17.1538 1.74045 19.068 1.74045C20.9823 1.74045 22.5342 3.29232 22.5342 5.20661C22.5321 7.11999 20.9814 8.67064 19.068 8.67277ZM32.9328 19.0713C31.0185 19.0713 29.4666 17.5195 29.4666 15.6052C29.4666 13.6909 31.0185 12.139 32.9328 12.139C34.8471 12.139 36.3989 13.6909 36.3989 15.6052C36.3968 17.5186 34.8463 19.0692 32.9328 19.0713Z" fill="black"/>
</g>
<defs>
<clipPath id="clip0_1036_13462">
<rect width="52" height="52" fill="white"/>
</clipPath>
</defs>
</svg>
