<svg width="52" height="52" viewBox="0 0 52 52" fill="none" xmlns="http://www.w3.org/2000/svg">
<g clip-path="url(#clip0_1036_13447)">
<path d="M50.0828 31.5031L48.2891 30.4675C48.5904 28.9693 48.7428 27.469 48.7428 26C48.7428 24.5096 48.5928 23.0079 48.2967 21.528L50.0828 20.4968C50.636 20.1774 51.0317 19.6617 51.197 19.0447C51.3622 18.4277 51.2775 17.7833 50.958 17.2301L46.0735 8.76978C45.7541 8.21661 45.2384 7.82086 44.6215 7.6556C44.0044 7.49034 43.36 7.57511 42.8068 7.89454L41.0192 8.9266C38.7612 6.94012 36.1038 5.40271 33.2751 4.44615V2.39139C33.2751 1.07277 32.2023 0 30.8837 0H21.1146C19.796 0 18.7232 1.07277 18.7232 2.39139V4.44625C15.9095 5.39894 13.2558 6.93839 10.9895 8.9327L9.19145 7.89454C8.63818 7.57511 7.99372 7.49024 7.37674 7.6556C6.75977 7.82096 6.24414 8.21661 5.92471 8.76978L1.04017 17.2301C0.720744 17.7833 0.635977 18.4277 0.801237 19.0447C0.966497 19.6617 1.36225 20.1774 1.91542 20.4968L3.70907 21.5324C3.40806 23.0306 3.25552 24.5309 3.25552 26C3.25552 27.4902 3.40551 28.9919 3.70164 30.4719L1.91552 31.5031C0.773558 32.1625 0.380963 33.6278 1.04017 34.7699L5.92471 43.2302C6.58402 44.3721 8.04939 44.7648 9.19145 44.1055L10.9789 43.0734C13.237 45.0599 15.8943 46.5973 18.7232 47.5539V49.6086C18.7232 50.9272 19.796 52 21.1146 52H30.8837C32.2023 52 33.2751 50.9272 33.2751 49.6086V47.5537C36.0889 46.6011 38.7426 45.0616 41.0089 43.0674L42.8069 44.1055C43.9487 44.7648 45.4143 44.3721 46.0736 43.2302L50.9581 34.7699C51.6173 33.6278 51.2248 32.1625 50.0828 31.5031ZM49.6362 34.0067L44.7516 42.4669C44.5132 42.8801 43.9831 43.022 43.5701 42.7835L41.2914 41.4679C41.0019 41.3007 40.6371 41.3415 40.3917 41.5686C38.062 43.7231 35.2591 45.3488 32.2861 46.2698C31.9665 46.3688 31.7487 46.6644 31.7487 46.9988V49.6086C31.7487 50.0856 31.3607 50.4736 30.8837 50.4736H21.1146C20.6377 50.4736 20.2496 50.0856 20.2496 49.6086V46.9989C20.2496 46.6645 20.0318 46.3689 19.7123 46.2699C16.721 45.3432 13.9146 43.7196 11.5964 41.5748C11.4518 41.4409 11.2657 41.3717 11.0779 41.3717C10.947 41.3717 10.8155 41.4053 10.6965 41.474L8.42824 42.7835C8.01509 43.0219 7.48512 42.88 7.24669 42.4669L2.36215 34.0067C2.12373 33.5936 2.26579 33.0636 2.67873 32.825L4.94516 31.5165C5.23457 31.3494 5.38161 31.0136 5.30804 30.6875C4.9589 29.14 4.78193 27.5628 4.78193 26C4.78193 24.4634 4.96154 22.8877 5.31588 21.3167C5.38935 20.9908 5.2423 20.6549 4.95299 20.4879L2.67873 19.1749C2.47867 19.0594 2.33559 18.8728 2.27576 18.6497C2.21602 18.4265 2.24665 18.1934 2.36215 17.9933L7.24669 9.53299C7.36219 9.33293 7.54872 9.18975 7.77199 9.13002C7.99505 9.07018 8.22828 9.10092 8.42835 9.21641L10.707 10.532C10.9966 10.6993 11.3613 10.6584 11.6068 10.4313C13.9365 8.27675 16.7393 6.65112 19.7123 5.73007C20.0319 5.63106 20.2497 5.33555 20.2497 5.00106V2.39139C20.2497 1.91443 20.6378 1.52642 21.1147 1.52642H30.8838C31.3608 1.52642 31.7488 1.91443 31.7488 2.39139V5.00106C31.7488 5.33555 31.9666 5.63106 32.2861 5.73007C35.2773 6.65671 38.0837 8.28031 40.402 10.4252C40.6475 10.6524 41.0123 10.6932 41.3019 10.526L43.5702 9.21641C43.7703 9.10092 44.0035 9.07018 44.2265 9.13002C44.4497 9.18986 44.6362 9.33293 44.7518 9.53299L49.6364 17.9933C49.7519 18.1934 49.7826 18.4265 49.7228 18.6497C49.6629 18.8728 49.5198 19.0594 49.3198 19.1749L47.0534 20.4834C46.764 20.6505 46.6169 20.9864 46.6905 21.3124C47.0396 22.8597 47.2166 24.4368 47.2166 26C47.2166 27.5366 47.037 29.1123 46.6826 30.6832C46.6092 31.0091 46.7562 31.3449 47.0455 31.512L49.3198 32.825C49.7326 33.0636 49.8747 33.5936 49.6362 34.0067Z" fill="black"/>
<path d="M25.9989 10.583C17.4979 10.583 10.582 17.499 10.582 25.9998C10.582 34.5007 17.4979 41.4167 25.9989 41.4167C34.4998 41.4167 41.4157 34.5007 41.4157 25.9998C41.4157 17.499 34.4998 10.583 25.9989 10.583ZM25.9989 39.8902C18.3397 39.8902 12.1085 33.659 12.1085 25.9998C12.1085 18.3407 18.3397 12.1094 25.9989 12.1094C33.658 12.1094 39.8893 18.3407 39.8893 25.9998C39.8893 33.659 33.658 39.8902 25.9989 39.8902Z" fill="black"/>
<path d="M28.8469 21.9805H25.9976C25.5761 21.9805 25.2344 22.3222 25.2344 22.7437V29.2564C25.2344 29.6779 25.5761 30.0196 25.9976 30.0196C26.4191 30.0196 26.7608 29.6779 26.7608 29.2564V27.5773H28.8469C30.39 27.5773 31.6453 26.322 31.6453 24.7789C31.6453 23.2358 30.39 21.9805 28.8469 21.9805ZM28.8469 26.0509H26.7608V23.5069H28.8469C29.5483 23.5069 30.1189 24.0775 30.1189 24.7789C30.1189 25.4803 29.5483 26.0509 28.8469 26.0509Z" fill="black"/>
<path d="M21.8281 22.4757C21.7163 22.1779 21.4316 21.9805 21.1135 21.9805H20.2994C19.9813 21.9805 19.6965 22.1778 19.5848 22.4757L17.1426 28.9885C16.9945 29.3831 17.1946 29.823 17.5892 29.9711C17.9838 30.1191 18.4237 29.9191 18.5718 29.5244L18.9966 28.3914H22.4162L22.8411 29.5243C22.956 29.8307 23.2468 30.0198 23.5558 30.0198C23.6448 30.0198 23.7354 30.0041 23.8236 29.9711C24.2182 29.8231 24.4183 29.3831 24.2702 28.9885L21.8281 22.4757ZM19.569 26.865L20.7065 23.8318L21.8439 26.865H19.569Z" fill="black"/>
<path d="M33.3257 21.9805C32.9042 21.9805 32.5625 22.3222 32.5625 22.7437V29.2564C32.5625 29.6779 32.9042 30.0196 33.3257 30.0196C33.7472 30.0196 34.0889 29.6779 34.0889 29.2564V22.7437C34.0889 22.3222 33.7472 21.9805 33.3257 21.9805Z" fill="black"/>
<path d="M31.4575 8.88407C31.9871 9.0529 32.5152 9.24899 33.0267 9.46676C33.1242 9.50828 33.2256 9.52792 33.3253 9.52792C33.622 9.52792 33.9043 9.3537 34.0278 9.06348C34.1929 8.67567 34.0124 8.22741 33.6246 8.06235C33.0692 7.82596 32.496 7.61308 31.9209 7.4298C31.5194 7.30179 31.09 7.52363 30.962 7.92518C30.8341 8.32673 31.0559 8.75606 31.4575 8.88407Z" fill="black"/>
<path d="M10.2224 34.5892C10.0205 34.2192 9.55681 34.0829 9.1869 34.2848C8.8169 34.4867 8.68054 34.9503 8.88243 35.3203C9.19912 35.9007 9.54968 36.4717 9.92437 37.0174C10.0723 37.2328 10.3112 37.3486 10.5542 37.3486C10.703 37.3486 10.8534 37.3052 10.9855 37.2145C11.333 36.9759 11.4213 36.5007 11.1826 36.1533C10.8374 35.6504 10.5143 35.1242 10.2224 34.5892Z" fill="black"/>
<path d="M24.4359 43.8939C20.3462 43.5415 16.4642 41.7692 13.5051 38.9034C13.2022 38.6102 12.7191 38.618 12.4259 38.9207C12.1327 39.2236 12.1403 39.7067 12.4432 39.9999C15.6538 43.1092 19.8664 45.0322 24.3048 45.4146C24.3271 45.4166 24.3492 45.4175 24.3711 45.4175C24.763 45.4175 25.0964 45.1174 25.1307 44.7198C25.1668 44.2999 24.8557 43.9301 24.4359 43.8939Z" fill="black"/>
<path d="M36.983 9.89975C36.6349 9.66193 36.16 9.75128 35.9222 10.0992C35.6844 10.4472 35.7737 10.9221 36.1217 11.16C39.6674 13.5832 42.2323 17.1891 43.3439 21.3133C43.4357 21.6538 43.7438 21.8781 44.0803 21.8781C44.146 21.8781 44.2129 21.8695 44.2794 21.8516C44.6864 21.7419 44.9274 21.3231 44.8177 20.9161C43.6116 16.4407 40.8291 12.5283 36.983 9.89975Z" fill="black"/>
</g>
<defs>
<clipPath id="clip0_1036_13447">
<rect width="52" height="52" fill="white"/>
</clipPath>
</defs>
</svg>
