<svg width="80" height="80" viewBox="0 0 80 80" fill="none" xmlns="http://www.w3.org/2000/svg">
<path d="M24.4633 30.6667C23.7467 31.3867 23.33 32.3967 23.3333 33.4667C23.3333 34.54 23.76 35.5467 24.5233 36.3L32.7833 43.76C33.4667 44.38 33.52 45.43 32.9033 46.1133C32.2867 46.8 31.23 46.8467 30.55 46.2333L22.2367 38.7233C20.78 37.29 20.0067 35.4467 20 33.4767C19.9933 31.5067 20.7567 29.6567 22.15 28.2667L30.53 20.4433C31.2033 19.8167 32.26 19.85 32.8867 20.5233C33.5133 21.1967 33.4767 22.2533 32.8067 22.88L24.4667 30.66L24.4633 30.6667ZM47.2167 43.7633C46.5333 44.3833 46.48 45.4333 47.0967 46.1167C47.7133 46.8033 48.77 46.85 49.45 46.2367L57.8167 38.6733C59.2167 37.29 59.9933 35.4467 60 33.4767C60.0067 31.5067 59.2433 29.6567 57.81 28.2267L49.47 20.4467C48.7967 19.82 47.7433 19.8567 47.1133 20.5267C46.4867 21.2 46.5233 22.2567 47.1933 22.8833L55.4933 30.6233C56.2533 31.3833 56.67 32.3933 56.6667 33.4667C56.6667 34.54 56.24 35.5467 55.53 36.25L47.2167 43.7633ZM35 56.6667H32.3567L29.51 53.82C29.1967 53.5067 28.7733 53.3333 28.33 53.3333H10V25C10 18.5667 15.2333 13.3333 21.6667 13.3333H58.3333C64.7667 13.3333 70 18.5667 70 25V28.3333C70 29.2533 70.7467 30 71.6667 30C72.5867 30 73.3333 29.2533 73.3333 28.3333V25C73.3333 16.73 66.6033 10 58.3333 10H21.6667C13.3967 10 6.66667 16.73 6.66667 25V53.5033C2.86667 54.2767 0 57.6433 0 61.6667C0 66.2633 3.74 70 8.33333 70H28.3333C29.2533 70 30 69.2533 30 68.3333C30 67.4133 29.2533 66.6667 28.3333 66.6667H8.33333C5.57667 66.6667 3.33333 64.4233 3.33333 61.6667C3.33333 58.91 5.57667 56.6667 8.33333 56.6667H27.6433L30.49 59.5133C30.8033 59.8267 31.2267 60 31.67 60H35.0033C35.9233 60 36.67 59.2533 36.67 58.3333C36.67 57.4133 35.9233 56.6667 35.0033 56.6667H35ZM80 45C80 47.2267 79.1333 49.3167 77.56 50.8933L51.87 76.5833C49.7 78.7533 46.69 80 43.62 80H38.3333C37.4133 80 36.6667 79.2533 36.6667 78.3333V73.0467C36.6667 69.9267 37.88 67 40.0833 64.7967L65.7733 39.1067C68.9167 35.96 74.4133 35.96 77.5567 39.1067C79.13 40.68 80 42.7733 80 45ZM76.6667 45C76.6667 43.6667 76.1467 42.41 75.2033 41.4633C73.3167 39.5767 70.02 39.5767 68.1333 41.4633L42.4433 67.1533C40.87 68.7267 40.0033 70.82 40.0033 73.0467V76.6667H43.6233C45.8167 76.6667 47.9633 75.7767 49.5167 74.2267L75.2067 48.5367C76.15 47.5933 76.6667 46.3367 76.6667 45Z" fill="black"/>
</svg>
