<svg width="52" height="52" viewBox="0 0 52 52" fill="none" xmlns="http://www.w3.org/2000/svg">
<path d="M34.7542 34.9281C34.5401 34.5332 34.0462 34.3865 33.6516 34.6012C33.2567 34.8154 33.1105 35.3092 33.3246 35.7039C34.4011 37.6875 35.8454 39.7325 37.9907 42.3076V44.6654H6.24179V42.3074C12.2345 35.1063 13.7934 30.8293 13.7934 21.762C13.7934 17.1734 17.5277 13.4404 22.1178 13.4404C23.5965 13.4404 25.0512 13.8383 26.3247 14.5911C26.7116 14.8195 27.2102 14.6914 27.4387 14.3049C27.6673 13.9181 27.539 13.4194 27.1525 13.1908C25.6284 12.29 23.8876 11.8137 22.1179 11.8137C16.6309 11.8137 12.1669 16.2764 12.1669 21.7619C12.1669 30.5568 10.7221 34.4285 4.80539 41.49C4.6827 41.6363 4.61547 41.8213 4.61547 42.0123V45.4786C4.61547 45.9279 4.97957 46.292 5.42878 46.292H17.3376V46.4085C17.3376 49.0444 19.4821 51.1889 22.118 51.1889C24.754 51.1889 26.8956 49.0444 26.8956 46.4085V46.292H38.8044C39.2536 46.292 39.6177 45.9279 39.6177 45.4786V42.0123C39.6177 41.8211 39.5503 41.636 39.4274 41.4897C37.2496 38.8937 35.8085 36.8702 34.7546 34.9281H34.7542ZM25.2687 46.4086C25.2687 48.1476 23.8552 49.5625 22.1177 49.5625C20.3803 49.5625 18.9638 48.1476 18.9638 46.4086V46.2921H25.2687V46.4086ZM50.0653 28.3655L44.037 17.9268L38.0114 7.48493C38.011 7.48432 38.0107 7.48381 38.0104 7.4833C37.4441 6.50678 36.4741 5.94666 35.3493 5.94666C34.2245 5.94666 33.25 6.50749 32.6873 7.48473L26.6588 17.9266L20.6298 28.3665C20.0666 29.3445 20.0669 30.4646 20.6298 31.4382C21.1932 32.4162 22.1636 32.977 23.2924 32.977H47.4064C48.5333 32.977 49.5026 32.4162 50.064 31.4416C50.6325 30.4654 50.6328 29.3437 50.0655 28.3656L50.0653 28.3655ZM48.6562 30.6263C48.3874 31.0932 47.9434 31.3504 47.4062 31.3504H23.2922C22.7531 31.3504 22.3082 31.0932 22.0385 30.625C21.7696 30.1599 21.7698 29.646 22.0387 29.179L28.0672 18.7399L34.0962 8.29723C34.3651 7.83034 34.81 7.57329 35.3491 7.57329C35.8882 7.57329 36.3317 7.83116 36.6033 8.29936L42.6281 18.74L48.6573 29.1803C48.9279 29.6469 48.9281 30.1592 48.656 30.6263H48.6562ZM35.3516 12.1947H35.3488C34.4918 12.1947 33.6938 12.5455 33.16 13.1563C32.6126 13.7806 32.3834 14.545 32.4965 15.3656L33.5786 23.3057C33.6917 24.1581 34.427 24.8009 35.2888 24.8009H35.4096C36.2799 24.8009 36.9989 24.1743 37.1195 23.3083L38.1989 15.3669C38.3122 14.545 38.0828 13.7807 37.5373 13.1585C37.0048 12.5469 36.2081 12.1957 35.3515 12.1949L35.3516 12.1947ZM36.5874 15.1463L35.5081 23.0866C35.5007 23.1398 35.4621 23.1743 35.4096 23.1743H35.2888C35.2361 23.1743 35.1978 23.1419 35.1907 23.0889L34.108 15.1446C34.0597 14.7945 34.1496 14.4949 34.384 14.2277C34.6097 13.9694 34.9613 13.8213 35.3488 13.8213H35.3502C35.7368 13.8217 36.0867 13.9694 36.3125 14.2287C36.546 14.4949 36.6359 14.7946 36.5874 15.1463ZM35.3493 25.3681C34.0691 25.3681 33.0275 26.4097 33.0275 27.6899C33.0275 28.9701 34.0691 30.0117 35.3493 30.0117C36.6295 30.0117 37.6711 28.9701 37.6711 27.6899C37.6711 26.4097 36.6295 25.3681 35.3493 25.3681ZM35.3493 28.3852C34.966 28.3852 34.654 28.0733 34.654 27.6899C34.654 27.3065 34.9659 26.9946 35.3493 26.9946C35.7327 26.9946 36.0446 27.3065 36.0446 27.6899C36.0446 28.0733 35.7327 28.3852 35.3493 28.3852ZM5.05676 14.1146L8.54441 16.1262C8.87967 16.3205 9.2521 16.4198 9.63012 16.4198C9.82024 16.4198 10.012 16.3946 10.2009 16.3438C10.7643 16.1924 11.2337 15.8313 11.5229 15.3272C11.8138 14.8238 11.8906 14.2366 11.7391 13.673C11.5875 13.1093 11.226 12.6395 10.724 12.352L7.23598 10.3358C6.19375 9.73627 4.85881 10.0954 4.26132 11.1339C3.97004 11.6366 3.89234 12.224 4.04286 12.7881C4.19317 13.3517 4.5528 13.8225 5.05676 14.1146ZM5.66999 11.9473C5.77054 11.7724 5.96077 11.6737 6.15343 11.6737C6.24616 11.6737 6.33949 11.6966 6.42348 11.7449L9.91266 13.7618C10.0391 13.8341 10.1299 13.9526 10.1683 14.0953C10.2068 14.2385 10.1876 14.3871 10.1143 14.5137C10.1136 14.5149 10.1128 14.5161 10.1121 14.5173C10.0397 14.6437 9.9213 14.7345 9.7785 14.7729C9.6356 14.8115 9.48681 14.7922 9.35864 14.718L5.87088 12.7064C5.61078 12.5557 5.51816 12.2091 5.66989 11.9472L5.66999 11.9473ZM9.97584 21.4424C9.97584 20.2399 8.99748 19.2615 7.79498 19.2615H3.69247C2.48997 19.2615 1.51172 20.2399 1.51172 21.4424C1.51172 22.6449 2.48997 23.6203 3.69247 23.6203H7.79498C8.99748 23.6203 9.97584 22.6432 9.97584 21.4424ZM3.13845 21.4424C3.13845 21.1419 3.39225 20.8881 3.69257 20.8881H7.79509C8.09551 20.8881 8.34931 21.1419 8.34931 21.4424C8.34931 21.7463 8.10069 21.9937 7.79509 21.9937H3.69257C3.38697 21.9937 3.13845 21.7463 3.13845 21.4424ZM22.0918 9.07296C23.2943 9.07296 24.2727 8.09471 24.2727 6.89221V2.9913C24.2727 1.7888 23.2943 0.810547 22.0918 0.810547C20.8893 0.810547 19.9111 1.7888 19.9111 2.9913V6.89231C19.9111 8.09481 20.8893 9.07296 22.0918 9.07296ZM21.5377 2.9912C21.5377 2.69088 21.7915 2.43707 22.0918 2.43707C22.3922 2.43707 22.6461 2.69088 22.6461 2.9912V6.89221C22.6461 7.19253 22.3923 7.44634 22.0918 7.44634C21.7914 7.44634 21.5377 7.19253 21.5377 6.89221V2.9912ZM13.0638 10.1478C13.3533 10.651 13.8233 11.0115 14.3873 11.1627C14.5763 11.2134 14.7681 11.2384 14.9584 11.2384C15.3348 11.2384 15.7059 11.1403 16.0397 10.9483C16.0401 10.9481 16.0404 10.9479 16.0408 10.9477C16.5456 10.6564 16.9065 10.1851 17.0574 9.62059C17.2078 9.05691 17.1303 8.46968 16.8395 7.96816L14.7711 4.38626C14.4819 3.88149 14.0121 3.52003 13.4484 3.3685C12.8839 3.21707 12.2956 3.29405 11.7956 3.58391C11.2909 3.87296 10.9294 4.34269 10.7778 4.90646C10.626 5.47095 10.7033 6.0593 10.9946 6.56163L13.0638 10.1478ZM12.3485 5.32896C12.3869 5.18627 12.4776 5.06784 12.6077 4.9933C12.6915 4.94465 12.7851 4.91987 12.8804 4.91987C12.9289 4.91987 12.9778 4.92627 13.0262 4.93927C13.1689 4.97755 13.2874 5.06835 13.3612 5.19723L15.4319 8.7828C15.5051 8.90904 15.5243 9.05742 15.486 9.20073C15.4476 9.34454 15.3564 9.46438 15.2291 9.53822C15.1021 9.61114 14.9528 9.63003 14.8087 9.59144C14.6652 9.55295 14.5464 9.46245 14.4733 9.3357L12.4026 5.74709C12.3292 5.62065 12.31 5.47206 12.3486 5.32876L12.3485 5.32896Z" fill="black"/>
</svg>
