<svg width="52" height="52" viewBox="0 0 52 52" fill="none" xmlns="http://www.w3.org/2000/svg">
<path fill-rule="evenodd" clip-rule="evenodd" d="M12.1272 10.602H2.22804C1.93684 10.602 1.66757 10.4468 1.52156 10.1948C1.00951 9.31066 0.714844 8.28667 0.714844 7.19263C0.714844 3.88176 3.40335 1.19336 6.71411 1.19336H6.71779H6.71799C6.73104 1.19336 6.74399 1.19336 6.75704 1.19346H6.75959L38.8825 1.29512C42.2635 1.30603 44.8123 4.74149 44.8123 8.24252V27.7922C44.8123 28.2427 44.4464 28.6086 43.9959 28.6086C43.5452 28.6086 43.1794 28.2427 43.1794 27.7922V8.24252C43.1794 5.62172 41.4082 2.93628 38.8772 2.92802C38.8342 2.92792 11.2421 2.84054 11.2422 2.84064C12.7818 4.1337 13.7601 6.07361 13.7601 8.24252V45.4851H29.29C29.7406 45.4851 30.1065 45.851 30.1065 46.3016C30.1065 46.7522 29.7406 47.118 29.29 47.118H12.9436C12.4927 47.118 12.1272 46.7525 12.1272 46.3016V10.602ZM6.71411 2.82626C4.30448 2.82626 2.34775 4.78289 2.34775 7.19263C2.34775 7.8255 2.48335 8.42615 2.72622 8.96909H12.1272V8.24252C12.1272 5.26455 9.72726 2.84798 6.75439 2.82636H6.74929C6.73757 2.82626 6.72584 2.82626 6.71411 2.82626ZM28.725 33.983C29.1756 33.983 29.5414 34.3489 29.5414 34.7995C29.5414 35.2501 29.1756 35.6159 28.725 35.6159H21.0031C20.5525 35.6159 20.1867 35.2501 20.1867 34.7995C20.1867 34.3489 20.5525 33.983 21.0031 33.983H28.725ZM27.8914 37.8907C28.342 37.8907 28.7079 38.2565 28.7079 38.7071C28.7079 39.1577 28.342 39.5236 27.8914 39.5236H21.0031C20.5525 39.5236 20.1867 39.1577 20.1867 38.7071C20.1867 38.2565 20.5525 37.8907 21.0031 37.8907H27.8914ZM31.4514 30.0755C31.9021 30.0755 32.2679 30.4413 32.2679 30.8919C32.2679 31.3426 31.9021 31.7084 31.4514 31.7084H21.0031C20.5525 31.7084 20.1867 31.3426 20.1867 30.8919C20.1867 30.4413 20.5525 30.0755 21.0031 30.0755H31.4514ZM40.4189 50.8073C34.4337 50.8073 29.5495 45.9231 29.5495 39.9379C29.5495 33.9527 34.4337 29.0686 40.4189 29.0686C46.4041 29.0686 51.2882 33.9527 51.2882 39.9379C51.2882 45.9231 46.4041 50.8073 40.4189 50.8073ZM40.4189 49.1759C45.5057 49.1759 49.6568 45.0249 49.6568 39.9379C49.6568 34.851 45.5057 30.7 40.4189 30.7C35.332 30.7 31.1808 34.851 31.1808 39.9379C31.1808 45.0249 35.332 49.1759 40.4189 49.1759ZM39.6032 34.263V33.575C39.6032 33.1248 39.9686 32.7593 40.4189 32.7593C40.869 32.7593 41.2346 33.1248 41.2346 33.575V34.2533C42.436 34.4738 43.5611 35.2124 44.1304 36.5665C44.3048 36.9815 44.1096 37.4601 43.6946 37.6346C43.2795 37.809 42.801 37.6138 42.6264 37.1987C42.059 35.8488 40.5496 35.5673 39.4637 35.9948C38.8182 36.2489 38.3077 36.7746 38.3442 37.5326C38.3737 38.1331 38.7557 38.4809 39.2187 38.7074C39.6322 38.9095 40.1099 39.0238 40.5601 39.0979C42.2818 39.3795 44.1873 40.1451 44.4372 42.1921L44.4373 42.1932C44.6833 44.2309 42.9711 45.3695 41.2346 45.6338V46.3009C41.2346 46.7511 40.869 47.1166 40.4189 47.1166C39.9686 47.1166 39.6032 46.7511 39.6032 46.3009V45.6221C38.1068 45.3645 36.7956 44.4174 36.4027 42.8391C36.294 42.4023 36.5604 41.9593 36.9972 41.8506C37.4341 41.7418 37.877 42.0083 37.9858 42.4451C38.2699 43.5862 39.4156 44.0877 40.5305 44.0615C41.1216 44.0476 41.7789 43.8979 42.2638 43.5637C42.6336 43.3088 42.8824 42.926 42.8177 42.3893C42.736 41.7219 42.287 41.3496 41.7581 41.1098C41.3009 40.9023 40.7823 40.7873 40.2967 40.7079L40.2959 40.7076C38.6178 40.4314 36.8123 39.607 36.7147 37.612V37.6116C36.6415 36.0964 37.5759 34.9847 38.8661 34.4768C39.102 34.3839 39.3493 34.3124 39.6032 34.263ZM31.8436 7.8257C32.4754 8.00893 33.0845 8.26138 33.6615 8.57909L34.827 8.06083C35.1355 7.92369 35.4965 7.99068 35.7352 8.22937L37.5572 10.0513C37.7955 10.2897 37.8627 10.6502 37.7262 10.9584L37.2097 12.1244C37.5278 12.702 37.7804 13.312 37.9639 13.946L39.1523 14.4034C39.4673 14.5246 39.6751 14.8272 39.6751 15.1646V17.7418C39.6751 18.0793 39.4673 18.3818 39.1523 18.503L37.9634 18.9606C37.7797 19.5925 37.5262 20.2017 37.2094 20.7786L37.7262 21.9454C37.8627 22.2537 37.7955 22.6142 37.5572 22.8526L35.7352 24.6745C35.4968 24.9129 35.1364 24.9801 34.8282 24.8435L33.6627 24.3272C33.0864 24.6451 32.4758 24.8976 31.8433 25.0809L31.3858 26.2697C31.2645 26.5847 30.9619 26.7924 30.6245 26.7924H28.0474C27.7099 26.7924 27.4073 26.5847 27.2861 26.2697L26.8286 25.081C26.1949 24.8973 25.5852 24.6437 25.0079 24.3266L23.8411 24.8435C23.5329 24.9801 23.1723 24.9129 22.9339 24.6745L21.1121 22.8526C20.8734 22.6139 20.8063 22.2528 20.9435 21.9444C20.9435 21.9444 21.4615 20.7793 21.4616 20.7794C21.1439 20.2034 20.8914 19.5932 20.7068 18.961L19.5168 18.503C19.202 18.3818 18.9942 18.0793 18.9942 17.7418V15.1646C18.9942 14.8272 19.202 14.5246 19.5168 14.4034L20.7065 13.9456C20.891 13.312 21.1438 12.7023 21.4617 12.125L20.9435 10.9595C20.8063 10.651 20.8734 10.29 21.1121 10.0513L22.9339 8.22937C23.1726 7.99068 23.5337 7.92369 23.8421 8.06083L25.0077 8.57909C25.5849 8.26118 26.1943 8.00872 26.8264 7.8255L27.2863 6.63348C27.4078 6.31893 27.7102 6.11144 28.0474 6.11144H30.6245C30.9621 6.11144 31.2648 6.31944 31.3859 6.6346L31.8436 7.8257ZM30.4704 8.80025L30.0641 7.74281H28.6069L28.1985 8.80137C28.1017 9.05209 27.8876 9.23919 27.6261 9.30128C26.8697 9.48104 26.1485 9.77988 25.4855 10.1883C25.2563 10.3296 24.9721 10.3486 24.7261 10.2392L23.6913 9.77917L22.6618 10.8087L23.122 11.8435C23.2313 12.0895 23.2123 12.3736 23.0711 12.6028C22.6621 13.2663 22.3632 13.9883 22.181 14.7477C22.1184 15.0087 21.9313 15.2222 21.6807 15.3186L20.6255 15.7247V17.1817L21.6807 17.5878C21.931 17.6842 22.118 17.8974 22.1809 18.1582C22.363 18.9149 22.6616 19.6391 23.0704 20.3C23.2122 20.5294 23.2315 20.814 23.122 21.0604L22.6618 22.0952L23.6919 23.1253L24.7272 22.6667C24.9723 22.5582 25.2551 22.577 25.4837 22.7171C26.1471 23.1235 26.8688 23.4252 27.6281 23.6051C27.89 23.6671 28.1046 23.8546 28.2013 24.1058L28.6074 25.1611H30.0644L30.4706 24.1058C30.5671 23.8547 30.7814 23.6674 31.0432 23.6052C31.7991 23.4255 32.5224 23.1271 33.1827 22.7188C33.4117 22.5772 33.6958 22.5577 33.942 22.6667L34.9773 23.1253L36.008 22.0946L35.5494 21.0594C35.4409 20.8143 35.4596 20.5314 35.5997 20.3028C36.0062 19.6393 36.3079 18.9175 36.4879 18.1606C36.5501 17.8987 36.7374 17.6845 36.9884 17.5878L38.0437 17.1817V15.7247L36.9884 15.3186C36.7372 15.2219 36.5498 15.0074 36.4877 14.7454C36.308 13.9869 36.0093 13.2656 35.6008 12.6028C35.4598 12.374 35.4405 12.0903 35.5494 11.8445L36.008 10.8093L34.978 9.77917L33.943 10.2392C33.6971 10.3486 33.413 10.3296 33.1837 10.1883C32.5208 9.77988 31.7995 9.48104 31.0432 9.30128C30.7812 9.23909 30.5669 9.05158 30.4704 8.80025ZM29.3346 11.1412C32.2689 11.1412 34.648 13.5177 34.648 16.4519C34.648 19.3861 32.2687 21.7653 29.3346 21.7653C26.4003 21.7653 24.0239 19.3862 24.0239 16.4519C24.0239 13.5176 26.4002 11.1412 29.3346 11.1412ZM29.3346 12.7725C27.3016 12.7725 25.6553 14.4189 25.6553 16.4519C25.6553 18.4851 27.3014 20.1339 29.3346 20.1339C31.3679 20.1339 33.0166 18.4852 33.0166 16.4519C33.0166 14.4188 31.3677 12.7725 29.3346 12.7725Z" fill="black"/>
</svg>
