<svg width="32" height="32" viewBox="0 0 32 32" fill="none" xmlns="http://www.w3.org/2000/svg">
<path d="M17.3327 29.3337H6.66602C3.99935 29.3337 2.66602 28.0003 2.66602 25.3337V14.667C2.66602 12.0003 3.99935 10.667 6.66602 10.667H13.3327V25.3337C13.3327 28.0003 14.666 29.3337 17.3327 29.3337Z" stroke="#292D32" stroke-width="1.5" stroke-miterlimit="10" stroke-linecap="round" stroke-linejoin="round"/>
<path d="M13.4793 5.33301C13.3727 5.73301 13.3327 6.17301 13.3327 6.66634V10.6663H6.66602V7.99967C6.66602 6.53301 7.86602 5.33301 9.33268 5.33301H13.4793Z" stroke="#292D32" stroke-width="1.5" stroke-miterlimit="10" stroke-linecap="round" stroke-linejoin="round"/>
<path d="M18.666 10.667V17.3337" stroke="#292D32" stroke-width="1.5" stroke-miterlimit="10" stroke-linecap="round" stroke-linejoin="round"/>
<path d="M24 10.667V17.3337" stroke="#292D32" stroke-width="1.5" stroke-miterlimit="10" stroke-linecap="round" stroke-linejoin="round"/>
<path d="M22.666 22.667H19.9993C19.266 22.667 18.666 23.267 18.666 24.0003V29.3337H23.9993V24.0003C23.9993 23.267 23.3993 22.667 22.666 22.667Z" stroke="#292D32" stroke-width="1.5" stroke-miterlimit="10" stroke-linecap="round" stroke-linejoin="round"/>
<path d="M8 17.333V22.6663" stroke="#292D32" stroke-width="1.5" stroke-miterlimit="10" stroke-linecap="round" stroke-linejoin="round"/>
<path d="M13.334 25.3337V6.66699C13.334 4.00033 14.6673 2.66699 17.334 2.66699H25.334C28.0007 2.66699 29.334 4.00033 29.334 6.66699V25.3337C29.334 28.0003 28.0007 29.3337 25.334 29.3337H17.334C14.6673 29.3337 13.334 28.0003 13.334 25.3337Z" stroke="#292D32" stroke-width="1.5" stroke-miterlimit="10" stroke-linecap="round" stroke-linejoin="round"/>
</svg>
