<svg width="32" height="32" viewBox="0 0 32 32" fill="none" xmlns="http://www.w3.org/2000/svg">
<g clip-path="url(#clip0_872_1644)">
<path d="M31.932 12.8043C31.932 10.6216 30.1747 8.84295 28 8.80562V0.666953C28 0.317619 27.7307 0.0282859 27.3827 0.00161926C27.0387 -0.0223807 26.7267 0.222953 26.6733 0.568286C26.0307 4.86962 20.3453 5.33362 17.9307 5.33362H7.332C3.28933 5.33362 0 8.62295 0 12.667C0 14.8683 0.984 16.8456 2.53867 18.191L6.868 29.8083C7.17333 30.6443 7.78533 31.3123 8.592 31.6883C9.04 31.8963 9.51733 32.0016 9.99733 32.0016C10.3827 32.0016 10.7693 31.9336 11.1413 31.7976C12.868 31.1683 13.76 29.251 13.132 27.5256L10.404 20.0003H18.0013C20.944 20.0003 25.984 20.6203 26.6773 24.7763C26.732 25.1003 27.0107 25.3336 27.3347 25.3336C27.3533 25.3336 27.372 25.3336 27.3907 25.3323C27.736 25.3043 28.0027 25.015 28.0027 24.667V16.8016C30.1773 16.7643 31.9347 14.9856 31.9347 12.803L31.932 12.8043ZM1.33333 12.667C1.33333 9.35895 4.02533 6.66695 7.33333 6.66695H10.6667V18.667H7.40133C4.05467 18.667 1.33333 15.975 1.33333 12.667ZM11.8787 27.9816C12.0613 28.483 12.0387 29.027 11.8133 29.5096C11.588 29.9936 11.1867 30.3616 10.6853 30.5443C9.64667 30.923 8.49867 30.3856 8.12 29.3456L4.40267 19.3696C5.32 19.7736 6.33467 20.0003 7.40267 20.0003H8.98533L11.8787 27.9816ZM26.6667 21.6656C25.028 19.731 22.0293 18.667 18 18.667H12V6.66695H17.932C22.008 6.66695 25.0267 5.61629 26.6667 3.70295V21.6656ZM28 15.4683V10.139C29.4387 10.175 30.5987 11.3563 30.5987 12.8043C30.5987 14.2523 29.44 15.4323 28 15.4696V15.4683Z" fill="white"/>
</g>
<defs>
<clipPath id="clip0_872_1644">
<rect width="32" height="32" fill="white"/>
</clipPath>
</defs>
</svg>
