<svg width="33" height="32" viewBox="0 0 33 32" fill="none" xmlns="http://www.w3.org/2000/svg">
<g clip-path="url(#clip0_989_13179)">
<path fill-rule="evenodd" clip-rule="evenodd" d="M18.9623 21.6862C22.5251 22.6774 25.2135 25.7651 25.6165 29.5361C25.6316 29.6776 25.5858 29.819 25.4907 29.9249C25.3955 30.0308 25.2598 30.0914 25.1173 30.0914H7.87924C7.73675 30.0914 7.60103 30.0308 7.50578 29.9249C7.4106 29.8189 7.36492 29.6775 7.3801 29.5358C7.78512 25.7647 10.4741 22.6771 14.0357 21.6861C12.5893 20.8363 11.6151 19.263 11.6151 17.47C11.6151 14.7798 13.8081 12.5845 16.4983 12.5845C19.191 12.5845 21.3837 14.7799 21.3837 17.47C21.3837 19.2631 20.4095 20.8364 18.9623 21.6862ZM16.4983 22.3555C12.4783 22.3555 9.13665 25.2613 8.45731 29.0875H24.5395C23.8622 25.2612 20.5203 22.3555 16.4983 22.3555ZM16.4983 21.3516C18.6376 21.3516 20.3798 19.6073 20.3798 17.47C20.3798 15.3327 18.6376 13.5884 16.4983 13.5884C14.3611 13.5884 12.6191 15.3327 12.6191 17.47C12.6191 19.6072 14.3611 21.3516 16.4983 21.3516ZM7.76479 18.5235C7.76479 18.8005 7.53985 19.0254 7.26283 19.0254C6.98581 19.0254 6.76087 18.8005 6.76087 18.5235C6.76087 13.1493 11.124 8.78604 16.4983 8.78604C21.8725 8.78604 26.2357 13.1493 26.2357 18.5235C26.2357 18.8005 26.0108 19.0254 25.7337 19.0254C25.4567 19.0254 25.2318 18.8005 25.2318 18.5235C25.2318 13.7033 21.3184 9.78996 16.4983 9.78996C11.6781 9.78996 7.76479 13.7033 7.76479 18.5235ZM15.9963 5.02956V2.41114C15.9963 2.13412 16.2213 1.90918 16.4983 1.90918C16.7753 1.90918 17.0002 2.13412 17.0002 2.41114V5.02956L17.1413 4.90582C17.3495 4.72311 17.6669 4.74381 17.8496 4.952C18.0324 5.16025 18.0117 5.47768 17.8034 5.6604L16.8294 6.51517C16.64 6.68145 16.3566 6.68145 16.1672 6.51517L15.1931 5.6604C14.9849 5.47768 14.9642 5.16025 15.1469 4.952C15.3297 4.74381 15.6471 4.72311 15.8553 4.90582L15.9963 5.02956ZM8.05656 8.31834L8.06873 8.13111C8.0868 7.85465 8.32586 7.64483 8.60232 7.6629C8.87877 7.68091 9.08859 7.92003 9.07052 8.19649L8.98619 9.48967C8.96981 9.74115 8.76947 9.94149 8.51799 9.95787L7.22475 10.0423C6.94829 10.0603 6.70923 9.85045 6.69116 9.57399C6.67316 9.29754 6.88298 9.05848 7.15943 9.04047L7.34666 9.02824L5.49518 7.17676C5.29923 6.98087 5.29923 6.66275 5.49518 6.46686C5.69107 6.27097 6.00912 6.27097 6.20501 6.46686L8.05656 8.31834ZM4.05788 16.968L3.93414 16.827C3.75137 16.6188 3.77207 16.3013 3.98032 16.1186C4.18857 15.9359 4.50594 15.9566 4.68872 16.1648L5.54349 17.1389C5.7097 17.3283 5.7097 17.6116 5.54349 17.8011L4.68872 18.7752C4.50594 18.9834 4.18857 19.0041 3.98032 18.8214C3.77207 18.6387 3.75137 18.3212 3.93414 18.113L4.05788 17.9719H1.43946C1.16244 17.9719 0.9375 17.747 0.9375 17.47C0.9375 17.1929 1.16244 16.968 1.43946 16.968H4.05788ZM24.94 8.31834L26.7916 6.46686C26.9874 6.27097 27.3055 6.27097 27.5014 6.46686C27.6973 6.66275 27.6973 6.98087 27.5014 7.17676L25.6499 9.02824L25.8371 9.04047C26.1136 9.05848 26.3234 9.29754 26.3054 9.57399C26.2873 9.85045 26.0483 10.0603 25.7718 10.0423L24.4786 9.95787C24.2271 9.94149 24.0268 9.74115 24.0104 9.48967L23.9261 8.19649C23.908 7.92003 24.1178 7.68091 24.3943 7.6629C24.6707 7.64483 24.9098 7.85465 24.9278 8.13111L24.94 8.31834ZM28.9387 16.968H31.5571C31.8341 16.968 32.0591 17.1929 32.0591 17.47C32.0591 17.747 31.8341 17.9719 31.5571 17.9719H28.9387L29.0624 18.113C29.2452 18.3212 29.2245 18.6387 29.0162 18.8214C28.808 19.0041 28.4906 18.9834 28.3079 18.7752L27.4531 17.8011C27.2869 17.6116 27.2869 17.3283 27.4531 17.1389L28.3079 16.1648C28.4906 15.9566 28.808 15.9359 29.0162 16.1186C29.2245 16.3013 29.2452 16.6188 29.0624 16.827L28.9387 16.968Z" fill="black"/>
</g>
<defs>
<clipPath id="clip0_989_13179">
<rect width="32" height="32" fill="white" transform="translate(0.5)"/>
</clipPath>
</defs>
</svg>
