<svg width="52" height="52" viewBox="0 0 52 52" fill="none" xmlns="http://www.w3.org/2000/svg">
<path d="M45.3474 38.1661C44.5884 38.1682 43.8518 38.4242 43.2551 38.8934C42.6584 39.3626 42.2359 40.018 42.0549 40.7552H36.5147C36.0092 40.7546 35.5245 40.5536 35.1671 40.1961C34.8096 39.8387 34.6086 39.354 34.608 38.8485V31.0465H39.4069C51.7891 30.5395 51.8044 12.8809 39.4167 12.3539C39.2728 6.80633 32.6597 3.39932 28.0687 6.58304C26.902 4.92606 25.2276 3.69394 23.2985 3.07294C21.3695 2.45193 19.2907 2.47581 17.3765 3.14095C15.4622 3.8061 13.8165 5.07635 12.6881 6.75969C11.5598 8.44304 11.0101 10.448 11.1222 12.4714C8.80033 12.8419 6.70343 14.074 5.24965 15.9219C3.79586 17.7699 3.09202 20.0979 3.27848 22.4417C3.46494 24.7855 4.528 26.973 6.25567 28.5678C7.98334 30.1627 10.2487 31.0477 12.5999 31.0465H17.39V38.8485C17.3894 39.354 17.1883 39.8387 16.8309 40.1961C16.4734 40.5536 15.9888 40.7546 15.4833 40.7552H9.94317C9.74463 39.9479 9.25736 39.2413 8.57339 38.7688C7.88942 38.2963 7.0561 38.0906 6.23082 38.1906C5.40555 38.2906 4.64545 38.6893 4.0941 39.3115C3.54275 39.9337 3.23831 40.7362 3.23828 41.5675C3.23826 42.3988 3.54265 43.2014 4.09396 43.8235C4.64528 44.4457 5.40535 44.8445 6.23062 44.9445C7.05589 45.0446 7.88922 44.8389 8.57322 44.3665C9.25722 43.894 9.74453 43.1874 9.94312 42.3802H15.4833C16.4196 42.3791 17.3173 42.0066 17.9793 41.3445C18.6414 40.6825 19.0139 39.7848 19.015 38.8485V31.0465H24.9628V41.3363C24.157 41.5348 23.4517 42.0215 22.9802 42.7044C22.5087 43.3874 22.3036 44.2193 22.4035 45.0432C22.5035 45.867 22.9017 46.6258 23.5228 47.1761C24.144 47.7265 24.9452 48.0304 25.7751 48.0304C26.605 48.0304 27.4061 47.7266 28.0273 47.1763C28.6485 46.6259 29.0467 45.8672 29.1467 45.0434C29.2467 44.2195 29.0416 43.3875 28.5702 42.7046C28.0987 42.0216 27.3935 41.5349 26.5877 41.3363L26.5878 31.0465H32.983V38.8485C32.9841 39.7848 33.3566 40.6825 34.0187 41.3445C34.6807 42.0066 35.5784 42.3791 36.5147 42.3802H42.0549C42.2073 43 42.5312 43.5645 42.9893 44.009C43.4474 44.4535 44.0213 44.7601 44.6455 44.8938C45.2696 45.0275 45.9188 44.9829 46.5188 44.7651C47.1188 44.5472 47.6454 44.165 48.0384 43.662C48.4314 43.159 48.675 42.5556 48.7412 41.9207C48.8074 41.2858 48.6937 40.6451 48.413 40.0718C48.1323 39.4986 47.696 39.0158 47.1538 38.6788C46.6117 38.3418 45.9857 38.1642 45.3474 38.1661ZM6.6505 43.3442C6.18305 43.3385 5.73668 43.1489 5.40813 42.8163C5.07959 42.4838 4.89535 42.0351 4.89536 41.5676C4.89536 41.1002 5.07962 40.6515 5.40817 40.319C5.73673 39.9864 6.18311 39.7968 6.65055 39.7911C7.1183 39.7963 7.56513 39.9858 7.89406 40.3184C8.22298 40.651 8.40746 41.0999 8.40746 41.5677C8.40746 42.0355 8.22297 42.4844 7.89404 42.817C7.56511 43.1496 7.11825 43.339 6.6505 43.3442ZM27.551 44.6288C27.5457 45.0964 27.3563 45.5431 27.0238 45.872C26.6913 46.2008 26.2425 46.3853 25.7748 46.3853C25.3071 46.3853 24.8583 46.2008 24.5258 45.872C24.1933 45.5431 24.0038 45.0964 23.9986 44.6287C24.0035 44.1608 24.1927 43.7137 24.5253 43.3845C24.8579 43.0554 25.3069 42.8707 25.7749 42.8707C26.2428 42.8708 26.6919 43.0554 27.0244 43.3846C27.357 43.7138 27.5462 44.1609 27.551 44.6288ZM4.87398 21.7043C4.87993 19.8739 5.53285 18.1046 6.71732 16.7092C7.90178 15.3137 9.54149 14.382 11.3466 14.0787C11.755 15.8284 12.6571 17.4242 13.9455 18.6765C14.1011 18.8219 14.3075 18.9004 14.5204 18.8953C14.7332 18.8901 14.9356 18.8015 15.0838 18.6487C15.2321 18.4958 15.3144 18.2909 15.3132 18.078C15.3119 17.865 15.2271 17.6611 15.077 17.51C13.8497 16.3185 13.0515 14.7541 12.8069 13.0612C11.7034 4.66211 22.8874 0.829243 27.1567 8.14504C27.2602 8.3138 27.4206 8.44002 27.6089 8.50096C27.7973 8.5619 28.0012 8.55355 28.1839 8.4774C29.0427 7.70184 30.1152 7.20288 31.2616 7.04552C32.4081 6.88816 33.5753 7.07969 34.6114 7.59518C35.6474 8.11066 36.5042 8.92619 37.0701 9.93555C37.636 10.9449 37.8848 12.1013 37.7842 13.2541C37.8065 13.4611 37.9046 13.6526 38.0595 13.7918C38.2144 13.931 38.4153 14.008 38.6235 14.0081C39.6651 13.9032 40.7172 14.0111 41.7158 14.3252C42.7145 14.6392 43.6389 15.153 44.4329 15.8352C45.2269 16.5175 45.874 17.354 46.3349 18.2939C46.7958 19.2339 47.0609 20.2577 47.114 21.3032C47.1671 22.3488 47.0072 23.3942 46.644 24.376C46.2808 25.3578 45.7218 26.2556 45.001 27.0148C44.2802 27.7741 43.4127 28.3789 42.451 28.7926C41.4894 29.2063 40.4537 29.4202 39.4068 29.4214H12.5999C10.5527 29.4203 8.58959 28.6071 7.1412 27.1604C5.69282 25.7137 4.87745 23.7515 4.87398 21.7043ZM45.3474 43.3442C44.88 43.3386 44.4336 43.1489 44.1051 42.8164C43.7765 42.4838 43.5923 42.0352 43.5923 41.5677C43.5923 41.1002 43.7765 40.6516 44.1051 40.319C44.4337 39.9865 44.88 39.7968 45.3475 39.7912C45.8149 39.7968 46.2613 39.9865 46.5898 40.3191C46.9184 40.6516 47.1026 41.1003 47.1026 41.5677C47.1026 42.0352 46.9184 42.4839 46.5898 42.8164C46.2613 43.1489 45.8149 43.3386 45.3474 43.3442Z" fill="black"/>
</svg>
