<svg width="32" height="32" viewBox="0 0 32 32" fill="none" xmlns="http://www.w3.org/2000/svg">
<path d="M9.78533 19.5983C9.49867 19.8863 9.332 20.2917 9.33333 20.721C9.33333 21.149 9.504 21.553 9.80933 21.8557L13.1133 24.8383C13.3867 25.0863 13.408 25.5063 13.1613 25.7797C12.9147 26.0543 12.492 26.073 12.22 25.8277L8.89467 22.8237C8.312 22.249 8.00267 21.5117 8 20.725C7.99733 19.9383 8.30267 19.197 8.86 18.641L12.2133 15.513C12.4813 15.2623 12.9053 15.277 13.1547 15.545C13.4053 15.8143 13.392 16.237 13.1227 16.4863L9.78533 19.5983ZM32 7.33301V24.6663C32 27.9743 29.308 30.6663 26 30.6663H6C2.692 30.6663 0 27.9743 0 24.6663V7.33301C0 4.02501 2.692 1.33301 6 1.33301H26C29.308 1.33301 32 4.02501 32 7.33301ZM1.33333 7.33301V10.6663H30.6667V7.33301C30.6667 4.75967 28.5733 2.66634 26 2.66634H6C3.42667 2.66634 1.33333 4.75967 1.33333 7.33301ZM30.6667 24.6663V11.9997H1.33333V24.6663C1.33333 27.2397 3.42667 29.333 6 29.333H26C28.5733 29.333 30.6667 27.2397 30.6667 24.6663ZM5.33333 7.99967C6.06933 7.99967 6.66667 7.40234 6.66667 6.66634C6.66667 5.93034 6.06933 5.33301 5.33333 5.33301C4.59733 5.33301 4 5.93034 4 6.66634C4 7.40234 4.59733 7.99967 5.33333 7.99967ZM9.33333 7.99967C10.0693 7.99967 10.6667 7.40234 10.6667 6.66634C10.6667 5.93034 10.0693 5.33301 9.33333 5.33301C8.59733 5.33301 8 5.93034 8 6.66634C8 7.40234 8.59733 7.99967 9.33333 7.99967ZM13.3333 7.99967C14.0693 7.99967 14.6667 7.40234 14.6667 6.66634C14.6667 5.93034 14.0693 5.33301 13.3333 5.33301C12.5973 5.33301 12 5.93034 12 6.66634C12 7.40234 12.5973 7.99967 13.3333 7.99967ZM19.788 15.513C19.5213 15.2623 19.096 15.277 18.8467 15.545C18.596 15.8143 18.6093 16.237 18.8787 16.4863L22.1973 19.5823C22.5013 19.8863 22.668 20.2903 22.6667 20.721C22.6667 21.149 22.496 21.553 22.212 21.8343L18.8867 24.8383C18.6133 25.0863 18.592 25.5063 18.8387 25.7797C19.0853 26.0543 19.5067 26.073 19.78 25.8277L23.128 22.8023C23.688 22.249 23.9973 21.5103 24 20.7237C24.0027 19.937 23.6973 19.1957 23.124 18.6237L19.788 15.5117V15.513Z" fill="black"/>
</svg>
