<svg width="52" height="52" viewBox="0 0 52 52" fill="none" xmlns="http://www.w3.org/2000/svg">
<g clip-path="url(#clip0_1040_13822)">
<path fill-rule="evenodd" clip-rule="evenodd" d="M17.8132 31.809H28.8274C29.2805 31.809 29.6484 31.4412 29.6484 30.988C29.6484 30.5348 29.2805 30.167 28.8274 30.167H17.8132C17.36 30.167 16.9922 30.5348 16.9922 30.988C16.9922 31.4412 17.3599 31.809 17.8132 31.809Z" fill="black"/>
<path fill-rule="evenodd" clip-rule="evenodd" d="M24.7461 30.988V50.7551C24.7461 51.2084 25.1139 51.5761 25.5671 51.5761C26.0198 51.5761 26.3881 51.2083 26.3881 50.7551V30.988C26.3881 30.5347 26.0198 30.167 25.5671 30.167C25.1139 30.167 24.7461 30.5348 24.7461 30.988Z" fill="black"/>
<path fill-rule="evenodd" clip-rule="evenodd" d="M7.16169 0.423828C3.96618 0.423828 1.37109 3.01891 1.37109 6.21494C1.37109 9.41097 3.96618 12.0055 7.16169 12.0055C10.3578 12.0055 12.9529 9.41106 12.9529 6.21494C12.9529 3.01883 10.3578 0.423828 7.16169 0.423828ZM7.16169 2.06593C9.45188 2.06593 11.3108 3.92484 11.3108 6.21494C11.3108 8.50462 9.45188 10.3634 7.16169 10.3634C4.87202 10.3634 3.0132 8.50462 3.0132 6.21494C3.0132 3.92475 4.87211 2.06593 7.16169 2.06593Z" fill="black"/>
<path fill-rule="evenodd" clip-rule="evenodd" d="M44.8381 0.423828C41.642 0.423828 39.0469 3.01891 39.0469 6.21494C39.0469 9.41097 41.642 12.0055 44.8381 12.0055C48.0336 12.0055 50.6287 9.41106 50.6287 6.21494C50.6287 3.01883 48.0336 0.423828 44.8381 0.423828ZM44.8381 2.06593C47.1277 2.06593 48.9866 3.92484 48.9866 6.21494C48.9866 8.50462 47.1277 10.3634 44.8381 10.3634C42.5479 10.3634 40.689 8.50462 40.689 6.21494C40.689 3.92475 42.5479 2.06593 44.8381 2.06593Z" fill="black"/>
<path fill-rule="evenodd" clip-rule="evenodd" d="M11.6869 23.7871C11.8226 24.0608 12.104 24.243 12.422 24.243L12.7269 24.1839L20.2871 21.1619C21.4508 20.6972 22.7728 21.2637 23.238 22.4274C23.7027 23.5906 23.1357 24.9125 21.9725 25.3777L11.988 29.3686C11.0339 29.75 9.95343 29.4414 9.34201 28.64C9.12856 28.3603 8.76013 28.2475 8.4263 28.3603C8.09298 28.473 7.86854 28.7862 7.86854 29.1381V33.2614C7.86854 33.6786 8.18108 34.0289 8.59493 34.077L15.2405 34.8445C16.811 35.0256 17.9965 36.3557 17.9965 37.9371V50.7554C17.9965 51.2087 18.3644 51.5764 18.8175 51.5764C19.2708 51.5764 19.6385 51.2086 19.6385 50.7554V37.9371C19.6385 35.5216 17.8279 33.4903 15.4287 33.2134L9.51056 32.5297V30.8153C10.4575 31.2505 11.5698 31.3041 12.5972 30.8936L22.5823 26.9028C24.5868 26.1009 25.5639 23.8227 24.7625 21.8177C23.9612 19.8127 21.683 18.8356 19.678 19.637L12.7615 22.4017L8.78812 15.8985C8.2271 14.98 7.31241 14.3336 6.25983 14.1108C6.22755 14.1042 6.19527 14.0971 6.16238 14.0905C5.0594 13.8573 3.90937 14.1113 3.00731 14.7873C2.10524 15.4639 1.53873 16.4962 1.4533 17.6204C0.970495 23.9732 0.0022324 36.705 0.0022324 36.705C0.00051517 36.7258 0 36.7466 0 36.7674C0 39.1802 1.80687 41.2098 4.20267 41.4901L10.1279 42.2553V50.7553C10.1279 51.2086 10.4957 51.5763 10.9489 51.5763C11.4021 51.5763 11.7699 51.2085 11.7699 50.7553V41.5334C11.7699 41.1201 11.4634 40.7719 11.0539 40.7189L4.39792 39.8601C2.8385 39.68 1.65885 38.3674 1.64193 36.8008C1.64193 36.7965 3.09025 17.7448 3.09025 17.7448C3.14005 17.0928 3.46847 16.4935 3.9918 16.1015C4.51564 15.7091 5.18236 15.5618 5.82271 15.6971L5.91956 15.7173C6.53047 15.8465 7.06084 16.222 7.38651 16.7546C8.6285 18.7876 11.1458 22.9081 11.6368 23.7122C11.6535 23.7384 11.6699 23.7636 11.6869 23.7871Z" fill="black"/>
<path fill-rule="evenodd" clip-rule="evenodd" d="M5.1673 24.9813L7.80566 29.3006C8.8002 30.9285 10.8244 31.6017 12.5962 30.8934C13.0171 30.7254 13.2224 30.247 13.0539 29.8266C12.8858 29.4057 12.4074 29.2004 11.987 29.3684C10.9591 29.7795 9.78443 29.3892 9.20693 28.4445L6.56865 24.1252C6.33219 23.7387 5.82638 23.6167 5.44 23.8526C5.05345 24.0891 4.93084 24.5949 5.1673 24.9813Z" fill="black"/>
<path fill-rule="evenodd" clip-rule="evenodd" d="M38.4788 23.6464L30.5288 24.7706C28.3907 25.0728 26.9008 27.0542 27.203 29.1922C27.5051 31.3297 29.4866 32.8202 31.6246 32.518L41.4023 31.1348C41.7827 31.0811 42.1483 30.9728 42.4894 30.8156V32.5299L36.5712 33.2136C34.172 33.4906 32.3614 35.5218 32.3614 37.9373V50.7556C32.3614 51.2089 32.7292 51.5767 33.1824 51.5767C33.6356 51.5767 34.0034 51.2088 34.0034 50.7556V37.9373C34.0034 36.356 35.189 35.0259 36.7594 34.8447L43.4028 34.0773H43.4011C43.8122 34.0324 44.1313 33.6843 44.1313 33.2617V29.1378C44.1313 28.7859 43.9069 28.4733 43.5736 28.3606C43.2402 28.2473 42.8718 28.3601 42.6578 28.6397C42.2982 29.1105 41.7656 29.4252 41.1723 29.509L31.3946 30.8916C30.1537 31.0673 29.0042 30.2025 28.829 28.9616C28.6534 27.7213 29.5182 26.5718 30.7585 26.3961L39.09 25.2181L38.9773 25.2258L39.6779 24.8328L44.1203 17.561C44.6885 16.6315 45.729 16.0979 46.8156 16.18C46.831 16.1811 46.8457 16.1821 46.861 16.1833C48.3247 16.2938 49.4758 17.4794 49.5426 18.9453L50.3576 36.7851C50.3488 38.3582 49.1665 39.6791 47.6016 39.8602L41.0841 40.6129C40.6741 40.6599 40.3632 41.0042 40.3577 41.417L40.2296 50.7441C40.2236 51.1974 40.5864 51.5701 41.0392 51.5767C41.4924 51.5827 41.8652 51.2198 41.8717 50.7665L41.9894 42.1608L47.7899 41.4913C50.189 41.2143 51.9997 39.1825 51.9997 36.7676C51.9997 36.7549 51.9992 36.7424 51.9986 36.7298C51.9986 36.7298 51.4545 24.8169 51.183 18.8703C51.0779 16.5746 49.276 14.7185 46.9847 14.546C46.9693 14.5449 46.954 14.5433 46.9392 14.5422C45.2381 14.4141 43.6085 15.2493 42.7191 16.7049L38.4788 23.6464Z" fill="black"/>
<path fill-rule="evenodd" clip-rule="evenodd" d="M33.7561 2.88694C33.7561 2.23396 33.4967 1.60717 33.0347 1.14524C32.5727 0.683216 31.9466 0.423828 31.293 0.423828H19.8382C18.4775 0.423828 17.375 1.52681 17.375 2.88694V13.322C17.375 13.8584 17.6881 14.3455 18.1763 14.5677C18.6646 14.79 19.2377 14.7062 19.6422 14.3537C20.432 13.6657 21.5449 12.6957 22.165 12.1549C22.315 12.0247 22.5065 11.953 22.7047 11.953H31.2929C31.9465 11.953 32.5727 11.6935 33.0346 11.2316C33.4966 10.7696 33.756 10.1429 33.756 9.48988V2.88694H33.7561ZM19.0171 12.7204V2.88694C19.0171 2.43376 19.3844 2.06593 19.8381 2.06593H31.2929C31.5108 2.06593 31.7198 2.1524 31.8737 2.30678C32.0275 2.46055 32.114 2.66911 32.114 2.88694V9.48988C32.114 9.70771 32.0276 9.91627 31.8737 10.07C31.7199 10.2244 31.5108 10.3109 31.2929 10.3109H22.7048C22.1098 10.3109 21.5351 10.526 21.0862 10.9168L19.0171 12.7204Z" fill="black"/>
<path fill-rule="evenodd" clip-rule="evenodd" d="M21.9069 5.51018H29.3468C29.8 5.51018 30.1678 5.14235 30.1678 4.68917C30.1678 4.236 29.8 3.86816 29.3468 3.86816H21.9069C21.4538 3.86816 21.0859 4.236 21.0859 4.68917C21.0859 5.14235 21.4537 5.51018 21.9069 5.51018Z" fill="black"/>
<path fill-rule="evenodd" clip-rule="evenodd" d="M21.9069 8.50432H25.565C26.0177 8.50432 26.386 8.13649 26.386 7.68331C26.386 7.23005 26.0177 6.8623 25.565 6.8623H21.9069C21.4538 6.8623 21.0859 7.23014 21.0859 7.68331C21.0859 8.13649 21.4537 8.50432 21.9069 8.50432Z" fill="black"/>
<path fill-rule="evenodd" clip-rule="evenodd" d="M38.9366 31.4834L41.4036 31.1342C42.5612 30.9706 43.5848 30.2978 44.1946 29.3006L46.8329 24.9813C47.0693 24.5948 46.9467 24.0891 46.5603 23.8526C46.1738 23.6167 45.6681 23.7388 45.4316 24.1252L42.7933 28.4445C42.4398 29.023 41.8452 29.4134 41.1736 29.5086L38.7067 29.8573C38.2578 29.9208 37.9447 30.3368 38.0082 30.7856C38.0717 31.2338 38.4877 31.5469 38.9366 31.4834Z" fill="black"/>
</g>
<defs>
<clipPath id="clip0_1040_13822">
<rect width="52" height="52" fill="white"/>
</clipPath>
</defs>
</svg>
