<svg width="52" height="52" viewBox="0 0 52 52" fill="none" xmlns="http://www.w3.org/2000/svg">
<path fill-rule="evenodd" clip-rule="evenodd" d="M10.6055 2.09251C11.9593 0.738693 14.1542 0.738694 15.508 2.09251L21.3502 7.93463C22.704 9.28849 22.704 11.4834 21.3502 12.8372L17.1985 16.9889C16.1831 18.0043 16.1831 19.6505 17.1985 20.6658L31.334 34.8014C32.3494 35.8168 33.9957 35.8168 35.011 34.8014L39.1626 30.6497C40.5165 29.2959 42.7115 29.2959 44.0653 30.6497L49.9074 36.4919C51.2612 37.8457 51.2612 40.0407 49.9074 41.3945L45.0275 46.2744C39.2737 52.0282 29.945 52.0282 24.1913 46.2744L5.72545 27.8085C-0.0282718 22.0548 -0.0282776 12.7262 5.72544 6.9725L10.6055 2.09251ZM14.2824 3.31816C13.6055 2.64125 12.508 2.64125 11.8311 3.31816L9.97183 5.17739L15.8249 11.0303C16.1633 11.3688 16.1633 11.9175 15.8249 12.256C15.4863 12.5945 14.9377 12.5945 14.5992 12.256L8.74619 6.40304L6.9511 8.19816C1.87428 13.275 1.87429 21.5061 6.9511 26.5829L25.417 45.0488C30.4938 50.1256 38.725 50.1256 43.8017 45.0488L48.6818 40.1689C49.3586 39.4919 49.3586 38.3944 48.6818 37.7175L42.8396 31.8754C42.1627 31.1985 41.0652 31.1985 40.3884 31.8754L38.5291 33.7346L44.9209 40.1264C45.2594 40.4648 45.2594 41.0136 44.9209 41.352C44.5824 41.6905 44.0337 41.6905 43.6952 41.352L37.3035 34.9603L36.2367 36.0271C34.5444 37.7193 31.8007 37.7193 30.1084 36.0271L15.9729 21.8916C14.2806 20.1992 14.2806 17.4555 15.9729 15.7633L20.1245 11.6116C20.8014 10.9347 20.8014 9.83718 20.1245 9.16031L14.2824 3.31816Z" fill="black"/>
<path fill-rule="evenodd" clip-rule="evenodd" d="M32.9344 1.73333C31.0198 1.73333 29.4677 3.28541 29.4677 5.2V13.4815C29.4677 15.3961 31.0198 16.9482 32.9344 16.9482H33.4573C33.936 16.9482 34.324 17.3362 34.324 17.8149V19.991L38.3956 17.1076C38.542 17.0038 38.717 16.9482 38.8964 16.9482H46.801C48.7156 16.9482 50.2677 15.3961 50.2677 13.4815V5.2C50.2677 3.28541 48.7156 1.73333 46.801 1.73333H32.9344ZM27.7344 5.2C27.7344 2.32813 30.0625 0 32.9344 0H46.801C49.6729 0 52.001 2.32812 52.001 5.2V13.4815C52.001 16.3534 49.6729 18.6815 46.801 18.6815H39.1722L33.9583 22.374C33.6938 22.5612 33.347 22.5853 33.0593 22.4364C32.7714 22.2876 32.5907 21.9907 32.5907 21.6667V18.6703C29.879 18.4934 27.7344 16.2379 27.7344 13.4815V5.2Z" fill="black"/>
<path fill-rule="evenodd" clip-rule="evenodd" d="M32.9336 6.93307C32.9336 6.45443 33.3216 6.06641 33.8003 6.06641H45.9336C46.4123 6.06641 46.8003 6.45443 46.8003 6.93307C46.8003 7.41172 46.4123 7.79974 45.9336 7.79974H33.8003C33.3216 7.79974 32.9336 7.41172 32.9336 6.93307ZM32.9336 12.1331C32.9336 11.6544 33.3216 11.2664 33.8003 11.2664H41.0225C41.5011 11.2664 41.8891 11.6544 41.8891 12.1331C41.8891 12.6117 41.5011 12.9997 41.0225 12.9997H33.8003C33.3216 12.9997 32.9336 12.6117 32.9336 12.1331Z" fill="black"/>
</svg>
