<svg width="52" height="52" viewBox="0 0 52 52" fill="none" xmlns="http://www.w3.org/2000/svg">
<g clip-path="url(#clip0_1044_15303)">
<path d="M32.0925 10.1569C31.5324 10.1569 31.0768 9.7013 31.0768 9.14129C31.0768 8.58127 31.5324 8.12566 32.0925 8.12566C32.4522 8.12566 32.8321 8.30919 33.1909 8.65653C33.594 9.04663 34.2368 9.03607 34.6268 8.63287C35.0168 8.22977 35.0063 7.58688 34.6032 7.19688C34.0877 6.6981 33.572 6.41607 33.1079 6.262V5.079C33.1079 4.51807 32.6532 4.06348 32.0923 4.06348C31.5313 4.06348 31.0766 4.51817 31.0766 5.079V6.26921C29.8946 6.68846 29.0455 7.81722 29.0455 9.14129C29.0455 10.8212 30.4122 12.188 32.0922 12.188C32.6522 12.188 33.1078 12.6436 33.1078 13.2036C33.1078 13.7636 32.6522 14.2192 32.0922 14.2192C31.6583 14.2192 31.1899 13.9463 30.7734 13.4509C30.4124 13.0215 29.772 12.966 29.3426 13.3271C28.9131 13.688 28.8578 14.3287 29.2188 14.7579C29.7617 15.4037 30.4 15.8536 31.0766 16.0805V17.2658C31.0766 17.8267 31.5313 18.2813 32.0923 18.2813C32.6532 18.2813 33.1078 17.8266 33.1078 17.2658V16.0756C34.2898 15.6563 35.1389 14.5275 35.1389 13.2035C35.1391 11.5236 33.7724 10.1569 32.0925 10.1569Z" fill="black"/>
<path d="M32.0931 0.000976562C25.9333 0.000976562 20.9219 5.01247 20.9219 11.1722C20.9219 17.332 25.9334 22.3435 32.0931 22.3435C38.253 22.3435 43.2644 17.332 43.2644 11.1722C43.2644 5.01247 38.253 0.000976562 32.0931 0.000976562ZM32.0931 20.3123C27.0533 20.3123 22.953 16.212 22.953 11.1722C22.953 6.13239 27.0533 2.03212 32.0931 2.03212C37.1329 2.03212 41.2332 6.13239 41.2332 11.1722C41.2332 16.212 37.1329 20.3123 32.0931 20.3123Z" fill="black"/>
<path d="M48.1581 22.6211C46.603 22.5608 45.1494 23.422 44.4534 24.8137C43.1863 27.3471 41.9862 28.6503 39.6763 29.8453C38.9976 28.5207 37.6134 27.6251 36.058 27.6251H25.8819C25.2332 27.6251 24.709 27.3489 23.9833 26.9666C22.8226 26.355 21.378 25.594 18.773 25.594C14.1194 25.594 9.59835 30.1604 7.72117 33.3594L7.47895 33.1172C7.08245 32.7208 6.43925 32.7207 6.04265 33.1172L0.297476 38.8623C0.106945 39.0528 -0.00010149 39.3114 7.22032e-08 39.5809C0.000101635 39.8505 0.107453 40.1089 0.298289 40.2994L11.7265 51.7022C12.1223 52.0972 12.7635 52.0981 13.1602 51.703L18.9053 45.9833C19.3032 45.5871 19.304 44.9427 18.9069 44.5455L17.9768 43.6154C18.6724 42.6316 20.4451 41.8431 21.7007 41.8431C21.7012 41.8431 21.7018 41.8431 21.7023 41.8431L35.4111 41.8472C35.4132 41.8472 35.4152 41.8472 35.4173 41.8472C37.1898 41.8472 38.8899 41.3559 40.3343 40.4265C44.0388 38.0443 49.2493 34.1674 51.7158 28.0289C52.7425 25.4733 50.8562 22.7268 48.1581 22.6211ZM12.4448 49.5495L2.45283 39.5797L6.7609 35.2716C9.16224 37.673 11.6978 40.2091 16.7514 45.2621L12.4448 49.5495ZM49.8313 27.2719C47.5811 32.8715 42.7067 36.4862 39.2355 38.7183C38.1196 39.4365 36.7994 39.8159 35.4172 39.8159C35.4156 39.8159 35.414 39.8159 35.4123 39.8159L21.7035 39.8119C21.7025 39.8119 21.7016 39.8119 21.7006 39.8119C19.9267 39.8119 17.7296 40.7326 16.5328 42.1711L9.21678 34.8551C10.0225 33.1989 14.2338 27.6251 18.773 27.6251C20.8757 27.6251 21.9742 28.2039 23.0367 28.7635C23.8697 29.2024 24.7309 29.6563 25.882 29.6563H36.0581C37.0658 29.6563 37.93 30.4063 38.0694 31.4077C38.2436 32.5976 37.3092 33.7185 36.0581 33.7185H25.8819C25.321 33.7185 24.8663 34.1732 24.8663 34.7341C24.8663 35.295 25.321 35.7497 25.8819 35.7497H36.058C38.2278 35.7497 40.0058 34.0396 40.115 31.8963C43.1256 30.4377 44.7252 28.8109 46.2701 25.7221C46.6101 25.042 47.3198 24.6217 48.0792 24.6508C49.4156 24.7031 50.32 26.0554 49.8313 27.2719Z" fill="black"/>
<path d="M12.5064 43.8884L11.0694 42.4524C10.6727 42.056 10.0297 42.0563 9.63313 42.4529C9.23664 42.8497 9.23694 43.4926 9.63364 43.8892L11.0706 45.3252C11.4672 45.7216 12.1101 45.7215 12.5069 45.3247C12.9034 44.9279 12.9031 44.2849 12.5064 43.8884Z" fill="black"/>
</g>
<defs>
<clipPath id="clip0_1044_15303">
<rect width="52" height="52" fill="white"/>
</clipPath>
</defs>
</svg>
