<svg width="32" height="32" viewBox="0 0 32 32" fill="none" xmlns="http://www.w3.org/2000/svg">
<path d="M29 2.25H3C1.4834 2.25 0.25 3.4834 0.25 5V21C0.25 22.5166 1.4834 23.75 3 23.75H13.25V28.25H9C8.58594 28.25 8.25 28.5859 8.25 29C8.25 29.4141 8.58594 29.75 9 29.75H23C23.4141 29.75 23.75 29.4141 23.75 29C23.75 28.5859 23.4141 28.25 23 28.25H18.75V23.75H29C30.5166 23.75 31.75 22.5166 31.75 21V5C31.75 3.4834 30.5166 2.25 29 2.25ZM17.25 28.25H14.75V23.75H17.25V28.25ZM30.25 21C30.25 21.6895 29.6895 22.25 29 22.25H3C2.31055 22.25 1.75 21.6895 1.75 21V5C1.75 4.31055 2.31055 3.75 3 3.75H29C29.6895 3.75 30.25 4.31055 30.25 5V21Z" fill="black"/>
<path d="M17.75 11.5C17.75 10.2598 16.7402 9.25 15.5 9.25H13C12.5859 9.25 12.25 9.58594 12.25 10V16C12.25 16.4141 12.5859 16.75 13 16.75C13.4141 16.75 13.75 16.4141 13.75 16V13.75H15.0366L16.3291 16.335C16.4609 16.5986 16.7256 16.75 17.001 16.75C17.1133 16.75 17.2275 16.7246 17.335 16.6709C17.7061 16.4854 17.8564 16.0352 17.6709 15.665L16.5618 13.4467C17.2584 13.0637 17.75 12.3491 17.75 11.5ZM15.5 12.25H13.75V10.75H15.5C15.9131 10.75 16.25 11.0869 16.25 11.5C16.25 11.9131 15.9131 12.25 15.5 12.25Z" fill="black"/>
<path d="M8 10.75H10C10.4141 10.75 10.75 10.4141 10.75 10C10.75 9.58594 10.4141 9.25 10 9.25H8C6.4834 9.25 5.25 10.4834 5.25 12V14C5.25 15.5166 6.4834 16.75 8 16.75H10C10.4141 16.75 10.75 16.4141 10.75 16C10.75 15.5859 10.4141 15.25 10 15.25H8C7.31055 15.25 6.75 14.6895 6.75 14V12C6.75 11.3105 7.31055 10.75 8 10.75Z" fill="black"/>
<path d="M26.2871 9.3069C26.0078 9.19069 25.6846 9.25612 25.4697 9.46999L23 11.9397L20.5303 9.46999C20.3154 9.25612 19.9941 9.19069 19.7129 9.3069C19.4326 9.42311 19.25 9.69655 19.25 10.0003V16.0003C19.25 16.4143 19.5859 16.7503 20 16.7503C20.4141 16.7503 20.75 16.4143 20.75 16.0003V11.8108L22.4697 13.5305C22.7627 13.8235 23.2373 13.8235 23.5303 13.5305L25.25 11.8108V16.0003C25.25 16.4143 25.5859 16.7503 26 16.7503C26.4141 16.7503 26.75 16.4143 26.75 16.0003V10.0003C26.75 9.69655 26.5674 9.42311 26.2871 9.3069Z" fill="black"/>
</svg>
