<svg width="80" height="80" viewBox="0 0 80 80" fill="none" xmlns="http://www.w3.org/2000/svg">
<path d="M60 26.6667V20C60 18.2319 59.2976 16.5362 58.0474 15.286C56.7971 14.0358 55.1014 13.3334 53.3333 13.3334H13.3333C11.5652 13.3334 9.86953 14.0358 8.61929 15.286C7.36905 16.5362 6.66667 18.2319 6.66667 20V43.3334C6.66667 45.1015 7.36905 46.7972 8.61929 48.0474C9.86953 49.2977 11.5652 50 13.3333 50H40" stroke="black" stroke-width="2" stroke-linecap="round" stroke-linejoin="round"/>
<path d="M33.3333 63.3333V50.1333V60.6333" stroke="black" stroke-width="2" stroke-linecap="round" stroke-linejoin="round"/>
<path d="M23.3333 63.3334H40" stroke="black" stroke-width="2" stroke-linecap="round" stroke-linejoin="round"/>
<path d="M66.6667 40H60C56.3181 40 53.3333 42.9848 53.3333 46.6667V66.6667C53.3333 70.3486 56.3181 73.3333 60 73.3333H66.6667C70.3486 73.3333 73.3333 70.3486 73.3333 66.6667V46.6667C73.3333 42.9848 70.3486 40 66.6667 40Z" stroke="black" stroke-width="2" stroke-linecap="round" stroke-linejoin="round"/>
</svg>
