<svg width="52" height="52" viewBox="0 0 52 52" fill="none" xmlns="http://www.w3.org/2000/svg">
<mask id="mask0_1071_2289" style="mask-type:luminance" maskUnits="userSpaceOnUse" x="0" y="0" width="52" height="52">
<path d="M52 0H0V52H52V0Z" fill="white" style="fill:white;fill-opacity:1;"/>
</mask>
<g mask="url(#mask0_1071_2289)">
<path d="M50.2227 38.8524H49.9619L49.9748 11.6959C49.9756 11.0858 49.7384 10.512 49.307 10.08C48.8753 9.64785 48.3013 9.40975 47.6912 9.40975L44.3711 9.40765C43.9507 9.40765 43.6091 9.74825 43.6089 10.1688C43.6087 10.5896 43.9494 10.9308 44.3701 10.9311L47.6907 10.9333C47.894 10.9333 48.0853 11.0126 48.2291 11.1566C48.3727 11.3003 48.4516 11.4911 48.4514 11.6945L48.4385 38.8522H46.4476V23.5849C46.4476 22.0371 45.1887 20.7776 43.6414 20.7776H38.0511V10.9284L44.8154 10.9302C45.2359 10.9302 45.5773 10.5895 45.5776 10.169C45.5778 9.74815 45.237 9.40705 44.8162 9.40675L38.051 9.40495V4.88995C38.051 3.62375 37.0209 2.59375 35.7548 2.59375H2.2964C1.0302 2.59375 0 3.62395 0 4.89015V30.8577C0 32.0329 0.8875 33.0042 2.0273 33.138L2.0245 38.8527H1.7773C1.3027 38.8527 0.8564 39.0377 0.5222 39.372C0.1855 39.7068 0 40.1536 0 40.6301C0 42.7302 1.7085 44.4387 3.8086 44.4387H6.5802C7.0009 44.4387 7.342 44.0977 7.342 43.6769C7.342 43.2561 7.0009 42.9152 6.5802 42.9152H3.8086C2.5485 42.9152 1.5234 41.8901 1.5234 40.6301C1.5234 40.5385 1.5691 40.4793 1.598 40.4506C1.6257 40.4227 1.686 40.3762 1.7773 40.3762H28.1257V42.9152H6.1349C5.7143 42.9152 5.3732 43.2561 5.3732 43.6769C5.3732 44.0977 5.7143 44.4387 6.1349 44.4387H28.1257V46.599C28.1257 48.1468 29.385 49.4061 30.9329 49.4061H43.6414C45.1887 49.4061 46.4476 48.1469 46.4476 46.599V44.4384H48.1914C50.2915 44.4384 52 42.7298 52 40.6297C52 39.6495 51.2026 38.8524 50.2227 38.8524ZM1.5234 30.8577V4.89015C1.5234 4.46385 1.8703 4.11715 2.2964 4.11715H35.7549C36.181 4.11715 36.5277 4.46375 36.5277 4.88995V20.7776H35.1061V6.30095C35.1061 5.88015 34.765 5.53925 34.3444 5.53925H7.3628C6.9421 5.53925 6.6011 5.88015 6.6011 6.30095C6.6011 6.72175 6.9421 7.06265 7.3628 7.06265H33.5827V20.7776H30.9329C29.385 20.7776 28.1257 22.037 28.1257 23.5849V28.6855H4.4688V7.06275H7.8081C8.2288 7.06275 8.5698 6.72185 8.5698 6.30105C8.5698 5.88025 8.2288 5.53935 7.8081 5.53935H3.707C3.2864 5.53935 2.9453 5.88025 2.9453 6.30105V29.4472C2.9453 29.868 3.2864 30.2089 3.707 30.2089H28.1257V31.6309H2.2964C1.8703 31.6308 1.5234 31.2839 1.5234 30.8577ZM44.9241 46.5989C44.9241 47.3067 44.3487 47.8827 43.6414 47.8827H30.9329C30.225 47.8827 29.6491 47.3067 29.6491 46.5989V34.1581C29.6491 33.7373 29.3081 33.3964 28.8874 33.3964C28.4667 33.3964 28.1257 33.7373 28.1257 34.1581V38.8527H3.5481L3.5507 33.1543H28.1257V34.6035C28.1257 35.0243 28.4667 35.3652 28.8874 35.3652C29.3081 35.3652 29.6491 35.0243 29.6491 34.6035V23.5849C29.6491 22.877 30.225 22.3012 30.9329 22.3012H43.6414C44.3487 22.3012 44.9241 22.877 44.9241 23.5849V46.5989ZM48.1914 42.9149H46.4476V40.3758H50.2227C50.3626 40.3758 50.4766 40.4897 50.4766 40.6297C50.4766 41.8897 49.4515 42.9149 48.1914 42.9149Z" fill="black" style="fill:black;fill-opacity:1;"/>
<path d="M19.0257 25.241C23.2003 25.241 26.5964 21.8449 26.5964 17.6704C26.5964 13.4957 23.2003 10.0996 19.0257 10.0996C14.8512 10.0996 11.4551 13.4957 11.4551 17.6704C11.455 21.8449 14.8512 25.241 19.0257 25.241ZM19.0257 11.623C22.3602 11.623 25.073 14.3359 25.073 17.6704C25.073 21.0049 22.3602 23.7176 19.0257 23.7176C15.6912 23.7176 12.9785 21.0049 12.9785 17.6704C12.9785 14.3359 15.6912 11.623 19.0257 11.623Z" fill="black" style="fill:black;fill-opacity:1;"/>
<path d="M17.9819 20.5732C18.1268 20.7363 18.3342 20.8292 18.5514 20.8292C18.5595 20.8292 18.5678 20.8291 18.5759 20.8288C18.8021 20.8216 19.0132 20.7141 19.1523 20.5356L22.6472 16.0503C22.9058 15.7185 22.8464 15.2399 22.5146 14.9813C22.1827 14.7226 21.704 14.7819 21.4455 15.1141L18.5131 18.8774L16.9817 17.1529C16.7024 16.8384 16.2209 16.8098 15.9063 17.0892C15.5918 17.3685 15.5632 17.8499 15.8425 18.1646L17.9819 20.5732Z" fill="black" style="fill:black;fill-opacity:1;"/>
<path d="M35.9238 24.9531H38.651C39.0717 24.9531 39.4127 24.6122 39.4127 24.1914C39.4127 23.7706 39.0717 23.4297 38.651 23.4297H35.9238C35.5032 23.4297 35.1621 23.7706 35.1621 24.1914C35.1621 24.6122 35.5032 24.9531 35.9238 24.9531Z" fill="black" style="fill:black;fill-opacity:1;"/>
<path d="M37.2872 29.0234C33.941 29.0234 31.2188 31.7457 31.2188 35.0919C31.2188 38.4381 33.941 41.1604 37.2872 41.1604C40.6334 41.1604 43.3557 38.4381 43.3557 35.0919C43.3557 31.7457 40.6334 29.0234 37.2872 29.0234ZM37.2872 39.6368C34.7811 39.6368 32.7421 37.598 32.7421 35.0918C32.7421 32.5856 34.7811 30.5468 37.2872 30.5468C39.7934 30.5468 41.8321 32.5856 41.8321 35.0918C41.8321 37.598 39.7934 39.6368 37.2872 39.6368Z" fill="black" style="fill:black;fill-opacity:1;"/>
<path d="M39.9499 32.9891C39.618 32.7304 39.1395 32.7899 38.8808 33.1218L36.9166 35.6426L35.9777 34.5854C35.6985 34.2708 35.2169 34.2423 34.9024 34.5217C34.5879 34.801 34.5593 35.2824 34.8386 35.5971L36.3852 37.3386C36.53 37.5016 36.7374 37.5945 36.9547 37.5945C36.9628 37.5945 36.971 37.5944 36.9792 37.5941C37.2053 37.5869 37.4165 37.4794 37.5555 37.301L40.0824 34.0582C40.3412 33.7264 40.2818 33.2477 39.9499 32.9891Z" fill="black" style="fill:black;fill-opacity:1;"/>
</g>
</svg>
