<svg width="80" height="80" viewBox="0 0 80 80" fill="none" xmlns="http://www.w3.org/2000/svg">
<g clip-path="url(#clip0_87_1629)">
<path d="M51.6633 36.7167H60.8567C71.0033 36.93 80.5633 28.0067 79.99 17.7433C79.6567 8.15333 71.89 0.386664 62.3033 0.0566638C52.0233 -0.533336 43.1267 9.05 43.33 19.19V28.3833C43.33 32.9767 47.07 36.7167 51.6633 36.7167ZM46.6633 19.19C46.4833 10.8733 53.76 2.92333 62.19 3.38666C70.0333 3.65666 76.3867 10.0133 76.66 17.8567C77.12 26.2867 69.1767 33.56 60.8567 33.3833H51.6633C48.9067 33.3833 46.6633 31.14 46.6633 28.3833V19.19ZM61.6667 20V11.6667C61.6667 10.7467 62.4133 10 63.3333 10C64.2533 10 65 10.7467 65 11.6667V20H68.3333V11.6667C68.3333 10.7467 69.08 10 70 10C70.92 10 71.6667 10.7467 71.6667 11.6667V25C71.6667 25.92 70.92 26.6667 70 26.6667C69.08 26.6667 68.3333 25.92 68.3333 25V23.3333H65C63.1633 23.3333 61.6667 21.8367 61.6667 20ZM68.9767 51.4133C65.61 48.0433 59.7433 48.0233 56.3466 51.36L50.3267 56.42C37.92 51.4233 28.9033 42.4 23.51 29.5767L28.5033 23.6267C32 20.13 32 14.44 28.6467 11.1067L22.12 2.62666C18.7267 -0.76667 12.74 -0.683336 9.51998 2.55L5.60332 5.96333C1.93998 9.62333 -0.0800171 14.58 -0.0800171 19.92C-0.0800171 45.75 34.17 80 60 80C65.3433 80 70.3 77.9833 74.0333 74.2333L77.2933 70.4833C78.9867 68.79 79.92 66.5367 79.92 64.1433C79.92 61.75 78.9867 59.4967 77.13 57.66L68.9767 51.4133ZM74.8567 68.2133L71.5967 71.9633C68.57 74.9967 64.45 76.6667 60 76.6667C36.1333 76.6667 3.25332 43.7867 3.25332 19.92C3.25332 15.47 4.92332 11.35 7.87665 8.4L11.7933 4.98333C12.9133 3.86333 14.39 3.31666 15.8433 3.31666C17.24 3.31666 18.6133 3.82333 19.62 4.82333L26.15 13.3C28.3467 15.4967 28.3467 19.0733 26.0533 21.3767L20.3133 28.2067C19.9167 28.68 19.8133 29.33 20.0433 29.9C25.8767 44.4267 35.9733 54.5167 50.05 59.8933C50.61 60.1067 51.25 60.0033 51.7167 59.6133L58.5466 53.8733C58.5833 53.8433 58.6167 53.81 58.6533 53.7767C60.7833 51.6467 64.33 51.5033 66.7833 53.92L74.9367 60.1667C77.1333 62.3633 77.1333 65.9367 74.86 68.22L74.8567 68.2133ZM56.6633 15C56.6633 14.08 55.9167 13.3333 54.9967 13.3333C54.0767 13.3333 53.33 14.08 53.33 15C53.33 15.92 52.5833 16.6667 51.6633 16.6667C50.7433 16.6667 49.9967 15.92 49.9967 15C49.9967 12.2433 52.24 10 54.9967 10C57.7533 10 59.9967 12.2433 59.9967 15C59.9967 18.3333 57.7767 19.9967 55.9967 21.3333C55.0033 22.08 54.26 22.66 53.8167 23.3333H58.33C59.25 23.3333 59.9967 24.08 59.9967 25C59.9967 25.92 59.25 26.6667 58.33 26.6667H51.6633C50.7433 26.6667 49.9967 25.92 49.9967 25C49.9967 21.6667 52.2167 20.0033 53.9967 18.6667C55.7 17.39 56.6633 16.5867 56.6633 15Z" fill="black"/>
</g>
<defs>
<clipPath id="clip0_87_1629">
<rect width="80" height="80" fill="white"/>
</clipPath>
</defs>
</svg>
