<svg width="32" height="32" viewBox="0 0 32 32" fill="none" xmlns="http://www.w3.org/2000/svg">
<g clip-path="url(#clip0_1016_12541)">
<path d="M16.4334 8.01057C17.4687 8.01057 18.4607 7.48886 19.2269 6.54197C19.9266 5.67724 20.3278 4.58656 20.3278 3.54861C20.3278 1.45764 18.6538 -0.119141 16.4334 -0.119141C14.2131 -0.119141 12.5391 1.45559 12.5391 3.54861C12.5391 4.58656 12.9403 5.67724 13.64 6.54197C14.4061 7.48954 15.3982 8.01057 16.4334 8.01057ZM16.4334 1.01056C18.0356 1.01056 19.1981 2.07795 19.1981 3.54861C19.1981 5.39721 17.6857 6.88088 16.4334 6.88088C14.9018 6.88088 13.6688 5.05761 13.6688 3.54861C13.6688 2.08069 14.8313 1.01056 16.4334 1.01056Z" fill="black"/>
<path d="M24.0922 20.6884C24.2454 20.6748 24.387 20.601 24.486 20.4832C24.5849 20.3654 24.6332 20.2131 24.62 20.0599C24.62 20.0599 24.023 15.7786 23.9354 14.3422C23.7731 11.7631 22.1977 9.69402 19.7363 9.31746C18.8709 9.18463 17.2989 9.08467 16.4773 9.08398C15.3558 9.10342 14.236 9.18089 13.1225 9.31609C11.968 9.47413 10.9107 10.0473 10.1483 10.9285C9.34722 11.8535 8.98914 13.0359 8.91588 14.345C8.83372 15.7827 8.28941 20.066 8.28941 20.066C8.28024 20.1403 8.28592 20.2156 8.30611 20.2877C8.3263 20.3597 8.3606 20.427 8.40702 20.4857C8.45344 20.5444 8.51106 20.5932 8.57653 20.6295C8.64199 20.6657 8.71401 20.6886 8.78838 20.6967C8.86275 20.7049 8.93801 20.6982 9.00977 20.677C9.08154 20.6559 9.14839 20.6207 9.20643 20.5734C9.26448 20.5262 9.31256 20.4679 9.3479 20.402C9.38323 20.336 9.40511 20.2637 9.41227 20.1893C9.41227 20.1893 9.96479 15.8594 10.0435 14.4073C10.1558 12.3492 11.3738 10.695 13.2765 10.4362C14.3385 10.3072 15.4064 10.2332 16.476 10.2144C17.2414 10.2144 18.7607 10.3116 19.5645 10.4348C20.4482 10.5686 21.2563 11.0104 21.8458 11.6823C22.4729 12.4026 22.7447 13.37 22.8043 14.4107C22.8913 15.8649 23.4979 20.1954 23.4979 20.1954C23.5198 20.3359 23.5924 20.4635 23.7018 20.5543C23.8112 20.6451 23.9501 20.6927 24.0922 20.6884Z" fill="black"/>
<path d="M20.0346 26.8035L22.7514 24.1552C22.8268 24.0817 22.8802 23.9885 22.9054 23.8862C22.9306 23.7839 22.9268 23.6766 22.8942 23.5764C22.8617 23.4762 22.8017 23.387 22.7212 23.3191C22.6407 23.2512 22.5427 23.2071 22.4385 23.1919L18.6845 22.6442L17.0057 19.2448C16.959 19.1502 16.8869 19.0706 16.7973 19.0149C16.7078 18.9592 16.6045 18.9297 16.499 18.9297C16.3936 18.9297 16.2902 18.9592 16.2007 19.0149C16.1111 19.0706 16.039 19.1502 15.9924 19.2448L14.3136 22.6462L10.5595 23.194C10.4553 23.2092 10.3573 23.2532 10.2768 23.3212C10.1963 23.3891 10.1363 23.4782 10.1038 23.5784C10.0713 23.6786 10.0674 23.7859 10.0926 23.8882C10.1179 23.9905 10.1712 24.0837 10.2466 24.1573L12.9634 26.8056L12.3226 30.5418C12.3044 30.646 12.3159 30.7531 12.3556 30.8511C12.3954 30.9491 12.4619 31.0339 12.5475 31.096C12.6331 31.1581 12.7344 31.1949 12.8399 31.2022C12.9454 31.2095 13.0508 31.1871 13.1442 31.1375L16.499 29.3724L19.8539 31.1375C19.935 31.1799 20.0252 31.2022 20.1168 31.2025C20.199 31.2024 20.2803 31.1843 20.3548 31.1496C20.4294 31.1148 20.4955 31.0642 20.5484 31.0013C20.6014 30.9384 20.6401 30.8647 20.6617 30.7854C20.6832 30.706 20.6873 30.6229 20.6734 30.5418L20.0346 26.8035ZM16.2361 28.2345C15.5802 28.5686 13.6289 29.6038 13.6289 29.6038L14.1266 26.7001C14.1421 26.6099 14.1354 26.5173 14.1072 26.4302C14.0789 26.3432 14.0299 26.2643 13.9644 26.2003L11.8549 24.1463L14.7702 23.7225C14.8608 23.7093 14.9468 23.6743 15.0209 23.6205C15.0949 23.5667 15.1548 23.4958 15.1954 23.4137L16.4963 20.7716L17.7971 23.4137C17.8377 23.4958 17.8976 23.5667 17.9717 23.6205C18.0457 23.6743 18.1317 23.7093 18.2223 23.7225L21.1376 24.1463L19.0282 26.2003C18.9626 26.2643 18.9136 26.3432 18.8854 26.4302C18.8571 26.5173 18.8504 26.6099 18.8659 26.7001L19.3637 29.6038C19.3637 29.6038 17.4124 28.5672 16.7564 28.2345C16.6765 28.1913 16.5871 28.1687 16.4963 28.1687C16.4054 28.1687 16.316 28.1913 16.2361 28.2345Z" fill="black"/>
<path d="M32.0151 24.9082L29.2702 24.509L28.0426 22.0223C27.9961 21.9277 27.924 21.848 27.8346 21.7923C27.7451 21.7366 27.6417 21.707 27.5363 21.707C27.4309 21.707 27.3276 21.7366 27.2381 21.7923C27.1486 21.848 27.0765 21.9277 27.03 22.0223L25.8024 24.509L23.0576 24.9082C22.9533 24.9234 22.8554 24.9675 22.7749 25.0354C22.6943 25.1033 22.6344 25.1924 22.6018 25.2926C22.5693 25.3929 22.5654 25.5002 22.5907 25.6025C22.6159 25.7048 22.6693 25.798 22.7447 25.8715L24.7302 27.8078L24.2612 30.5409C24.2431 30.6451 24.2546 30.7523 24.2943 30.8503C24.3341 30.9482 24.4006 31.0331 24.4862 31.0951C24.5718 31.1572 24.6731 31.194 24.7786 31.2013C24.884 31.2087 24.9895 31.1862 25.0828 31.1366L27.5374 29.846L29.9926 31.1366C30.0737 31.1791 30.1639 31.2014 30.2555 31.2016C30.3377 31.2015 30.419 31.1835 30.4935 31.1487C30.5681 31.114 30.6341 31.0634 30.6871 31.0005C30.7401 30.9376 30.7788 30.8639 30.8004 30.7845C30.8219 30.7051 30.8259 30.622 30.8121 30.5409L30.3431 27.8078L32.3286 25.8715C32.4041 25.798 32.4574 25.7048 32.4827 25.6025C32.5079 25.5002 32.504 25.3929 32.4715 25.2926C32.4389 25.1924 32.379 25.1033 32.2985 25.0354C32.2179 24.9675 32.12 24.9234 32.0157 24.9082H32.0151ZM27.2738 28.7081C26.8431 28.9244 25.5683 29.6043 25.5683 29.6043L25.8942 27.7057C25.9096 27.6155 25.9029 27.5229 25.8747 27.4358C25.8464 27.3488 25.7974 27.2699 25.7319 27.2059L24.3523 25.8613L26.2584 25.5874C26.3491 25.5743 26.4352 25.5392 26.5093 25.4853C26.5834 25.4314 26.6432 25.3602 26.6836 25.2779L27.536 23.5512L28.3884 25.2779C28.429 25.3601 28.489 25.4312 28.5632 25.4852C28.6374 25.5391 28.7235 25.5741 28.8143 25.5874L30.7197 25.8613L29.3408 27.2059C29.2751 27.2698 29.2261 27.3487 29.1978 27.4358C29.1695 27.5229 29.1629 27.6155 29.1785 27.7057L29.5071 29.6043C29.5071 29.6043 28.233 28.9244 27.8023 28.7081C27.7211 28.6643 27.6303 28.6414 27.538 28.6414C27.4458 28.6414 27.355 28.6643 27.2738 28.7081Z" fill="black"/>
<path d="M9.94084 24.9082L7.19602 24.509L5.96842 22.0223C5.92191 21.9277 5.84983 21.848 5.76034 21.7923C5.67085 21.7366 5.56753 21.707 5.46211 21.707C5.35668 21.707 5.25337 21.7366 5.16388 21.7923C5.07439 21.848 5.0023 21.9277 4.9558 22.0223L3.72819 24.509L0.983369 24.9082C0.879108 24.9234 0.781176 24.9675 0.70064 25.0354C0.620105 25.1033 0.560176 25.1924 0.527628 25.2926C0.495079 25.3929 0.491208 25.5002 0.516451 25.6025C0.541694 25.7048 0.595046 25.798 0.670477 25.8715L2.65601 27.8078L2.19043 30.5409C2.1723 30.6451 2.18376 30.7523 2.22352 30.8503C2.26329 30.9482 2.32976 31.0331 2.41536 31.0951C2.50097 31.1572 2.60228 31.194 2.70776 31.2013C2.81324 31.2087 2.91867 31.1862 3.01203 31.1366L5.46724 29.846L7.92177 31.1366C8.00291 31.1791 8.09309 31.2014 8.18468 31.2016C8.26693 31.2015 8.34816 31.1835 8.42272 31.1487C8.49727 31.114 8.56335 31.0634 8.61634 31.0005C8.66934 30.9376 8.70797 30.8639 8.72956 30.7845C8.75114 30.7051 8.75515 30.622 8.74131 30.5409L8.27231 27.8078L10.2578 25.8715C10.3333 25.798 10.3866 25.7048 10.4119 25.6025C10.4371 25.5002 10.4332 25.3929 10.4007 25.2926C10.3681 25.1924 10.3082 25.1033 10.2277 25.0354C10.1471 24.9675 10.0492 24.9234 9.94495 24.9082H9.94084ZM5.20296 28.7081L3.49472 29.6043L3.81994 27.7057C3.83553 27.6155 3.82891 27.5229 3.80063 27.4358C3.77236 27.3487 3.72329 27.2698 3.65767 27.2059L2.27876 25.8613L4.18418 25.5874C4.27492 25.5741 4.36108 25.5391 4.43526 25.4852C4.50944 25.4312 4.56942 25.3601 4.61004 25.2779L5.46245 23.5512L6.31486 25.2779C6.35522 25.3602 6.41504 25.4314 6.48913 25.4853C6.56322 25.5392 6.64934 25.5743 6.74003 25.5874L8.64614 25.8613L7.26654 27.2059C7.20102 27.2699 7.15201 27.3488 7.12375 27.4358C7.09548 27.5229 7.0888 27.6155 7.10428 27.7057L7.43018 29.6043L5.72468 28.7081C5.64615 28.66 5.55588 28.6346 5.46382 28.6346C5.37176 28.6346 5.28149 28.66 5.20296 28.7081Z" fill="black"/>
</g>
<defs>
<clipPath id="clip0_1016_12541">
<rect width="32" height="32" fill="white"/>
</clipPath>
</defs>
</svg>
