<svg width="32" height="32" viewBox="0 0 32 32" fill="none" xmlns="http://www.w3.org/2000/svg">
<path d="M28.0801 17.6582C28.0144 17.6582 27.9494 17.6711 27.8887 17.6962C27.828 17.7213 27.7729 17.7581 27.7264 17.8046C27.68 17.851 27.6432 17.9061 27.6181 17.9668C27.5929 18.0275 27.58 18.0925 27.5801 18.1582V22.3828C27.58 22.5154 27.5273 22.6425 27.4335 22.7363C27.3398 22.83 27.2127 22.8827 27.0801 22.8828H3.5C3.36742 22.8827 3.24029 22.83 3.14654 22.7363C3.0528 22.6425 3.00009 22.5154 3 22.3828V7.33301C3.00009 7.20043 3.0528 7.0733 3.14655 6.97955C3.24029 6.88581 3.36742 6.8331 3.5 6.83301H13.9648C14.0975 6.83301 14.2246 6.78033 14.3184 6.68656C14.4122 6.59279 14.4648 6.46562 14.4648 6.33301C14.4648 6.2004 14.4122 6.07322 14.3184 5.97945C14.2246 5.88569 14.0975 5.83301 13.9648 5.83301H3.5C3.10231 5.83344 2.72103 5.99162 2.43982 6.27283C2.15861 6.55404 2.00043 6.93532 2 7.33301V22.3828C2.00043 22.7805 2.15861 23.1618 2.43982 23.443C2.72103 23.7242 3.10231 23.8824 3.5 23.8828H13.1909V25.414C13.1897 25.8164 13.1376 26.217 13.0357 26.6063C7.68579 26.9264 5.75308 28.3207 5.66406 28.3877C5.56187 28.4683 5.49514 28.5856 5.47805 28.7147C5.46096 28.8437 5.49486 28.9743 5.57256 29.0788C5.65025 29.1832 5.7656 29.2533 5.89411 29.274C6.02262 29.2948 6.15416 29.2646 6.26078 29.1899C6.28369 29.1733 8.60888 27.539 15.2895 27.539C22.4362 27.5735 23.9815 29.1733 24.6147 29.2876C24.7187 29.2857 24.8196 29.2516 24.9034 29.19C24.9872 29.1284 25.0498 29.0424 25.0828 28.9437C25.1157 28.845 25.1172 28.7386 25.0872 28.639C25.0571 28.5395 24.997 28.4517 24.915 28.3877C24.826 28.3207 22.8932 26.9264 17.543 26.6063C17.3865 25.7075 17.3346 24.7936 17.3882 23.8828H27.0801C27.4778 23.8824 27.8591 23.7242 28.1403 23.443C28.4215 23.1618 28.5796 22.7805 28.5801 22.3828V18.1582C28.5801 18.0925 28.5672 18.0275 28.5421 17.9668C28.517 17.9061 28.4802 17.851 28.4337 17.8046C28.3873 17.7581 28.3321 17.7213 28.2715 17.6962C28.2108 17.6711 28.1458 17.6582 28.0801 17.6582ZM14.0702 26.5581C14.1486 26.1818 14.1891 25.7985 14.1909 25.4141V23.8828H16.3882C16.3453 24.7764 16.3857 25.672 16.5088 26.5581C15.7364 26.5331 14.8425 26.5331 14.0702 26.5581Z" fill="black"/>
<path d="M29.0147 9.12062C29.0004 9.12001 28.9867 9.11524 28.9752 9.10691C28.9636 9.09858 28.9548 9.08705 28.9497 9.07374C28.7857 8.20183 28.351 7.60847 28.1166 6.95074C28.291 6.74476 28.3813 6.48057 28.3694 6.21094C28.3576 5.9413 28.2445 5.68604 28.0527 5.49612L27.2129 4.65626C27.0232 4.46383 26.7677 4.35029 26.4977 4.33843C26.2277 4.32656 25.9632 4.41725 25.7573 4.5923C25.0783 4.24762 24.3679 3.96871 23.6357 3.75938C23.622 3.75408 23.6102 3.74485 23.6017 3.73285C23.5931 3.72085 23.5884 3.70661 23.5879 3.69191C23.5654 3.42303 23.4424 3.17252 23.2434 2.99033C23.0444 2.80815 22.784 2.70769 22.5142 2.709H21.3267C21.0598 2.70761 20.8021 2.80585 20.6039 2.98447C20.4056 3.1631 20.2812 3.40926 20.2549 3.6748C20.2554 3.71014 20.2374 3.75195 20.2056 3.7588C19.485 3.93224 18.7961 4.21726 18.1636 4.60352C18.1506 4.61017 18.1359 4.61261 18.1214 4.61051C18.107 4.60841 18.0936 4.60187 18.083 4.5918C17.877 4.41745 17.6128 4.3272 17.3432 4.33905C17.0736 4.35091 16.8183 4.464 16.6284 4.65576L15.7886 5.49609C15.5968 5.68601 15.4837 5.94124 15.4719 6.21087C15.46 6.48049 15.5503 6.74467 15.7246 6.95068C15.4915 7.60547 15.054 8.20657 14.8912 9.07376C14.8861 9.0873 14.877 9.09898 14.8651 9.10733C14.8533 9.11567 14.8392 9.1203 14.8247 9.1206C14.5558 9.14301 14.3053 9.266 14.1231 9.46504C13.9409 9.66407 13.8404 9.9245 13.8418 10.1943V11.3818C13.8405 11.652 13.9412 11.9126 14.1238 12.1117C14.3064 12.3108 14.5574 12.4336 14.8267 12.4556C14.8409 12.4562 14.8546 12.461 14.8661 12.4694C14.8776 12.4779 14.8863 12.4895 14.8911 12.5029C15.0562 13.3758 15.492 13.9707 15.7247 14.6254C15.5504 14.8314 15.4601 15.0956 15.4719 15.3653C15.4837 15.6349 15.5968 15.8902 15.7886 16.0801L16.6289 16.9209C16.819 17.1123 17.0742 17.2251 17.3437 17.2368C17.6131 17.2484 17.8771 17.1582 18.083 16.9839C18.0937 16.9741 18.1071 16.9677 18.1215 16.9656C18.1359 16.9635 18.1505 16.9658 18.1636 16.9722C18.7962 17.359 19.4856 17.6442 20.2066 17.8174C20.2377 17.8234 20.2548 17.8678 20.2554 17.9019C20.2817 18.1673 20.4061 18.4133 20.6042 18.5919C20.8023 18.7704 21.06 18.8686 21.3267 18.8672H22.5142C22.7844 18.8684 23.045 18.7676 23.2441 18.5849C23.4432 18.4022 23.5659 18.1511 23.5879 17.8818C23.5886 17.8676 23.5935 17.8538 23.602 17.8423C23.6105 17.8309 23.6223 17.8222 23.6358 17.8174C24.3679 17.6077 25.0783 17.3284 25.7573 16.9833C25.9631 17.1583 26.2273 17.249 26.4972 17.2374C26.767 17.2257 27.0225 17.1125 27.2124 16.9204L28.0528 16.0801C28.2446 15.8901 28.3576 15.6347 28.3694 15.365C28.3812 15.0952 28.2908 14.831 28.1163 14.625C28.3501 13.9697 28.7871 13.3701 28.9497 12.5024C28.9548 12.4888 28.9639 12.477 28.9759 12.4686C28.9879 12.4603 29.0021 12.4557 29.0167 12.4556C29.2856 12.4332 29.5361 12.3102 29.7183 12.1111C29.9005 11.9121 30.0009 11.6517 29.9995 11.3818V10.1943C30.0008 9.92422 29.9001 9.66355 29.7175 9.46448C29.5349 9.2654 29.2839 9.1426 29.0147 9.12062ZM28.9995 11.3818C28.9996 11.4016 28.9921 11.4207 28.9786 11.4351C28.965 11.4496 28.9465 11.4583 28.9268 11.4595C28.7036 11.478 28.4919 11.566 28.3215 11.7113C28.1511 11.8565 28.0306 12.0516 27.9771 12.2691C27.8287 12.8883 27.5839 13.4803 27.2515 14.0235C27.1354 14.2151 27.0824 14.4383 27.1001 14.6617C27.1178 14.885 27.2053 15.0972 27.3501 15.2681C27.3628 15.2829 27.3694 15.302 27.3686 15.3214C27.3678 15.3409 27.3596 15.3594 27.3457 15.3731L26.5054 16.2134C26.4915 16.2269 26.473 16.2348 26.4536 16.2355C26.4342 16.2363 26.4153 16.2298 26.4004 16.2173C26.2294 16.0727 26.0174 15.9854 25.7942 15.9677C25.571 15.9501 25.3479 16.0028 25.1562 16.1187C24.6132 16.451 24.0213 16.696 23.4023 16.8448C23.1845 16.8981 22.9889 17.0187 22.8435 17.1895C22.698 17.3602 22.6099 17.5724 22.5918 17.7959C22.5902 17.8154 22.5813 17.8335 22.5669 17.8467C22.5525 17.86 22.5337 17.8673 22.5142 17.8672H21.3267C21.3153 17.8667 21.3042 17.8638 21.294 17.8588C21.2838 17.8539 21.2747 17.8469 21.2673 17.8383C21.2598 17.8297 21.2542 17.8197 21.2507 17.8089C21.2473 17.7981 21.246 17.7867 21.2471 17.7754C21.2253 17.5559 21.136 17.3484 20.9915 17.1817C20.8469 17.0151 20.6542 16.8973 20.4399 16.8448C19.8205 16.6961 19.2284 16.4511 18.685 16.1187C18.4932 16.0029 18.2699 15.9502 18.0465 15.968C17.8232 15.9858 17.611 16.0731 17.4399 16.2178C17.4252 16.2304 17.4062 16.2369 17.3868 16.2361C17.3674 16.2353 17.3491 16.2272 17.3354 16.2134L16.4956 15.3731C16.4817 15.3594 16.4735 15.3409 16.4727 15.3214C16.4719 15.302 16.4785 15.2829 16.4912 15.2681C16.6361 15.0971 16.7235 14.8848 16.7411 14.6614C16.7587 14.4379 16.7056 14.2146 16.5893 14.023C16.2572 13.4801 16.0124 12.8884 15.8638 12.2695C15.8105 12.0517 15.6899 11.8561 15.5192 11.7107C15.3484 11.5653 15.1362 11.4774 14.9126 11.4595C14.8932 11.4579 14.8751 11.4489 14.862 11.4346C14.8488 11.4202 14.8416 11.4013 14.8418 11.3818V10.1943C14.8417 10.1746 14.8492 10.1555 14.8627 10.1411C14.8763 10.1266 14.8948 10.1179 14.9145 10.1167C15.1376 10.0984 15.3492 10.0104 15.5196 9.86518C15.6899 9.72 15.8103 9.52496 15.8638 9.30763C16.0124 8.68833 16.2572 8.09617 16.5893 7.55275C16.7056 7.36122 16.7587 7.13797 16.7411 6.9146C16.7235 6.69123 16.6361 6.47906 16.4912 6.30812C16.4785 6.29332 16.4719 6.27424 16.4727 6.25475C16.4735 6.23526 16.4817 6.21681 16.4956 6.20312L17.3355 5.3628C17.3491 5.34896 17.3674 5.34077 17.3868 5.33986C17.4061 5.33896 17.4251 5.3454 17.44 5.35791C17.6108 5.50304 17.823 5.59071 18.0465 5.6085C18.27 5.62629 18.4934 5.5733 18.6851 5.45703C19.2285 5.12487 19.8207 4.87988 20.44 4.73096C20.6542 4.67836 20.8469 4.56061 20.9915 4.39393C21.136 4.22725 21.2253 4.01985 21.2471 3.8003C21.246 3.78902 21.2472 3.77764 21.2507 3.76685C21.2542 3.75606 21.2598 3.74609 21.2673 3.73755C21.2747 3.72901 21.2838 3.72207 21.294 3.71716C21.3042 3.71225 21.3153 3.70947 21.3267 3.70899H22.5142C22.534 3.70894 22.5531 3.71651 22.5676 3.73014C22.582 3.74376 22.5907 3.76241 22.5918 3.78223C22.6104 4.00528 22.6985 4.21687 22.8438 4.38716C22.989 4.55746 23.1841 4.67788 23.4014 4.73145C24.0205 4.87993 24.6125 5.12461 25.1558 5.45655C25.3473 5.57295 25.5705 5.6261 25.7939 5.60849C26.0173 5.59087 26.2295 5.50338 26.4004 5.3584C26.4153 5.34581 26.4343 5.33927 26.4538 5.34009C26.4732 5.3409 26.4917 5.34901 26.5054 5.3628L27.3457 6.20313C27.3596 6.21672 27.3678 6.23504 27.3687 6.25442C27.3696 6.2738 27.3631 6.2928 27.3506 6.30763C27.2055 6.47841 27.1178 6.69054 27.1 6.91393C27.0823 7.13733 27.1352 7.36066 27.2515 7.55225C27.5839 8.09593 27.8289 8.68843 27.9776 9.30811C28.0313 9.52559 28.1521 9.72067 28.3228 9.86577C28.4935 10.0109 28.7054 10.0987 28.9287 10.1167C28.9482 10.1183 28.9662 10.1273 28.9794 10.1417C28.9925 10.156 28.9997 10.1749 28.9995 10.1943V11.3818Z" fill="black"/>
<path d="M21.9209 6.05273C20.9844 6.05273 20.0688 6.33045 19.2901 6.85078C18.5114 7.3711 17.9044 8.11066 17.546 8.97594C17.1876 9.84121 17.0938 10.7933 17.2765 11.7119C17.4592 12.6305 17.9102 13.4742 18.5725 14.1365C19.2347 14.7987 20.0785 15.2497 20.9971 15.4325C21.9156 15.6152 22.8678 15.5214 23.733 15.163C24.5983 14.8046 25.3379 14.1976 25.8582 13.4189C26.3785 12.6402 26.6563 11.7246 26.6563 10.7881C26.6548 9.53265 26.1554 8.32907 25.2677 7.44135C24.3799 6.55362 23.1763 6.05424 21.9209 6.05273ZM21.9209 14.5234C21.1821 14.5234 20.4599 14.3044 19.8457 13.8939C19.2314 13.4835 18.7526 12.9001 18.4699 12.2176C18.1872 11.535 18.1132 10.784 18.2573 10.0594C18.4014 9.33477 18.7572 8.66919 19.2796 8.14679C19.802 7.62439 20.4676 7.26863 21.1922 7.1245C21.9168 6.98037 22.6678 7.05435 23.3504 7.33706C24.0329 7.61978 24.6163 8.09855 25.0267 8.71283C25.4372 9.32711 25.6563 10.0493 25.6563 10.7881C25.6551 11.7784 25.2612 12.7278 24.5609 13.4281C23.8607 14.1284 22.9112 14.5223 21.9209 14.5234Z" fill="black"/>
<path d="M7.14941 16.4561C7.103 16.4096 7.04789 16.3728 6.98723 16.3476C6.92657 16.3225 6.86156 16.3096 6.7959 16.3096C6.73024 16.3096 6.66522 16.3225 6.60457 16.3476C6.54391 16.3728 6.4888 16.4096 6.44238 16.4561L4.75391 18.1446C4.70747 18.191 4.67063 18.2461 4.64549 18.3067C4.62036 18.3674 4.60742 18.4324 4.60742 18.4981C4.60742 18.5637 4.62036 18.6287 4.64549 18.6894C4.67063 18.7501 4.70747 18.8052 4.75391 18.8516L6.44238 20.5401C6.48881 20.5865 6.54392 20.6233 6.60458 20.6485C6.66524 20.6736 6.73025 20.6865 6.7959 20.6865C6.86155 20.6865 6.92657 20.6736 6.98722 20.6485C7.04788 20.6233 7.10299 20.5865 7.14942 20.5401C7.19584 20.4937 7.23267 20.4385 7.25779 20.3779C7.28292 20.3172 7.29585 20.2522 7.29585 20.1866C7.29585 20.1209 7.28291 20.0559 7.25779 19.9952C7.23266 19.9346 7.19584 19.8795 7.14941 19.8331L5.81445 18.498L7.14941 17.1631C7.19585 17.1167 7.23269 17.0616 7.25783 17.0009C7.28296 16.9402 7.2959 16.8752 7.2959 16.8096C7.2959 16.7439 7.28296 16.6789 7.25783 16.6182C7.23269 16.5576 7.19585 16.5025 7.14941 16.4561Z" fill="black"/>
<path d="M12.3515 19.833C12.2578 19.9268 12.2051 20.0539 12.2051 20.1865C12.2051 20.3191 12.2578 20.4463 12.3515 20.54C12.4453 20.6338 12.5724 20.6864 12.705 20.6865C12.8376 20.6865 12.9648 20.6338 13.0585 20.54L14.747 18.8515C14.7935 18.8051 14.8303 18.75 14.8555 18.6893C14.8806 18.6287 14.8935 18.5637 14.8935 18.498C14.8935 18.4324 14.8806 18.3673 14.8555 18.3067C14.8303 18.246 14.7935 18.1909 14.747 18.1445L13.0585 16.456C13.0121 16.4096 12.957 16.3728 12.8963 16.3476C12.8357 16.3225 12.7707 16.3096 12.705 16.3096C12.6394 16.3096 12.5744 16.3225 12.5137 16.3476C12.453 16.3728 12.3979 16.4096 12.3515 16.456C12.3051 16.5024 12.2683 16.5575 12.2431 16.6182C12.218 16.6789 12.2051 16.7439 12.2051 16.8095C12.2051 16.8752 12.218 16.9402 12.2431 17.0008C12.2683 17.0615 12.3051 17.1166 12.3515 17.163L13.6865 18.498L12.3515 19.833Z" fill="black"/>
<path d="M9.68677 16.689L8.84302 20.0659C8.82712 20.1296 8.82391 20.1958 8.83359 20.2607C8.84326 20.3256 8.86563 20.388 8.89941 20.4442C8.93318 20.5005 8.97772 20.5496 9.03046 20.5886C9.0832 20.6277 9.14312 20.656 9.20679 20.6719C9.27046 20.6878 9.33664 20.691 9.40156 20.6813C9.46647 20.6716 9.52884 20.6493 9.58511 20.6155C9.64138 20.5817 9.69044 20.5372 9.7295 20.4844C9.76856 20.4317 9.79684 20.3718 9.81275 20.3081L10.6565 16.9312C10.6858 16.8036 10.6639 16.6695 10.5955 16.5579C10.527 16.4463 10.4175 16.366 10.2905 16.3342C10.1634 16.3025 10.029 16.3219 9.91614 16.3882C9.80324 16.4546 9.72088 16.5625 9.68677 16.689Z" fill="black"/>
</svg>
