<svg width="33" height="32" viewBox="0 0 33 32" fill="none" xmlns="http://www.w3.org/2000/svg">
<path d="M28 22.503V20.5C27.9992 19.8372 27.7356 19.2018 27.2669 18.7331C26.7982 18.2644 26.1628 18.0008 25.5 18H21.291C21.7538 17.1463 22.1271 16.247 22.405 15.3165L24.305 13.796C24.6003 13.5602 24.8162 13.2395 24.9236 12.8772C25.0309 12.5148 25.0245 12.1283 24.9053 11.7697C24.786 11.4111 24.5596 11.0977 24.2566 10.8718C23.9537 10.646 23.5887 10.5184 23.211 10.5065L24.325 7.4435C24.6092 6.66181 24.7009 5.82312 24.5922 4.99849C24.4834 4.17385 24.1775 3.38758 23.7004 2.70629C23.2232 2.02499 22.5889 1.46875 21.8511 1.08469C21.1133 0.700633 20.2938 0.500071 19.462 0.500001H15.217C12.0406 0.499208 8.92812 1.39187 6.235 3.076C6.15408 3.12612 6.08915 3.1983 6.04784 3.28405C6.00653 3.36981 5.99056 3.46557 6.0018 3.56009C6.01303 3.6546 6.05102 3.74395 6.11128 3.81763C6.17154 3.8913 6.25159 3.94625 6.342 3.976L7.5475 4.376C7.71342 4.43135 7.86628 4.52001 7.99671 4.63655C8.12713 4.75309 8.23238 4.89505 8.30597 5.05372C8.37957 5.21239 8.41998 5.38443 8.42471 5.55927C8.42945 5.73411 8.39841 5.90808 8.3335 6.0705C8.2137 6.36993 8.15867 6.69133 8.17202 7.01355C8.18538 7.33578 8.26683 7.65152 8.411 7.94L9.7 10.5155C9.33125 10.5449 8.97984 10.6844 8.69142 10.916C8.40299 11.1477 8.19088 11.4607 8.08262 11.8144C7.97436 12.1681 7.97497 12.5462 8.08435 12.8996C8.19373 13.253 8.40684 13.5653 8.696 13.796L10.596 15.3165C10.8736 16.247 11.2466 17.1462 11.709 18H7.5C6.8372 18.0008 6.20178 18.2644 5.73311 18.7331C5.26444 19.2018 5.00079 19.8372 5 20.5V22.503C3.81662 22.9974 2.80565 23.8303 2.09401 24.8972C1.38237 25.9641 1.00177 27.2175 1 28.5V31C1 31.1326 1.05268 31.2598 1.14645 31.3536C1.24021 31.4473 1.36739 31.5 1.5 31.5H31.5C31.6326 31.5 31.7598 31.4473 31.8536 31.3536C31.9473 31.2598 32 31.1326 32 31V28.5C31.9982 27.2175 31.6176 25.9641 30.906 24.8972C30.1943 23.8303 29.1834 22.9974 28 22.503ZM20.5 10.5H17.5C17.3674 10.5 17.2402 10.5527 17.1464 10.6464C17.0527 10.7402 17 10.8674 17 11V11.5H16V11C16 10.8674 15.9473 10.7402 15.8536 10.6464C15.7598 10.5527 15.6326 10.5 15.5 10.5H11V9.7675L14.121 7.687C14.7926 7.23833 15.5823 6.99922 16.39 7C17.5455 6.99865 18.6664 6.60539 19.5695 5.8845L20.3865 5.231L21.244 6.518C21.7377 7.25673 22.0008 8.12548 22 9.014V10.5H20.5ZM20 11.5V13C20 13.1326 19.9473 13.2598 19.8536 13.3536C19.7598 13.4473 19.6326 13.5 19.5 13.5H18.5C18.3674 13.5 18.2402 13.4473 18.1464 13.3536C18.0527 13.2598 18 13.1326 18 13V11.5H20ZM15 11.5V13C15 13.1326 14.9473 13.2598 14.8536 13.3536C14.7598 13.4473 14.6326 13.5 14.5 13.5H13.5C13.3674 13.5 13.2402 13.4473 13.1464 13.3536C13.0527 13.2598 13 13.1326 13 13V11.5H15ZM24 12.35C24.0003 12.4776 23.9717 12.6035 23.9165 12.7185C23.8612 12.8335 23.7807 12.9345 23.681 13.014L22.7745 13.739C22.9066 12.9997 22.9794 12.2509 22.992 11.5H23.15C23.2616 11.5 23.3722 11.522 23.4753 11.5647C23.5784 11.6074 23.6721 11.67 23.751 11.749C23.83 11.8279 23.8926 11.9216 23.9353 12.0247C23.978 12.1278 24 12.2384 24 12.35ZM9.2615 6.442C9.37702 6.15311 9.4323 5.84367 9.42395 5.53265C9.41559 5.22164 9.34378 4.91561 9.21292 4.63333C9.08207 4.35106 8.89492 4.0985 8.66296 3.89115C8.431 3.6838 8.15912 3.52602 7.864 3.4275L7.711 3.3775C10.0207 2.14439 12.5987 1.49954 15.217 1.5H19.462C20.1328 1.50013 20.7938 1.66191 21.3888 1.97164C21.9839 2.28138 22.4956 2.72994 22.8805 3.27936C23.2654 3.82878 23.5123 4.46286 23.6002 5.12793C23.6881 5.79299 23.6145 6.46944 23.3855 7.1L22.951 8.295C22.8424 7.46014 22.543 6.66151 22.076 5.961L20.916 4.2205C20.8775 4.16285 20.8275 4.11384 20.769 4.07656C20.7106 4.03929 20.645 4.01458 20.5765 4.004C20.508 3.99366 20.4382 3.99751 20.3712 4.01532C20.3043 4.03312 20.2418 4.0645 20.1875 4.1075L18.945 5.104C18.2191 5.68285 17.3185 5.99868 16.39 6C15.3848 5.99909 14.4019 6.29666 13.566 6.855L10.2225 9.084C10.1915 9.10505 10.163 9.12953 10.1375 9.157L9.3055 7.4925C9.22442 7.33043 9.17858 7.15302 9.171 6.97196C9.16341 6.7909 9.19426 6.61028 9.2615 6.442ZM9.3195 13.015C9.18149 12.9051 9.08109 12.7551 9.0322 12.5856C8.98332 12.4161 8.98837 12.2356 9.04667 12.0691C9.10497 11.9026 9.21362 11.7584 9.35756 11.6564C9.5015 11.5544 9.6736 11.4998 9.85 11.5H10.007C10.0196 12.2513 10.0923 13.0003 10.2245 13.74L9.3195 13.015ZM11.008 11.5H12V13C12 13.3978 12.158 13.7794 12.4393 14.0607C12.7206 14.342 13.1022 14.5 13.5 14.5H14.5C14.8978 14.5 15.2794 14.342 15.5607 14.0607C15.842 13.7794 16 13.3978 16 13V12.5H17V13C17 13.3978 17.158 13.7794 17.4393 14.0607C17.7206 14.342 18.1022 14.5 18.5 14.5H19.5C19.8978 14.5 20.2794 14.342 20.5607 14.0607C20.842 13.7794 21 13.3978 21 13V11.5H21.992C21.9532 13.7917 21.3133 16.0331 20.1365 18H12.8635C11.6867 16.0331 11.0468 13.7917 11.008 11.5ZM7.5 19H25.5C25.8978 19 26.2794 19.158 26.5607 19.4393C26.842 19.7206 27 20.1022 27 20.5V30.5H6V20.5C6 20.1022 6.15804 19.7206 6.43934 19.4393C6.72064 19.158 7.10218 19 7.5 19ZM2 28.5C2.00136 27.4869 2.28212 26.4937 2.81141 25.6299C3.34069 24.766 4.09799 24.0648 5 23.6035V30.5H2V28.5ZM31 30.5H28V23.6035C28.902 24.0649 29.6592 24.766 30.1885 25.6299C30.7178 26.4938 30.9986 27.4869 31 28.5V30.5Z" fill="black"/>
<path d="M12.5292 27.4306L13.2362 26.7236L11.5897 25.0771L13.2362 23.4306L12.5292 22.7236L10.5292 24.7236C10.4355 24.8174 10.3828 24.9446 10.3828 25.0771C10.3828 25.2097 10.4355 25.3369 10.5292 25.4306L12.5292 27.4306Z" fill="black"/>
<path d="M20.4648 27.4306L22.4648 25.4306C22.5585 25.3369 22.6112 25.2097 22.6112 25.0771C22.6112 24.9446 22.5585 24.8174 22.4648 24.7236L20.4648 22.7236L19.7578 23.4306L21.4043 25.0771L19.7578 26.7236L20.4648 27.4306Z" fill="black"/>
<path d="M17.6023 22.7769L14.6016 26.7764L15.4014 27.3765L18.4022 23.3771L17.6023 22.7769Z" fill="black"/>
</svg>
