<svg width="80" height="80" viewBox="0 0 80 80" fill="none" xmlns="http://www.w3.org/2000/svg">
<path d="M36.67 43.3333H48.4533L77.56 14.23C80.81 10.98 80.81 5.69 77.56 2.44333C74.3033 -0.81 69.0167 -0.806667 65.7733 2.44333L36.67 31.55V43.3333ZM68.1333 4.79667C70.0867 2.84667 73.2533 2.85 75.2067 4.79667C77.1567 6.74667 77.1567 9.92 75.2067 11.87L71.0433 16.0333L63.97 8.96L68.1333 4.79667ZM40.0067 32.9267L61.6167 11.3167L68.69 18.39L47.08 40H40.01V32.93L40.0067 32.9267ZM69.1733 46.94L78.92 52.4567L70.7067 66.96L60.95 61.4367C57.4033 64.9067 53.0867 67.4233 48.34 68.7933V79.9967H31.6733V68.7933C26.9233 67.4233 22.6067 64.9033 19.06 61.4367L9.30666 66.96L1.09 52.46L10.8367 46.94C10.2867 44.6333 10.0067 42.3 10.0067 40C10.0067 37.7 10.2867 35.3667 10.8367 33.0633L1.09 27.5433L9.30666 13.04L19.06 18.5633C22.6067 15.0933 26.9267 12.5767 31.6733 11.2067V0H48.34V10.4567L45.0067 13.79V3.33333H35.0067V13.8033L33.73 14.1133C28.6867 15.33 24.1367 17.9833 20.5667 21.7867L19.67 22.7433L10.5633 17.5867L5.63333 26.2867L14.73 31.44L14.3767 32.7C13.6867 35.1267 13.3367 37.5833 13.3367 40C13.3367 42.4167 13.6833 44.8767 14.3767 47.3033L14.73 48.5633L5.63333 53.7167L10.5633 62.4167L19.67 57.2567L20.57 58.2133C24.1333 62.02 28.69 64.6733 33.73 65.89L35.0067 66.2V76.6667H45.0067V66.2L46.2833 65.89C51.3233 64.6767 55.8733 62.02 59.44 58.2133L60.34 57.2567L69.45 62.4167L74.3767 53.7167L65.2767 48.5633L65.6367 47.3033C66.3267 44.88 66.6733 42.4233 66.6733 40.0033C66.6733 40.0033 66.6733 40.0033 66.6733 40C66.6733 38.3667 66.4567 36.72 66.14 35.0767L68.9467 32.27L69.17 33.06C69.7233 35.3633 70.0033 37.6933 70.0033 40C70.0033 42.3033 69.7233 44.6367 69.17 46.9433L69.1733 46.94ZM37.6833 23.5667L30.0067 31.2433L30.0167 31.2567C27.96 33.6033 26.6733 36.64 26.6733 39.9967C26.6733 47.35 32.6533 53.33 40.0067 53.33C43.9967 53.33 47.54 51.5333 49.9867 48.75H50.0067L56.44 42.32C55.2967 50.4033 48.4033 56.6633 40.0067 56.6633C30.8167 56.6633 23.34 49.1867 23.34 39.9967C23.34 31.6033 29.6 24.7067 37.6833 23.5633V23.5667Z" fill="black"/>
</svg>
