<svg width="52" height="52" viewBox="0 0 52 52" fill="none" xmlns="http://www.w3.org/2000/svg">
<g clip-path="url(#clip0_1036_13433)">
<path d="M47.6667 24.2665H45.9333C45.2438 24.2665 44.5825 24.5404 44.0949 25.028C43.6073 25.5156 43.3333 26.1769 43.3333 26.8665V27.7331H41.6V23.3998C41.6 22.7102 41.3261 22.0489 40.8385 21.5613C40.3509 21.0737 39.6896 20.7998 39 20.7998H36.4C36.1701 20.7998 35.9497 20.7085 35.7872 20.546C35.6246 20.3834 35.5333 20.163 35.5333 19.9331V18.1998C35.5333 17.5102 35.2594 16.8489 34.7718 16.3613C34.2842 15.8737 33.6229 15.5998 32.9333 15.5998H29.4667V12.9998H33.8C34.4896 12.9998 35.1509 12.7259 35.6385 12.2383C36.1261 11.7507 36.4 11.0894 36.4 10.3998C36.4 9.71024 36.1261 9.04892 35.6385 8.56133C35.1509 8.07373 34.4896 7.7998 33.8 7.7998H16.4667C15.7771 7.7998 15.1158 8.07373 14.6282 8.56133C14.1406 9.04892 13.8667 9.71024 13.8667 10.3998C13.8667 11.0894 14.1406 11.7507 14.6282 12.2383C15.1158 12.7259 15.7771 12.9998 16.4667 12.9998H20.8V15.5998H16.4667C15.7771 15.5998 15.1158 15.8737 14.6282 16.3613C14.1406 16.8489 13.8667 17.5102 13.8667 18.1998C13.8667 18.4297 13.7754 18.6501 13.6128 18.8126C13.4503 18.9752 13.2299 19.0665 13 19.0665H10.4C9.71044 19.0665 9.04912 19.3404 8.56152 19.828C8.07393 20.3156 7.8 20.9769 7.8 21.6665V25.1331H5.2V21.6665C5.2 20.9769 4.92607 20.3156 4.43848 19.828C3.95088 19.3404 3.28956 19.0665 2.6 19.0665C1.91044 19.0665 1.24912 19.3404 0.761522 19.828C0.273928 20.3156 0 20.9769 0 21.6665L0 35.5331C0 36.2227 0.273928 36.884 0.761522 37.3716C1.24912 37.8592 1.91044 38.1331 2.6 38.1331C3.28956 38.1331 3.95088 37.8592 4.43848 37.3716C4.92607 36.884 5.2 36.2227 5.2 35.5331V32.0665H7.8V36.3998C7.8 37.0894 8.07393 37.7507 8.56152 38.2383C9.04912 38.7259 9.71044 38.9998 10.4 38.9998H14.0157C14.2456 38.9999 14.466 39.0912 14.6285 39.2537L18.8127 43.438C19.0535 43.6803 19.3399 43.8724 19.6555 44.0032C19.971 44.1339 20.3094 44.2008 20.6509 44.1998H39C39.6896 44.1998 40.3509 43.9259 40.8385 43.4383C41.3261 42.9507 41.6 42.2894 41.6 41.5998V38.1331H43.3333V38.9998C43.3333 39.6894 43.6073 40.3507 44.0949 40.8383C44.5825 41.3259 45.2438 41.5998 45.9333 41.5998H47.6667C48.8155 41.5984 49.9169 41.1414 50.7293 40.3291C51.5416 39.5167 51.9986 38.4153 52 37.2665V28.5998C51.9986 27.451 51.5416 26.3496 50.7293 25.5372C49.9169 24.7248 48.8155 24.2678 47.6667 24.2665ZM15.6 10.3998C15.6 10.17 15.6913 9.94951 15.8538 9.78698C16.0164 9.62445 16.2368 9.53314 16.4667 9.53314H33.8C34.0299 9.53314 34.2503 9.62445 34.4128 9.78698C34.5754 9.94951 34.6667 10.17 34.6667 10.3998C34.6667 10.6297 34.5754 10.8501 34.4128 11.0126C34.2503 11.1752 34.0299 11.2665 33.8 11.2665H16.4667C16.2368 11.2665 16.0164 11.1752 15.8538 11.0126C15.6913 10.8501 15.6 10.6297 15.6 10.3998ZM22.5333 12.9998H27.7333V15.5998H22.5333V12.9998ZM3.46667 35.5331C3.46667 35.763 3.37536 35.9834 3.21283 36.146C3.05029 36.3085 2.82985 36.3998 2.6 36.3998C2.37015 36.3998 2.14971 36.3085 1.98717 36.146C1.82464 35.9834 1.73333 35.763 1.73333 35.5331V21.6665C1.73333 21.4366 1.82464 21.2162 1.98717 21.0536C2.14971 20.8911 2.37015 20.7998 2.6 20.7998C2.82985 20.7998 3.05029 20.8911 3.21283 21.0536C3.37536 21.2162 3.46667 21.4366 3.46667 21.6665V35.5331ZM5.2 30.3331V26.8665H7.8V30.3331H5.2ZM39.8667 41.5998C39.8667 41.8297 39.7754 42.0501 39.6128 42.2126C39.4503 42.3752 39.2299 42.4665 39 42.4665H20.6509C20.4211 42.4664 20.2007 42.3751 20.0382 42.2125L15.8539 38.0283C15.6131 37.7861 15.3266 37.5941 15.0111 37.4634C14.6956 37.3326 14.3573 37.2657 14.0157 37.2665H10.4C10.1701 37.2665 9.94971 37.1752 9.78717 37.0126C9.62464 36.8501 9.53333 36.6297 9.53333 36.3998V21.6665C9.53333 21.4366 9.62464 21.2162 9.78717 21.0536C9.94971 20.8911 10.1701 20.7998 10.4 20.7998H13C13.6896 20.7998 14.3509 20.5259 14.8385 20.0383C15.3261 19.5507 15.6 18.8894 15.6 18.1998C15.6 17.97 15.6913 17.7495 15.8538 17.587C16.0164 17.4244 16.2368 17.3331 16.4667 17.3331H32.9333C33.1632 17.3331 33.3836 17.4244 33.5462 17.587C33.7087 17.7495 33.8 17.97 33.8 18.1998V19.9331C33.8 20.6227 34.0739 21.284 34.5615 21.7716C35.0491 22.2592 35.7104 22.5331 36.4 22.5331H39C39.2299 22.5331 39.4503 22.6244 39.6128 22.787C39.7754 22.9495 39.8667 23.17 39.8667 23.3998V41.5998ZM41.6 36.3998V29.4665H43.3333V36.3998H41.6ZM50.2667 37.2665C50.2667 37.956 49.9927 38.6174 49.5051 39.1049C49.0175 39.5925 48.3562 39.8665 47.6667 39.8665H45.9333C45.7035 39.8665 45.483 39.7752 45.3205 39.6126C45.158 39.4501 45.0667 39.2297 45.0667 38.9998V26.8665C45.0667 26.6366 45.158 26.4162 45.3205 26.2536C45.483 26.0911 45.7035 25.9998 45.9333 25.9998H47.6667C48.3562 25.9998 49.0175 26.2737 49.5051 26.7613C49.9927 27.2489 50.2667 27.9102 50.2667 28.5998V37.2665Z" fill="black"/>
</g>
<defs>
<clipPath id="clip0_1036_13433">
<rect width="52" height="52" fill="white"/>
</clipPath>
</defs>
</svg>
