<svg width="33" height="32" viewBox="0 0 33 32" fill="none" xmlns="http://www.w3.org/2000/svg">
<g clip-path="url(#clip0_989_14533)">
<path d="M11.6101 7.51381C11.5182 7.79675 11.6087 8.1 11.8406 8.28644L13.9053 9.94594L13.2103 12.5021C13.1323 12.7891 13.2374 13.0876 13.4782 13.2627C13.7191 13.4375 14.0353 13.4452 14.2842 13.2823L16.5005 11.8315L18.7169 13.2824C18.8364 13.3606 18.9713 13.3994 19.106 13.3994C19.252 13.3994 19.3977 13.3537 19.5228 13.2627C19.7637 13.0878 19.8688 12.7891 19.7906 12.5021L19.0957 9.946L21.1603 8.28656C21.3923 8.10019 21.4828 7.79688 21.3908 7.51381C21.2989 7.23069 21.0474 7.0385 20.7502 7.02413L18.1044 6.89512L17.1641 4.41875C17.0586 4.14056 16.798 3.96075 16.5005 3.96075C16.2029 3.96075 15.9423 4.1405 15.8368 4.41869L14.8965 6.89519L12.2509 7.02413C11.9536 7.0385 11.7021 7.23069 11.6101 7.51381ZM15.1349 7.88469C15.4169 7.87094 15.6638 7.6915 15.7639 7.42763L16.5004 5.48794L17.2369 7.42781C17.3371 7.69163 17.5841 7.87094 17.8659 7.88469L19.9382 7.98575L18.321 9.28556C18.1009 9.4625 18.0066 9.75281 18.0807 10.0251L18.625 12.0272L16.889 10.8907C16.771 10.8135 16.6356 10.7749 16.5003 10.7749C16.365 10.7749 16.2296 10.8136 16.1115 10.8908L14.3756 12.0272L14.9199 10.0252C14.994 9.75275 14.8997 9.46237 14.6796 9.28556L13.0624 7.98581L15.1349 7.88469ZM16.0004 2.33488V0.5C16.0004 0.223875 16.2243 0 16.5004 0C16.7765 0 17.0004 0.223875 17.0004 0.5V2.33488C17.0004 2.611 16.7765 2.83488 16.5004 2.83488C16.2243 2.83488 16.0004 2.611 16.0004 2.33488ZM19.0453 5.29725C18.8606 5.09206 18.8771 4.77588 19.0823 4.59113L21.127 2.75C21.3323 2.56519 21.6484 2.58175 21.8332 2.787C22.018 2.99219 22.0014 3.30837 21.7962 3.49312L19.7515 5.33425C19.6559 5.42031 19.5363 5.46269 19.417 5.46269C19.2803 5.46269 19.1441 5.40694 19.0453 5.29725ZM11.1676 2.787C11.3523 2.58175 11.6685 2.56519 11.8738 2.75L13.9185 4.59113C14.1237 4.77588 14.1403 5.09206 13.9555 5.29725C13.8568 5.40687 13.7205 5.46269 13.5838 5.46269C13.4646 5.46269 13.345 5.42031 13.2493 5.33425L11.2046 3.49312C10.9993 3.30837 10.9828 2.99219 11.1676 2.787ZM22.915 8.28644L24.9797 9.94594L24.2848 12.5021C24.2068 12.7891 24.3118 13.0876 24.5526 13.2627C24.7933 13.4375 25.1096 13.4451 25.3586 13.2823L27.575 11.8315L29.7913 13.2824C29.9108 13.3606 30.0458 13.3994 30.1805 13.3994C30.3265 13.3994 30.4721 13.3537 30.5972 13.2627C30.838 13.0879 30.9431 12.7894 30.8651 12.5021L30.1701 9.946L32.2347 8.28656C32.4667 8.10025 32.5572 7.79694 32.4652 7.51381C32.3733 7.23069 32.1218 7.0385 31.8246 7.02413L29.1788 6.89512L28.2386 4.41875C28.1331 4.14056 27.8725 3.96075 27.575 3.96075C27.2773 3.96075 27.0168 4.1405 26.9112 4.41869L25.971 6.89512L23.3254 7.02406C23.028 7.03844 22.7765 7.23069 22.6846 7.51381C22.5926 7.79688 22.6831 8.10019 22.915 8.28644ZM26.2093 7.88469C26.4913 7.87094 26.7383 7.6915 26.8385 7.42756L27.5749 5.48787L28.3113 7.4275C28.4115 7.6915 28.6585 7.87094 28.9404 7.88462L31.0127 7.98569L29.3956 9.28537C29.1755 9.46225 29.0811 9.75262 29.1552 10.025L29.6995 12.0271L27.9635 10.8907C27.8454 10.8134 27.7101 10.7748 27.5748 10.7748C27.4394 10.7748 27.304 10.8135 27.186 10.8907L25.4501 12.0271L25.9944 10.0251C26.0685 9.75281 25.9742 9.4625 25.7541 9.2855L24.1369 7.98569L26.2093 7.88469ZM0.766019 8.28644L2.83071 9.94594L2.13577 12.5021C2.05777 12.7891 2.16283 13.0876 2.40364 13.2627C2.64452 13.4375 2.96071 13.4452 3.20964 13.2823L5.42596 11.8315L7.64233 13.2824C7.76183 13.3606 7.89677 13.3994 8.03146 13.3994C8.17746 13.3994 8.32314 13.3537 8.44821 13.2627C8.68902 13.0879 8.79414 12.7894 8.71608 12.5021L8.02114 9.946L10.0857 8.28656C10.3176 8.10038 10.4081 7.79713 10.3162 7.5135C10.2241 7.23056 9.97258 7.03844 9.67564 7.02406L7.02983 6.89506L6.08964 4.41875C5.98408 4.14056 5.72352 3.96075 5.42596 3.96075C5.12833 3.96075 4.86777 4.1405 4.76221 4.41869L3.82202 6.89512L1.17639 7.02406C0.879081 7.03844 0.627581 7.23069 0.535706 7.5135C0.443519 7.79669 0.533956 8.10012 0.766019 8.28644ZM4.06027 7.88469C4.34233 7.87094 4.58933 7.6915 4.68946 7.42756L5.42589 5.48787L6.16227 7.4275C6.26246 7.6915 6.50946 7.87094 6.79139 7.88462L8.86371 7.98569L7.24664 9.28537C7.02646 9.46225 6.93208 9.75262 7.00621 10.025L7.55052 12.0271L5.81452 10.8907C5.69639 10.8134 5.56108 10.7748 5.42577 10.7748C5.29039 10.7748 5.15502 10.8135 5.03696 10.8907L3.30108 12.0271L3.84539 10.0251C3.91946 9.75281 3.82521 9.4625 3.60508 9.2855L1.98789 7.98569L4.06027 7.88469ZM32.4217 26.5583C32.0699 25.4222 31.3493 24.4021 30.3926 23.6857C29.9346 23.3428 29.4359 23.0756 28.9098 22.8865C29.6392 22.314 30.1092 21.4253 30.1092 20.4282C30.1092 18.7053 28.7075 17.3037 26.9847 17.3037C25.2618 17.3037 23.8601 18.7053 23.8601 20.4282C23.8601 21.4241 24.329 22.3119 25.057 22.8845C24.0813 23.2327 23.217 23.8446 22.555 24.6691C22.2456 24.2363 21.8888 23.8343 21.4876 23.4715C20.6792 22.7404 19.7305 22.2036 18.7088 21.8862C19.7923 21.168 20.5085 19.9382 20.5085 18.5438C20.5085 16.3338 18.7105 14.5358 16.5005 14.5358C14.2905 14.5358 12.4924 16.3338 12.4924 18.5438C12.4924 19.9382 13.2086 21.168 14.292 21.8862C13.2703 22.2035 12.3216 22.7404 11.5132 23.4715C11.112 23.8343 10.7551 24.2363 10.4458 24.6691C9.78396 23.8445 8.91958 23.2326 7.94383 22.8843C8.67177 22.3117 9.14071 21.4239 9.14071 20.428C9.14071 18.7051 7.73902 17.3035 6.01621 17.3035C4.29333 17.3035 2.89164 18.7051 2.89164 20.428C2.89164 21.425 3.36164 22.3138 4.09102 22.8863C3.56489 23.0754 3.06614 23.3426 2.60808 23.6855C1.65139 24.4018 0.930831 25.422 0.579019 26.5581C0.416456 27.0828 0.506519 27.6154 0.832581 28.0578C1.15858 28.5 1.64071 28.7435 2.19008 28.7435H9.10214V29.6459C9.10214 30.944 10.1582 32.0001 11.4563 32.0001H21.5445C22.8425 32.0001 23.8986 30.944 23.8987 29.6459V28.7437H30.8107C31.3601 28.7437 31.8423 28.5002 32.1682 28.058C32.4942 27.6156 32.5843 27.083 32.4217 26.5583ZM26.9847 18.3037C28.1561 18.3037 29.1092 19.2568 29.1092 20.4282C29.1092 21.5997 28.1561 22.5527 26.9847 22.5527C25.8132 22.5527 24.8601 21.5997 24.8601 20.4282C24.8601 19.2568 25.8132 18.3037 26.9847 18.3037ZM13.4924 18.5438C13.4924 16.8851 14.8418 15.5358 16.5005 15.5358C18.1591 15.5358 19.5085 16.8851 19.5085 18.5438C19.5085 20.2019 18.16 21.5509 16.5021 21.5518C16.5015 21.5518 16.5009 21.5518 16.5004 21.5518C16.4999 21.5518 16.4993 21.5518 16.4988 21.5518C14.8409 21.5508 13.4924 20.2018 13.4924 18.5438ZM6.01621 18.3034C7.18764 18.3034 8.14071 19.2565 8.14071 20.4279C8.14071 21.5994 7.18764 22.5525 6.01621 22.5525C4.84471 22.5525 3.89164 21.5994 3.89164 20.4279C3.89164 19.2565 4.84471 18.3034 6.01621 18.3034ZM9.16708 27.7434H2.19014C1.96002 27.7434 1.77414 27.6496 1.63758 27.4643C1.50096 27.2791 1.46627 27.0737 1.53433 26.8539C2.14583 24.8792 3.94702 23.5525 6.01621 23.5525C7.58139 23.5525 9.00721 24.3088 9.88414 25.5889C9.53746 26.2624 9.29464 26.9884 9.16708 27.7434ZM22.8987 29.6458C22.8986 30.3925 22.2911 31 21.5445 31H11.4563C10.7096 31 10.1021 30.3925 10.1021 29.6458V28.2706C10.4641 25.0089 13.2094 22.5526 16.4988 22.5518C16.4993 22.5518 16.4999 22.5518 16.5005 22.5518C16.501 22.5518 16.5016 22.5518 16.5021 22.5518C19.7914 22.5526 22.5366 25.0089 22.8987 28.2706V29.6458ZM31.3633 27.4646C31.2267 27.6498 31.0409 27.7437 30.8107 27.7437H23.8338C23.7062 26.9886 23.4634 26.2626 23.1168 25.5891C23.9938 24.3089 25.4195 23.5527 26.9846 23.5527C29.0538 23.5527 30.855 24.8795 31.4665 26.8542C31.5346 27.0739 31.4998 27.2792 31.3633 27.4646Z" fill="black"/>
</g>
<defs>
<clipPath id="clip0_989_14533">
<rect width="32" height="32" fill="white" transform="translate(0.5)"/>
</clipPath>
</defs>
</svg>
