<svg width="32" height="32" viewBox="0 0 32 32" fill="none" xmlns="http://www.w3.org/2000/svg">
<path d="M28.1053 1.51467C26.2347 0.510667 24.2667 0 22.2547 0H9.74667C7.73467 0 5.76667 0.509333 3.896 1.51467C1.49333 2.80533 0 5.36 0 8.18133V10.032C0 12.6053 2.09333 14.6987 4.66667 14.6987H5.33333V26C5.33333 29.308 8.02533 32 11.3333 32H20.6667C23.9747 32 26.6667 29.308 26.6667 26V14.6667H27.3333C29.9067 14.6667 32 12.5733 32 10V8.18133C32 5.36 30.5067 2.80533 28.1053 1.51467ZM20.6187 1.33333C20.2947 3.592 18.3467 5.33333 16 5.33333C13.6533 5.33333 11.7053 3.592 11.3813 1.33333H20.6187ZM30.6667 10C30.6667 11.8373 29.1707 13.3333 27.3333 13.3333H26.6667V9.33333C26.6667 8.96533 26.368 8.66667 26 8.66667C25.632 8.66667 25.3333 8.96533 25.3333 9.33333V26C25.3333 28.5733 23.24 30.6667 20.6667 30.6667H11.3333C8.76 30.6667 6.66667 28.5733 6.66667 26V9.33333C6.66667 8.96533 6.368 8.66667 6 8.66667C5.632 8.66667 5.33333 8.96533 5.33333 9.33333V13.3653H4.66667C2.82933 13.3653 1.33333 11.8693 1.33333 10.032V8.18133C1.33333 5.85067 2.556 3.74667 4.52667 2.68933C6.20133 1.79067 7.95733 1.33333 9.74667 1.33333H10.0373C10.3707 4.32933 12.9173 6.66667 16 6.66667C19.0827 6.66667 21.6307 4.32933 21.9627 1.33333H22.2533C24.0427 1.33333 25.7987 1.78933 27.4733 2.68933C29.4427 3.74667 30.6667 5.852 30.6667 8.18133V10Z" fill="white"/>
</svg>
