<svg width="33" height="32" viewBox="0 0 33 32" fill="none" xmlns="http://www.w3.org/2000/svg">
<path d="M16.4962 29.9999C13.4136 30.0008 10.4169 28.9843 7.971 27.108C5.52515 25.2317 3.76693 22.6007 2.96915 19.6231C2.17138 16.6455 2.37865 13.4878 3.55882 10.6401C4.73899 7.79232 6.82606 5.41368 9.4962 3.87326C9.64924 3.78625 9.83048 3.7633 10.0004 3.80942C10.1703 3.85555 10.315 3.967 10.403 4.11946C10.4911 4.27192 10.5152 4.45301 10.4702 4.6232C10.4252 4.7934 10.3147 4.93889 10.1629 5.02792C7.7469 6.42159 5.85848 8.57369 4.79062 11.1503C3.72276 13.7269 3.53518 16.5839 4.25699 19.278C4.9788 21.9721 6.56964 24.3526 8.78264 26.0502C10.9956 27.7478 13.7071 28.6675 16.4962 28.6666C16.673 28.6666 16.8426 28.7368 16.9676 28.8619C17.0926 28.9869 17.1629 29.1564 17.1629 29.3333C17.1629 29.5101 17.0926 29.6796 16.9676 29.8047C16.8426 29.9297 16.673 29.9999 16.4962 29.9999Z" fill="black"/>
<path d="M23.1693 28.216C23.0225 28.216 22.8799 28.1676 22.7634 28.0782C22.647 27.9889 22.5633 27.8636 22.5254 27.7219C22.4874 27.5801 22.4972 27.4298 22.5534 27.2942C22.6095 27.1586 22.7089 27.0454 22.8359 26.972C25.2519 25.5783 27.1403 23.4262 28.2082 20.8496C29.276 18.273 29.4636 15.416 28.7418 12.7219C28.02 10.0278 26.4292 7.6473 24.2162 5.94972C22.0032 4.25214 19.2917 3.33244 16.5026 3.33333C16.3258 3.33333 16.1562 3.2631 16.0312 3.13807C15.9062 3.01305 15.8359 2.84348 15.8359 2.66667C15.8359 2.48986 15.9062 2.32029 16.0312 2.19526C16.1562 2.07024 16.3258 2 16.5026 2C19.5852 1.99912 22.582 3.01567 25.0278 4.89193C27.4737 6.76818 29.2319 9.39924 30.0297 12.3768C30.8274 15.3544 30.6201 18.5121 29.44 21.3598C28.2598 24.2076 26.1727 26.5862 23.5026 28.1267C23.4013 28.1852 23.2863 28.216 23.1693 28.216Z" fill="black"/>
<path d="M23.1693 28.216C23.0225 28.216 22.8799 28.1676 22.7634 28.0782C22.647 27.9889 22.5633 27.8636 22.5254 27.7219C22.4874 27.5801 22.4972 27.4298 22.5534 27.2942C22.6095 27.1586 22.7089 27.0454 22.8359 26.972C25.2519 25.5783 27.1403 23.4262 28.2082 20.8496C29.276 18.273 29.4636 15.416 28.7418 12.7219C28.02 10.0278 26.4292 7.6473 24.2162 5.94972C22.0032 4.25214 19.2917 3.33244 16.5026 3.33333C16.3258 3.33333 16.1562 3.2631 16.0312 3.13807C15.9062 3.01305 15.8359 2.84348 15.8359 2.66667C15.8359 2.48986 15.9062 2.32029 16.0312 2.19526C16.1562 2.07024 16.3258 2 16.5026 2C19.5852 1.99912 22.582 3.01567 25.0278 4.89193C27.4737 6.76818 29.2319 9.39924 30.0297 12.3768C30.8274 15.3544 30.6201 18.5121 29.44 21.3598C28.2598 24.2076 26.1727 26.5862 23.5026 28.1267C23.4013 28.1852 23.2863 28.216 23.1693 28.216Z" fill="black"/>
<path d="M16.4962 29.9999C13.4136 30.0008 10.4169 28.9843 7.971 27.108C5.52515 25.2317 3.76693 22.6007 2.96915 19.6231C2.17138 16.6455 2.37865 13.4878 3.55882 10.6401C4.73899 7.79232 6.82606 5.41368 9.4962 3.87326C9.64924 3.78625 9.83048 3.7633 10.0004 3.80942C10.1703 3.85555 10.315 3.967 10.403 4.11946C10.4911 4.27192 10.5152 4.45301 10.4702 4.6232C10.4252 4.7934 10.3147 4.93889 10.1629 5.02792C7.7469 6.42159 5.85848 8.57369 4.79062 11.1503C3.72276 13.7269 3.53518 16.5839 4.25699 19.278C4.9788 21.9721 6.56964 24.3526 8.78264 26.0502C10.9956 27.7478 13.7071 28.6675 16.4962 28.6666C16.673 28.6666 16.8426 28.7368 16.9676 28.8619C17.0926 28.9869 17.1629 29.1564 17.1629 29.3333C17.1629 29.5101 17.0926 29.6796 16.9676 29.8047C16.8426 29.9297 16.673 29.9999 16.4962 29.9999Z" fill="black"/>
<path d="M9.831 8.66661C9.65419 8.66661 9.48462 8.59637 9.3596 8.47135C9.23457 8.34633 9.16433 8.17676 9.16433 7.99995V5.04861L5.75567 4.66261C5.57992 4.64263 5.4193 4.55365 5.30915 4.41525C5.19901 4.27685 5.14835 4.10036 5.16833 3.92461C5.18831 3.74886 5.27729 3.58825 5.41569 3.4781C5.55409 3.36795 5.73058 3.3173 5.90633 3.33728L9.90633 3.79128C10.069 3.80978 10.2191 3.88747 10.3282 4.00956C10.4372 4.13164 10.4976 4.28958 10.4977 4.45328V7.99995C10.4977 8.17676 10.4274 8.34633 10.3024 8.47135C10.1774 8.59637 10.0078 8.66661 9.831 8.66661Z" fill="black"/>
<path d="M27.1667 28.6663C27.1413 28.6663 27.1159 28.665 27.0907 28.6623L23.0907 28.2083C22.9281 28.1897 22.7781 28.1119 22.6692 27.9899C22.5603 27.8678 22.5001 27.7099 22.5 27.5463V23.9997C22.5 23.8229 22.5702 23.6533 22.6953 23.5283C22.8203 23.4032 22.9899 23.333 23.1667 23.333C23.3435 23.333 23.513 23.4032 23.6381 23.5283C23.7631 23.6533 23.8333 23.8229 23.8333 23.9997V26.951L27.242 27.337C27.4117 27.3557 27.5677 27.4387 27.678 27.569C27.7883 27.6993 27.8444 27.867 27.8347 28.0374C27.8251 28.2078 27.7504 28.3681 27.6261 28.4851C27.5018 28.6021 27.3374 28.667 27.1667 28.6663Z" fill="black"/>
<path d="M16.5026 24.6663C14.7885 24.6663 13.1129 24.1581 11.6877 23.2057C10.2624 22.2534 9.15161 20.8999 8.49565 19.3163C7.83969 17.7326 7.66806 15.9901 8.00247 14.3089C8.33687 12.6277 9.16229 11.0835 10.3743 9.87142C11.5864 8.65936 13.1307 7.83394 14.8118 7.49954C16.493 7.16513 18.2356 7.33676 19.8192 7.99272C21.4028 8.64868 22.7564 9.75951 23.7087 11.1847C24.661 12.61 25.1693 14.2856 25.1693 15.9997C25.1666 18.2974 24.2527 20.5003 22.6279 22.125C21.0032 23.7498 18.8003 24.6637 16.5026 24.6663ZM16.5026 8.66635C15.0522 8.66635 13.6344 9.09644 12.4284 9.90223C11.2225 10.708 10.2825 11.8533 9.72749 13.1933C9.17245 14.5333 9.02722 16.0078 9.31018 17.4303C9.59314 18.8529 10.2916 20.1595 11.3172 21.1851C12.3427 22.2107 13.6494 22.9091 15.0719 23.1921C16.4945 23.4751 17.969 23.3298 19.309 22.7748C20.6489 22.2198 21.7943 21.2798 22.6001 20.0739C23.4058 18.8679 23.8359 17.4501 23.8359 15.9997C23.8336 14.0555 23.0603 12.1915 21.6855 10.8168C20.3108 9.44199 18.4468 8.66864 16.5026 8.66635Z" fill="black"/>
<path d="M19.1693 19.3333C18.9925 19.3333 18.8229 19.263 18.6979 19.138L16.0313 16.4713C15.9062 16.3463 15.836 16.1768 15.8359 16V12.6667C15.8359 12.4899 15.9062 12.3203 16.0312 12.1953C16.1562 12.0702 16.3258 12 16.5026 12C16.6794 12 16.849 12.0702 16.974 12.1953C17.099 12.3203 17.1693 12.4899 17.1693 12.6667V15.724L19.6406 18.1953C19.7338 18.2886 19.7973 18.4073 19.823 18.5366C19.8487 18.6659 19.8355 18.8 19.7851 18.9218C19.7346 19.0436 19.6492 19.1477 19.5396 19.2209C19.43 19.2942 19.3011 19.3333 19.1693 19.3333Z" fill="black"/>
</svg>
