<svg width="52" height="52" viewBox="0 0 52 52" fill="none" xmlns="http://www.w3.org/2000/svg">
<path fill-rule="evenodd" clip-rule="evenodd" d="M7.46115 38.6038H1.97974C1.74829 38.6038 1.52765 38.5055 1.37297 38.3333C1.2183 38.1611 1.14397 37.9313 1.16875 37.7011C1.92295 30.678 6.98795 24.9448 13.6642 23.2046C10.8913 21.6876 9.00413 18.7403 9.00413 15.3673C9.00413 10.4527 13.0104 6.44202 17.9251 6.44202C22.8443 6.44202 26.8502 10.4528 26.8502 15.3673C26.8502 18.7404 24.9629 21.6879 22.1885 23.2048C28.2868 24.7941 33.039 29.7128 34.39 35.9026H35.8696L37.4444 31.0561C37.6198 30.5161 38.123 30.1506 38.6907 30.1506C39.2584 30.1506 39.7616 30.5161 39.9371 31.0561L41.5118 35.9026H46.6077C47.1755 35.9026 47.6787 36.2682 47.854 36.8081C48.0295 37.3481 47.8373 37.9396 47.378 38.2733L43.2553 41.2687L44.8301 46.1152C45.0055 46.6551 44.8133 47.2466 44.354 47.5803C43.8947 47.9141 43.2727 47.9141 42.8134 47.5803L38.6907 44.585L34.568 47.5803C34.1087 47.9141 33.4867 47.9141 33.0274 47.5803C32.5681 47.2466 32.3759 46.6551 32.5514 46.1152L34.126 41.2687L30.4583 38.6038H28.3889C28.5581 38.7556 28.6598 38.9748 28.6598 39.211V41.8949C28.6598 42.2323 28.4521 42.5349 28.1372 42.6562L26.8833 43.1387C26.6908 43.8055 26.4234 44.448 26.0882 45.0558L26.6331 46.2863C26.7697 46.5945 26.7026 46.955 26.4642 47.1934L24.5668 49.0907C24.3284 49.3291 23.9679 49.3963 23.6597 49.2597L22.4306 48.7153C21.8235 49.0515 21.1795 49.318 20.512 49.5101L20.0296 50.7637C19.9083 51.0786 19.6058 51.2864 19.2683 51.2864H16.5845C16.247 51.2864 15.9444 51.0786 15.8233 50.7637L15.3408 49.5102C14.6721 49.3177 14.0291 49.0501 13.4209 48.7147L12.1904 49.2597C11.8822 49.3963 11.5216 49.3291 11.2833 49.0907L9.38597 47.1934C9.14728 46.9547 9.08019 46.5937 9.21733 46.2852C9.21733 46.2852 9.76363 45.0565 9.76373 45.0566C9.42757 44.4497 9.16115 43.8062 8.96773 43.139L7.71289 42.6562C7.39804 42.5349 7.19024 42.2323 7.19024 41.8949V39.211C7.19024 38.9748 7.292 38.7556 7.46115 38.6038ZM17.9251 24.2924C10.3861 24.2924 4.12704 29.7756 2.91513 36.9725H9.31704C9.44868 36.6563 9.59774 36.3474 9.76394 36.0472L9.21733 34.818C9.08019 34.5096 9.14728 34.1485 9.38597 33.9099L11.2833 32.0125C11.5219 31.7738 11.883 31.7068 12.1914 31.8439L13.4206 32.3904C14.0288 32.0542 14.6715 31.7878 15.3384 31.5958L15.8235 30.3388C15.9449 30.0242 16.2473 29.8167 16.5845 29.8167H19.2683C19.6059 29.8167 19.9086 30.0247 20.0298 30.3399L20.5123 31.596C21.1791 31.788 21.8216 32.0543 22.4295 32.3904L23.6586 31.8439C23.9671 31.7068 24.3281 31.7738 24.5668 32.0125L26.4642 33.9099C26.7026 34.1482 26.7697 34.5087 26.6331 34.817C26.6331 34.817 26.0886 36.0465 26.0885 36.0465C26.2548 36.347 26.4038 36.6561 26.5354 36.9725H29.4854C29.4957 36.9174 29.5097 36.8625 29.5273 36.8081C29.7028 36.2682 30.206 35.9026 30.7737 35.9026H32.7159C31.096 29.2391 25.0894 24.2924 17.9251 24.2924ZM31.7613 37.5339L35.2736 40.0858C35.7329 40.4195 35.9251 41.0111 35.7497 41.551L34.4081 45.6801L37.9204 43.1282C38.3797 42.7945 39.0017 42.7945 39.461 43.1281L42.9734 45.6801L41.6318 41.551C41.4563 41.0111 41.6485 40.4195 42.1078 40.0858L45.6202 37.5339H41.2787C40.711 37.5339 40.2078 37.1684 40.0323 36.6284L38.6907 32.4994L37.3491 36.6284C37.1736 37.1684 36.6705 37.5339 36.1028 37.5339H31.7613ZM17.9251 22.661C21.9451 22.661 25.2188 19.3835 25.2188 15.3673C25.2188 11.351 21.9451 8.0734 17.9251 8.0734C13.9089 8.0734 10.6355 11.3511 10.6355 15.3673C10.6355 19.3833 13.9089 22.661 17.9251 22.661ZM19.1393 32.571L18.7079 31.4481H17.1441L16.7103 32.5721C16.6136 32.8228 16.3994 33.0098 16.1379 33.072C15.3468 33.2601 14.5923 33.5726 13.8988 33.9999C13.6696 34.1412 13.3855 34.1602 13.1395 34.0509L12.0406 33.5623L10.9357 34.6672L11.4243 35.766C11.5337 36.0121 11.5146 36.2961 11.3734 36.5253C10.9457 37.2194 10.6329 37.9746 10.4424 38.7689C10.3797 39.0299 10.1927 39.2434 9.94216 39.3399L8.82162 39.7711V41.3347L9.94216 41.766C10.1925 41.8624 10.3795 42.0756 10.4422 42.3364C10.6327 43.1279 10.9452 43.8854 11.3727 44.5768C11.5145 44.8061 11.5339 45.0908 11.4243 45.3371L10.9357 46.436L12.0412 47.5416L13.1406 47.0546C13.3857 46.946 13.6684 46.9648 13.897 47.1049C14.591 47.5301 15.3459 47.8455 16.1401 48.0338C16.4021 48.0959 16.6165 48.2832 16.7133 48.5345L17.1446 49.655H18.7082L19.1395 48.5345C19.2362 48.2834 19.4504 48.0961 19.7121 48.0339C20.5029 47.846 21.2595 47.5338 21.9502 47.1066C22.1792 46.965 22.4634 46.9455 22.7096 47.0546L23.8088 47.5416L24.915 46.4354L24.428 45.3361C24.3195 45.091 24.3383 44.8082 24.4783 44.5796C24.9036 43.8856 25.2192 43.1306 25.4073 42.3387C25.4696 42.0769 25.6568 41.8627 25.9079 41.766L27.0284 41.3347V39.7711L25.9079 39.3399C25.6567 39.2431 25.4693 39.0286 25.4072 38.7667C25.2192 37.9732 24.9066 37.2187 24.4794 36.5253C24.3384 36.2966 24.3191 36.0129 24.428 35.7671L24.915 34.6677L23.8094 33.5623L22.7106 34.0509C22.4646 34.1602 22.1805 34.1412 21.9513 33.9999C21.2578 33.5726 20.5033 33.2601 19.7121 33.072C19.4502 33.0097 19.2359 32.8223 19.1393 32.571ZM17.9251 35.0548C20.9622 35.0548 23.4246 37.5145 23.4246 40.5516C23.4246 43.5886 20.962 46.0511 17.9251 46.0511C14.888 46.0511 12.4282 43.5887 12.4282 40.5516C12.4282 37.5144 14.8878 35.0548 17.9251 35.0548ZM17.9251 36.6861C15.7892 36.6861 14.0595 38.4157 14.0595 40.5516C14.0595 42.6876 15.7891 44.4198 17.9251 44.4198C20.0612 44.4198 21.7933 42.6877 21.7933 40.5516C21.7933 38.4156 20.0611 36.6861 17.9251 36.6861ZM48.7185 7.96073C47.5652 6.6021 45.0329 3.61893 44.1451 2.57302L39.5718 7.96073H41.2168C41.6674 7.96073 42.0325 8.32595 42.0325 8.77642V23.1678C42.0325 23.6179 41.6671 23.9835 41.2168 23.9835C40.7666 23.9835 40.4011 23.6179 40.4011 23.1678V9.5921H38.668C38.1789 9.5921 37.768 9.32751 37.5654 8.88572C37.3637 8.44871 37.4285 7.95838 37.7456 7.59112L43.2191 1.14302C43.4535 0.864157 43.7715 0.713867 44.1451 0.713867C44.5086 0.713867 44.8265 0.858957 45.0662 1.13731C45.0675 1.13884 45.0688 1.14027 45.07 1.14169L50.5465 7.59337C50.858 7.9594 50.9238 8.44933 50.7223 8.88572C50.519 9.32904 50.1052 9.5921 49.6222 9.5921H47.8866V18.65C47.8866 19.1001 47.521 19.4657 47.0709 19.4657C46.6206 19.4657 46.2552 19.1001 46.2552 18.65V8.77642C46.2552 8.32595 46.6203 7.96073 47.0709 7.96073H48.7185ZM46.2552 20.9088C46.2552 20.4587 46.6206 20.0931 47.0709 20.0931C47.521 20.0931 47.8866 20.4587 47.8866 20.9088V23.1678C47.8866 23.6179 47.521 23.9835 47.0709 23.9835C46.6206 23.9835 46.2552 23.6179 46.2552 23.1678V20.9088ZM46.2552 25.4266C46.2552 24.9765 46.6206 24.6109 47.0709 24.6109C47.521 24.6109 47.8866 24.9765 47.8866 25.4266V27.6299C47.8866 28.08 47.521 28.4456 47.0709 28.4456C46.6206 28.4456 46.2552 28.08 46.2552 27.6299V25.4266ZM42.0325 27.6299C42.0325 28.08 41.6671 28.4456 41.2168 28.4456C40.7666 28.4456 40.4011 28.08 40.4011 27.6299V25.4266C40.4011 24.9765 40.7666 24.6109 41.2168 24.6109C41.6671 24.6109 42.0325 24.9765 42.0325 25.4266V27.6299ZM36.902 16.7998C35.8934 15.6117 34.0088 13.3915 33.2235 12.4663L29.5448 16.7998H30.7087C31.1592 16.7998 31.5244 17.165 31.5244 17.6155V24.9997C31.5244 25.4499 31.1589 25.8154 30.7087 25.8154C30.2586 25.8154 29.893 25.4499 29.893 24.9997V18.4312H28.5198C28.0534 18.4312 27.6615 18.1788 27.4683 17.7575C27.2759 17.3407 27.3379 16.873 27.6401 16.5228C27.6401 16.5228 32.3403 10.9858 32.3402 10.9858C32.5639 10.7199 32.867 10.5764 33.2235 10.5764C33.57 10.5764 33.8732 10.7147 34.1018 10.9801C34.103 10.9816 34.1043 10.9831 34.1055 10.9845L38.8085 16.5248C39.1056 16.874 39.1685 17.3413 38.9764 17.7575C38.7825 18.1804 38.3877 18.4312 37.9271 18.4312H36.5517V29.8476C36.5517 30.2978 36.1862 30.6633 35.736 30.6633C35.2858 30.6633 34.9203 30.2978 34.9203 29.8476V17.6155C34.9203 17.165 35.2855 16.7998 35.736 16.7998H36.902Z" fill="black"/>
</svg>
