<svg width="52" height="52" viewBox="0 0 52 52" fill="none" xmlns="http://www.w3.org/2000/svg">
<g clip-path="url(#clip0_1036_13331)">
<path d="M37.0855 33.8923L29.2313 38.467C28.9308 38.642 28.6264 38.7767 28.3125 38.872C28.4091 38.6785 28.4882 38.4689 28.5485 38.2445C28.9658 36.6865 28.0418 35.0605 26.4447 34.5428C26.4099 34.5316 26.3744 34.5226 26.3384 34.5161C24.0909 34.1108 21.8682 33.3072 20.0822 32.6616C19.4591 32.4363 18.8706 32.2235 18.3692 32.0609C16.3151 31.3946 14.4692 32.2133 12.9339 33.102L7.19159 36.4266L6.6982 35.5548C6.16337 34.6101 4.95955 34.2764 4.01492 34.8111L1.81132 36.0582C0.866482 36.5929 0.532748 37.7966 1.06758 38.7415L7.54635 50.1892C7.80483 50.6458 8.22662 50.9747 8.73433 51.1155C8.90993 51.1641 9.08807 51.1882 9.2653 51.1882C9.60035 51.1882 9.93104 51.102 10.2296 50.933L12.4333 49.6857C13.3782 49.1509 13.7118 47.9471 13.177 47.0025L12.5655 45.922L13.7568 45.2342L23.7701 47.9172C24.3353 48.0687 24.8977 48.1439 25.4508 48.1439C26.5697 48.1439 27.6507 47.8357 28.6391 47.2274L42.8925 38.4506C44.2428 37.6193 44.6733 35.528 43.7959 34.0629C43.371 33.3535 41.6311 31.245 37.0855 33.8923ZM11.6329 48.2715L9.42922 49.5188C9.26722 49.6105 9.05242 49.5512 8.96051 49.3889L2.48183 37.9413C2.39002 37.779 2.44944 37.5644 2.61163 37.4726L4.81533 36.2254C4.86723 36.1961 4.92441 36.1821 4.98129 36.1821C5.10225 36.1821 5.22158 36.245 5.28404 36.3554L11.7628 47.803C11.8546 47.965 11.7952 48.1797 11.6329 48.2715ZM42.0405 37.067L27.7871 45.8437C26.6848 46.5222 25.4747 46.6917 24.1908 46.3475L13.8524 43.5773C13.6443 43.5216 13.4225 43.5507 13.2359 43.6585L11.7652 44.5075L7.99221 37.8409L13.7485 34.5082C15.0353 33.7631 16.4252 33.1385 17.868 33.6065C18.344 33.7608 18.8935 33.9596 19.5299 34.1896C21.3579 34.8505 23.6293 35.6716 25.9904 36.1044C26.7482 36.3734 27.1718 37.1043 26.9789 37.8238C26.7249 38.7716 25.9279 38.8892 25.2923 38.8171C24.1423 38.5802 23.0472 38.2677 21.8886 37.9369C21.3364 37.7792 20.7655 37.6162 20.1783 37.4588C19.7449 37.3428 19.2994 37.6 19.1832 38.0333C19.067 38.4667 19.3244 38.9123 19.7577 39.0284C20.3321 39.1823 20.8965 39.3435 21.4423 39.4994C22.6433 39.8424 23.7777 40.1663 25.0013 40.4165C25.0066 40.4176 25.0117 40.4179 25.017 40.4189C25.0226 40.4199 25.028 40.4216 25.0336 40.4225L26.0105 40.5812C27.4992 40.8193 28.8199 40.587 30.0491 39.8711L37.9034 35.2964C40.1025 34.0157 41.7842 33.8665 42.4018 34.8978C42.8237 35.6024 42.6414 36.6971 42.0405 37.067ZM5.39779 38.3357C5.46066 38.7657 5.16308 39.1651 4.73307 39.228C4.30315 39.2909 3.90361 38.9933 3.84074 38.5633C3.77787 38.1334 4.07545 37.7338 4.50547 37.671C4.93548 37.6081 5.33493 37.9058 5.39779 38.3357ZM23.2953 11.7673C22.5099 11.7673 21.8194 12.2689 21.5767 13.016C21.3335 13.7645 21.5984 14.5773 22.2359 15.0387L25.3293 17.2771C25.3997 17.3281 25.4228 17.3988 25.3957 17.4814L24.2086 21.1108C23.9641 21.8588 24.2277 22.6721 24.8642 23.1344C25.1821 23.3654 25.5543 23.4807 25.9264 23.4807C26.2998 23.4807 26.6731 23.3646 26.9914 23.1324L30.0763 20.8821C30.1465 20.8308 30.2209 20.831 30.291 20.8821L33.3757 23.1324C34.0116 23.5962 34.8666 23.5969 35.5032 23.1343C36.1396 22.6718 36.4029 21.8585 36.1584 21.1106L34.9715 17.4814C34.9445 17.3988 34.9674 17.3282 35.0378 17.2772L38.1312 15.0388C38.7688 14.5775 39.0338 13.7646 38.7905 13.0161C38.5476 12.2689 37.8574 11.7674 37.0719 11.7674C37.0707 11.7674 37.0696 11.7674 37.0683 11.7674L33.2499 11.7747C33.2498 11.7747 33.2496 11.7747 33.2494 11.7747C33.1626 11.7747 33.1029 11.7312 33.0762 11.6485L31.9032 8.0148C31.6614 7.26588 30.9703 6.76274 30.1832 6.76274C29.3964 6.76284 28.7053 7.26598 28.4635 8.0148L27.2906 11.6485C27.2638 11.7311 27.2039 11.7747 27.1172 11.7747C27.117 11.7747 27.1168 11.7747 27.1167 11.7747L23.2984 11.7674C23.2978 11.7673 23.2966 11.7673 23.2953 11.7673ZM27.1176 13.3998C27.9047 13.3998 28.5955 12.897 28.8375 12.1478L30.0105 8.51409C30.0372 8.43152 30.0972 8.38774 30.1838 8.38774C30.2706 8.38774 30.3305 8.43131 30.3572 8.51388L31.5302 12.1476C31.7719 12.897 32.4628 13.3999 33.25 13.3999H33.2535L37.072 13.3925H37.0725C37.159 13.3925 37.2188 13.4361 37.2456 13.5185C37.2724 13.6009 37.2494 13.6714 37.1791 13.7223L34.0858 15.9607C33.4468 16.423 33.1824 17.2371 33.4275 17.9867L34.6144 21.6156C34.6415 21.6982 34.6185 21.7688 34.5485 21.8198C34.4784 21.8709 34.404 21.8706 34.334 21.8196L31.2492 19.5694C30.6123 19.1047 29.7562 19.1047 29.119 19.5694L26.0342 21.8197C25.9642 21.8709 25.8899 21.8708 25.8197 21.8198C25.7496 21.7688 25.7266 21.6982 25.7537 21.6159L26.9406 17.9867C27.1857 17.2374 26.9213 16.4233 26.2825 15.9609L23.1891 13.7223C23.1188 13.6715 23.0958 13.6009 23.1227 13.5183C23.1495 13.4359 23.2093 13.3924 23.2957 13.3924H23.2963L27.1146 13.3998H27.1176ZM29.3712 4.59997V1.625C29.3712 1.1763 29.735 0.8125 30.1837 0.8125C30.6324 0.8125 30.9962 1.1763 30.9962 1.625V4.59997C30.9962 5.04867 30.6324 5.41247 30.1837 5.41247C29.735 5.41247 29.3712 5.04877 29.3712 4.59997ZM37.05 8.25652C36.7327 7.93924 36.7327 7.42483 37.05 7.10755L39.1536 5.00388C39.4712 4.6866 39.9855 4.6867 40.3027 5.00388C40.62 5.32116 40.62 5.83558 40.3027 6.15286L38.199 8.25652C38.0404 8.41516 37.8324 8.49448 37.6245 8.49448C37.4165 8.49459 37.2086 8.41516 37.05 8.25652ZM20.0649 6.15296C19.7477 5.83568 19.7477 5.32127 20.0649 5.00398C20.3822 4.6868 20.8965 4.6866 21.214 5.00398L23.3177 7.10765C23.635 7.42493 23.635 7.93934 23.3177 8.25662C23.159 8.41527 22.9511 8.49459 22.7431 8.49459C22.5352 8.49459 22.3272 8.41527 22.1686 8.25662L20.0649 6.15296ZM51.109 20.4288C50.8966 19.7744 50.2922 19.3354 49.6046 19.3354C49.6035 19.3354 49.6024 19.3354 49.6012 19.3354L46.6774 19.341L45.7792 16.5584C45.5676 15.9028 44.9625 15.4623 44.2734 15.4623C43.5844 15.4624 42.9794 15.9029 42.7677 16.5584L41.8695 19.341L38.9457 19.3354C38.9445 19.3354 38.9436 19.3354 38.9425 19.3354C38.2549 19.3354 37.6505 19.7743 37.4378 20.4288C37.2249 21.084 37.4569 21.7956 38.0151 22.1995L40.3838 23.9136L39.4751 26.6926C39.2609 27.3474 39.4914 28.0596 40.0488 28.4645C40.3271 28.6667 40.653 28.7678 40.9789 28.7678C41.3058 28.7678 41.6328 28.6661 41.9114 28.4628L44.2736 26.7397L46.6358 28.4628C47.1925 28.8689 47.9411 28.8694 48.4984 28.4645C49.0556 28.0596 49.2862 27.3475 49.0721 26.6927L48.1633 23.9137L50.532 22.1996C51.09 21.7956 51.322 21.0839 51.109 20.4288ZM47.1854 22.6153C46.6258 23.0201 46.3942 23.7329 46.6089 24.3891L47.4863 27.072L45.2059 25.4085C44.6481 25.0015 43.8987 25.0016 43.3409 25.4085L41.0606 27.072L41.938 24.389C42.1525 23.7329 41.9209 23.0201 41.3616 22.6154L39.0747 20.9607L41.8974 20.9661H41.9005C42.5895 20.9661 43.1944 20.5259 43.4062 19.8699L44.2734 17.1837L45.1404 19.87C45.3523 20.526 45.9571 20.9662 46.6462 20.9662H46.6492L49.472 20.9608L47.1854 22.6153ZM9.7855 22.1995L12.1542 23.9136L11.2455 26.6926C11.0313 27.3474 11.2618 28.0596 11.8192 28.4645C12.0976 28.6668 12.4235 28.7679 12.7493 28.7679C13.0762 28.7679 13.4031 28.6662 13.6817 28.4628L16.044 26.7397L18.4062 28.4628C18.9628 28.8689 19.7114 28.8694 20.2688 28.4645C20.826 28.0596 21.0566 27.3475 20.8425 26.6927L19.9337 23.9137L22.3024 22.1996C22.8606 21.7957 23.0925 21.0842 22.8797 20.4287C22.667 19.7744 22.0626 19.3355 21.3752 19.3355C21.3741 19.3355 21.373 19.3355 21.3718 19.3355L18.448 19.3411L17.5499 16.5585C17.3382 15.9029 16.7331 15.4624 16.044 15.4624C15.355 15.4625 14.75 15.903 14.5383 16.5585L13.6401 19.3411L10.7164 19.3355C10.7152 19.3355 10.7143 19.3355 10.7132 19.3355C10.0256 19.3355 9.42109 19.7744 9.20842 20.4289C8.99534 21.084 9.22741 21.7956 9.7855 22.1995ZM13.6679 20.9661H13.671C14.3603 20.9661 14.9652 20.5258 15.1767 19.8699L16.0439 17.1837L16.9109 19.87C17.1228 20.526 17.7276 20.9662 18.4167 20.9662H18.4197L21.2425 20.9608L18.9556 22.6155C18.3962 23.0203 18.1646 23.7331 18.3793 24.3892L19.2567 27.0721L16.9763 25.4086C16.6974 25.2052 16.3706 25.1034 16.0438 25.1034C15.717 25.1034 15.3901 25.2052 15.1112 25.4086L12.8308 27.0721L13.7082 24.3892C13.9227 23.7331 13.6912 23.0203 13.1319 22.6156L10.845 20.9609L13.6679 20.9661Z" fill="black"/>
</g>
<defs>
<clipPath id="clip0_1036_13331">
<rect width="52" height="52" fill="white"/>
</clipPath>
</defs>
</svg>
