<svg width="52" height="52" viewBox="0 0 52 52" fill="none" xmlns="http://www.w3.org/2000/svg">
<path d="M24.0301 0.866741C9.84826 2.4425 2.36342 20.9576 13.9452 31.594C16.2301 33.7213 19.9331 37.897 20.2483 42.8607C18.8301 43.3334 18.1998 44.8304 18.7513 46.1698C18.9877 46.8001 19.618 47.3516 20.2483 47.5092C20.0119 48.0607 19.9331 48.691 20.0907 49.2425C20.4058 50.2667 21.4301 51.0546 22.6119 51.0546H29.3089C30.4907 51.0546 31.5149 50.3455 31.8301 49.2425C31.9877 48.6122 31.9877 48.0607 31.6725 47.5092C32.3816 47.2728 32.9331 46.8001 33.1695 46.091C33.721 44.7516 33.0907 43.2546 31.6725 42.7819C31.9877 37.7395 35.6907 33.5637 37.9755 31.5152C50.6604 20.091 41.0483 -0.94538 24.0301 0.866741ZM31.7513 45.697C31.5937 46.0122 31.2786 46.2486 30.8846 46.2486C30.8058 46.2486 26.3937 46.2486 26.4725 46.2486C25.9998 46.2486 25.6846 46.5637 25.6846 47.0364C25.6846 47.5092 25.9998 47.8243 26.4725 47.8243H29.5452C29.7816 47.8243 30.018 47.9819 30.1755 48.2183C30.3331 48.4546 30.4119 48.7698 30.3331 49.0061C30.2543 49.4001 29.7816 49.6364 29.3877 49.6364H22.6907C22.218 49.6364 21.824 49.4001 21.7452 49.0061C21.5877 48.3758 21.9816 47.8243 22.5331 47.8243C22.9271 47.7455 23.2422 47.4304 23.2422 47.0364C23.2422 46.6425 22.8483 46.2486 22.4543 46.2486H21.1937C20.7998 46.2486 20.4058 46.0122 20.3271 45.697C20.0119 44.988 20.5634 44.3577 21.1937 44.3577H31.0422C31.5149 44.3577 32.0664 44.988 31.7513 45.697ZM36.9513 30.5698C34.5089 32.7758 30.5695 37.2667 30.1755 42.7819H26.8664V31.0425H27.7331C28.1271 31.0425 28.4422 30.8061 28.521 30.4122L28.9937 28.5213C29.7028 28.2849 30.3331 28.0486 30.9634 27.7334L32.6967 28.7577C33.0119 28.9152 33.4058 28.9152 33.6422 28.6789L36.0058 26.3152C36.2422 26.0789 36.321 25.6849 36.0846 25.3698L35.0604 23.6364C35.3755 23.0061 35.6907 22.3758 35.8483 21.6667L37.818 21.194C38.1331 21.1152 38.4483 20.8001 38.4483 20.4061V17.0183C38.4483 16.6243 38.2119 16.3092 37.818 16.2304L35.8483 15.7577C35.6119 15.0486 35.3755 14.4183 35.0604 13.788L36.0846 12.0546C36.2422 11.7395 36.2422 11.3455 36.0058 11.1092L33.6422 8.74553C33.4058 8.50917 33.0119 8.43038 32.6967 8.66674L30.9634 9.69098C30.3331 9.37583 29.7028 9.06068 28.9937 8.9031L28.521 6.93341C28.4422 6.61826 28.1271 6.3031 27.7331 6.3031H24.424C24.0301 6.3031 23.7149 6.53947 23.6361 6.93341L23.1634 8.9031C22.5331 9.06068 21.824 9.37583 21.1937 9.69098L19.5392 8.66674C19.224 8.50917 18.8301 8.50917 18.5937 8.74553L16.2301 11.1092C15.9937 11.3455 15.9149 11.7395 16.1513 12.0546L17.1755 13.788C16.8604 14.4183 16.5452 15.0486 16.3877 15.7577L14.418 16.2304C14.1028 16.3092 13.7877 16.6243 13.7877 17.0183V20.4061C13.7877 20.8001 14.024 21.1152 14.418 21.194L16.3089 21.6667C16.5452 22.3758 16.7816 23.0061 17.0967 23.6364L16.0725 25.291C15.9149 25.6061 15.9149 26.0001 16.1513 26.2364L18.5149 28.6001C18.7513 28.8364 19.1452 28.9152 19.4604 28.6789L21.1149 27.6546C21.7452 27.9698 22.3755 28.2849 23.0846 28.4425L23.5574 30.3334C23.6361 30.6486 23.9513 30.9637 24.3452 30.9637H25.2907V42.6243H21.824C21.4301 37.1092 17.4119 32.6183 14.9695 30.4122C4.33311 20.7213 11.3452 3.86068 24.1877 2.4425C39.7089 0.787953 48.5331 19.9334 36.9513 30.5698ZM18.6725 23.1637C18.1998 22.4546 17.8846 21.588 17.6483 20.7213C17.5695 20.4061 17.3331 20.2486 17.0967 20.1698L15.2846 19.7758V17.6486L17.0967 17.1758C17.4119 17.097 17.5695 16.8607 17.6483 16.6243C17.8846 15.7577 18.1998 14.9698 18.6725 14.2607C18.8301 14.0243 18.8301 13.7092 18.6725 13.4728L17.7271 11.897L19.224 10.4001L20.7998 11.3455C21.0361 11.5031 21.3513 11.5031 21.5877 11.3455C22.3755 10.8728 23.1634 10.5577 23.9513 10.3213C24.2664 10.2425 24.5028 10.0061 24.5028 9.76977L24.9755 7.95765H27.1028L27.4967 9.76977C27.5755 10.0849 27.8119 10.2425 28.0483 10.3213C28.9149 10.5577 29.7028 10.8728 30.4119 11.3455C30.6483 11.5031 30.9634 11.5031 31.1998 11.3455L32.7755 10.4001L34.2725 11.897L33.327 13.4728C33.1695 13.7092 33.1695 14.0243 33.327 14.2607C33.7998 14.9698 34.1149 15.7577 34.3513 16.6243C34.4301 16.9395 34.6664 17.097 34.9028 17.1758L36.7149 17.6486V19.7758L34.9028 20.1698C34.5877 20.2486 34.4301 20.4849 34.3513 20.7213C34.1149 21.588 33.7998 22.3758 33.327 23.1637C33.1695 23.4001 33.1695 23.7152 33.327 23.9516L34.2725 25.5273L32.7755 27.0243L31.1998 26.0789C30.9634 25.9213 30.6483 25.9213 30.4119 26.0789C29.624 26.5516 28.8361 26.8667 27.9695 27.1031C27.6543 27.1819 27.4967 27.4183 27.418 27.6546L26.9452 29.4667H24.818L24.3452 27.6546C24.2664 27.3395 24.0301 27.1819 23.7937 27.1031C22.9271 26.8667 22.1392 26.5516 21.3513 26.0789C21.1149 25.9213 20.7998 25.9213 20.5634 26.0789L18.9877 27.0243L17.4907 25.5273L18.4361 23.9516C18.8301 23.794 18.8301 23.4789 18.6725 23.1637Z" fill="black"/>
<path d="M24.9774 23.4C25.3714 23.4787 25.6865 23.5575 26.0805 23.5575C27.2623 23.5575 28.4441 23.0848 29.3108 22.2969C30.4926 21.2727 31.0441 19.6969 30.8077 18.1212C30.4926 15.9151 28.6017 14.103 26.3168 14.0242C24.8199 13.9454 23.4805 14.5757 22.535 15.6C21.5896 16.703 21.1168 18.1212 21.3532 19.6181C21.6684 21.4303 23.1653 23.006 24.9774 23.4ZM23.7168 16.6242C24.3471 15.9151 25.2138 15.5212 26.0805 15.5212H26.238C27.735 15.6 29.0744 16.7818 29.232 18.2787C29.3896 19.3818 28.9956 20.406 28.2077 21.1151C27.4199 21.8242 26.3956 22.1393 25.2926 21.903C24.032 21.5878 23.0865 20.5636 22.8502 19.303C22.7714 18.2787 23.0077 17.3333 23.7168 16.6242Z" fill="black"/>
<path d="M9.84886 44.8303L7.24886 47.4303V29.2303C7.24886 28.7575 6.93371 28.4424 6.46098 28.4424C5.98826 28.4424 5.67311 28.7575 5.67311 29.2303V47.4303L3.15189 44.8303C2.83674 44.5151 2.36402 44.5151 2.04886 44.8303C1.73371 45.1454 1.73371 45.6181 2.04886 45.9333L5.98826 49.8727C6.14583 50.0303 6.30341 50.109 6.53977 50.109C6.77614 50.109 6.93371 50.0303 7.09129 49.8727L11.0307 45.9333C11.3458 45.6181 11.3458 45.1454 11.0307 44.8303C10.7155 44.5151 10.164 44.5151 9.84886 44.8303Z" fill="black"/>
<path d="M49.9526 32.539L46.0132 28.5996C45.8556 28.4421 45.698 28.3633 45.4616 28.3633C45.2253 28.3633 45.0677 28.4421 44.9101 28.5996L40.9707 32.539C40.6556 32.8542 40.6556 33.3269 40.9707 33.6421C41.2859 33.9572 41.7586 33.9572 42.0738 33.6421L44.6738 31.0421V49.2421C44.6738 49.7148 44.9889 50.0299 45.4616 50.0299C45.9344 50.0299 46.2495 49.7148 46.2495 49.2421V31.1209L48.8495 33.7209C49.1647 34.036 49.6374 34.036 49.9526 33.7209C50.2677 33.3269 50.2677 32.8542 49.9526 32.539Z" fill="black"/>
</svg>
