<svg width="32" height="32" viewBox="0 0 32 32" fill="none" xmlns="http://www.w3.org/2000/svg">
<path d="M4.54198 16.8343C5.91895 16.8343 7.0341 15.7143 7.0341 14.3422C7.0341 13.8137 6.8644 13.324 6.58319 12.9167L10.7771 8.70824C11.1747 8.97975 11.6596 9.13975 12.1783 9.13975C12.828 9.13975 13.4147 8.88278 13.8608 8.47551L17.5796 11.2343C17.4196 11.564 17.3226 11.9276 17.3226 12.3155C17.3226 13.6925 18.4426 14.8076 19.8147 14.8076C21.1917 14.8076 22.3068 13.6876 22.3068 12.3155C22.3068 11.7531 22.1129 11.244 21.8026 10.827L26.7771 5.35309L26.5202 7.20521C26.4862 7.46218 26.6608 7.69975 26.9177 7.73369C26.942 7.73854 26.9614 7.73854 26.9856 7.73854C27.2135 7.73854 27.4171 7.56884 27.4511 7.33612L27.9214 3.98096C27.9214 3.97127 27.9165 3.96157 27.9165 3.94703C27.9214 3.89854 27.9165 3.8549 27.902 3.81127C27.8971 3.79187 27.8923 3.76763 27.8874 3.74824C27.8729 3.7046 27.8438 3.66581 27.8147 3.62702C27.805 3.61248 27.8002 3.59309 27.7856 3.58339C27.7808 3.57854 27.7759 3.57854 27.7711 3.57369C27.7711 3.57369 27.7711 3.56884 27.7662 3.56884C27.7614 3.56884 27.7614 3.56399 27.7565 3.56399C27.6644 3.48642 27.548 3.44278 27.4317 3.44763H27.4268C27.4123 3.44763 27.3977 3.44763 27.388 3.44763L24.0329 3.91793C23.7759 3.95187 23.5965 4.18945 23.6353 4.44642C23.6692 4.70339 23.9068 4.88278 24.1638 4.84399L26.2389 4.55309L21.1141 10.1967C20.7359 9.964 20.2947 9.82339 19.8196 9.82339C19.1699 9.82339 18.5832 10.0804 18.142 10.4876L14.4232 7.72884C14.5832 7.40399 14.6753 7.04036 14.6753 6.65248C14.6753 5.27551 13.5553 4.16036 12.1832 4.16036C10.8111 4.16036 9.69107 5.28036 9.69107 6.65248C9.69107 7.17127 9.85107 7.65127 10.1226 8.05369L5.91895 12.267C5.52622 12.0052 5.05107 11.8501 4.54682 11.8501C3.16985 11.8501 2.0547 12.9701 2.0547 14.3422C2.04985 15.7191 3.16501 16.8343 4.54198 16.8343ZM19.8196 10.7591C20.6777 10.7591 21.3759 11.4573 21.3759 12.3155C21.3759 13.1737 20.6777 13.8719 19.8196 13.8719C18.9614 13.8719 18.2632 13.1737 18.2632 12.3155C18.2632 11.4573 18.9614 10.7591 19.8196 10.7591ZM12.1783 5.09127C13.0365 5.09127 13.7347 5.78945 13.7347 6.64763C13.7347 7.50581 13.0365 8.20399 12.1783 8.20399C11.3202 8.20399 10.622 7.50581 10.622 6.64763C10.622 5.78945 11.3202 5.09127 12.1783 5.09127ZM4.54198 12.7858C5.40016 12.7858 6.09834 13.484 6.09834 14.3422C6.09834 15.2004 5.40016 15.8985 4.54198 15.8985C3.68379 15.8985 2.98561 15.2004 2.98561 14.3422C2.98561 13.484 3.68379 12.7858 4.54198 12.7858Z" fill="black"/>
<path d="M31.0059 27.6174H30.1234V11.9568C30.1234 11.1811 29.4931 10.5508 28.7174 10.5508H26.2059C25.4301 10.5508 24.7998 11.1811 24.7998 11.9568V27.6174H22.4871V18.9871C22.4871 18.2114 21.8568 17.5811 21.081 17.5811H18.5695C17.7937 17.5811 17.1634 18.2114 17.1634 18.9871V27.6126H14.8507V15.2393C14.8507 14.4635 14.2204 13.8332 13.4446 13.8332H10.9331C10.1574 13.8332 9.52707 14.4635 9.52707 15.2393V27.6174H7.21435V23.2102C7.21435 22.4344 6.58404 21.8041 5.80829 21.8041H3.28707C2.51132 21.8041 1.88101 22.4344 1.88101 23.2102V27.6174H0.99374C0.736771 27.6174 0.523438 27.8259 0.523438 28.0878C0.523438 28.3496 0.731922 28.5581 0.99374 28.5581H31.001C31.258 28.5581 31.4713 28.3496 31.4713 28.0878C31.4713 27.8259 31.2628 27.6174 31.0059 27.6174ZM2.81677 27.6174V23.2102C2.81677 22.9532 3.02526 22.7399 3.28707 22.7399H5.79859C6.05556 22.7399 6.26889 22.9484 6.26889 23.2102V27.6174H2.81677ZM10.4531 27.6174V15.2393C10.4531 14.9823 10.6616 14.769 10.9234 14.769H13.435C13.6919 14.769 13.9053 14.9774 13.9053 15.2393V27.6174H10.4531ZM18.0943 27.6174V18.9871C18.0943 18.7302 18.3028 18.5168 18.5646 18.5168H21.0762C21.3331 18.5168 21.5465 18.7253 21.5465 18.9871V27.6126H18.0943V27.6174ZM25.7307 27.6174V11.9568C25.7307 11.6999 25.9392 11.4865 26.201 11.4865H28.7125C28.9695 11.4865 29.1828 11.695 29.1828 11.9568V27.6174H25.7307Z" fill="black"/>
</svg>
