<svg width="52" height="52" viewBox="0 0 52 52" fill="none" xmlns="http://www.w3.org/2000/svg">
<g clip-path="url(#clip0_996_15212)">
<path d="M25.999 20.3115C23.277 20.3115 21.0625 22.5233 21.0625 25.2421C21.0625 27.9608 23.277 30.1726 25.999 30.1726C28.7209 30.1726 30.9355 27.9608 30.9355 25.2421C30.9355 22.5233 28.7209 20.3115 25.999 20.3115ZM25.999 28.6508C24.1169 28.6508 22.5859 27.1214 22.5859 25.2421C22.5859 23.3624 24.1169 21.833 25.999 21.833C27.8811 21.833 29.412 23.3624 29.412 25.2421C29.412 27.1214 27.8811 28.6508 25.999 28.6508Z" fill="black"/>
<path d="M34.9847 18.4702L32.7785 16.2668C32.5103 15.999 32.0854 15.9689 31.7823 16.1966L30.1205 17.4439C29.636 17.188 29.129 16.9785 28.6053 16.8171L28.3134 14.7616C28.2602 14.3863 27.9384 14.1074 27.5592 14.1074H24.4393C24.0596 14.1074 23.7383 14.3863 23.6847 14.7616L23.3927 16.8171C22.869 16.9785 22.3624 17.188 21.878 17.4439L20.2161 16.1966C19.9126 15.9689 19.4881 15.999 19.2195 16.2668L17.0137 18.4702C16.7455 18.7384 16.7154 19.1625 16.9431 19.4652L18.192 21.1255C17.9361 21.6092 17.7259 22.1154 17.5644 22.6383L15.5062 22.9303C15.1305 22.9834 14.8516 23.3048 14.8516 23.6837V26.7996C14.8516 27.1784 15.1305 27.4998 15.5062 27.5529L17.5644 27.8449C17.7259 28.3678 17.9357 28.8741 18.192 29.3577L16.9431 31.018C16.7154 31.3207 16.7455 31.7448 17.0137 32.013L19.2195 34.2164C19.4881 34.4842 19.9126 34.5139 20.2161 34.2866L21.878 33.0393C22.3624 33.2948 22.869 33.5047 23.3927 33.6661L23.6847 35.7216C23.7383 36.0969 24.0596 36.3754 24.4393 36.3754H27.5592C27.9384 36.3754 28.2598 36.0969 28.3134 35.7216L28.6053 33.6661C29.129 33.5047 29.636 33.2948 30.1205 33.0393L31.7823 34.2866C32.0854 34.5143 32.5103 34.4842 32.7785 34.2164L34.9847 32.013C35.2529 31.7448 35.2827 31.3207 35.055 31.018L33.8061 29.3577C34.0623 28.8741 34.2722 28.3678 34.4337 27.8449L36.4919 27.5529C36.8676 27.4998 37.1469 27.1784 37.1469 26.7996V23.6837C37.1469 23.3048 36.8676 22.9834 36.4919 22.9303L34.4337 22.6383C34.2722 22.1154 34.0623 21.6092 33.8061 21.1255L35.055 19.4652C35.2827 19.1625 35.2529 18.7384 34.9847 18.4702ZM35.6235 24.3438V26.139L33.7259 26.4084C33.4177 26.452 33.1669 26.6786 33.0927 26.9809C32.9166 27.7013 32.6317 28.3881 32.2465 29.0216C32.0847 29.2874 32.1013 29.6247 32.2886 29.8734L33.4399 31.404L32.1688 32.6731L30.6366 31.5234C30.3875 31.3365 30.0498 31.3195 29.7836 31.4814C29.1493 31.8658 28.4617 32.1502 27.7401 32.3268C27.4378 32.4006 27.2108 32.6509 27.1668 32.9588L26.8978 34.8539H25.1003L24.8309 32.9588C24.7872 32.6509 24.5599 32.4006 24.2576 32.3268C23.5359 32.1502 22.8488 31.8658 22.2144 31.4814C21.9482 31.3195 21.6106 31.3365 21.3615 31.5234L19.8293 32.6731L18.5582 31.4036L19.7095 29.8734C19.8964 29.6247 19.913 29.2874 19.7516 29.0216C19.3663 28.3881 19.0815 27.7013 18.9049 26.9805C18.8311 26.6786 18.5804 26.4516 18.2722 26.408L16.3746 26.139V24.3438L18.2722 24.0748C18.5804 24.0312 18.8311 23.8043 18.9049 23.5023C19.0815 22.7815 19.3663 22.0952 19.7516 21.4616C19.913 21.1954 19.8964 20.8582 19.7095 20.6098L18.5582 19.0792L19.8293 17.8097L21.3615 18.9598C21.6106 19.1463 21.9482 19.1633 22.2144 19.0019C22.8488 18.617 23.5359 18.3326 24.2576 18.1564C24.5599 18.0822 24.7868 17.8323 24.8309 17.524L25.1003 15.6289H26.8978L27.1668 17.524C27.2108 17.8319 27.4378 18.0822 27.7401 18.1564C28.4617 18.3326 29.1493 18.617 29.7836 19.0019C30.0498 19.1633 30.3875 19.1463 30.6366 18.9598L32.1688 17.8097L33.4399 19.0792L32.2886 20.6098C32.1013 20.8582 32.0847 21.1958 32.2465 21.4616C32.6317 22.0952 32.9162 22.7815 33.0927 23.502C33.1665 23.8043 33.4173 24.0312 33.7255 24.0748L35.6235 24.3438Z" fill="black"/>
<path d="M26 5.98346C26.4209 5.98346 26.7617 5.64307 26.7617 5.22293V0.760925C26.7617 0.340393 26.4209 0 26 0C25.5795 0 25.2383 0.340393 25.2383 0.760925V5.22293C25.2383 5.64307 25.5795 5.98346 26 5.98346Z" fill="black"/>
<path d="M48.7996 22.7715H44.332C43.9111 22.7715 43.5703 23.1119 43.5703 23.532C43.5703 23.9525 43.9111 24.2929 44.332 24.2929H48.7996C49.2201 24.2929 49.5613 23.9525 49.5613 23.532C49.5613 23.1119 49.2201 22.7715 48.7996 22.7715Z" fill="black"/>
<path d="M7.66678 22.7715H3.19922C2.77869 22.7715 2.4375 23.1119 2.4375 23.532C2.4375 23.9525 2.77869 24.2929 3.19922 24.2929H7.66678C8.08731 24.2929 8.4285 23.9525 8.4285 23.532C8.4285 23.1119 8.08771 22.7715 7.66678 22.7715Z" fill="black"/>
<path d="M12.4992 11.1236C12.7928 11.4168 13.2831 11.4168 13.5763 11.1236C13.8739 10.8264 13.8739 10.3448 13.5763 10.0477L10.4176 6.89249C10.12 6.59573 9.6376 6.59573 9.34005 6.89249C9.0429 7.18964 9.0429 7.67126 9.34005 7.96881L12.4992 11.1236Z" fill="black"/>
<path d="M9.20846 16.1451L7.66479 15.5408C7.27282 15.3877 6.83126 15.5805 6.67772 15.9717C6.52419 16.3629 6.7174 16.8044 7.10897 16.9576L8.65304 17.5618C9.03985 17.7129 9.48855 17.517 9.6401 17.1309C9.79363 16.7394 9.60042 16.2982 9.20846 16.1451Z" fill="black"/>
<path d="M18.601 6.76246C18.7525 7.14848 19.2012 7.34446 19.588 7.19331C19.9796 7.04017 20.1728 6.59861 20.0197 6.20744L19.3968 4.62052C19.2437 4.22895 18.8017 4.03614 18.4097 4.18928C18.0182 4.34281 17.825 4.78398 17.9785 5.17515L18.601 6.76246Z" fill="black"/>
<path d="M32.4097 7.19315C32.7966 7.3443 33.2453 7.14832 33.3968 6.7623L34.0197 5.17539C34.1728 4.78382 33.98 4.34266 33.588 4.18912C33.1965 4.03638 32.7545 4.22879 32.601 4.61997L31.9785 6.20728C31.825 6.59845 32.0182 7.03962 32.4097 7.19315Z" fill="black"/>
<path d="M38.9611 11.3466C39.1559 11.3466 39.3511 11.2724 39.4999 11.1236L42.6586 7.96881C42.9562 7.67126 42.9562 7.18964 42.6586 6.89249C42.3611 6.59573 41.8791 6.59573 41.5815 6.89249L38.4224 10.0477C38.1248 10.3448 38.1248 10.8264 38.4224 11.1236C38.5712 11.2724 38.7663 11.3466 38.9611 11.3466Z" fill="black"/>
<path d="M45.3198 15.9717C45.1662 15.5802 44.7243 15.3878 44.3327 15.5409L42.7887 16.1451C42.3971 16.2983 42.2039 16.7394 42.3574 17.131C42.509 17.517 42.9577 17.713 43.3445 17.5618L44.8885 16.9576C45.2801 16.8045 45.4733 16.3629 45.3198 15.9717Z" fill="black"/>
<path d="M26.137 7.83555C22.9636 7.80857 19.8667 8.71232 17.1872 10.448C16.8341 10.6769 16.7337 11.1478 16.9626 11.5005C17.1912 11.8528 17.6633 11.9532 18.016 11.7247C20.4102 10.1743 23.1683 9.3566 26.0017 9.3566C26.0426 9.3566 26.0838 9.3566 26.1247 9.357C30.0468 9.38993 33.7288 10.9399 36.4928 13.7226C39.2584 16.5064 40.7814 20.1996 40.7814 24.1216C40.7814 28.9181 38.434 33.4333 34.5016 36.2C33.2043 37.1125 32.3561 38.5106 32.1431 40.0392H29.5374C29.1164 40.0392 28.7756 40.38 28.7756 40.8001C28.7756 41.2202 29.1164 41.561 29.5374 41.561H32.0903V45.4625C32.0903 46.4265 31.3048 47.2108 30.3395 47.2108H21.6567C20.6915 47.2108 19.906 46.4265 19.906 45.4625V41.561H26.4905C26.9114 41.561 27.2522 41.2202 27.2522 40.8001C27.2522 40.38 26.9114 40.0392 26.4905 40.0392H19.852C19.6418 38.5086 18.8058 37.1181 17.524 36.2207C13.5734 33.4555 11.2148 28.9328 11.2148 24.122C11.2148 20.1155 12.8224 16.3549 15.7419 13.533C16.0442 13.2406 16.0522 12.7589 15.7594 12.457C15.467 12.1551 14.985 12.1472 14.6823 12.4396C11.464 15.5507 9.69141 19.6997 9.69141 24.122C9.69141 29.4283 12.2928 34.4171 16.6496 37.4668C17.7347 38.2261 18.3825 39.4723 18.3825 40.8001V45.4625C18.3825 47.0438 19.5124 48.3665 21.0081 48.6676C21.8357 50.6798 23.782 51.9998 25.9981 51.9998C28.2143 51.9998 30.1606 50.6798 30.9878 48.6676C32.4835 48.3665 33.6133 47.0438 33.6133 45.4625V40.8021C33.6133 40.8013 33.6137 40.8009 33.6137 40.8001C33.6137 39.4762 34.2735 38.2218 35.3792 37.4438C39.7154 34.3926 42.3045 29.4124 42.3045 24.122C42.3045 19.7957 40.6247 15.7221 37.5743 12.651C34.5254 9.58195 30.4637 7.87165 26.137 7.83555ZM25.9981 50.4783C24.6584 50.4783 23.4559 49.8066 22.7549 48.7323H29.2414C28.5404 49.8066 27.3379 50.4783 25.9981 50.4783Z" fill="black"/>
</g>
<defs>
<clipPath id="clip0_996_15212">
<rect width="52" height="52" fill="white"/>
</clipPath>
</defs>
</svg>
