<svg width="52" height="52" viewBox="0 0 52 52" fill="none" xmlns="http://www.w3.org/2000/svg">
<g clip-path="url(#clip0_996_15099)">
<path fill-rule="evenodd" clip-rule="evenodd" d="M6.32666 40.6297H1.53053C1.29908 40.6297 1.07843 40.5313 0.923758 40.3591C0.768982 40.1869 0.694754 39.957 0.719531 39.7269C1.48974 32.5542 6.67149 26.7014 13.4965 24.9403C10.6525 23.4014 8.71387 20.3887 8.71387 16.9386C8.71387 11.9334 12.7939 7.84898 17.7991 7.84898C22.8089 7.84898 26.8887 11.9335 26.8887 16.9386C26.8887 20.3888 24.9499 23.4016 22.1043 24.9405C28.9316 26.7019 34.1122 32.5547 34.8787 39.7273C34.9033 39.9575 34.829 40.1872 34.6743 40.3593C34.5195 40.5314 34.2991 40.6297 34.0676 40.6297H29.2715V41.2571C29.2715 41.5946 29.0637 41.8973 28.7488 42.0184L27.3735 42.5477C27.1646 43.2796 26.8712 43.9845 26.5015 44.6501L27.0993 45.9996C27.2359 46.3079 27.1687 46.6684 26.9303 46.9068L24.8919 48.9452C24.6535 49.1836 24.293 49.2508 23.9847 49.1142L22.6367 48.5171C21.9719 48.888 21.2653 49.1801 20.5328 49.3886L20.0035 50.7637C19.8822 51.0786 19.5797 51.2864 19.2422 51.2864H16.3588C16.0214 51.2864 15.7188 51.0786 15.5975 50.7637L15.0685 49.3887C14.3344 49.1798 13.6289 48.8864 12.963 48.5164L11.6134 49.1142C11.3052 49.2508 10.9447 49.1836 10.7063 48.9452L8.66788 46.9068C8.42919 46.6681 8.3622 46.3071 8.49934 45.9986L9.09857 44.6509C8.72794 43.9865 8.43562 43.2805 8.22568 42.5481L6.84941 42.0184C6.53446 41.8973 6.32666 41.5946 6.32666 41.2571V40.6297ZM17.7991 26.0282C10.0924 26.0282 3.69526 31.6383 2.4653 38.9983H6.32666V38.3738C6.32666 38.0363 6.53446 37.7337 6.84941 37.6125L8.22537 37.083C8.43541 36.349 8.72773 35.6436 9.09877 34.9776L8.49934 33.6295C8.3622 33.3209 8.42919 32.9599 8.66788 32.7212L10.7063 30.6828C10.945 30.4441 11.306 30.3771 11.6144 30.5143L12.9626 31.1138C13.6286 30.7427 14.3336 30.4507 15.0658 30.2422L15.5979 28.8636C15.7192 28.5491 16.0216 28.3416 16.3588 28.3416H19.2422C19.5798 28.3416 19.8825 28.5496 20.0037 28.8647L20.533 30.2424C21.265 30.4508 21.9698 30.743 22.6355 31.1137L23.9837 30.5143C24.2922 30.3771 24.6532 30.4441 24.8919 30.6828L26.9303 32.7212C27.1687 32.9596 27.2359 33.3201 27.0993 33.6283L26.5018 34.9769C26.8731 35.6433 27.1654 36.3491 27.3739 37.0834L28.7488 37.6125C29.0637 37.7337 29.2715 38.0363 29.2715 38.3738V38.9983H33.1333C31.9073 31.6383 25.5098 26.0282 17.7991 26.0282ZM17.7991 24.3968C21.9097 24.3968 25.2573 21.0453 25.2573 16.9386C25.2573 12.8318 21.9097 9.48035 17.7991 9.48035C13.6924 9.48035 10.3452 12.8319 10.3452 16.9386C10.3452 21.0452 13.6924 24.3968 17.7991 24.3968ZM19.1603 31.2182L18.6819 29.9729H16.9183L16.4374 31.2193C16.3406 31.4701 16.1265 31.6571 15.8651 31.7192C15.0088 31.9227 14.1921 32.261 13.4416 32.7235C13.2124 32.8648 12.9283 32.8838 12.6823 32.7744L11.4636 32.2326L10.2176 33.4786L10.7595 34.6973C10.8688 34.9432 10.8498 35.2274 10.7086 35.4566C10.2457 36.2077 9.90732 37.0251 9.70095 37.8846C9.63835 38.1456 9.45135 38.3591 9.20083 38.4556L7.95803 38.9339V40.6971L9.20083 41.1754C9.45115 41.2717 9.63804 41.4849 9.70085 41.7457C9.90711 42.6024 10.2452 43.4221 10.7079 44.1704C10.8497 44.3997 10.869 44.6843 10.7595 44.9308L10.2176 46.1494L11.4643 47.396L12.6834 46.856C12.9284 46.7474 13.2113 46.7663 13.4399 46.9063C14.1909 47.3664 15.0079 47.7079 15.8674 47.9115C16.1294 47.9736 16.3439 48.161 16.4406 48.4122L16.9189 49.655H18.6822L19.1605 48.4122C19.2571 48.1612 19.4713 47.9739 19.7331 47.9117C20.5889 47.7083 21.4079 47.3703 22.1555 46.9081C22.3845 46.7665 22.6686 46.747 22.9148 46.856L24.1339 47.396L25.3811 46.1488L24.8411 44.9297C24.7325 44.6847 24.7514 44.4018 24.8914 44.1732C25.3516 43.4221 25.6931 42.605 25.8967 41.7481C25.9589 41.4862 26.1462 41.272 26.3973 41.1754L27.6401 40.6971V38.9339L26.3973 38.4556C26.1461 38.3588 25.9587 38.1443 25.8966 37.8823C25.6932 37.0235 25.3549 36.207 24.8925 35.4566C24.7515 35.2277 24.7322 34.944 24.8411 34.6983L25.3811 33.4792L24.1345 32.2326L22.9159 32.7744C22.6699 32.8838 22.3857 32.8648 22.1566 32.7235C21.4059 32.261 20.5893 31.9227 19.7331 31.7192C19.4712 31.657 19.2568 31.4695 19.1603 31.2182ZM17.7991 33.9691C21.0285 33.9691 23.6469 36.5846 23.6469 39.814C23.6469 43.0433 21.0284 45.6619 17.7991 45.6619C14.5696 45.6619 11.9541 43.0435 11.9541 39.814C11.9541 36.5844 14.5695 33.9691 17.7991 33.9691ZM17.7991 35.6005C15.4709 35.6005 13.5855 37.4858 13.5855 39.814C13.5855 42.1423 15.4708 44.0305 17.7991 44.0305C20.1276 44.0305 22.0156 42.1425 22.0156 39.814C22.0156 37.4857 20.1274 35.6005 17.7991 35.6005ZM32.5839 25.1636C32.3595 21.4027 31.2832 19.9885 30.4629 18.5375C29.8261 17.4109 29.3204 16.2658 29.3204 14.2793C29.3204 9.35454 33.3129 5.36195 38.2377 5.36195C43.1626 5.36195 47.1551 9.35454 47.1551 14.2793C47.1551 16.2658 46.6494 17.4109 46.0125 18.5375C45.1906 19.9916 44.1115 21.4086 43.8902 25.1872L43.8901 25.1898L43.8889 26.4563C43.8889 27.3412 43.344 28.1033 42.5748 28.4252V29.0899C42.5748 29.9879 42.0113 30.76 41.2227 31.0732V31.7234C41.2227 32.8935 40.263 33.8559 39.093 33.8559H37.3825C36.213 33.8559 35.2501 32.893 35.2501 31.7234V31.0729C34.4612 30.7594 33.9007 29.9876 33.9007 29.0899V28.426C33.1291 28.1045 32.5839 27.3416 32.5839 26.4563V25.1636ZM42.258 25.9552H34.2153V26.4563C34.2153 26.7321 34.4405 26.9573 34.7164 26.9573H41.7592C42.0335 26.9573 42.2575 26.7317 42.2575 26.4559L42.258 25.9552ZM40.9435 28.5887H35.5321V29.0899C35.5321 29.3658 35.7573 29.591 36.0331 29.591H40.4423C40.7172 29.591 40.9435 29.3658 40.9435 29.0899V28.5887ZM39.5914 31.2224H36.8815V31.7234C36.8815 31.9983 37.1077 32.2245 37.3825 32.2245H39.093C39.3674 32.2245 39.5914 31.9978 39.5914 31.7234V31.2224ZM40.4517 24.3238H42.3196C42.5986 21.33 43.3972 19.7958 44.1476 18.5011C44.8482 17.2924 45.5237 16.3331 45.5237 14.2793C45.5237 10.2555 42.2616 6.99333 38.2377 6.99333C34.2139 6.99333 30.9518 10.2555 30.9518 14.2793C30.9518 16.3331 31.6274 17.2924 32.328 18.5011C33.0783 19.7958 33.8769 21.33 34.1559 24.3238H36.0239V17.0363H34.9553C33.4724 17.0363 32.258 15.8219 32.258 14.3391C32.258 12.8526 33.4727 11.6392 34.9553 11.6392C36.4414 11.6392 37.6552 12.8529 37.6552 14.3391V15.4049H38.8203V14.3391C38.8203 12.8529 40.0341 11.6392 41.5203 11.6392C43.0028 11.6392 44.2174 12.8526 44.2174 14.3391C44.2174 15.8219 43.0031 17.0363 41.5203 17.0363H40.4517V24.3238ZM37.6552 24.3238H38.8203V17.0363H37.6552V24.3238ZM36.0239 15.4049V14.3391C36.0239 13.7509 35.5434 13.2705 34.9553 13.2705C34.369 13.2705 33.8894 13.7513 33.8894 14.3391C33.8894 14.9251 34.3693 15.4049 34.9553 15.4049H36.0239ZM40.4517 15.4049H41.5203C42.1062 15.4049 42.5861 14.9251 42.5861 14.3391C42.5861 13.7513 42.1065 13.2705 41.5203 13.2705C40.932 13.2705 40.4517 13.7509 40.4517 14.3391V15.4049ZM39.0534 3.43826C39.0534 3.88842 38.688 4.25395 38.2377 4.25395C37.7876 4.25395 37.422 3.88842 37.422 3.43826V1.52955C37.422 1.0794 37.7876 0.713867 38.2377 0.713867C38.688 0.713867 39.0534 1.0794 39.0534 1.52955V3.43826ZM32.8329 4.66811C33.0577 5.05811 32.9235 5.55731 32.5335 5.78213C32.1435 6.00686 31.6443 5.87278 31.4195 5.48268L30.4666 3.82928C30.2418 3.43918 30.3758 2.93998 30.7659 2.71526C31.1559 2.49043 31.6551 2.62461 31.88 3.01461L32.8329 4.66811ZM28.0628 8.84351C28.4526 9.06884 28.586 9.56814 28.3608 9.95794C28.1355 10.3477 27.6362 10.4812 27.2464 10.256L25.593 9.30029C25.2032 9.07496 25.0696 8.57566 25.2949 8.18586C25.5202 7.79616 26.0196 7.6626 26.4093 7.88783L28.0628 8.84351ZM45.0528 5.48359C44.8276 5.87339 44.3282 6.00686 43.9384 5.78162C43.5487 5.55629 43.4151 5.05699 43.6404 4.66719L44.5961 3.0138C44.8213 2.624 45.3207 2.49043 45.7104 2.71577C46.1002 2.941 46.2338 3.4404 46.0085 3.83009L45.0528 5.48359ZM49.2296 10.2557C48.84 10.4812 48.3406 10.348 48.1151 9.95845C47.8894 9.56886 48.0227 9.06945 48.4123 8.84381L50.063 7.88813C50.4526 7.6626 50.952 7.79576 51.1776 8.18535C51.4032 8.57494 51.27 9.07445 50.8804 9.29998L49.2296 10.2557Z" fill="black"/>
</g>
<defs>
<clipPath id="clip0_996_15099">
<rect width="52" height="52" fill="white"/>
</clipPath>
</defs>
</svg>
