<svg width="52" height="52" viewBox="0 0 52 52" fill="none" xmlns="http://www.w3.org/2000/svg">
<path d="M30.875 11.375C30.875 8.68677 28.6882 6.5 26 6.5C23.3118 6.5 21.125 8.68677 21.125 11.375C21.125 14.0632 23.3118 16.25 26 16.25C28.6882 16.25 30.875 14.0632 30.875 11.375ZM22.75 11.375C22.75 9.58298 24.2076 8.125 26 8.125C27.7924 8.125 29.25 9.58298 29.25 11.375C29.25 13.167 27.7924 14.625 26 14.625C24.2076 14.625 22.75 13.167 22.75 11.375Z" fill="black"/>
<path d="M26 40.625C22.8643 40.625 20.3125 43.1764 20.3125 46.3125C20.3125 49.4486 22.8643 52 26 52C29.1357 52 31.6875 49.4486 31.6875 46.3125C31.6875 43.1764 29.1357 40.625 26 40.625ZM26 50.375C23.7601 50.375 21.9375 48.5524 21.9375 46.3125C21.9375 44.0726 23.7601 42.25 26 42.25C28.2399 42.25 30.0625 44.0726 30.0625 46.3125C30.0625 48.5524 28.2399 50.375 26 50.375Z" fill="black"/>
<path d="M47.9375 34.125H44.67V31.774C44.6734 31.7442 44.6875 31.7182 44.6875 31.6875C44.6875 31.2388 44.3241 30.875 43.875 30.875H32.7703L26.8125 26.4066V22.75H27.0672C28.2709 22.75 29.25 21.7709 29.25 20.5672C29.25 20.2312 29.4904 20.0951 29.5944 20.0522C29.6967 20.009 29.9641 19.9352 30.2021 20.1732C31.0535 21.025 32.4373 21.0234 33.2887 20.1732L34.7979 18.6637C35.2104 18.2519 35.4374 17.7036 35.4374 17.1204C35.4374 16.5372 35.2104 15.989 34.7979 15.5768C34.5598 15.3391 34.6344 15.0729 34.6772 14.9694C34.7201 14.8658 34.8558 14.625 35.1922 14.625C36.3959 14.625 37.375 13.6459 37.375 12.4422V10.3078C37.375 9.10413 36.3959 8.125 35.1922 8.125C34.8558 8.125 34.7201 7.88419 34.6772 7.78064C34.6344 7.67709 34.5598 7.41089 34.7979 7.17325C35.2104 6.76105 35.4374 6.21317 35.4374 5.62997C35.4374 5.04639 35.2104 4.4985 34.7979 4.0867L33.2887 2.57635C32.4365 1.72537 31.0527 1.72696 30.2021 2.57715C29.9641 2.81519 29.6967 2.7406 29.5944 2.69775C29.4904 2.65491 29.25 2.51883 29.25 2.1828C29.25 0.979126 28.2709 0 27.0672 0H24.9328C23.7291 0 22.75 0.979126 22.75 2.1828C22.75 2.51883 22.5096 2.65491 22.4056 2.69775C22.3025 2.7402 22.0351 2.81439 21.7979 2.57675C20.9465 1.72577 19.5627 1.72736 18.7113 2.57675L17.2021 4.0863C16.7896 4.49811 16.5626 5.04639 16.5626 5.62958C16.5626 6.21277 16.7896 6.76105 17.2021 7.17325C17.4402 7.41089 17.3656 7.67709 17.3228 7.78064C17.2799 7.88419 17.1442 8.125 16.8078 8.125C15.6041 8.125 14.625 9.10413 14.625 10.3078V12.4422C14.625 13.6459 15.6041 14.625 16.8078 14.625C17.1442 14.625 17.2799 14.8658 17.3228 14.9694C17.3656 15.0729 17.4402 15.3391 17.2021 15.5768C16.7896 15.989 16.5626 16.5368 16.5626 17.12C16.5626 17.7036 16.7896 18.2515 17.2021 18.6633L18.7113 20.1736C19.5643 21.0254 20.9481 21.0238 21.7979 20.1729C22.0359 19.9344 22.3033 20.0098 22.4056 20.0522C22.5096 20.0951 22.75 20.2312 22.75 20.5672C22.75 21.7709 23.7291 22.75 24.9328 22.75H25.1875V26.4066L19.2297 30.875H8.125C7.6759 30.875 7.3125 31.2388 7.3125 31.6875C7.3125 31.7182 7.32663 31.7442 7.32996 31.774V34.125H4.0625C3.6134 34.125 3.25 34.4888 3.25 34.9375V43.0625C3.25 43.5112 3.6134 43.875 4.0625 43.875H7.3125V46.3125C7.3125 46.7612 7.6759 47.125 8.125 47.125H15.9136L15.6755 47.363C15.3582 47.6804 15.3582 48.1946 15.6755 48.512C15.8342 48.6707 16.0421 48.75 16.25 48.75C16.4579 48.75 16.6658 48.6707 16.8245 48.512L18.4495 46.887C18.7668 46.5696 18.7668 46.0554 18.4495 45.738L16.8245 44.113C16.5071 43.7957 15.9929 43.7957 15.6755 44.113C15.3582 44.4304 15.3582 44.9446 15.6755 45.262L15.9136 45.5H8.9375V43.875H12.1875C12.6366 43.875 13 43.5112 13 43.0625V34.9375C13 34.4888 12.6366 34.125 12.1875 34.125H8.95496V32.5H19.2297L25.5128 37.2123C25.6572 37.3206 25.8286 37.375 26 37.375C26.1714 37.375 26.3428 37.3206 26.4872 37.2123L32.7703 32.5H43.045V34.125H39.8125C39.3634 34.125 39 34.4888 39 34.9375V43.0625C39 43.5112 39.3634 43.875 39.8125 43.875H47.9375C48.3866 43.875 48.75 43.5112 48.75 43.0625V34.9375C48.75 34.4888 48.3866 34.125 47.9375 34.125ZM24.375 20.5672C24.375 19.6678 23.8585 18.8954 23.0277 18.551C22.7492 18.4356 22.462 18.3792 22.1787 18.3792C21.6169 18.3792 21.0718 18.6014 20.6489 19.0243C20.4315 19.2417 20.0776 19.2417 19.8602 19.0243L18.3511 17.514C18.2455 17.4088 18.1876 17.2688 18.1876 17.1204C18.1876 16.9713 18.2455 16.8312 18.3511 16.7257C18.9874 16.0901 19.1683 15.1788 18.8248 14.3477C18.4804 13.5165 17.7076 13 16.8078 13C16.4999 13 16.25 12.7497 16.25 12.4422V10.3078C16.25 10.0003 16.4999 9.75 16.8078 9.75C17.7076 9.75 18.4796 9.23386 18.824 8.40231C19.1683 7.57156 18.9874 6.65988 18.3511 6.02353C18.2455 5.9184 18.1876 5.77835 18.1876 5.62997C18.1876 5.4812 18.2455 5.34116 18.3511 5.23563L19.8602 3.72607C20.0776 3.50867 20.4315 3.50867 20.6489 3.72607C21.2853 4.36203 22.197 4.54294 23.0277 4.19897C23.8585 3.85461 24.375 3.08218 24.375 2.1828C24.375 1.87534 24.6249 1.625 24.9328 1.625H27.0672C27.3751 1.625 27.625 1.87534 27.625 2.1828C27.625 3.08218 28.1415 3.85461 28.9723 4.19897C29.803 4.54294 30.7147 4.36203 31.3511 3.72568C31.5685 3.50827 31.9224 3.50827 32.1398 3.72568L33.6489 5.23602C33.7545 5.34116 33.8124 5.4812 33.8124 5.62958C33.8124 5.77875 33.7545 5.91879 33.6489 6.02432C33.0126 6.65988 32.8317 7.57117 33.1752 8.40231C33.5196 9.23346 34.2924 9.75 35.1922 9.75C35.5001 9.75 35.75 10.0003 35.75 10.3078V12.4422C35.75 12.7497 35.5001 13 35.1922 13C34.2924 13 33.5204 13.5161 33.176 14.3477C32.8317 15.1784 33.0126 16.0901 33.6489 16.7265C33.7545 16.8316 33.8124 16.9716 33.8124 17.12C33.8124 17.2688 33.7545 17.4088 33.6489 17.5144L32.1398 19.0239C31.9224 19.2413 31.5685 19.2413 31.3511 19.0239C30.7147 18.3876 29.803 18.2067 28.9723 18.551C28.1415 18.8954 27.625 19.6678 27.625 20.5672C27.625 20.8747 27.3751 21.125 27.0672 21.125H24.9328C24.6249 21.125 24.375 20.8747 24.375 20.5672ZM11.375 42.25H4.875V35.75H11.375V42.25ZM26 35.5469L20.8544 31.6875L26 27.8281L31.1456 31.6875L26 35.5469ZM47.125 42.25H40.625V35.75H47.125V42.25Z" fill="black"/>
</svg>
