<svg width="52" height="52" viewBox="0 0 52 52" fill="none" xmlns="http://www.w3.org/2000/svg">
<path d="M32.4029 15.792H19.7765C17.5068 15.792 15.6602 17.6386 15.6602 19.9083V32.0928C15.6602 34.3625 17.5068 36.2091 19.7765 36.2091H32.4029C34.6727 36.2091 36.5193 34.3625 36.5193 32.0928V19.9083C36.5193 17.6386 34.6727 15.792 32.4029 15.792ZM34.9593 32.0928C34.9593 33.5024 33.8125 34.6491 32.4029 34.6491H19.7765C18.3669 34.6491 17.2202 33.5024 17.2202 32.0928V19.9083C17.2202 18.4987 18.3669 17.352 19.7765 17.352H32.4029C33.8125 17.352 34.9593 18.4987 34.9593 19.9083V32.0928Z" fill="black"/>
<path d="M20.5444 10.0296V12.9867C20.5444 13.4175 20.8936 13.7667 21.3244 13.7667C21.7553 13.7667 22.1044 13.4175 22.1044 12.9867V10.0296C23.4927 9.68049 24.5237 8.42201 24.5237 6.92691C24.5237 5.16277 23.0886 3.72754 21.3244 3.72754C19.5603 3.72754 18.125 5.16277 18.125 6.92691C18.125 8.42201 19.1561 9.68049 20.5444 10.0296ZM21.3244 5.28754C22.2283 5.28754 22.9637 6.02295 22.9637 6.92691C22.9637 7.83082 22.2283 8.56623 21.3244 8.56623C20.4204 8.56623 19.685 7.83082 19.685 6.92691C19.685 6.02295 20.4204 5.28754 21.3244 5.28754Z" fill="black"/>
<path d="M29.7124 10.0296V12.9867C29.7124 13.4175 30.0616 13.7667 30.4924 13.7667C30.9232 13.7667 31.2724 13.4175 31.2724 12.9867V10.0296C32.6607 9.68049 33.6917 8.42201 33.6917 6.92691C33.6917 5.16277 32.2565 3.72754 30.4924 3.72754C28.7283 3.72754 27.293 5.16277 27.293 6.92691C27.293 8.42201 28.324 9.68049 29.7124 10.0296ZM30.4924 5.28754C31.3963 5.28754 32.1317 6.02295 32.1317 6.92691C32.1317 7.83082 31.3963 8.56623 30.4924 8.56623C29.5884 8.56623 28.853 7.83082 28.853 6.92691C28.853 6.02295 29.5884 5.28754 30.4924 5.28754Z" fill="black"/>
<path d="M31.452 41.9705V39.0134C31.452 38.5826 31.1028 38.2334 30.672 38.2334C30.2411 38.2334 29.892 38.5826 29.892 39.0134V41.9705C28.5037 42.3197 27.4727 43.5781 27.4727 45.0732C27.4727 46.8374 28.9078 48.2726 30.672 48.2726C32.4361 48.2726 33.8714 46.8374 33.8714 45.0732C33.8714 43.5781 32.8403 42.3197 31.452 41.9705ZM30.672 46.7126C29.7681 46.7126 29.0327 45.9772 29.0327 45.0732C29.0327 44.1693 29.7681 43.4339 30.672 43.4339C31.576 43.4339 32.3114 44.1693 32.3114 45.0732C32.3114 45.9772 31.576 46.7126 30.672 46.7126Z" fill="black"/>
<path d="M22.2879 41.9705V39.0134C22.2879 38.5826 21.9387 38.2334 21.5079 38.2334C21.0771 38.2334 20.7279 38.5826 20.7279 39.0134V41.9705C19.3396 42.3197 18.3086 43.5781 18.3086 45.0732C18.3086 46.8374 19.7438 48.2726 21.5079 48.2726C23.2721 48.2726 24.7073 46.8374 24.7073 45.0732C24.7073 43.5781 23.6763 42.3197 22.2879 41.9705ZM21.5079 46.7126C20.604 46.7126 19.8686 45.9772 19.8686 45.0732C19.8686 44.1693 20.604 43.4339 21.5079 43.4339C22.4119 43.4339 23.1473 44.1693 23.1473 45.0732C23.1473 45.9772 22.4119 46.7126 21.5079 46.7126Z" fill="black"/>
<path d="M39.0144 22.1072H41.9715C42.3206 23.4956 43.5792 24.5266 45.0743 24.5266C46.8385 24.5266 48.2736 23.0914 48.2736 21.3273C48.2736 19.5632 46.8385 18.1279 45.0743 18.1279C43.5792 18.1279 42.3206 19.159 41.9715 20.5473H39.0144C38.5835 20.5473 38.2344 20.8965 38.2344 21.3273C38.2344 21.758 38.5836 22.1072 39.0144 22.1072ZM45.0743 19.6879C45.9782 19.6879 46.7136 20.4233 46.7136 21.3273C46.7136 22.2312 45.9782 22.9666 45.0743 22.9666C44.1703 22.9666 43.4349 22.2312 43.4349 21.3273C43.4349 20.4233 44.1703 19.6879 45.0743 19.6879Z" fill="black"/>
<path d="M45.0743 27.293C43.5792 27.293 42.3206 28.324 41.9715 29.7123H39.0144C38.5835 29.7123 38.2344 30.0616 38.2344 30.4923C38.2344 30.9231 38.5835 31.2723 39.0144 31.2723H41.9715C42.3206 32.6607 43.5792 33.6917 45.0743 33.6917C46.8385 33.6917 48.2736 32.2565 48.2736 30.4923C48.2736 28.7282 46.8385 27.293 45.0743 27.293ZM45.0743 32.1317C44.1703 32.1317 43.4349 31.3963 43.4349 30.4923C43.4349 29.5884 44.1703 28.853 45.0743 28.853C45.9782 28.853 46.7136 29.5884 46.7136 30.4923C46.7136 31.3963 45.9782 32.1317 45.0743 32.1317Z" fill="black"/>
<path d="M12.9858 29.893H10.0287C9.67955 28.5047 8.42104 27.4736 6.92588 27.4736C5.16174 27.4736 3.72656 28.9089 3.72656 30.673C3.72656 32.4371 5.16174 33.8723 6.92588 33.8723C8.42099 33.8723 9.67954 32.8413 10.0287 31.453H12.9858C13.4166 31.453 13.7658 31.1038 13.7658 30.673C13.7658 30.2422 13.4166 29.893 12.9858 29.893ZM6.92588 32.3123C6.02198 32.3123 5.28656 31.5769 5.28656 30.673C5.28656 29.769 6.02198 29.0336 6.92588 29.0336C7.82989 29.0336 8.56531 29.769 8.56531 30.673C8.56531 31.5769 7.82989 32.3123 6.92588 32.3123Z" fill="black"/>
<path d="M12.9858 20.728H10.0287C9.67955 19.3397 8.42104 18.3086 6.92588 18.3086C5.16174 18.3086 3.72656 19.7438 3.72656 21.508C3.72656 23.2721 5.16174 24.7073 6.92588 24.7073C8.42104 24.7073 9.67954 23.6763 10.0287 22.288H12.9858C13.4166 22.288 13.7658 21.9387 13.7658 21.508C13.7658 21.0772 13.4166 20.728 12.9858 20.728ZM6.92588 23.1473C6.02198 23.1473 5.28656 22.4119 5.28656 21.508C5.28656 20.604 6.02198 19.8686 6.92588 19.8686C7.82989 19.8686 8.56531 20.604 8.56531 21.508C8.56531 22.4119 7.82989 23.1473 6.92588 23.1473Z" fill="black"/>
<path d="M25.2273 21.8136C25.0146 21.3332 24.5387 21.0234 24.0133 21.0234C23.4879 21.0234 23.012 21.3332 22.7993 21.8136L19.4338 29.4138C19.1959 29.9511 19.5893 30.5555 20.1769 30.5555C20.5004 30.5555 20.7931 30.3636 20.9221 30.067L21.5621 28.5956C21.5975 28.5143 21.6777 28.4617 21.7665 28.4617H26.2536C26.3423 28.4617 26.4226 28.5143 26.458 28.5956L27.0971 30.0651C27.2266 30.3629 27.5203 30.5555 27.8451 30.5555C28.4349 30.5555 28.8298 29.9489 28.5909 29.4095L25.2273 21.8136ZM25.4617 27.0591H22.5783C22.4178 27.0591 22.3099 26.8946 22.3739 26.7474L23.8156 23.4284C23.8932 23.2497 24.1468 23.2497 24.2244 23.4284L25.6661 26.7474C25.73 26.8946 25.6221 27.0591 25.4617 27.0591Z" fill="black"/>
<path d="M31.0786 21.0234C30.6123 21.0234 30.2344 21.4014 30.2344 21.8676V29.7113C30.2344 30.1776 30.6123 30.5555 31.0786 30.5555C31.5448 30.5555 31.9228 30.1776 31.9228 29.7113V21.8676C31.9227 21.4014 31.5448 21.0234 31.0786 21.0234Z" fill="black"/>
</svg>
