<svg width="32" height="32" viewBox="0 0 32 32" fill="none" xmlns="http://www.w3.org/2000/svg">
<path d="M17.5062 16.1923C17.4422 16.0323 17.2502 15.9043 17.0582 15.9043C16.8662 15.9043 16.7062 16.0003 16.6422 16.1923L14.4662 21.2163C14.3702 21.4723 14.4662 21.7283 14.7222 21.8563C14.9782 21.9523 15.2342 21.8563 15.3622 21.6003L15.8422 20.5123H18.3382L18.8182 21.6003C18.8822 21.7923 19.0742 21.8883 19.2662 21.8883C19.3302 21.8883 19.3942 21.8883 19.4582 21.8563C19.7142 21.7603 19.8102 21.4723 19.7142 21.2163L17.5062 16.1923ZM16.2262 19.5203L17.0582 17.5683L17.9222 19.5203H16.2262Z" fill="black"/>
<path d="M21.6636 15.9043C21.4076 15.9043 21.1836 16.1283 21.1836 16.3843V21.4083C21.1836 21.6643 21.4076 21.8883 21.6636 21.8883C21.9196 21.8883 22.1436 21.6643 22.1436 21.4083V16.3843C22.1436 16.0963 21.9196 15.9043 21.6636 15.9043Z" fill="black"/>
<path d="M4.09794 9.27934H5.44194C5.69794 9.27934 5.92194 9.05534 5.92194 8.79934C5.92194 8.54334 5.72994 8.31934 5.44194 8.31934H4.06594C3.80994 8.31934 3.58594 8.54334 3.58594 8.79934C3.58594 9.05534 3.80994 9.27934 4.09794 9.27934Z" fill="black"/>
<path d="M5.18481 17.312C5.18481 17.056 4.96081 16.832 4.70481 16.832H2.11281C1.85681 16.832 1.63281 17.056 1.63281 17.312C1.63281 17.568 1.85681 17.792 2.11281 17.792H4.70481C4.99281 17.792 5.18481 17.568 5.18481 17.312Z" fill="black"/>
<path d="M4.32084 25.3438H2.94484C2.68884 25.3438 2.46484 25.5677 2.46484 25.8237C2.46484 26.0798 2.68884 26.3037 2.94484 26.3037H4.32084C4.57684 26.3037 4.80084 26.0798 4.80084 25.8237C4.80084 25.5677 4.57684 25.3438 4.32084 25.3438Z" fill="black"/>
<path d="M25.6342 9.56782L26.4662 7.42382L26.9462 7.61582C27.1702 7.71182 27.3942 7.74382 27.5862 7.74382C28.3222 7.74382 28.9942 7.29582 29.2822 6.59182C29.4422 6.14382 29.4422 5.63182 29.2502 5.21582C29.0582 4.76782 28.7062 4.41582 28.2582 4.25582L21.7942 1.72782C20.8662 1.37582 19.8102 1.82382 19.4262 2.78382C19.0742 3.71182 19.5222 4.76782 20.4822 5.11982L20.9622 5.31182L20.1302 7.45582C18.1782 7.23182 16.1622 7.51982 14.3062 8.31982H8.29019C8.03419 8.31982 7.81019 8.54382 7.81019 8.79982C7.81019 9.05582 8.03419 9.27982 8.29019 9.27982H12.5142C11.7142 9.82382 10.9782 10.4318 10.3382 11.1678H6.59419C6.33819 11.1678 6.11419 11.3918 6.11419 11.6478C6.11419 11.9038 6.33819 12.1278 6.59419 12.1278H9.57019C9.15419 12.7038 8.77019 13.3438 8.45019 14.0158H2.72219C2.46619 14.0158 2.24219 14.2398 2.24219 14.4958C2.24219 14.7518 2.46619 14.9758 2.72219 14.9758H8.03419C7.49019 16.5118 7.26619 18.1118 7.36219 19.6798H4.41819C4.16219 19.6798 3.93819 19.9038 3.93819 20.1598C3.93819 20.4158 4.16219 20.6398 4.41819 20.6398H7.45819C7.55419 21.2798 7.71419 21.8878 7.90619 22.5278H5.98619C5.73019 22.5278 5.50619 22.7518 5.50619 23.0078C5.50619 23.2638 5.73019 23.4878 5.98619 23.4878H8.25819C8.25819 23.5198 8.29019 23.5518 8.29019 23.5838C8.57819 24.2238 8.89819 24.7998 9.28219 25.3758H7.10619C6.85019 25.3758 6.62619 25.5998 6.62619 25.8558C6.62619 26.1118 6.85019 26.3358 7.10619 26.3358H9.98619C11.2342 27.8078 12.8022 28.9598 14.6582 29.6638C16.0022 30.1758 17.4102 30.4318 18.8182 30.4318C20.3862 30.4318 21.9862 30.1118 23.4902 29.4398C26.3062 28.1918 28.4502 25.9198 29.5702 23.0718C31.5222 18.0478 29.7302 12.5758 25.6342 9.56782ZM20.3222 3.10382C20.4822 2.65582 20.9942 2.43182 21.4422 2.62382L27.8742 5.11982C28.0982 5.21582 28.2582 5.37582 28.3542 5.56782C28.4502 5.79182 28.4502 6.01582 28.3862 6.23982C28.2262 6.68782 27.7142 6.91182 27.2662 6.71982L20.8022 4.22382C20.3862 4.03182 20.1622 3.55182 20.3222 3.10382ZM21.8262 5.63182L25.5382 7.07182L24.7702 9.02382C24.1942 8.67182 23.6182 8.38382 22.9782 8.12782C22.3382 7.87182 21.6982 7.71182 21.0582 7.58382L21.8262 5.63182ZM28.7062 22.6878C26.5942 28.1278 20.4822 30.8158 15.0422 28.7358C12.4182 27.7118 10.3382 25.7278 9.18619 23.1678C8.03419 20.5758 7.97019 17.7278 8.99419 15.1038C9.44219 13.9518 10.0822 12.8958 10.8502 11.9998C10.8502 11.9998 10.8502 11.9998 10.8822 11.9678C11.8742 10.8158 13.1222 9.88782 14.5622 9.24782C15.9382 8.63982 17.4102 8.31982 18.8502 8.31982C20.1302 8.31982 21.4102 8.54382 22.6582 9.02382C28.0982 11.1358 30.7862 17.2478 28.7062 22.6878Z" fill="black"/>
<path d="M22.0501 10.6555C17.5061 8.89551 12.3861 11.1675 10.6261 15.7115C9.76211 17.9195 9.82611 20.3195 10.7861 22.4635C11.7461 24.6075 13.4741 26.2715 15.6821 27.1355C16.7061 27.5195 17.7941 27.7435 18.8501 27.7435C20.0661 27.7435 21.2821 27.4875 22.4341 26.9755C24.5781 26.0155 26.2421 24.2875 27.1061 22.0795C28.8341 17.5355 26.5621 12.4155 22.0501 10.6555ZM22.4661 25.8555L22.1141 25.0235C22.0181 24.7675 21.7301 24.6715 21.4741 24.7675C21.2181 24.8635 21.1221 25.1515 21.2181 25.4075L21.5701 26.2395C19.9061 26.8475 18.1461 26.9115 16.4501 26.3675L17.0581 24.7675C17.1541 24.5115 17.0261 24.2555 16.7701 24.1595C16.5141 24.0635 16.2581 24.1915 16.1621 24.4475L15.5541 26.0475C13.9221 25.2795 12.6421 24.0315 11.8421 22.5275L12.6741 22.1755C12.9301 22.0795 13.0261 21.7915 12.9301 21.5355C12.8341 21.2795 12.5461 21.1835 12.2901 21.2795L11.4581 21.6315C10.8501 20.0315 10.7861 18.2395 11.3301 16.5115L12.9301 17.1195C12.9941 17.1515 13.0581 17.1515 13.0901 17.1515C13.2821 17.1515 13.4741 17.0235 13.5381 16.8315C13.6341 16.5755 13.5061 16.3195 13.2501 16.2235L11.6501 15.6155C12.4181 13.9835 13.6661 12.7035 15.1701 11.9035L15.5221 12.7355C15.5861 12.9275 15.7781 13.0235 15.9701 13.0235C16.0341 13.0235 16.0981 13.0235 16.1621 12.9915C16.4181 12.8955 16.5141 12.6075 16.4181 12.3515L16.1301 11.5195C16.9941 11.1995 17.9221 11.0075 18.8821 11.0075C19.6821 11.0075 20.4821 11.1355 21.2501 11.3915L20.6421 12.9915C20.5461 13.2475 20.6741 13.5035 20.9301 13.5995C20.9941 13.6315 21.0581 13.6315 21.0901 13.6315C21.2821 13.6315 21.4741 13.5035 21.5381 13.3115L22.1461 11.7115C23.7781 12.4795 25.0581 13.7275 25.8581 15.2315L25.0261 15.5835C24.7701 15.6795 24.6741 15.9675 24.7701 16.2235C24.8341 16.4155 25.0261 16.5115 25.2181 16.5115C25.2821 16.5115 25.3461 16.5115 25.4101 16.4795L26.2421 16.1275C26.8501 17.7275 26.9141 19.5195 26.3701 21.2475L24.7701 20.6395C24.5141 20.5435 24.2581 20.6715 24.1621 20.9275C24.0661 21.1835 24.1941 21.4395 24.4501 21.5355L26.0501 22.1435C25.2821 23.7755 24.0341 25.0555 22.4661 25.8555Z" fill="black"/>
</svg>
