<svg width="32" height="32" viewBox="0 0 32 32" fill="none" xmlns="http://www.w3.org/2000/svg">
<path d="M28.5046 1.48067C28.1674 1.14542 27.7205 0.961047 27.2451 0.961047C27.2428 0.961047 27.2404 0.961047 27.2381 0.961047C26.7611 0.962859 26.3136 1.15036 25.9783 1.48905C25.971 1.49642 25.9639 1.50405 25.9571 1.51186L24.0433 3.70242C23.5173 3.16255 22.7973 2.82942 22.0184 2.78611L20.0963 2.67917C19.6668 2.65523 19.3216 2.52961 18.9773 2.27186L17.4361 1.11823C16.3399 0.297797 14.8671 0.297859 13.7709 1.11823L12.2297 2.27186C11.8854 2.52961 11.5403 2.65523 11.1107 2.67917L9.18857 2.78611C7.82144 2.86217 6.69313 3.80892 6.38088 5.14205L5.94182 7.01642C5.84369 7.43517 5.66007 7.75323 5.34644 8.04767L3.94269 9.36511C2.94438 10.3021 2.68863 11.7527 3.30626 12.9746L4.17476 14.6926C4.36882 15.0766 4.43257 15.4383 4.38157 15.8654L4.15307 17.777C3.99057 19.1365 4.72701 20.412 5.98563 20.951L7.43319 21.571L4.47338 27.9284C4.35857 28.175 4.39007 28.4624 4.55551 28.6783C4.72107 28.8943 4.99051 28.9992 5.25844 28.9525L8.36776 28.4092L9.95363 31.1384C10.0847 31.3639 10.3234 31.5005 10.5828 31.5005C10.5938 31.5005 10.6049 31.5002 10.616 31.4997C10.8878 31.4873 11.1279 31.3264 11.2426 31.0799L14.0381 25.0754L15.0081 24.7822C15.4198 24.6577 15.7871 24.6578 16.1989 24.7822L17.169 25.0754L19.9644 31.0797C20.0791 31.3264 20.3193 31.4872 20.5914 31.4997C20.6025 31.5002 20.6136 31.5005 20.6246 31.5005C20.8837 31.5005 21.1224 31.3639 21.2535 31.1384L22.8394 28.4092L25.9485 28.9524C26.2168 28.9996 26.4861 28.8944 26.6516 28.6783C26.8171 28.4624 26.8486 28.175 26.7338 27.9284L23.7739 21.571L25.2215 20.951C26.4801 20.412 27.2166 19.1365 27.0541 17.777L26.8256 15.8654C26.7746 15.4383 26.8383 15.0766 27.0324 14.6927L27.9009 12.9746C28.5186 11.7526 28.2628 10.3021 27.2644 9.36511L25.8607 8.04767C25.6695 7.86817 25.5269 7.6783 25.4223 7.46367C26.8047 5.87392 27.9793 4.5428 28.5128 4.00442C29.2051 3.30567 29.2014 2.17348 28.5046 1.48067ZM10.5562 30.1849L9.05732 27.6055C8.95213 27.4245 8.74551 27.3282 8.53894 27.3642L5.60007 27.8777L8.31057 22.0559C8.44307 22.1737 8.56051 22.3107 8.66757 22.4745L9.72126 24.0857C10.3955 25.1165 11.5834 25.6274 12.7695 25.431L10.5562 30.1849ZM22.6683 27.3641C22.4618 27.3284 22.2551 27.4244 22.1499 27.6054L20.6509 30.1849L18.4376 25.4308C18.6053 25.4585 18.773 25.4727 18.9393 25.4727C19.9493 25.4726 20.907 24.9706 21.4859 24.0855L22.5396 22.4744C22.6466 22.3106 22.7641 22.1736 22.8966 22.0557L25.607 27.8775L22.6683 27.3641ZM25.1764 8.7768L26.5801 10.0942C27.2625 10.7347 27.4306 11.6882 27.0084 12.5234L26.1399 14.2415C25.8594 14.7965 25.7589 15.3665 25.8327 15.984L26.0612 17.8956C26.1723 18.8249 25.6881 19.6634 24.8279 20.0319L23.0581 20.7897C22.4864 21.0347 22.0431 21.4067 21.7028 21.927L20.6491 23.5382C20.1368 24.3215 19.2269 24.6525 18.3312 24.3819L16.4884 23.8249C15.8931 23.6451 15.3143 23.6451 14.719 23.8249L12.8762 24.3819C11.9804 24.6525 11.0705 24.3215 10.5583 23.5382L9.50457 21.927C9.16413 21.4066 8.72076 21.0346 8.14907 20.7898L6.37938 20.0319C5.51907 19.6634 5.03494 18.8249 5.14607 17.8956L5.37457 15.984C5.44838 15.3665 5.34788 14.7965 5.06732 14.2415L4.19882 12.5234C3.77663 11.6882 3.94476 10.7347 4.62713 10.0942L6.03088 8.7768C6.48432 8.35111 6.77376 7.84992 6.91557 7.24442L7.35463 5.37005C7.56807 4.45886 8.30982 3.83648 9.24419 3.78448L11.1663 3.67755C11.7874 3.64298 12.3313 3.44505 12.8291 3.07236L14.3703 1.91873C15.1195 1.35798 16.0878 1.35786 16.8369 1.91873L18.3781 3.07236C18.8759 3.44505 19.4198 3.64298 20.0409 3.67755L21.963 3.78448C22.5263 3.8158 23.0277 4.0568 23.3836 4.45748L21.2027 6.9538C19.6774 5.5328 17.7097 4.75598 15.6036 4.75598C11.0649 4.75598 7.37244 8.44848 7.37244 12.9872C7.37244 17.5259 11.0649 21.2184 15.6036 21.2184C20.1423 21.2184 23.8348 17.5259 23.8348 12.9872C23.8348 11.9395 23.6411 10.9231 23.2598 9.96055C23.7551 9.38736 24.2511 8.81355 24.7319 8.25892C24.8571 8.44261 25.0039 8.61498 25.1764 8.7768ZM11.0944 13.2712L14.6648 16.8416C15.0024 17.1792 15.4514 17.3652 15.929 17.3652C16.4066 17.3652 16.8556 17.1792 17.1933 16.8416C18.0203 16.0145 20.2502 13.4428 22.5078 10.8307C22.7247 11.5247 22.8348 12.2469 22.8348 12.9872C22.8348 16.9745 19.5909 20.2184 15.6036 20.2184C11.6163 20.2184 8.37238 16.9745 8.37238 12.9872C8.37238 8.99986 11.6163 5.75598 15.6036 5.75598C17.4638 5.75598 19.2013 6.44586 20.5443 7.7073L15.9015 13.0215L13.6228 10.7427C12.9258 10.0457 11.7914 10.0457 11.0943 10.7428C10.7567 11.0804 10.5708 11.5294 10.5708 12.007C10.5708 12.4847 10.7567 12.9336 11.0944 13.2712ZM27.8024 3.30055C26.9483 4.16255 24.6616 6.80892 22.2405 9.61061C19.8348 12.3946 17.3472 15.2734 16.4861 16.1345C16.3373 16.2833 16.1395 16.3652 15.9289 16.3652C15.7184 16.3652 15.5206 16.2832 15.3718 16.1345L11.8014 12.5641C11.6527 12.4154 11.5708 12.2175 11.5708 12.007C11.5708 11.7965 11.6527 11.5987 11.8014 11.4499C11.9551 11.2963 12.1568 11.2195 12.3586 11.2195C12.5604 11.2195 12.7622 11.2963 12.9158 11.4499L15.5726 14.1069C15.6705 14.2047 15.8045 14.2575 15.943 14.253C16.0814 14.2484 16.2116 14.1865 16.3027 14.0823L24.3988 4.81542C24.3998 4.81436 24.4007 4.8133 24.4016 4.81223L26.6986 2.18305C26.8446 2.04055 27.037 1.96186 27.2419 1.96105H27.2451C27.4543 1.96105 27.6511 2.04217 27.7994 2.18973C28.106 2.49448 28.1073 2.9928 27.8024 3.30055Z" fill="black"/>
</svg>
