<svg width="52" height="52" viewBox="0 0 52 52" fill="none" xmlns="http://www.w3.org/2000/svg">
<path d="M4.54367 11.5789C4.64727 11.8014 4.87172 11.9395 5.11852 11.9314C5.36328 11.9222 5.57961 11.7678 5.66594 11.5383L6.66836 8.89565L48.5995 24.8085C48.6706 24.8359 48.7437 24.8481 48.8158 24.8481C49.0616 24.8481 49.2931 24.6978 49.3856 24.455L50.4347 21.6895C50.4916 21.5382 50.4875 21.3706 50.4205 21.2233C50.3545 21.076 50.2316 20.9613 50.0813 20.9034L8.15117 4.99159L9.15461 2.34894C9.24196 2.1194 9.18305 1.86042 9.00531 1.69183C8.82758 1.52222 8.56657 1.47651 8.3411 1.57401L1.88883 4.38222C1.73852 4.44823 1.62071 4.57112 1.56281 4.72448C1.50492 4.87784 1.51102 5.04847 1.58008 5.19776L4.54367 11.5789ZM7.50117 3.26808L6.79531 5.1287C6.73844 5.28003 6.7425 5.44761 6.80953 5.59487C6.87555 5.74214 6.99844 5.8569 7.14875 5.91479L49.0798 21.8276L48.4634 23.4536L6.53227 7.53979C6.46117 7.51237 6.38805 7.50019 6.31594 7.50019C6.07016 7.50019 5.8386 7.6505 5.74617 7.89323L5.04031 9.75386L2.94711 5.25058L7.50117 3.26808ZM27.4115 18.9463H20.7155C20.3793 18.9463 20.1061 19.2195 20.1061 19.5557V24.6419C19.775 24.5078 19.4134 24.4337 19.0356 24.4317L17.0968 24.4246L16.8043 24.1341V15.2992C16.8043 14.963 16.5311 14.6898 16.1949 14.6898H9.49891C9.16274 14.6898 8.88953 14.963 8.88953 15.2992V23.9411L7.12438 23.9482C5.53188 23.9543 4.23188 25.2543 4.22578 26.8468L4.21867 28.7857L2.36516 30.6524C1.24391 31.7828 1.24391 33.6221 2.36516 34.7524L3.73117 36.1286L3.74133 38.7591C3.74539 39.9393 4.46141 40.9579 5.47906 41.4099L3.23656 47.5707C3.14922 47.8093 3.22032 48.0775 3.4143 48.243C3.60828 48.4075 3.88352 48.435 4.10594 48.311L7.56719 46.3803L8.97688 50.0843C9.06727 50.321 9.29375 50.4774 9.54664 50.4774H9.55071C9.80563 50.4753 10.0321 50.3159 10.1184 50.0762L12.2045 44.345C12.301 44.3542 12.3985 44.3592 12.496 44.3592C12.8088 44.3592 13.1227 44.3085 13.4223 44.2089L15.5571 50.0752C15.6445 50.3149 15.8709 50.4743 16.1248 50.4764H16.1289C16.3818 50.4764 16.6083 50.32 16.6987 50.0833L18.1084 46.3793L21.5696 48.31C21.792 48.4339 22.0673 48.4065 22.2613 48.242C22.4552 48.0774 22.5253 47.8093 22.439 47.5696L20.2574 41.5764C20.5885 41.3327 20.8658 41.0219 21.0699 40.6634H27.4105C27.7466 40.6634 28.0198 40.3902 28.0198 40.054V19.5557C28.0209 19.2195 27.7487 18.9463 27.4115 18.9463ZM15.5855 15.9085V22.9245L15.2301 22.5721C14.0997 21.4508 12.2604 21.4498 11.13 22.5721L10.1073 23.5867V15.9085H15.5855ZM9.53344 48.1201L8.45485 45.2875C8.39188 45.122 8.25985 44.992 8.09328 44.9321C7.92672 44.8711 7.74289 44.8864 7.58852 44.9727L4.9418 46.4494L6.68563 41.6577L8.57977 41.6648L10.4465 43.5173C10.6293 43.6981 10.8304 43.8494 11.0437 43.9723L9.53344 48.1201ZM11.3047 42.653L9.26024 40.6248C9.14649 40.5121 8.99313 40.4481 8.83367 40.4481L6.645 40.4399C5.71977 40.4359 4.96414 39.6803 4.96008 38.755L4.94891 35.8757C4.94789 35.7153 4.88492 35.5619 4.77219 35.4492L3.23047 33.8953C2.57844 33.2382 2.57844 32.1697 3.23047 31.5126L5.25867 29.4682C5.37141 29.3544 5.43539 29.201 5.43539 29.0416L5.44352 26.8529C5.44657 25.9277 6.20321 25.1721 7.12844 25.168L10.0077 25.1568C10.1682 25.1558 10.3216 25.0928 10.4343 24.9801L11.9882 23.4384C12.3163 23.1124 12.7479 22.9499 13.1795 22.9499C13.6112 22.9499 14.0428 23.1124 14.3709 23.4384L16.4153 25.4666C16.5291 25.5793 16.6824 25.6433 16.8419 25.6433L19.0306 25.6514C19.9558 25.6545 20.7114 26.4111 20.7155 27.3364L20.7266 30.2157C20.7277 30.3761 20.7906 30.5295 20.9034 30.6422L22.4451 32.1961C23.0971 32.8532 23.0971 33.9217 22.4451 34.5788L20.4169 36.6232C20.3041 36.737 20.2402 36.8903 20.2402 37.0498L20.232 39.2385C20.229 40.1637 19.4723 40.9193 18.5471 40.9234L15.6678 40.9346C15.5073 40.9356 15.354 40.9985 15.2413 41.1113L13.6873 42.653C13.0302 43.305 11.9618 43.305 11.3047 42.653ZM20.7348 46.4494L18.088 44.9727C17.9337 44.8864 17.7488 44.8711 17.5833 44.9321C17.4167 44.993 17.2847 45.122 17.2217 45.2875L16.1431 48.1201L14.4877 43.5721C14.507 43.5539 14.5273 43.5356 14.5455 43.5173L15.9217 42.1513L18.5522 42.1411C18.7553 42.1401 18.9534 42.1188 19.1443 42.0782L20.7348 46.4494ZM26.8021 39.4446H21.4427C21.4477 39.3776 21.4508 39.3106 21.4508 39.2425L21.4579 37.3037L23.3104 35.437C24.4327 34.3066 24.4327 32.4673 23.3104 31.3369L21.9454 29.9607L21.9352 27.3303C21.9322 26.6671 21.7047 26.0536 21.3248 25.5641V20.164H26.8021V39.4446ZM38.6291 23.2038H31.9331C31.5969 23.2038 31.3237 23.477 31.3237 23.8132V40.055C31.3237 40.3912 31.5969 40.6644 31.9331 40.6644H38.6291C38.9652 40.6644 39.2384 40.3912 39.2384 40.055V23.8132C39.2384 23.476 38.9652 23.2038 38.6291 23.2038ZM38.0197 39.4446H32.5424V24.4225H38.0197V39.4446ZM49.8456 27.4603H43.1496C42.8134 27.4603 42.5402 27.7335 42.5402 28.0696V40.054C42.5402 40.3902 42.8134 40.6634 43.1496 40.6634H49.8456C50.1818 40.6634 50.455 40.3902 50.455 40.054V28.0696C50.455 27.7335 50.1828 27.4603 49.8456 27.4603ZM49.2363 39.4446H43.759V28.679H49.2363V39.4446ZM19.8116 33.0452C19.8116 29.2 16.6834 26.0709 12.8373 26.0709C8.9911 26.0709 5.86297 29.199 5.86297 33.0452C5.86297 36.8914 8.9911 40.0195 12.8373 40.0195C16.6834 40.0195 19.8116 36.8903 19.8116 33.0452ZM12.8383 38.7997C9.66446 38.7997 7.08274 36.218 7.08274 33.0442C7.08274 29.8703 9.66446 27.2886 12.8383 27.2886C16.0121 27.2886 18.5938 29.8703 18.5938 33.0442C18.5938 36.218 16.0111 38.7997 12.8383 38.7997Z" fill="black"/>
</svg>
