<svg width="52" height="52" viewBox="0 0 52 52" fill="none" xmlns="http://www.w3.org/2000/svg">
<g clip-path="url(#clip0_989_14771)">
<path fill-rule="evenodd" clip-rule="evenodd" d="M26.0011 11.8245C33.8309 11.8245 40.1767 18.1704 40.1767 26.0001C40.1767 33.8299 33.8309 40.1758 26.0011 40.1758C18.1713 40.1758 11.8255 33.8299 11.8255 26.0001C11.8255 18.1704 18.1713 11.8245 26.0011 11.8245ZM35.7671 33.8744C37.5049 31.7217 38.5454 28.9826 38.5454 26.0001C38.5454 19.0714 32.9299 13.4559 26.0011 13.4559C19.0724 13.4559 13.4569 19.0714 13.4569 26.0001C13.4569 28.9826 14.4973 31.7217 16.2351 33.8744C17.1364 30.6611 19.5801 28.0924 22.7162 27.0185C21.354 26.0081 20.4673 24.3889 20.4673 22.5717C20.4673 19.5272 22.9566 17.0379 26.0011 17.0379C29.0457 17.0379 31.5349 19.5272 31.5349 22.5717C31.5349 24.3889 30.6483 26.0081 29.286 27.0185C32.4221 28.0924 34.8658 30.6611 35.7671 33.8744ZM17.5907 35.3079C19.8156 37.3195 22.7651 38.5444 26.0011 38.5444C29.2372 38.5444 32.1867 37.3195 34.4116 35.3079C33.7811 31.229 30.2546 28.1055 26.0011 28.1055C21.7476 28.1055 18.2211 31.229 17.5907 35.3079ZM26.0011 26.4742C28.1481 26.4742 29.9036 24.7188 29.9036 22.5717C29.9036 20.4247 28.1481 18.6693 26.0011 18.6693C23.8541 18.6693 22.0987 20.4247 22.0987 22.5717C22.0987 24.7188 23.8541 26.4742 26.0011 26.4742ZM49.6422 26.8158H44.958L45.6103 27.5899C45.9004 27.9341 45.8565 28.4491 45.5121 28.7393C45.1679 29.0294 44.6529 28.9855 44.3628 28.6412L42.5801 26.5257C42.3241 26.2221 42.3241 25.7782 42.5801 25.4745L44.3628 23.3591C44.6529 23.0148 45.1679 22.9709 45.5121 23.261C45.8565 23.5511 45.9004 24.0662 45.6103 24.4104L44.958 25.1845H50.4717C50.9219 25.1845 51.2874 25.55 51.2874 26.0001C51.2874 38.2826 42.5109 48.5312 30.8927 50.8126C30.451 50.8994 30.0219 50.6111 29.9352 50.1694C29.8484 49.7276 30.1366 49.2986 30.5783 49.2118C41.1885 47.1285 49.2644 37.9414 49.6422 26.8158ZM25.1854 7.04329V1.52955C25.1854 1.0794 25.551 0.713867 26.0011 0.713867C38.2836 0.713867 48.5322 9.49035 50.8136 21.1086C50.9003 21.5503 50.6121 21.9793 50.1704 22.0661C49.7286 22.1529 49.2996 21.8646 49.2128 21.4229C47.1294 10.8128 37.9424 2.73687 26.8168 2.35911V7.04329L27.5909 6.39094C27.9351 6.10086 28.4501 6.14481 28.7403 6.48913C29.0304 6.83335 28.9864 7.34835 28.6422 7.63843L26.5267 9.42111C26.2231 9.67714 25.7792 9.67714 25.4755 9.42111L23.36 7.63843C23.0158 7.34835 22.9719 6.83335 23.2619 6.48913C23.5521 6.14481 24.0671 6.10086 24.4113 6.39094L25.1854 7.04329ZM2.36008 25.1845H7.04426L6.39192 24.4104C6.10184 24.0662 6.14578 23.5511 6.49011 23.261C6.83433 22.9709 7.34933 23.0148 7.63941 23.3591L9.42209 25.4745C9.67811 25.7782 9.67811 26.2221 9.42209 26.5257L7.63941 28.6412C7.34933 28.9855 6.83433 29.0294 6.49011 28.7393C6.14578 28.4491 6.10184 27.9341 6.39192 27.5899L7.04426 26.8158H1.53053C1.08037 26.8158 0.714844 26.4503 0.714844 26.0001C0.714844 13.7176 9.49132 3.46905 21.1095 1.18768C21.5512 1.10091 21.9803 1.38915 22.0671 1.83085C22.1538 2.27264 21.8656 2.70169 21.4238 2.78846C10.8138 4.87183 2.73785 14.0589 2.36008 25.1845ZM25.1854 49.6412V44.957L24.4113 45.6093C24.0671 45.8994 23.5521 45.8555 23.2619 45.5112C22.9719 45.1669 23.0158 44.6519 23.36 44.3619L25.4755 42.5792C25.7792 42.3231 26.2231 42.3231 26.5267 42.5792L28.6422 44.3619C28.9864 44.6519 29.0304 45.1669 28.7403 45.5112C28.4501 45.8555 27.9351 45.8994 27.5909 45.6093L26.8168 44.957V50.4707C26.8168 50.9209 26.4513 51.2864 26.0011 51.2864C13.7186 51.2864 3.47003 42.5099 1.18866 30.8917C1.10189 30.45 1.39013 30.021 1.83182 29.9342C2.27362 29.8474 2.70267 30.1357 2.78944 30.5774C4.8728 41.1875 14.0599 49.2634 25.1854 49.6412Z" fill="black"/>
</g>
<defs>
<clipPath id="clip0_989_14771">
<rect width="52" height="52" fill="white"/>
</clipPath>
</defs>
</svg>
