<svg width="32" height="32" viewBox="0 0 32 32" fill="none" xmlns="http://www.w3.org/2000/svg">
<path fill-rule="evenodd" clip-rule="evenodd" d="M27.7466 15.5068C27.4746 15.5527 27.291 15.8105 27.3369 16.083C27.4453 16.7236 27.5 17.3682 27.5 18C27.5 21.5242 25.9292 24.7053 23.3983 26.8234C22.9563 23.9535 20.9187 21.6517 18.213 20.8279C19.2887 20.1104 20 18.8877 20 17.5C20 15.2939 18.2056 13.5 16 13.5C13.7944 13.5 12 15.2939 12 17.5C12 18.8877 12.7113 20.1104 13.787 20.8279C11.0813 21.6517 9.0437 23.9535 8.60169 26.8234C6.0708 24.7053 4.5 21.5242 4.5 18C4.5 17.3682 4.55469 16.7236 4.66309 16.083C4.70898 15.8105 4.52539 15.5527 4.25342 15.5068C3.9751 15.46 3.72314 15.6445 3.67676 15.917C3.55957 16.6113 3.5 17.3125 3.5 18C3.5 24.1406 7.88574 29.3232 13.9282 30.3232C13.9556 30.3281 13.9834 30.3301 14.0103 30.3301C14.2505 30.3301 14.4624 30.1562 14.5029 29.9121C14.5483 29.6396 14.3638 29.3818 14.0913 29.3369C12.4064 29.058 10.8651 28.421 9.53021 27.5174C9.77142 24.1242 12.5601 21.5 16 21.5C19.4399 21.5 22.2286 24.1242 22.4698 27.5174C21.1349 28.421 19.5936 29.058 17.9087 29.3369C17.6362 29.3818 17.4517 29.6396 17.4971 29.9121C17.5376 30.1562 17.7495 30.3301 17.9897 30.3301C18.0166 30.3301 18.0444 30.3281 18.0718 30.3232C24.1143 29.3232 28.5 24.1406 28.5 18C28.5 17.3125 28.4404 16.6113 28.3232 15.917C28.2769 15.6445 28.022 15.459 27.7466 15.5068ZM13 17.5C13 15.8457 14.3457 14.5 16 14.5C17.6543 14.5 19 15.8457 19 17.5C19 19.1543 17.6543 20.5 16 20.5C14.3457 20.5 13 19.1543 13 17.5Z" fill="black"/>
<path fill-rule="evenodd" clip-rule="evenodd" d="M21.4756 5.47852C21.4165 5.29688 21.2602 5.16504 21.0718 5.1377L17.8769 4.67383L16.4482 1.77832C16.2803 1.43848 15.7197 1.43848 15.5517 1.77832L14.123 4.67383L10.9282 5.1377C10.7397 5.16504 10.5835 5.29688 10.5244 5.47852C10.4658 5.65918 10.5146 5.8584 10.6509 5.99121L12.9629 8.24414L12.417 11.4258C12.3847 11.6143 12.4619 11.8037 12.6157 11.915C12.7705 12.0273 12.9741 12.0439 13.1426 11.9531L16 10.4502L18.8574 11.9531C18.9306 11.9922 19.0107 12.0107 19.0903 12.0107C19.1938 12.0107 19.2969 11.9785 19.3843 11.915C19.5381 11.8037 19.6152 11.6143 19.583 11.4258L19.0371 8.24414L21.3491 5.99121C21.4853 5.8584 21.5342 5.65918 21.4756 5.47852ZM18.1509 7.71094C18.0332 7.82617 17.9795 7.99121 18.0073 8.1543L18.4262 10.5967L16.2329 9.44336C16.1596 9.40527 16.0801 9.38574 16 9.38574C15.9199 9.38574 15.8403 9.40527 15.7671 9.44336L13.5737 10.5967L13.9927 8.1543C14.0205 7.99121 13.9668 7.82617 13.8491 7.71094L12.0747 5.98242L14.5268 5.62598C14.6899 5.60156 14.8305 5.5 14.9033 5.35254L16 3.12988L17.0967 5.35254C17.1694 5.5 17.31 5.60156 17.4731 5.62598L19.9253 5.98242L18.1509 7.71094Z" fill="black"/>
<path fill-rule="evenodd" clip-rule="evenodd" d="M4.03513 13.5234C4.00291 13.7119 4.08006 13.9014 4.23387 14.0127C4.38914 14.125 4.59324 14.1406 4.76072 14.0508L6.99998 12.873L9.23924 14.0508C9.31248 14.0898 9.39256 14.1084 9.47215 14.1084C9.57566 14.1084 9.67869 14.0762 9.76609 14.0127C9.9199 13.9014 9.99705 13.7119 9.96482 13.5234L9.53709 11.0303L11.3491 9.26465C11.4853 9.13184 11.5342 8.93262 11.4756 8.75195C11.4165 8.57031 11.2602 8.43848 11.0718 8.41113L8.56785 8.04785L7.44822 5.77832C7.28025 5.43848 6.71971 5.43848 6.55174 5.77832L5.43211 8.04785L2.9282 8.41113C2.73972 8.43848 2.58347 8.57031 2.52439 8.75195C2.4658 8.93262 2.51463 9.13184 2.65086 9.26465L4.46287 11.0303L4.03513 13.5234ZM4.07469 9.25586L5.83592 9C5.999 8.97559 6.13963 8.87402 6.21238 8.72656L6.99998 7.12988L7.78758 8.72656C7.86033 8.87402 8.00096 8.97559 8.16404 9L9.92527 9.25586L8.65086 10.4971C8.53318 10.6123 8.47947 10.7773 8.5073 10.9404L8.80808 12.6943L7.23289 11.8662C7.15965 11.8281 7.08006 11.8086 6.99998 11.8086C6.9199 11.8086 6.84031 11.8281 6.76707 11.8662L5.19187 12.6943L5.49265 10.9404C5.52049 10.7773 5.46678 10.6123 5.3491 10.4971L4.07469 9.25586Z" fill="black"/>
<path fill-rule="evenodd" clip-rule="evenodd" d="M29.0718 8.41113L26.5678 8.04785L25.4482 5.77832C25.2803 5.43848 24.7197 5.43848 24.5517 5.77832L23.4321 8.04785L20.9282 8.41113C20.7397 8.43848 20.5835 8.57031 20.5244 8.75195C20.4658 8.93262 20.5146 9.13184 20.6509 9.26465L22.4629 11.0303L22.0351 13.5234C22.0029 13.7119 22.0801 13.9014 22.2339 14.0127C22.3887 14.125 22.5923 14.1406 22.7607 14.0508L25 12.873L27.2392 14.0508C27.3125 14.0898 27.3926 14.1084 27.4721 14.1084C27.5757 14.1084 27.6787 14.0762 27.7661 14.0127C27.9199 13.9014 27.997 13.7119 27.9648 13.5234L27.5371 11.0303L29.3491 9.26465C29.4853 9.13184 29.5342 8.93262 29.4756 8.75195C29.4165 8.57031 29.2602 8.43848 29.0718 8.41113ZM26.6509 10.4971C26.5332 10.6123 26.4795 10.7773 26.5073 10.9404L26.8081 12.6943L25.2329 11.8662C25.1596 11.8281 25.0801 11.8086 25 11.8086C24.9199 11.8086 24.8403 11.8281 24.7671 11.8662L23.1919 12.6943L23.4927 10.9404C23.5205 10.7773 23.4668 10.6123 23.3491 10.4971L22.0747 9.25586L23.8359 9C23.999 8.97559 24.1396 8.87402 24.2124 8.72656L25 7.12988L25.7876 8.72656C25.8603 8.87402 26.001 8.97559 26.164 9L27.9253 9.25586L26.6509 10.4971Z" fill="black"/>
<path d="M16 30.5C16.2761 30.5 16.5 30.2761 16.5 30C16.5 29.7239 16.2761 29.5 16 29.5C15.7239 29.5 15.5 29.7239 15.5 30C15.5 30.2761 15.7239 30.5 16 30.5Z" fill="black"/>
</svg>
