<svg width="32" height="32" viewBox="0 0 32 32" fill="none" xmlns="http://www.w3.org/2000/svg">
<path fill-rule="evenodd" clip-rule="evenodd" d="M20.2954 18.725H15.3753C15.3042 18.7251 15.2338 18.71 15.1689 18.6807C15.1041 18.6514 15.0462 18.6086 14.9993 18.5552C14.9523 18.5017 14.9174 18.4388 14.8967 18.3707C14.876 18.3026 14.8702 18.2309 14.8795 18.1603C14.9163 17.6784 14.9994 17.1284 15.0893 16.5337C15.2339 15.5771 15.3965 14.5008 15.3965 13.5061C15.3965 11.824 14.8965 10.3462 12.8564 10.1548C12.6622 12.8536 12.2265 14.7023 11.2898 16.2073C10.3366 17.7385 8.8935 18.8719 6.68687 20.1411L7.91519 28.6017C8.92769 29.1945 9.4825 29.5709 10.5672 29.7256C11.6418 29.8787 13.3247 29.8781 16.7512 29.877C19.8985 29.8759 12.6138 29.8749 17.7231 29.8749C19.9457 29.8749 19.5014 28.5002 19.0793 28.3874C18.9622 28.3561 18.8604 28.2834 18.793 28.1826C18.7256 28.0819 18.6971 27.9601 18.7129 27.8399C18.7287 27.7197 18.7876 27.6094 18.8788 27.5294C18.9699 27.4495 19.087 27.4055 19.2082 27.4055V27.4049C20.8144 27.4049 21.0809 25.6062 20.0189 25.2849C19.4706 25.1191 19.5943 24.3064 20.1634 24.3064C22.2594 24.3064 22.1996 22.1787 20.9772 21.9988C20.4342 21.9189 20.3834 21.1164 20.9843 21.0094C21.2405 20.9562 21.4718 20.8194 21.6419 20.6206C21.7538 20.487 21.8333 20.3293 21.8741 20.1599C21.2654 19.781 20.7305 19.2949 20.2954 18.725ZM27.3625 12.9759C27.4568 12.8849 27.5831 12.8345 27.7142 12.8356C27.8453 12.8367 27.9707 12.8893 28.0634 12.982C28.1561 13.0747 28.2087 13.2001 28.2098 13.3312C28.211 13.4623 28.1606 13.5886 28.0695 13.6829L24.4242 17.3283C24.3304 17.422 24.2033 17.4746 24.0707 17.4746C23.9381 17.4746 23.811 17.422 23.7172 17.3283L21.8945 15.5056C21.8472 15.4594 21.8096 15.4042 21.7838 15.3433C21.7579 15.2825 21.7445 15.2171 21.7441 15.1509C21.7437 15.0848 21.7565 15.0193 21.7816 14.9581C21.8067 14.8969 21.8438 14.8413 21.8905 14.7946C21.9373 14.7478 21.9929 14.7108 22.054 14.6857C22.1152 14.6605 22.1807 14.6478 22.2469 14.6481C22.313 14.6485 22.3784 14.662 22.4393 14.6878C22.5002 14.7136 22.5553 14.7513 22.6016 14.7986L24.0707 16.2677L27.3625 12.9759ZM22.7759 20.6181C22.6542 20.9586 22.4467 21.2619 22.1735 21.4988C23.2587 22.4906 22.9947 24.4683 21.3504 25.1021C22.0366 26.182 21.5121 27.6959 20.2457 28.2121C20.3931 28.5083 20.4502 28.8413 20.4098 29.1697C20.3694 29.498 20.2333 29.8073 20.0185 30.0589C19.6181 30.5257 18.8935 30.8748 17.7231 30.8748C11.9364 30.8748 19.2793 30.8722 16.7512 30.8731C13.2673 30.8742 11.5562 30.8748 10.4266 30.7138C9.43487 30.5724 8.89706 30.3206 8.09813 29.8617L8.15531 30.2856C8.15531 30.4182 8.10263 30.5453 8.00887 30.6391C7.9151 30.7329 7.78792 30.7856 7.65531 30.7856H1.625C1.49239 30.7856 1.36521 30.7329 1.27145 30.6391C1.17768 30.5453 1.125 30.4182 1.125 30.2856V18.225C1.125 18.0924 1.17768 17.9652 1.27145 17.8714C1.36521 17.7777 1.49239 17.725 1.625 17.725H5.90431V17.7259C6.0245 17.7259 6.14065 17.7693 6.23142 17.848C6.32219 17.9268 6.38149 18.0357 6.39844 18.1547L6.53212 19.0756C8.40244 17.97 9.63838 16.9707 10.4421 15.6799C11.3324 14.2496 11.7233 12.4153 11.8906 9.63612C11.8902 9.57025 11.9029 9.50494 11.9278 9.44397C11.9528 9.38301 11.9896 9.32758 12.036 9.2809C12.0825 9.23421 12.1378 9.19719 12.1986 9.17197C12.2595 9.14675 12.3247 9.13382 12.3906 9.13394C17.1844 9.13394 16.544 13.5955 16.0776 16.6824C16.0213 17.053 15.9683 17.4058 15.9283 17.7253H19.679C19.0796 16.4883 18.9319 15.0807 19.2615 13.7463C19.5911 12.4118 20.3771 11.2348 21.4834 10.4191C22.5898 9.60348 23.9466 9.2006 25.3188 9.28033C26.691 9.36007 27.992 9.91739 28.9964 10.8557C30.0008 11.794 30.6453 13.0542 30.818 14.4178C30.9908 15.7814 30.6811 17.1625 29.9425 18.3216C29.2039 19.4808 28.083 20.3451 26.774 20.7645C25.4651 21.184 24.0507 21.1323 22.7759 20.6184V20.6181ZM24.9821 10.2591C25.9499 10.2591 26.8959 10.5461 27.7005 11.0837C28.5052 11.6214 29.1323 12.3856 29.5027 13.2797C29.873 14.1737 29.9699 15.1576 29.7811 16.1067C29.5923 17.0559 29.1263 17.9277 28.442 18.612C27.7577 19.2963 26.8859 19.7623 25.9367 19.9511C24.9876 20.1399 24.0037 20.043 23.1097 19.6727C22.2156 19.3023 21.4514 18.6752 20.9137 17.8705C20.3761 17.0659 20.0891 16.1199 20.0891 15.1521C20.0891 14.5096 20.2157 13.8733 20.4615 13.2796C20.7074 12.686 21.0679 12.1466 21.5222 11.6922C21.9766 11.2379 22.516 10.8774 23.1096 10.6315C23.7033 10.3857 24.3396 10.2591 24.9821 10.2591ZM12.5879 1.625C12.5879 1.49239 12.6406 1.36521 12.7344 1.27145C12.8282 1.17768 12.9553 1.125 13.0879 1.125C13.2205 1.125 13.3477 1.17768 13.4415 1.27145C13.5353 1.36521 13.5879 1.49239 13.5879 1.625V3.85812C13.5879 3.99073 13.5353 4.11791 13.4415 4.21168C13.3477 4.30545 13.2205 4.35813 13.0879 4.35813C12.9553 4.35813 12.8282 4.30545 12.7344 4.21168C12.6406 4.11791 12.5879 3.99073 12.5879 3.85812V1.625ZM4.44225 7.11363C4.38505 7.08106 4.33486 7.0375 4.29458 6.98545C4.25429 6.9334 4.22471 6.8739 4.20753 6.81036C4.19034 6.74683 4.1859 6.68052 4.19446 6.61526C4.20302 6.55001 4.22441 6.48709 4.2574 6.43013C4.29039 6.37318 4.33432 6.32332 4.38667 6.28342C4.43902 6.24352 4.49874 6.21438 4.5624 6.19767C4.62606 6.18096 4.6924 6.17702 4.75759 6.18606C4.82279 6.19511 4.88554 6.21696 4.94225 6.25037L6.876 7.36681C6.99048 7.43312 7.07394 7.54218 7.108 7.67002C7.14207 7.79785 7.12396 7.93399 7.05766 8.04847C6.99135 8.16295 6.88229 8.24641 6.75445 8.28047C6.62662 8.31454 6.49048 8.29643 6.376 8.23013L4.44225 7.11363ZM7.78125 3.27881C7.71495 3.16433 7.69684 3.0282 7.7309 2.90036C7.76497 2.77253 7.84842 2.66346 7.96291 2.59716C8.07739 2.53085 8.21352 2.51274 8.34136 2.54681C8.46919 2.58088 8.57826 2.66433 8.64456 2.77881L9.76069 4.7125C9.7941 4.76921 9.81596 4.83196 9.825 4.89716C9.83405 4.96235 9.8301 5.02869 9.81339 5.09235C9.79668 5.15601 9.76754 5.21573 9.72764 5.26808C9.68775 5.32043 9.63788 5.36436 9.58093 5.39735C9.52398 5.43034 9.46106 5.45173 9.3958 5.46029C9.33054 5.46885 9.26423 5.46441 9.2007 5.44723C9.13716 5.43004 9.07766 5.40046 9.02561 5.36017C8.97356 5.31989 8.93 5.2697 8.89744 5.2125L7.78125 3.27881ZM21.4151 5.93606C21.4718 5.90265 21.5345 5.88079 21.5997 5.87175C21.6649 5.8627 21.7313 5.86665 21.7949 5.88336C21.8586 5.90007 21.9183 5.92921 21.9706 5.96911C22.023 6.00901 22.0669 6.05887 22.0999 6.11582C22.1329 6.17277 22.1543 6.23569 22.1628 6.30095C22.1714 6.36621 22.167 6.43252 22.1498 6.49605C22.1326 6.55959 22.103 6.61909 22.0627 6.67114C22.0224 6.72319 21.9723 6.76675 21.9151 6.79931L19.9813 7.91575C19.8668 7.98088 19.7313 7.99815 19.6042 7.96378C19.4772 7.92941 19.3688 7.84619 19.3028 7.73227C19.2368 7.61835 19.2186 7.48296 19.252 7.35563C19.2854 7.22829 19.3678 7.11933 19.4813 7.0525L21.4149 5.93606H21.4151ZM17.5802 2.59731C17.6131 2.54063 17.6568 2.49096 17.7088 2.45115C17.7608 2.41135 17.8202 2.38218 17.8835 2.36531C17.9468 2.34844 18.0128 2.3442 18.0777 2.35284C18.1426 2.36148 18.2052 2.38283 18.2619 2.41566C18.3186 2.44849 18.3683 2.49216 18.4081 2.54418C18.4479 2.59621 18.477 2.65556 18.4939 2.71886C18.5108 2.78216 18.515 2.84816 18.5064 2.91309C18.4977 2.97803 18.4764 3.04063 18.4436 3.09731L17.3271 5.03125C17.2945 5.08845 17.2509 5.13864 17.1989 5.17892C17.1468 5.21921 17.0873 5.24879 17.0238 5.26597C16.9603 5.28316 16.894 5.2876 16.8287 5.27904C16.7634 5.27048 16.7005 5.24909 16.6436 5.2161C16.5866 5.18311 16.5368 5.13918 16.4969 5.08683C16.457 5.03448 16.4278 4.97476 16.4111 4.9111C16.3944 4.84744 16.3905 4.7811 16.3995 4.71591C16.4085 4.65071 16.4304 4.58796 16.4638 4.53125L17.5802 2.5975V2.59731ZM6.962 28.9836L7.07844 29.7856H2.125V18.725H5.47256L6.962 28.9836Z" fill="black"/>
</svg>
