<svg width="52" height="52" viewBox="0 0 52 52" fill="none" xmlns="http://www.w3.org/2000/svg">
<path d="M48.5632 40.0013H45.0795V8.52463C45.0795 5.95491 42.9888 3.86426 40.4191 3.86426H6.2706C4.29923 3.86426 2.69531 5.46818 2.69531 7.44002V11.6434C2.69531 12.0496 3.02491 12.3792 3.43116 12.3792H8.37467V44.0485C8.37467 46.3021 10.2081 48.1359 12.4616 48.1359H45.2117C47.4657 48.1359 49.2991 46.3021 49.2991 44.0485V40.7372C49.2991 40.3309 48.9695 40.0013 48.5632 40.0013ZM4.16701 10.9075V7.44002C4.16701 6.27972 5.11078 5.33596 6.2706 5.33596C7.4309 5.33596 8.37467 6.27972 8.37467 7.44002V10.9075H4.16701ZM15.0773 40.7372V44.0485C15.0773 45.4905 13.9041 46.6642 12.4616 46.6642C11.0196 46.6642 9.84637 45.4905 9.84637 44.0485V7.44002C9.84637 6.65124 9.5815 5.92784 9.14729 5.33596H40.4191C42.1773 5.33596 43.6078 6.76645 43.6078 8.52463V40.0013H15.8132C15.4069 40.0013 15.0773 40.3309 15.0773 40.7372ZM47.8274 44.0485C47.8274 45.4905 46.6542 46.6642 45.2117 46.6642H15.6C16.1921 45.9552 16.549 45.0421 16.549 44.0485V41.473H47.8274V44.0485Z" fill="black"/>
<path d="M36.4334 34.6494H17.0249C16.6187 34.6494 16.2891 34.979 16.2891 35.3853C16.2891 35.7915 16.6187 36.1211 17.0249 36.1211H36.4334C36.8397 36.1211 37.1693 35.7915 37.1693 35.3853C37.1693 34.979 36.8397 34.6494 36.4334 34.6494Z" fill="black"/>
<path d="M16.9155 30.8941H27.0244H31.781H36.5382C36.9444 30.8941 37.274 30.5645 37.274 30.1583C37.274 30.1396 37.2647 30.1239 37.2634 30.1056C37.2647 30.0873 37.274 30.0716 37.274 30.0529V18.2391C37.274 17.8328 36.9444 17.5032 36.5382 17.5032H31.781C31.3748 17.5032 31.0452 17.8328 31.0452 18.2391V21.0512H27.0244C26.6181 21.0512 26.2885 21.3808 26.2885 21.7871V23.6669H22.2672C21.861 23.6669 21.5314 23.9965 21.5314 24.4028V29.4224H17.6514V27.0923H18.4716C18.8778 27.0923 19.2074 26.7627 19.2074 26.3564C19.2074 25.9502 18.8778 25.6206 18.4716 25.6206H17.6514V23.1371H18.4716C18.8778 23.1371 19.2074 22.8075 19.2074 22.4012C19.2074 21.995 18.8778 21.6654 18.4716 21.6654H17.6514V19.1819H18.4716C18.8778 19.1819 19.2074 18.8523 19.2074 18.446C19.2074 18.0398 18.8778 17.7102 18.4716 17.7102H17.6514V15.2267H18.4716C18.8778 15.2267 19.2074 14.8971 19.2074 14.4908C19.2074 14.0846 18.8778 13.755 18.4716 13.755H17.6514V11.2715H18.4716C18.8778 11.2715 19.2074 10.9419 19.2074 10.5357C19.2074 10.1294 18.8778 9.7998 18.4716 9.7998H16.9155C16.5093 9.7998 16.1797 10.1294 16.1797 10.5357V30.1583C16.1797 30.5645 16.5093 30.8941 16.9155 30.8941ZM32.5169 18.9749H35.8023V29.3171H32.5169V21.7871V18.9749ZM27.7602 22.5229H31.0452V29.4224H27.7602V24.4028V22.5229ZM23.0031 25.1386H26.2885V29.3171H23.0031V25.1386Z" fill="black"/>
<path d="M21.7741 20.5118C21.8268 20.5118 21.8809 20.5061 21.9346 20.4946C22.2105 20.433 28.678 18.9355 33.5346 13.6171L35.4491 14.6825C35.5607 14.7448 35.6839 14.7755 35.807 14.7755C35.9397 14.7755 36.0719 14.74 36.1893 14.6682C36.4154 14.5312 36.5505 14.282 36.5423 14.0176L36.3866 8.82162C36.3795 8.56963 36.2429 8.33872 36.0259 8.21033C35.8084 8.08289 35.5401 8.07427 35.3159 8.18829L30.5324 10.6354C30.291 10.759 30.1367 11.0062 30.1319 11.2783C30.1271 11.5494 30.2728 11.8014 30.5099 11.9336L32.2056 12.8774C27.693 17.6365 21.6761 19.0445 21.6141 19.0584C21.2179 19.1465 20.9683 19.5403 21.0569 19.937C21.1336 20.279 21.4368 20.5118 21.7741 20.5118ZM34.9504 10.0289L35.0328 12.7663L32.43 11.3185L34.9504 10.0289Z" fill="black"/>
</svg>
