<svg width="52" height="52" viewBox="0 0 52 52" fill="none" xmlns="http://www.w3.org/2000/svg">
<path d="M26.6783 28.3792C26.5821 28.3584 26.4834 28.3547 26.3859 28.3692C25.4093 28.2555 24.6725 27.4292 24.6708 26.4463C24.6708 25.9753 24.2889 25.5934 23.8179 25.5934C23.3468 25.5934 22.9649 25.9753 22.9649 26.4463C22.9674 28.0877 24.0653 29.5254 25.6479 29.9598V30.8127C25.6479 31.2838 26.0298 31.6657 26.5008 31.6657C26.9719 31.6657 27.3538 31.2838 27.3538 30.8127V30.0114C29.1805 29.6291 30.422 27.9278 30.23 26.0715C30.0376 24.2153 28.4737 22.8046 26.6075 22.8042C25.5379 22.8042 24.6708 21.9371 24.6708 20.8676C24.6708 19.7981 25.5379 18.931 26.6075 18.931C27.677 18.931 28.5441 19.7981 28.5441 20.8676C28.5441 21.3386 28.926 21.7206 29.397 21.7206C29.8681 21.7206 30.25 21.3386 30.25 20.8676C30.2475 19.1442 29.0401 17.6578 27.3538 17.3021V16.5258C27.3538 16.0548 26.9719 15.6729 26.5008 15.6729C26.0298 15.6729 25.6479 16.0548 25.6479 16.5258V17.3542C23.8879 17.8348 22.755 19.5436 22.9974 21.352C23.2398 23.1603 24.7829 24.5101 26.6075 24.5097C27.6628 24.5097 28.5237 25.3548 28.5428 26.4097C28.5624 27.4646 27.7328 28.3409 26.6783 28.3792Z" fill="black"/>
<path d="M14.2383 23.7231C14.2383 30.5542 19.7758 36.0917 26.6069 36.0917C33.438 36.0917 38.9755 30.5542 38.9755 23.7231C38.9755 16.892 33.438 11.3545 26.6069 11.3545C19.7791 11.362 14.2462 16.8953 14.2383 23.7231ZM26.6069 13.0604C32.4959 13.0604 37.2696 17.8341 37.2696 23.7231C37.2696 29.6121 32.4959 34.3858 26.6069 34.3858C20.7179 34.3858 15.9442 29.6121 15.9442 23.7231C15.9508 17.837 20.7208 13.0671 26.6069 13.0604Z" fill="black"/>
<path d="M43.1807 38.1943L36.4992 41.3512C35.5767 39.6353 33.807 38.5433 31.8596 38.4883L25.6915 38.3188C24.7149 38.2909 23.7565 38.0435 22.8882 37.595L22.2606 37.2697C19.047 35.5946 15.2166 35.5988 12.0064 37.2805L12.0456 35.8587C12.0585 35.3876 11.6874 34.9953 11.2163 34.9824L4.45272 34.7962C3.98168 34.7833 3.58977 35.1544 3.57686 35.6254L3.1683 50.4679C3.15538 50.939 3.52647 51.3313 3.99751 51.3442L10.7611 51.5304H10.7845C11.2467 51.5304 11.6249 51.1626 11.6374 50.7007L11.657 49.9906L13.4141 49.0498C14.1038 48.6787 14.9101 48.5904 15.6635 48.8037L26.1563 51.7486C26.1746 51.754 26.193 51.7582 26.2117 51.7624C26.9701 51.921 27.7431 52.0006 28.5177 52.0002C30.1587 52.001 31.7804 51.6474 33.2719 50.9627C33.3085 50.9461 33.3439 50.9265 33.3776 50.9044L48.5912 41.0638C48.9702 40.8185 49.0927 40.3208 48.8707 39.9277C47.7412 37.9236 45.2361 37.1602 43.1807 38.1943ZM4.8971 49.6625L5.25861 36.525L10.3168 36.6641L9.95525 49.802L4.8971 49.6625ZM32.5034 49.4392C30.6505 50.2755 28.581 50.5063 26.5894 50.0993L16.125 47.1619C14.9472 46.8292 13.6865 46.967 12.6091 47.5463L11.7111 48.0274L11.9514 39.2925C14.7968 37.4001 18.446 37.2056 21.4763 38.7844L22.104 39.1097C23.201 39.6761 24.4108 39.9885 25.6449 40.0243L31.8133 40.1938C33.5459 40.2438 35.0173 41.4774 35.3688 43.175L26.1809 42.9213C25.7098 42.9084 25.3179 43.2799 25.3046 43.7505C25.2917 44.2216 25.6632 44.6139 26.1338 44.6268L36.2734 44.9058H36.2972C36.759 44.9054 37.1368 44.5377 37.1493 44.0762C37.1597 43.7056 37.1322 43.3345 37.0668 42.9696L43.92 39.7315C43.9267 39.7286 43.9333 39.7253 43.94 39.7219C44.912 39.2301 46.0873 39.3946 46.887 40.1347L32.5034 49.4392Z" fill="black"/>
<path d="M27.4598 8.95598V0.85295C27.4598 0.381912 27.0779 0 26.6069 0C26.1358 0 25.7539 0.381912 25.7539 0.85295V8.95598C25.7539 9.42701 26.1358 9.80893 26.6069 9.80893C27.0779 9.80893 27.4598 9.42701 27.4598 8.95598Z" fill="black"/>
<path d="M33.8582 8.95587V5.1176C33.8582 4.64656 33.4763 4.26465 33.0053 4.26465C32.5343 4.26465 32.1523 4.64656 32.1523 5.1176V8.95587C32.1523 9.42691 32.5343 9.80882 33.0053 9.80882C33.4763 9.80882 33.8582 9.42691 33.8582 8.95587Z" fill="black"/>
<path d="M21.0653 8.95587V5.1176C21.0653 4.64656 20.6834 4.26465 20.2123 4.26465C19.7413 4.26465 19.3594 4.64656 19.3594 5.1176V8.95587C19.3594 9.42691 19.7413 9.80882 20.2123 9.80882C20.6834 9.80882 21.0653 9.42691 21.0653 8.95587Z" fill="black"/>
</svg>
