<svg width="52" height="52" viewBox="0 0 52 52" fill="none" xmlns="http://www.w3.org/2000/svg">
<g clip-path="url(#clip0_1036_13302)">
<path d="M46.625 29.535V21.0801C46.625 20.6316 46.261 20.2676 45.8125 20.2676C45.364 20.2676 45 20.6316 45 21.0801V29.535C45 29.9835 45.364 30.3475 45.8125 30.3475C46.261 30.3475 46.625 29.9835 46.625 29.535Z" fill="black"/>
<path d="M20.957 17.916C20.957 20.6013 23.1418 22.7861 25.8272 22.7861C28.5125 22.7861 30.6973 20.6013 30.6973 17.916C30.6973 15.2307 28.5125 13.0459 25.8272 13.0459C23.1418 13.0459 20.957 15.2307 20.957 17.916ZM29.0723 17.916C29.0723 19.7051 27.6163 21.1611 25.8272 21.1611C24.038 21.1611 22.582 19.7051 22.582 17.916C22.582 16.1269 24.038 14.6709 25.8272 14.6709C27.6163 14.6709 29.0723 16.1269 29.0723 17.916Z" fill="black"/>
<path d="M29.5822 23.548C29.3856 23.466 29.1638 23.4643 28.9663 23.544C27.0179 24.3272 24.8616 24.3589 22.862 23.6073C22.6621 23.5318 22.4428 23.5383 22.2478 23.6244C18.8653 25.1153 16.6797 28.4637 16.6797 32.154V36.4578C16.6797 37.835 17.7993 38.9547 19.1765 38.9547H32.8257C34.2029 38.9547 35.3225 37.835 35.3225 36.4578V32.154C35.3225 29.6572 34.3499 27.3172 32.5884 25.5712C31.728 24.7034 30.7164 24.0217 29.5822 23.548ZM33.6975 36.457C33.6975 36.938 33.3067 37.3288 32.8257 37.3288H19.1765C18.6955 37.3288 18.3047 36.938 18.3047 36.457V32.1532C18.3047 29.2128 19.9866 26.5348 22.6158 25.2445C24.7901 25.9823 27.1187 25.949 29.2474 25.1763C30.0656 25.5573 30.8009 26.0741 31.4404 26.7192C32.8964 28.163 33.6983 30.0927 33.6983 32.1532L33.6975 36.457Z" fill="black"/>
<path d="M45.6984 6.94525C47.6126 6.94525 49.171 5.38769 49.171 3.47263C49.171 1.55756 47.6134 0 45.6984 0C43.7833 0 42.2266 1.55756 42.2266 3.47181C42.2266 5.38606 43.7841 6.94444 45.6984 6.94444V6.94525ZM45.6984 1.62581C46.7172 1.62581 47.546 2.45456 47.546 3.47263C47.546 4.49069 46.7172 5.32025 45.6984 5.32025C44.6795 5.32025 43.8516 4.4915 43.8516 3.47263C43.8516 2.45375 44.6803 1.62581 45.6984 1.62581Z" fill="black"/>
<path d="M50.3289 9.40275C49.7382 8.80718 49.0451 8.34081 48.2676 8.01581C48.0709 7.93375 47.8491 7.93212 47.6517 8.01175C46.4386 8.49925 45.0988 8.52037 43.8532 8.05075C43.6542 7.97681 43.4332 7.98168 43.239 8.06781C40.9201 9.08993 39.4219 11.3852 39.4219 13.9146V16.7356C39.4219 17.7926 40.2823 18.6522 41.3386 18.6522H50.285C51.3421 18.6522 52.2017 17.7926 52.2017 16.7356V13.9146C52.2017 12.2026 51.5346 10.5979 50.3281 9.40193L50.3289 9.40275ZM50.5775 16.7364C50.5775 16.8972 50.4467 17.0281 50.2858 17.0281H41.3394C41.1785 17.0281 41.0477 16.8972 41.0477 16.7364V13.9154C41.0477 12.1327 42.0462 10.5061 43.6168 9.68875C45.0306 10.1429 46.5394 10.1218 47.9247 9.64406C48.3903 9.87481 48.8111 10.1779 49.1808 10.5516C50.0819 11.4454 50.5783 12.6397 50.5783 13.9154L50.5775 16.7364Z" fill="black"/>
<path d="M42.2266 36.8193C42.2266 38.7336 43.7841 40.2911 45.6984 40.2911C47.6126 40.2911 49.171 38.7336 49.171 36.8193C49.171 34.9051 47.6134 33.3467 45.6984 33.3467C43.7833 33.3467 42.2266 34.9042 42.2266 36.8193ZM45.6984 34.9717C46.7172 34.9717 47.546 35.8004 47.546 36.8193C47.546 37.8382 46.7172 38.6661 45.6984 38.6661C44.6795 38.6661 43.8516 37.8374 43.8516 36.8193C43.8516 35.8012 44.6803 34.9717 45.6984 34.9717Z" fill="black"/>
<path d="M48.2668 41.3628C48.0701 41.2807 47.8483 41.2783 47.6509 41.3587C46.4378 41.847 45.0947 41.8665 43.8532 41.3977C43.6542 41.3222 43.4332 41.3279 43.239 41.4148C40.9201 42.4369 39.4219 44.7322 39.4219 47.2615V50.0825C39.4219 51.1396 40.2823 51.9992 41.3386 51.9992H50.285C51.3421 51.9992 52.2017 51.1396 52.2017 50.0825V47.2615C52.2017 45.5504 51.5346 43.9457 50.3281 42.7489C49.7374 42.1534 49.0443 41.6878 48.2668 41.3628ZM50.5767 50.0825C50.5767 50.2434 50.4459 50.3742 50.285 50.3742H41.3386C41.1777 50.3742 41.0469 50.2434 41.0469 50.0825V47.2615C41.0469 45.4789 42.0454 43.8523 43.616 43.0349C45.0281 43.4883 46.5369 43.4672 47.9239 42.9902C48.3894 43.221 48.8103 43.524 49.18 43.8978C50.0811 44.7924 50.5775 45.9859 50.5775 47.2615L50.5767 50.0825Z" fill="black"/>
<path d="M6.27731 6.94525C8.19156 6.94525 9.74913 5.38769 9.74913 3.47263C9.74913 1.55756 8.19156 0 6.27731 0C4.36306 0 2.80469 1.55838 2.80469 3.47263C2.80469 5.38688 4.36225 6.94525 6.27731 6.94525ZM6.27731 1.62581C7.29538 1.62581 8.12413 2.45456 8.12413 3.47263C8.12413 4.49069 7.29538 5.32025 6.27731 5.32025C5.25925 5.32025 4.42969 4.4915 4.42969 3.47263C4.42969 2.45375 5.25844 1.62581 6.27731 1.62581Z" fill="black"/>
<path d="M8.8465 8.01581C8.64987 7.93375 8.42806 7.93212 8.23063 8.01175C7.01675 8.49925 5.67613 8.51956 4.43219 8.05075C4.23231 7.97681 4.01294 7.98168 3.81794 8.06781C1.49906 9.08993 0 11.3852 0 13.9146V16.7356C0 17.7926 0.859625 18.6522 1.91669 18.6522H10.8647C11.9218 18.6522 12.7814 17.7926 12.7814 16.7356V13.9146C12.7814 12.2026 12.1144 10.5979 10.9078 9.40193C10.3171 8.80637 9.62406 8.34 8.8465 8.015V8.01581ZM11.1564 16.7356C11.1564 16.8964 11.0256 17.0272 10.8647 17.0272H1.9175C1.75662 17.0272 1.62581 16.8964 1.62581 16.7356V13.9146C1.62581 12.1319 2.62438 10.5045 4.19413 9.68793C5.60788 10.1413 7.11506 10.1202 8.502 9.64325C8.96756 9.874 9.38844 10.1771 9.75813 10.5508C10.6592 11.4446 11.1556 12.6389 11.1556 13.9146V16.7356H11.1564Z" fill="black"/>
<path d="M2.80469 36.8193C2.80469 38.7336 4.36225 40.2911 6.27731 40.2911C8.19238 40.2911 9.74913 38.7336 9.74913 36.8193C9.74913 34.9051 8.19156 33.3467 6.27731 33.3467C4.36306 33.3467 2.80469 34.9042 2.80469 36.8193ZM6.27731 34.9717C7.29538 34.9717 8.12413 35.8004 8.12413 36.8193C8.12413 37.8382 7.29538 38.6661 6.27731 38.6661C5.25925 38.6661 4.42969 37.8374 4.42969 36.8193C4.42969 35.8012 5.25844 34.9717 6.27731 34.9717Z" fill="black"/>
<path d="M8.8465 41.3628C8.64987 41.2807 8.42806 41.2783 8.23063 41.3587C7.01675 41.8462 5.6745 41.8665 4.433 41.3977C4.23312 41.3222 4.01294 41.3279 3.81875 41.4148C1.49906 42.4369 0 44.7322 0 47.2615V50.0825C0 51.1396 0.859625 51.9992 1.91669 51.9992H10.8647C11.9218 51.9992 12.7814 51.1396 12.7814 50.0825V47.2615C12.7814 45.5496 12.1144 43.9449 10.9078 42.7489C10.3171 42.1534 9.62406 41.6878 8.8465 41.3628ZM11.1564 50.0825C11.1564 50.2434 11.0256 50.3742 10.8647 50.3742H1.9175C1.75662 50.3742 1.62581 50.2434 1.62581 50.0825V47.2615C1.62581 45.4789 2.62438 43.8523 4.19413 43.0349C5.60544 43.4891 7.11587 43.468 8.502 42.9902C8.96756 43.221 9.38844 43.524 9.75813 43.8978C10.6592 44.7915 11.1556 45.9859 11.1556 47.2615V50.0825H11.1564Z" fill="black"/>
<path d="M7.20312 29.535V21.0801C7.20312 20.6316 6.83913 20.2676 6.39062 20.2676C5.94213 20.2676 5.57812 20.6316 5.57812 21.0801V29.535C5.57812 29.9835 5.94213 30.3475 6.39062 30.3475C6.83913 30.3475 7.20312 29.9835 7.20312 29.535Z" fill="black"/>
<path d="M18.6094 7.37988H33.3871C33.8356 7.37988 34.1996 7.01588 34.1996 6.56738C34.1996 6.11888 33.8356 5.75488 33.3871 5.75488H18.6094C18.1609 5.75488 17.7969 6.11888 17.7969 6.56738C17.7969 7.01588 18.1609 7.37988 18.6094 7.37988Z" fill="black"/>
<path d="M33.3871 44.6201H18.6094C18.1609 44.6201 17.7969 44.9841 17.7969 45.4326C17.7969 45.8811 18.1609 46.2451 18.6094 46.2451H33.3871C33.8356 46.2451 34.1996 45.8811 34.1996 45.4326C34.1996 44.9841 33.8356 44.6201 33.3871 44.6201Z" fill="black"/>
</g>
<defs>
<clipPath id="clip0_1036_13302">
<rect width="52" height="52" fill="white"/>
</clipPath>
</defs>
</svg>
