<svg width="200" height="200" viewBox="0 0 200 200" fill="none" xmlns="http://www.w3.org/2000/svg">
<path d="M99.9941 62.189C104.958 62.2196 109.819 60.7716 113.958 58.0294C118.096 55.2872 121.324 51.375 123.231 46.7914C125.138 42.2078 125.637 37.1602 124.664 32.292C123.692 27.4238 121.292 22.9554 117.77 19.4561C114.249 15.9569 109.765 13.5852 104.891 12.6434C100.017 11.7017 94.9726 12.2324 90.4011 14.168C85.8296 16.1036 81.9378 19.3564 79.2218 23.5119C76.5058 27.6674 75.0884 32.5375 75.1504 37.5015C75.2321 44.0506 77.8807 50.3061 82.5266 54.9228C87.1725 59.5395 93.4446 62.1486 99.9941 62.189ZM99.9941 18.7515C103.665 18.7516 107.254 19.8383 110.308 21.8746C113.362 23.9109 115.745 26.8056 117.157 30.1941C118.569 33.5826 118.946 37.3131 118.241 40.9156C117.536 44.5181 115.781 47.8314 113.196 50.4379C110.611 53.0444 107.313 54.8275 103.716 55.5625C100.12 56.2975 96.3864 55.9515 92.9862 54.5681C89.5861 53.1847 86.6714 50.8258 84.6097 47.7887C82.5479 44.7516 81.4312 41.1722 81.4004 37.5015C81.4002 32.5556 83.3542 27.81 86.8368 24.2982C90.3194 20.7863 95.0485 18.7927 99.9941 18.7515Z" fill="black"/>
<path d="M56.5703 114.75H143.445C144.274 114.75 145.069 114.421 145.655 113.835C146.241 113.249 146.57 112.454 146.57 111.625V96.875C146.524 88.5519 143.233 80.5752 137.397 74.6404C131.562 68.7056 123.641 65.2807 115.32 65.0938H115.133C114.578 65.0959 114.035 65.2587 113.57 65.5625C109.29 67.6597 104.587 68.7501 99.8203 68.7501C95.0539 68.7501 90.3506 67.6597 86.0703 65.5625C85.5948 65.3269 85.0696 65.209 84.5391 65.2188C76.2642 65.4371 68.3974 68.8598 62.5969 74.7652C56.7964 80.6707 53.5153 88.5976 53.4453 96.875V111.656C53.4535 112.48 53.7864 113.266 54.3716 113.846C54.9567 114.425 55.7469 114.75 56.5703 114.75ZM59.6953 96.8437C59.7267 90.2877 62.2666 83.9924 66.7937 79.2503C71.3208 74.5082 77.4915 71.6791 84.0391 71.3438C89.0343 73.6947 94.487 74.9137 100.008 74.9137C105.529 74.9137 110.981 73.6947 115.977 71.3438C122.529 71.6794 128.705 74.5129 133.233 79.2617C137.761 84.0105 140.297 90.3136 140.32 96.875V108.531H59.6953V96.8437Z" fill="black"/>
<path d="M129.072 137.841C128.858 137.297 128.495 136.825 128.025 136.477C127.556 136.129 126.998 135.919 126.416 135.872L111.728 134.747L102.603 121.06C102.317 120.634 101.931 120.286 101.479 120.045C101.027 119.804 100.522 119.678 100.009 119.678C99.4969 119.678 98.9922 119.804 98.5399 120.045C98.0876 120.286 97.7015 120.634 97.4157 121.06L88.2907 134.747L73.6031 135.872C73.0206 135.919 72.4627 136.128 71.9929 136.475C71.523 136.823 71.1601 137.295 70.9453 137.839C70.7305 138.382 70.6724 138.975 70.7776 139.55C70.8829 140.125 71.1472 140.659 71.5406 141.091L82.8219 153.591C82.4157 155.122 78.6031 169.528 78.2906 170.622C78.1322 171.212 78.1498 171.835 78.3414 172.414C78.533 172.994 78.8902 173.505 79.3688 173.884C79.8474 174.263 80.4265 174.493 81.0347 174.547C81.6428 174.6 82.2532 174.474 82.7906 174.185L100.009 164.966L117.228 174.153C117.768 174.495 118.4 174.663 119.038 174.634C119.676 174.606 120.29 174.382 120.797 173.994C121.304 173.606 121.681 173.072 121.875 172.463C122.069 171.855 122.073 171.201 121.884 170.591C121.541 169.591 117.791 154.966 117.353 153.56L128.634 141.06C128.995 140.615 129.227 140.079 129.304 139.512C129.381 138.944 129.301 138.366 129.072 137.841ZM111.416 150.622C111.067 151.005 110.819 151.467 110.694 151.969C110.568 152.471 110.569 152.996 110.697 153.497L113.822 165.247L101.322 158.685C100.87 158.444 100.365 158.318 99.8532 158.318C99.3409 158.318 98.8365 158.444 98.3844 158.685L85.8844 165.247L89.0094 153.497C89.1369 152.996 89.1379 152.471 89.0125 151.969C88.887 151.467 88.639 151.005 88.2907 150.622L80.1344 141.622L89.9782 140.841C90.4471 140.803 90.9015 140.66 91.3073 140.422C91.7131 140.183 92.06 139.857 92.3219 139.466L100.009 128.435L107.384 139.466C107.646 139.857 107.993 140.183 108.399 140.422C108.805 140.66 109.259 140.803 109.728 140.841L119.572 141.622L111.416 150.622Z" fill="black"/>
<path d="M171.884 156.595L161.228 155.782L154.197 145.626C153.911 145.201 153.525 144.852 153.073 144.611C152.62 144.37 152.116 144.244 151.603 144.244C151.091 144.244 150.586 144.37 150.134 144.611C149.681 144.852 149.295 145.201 149.009 145.626C147.447 147.907 143.822 153.407 142.228 155.751L131.416 156.595C130.833 156.641 130.275 156.85 129.805 157.198C129.336 157.545 128.973 158.018 128.758 158.561C128.543 159.105 128.485 159.698 128.59 160.273C128.695 160.848 128.96 161.381 129.353 161.814L137.697 170.97L134.322 183.47C134.163 184.059 134.181 184.682 134.373 185.262C134.564 185.842 134.921 186.352 135.4 186.731C135.879 187.11 136.458 187.341 137.066 187.394C137.674 187.448 138.284 187.322 138.822 187.032L151.603 180.22L164.384 187.032C164.91 187.276 165.492 187.369 166.067 187.301C166.642 187.233 167.187 187.006 167.641 186.646C168.095 186.286 168.439 185.808 168.637 185.263C168.834 184.719 168.877 184.131 168.759 183.564L165.416 171.064L173.759 161.907C174.175 161.49 174.464 160.964 174.594 160.39C174.724 159.816 174.689 159.217 174.493 158.661C174.297 158.106 173.948 157.618 173.487 157.252C173.025 156.886 172.47 156.659 171.884 156.595ZM159.884 168.001C159.531 168.387 159.28 168.855 159.154 169.363C159.029 169.87 159.033 170.402 159.166 170.907L160.978 178.126C159.916 177.72 152.634 173.282 151.603 173.532C150.572 173.251 143.228 177.72 142.228 178.095C142.572 176.689 143.791 172.282 144.166 170.782C144.299 170.277 144.303 169.745 144.177 169.238C144.051 168.73 143.8 168.262 143.447 167.876L138.291 162.501L144.228 162.032C144.697 161.994 145.151 161.851 145.557 161.613C145.963 161.375 146.31 161.048 146.572 160.657L151.603 153.126L156.603 160.626C157.697 162.657 162.103 162.032 164.916 162.47L159.884 168.001Z" fill="black"/>
<path d="M68.7496 156.595L57.9371 155.751C56.3121 153.407 52.7183 147.939 51.1558 145.626C50.87 145.201 50.4839 144.852 50.0316 144.611C49.5793 144.37 49.0746 144.244 48.5621 144.244C48.0496 144.244 47.5449 144.37 47.0926 144.611C46.6403 144.852 46.2542 145.201 45.9683 145.626L39.1871 155.782L28.1246 156.595C27.5394 156.636 26.9775 156.841 26.5034 157.187C26.0292 157.532 25.6619 158.004 25.4435 158.549C25.225 159.093 25.1642 159.688 25.2681 160.265C25.372 160.843 25.6363 161.379 26.0308 161.814L34.3746 170.97L31.0308 183.47C30.8774 184.055 30.8973 184.673 31.0882 185.247C31.279 185.822 31.6325 186.328 32.1058 186.705C32.5791 187.083 33.1517 187.315 33.7542 187.373C34.3567 187.431 34.963 187.312 35.4996 187.032L48.2808 180.22L61.0621 187.032C61.5932 187.33 62.1996 187.466 62.8069 187.423C63.4141 187.381 63.9957 187.162 64.4803 186.793C64.9649 186.425 65.3313 185.923 65.5346 185.349C65.7379 184.776 65.7692 184.155 65.6246 183.564L62.2496 171.064L70.5933 161.907C71.0081 161.492 71.2977 160.969 71.4289 160.397C71.5601 159.825 71.5276 159.228 71.3353 158.674C71.1429 158.119 70.7983 157.63 70.3411 157.263C69.8838 156.895 69.3323 156.664 68.7496 156.595ZM56.5621 168.001C54.6871 169.814 56.7808 173.595 57.1871 176.032L57.7808 178.22L49.9996 174.032C49.5475 173.792 49.0431 173.666 48.5308 173.666C48.0186 173.666 47.5142 173.792 47.0621 174.032L39.0308 178.126L40.9683 170.782C41.1013 170.277 41.1052 169.745 40.9796 169.238C40.8541 168.73 40.603 168.262 40.2496 167.876L35.0933 162.501L41.0621 162.032C41.5311 161.994 41.9854 161.851 42.3912 161.613C42.7971 161.375 43.1439 161.048 43.4058 160.657C43.4058 160.657 48.4058 153.095 48.4058 153.157L53.4371 160.657C54.4996 162.689 58.9371 162.064 61.7183 162.501L56.5621 168.001Z" fill="black"/>
<path d="M29.0938 148.809C29.6789 148.811 30.2527 148.649 30.7501 148.34C31.0994 148.123 31.4025 147.839 31.6419 147.505C31.8814 147.171 32.0524 146.792 32.1454 146.392C32.2383 145.991 32.2512 145.576 32.1833 145.17C32.1155 144.765 31.9683 144.376 31.7501 144.028C23.8973 131.404 19.74 116.832 19.7501 101.965C19.7851 86.6014 24.2178 71.5686 32.5244 58.6437C40.8309 45.7187 52.664 35.4419 66.6251 29.0279C66.9985 28.8575 67.3348 28.6153 67.6146 28.3151C67.8944 28.0148 68.1124 27.6624 68.2561 27.2779C68.3997 26.8934 68.4662 26.4844 68.4518 26.0742C68.4373 25.664 68.3422 25.2607 68.1719 24.8872C68.0016 24.5138 67.7594 24.1775 67.4592 23.8977C67.1589 23.6178 66.8065 23.3999 66.422 23.2562C66.0375 23.1126 65.6285 23.0461 65.2183 23.0605C64.8081 23.075 64.4048 23.17 64.0313 23.3404C48.9818 30.2551 36.2263 41.3333 27.2719 55.266C18.3176 69.1986 13.5387 85.4034 13.5001 101.965C13.4813 118.003 17.9637 133.724 26.4376 147.34C26.719 147.791 27.1106 148.162 27.5754 148.419C28.0401 148.676 28.5627 148.81 29.0938 148.809Z" fill="black"/>
<path d="M133.399 29.0279C147.36 35.4419 159.193 45.7187 167.5 58.6437C175.806 71.5686 180.239 86.6014 180.274 101.965C180.284 116.832 176.127 131.404 168.274 144.028C168.056 144.376 167.909 144.765 167.841 145.17C167.773 145.576 167.786 145.991 167.879 146.392C167.972 146.792 168.143 147.171 168.382 147.505C168.621 147.839 168.925 148.123 169.274 148.34C169.771 148.649 170.345 148.811 170.93 148.809C171.461 148.81 171.984 148.676 172.449 148.419C172.913 148.162 173.305 147.791 173.586 147.34C182.06 133.724 186.543 118.003 186.524 101.965C186.485 85.4034 181.706 69.1986 172.752 55.266C163.798 41.3333 151.042 30.2551 135.993 23.3404C135.619 23.17 135.216 23.075 134.806 23.0605C134.396 23.0461 133.987 23.1126 133.602 23.2562C133.218 23.3999 132.865 23.6178 132.565 23.8977C132.265 24.1775 132.022 24.5138 131.852 24.8872C131.682 25.2607 131.587 25.664 131.572 26.0742C131.558 26.4844 131.624 26.8934 131.768 27.2779C131.912 27.6624 132.13 28.0148 132.409 28.3151C132.689 28.6153 133.025 28.8575 133.399 29.0279Z" fill="black"/>
<path d="M159.093 138.532C159.56 138.797 160.087 138.937 160.624 138.939C161.175 138.941 161.716 138.797 162.194 138.523C162.671 138.249 163.068 137.853 163.343 137.376C169.466 126.579 172.696 114.383 172.718 101.97C172.702 89.2348 169.346 76.7267 162.985 65.6939C156.624 54.6612 147.481 45.4897 136.468 39.0948C136.113 38.8869 135.721 38.7511 135.313 38.6951C134.906 38.6391 134.491 38.6641 134.094 38.7686C133.696 38.8731 133.323 39.0551 132.995 39.3042C132.668 39.5532 132.393 39.8644 132.187 40.2198C131.98 40.5765 131.846 40.9705 131.792 41.3792C131.739 41.7879 131.766 42.2032 131.874 42.6011C131.981 42.999 132.166 43.3718 132.418 43.6979C132.671 44.0239 132.985 44.2969 133.343 44.5011C143.407 50.3479 151.762 58.7314 157.574 68.8153C163.386 78.8991 166.453 90.3308 166.468 101.97C166.467 113.331 163.517 124.497 157.905 134.376C157.53 135.088 157.443 135.918 157.665 136.693C157.886 137.467 158.397 138.126 159.093 138.532Z" fill="black"/>
<path d="M66.7891 44.5011C67.1471 44.2969 67.4613 44.0239 67.7134 43.6979C67.9656 43.3718 68.1507 42.999 68.2582 42.6011C68.3657 42.2032 68.3933 41.7879 68.3396 41.3792C68.286 40.9705 68.1519 40.5765 67.9453 40.2198C67.7386 39.8644 67.4637 39.5532 67.1364 39.3042C66.8091 39.0551 66.436 38.8731 66.0382 38.7686C65.6405 38.6641 65.226 38.6391 64.8186 38.6951C64.4112 38.7511 64.0189 38.8869 63.6641 39.0948C52.651 45.4897 43.5078 54.6612 37.1469 65.6939C30.7861 76.7267 27.4302 89.2348 27.4141 101.97C27.4362 114.383 30.6656 126.579 36.7891 137.376C37.0644 137.853 37.4608 138.249 37.9383 138.523C38.4157 138.797 38.9572 138.941 39.5078 138.939C40.0447 138.937 40.572 138.797 41.0391 138.532C41.7131 138.106 42.1986 137.438 42.3961 136.665C42.5937 135.893 42.4883 135.074 42.1016 134.376C36.5497 124.513 33.6431 113.382 33.6641 102.064C33.6626 90.4087 36.7215 78.9576 42.5346 68.8559C48.3478 58.7542 56.7114 50.3559 66.7891 44.5011Z" fill="black"/>
</svg>
