<svg width="41" height="40" viewBox="0 0 41 40" fill="none" xmlns="http://www.w3.org/2000/svg">
<path d="M35.2494 38.1348H5.83102C5.52953 38.1348 5.28516 37.8905 5.28516 37.589C5.28516 29.1773 12.1286 22.334 20.5402 22.334C28.9519 22.334 35.7953 29.1773 35.7953 37.589C35.7953 37.8905 35.5509 38.1348 35.2495 38.1348H35.2494ZM6.38727 37.043H34.6931C34.4056 29.4851 28.1673 23.4257 20.5402 23.4257C12.9131 23.4257 6.67469 29.4851 6.38727 37.043Z" fill="black"/>
<path d="M20.5375 23.4248C18.2193 23.4248 16.0337 22.5286 14.3834 20.9013C12.7347 19.2755 11.8077 17.1062 11.7735 14.7927C11.769 14.4913 12.0098 14.2433 12.3112 14.2388C12.6132 14.2332 12.8606 14.4751 12.8651 14.7766C12.9269 18.9432 16.3688 22.333 20.5376 22.333C24.7063 22.333 28.1483 18.9432 28.21 14.7766C28.2144 14.4779 28.458 14.2388 28.7556 14.2388H28.7638C29.0652 14.2432 29.306 14.4912 29.3015 14.7927C29.2673 17.1062 28.3405 19.2755 26.6917 20.9012C25.0414 22.5285 22.8558 23.4247 20.5376 23.4247L20.5375 23.4248ZM25.6173 8.74656C25.499 8.74656 25.3801 8.70836 25.28 8.62953C23.9167 7.55578 22.2768 6.9882 20.5375 6.9882C18.7982 6.9882 17.1583 7.55578 15.7951 8.62953C15.5581 8.81609 15.215 8.77531 15.0285 8.53844C14.8419 8.30164 14.8827 7.95836 15.1196 7.77188C16.6773 6.545 18.5508 5.89648 20.5376 5.89648C22.5243 5.89648 24.3979 6.545 25.9556 7.77188C26.1925 7.95844 26.2333 8.30164 26.0467 8.53844C25.939 8.67523 25.779 8.74656 25.6175 8.74656H25.6173Z" fill="black"/>
<path d="M8.64656 16.3984C4.56375 16.3984 1.24219 13.0777 1.24219 8.99617C1.24219 4.91461 4.56375 1.5918 8.64656 1.5918C12.7294 1.5918 16.0488 4.91344 16.0488 8.99617C16.0488 13.0789 12.7281 16.3984 8.64656 16.3984ZM8.64656 2.68352C5.16578 2.68352 2.33391 5.51539 2.33391 8.99617C2.33391 12.477 5.16578 15.3066 8.64656 15.3066C12.1273 15.3066 14.957 12.4758 14.957 8.99617C14.957 5.51656 12.1262 2.68352 8.64656 2.68352Z" fill="black"/>
<path d="M7.8492 11.7193C7.70467 11.7193 7.56576 11.662 7.46326 11.5593L5.32396 9.42004C5.11076 9.20684 5.11076 8.86129 5.32396 8.64809C5.53717 8.43481 5.88271 8.43481 6.09592 8.64809L7.81842 10.3705L11.1685 6.46215C11.3649 6.23317 11.7094 6.20676 11.9383 6.40286C12.1672 6.59911 12.1937 6.94372 11.9976 7.17262L8.26381 11.5286C8.16482 11.6442 8.02217 11.713 7.87029 11.719C7.86326 11.7192 7.85623 11.7193 7.84928 11.7193L7.8492 11.7193Z" fill="black"/>
<path d="M32.4295 16.3984C28.348 16.3984 25.0273 13.0777 25.0273 8.99617C25.0273 4.91461 28.348 1.5918 32.4295 1.5918C36.5111 1.5918 39.8339 4.91344 39.8339 8.99617C39.8339 13.0789 36.5123 16.3984 32.4295 16.3984ZM32.4295 2.68352C28.9499 2.68352 26.1191 5.51539 26.1191 8.99617C26.1191 12.477 28.9499 15.3066 32.4295 15.3066C35.9091 15.3066 38.7422 12.4758 38.7422 8.99617C38.7422 5.51656 35.9103 2.68352 32.4295 2.68352Z" fill="black"/>
<path d="M29.9871 12.1821C29.8546 12.1821 29.7217 12.1341 29.6167 12.0371C29.3953 11.8324 29.3818 11.487 29.5864 11.2656L34.4696 5.98393C34.6742 5.7626 35.0196 5.74893 35.241 5.95362C35.4624 6.15831 35.4759 6.5037 35.2713 6.72503L30.3881 12.0067C30.2806 12.1231 30.1341 12.1821 29.9871 12.1821Z" fill="black"/>
<path d="M34.8706 12.1821C34.7236 12.1821 34.5771 12.1232 34.4696 12.0068L29.5864 6.72505C29.3818 6.50372 29.3953 6.15833 29.6167 5.95365C29.8381 5.74896 30.1835 5.76255 30.3881 5.98396L35.2713 11.2657C35.4759 11.487 35.4624 11.8324 35.241 12.0371C35.136 12.1341 35.0031 12.1821 34.8706 12.1821Z" fill="black"/>
</svg>
