<svg width="150" height="150" viewBox="0 0 150 150" fill="none" xmlns="http://www.w3.org/2000/svg">
<path d="M29.2896 64.0028C29.7185 64.4317 30.281 64.6464 30.8432 64.6464C31.4055 64.6464 31.968 64.432 32.3972 64.0028L38.8307 57.5692C39.6889 56.7111 39.6889 55.3198 38.8307 54.4619C37.9723 53.6038 36.5813 53.6038 35.7232 54.4619L30.8435 59.3419L28.2508 56.7494C27.393 55.891 26.0016 55.8913 25.1435 56.7494C24.2854 57.6075 24.2854 58.9989 25.1438 59.8567L29.2896 64.0028Z" fill="black"/>
<path d="M44.7129 61.9238H66.4444C67.6582 61.9238 68.6417 60.94 68.6417 59.7266C68.6417 58.5131 67.6582 57.5293 66.4444 57.5293H44.7129C43.4991 57.5293 42.5156 58.5131 42.5156 59.7266C42.5156 60.94 43.4994 61.9238 44.7129 61.9238Z" fill="black"/>
<path d="M25.1435 75.5031L29.2896 79.6492C29.7018 80.0615 30.2605 80.2929 30.8435 80.2929C31.4265 80.2929 31.9849 80.0615 32.3974 79.6492L38.831 73.2156C39.6891 72.3575 39.6891 70.9662 38.831 70.1084C37.9726 69.2503 36.5816 69.2503 35.7235 70.1084L30.8438 74.9884L28.2514 72.3959C27.393 71.5378 26.0019 71.5378 25.1438 72.3959C24.2854 73.2537 24.2854 74.645 25.1435 75.5031Z" fill="black"/>
<path d="M44.7129 77.5938H66.4444C67.6582 77.5938 68.6417 76.61 68.6417 75.3965C68.6417 74.183 67.6582 73.1992 66.4444 73.1992H44.7129C43.4991 73.1992 42.5156 74.183 42.5156 75.3965C42.5156 76.61 43.4994 77.5938 44.7129 77.5938Z" fill="black"/>
<path d="M25.1435 91.4114L29.2896 95.5574C29.7018 95.9697 30.2605 96.2011 30.8435 96.2011C31.4265 96.2011 31.9849 95.9697 32.3974 95.5574L38.831 89.1238C39.6891 88.2657 39.6891 86.8744 38.831 86.0166C37.9726 85.1585 36.5816 85.1585 35.7235 86.0166L30.8438 90.8966L28.2514 88.3041C27.393 87.446 26.0019 87.446 25.1438 88.3041C24.2854 89.1619 24.2854 90.5532 25.1435 91.4114Z" fill="black"/>
<path d="M44.7129 93.5H66.4444C67.6582 93.5 68.6417 92.5162 68.6417 91.3027C68.6417 90.0893 67.6582 89.1055 66.4444 89.1055H44.7129C43.4991 89.1055 42.5156 90.0893 42.5156 91.3027C42.5156 92.5162 43.4994 93.5 44.7129 93.5Z" fill="black"/>
<path d="M80.7129 8.94141H63.7207C62.5069 8.94141 61.5234 9.9252 61.5234 11.1387C61.5234 12.3521 62.5069 13.3359 63.7207 13.3359H80.7129C81.9267 13.3359 82.9102 12.3521 82.9102 11.1387C82.9102 9.9252 81.9267 8.94141 80.7129 8.94141Z" fill="black"/>
<path d="M57.7996 115.363H49.6855C47.6661 115.363 46.0234 117.006 46.0234 119.025V127.139C46.0234 129.159 47.6661 130.802 49.6855 130.802H57.7996C59.819 130.802 61.4617 129.159 61.4617 127.139V119.025C61.4617 117.006 59.8187 115.363 57.7996 115.363ZM57.0672 126.407H50.418V119.758H57.0672V126.407Z" fill="black"/>
<path d="M77.0418 115.363H68.9277C66.9083 115.363 65.2656 117.006 65.2656 119.025V127.139C65.2656 129.159 66.9083 130.802 68.9277 130.802H77.0418C79.0612 130.802 80.7039 129.159 80.7039 127.139V119.025C80.7039 117.006 79.0612 115.363 77.0418 115.363ZM76.3094 126.407H69.6602V119.758H76.3094V126.407Z" fill="black"/>
<path d="M88.1777 130.802H96.2918C98.3112 130.802 99.9539 129.159 99.9539 127.139V119.025C99.9539 117.006 98.3112 115.363 96.2918 115.363H88.1777C86.1583 115.363 84.5156 117.006 84.5156 119.025V127.139C84.5156 129.159 86.1583 130.802 88.1777 130.802ZM88.9102 119.758H95.5594V126.407H88.9102V119.758Z" fill="black"/>
<path d="M100.418 0H44.0248C34.7359 0 27.1791 7.55684 27.1791 16.8457V26.3924H21.4876C16.4975 26.3924 12.4375 30.452 12.4375 35.4425V60.1934C12.4375 61.4068 13.421 62.3906 14.6348 62.3906C15.8485 62.3906 16.832 61.4068 16.832 60.1934V46.137H76.31V100.96C76.31 103.527 74.2214 105.615 71.6544 105.615H21.4876C18.9206 105.615 16.832 103.527 16.832 100.96V70.4473C16.832 69.2338 15.8485 68.25 14.6348 68.25C13.421 68.25 12.4375 69.2338 12.4375 70.4473V100.96C12.4375 105.95 16.4972 110.01 21.4876 110.01H27.1791V133.154C27.1791 142.443 34.7359 150 44.0248 150H100.418C109.707 150 117.264 142.443 117.264 133.154V16.8457C117.264 7.55684 109.707 0 100.418 0ZM16.832 41.7425V35.4425C16.832 32.8755 18.9206 30.7869 21.4876 30.7869H71.6544C74.2214 30.7869 76.31 32.8752 76.31 35.4425V41.7425H16.832ZM112.87 133.154C112.87 140.02 107.284 145.605 100.418 145.605H44.0248C37.1591 145.605 31.5736 140.02 31.5736 133.154V110.01H35.9682V133.154C35.9682 137.597 39.5825 141.211 44.0248 141.211H77.2697C78.4835 141.211 79.467 140.227 79.467 139.014C79.467 137.8 78.4835 136.816 77.2697 136.816H44.0248C42.0054 136.816 40.3627 135.174 40.3627 133.154V110.01H71.6547C76.6448 110.01 80.7048 105.95 80.7048 100.96V93.53H97.7544C98.9682 93.53 99.9517 92.5462 99.9517 91.3327C99.9517 90.1192 98.9682 89.1354 97.7544 89.1354H80.7048V77.6262H97.7544C98.9682 77.6262 99.9517 76.6424 99.9517 75.4289C99.9517 74.2154 98.9682 73.2316 97.7544 73.2316H80.7048V61.9629H97.7544C98.9682 61.9629 99.9517 60.9791 99.9517 59.7656C99.9517 58.5521 98.9682 57.5684 97.7544 57.5684H80.7048V49.2762H96.2896C98.309 49.2762 99.9517 47.6335 99.9517 45.6141V37.5C99.9517 35.4806 98.309 33.8379 96.2896 33.8379H80.5595C79.7995 29.6109 76.0973 26.3924 71.6547 26.3924H40.3627V16.8457C40.3627 14.8263 42.0054 13.1836 44.0248 13.1836H50.2035C51.7952 13.1836 53.1944 14.2005 53.6866 15.7148L53.8636 16.2592C54.9455 19.5891 58.0249 21.8262 61.5259 21.8262H82.9173C86.4183 21.8262 89.4977 19.5891 90.5796 16.2592L90.7565 15.7143C91.2484 14.2005 92.648 13.1836 94.2397 13.1836H100.418C102.438 13.1836 104.08 14.8263 104.08 16.8457V133.154C104.08 135.174 102.438 136.816 100.418 136.816H87.5233C86.3096 136.816 85.3261 137.8 85.3261 139.014C85.3261 140.227 86.3096 141.211 87.5233 141.211H100.418C104.861 141.211 108.475 137.597 108.475 133.154V16.8457C108.475 12.4031 104.861 8.78906 100.418 8.78906H94.2397C90.7387 8.78906 87.6593 11.0262 86.5773 14.3561L86.4004 14.901C85.9085 16.4147 84.509 17.4316 82.9173 17.4316H61.5259C59.9342 17.4316 58.5347 16.4147 58.0425 14.9004L57.8655 14.3563C56.7842 11.0262 53.7048 8.78906 50.2035 8.78906H44.0248C39.5825 8.78906 35.9682 12.4031 35.9682 16.8457V26.3924H31.5736V16.8457C31.5736 9.97998 37.1591 4.39453 44.0248 4.39453H100.418C107.284 4.39453 112.87 9.97998 112.87 16.8457V133.154ZM80.7045 44.8816V38.2324H95.5568V44.8816H80.7045Z" fill="black"/>
<path d="M129.913 20.6602C125.692 20.6602 122.258 24.0943 122.258 28.3151V40.5354C122.258 41.7489 123.241 42.7327 124.455 42.7327C125.669 42.7327 126.652 41.7489 126.652 40.5354V28.3151C126.652 26.5172 128.115 25.0547 129.913 25.0547C131.711 25.0547 133.173 26.5175 133.173 28.3151V109.745H126.652V50.7896C126.652 49.5762 125.669 48.5924 124.455 48.5924C123.241 48.5924 122.258 49.5762 122.258 50.7896V114.568C122.258 115.409 122.417 116.229 122.732 117.006L127.077 127.754C127.546 128.916 128.659 129.667 129.913 129.667C131.166 129.667 132.279 128.916 132.749 127.754L137.094 117.006C137.408 116.228 137.568 115.408 137.568 114.568V28.3151C137.568 24.0943 134.134 20.6602 129.913 20.6602ZM133.173 114.568C133.173 114.841 133.121 115.107 133.02 115.359L129.913 123.044L126.806 115.358C126.704 115.107 126.653 114.841 126.653 114.568V114.139H133.174V114.568H133.173Z" fill="black"/>
</svg>
