<svg width="52" height="52" viewBox="0 0 52 52" fill="none" xmlns="http://www.w3.org/2000/svg">
<path d="M36.9499 33.0113C36.556 33.5629 35.6893 33.878 34.9802 33.4841L33.4045 32.6962C32.5378 32.2235 31.5135 32.6962 31.2772 33.6417L30.8044 35.2962C30.4893 36.478 28.9923 36.7932 28.2044 35.8477L27.6529 35.1386L27.1802 34.5083C27.0226 34.3507 26.8651 34.1932 26.7075 34.1144C26.2348 33.878 25.762 33.878 25.2893 34.1144C25.1317 34.1932 24.9741 34.3507 24.8166 34.5083L24.3438 35.1386L23.7923 35.8477C23.0045 36.7932 21.5075 36.478 21.1923 35.2962L20.7196 33.6417C20.4832 32.6962 19.459 32.3023 18.5923 32.6962L17.0166 33.4841C16.3075 33.878 15.4408 33.5629 15.0469 33.0113" stroke="black" stroke-width="1.5" stroke-miterlimit="10" stroke-linecap="round" stroke-linejoin="round"/>
<path d="M15.0486 33.0118C14.891 32.6966 14.7335 32.3815 14.8122 31.9875L15.1274 30.333C15.285 29.3875 14.4971 28.5997 13.5516 28.5997L11.8183 28.6784C10.5577 28.7572 9.76982 27.4178 10.4789 26.3936L11.4244 24.9754C11.9759 24.1875 11.5819 23.0845 10.7153 22.7693L9.06073 22.139C7.87891 21.7451 7.72133 20.1693 8.74558 19.539L10.2425 18.5936C11.0304 18.1209 11.188 16.939 10.4789 16.3087L9.2183 15.1269C8.35164 14.2603 8.82436 12.7633 10.0062 12.6057L11.7395 12.3693C12.685 12.2118 13.2365 11.2663 12.9213 10.3997L12.291 8.82389C11.8183 7.72086 12.9213 6.53904 14.1032 6.8542L15.7577 7.32692C16.7032 7.56329 17.6486 6.93298 17.6486 5.98753L17.7274 4.2542C17.8062 3.07238 19.2244 2.44207 20.1698 3.15117L21.5092 4.2542C22.2183 4.8845 23.4001 4.64814 23.7941 3.78147L24.5819 2.2845C25.2122 1.33904 26.788 1.33904 27.3395 2.36329L28.1274 3.86026C28.5213 4.72692 29.7032 4.96329 30.4122 4.33298L31.7516 3.22995C32.6971 2.44207 34.1153 3.07238 34.1941 4.33298L34.2729 6.06632C34.3516 7.01177 35.2183 7.64207 36.1638 7.40571L37.8183 6.93298C39.0001 6.61783 40.1032 7.72086 39.6304 8.90268L39.0001 10.4784C38.685 11.3451 39.2365 12.3693 40.1819 12.4481L41.9153 12.6845C43.0971 12.8421 43.6486 14.339 42.7032 15.2057L41.4425 16.3875C40.7335 17.0178 40.891 18.1997 41.6789 18.6724L43.1759 19.6178C44.2001 20.2481 44.0425 21.8239 42.8607 22.2178L41.285 22.8481C40.3395 23.1633 40.0244 24.2663 40.5759 25.0542L41.5213 26.4724C42.2304 27.4966 41.4425 28.836 40.1819 28.7572L38.4486 28.6784C37.5032 28.5997 36.7153 29.4663 36.8728 30.4118L37.188 32.0663C37.2668 32.4603 37.188 32.8542 36.9516 33.0906" stroke="black" stroke-width="1.5" stroke-miterlimit="10" stroke-linecap="round" stroke-linejoin="round"/>
<path d="M29.2301 16.8604L24.8968 21.1149L22.7695 18.9876" stroke="black" stroke-width="1.5" stroke-miterlimit="10" stroke-linecap="round" stroke-linejoin="round"/>
<path d="M26.0023 29.9392C32.0506 29.9392 36.9538 25.036 36.9538 18.9876C36.9538 12.9393 32.0506 8.03613 26.0023 8.03613C19.9539 8.03613 15.0508 12.9393 15.0508 18.9876C15.0508 25.036 19.9539 29.9392 26.0023 29.9392Z" stroke="black" stroke-width="1.5" stroke-miterlimit="10" stroke-linecap="round" stroke-linejoin="round"/>
<path d="M36.4012 33.4844L42.389 50.4238L26.0012 40.9692L9.61328 50.4238L15.6012 33.4844" stroke="black" stroke-width="1.5" stroke-miterlimit="10" stroke-linecap="round" stroke-linejoin="round"/>
<path d="M26 40.9692V33.957" stroke="black" stroke-width="1.5" stroke-miterlimit="10" stroke-linecap="round" stroke-linejoin="round"/>
</svg>
