<svg width="52" height="52" viewBox="0 0 52 52" fill="none" xmlns="http://www.w3.org/2000/svg">
<path d="M33.3125 25.1875H18.6875C18.041 25.1875 17.421 24.9307 16.9639 24.4736C16.5068 24.0165 16.25 23.3965 16.25 22.75C16.25 17.3582 19.5309 14.625 26 14.625C32.4691 14.625 35.75 17.3582 35.75 22.75C35.75 23.3965 35.4932 24.0165 35.0361 24.4736C34.579 24.9307 33.959 25.1875 33.3125 25.1875ZM26 16.25C20.4571 16.25 17.875 18.3154 17.875 22.75C17.875 22.9655 17.9606 23.1722 18.113 23.3245C18.2653 23.4769 18.472 23.5625 18.6875 23.5625H33.3125C33.528 23.5625 33.7347 23.4769 33.887 23.3245C34.0394 23.1722 34.125 22.9655 34.125 22.75C34.125 18.3154 31.5429 16.25 26 16.25Z" fill="black"/>
<path d="M26 13.8125C25.0358 13.8125 24.0933 13.5266 23.2916 12.9909C22.4899 12.4552 21.8651 11.6939 21.4961 10.8031C21.1271 9.91229 21.0306 8.93209 21.2187 7.98644C21.4068 7.04078 21.8711 6.17214 22.5529 5.49036C23.2346 4.80858 24.1033 4.34428 25.0489 4.15617C25.9946 3.96807 26.9748 4.06461 27.8656 4.43359C28.7564 4.80257 29.5177 5.42741 30.0534 6.2291C30.5891 7.03079 30.875 7.97332 30.875 8.9375C30.8737 10.23 30.3597 11.4693 29.4457 12.3832C28.5318 13.2972 27.2925 13.8112 26 13.8125ZM26 5.6875C25.3572 5.6875 24.7289 5.87811 24.1944 6.23523C23.6599 6.59234 23.2434 7.09992 22.9974 7.69378C22.7514 8.28764 22.687 8.94111 22.8125 9.57155C22.9379 10.202 23.2474 10.7811 23.7019 11.2356C24.1564 11.6901 24.7355 11.9997 25.366 12.1251C25.9964 12.2505 26.6499 12.1861 27.2437 11.9401C27.8376 11.6941 28.3452 11.2776 28.7023 10.7431C29.0594 10.2086 29.25 9.58029 29.25 8.9375C29.25 8.07555 28.9076 7.2489 28.2981 6.63941C27.6886 6.02991 26.862 5.6875 26 5.6875Z" fill="black"/>
<path d="M45.5 47.9375H30.875C30.2285 47.9375 29.6085 47.6807 29.1514 47.2236C28.6943 46.7665 28.4375 46.1465 28.4375 45.5C28.4375 40.1082 31.7184 37.375 38.1875 37.375C44.6566 37.375 47.9375 40.1082 47.9375 45.5C47.9375 46.1465 47.6807 46.7665 47.2236 47.2236C46.7665 47.6807 46.1465 47.9375 45.5 47.9375ZM38.1875 39C32.6446 39 30.0625 41.0654 30.0625 45.5C30.0625 45.7155 30.1481 45.9222 30.3005 46.0745C30.4528 46.2269 30.6595 46.3125 30.875 46.3125H45.5C45.7155 46.3125 45.9222 46.2269 46.0745 46.0745C46.2269 45.9222 46.3125 45.7155 46.3125 45.5C46.3125 41.0654 43.7304 39 38.1875 39Z" fill="black"/>
<path d="M38.1875 36.5625C37.2233 36.5625 36.2808 36.2766 35.4791 35.7409C34.6774 35.2052 34.0526 34.4439 33.6836 33.5531C33.3146 32.6623 33.2181 31.6821 33.4062 30.7364C33.5943 29.7908 34.0586 28.9221 34.7404 28.2404C35.4221 27.5586 36.2908 27.0943 37.2364 26.9062C38.1821 26.7181 39.1623 26.8146 40.0531 27.1836C40.9439 27.5526 41.7052 28.1774 42.2409 28.9791C42.7766 29.7808 43.0625 30.7233 43.0625 31.6875C43.0612 32.98 42.5472 34.2193 41.6332 35.1332C40.7193 36.0472 39.48 36.5612 38.1875 36.5625ZM38.1875 28.4375C37.5447 28.4375 36.9164 28.6281 36.3819 28.9852C35.8474 29.3423 35.4309 29.8499 35.1849 30.4438C34.9389 31.0376 34.8745 31.6911 35 32.3215C35.1254 32.952 35.4349 33.5311 35.8894 33.9856C36.3439 34.4401 36.923 34.7497 37.5535 34.8751C38.1839 35.0005 38.8374 34.9361 39.4312 34.6901C40.0251 34.4441 40.5327 34.0276 40.8898 33.4931C41.2469 32.9586 41.4375 32.3303 41.4375 31.6875C41.4375 30.8255 41.0951 29.9989 40.4856 29.3894C39.8761 28.7799 39.0495 28.4375 38.1875 28.4375Z" fill="black"/>
<path d="M21.125 47.9375H6.5C5.85353 47.9375 5.23355 47.6807 4.77643 47.2236C4.31931 46.7665 4.0625 46.1465 4.0625 45.5C4.0625 40.1082 7.34338 37.375 13.8125 37.375C20.2816 37.375 23.5625 40.1082 23.5625 45.5C23.5625 46.1465 23.3057 46.7665 22.8486 47.2236C22.3915 47.6807 21.7715 47.9375 21.125 47.9375ZM13.8125 39C8.26963 39 5.6875 41.0654 5.6875 45.5C5.6875 45.7155 5.7731 45.9222 5.92548 46.0745C6.07785 46.2269 6.28451 46.3125 6.5 46.3125H21.125C21.3405 46.3125 21.5472 46.2269 21.6995 46.0745C21.8519 45.9222 21.9375 45.7155 21.9375 45.5C21.9375 41.0654 19.3554 39 13.8125 39Z" fill="black"/>
<path d="M13.8125 36.5625C12.8483 36.5625 11.9058 36.2766 11.1041 35.7409C10.3024 35.2052 9.67757 34.4439 9.30859 33.5531C8.93961 32.6623 8.84307 31.6821 9.03117 30.7364C9.21928 29.7908 9.68358 28.9221 10.3654 28.2404C11.0471 27.5586 11.9158 27.0943 12.8614 26.9062C13.8071 26.7181 14.7873 26.8146 15.6781 27.1836C16.5689 27.5526 17.3302 28.1774 17.8659 28.9791C18.4016 29.7808 18.6875 30.7233 18.6875 31.6875C18.6862 32.98 18.1722 34.2193 17.2582 35.1332C16.3443 36.0472 15.105 36.5612 13.8125 36.5625ZM13.8125 28.4375C13.1697 28.4375 12.5414 28.6281 12.0069 28.9852C11.4724 29.3423 11.0559 29.8499 10.8099 30.4438C10.5639 31.0376 10.4995 31.6911 10.6249 32.3215C10.7504 32.952 11.0599 33.5311 11.5144 33.9856C11.9689 34.4401 12.548 34.7497 13.1785 34.8751C13.8089 35.0005 14.4624 34.9361 15.0562 34.6901C15.6501 34.4441 16.1577 34.0276 16.5148 33.4931C16.8719 32.9586 17.0625 32.3303 17.0625 31.6875C17.0625 30.8255 16.7201 29.9989 16.1106 29.3894C15.5011 28.7799 14.6745 28.4375 13.8125 28.4375Z" fill="black"/>
<path d="M26 33.3125C25.7845 33.3125 25.5778 33.2269 25.4255 33.0745C25.2731 32.9222 25.1875 32.7155 25.1875 32.5V27.625C25.1875 27.4095 25.2731 27.2028 25.4255 27.0505C25.5778 26.8981 25.7845 26.8125 26 26.8125C26.2155 26.8125 26.4222 26.8981 26.5745 27.0505C26.7269 27.2028 26.8125 27.4095 26.8125 27.625V32.5C26.8125 32.7155 26.7269 32.9222 26.5745 33.0745C26.4222 33.2269 26.2155 33.3125 26 33.3125Z" fill="black"/>
<path d="M29.2478 36.5623C29.0324 36.5622 28.8257 36.4766 28.6734 36.3242L25.4234 33.0742C25.2754 32.921 25.1935 32.7157 25.1953 32.5027C25.1972 32.2897 25.2826 32.0859 25.4333 31.9352C25.5839 31.7846 25.7877 31.6991 26.0008 31.6973C26.2138 31.6954 26.419 31.7773 26.5723 31.9253L29.8223 35.1753C29.9359 35.289 30.0132 35.4337 30.0446 35.5913C30.0759 35.7489 30.0598 35.9122 29.9983 36.0607C29.9368 36.2091 29.8327 36.336 29.6991 36.4253C29.5656 36.5146 29.4085 36.5622 29.2478 36.5623Z" fill="black"/>
<path d="M22.7498 36.5623C22.5892 36.5622 22.4321 36.5146 22.2985 36.4253C22.1649 36.336 22.0608 36.2091 21.9993 36.0607C21.9379 35.9122 21.9218 35.7489 21.9531 35.5913C21.9844 35.4337 22.0618 35.289 22.1754 35.1753L25.4254 31.9253C25.5786 31.7773 25.7839 31.6954 25.9969 31.6973C26.2099 31.6991 26.4137 31.7846 26.5644 31.9352C26.715 32.0859 26.8005 32.2897 26.8023 32.5027C26.8042 32.7157 26.7223 32.921 26.5743 33.0742L23.3243 36.3242C23.1719 36.4766 22.9653 36.5622 22.7498 36.5623Z" fill="black"/>
</svg>
