<svg width="162" height="162" viewBox="0 0 162 162" fill="none" xmlns="http://www.w3.org/2000/svg">
<path fill-rule="evenodd" clip-rule="evenodd" d="M42.7538 5.47852C40.3012 5.48293 37.9505 6.45985 36.2172 8.19503C34.4839 9.9302 33.5096 12.282 33.5078 14.7345V147.265C33.5098 149.717 34.4844 152.069 36.2177 153.804C37.9511 155.539 40.3019 156.516 42.7544 156.52H119.249C121.702 156.518 124.055 155.542 125.79 153.807C127.525 152.072 128.501 149.72 128.504 147.266V14.7339C128.501 12.2798 127.526 9.9268 125.79 8.19153C124.055 6.45626 121.702 5.48052 119.248 5.47852H42.7538ZM58.9829 9.50629H103.02V10.1608C103.018 11.5133 102.48 12.81 101.523 13.7664C100.567 14.7228 99.2705 15.261 97.918 15.2629H64.0846C62.7323 15.2609 61.4359 14.7227 60.4797 13.7665C59.5235 12.8102 58.9854 11.5138 58.9835 10.1614L58.9829 9.50629ZM124.483 147.265C124.48 148.651 123.927 149.98 122.946 150.96C121.965 151.94 120.635 152.491 119.249 152.492H42.7522C41.3645 152.49 40.0342 151.938 39.0531 150.957C38.072 149.975 37.5202 148.645 37.5186 147.257V132.961H124.483V147.265ZM124.483 128.942H37.5183V14.7339C37.5217 13.347 38.0747 12.0181 39.0562 11.0382C40.0377 10.0583 41.3675 9.50745 42.7544 9.50629H54.9636V10.1608C54.9663 12.5794 55.9281 14.8983 57.6382 16.6086C59.3483 18.319 61.6669 19.2813 64.0856 19.2844H97.9183C100.337 19.2817 102.655 18.3197 104.365 16.6095C106.075 14.8993 107.037 12.5805 107.039 10.1621V9.50629H119.249C120.636 9.50796 121.967 10.06 122.948 11.0414C123.929 12.0228 124.481 13.3533 124.483 14.7411V128.942ZM85.1238 140.537C85.3511 140.534 85.5768 140.576 85.7878 140.661C85.9987 140.746 86.1907 140.872 86.3525 141.031C86.5144 141.191 86.6429 141.381 86.7307 141.591C86.8184 141.801 86.8636 142.026 86.8636 142.253C86.8636 142.481 86.8184 142.706 86.7307 142.915C86.6429 143.125 86.5144 143.315 86.3525 143.475C86.1907 143.635 85.9987 143.761 85.7878 143.846C85.5768 143.931 85.3511 143.973 85.1238 143.97H76.8769C76.4255 143.963 75.9946 143.78 75.6775 143.458C75.3605 143.137 75.1827 142.704 75.1827 142.252C75.1827 141.801 75.3605 141.367 75.6775 141.046C75.9946 140.725 76.4255 140.541 76.8769 140.535L85.1238 140.537ZM112.536 52.6589H73.2242C72.6901 52.6589 72.1779 52.4467 71.8002 52.069C71.4225 51.6914 71.2103 51.1791 71.2103 50.645C71.2103 50.1109 71.4225 49.5986 71.8002 49.221C72.1779 48.8433 72.6901 48.6311 73.2242 48.6311H112.537C113.071 48.6315 113.583 48.8441 113.961 49.2221C114.338 49.6001 114.55 50.1125 114.55 50.6466C114.549 51.1807 114.337 51.6928 113.959 52.0702C113.581 52.4475 113.07 52.6593 112.536 52.6589ZM112.536 61.2327H73.2242C72.6901 61.2327 72.1779 61.0205 71.8002 60.6429C71.4225 60.2652 71.2103 59.7529 71.2103 59.2188C71.2103 58.6847 71.4225 58.1725 71.8002 57.7948C72.1779 57.4171 72.6901 57.2049 73.2242 57.2049H112.537C113.071 57.2053 113.583 57.4179 113.961 57.7959C114.338 58.1739 114.55 58.6863 114.55 59.2204C114.549 59.7545 114.337 60.2666 113.959 60.644C113.581 61.0213 113.07 61.2331 112.536 61.2327ZM49.4669 45.4205H64.454C64.7185 45.4205 64.9804 45.4726 65.2247 45.5738C65.4691 45.675 65.6911 45.8234 65.8781 46.0104C66.0651 46.1974 66.2134 46.4194 66.3146 46.6637C66.4158 46.9081 66.4679 47.17 66.4679 47.4344V62.4228C66.4679 62.6873 66.4158 62.9491 66.3146 63.1935C66.2134 63.4378 66.0651 63.6598 65.8781 63.8468C65.6911 64.0338 65.4691 64.1822 65.2247 64.2834C64.9804 64.3846 64.7185 64.4367 64.454 64.4367H49.4663C48.9322 64.4367 48.42 64.2245 48.0423 63.8468C47.6646 63.4691 47.4524 62.9569 47.4524 62.4228V47.4344C47.4524 47.17 47.5045 46.9081 47.6057 46.6637C47.7069 46.4194 47.8553 46.1974 48.0423 46.0104C48.2293 45.8234 48.4513 45.675 48.6956 45.5738C48.94 45.4726 49.2025 45.4205 49.4669 45.4205ZM62.4402 60.4089H51.4761V49.4483H62.443L62.4402 60.4089ZM112.531 78.7202H73.2242C72.6901 78.7202 72.1779 78.508 71.8002 78.1303C71.4225 77.7526 71.2103 77.2404 71.2103 76.7063C71.2103 76.1722 71.4225 75.6599 71.8002 75.2823C72.1779 74.9046 72.6901 74.6924 73.2242 74.6924H112.537C115.191 74.6968 115.179 78.7202 112.531 78.7202ZM112.531 87.2921H73.2245C72.6904 87.2921 72.1782 87.0799 71.8005 86.7023C71.4228 86.3246 71.2106 85.8123 71.2106 85.2782C71.2106 84.7441 71.4228 84.2319 71.8005 83.8542C72.1782 83.4765 72.6904 83.2643 73.2245 83.2643H112.537C115.191 83.2675 115.179 87.2921 112.531 87.2921ZM49.4654 71.4963H64.454C64.9873 71.4963 65.4988 71.7078 65.8763 72.0844C66.2538 72.461 66.4666 72.9719 66.4679 73.5052V88.4992C66.4679 88.7637 66.4158 89.0255 66.3146 89.2699C66.2134 89.5142 66.0651 89.7362 65.8781 89.9232C65.6911 90.1102 65.4691 90.2586 65.2247 90.3598C64.9804 90.461 64.7185 90.5131 64.454 90.5131H49.4663C48.9322 90.5131 48.42 90.3009 48.0423 89.9232C47.6646 89.5456 47.4524 89.0333 47.4524 88.4992V73.5102C47.4524 72.9761 47.6646 72.4638 48.0423 72.0862C48.42 71.7085 48.9312 71.4963 49.4654 71.4963ZM62.4402 86.484H51.4761V75.5146H62.443L62.4402 86.484ZM114.545 102.78C114.545 103.314 114.332 103.826 113.955 104.204C113.577 104.581 113.065 104.793 112.531 104.793H73.2245C72.6904 104.793 72.1782 104.581 71.8005 104.204C71.4228 103.826 71.2106 103.314 71.2106 102.78C71.2106 102.245 71.4228 101.733 71.8005 101.356C72.1782 100.978 72.6904 100.766 73.2245 100.766H112.537C113.07 100.767 113.582 100.979 113.959 101.357C114.336 101.734 114.548 102.246 114.548 102.78H114.545ZM114.545 111.353C114.545 111.887 114.332 112.4 113.955 112.777C113.577 113.155 113.065 113.367 112.531 113.367H73.2245C72.6904 113.367 72.1782 113.155 71.8005 112.777C71.4228 112.4 71.2106 111.887 71.2106 111.353C71.2106 110.819 71.4228 110.307 71.8005 109.929C72.1782 109.552 72.6904 109.339 73.2245 109.339H112.537C113.07 109.34 113.582 109.553 113.959 109.93C114.336 110.308 114.548 110.82 114.548 111.353H114.545ZM49.4654 97.562H64.4544C64.9879 97.562 65.4997 97.7738 65.8773 98.1507C66.2549 98.5277 66.4674 99.0392 66.4683 99.5727V114.564C66.4683 114.829 66.4162 115.091 66.315 115.335C66.2137 115.579 66.0654 115.801 65.8784 115.988C65.6914 116.175 65.4694 116.324 65.225 116.425C64.9807 116.526 64.7188 116.578 64.4544 116.578H49.4666C48.9325 116.578 48.4203 116.366 48.0426 115.988C47.6649 115.611 47.4527 115.098 47.4527 114.564V99.5753C47.4527 99.0411 47.6649 98.5289 48.0426 98.1512C48.4203 97.7736 48.9312 97.562 49.4654 97.562ZM62.4402 112.552H51.4761V101.583H62.443L62.4402 112.552Z" fill="black" stroke="black" stroke-width="1.38889"/>
</svg>
