<svg width="32" height="32" viewBox="0 0 32 32" fill="none" xmlns="http://www.w3.org/2000/svg">
<path d="M9.78294 12.5804H11.7055V14.4304C11.7055 14.4994 11.7191 14.5677 11.7454 14.6314C11.7718 14.6951 11.8105 14.753 11.8593 14.8018C11.908 14.8505 11.9659 14.8892 12.0297 14.9156C12.0934 14.942 12.1617 14.9556 12.2306 14.9555H14.606C14.675 14.9556 14.7433 14.942 14.807 14.9156C14.8707 14.8892 14.9286 14.8505 14.9774 14.8018C15.0261 14.753 15.0648 14.6951 15.0912 14.6314C15.1176 14.5677 15.1312 14.4994 15.1311 14.4304V12.5804H17.0537C17.1227 12.5804 17.191 12.5669 17.2547 12.5405C17.3184 12.5141 17.3763 12.4754 17.4251 12.4266C17.4738 12.3779 17.5125 12.32 17.5389 12.2563C17.5653 12.1925 17.5789 12.1243 17.5788 12.0553V9.6317C17.5789 9.56274 17.5653 9.49444 17.5389 9.43072C17.5125 9.36701 17.4738 9.30911 17.4251 9.26034C17.3763 9.21158 17.3184 9.1729 17.2547 9.14651C17.191 9.12013 17.1227 9.10656 17.0537 9.10658H15.1311V7.25658C15.1312 7.18761 15.1176 7.11932 15.0912 7.0556C15.0648 6.99188 15.0261 6.93398 14.9774 6.88521C14.9286 6.83645 14.8707 6.79777 14.807 6.77138C14.7433 6.745 14.675 6.73143 14.606 6.73145H12.2306C12.1617 6.73143 12.0934 6.745 12.0297 6.77139C11.9659 6.79777 11.908 6.83645 11.8593 6.88522C11.8105 6.93398 11.7718 6.99188 11.7454 7.0556C11.7191 7.11932 11.7055 7.18761 11.7055 7.25658V9.10658H9.78294C9.71398 9.10656 9.64568 9.12013 9.58197 9.14651C9.51825 9.1729 9.46035 9.21158 9.41158 9.26034C9.36282 9.30911 9.32414 9.367 9.29775 9.43072C9.27137 9.49444 9.2578 9.56273 9.25781 9.6317V12.0553C9.2578 12.1243 9.27137 12.1925 9.29775 12.2563C9.32414 12.32 9.36282 12.3779 9.41158 12.4267C9.46035 12.4754 9.51824 12.5141 9.58196 12.5405C9.64568 12.5669 9.71398 12.5804 9.78294 12.5804ZM10.3081 10.1568H12.2306C12.2996 10.1568 12.3679 10.1433 12.4316 10.1169C12.4953 10.0905 12.5532 10.0518 12.602 10.0031C12.6508 9.9543 12.6894 9.8964 12.7158 9.83268C12.7422 9.76896 12.7558 9.70067 12.7558 9.6317V7.7817H14.0809C14.0928 10.6739 13.7312 10.0957 16.5286 10.1568V11.5302C13.7184 11.5845 14.0954 11.0332 14.0809 13.9053H12.7558V12.0553C12.7558 11.9863 12.7422 11.918 12.7158 11.8543C12.6895 11.7906 12.6508 11.7327 12.602 11.6839C12.5532 11.6352 12.4953 11.5965 12.4316 11.5701C12.3679 11.5437 12.2996 11.5301 12.2306 11.5302H10.3081V10.1568Z" fill="black"/>
<path d="M6.9913 21.8432H15.2241C15.3634 21.8432 15.497 21.7879 15.5954 21.6894C15.6939 21.5909 15.7492 21.4574 15.7492 21.3181C15.7492 21.1788 15.6939 21.0453 15.5954 20.9468C15.497 20.8483 15.3634 20.793 15.2241 20.793H6.9913C6.85384 20.7957 6.72294 20.8523 6.62671 20.9504C6.53047 21.0486 6.47656 21.1806 6.47656 21.3181C6.47656 21.4556 6.53047 21.5876 6.62671 21.6858C6.72294 21.7839 6.85384 21.8405 6.9913 21.8432Z" fill="black"/>
<path d="M6.99117 25.5561H13.1117C13.2491 25.5534 13.3801 25.4969 13.4763 25.3987C13.5726 25.3005 13.6265 25.1685 13.6265 25.031C13.6265 24.8935 13.5726 24.7615 13.4763 24.6633C13.38 24.5651 13.2491 24.5086 13.1116 24.5059H6.99117C6.85374 24.5086 6.72287 24.5652 6.62666 24.6634C6.53045 24.7615 6.47656 24.8935 6.47656 25.031C6.47656 25.1684 6.53045 25.3004 6.62666 25.3986C6.72287 25.4968 6.85374 25.5533 6.99117 25.5561Z" fill="black"/>
<path d="M26.4252 16.8356L22.9221 19.7843L21.2595 18.2264C21.1574 18.1343 21.0232 18.0859 20.8858 18.0917C20.7484 18.0975 20.6188 18.1569 20.5247 18.2573C20.4307 18.3576 20.3798 18.4909 20.383 18.6284C20.3861 18.7658 20.4431 18.8966 20.5416 18.9925L22.5441 20.8694C22.6379 20.9573 22.7606 21.0078 22.889 21.0113C23.0175 21.0147 23.1428 20.9709 23.2411 20.8882L27.1011 17.6392C27.2046 17.5487 27.2685 17.4211 27.279 17.284C27.2895 17.1469 27.2458 17.0111 27.1573 16.9059C27.0688 16.8006 26.9425 16.7343 26.8056 16.7212C26.6687 16.708 26.5321 16.7491 26.4252 16.8356Z" fill="black"/>
<path d="M29.515 14.005C29.5077 13.934 29.4864 13.8651 29.4522 13.8025C29.4179 13.7399 29.3716 13.6847 29.3157 13.6403C29.2599 13.5958 29.1958 13.563 29.1271 13.5436C29.0584 13.5243 28.9865 13.5189 28.9157 13.5277C27.211 13.8068 25.2139 13.3302 24.3562 11.9329L24.3562 4.01128C24.3556 3.47803 24.1435 2.96678 23.7664 2.58972C23.3894 2.21265 22.8781 2.00057 22.3449 2H4.49567C3.96242 2.00057 3.45117 2.21266 3.07411 2.58972C2.69704 2.96679 2.48495 3.47803 2.48438 4.01128V27.9887C2.48495 28.522 2.69704 29.0332 3.07411 29.4103C3.45117 29.7873 3.96242 29.9994 4.49567 30H22.3449C22.8781 29.9994 23.3894 29.7873 23.7664 29.4103C24.1435 29.0332 24.3556 28.522 24.3562 27.9887V26.0658C25.8352 25.66 27.1408 24.7814 28.0738 23.5642C29.0068 22.3469 29.5159 20.8578 29.5234 19.3241V14.0464C29.5234 14.0317 29.5162 14.0194 29.515 14.005ZM22.3449 28.9497H4.49567C4.24089 28.9494 3.99664 28.8481 3.81648 28.6679C3.63633 28.4878 3.53498 28.2435 3.53467 27.9887V4.01128C3.53497 3.7565 3.63632 3.51224 3.81647 3.33207C3.99663 3.15191 4.24089 3.05056 4.49567 3.05026H22.3449C22.5997 3.05055 22.8439 3.15189 23.0241 3.33206C23.2043 3.51222 23.3056 3.75649 23.3059 4.01128V11.9504C22.8997 12.5698 22.2975 13.0353 21.5957 13.2723C20.6604 13.6098 19.653 13.6956 18.6741 13.5213C18.5369 13.5277 18.4071 13.5851 18.31 13.6822C18.2129 13.7794 18.1555 13.9092 18.149 14.0464V19.2977C18.1558 20.8289 18.6635 22.3159 19.5947 23.5315C20.5258 24.7471 21.8293 25.6245 23.3059 26.0298V27.9887C23.3056 28.2435 23.2043 28.4878 23.0241 28.6679C22.8439 28.8481 22.5997 28.9494 22.3449 28.9497ZM23.9121 25.1021C22.582 24.8177 21.3892 24.087 20.5319 23.0311C19.6746 21.9752 19.2043 20.6578 19.1992 19.2977V14.635C19.3684 14.6477 19.5361 14.6556 19.7033 14.6556C21.224 14.6651 22.881 14.1096 23.8362 13.0022C24.9058 14.2341 26.8036 14.7742 28.4731 14.6347V19.3241C28.4673 20.6582 28.0151 21.952 27.1885 22.9992C26.3618 24.0464 25.2084 24.7867 23.9121 25.1021Z" fill="black"/>
</svg>
