<svg width="52" height="52" viewBox="0 0 52 52" fill="none" xmlns="http://www.w3.org/2000/svg">
<g clip-path="url(#clip0_989_14791)">
<path d="M26 42.8594C24.74 42.8594 23.7148 43.8844 23.7148 45.1445V49.7148C23.7148 50.9749 24.74 52 26 52C27.26 52 28.2852 50.9749 28.2852 49.7148V45.1445C28.2852 43.8844 27.26 42.8594 26 42.8594ZM26.7617 49.7148C26.7617 50.1349 26.4201 50.4766 26 50.4766C25.5799 50.4766 25.2383 50.1349 25.2383 49.7148V45.1445C25.2383 44.7245 25.5799 44.3828 26 44.3828C26.4201 44.3828 26.7617 44.7245 26.7617 45.1445V49.7148Z" fill="black"/>
<path d="M41.1538 37.9211C40.263 37.0303 38.8131 37.0302 37.922 37.9211C37.0311 38.8121 37.0312 40.2618 37.922 41.1527L41.1538 44.3844C41.5854 44.816 42.1592 45.0537 42.7696 45.0537C43.38 45.0537 43.9538 44.8159 44.3854 44.3844C44.817 43.9528 45.0548 43.3789 45.0548 42.7685C45.0548 42.1582 44.817 41.5843 44.3855 41.1527L41.1538 37.9211ZM43.3083 43.3072C43.1644 43.4511 42.9731 43.5304 42.7696 43.5304C42.5662 43.5304 42.3749 43.4511 42.231 43.3072L38.9993 40.0755C38.7023 39.7785 38.7022 39.2953 38.9992 38.9983C39.1478 38.8499 39.3429 38.7756 39.538 38.7756C39.733 38.7756 39.9281 38.8499 40.0766 38.9983L43.3083 42.2301C43.4521 42.374 43.5313 42.5652 43.5313 42.7687C43.5313 42.9721 43.4521 43.1634 43.3083 43.3072Z" fill="black"/>
<path d="M49.7148 23.7148H45.1445C43.8845 23.7148 42.8594 24.7399 42.8594 26C42.8594 27.2601 43.8845 28.2852 45.1445 28.2852H49.7148C50.9748 28.2852 52 27.2601 52 26C52 24.7399 50.9748 23.7148 49.7148 23.7148ZM49.7148 26.7617H45.1445C44.7245 26.7617 44.3828 26.4201 44.3828 26C44.3828 25.5799 44.7245 25.2383 45.1445 25.2383H49.7148C50.1349 25.2383 50.4766 25.5799 50.4766 26C50.4766 26.4201 50.1349 26.7617 49.7148 26.7617Z" fill="black"/>
<path d="M39.5379 14.7471C40.1232 14.7471 40.7083 14.5244 41.1539 14.0789L44.3854 10.8473C44.817 10.4157 45.0548 9.84184 45.0548 9.23145C45.0548 8.62105 44.8171 8.04723 44.3855 7.61559C43.9538 7.18395 43.38 6.94629 42.7696 6.94629C42.1592 6.94629 41.5854 7.18405 41.1538 7.61559L37.922 10.8473C37.0312 11.7382 37.0311 13.1879 37.9221 14.079C38.3676 14.5244 38.9527 14.7472 39.5379 14.7471ZM38.9993 11.9245L42.231 8.69276C42.3748 8.54884 42.5662 8.46962 42.7696 8.46962C42.973 8.46962 43.1644 8.54884 43.3082 8.69276C43.4521 8.83667 43.5313 9.02791 43.5313 9.23134C43.5313 9.43477 43.4521 9.62602 43.3082 9.76993L40.0767 13.0015C39.7796 13.2985 39.2964 13.2986 38.9994 13.0015C38.7024 12.7045 38.7023 12.2215 38.9993 11.9245Z" fill="black"/>
<path d="M10.8463 14.0789C11.2918 14.5244 11.8769 14.7471 12.4621 14.7471C13.0473 14.7471 13.6325 14.5244 14.078 14.0789C14.969 13.1879 14.9689 11.7382 14.078 10.8473L10.8463 7.61559C10.4147 7.18395 9.84086 6.94629 9.23047 6.94629C8.62008 6.94629 8.04625 7.18405 7.61471 7.61559C7.18307 8.04723 6.94531 8.62105 6.94531 9.23145C6.94531 9.84184 7.18307 10.4157 7.61461 10.8473L10.8463 14.0789ZM8.69178 8.69276C8.8357 8.54884 9.02704 8.46962 9.23047 8.46962C9.4339 8.46962 9.62524 8.54884 9.76905 8.69276L13.0008 11.9245C13.2978 12.2214 13.2978 12.7047 13.0009 13.0016C12.7038 13.2986 12.2206 13.2987 11.9236 13.0016L8.69188 9.76993C8.54807 9.62602 8.46885 9.43477 8.46885 9.23134C8.46885 9.02791 8.54797 8.83657 8.69178 8.69276Z" fill="black"/>
<path d="M9.14062 26C9.14062 24.7399 8.11545 23.7148 6.85547 23.7148H2.28516C1.02517 23.7148 0 24.7399 0 26C0 27.2601 1.02517 28.2852 2.28516 28.2852H6.85547C8.11545 28.2852 9.14062 27.2601 9.14062 26ZM6.85547 26.7617H2.28516C1.86509 26.7617 1.52344 26.4201 1.52344 26C1.52344 25.5799 1.86509 25.2383 2.28516 25.2383H6.85547C7.27553 25.2383 7.61719 25.5799 7.61719 26C7.61719 26.4201 7.27553 26.7617 6.85547 26.7617Z" fill="black"/>
<path d="M10.8462 37.9212L7.61471 41.1528C7.18307 41.5844 6.94531 42.1582 6.94531 42.7686C6.94531 43.379 7.18297 43.9529 7.61461 44.3845C8.04625 44.8161 8.62008 45.0538 9.23047 45.0538C9.84086 45.0538 10.4147 44.816 10.8463 44.3845L14.078 41.1528C14.9689 40.2619 14.969 38.8122 14.0779 37.9211C13.187 37.0302 11.7371 37.0303 10.8462 37.9212ZM13.0008 40.0756L9.76905 43.3073C9.62524 43.4512 9.4339 43.5305 9.23047 43.5305C9.02704 43.5305 8.8357 43.4512 8.69188 43.3073C8.54797 43.1634 8.46875 42.9722 8.46875 42.7687C8.46875 42.5653 8.54797 42.3741 8.69188 42.2302L11.9234 38.9985C12.072 38.8501 12.2671 38.7758 12.4622 38.7758C12.6572 38.7758 12.8523 38.8501 13.0008 38.9985C13.2977 39.2954 13.2977 39.7785 13.0008 40.0756Z" fill="black"/>
<path d="M38.9736 17.8194C37.7394 15.8665 36.0865 14.2238 34.143 13.0044C34.536 12.5938 34.7783 12.0377 34.7783 11.4257C34.7783 10.4326 34.1415 9.58537 33.2548 9.27103V5.33203C33.2548 4.07195 32.2296 3.04688 30.9697 3.04688H29.917L28.6042 0.421078C28.4751 0.163008 28.2113 0 27.9229 0H24.0769C23.7884 0 23.5246 0.163008 23.3956 0.421078L22.0826 3.04688H21.0299C19.77 3.04688 18.7448 4.07195 18.7448 5.33203V9.27113C17.8581 9.58547 17.2213 10.4327 17.2213 11.4258C17.2213 12.0378 17.4637 12.594 17.8567 13.0046C15.9133 14.2239 14.2604 15.8666 13.0263 17.8194C11.4809 20.265 10.6641 23.0938 10.6641 26C10.6641 34.4563 17.5437 41.3359 26 41.3359C34.4563 41.3359 41.3359 34.4563 41.3359 26C41.3359 23.0938 40.5191 20.265 38.9736 17.8194ZM24.5476 1.52344H27.452L28.2138 3.04688H23.7858L24.5476 1.52344ZM19.5065 10.6641C19.9273 10.6641 20.2682 10.323 20.2682 9.90234V5.33203C20.2682 4.91197 20.6099 4.57031 21.0299 4.57031H30.9697C31.3897 4.57031 31.7314 4.91197 31.7314 5.33203V9.14062H22.5534C22.1326 9.14062 21.7917 9.48167 21.7917 9.90234C21.7917 10.323 22.1326 10.6641 22.5534 10.6641H32.4931C32.9132 10.6641 33.2548 11.0057 33.2548 11.4258C33.2548 11.8458 32.9132 12.1875 32.4931 12.1875H19.5065C19.0864 12.1875 18.7448 11.8458 18.7448 11.4258C18.7448 11.0057 19.0865 10.6641 19.5065 10.6641ZM26 39.8125C18.3838 39.8125 12.1875 33.6163 12.1875 26C12.1875 20.7833 15.0598 16.0917 19.694 13.7109H32.306C36.9402 16.0917 39.8125 20.7833 39.8125 26C39.8125 33.6163 33.6162 39.8125 26 39.8125Z" fill="black"/>
<path d="M26.002 16.7578C24.5318 16.7578 23.3359 17.9538 23.3359 19.4238C23.3359 19.4607 23.3506 19.7604 23.3569 19.9007L23.7193 27.7344C23.7795 28.9545 24.7821 29.9102 26.002 29.9102C27.2218 29.9102 28.2244 28.9545 28.2846 27.7344L28.647 19.9007C28.6534 19.7605 28.668 19.4607 28.668 19.4238C28.668 17.9538 27.4721 16.7578 26.002 16.7578ZM27.1402 19.4949C27.1314 19.7226 26.89 24.9252 26.7628 27.6616C26.7429 28.0673 26.4086 28.3867 26.002 28.3867C25.5953 28.3867 25.2611 28.0673 25.2411 27.6616C25.1139 24.9252 24.8725 19.7226 24.8637 19.4949C24.8635 19.4894 24.8594 19.4238 24.8594 19.4238C24.8594 18.7938 25.372 18.2812 26.002 18.2812C26.6319 18.2812 27.1445 18.7938 27.1445 19.4238C27.1445 19.4238 27.1404 19.4894 27.1402 19.4949Z" fill="black"/>
<path d="M26.002 31.4336C24.5318 31.4336 23.3359 32.6296 23.3359 34.0996C23.3359 35.5696 24.5318 36.7656 26.002 36.7656C27.4721 36.7656 28.668 35.5696 28.668 34.0996C28.668 32.6296 27.4721 31.4336 26.002 31.4336ZM26.002 35.2422C25.372 35.2422 24.8594 34.7296 24.8594 34.0996C24.8594 33.4696 25.372 32.957 26.002 32.957C26.6319 32.957 27.1445 33.4696 27.1445 34.0996C27.1445 34.7296 26.6319 35.2422 26.002 35.2422Z" fill="black"/>
</g>
<defs>
<clipPath id="clip0_989_14791">
<rect width="52" height="52" fill="white"/>
</clipPath>
</defs>
</svg>
