<svg width="52" height="52" viewBox="0 0 52 52" fill="none" xmlns="http://www.w3.org/2000/svg">
<path d="M23.1479 32.6025H8.62203C8.09876 32.6025 7.67578 32.1785 7.67578 31.6562C7.67578 31.1339 8.09876 30.71 8.62203 30.71H23.1479C23.6712 30.71 24.0942 31.1339 24.0942 31.6562C24.0942 32.1785 23.6702 32.6025 23.1479 32.6025Z" fill="black"/>
<path d="M23.1479 21.248H8.62203C8.09876 21.248 7.67578 20.824 7.67578 20.3017C7.67578 19.7794 8.09876 19.3555 8.62203 19.3555H23.1479C23.6712 19.3555 24.0942 19.7794 24.0942 20.3017C24.0942 20.824 23.6702 21.248 23.1479 21.248Z" fill="black"/>
<path d="M21.8713 26.9247H2.94625C2.42297 26.9247 2 26.5008 2 25.9785C2 25.4561 2.42297 25.0322 2.94625 25.0322H21.8713C22.3945 25.0322 22.8175 25.4561 22.8175 25.9785C22.8175 26.5008 22.3945 26.9247 21.8713 26.9247Z" fill="black"/>
<path d="M31.3319 29.6707C29.4517 29.6707 27.5469 28.4027 27.5469 25.9784C27.5469 23.5541 29.4517 22.2861 31.3319 22.2861C33.2121 22.2861 35.1169 23.5541 35.1169 25.9784C35.1169 28.4027 33.2121 29.6707 31.3319 29.6707ZM31.3319 24.1786C30.4585 24.1786 29.4394 24.6499 29.4394 25.9784C29.4394 27.3069 30.4585 27.7782 31.3319 27.7782C32.2053 27.7782 33.2244 27.3069 33.2244 25.9784C33.2244 24.6499 32.2053 24.1786 31.3319 24.1786Z" fill="black"/>
<path d="M33.341 24.9175C33.0988 24.9175 32.8565 24.8248 32.672 24.6403C32.302 24.2703 32.302 23.6723 32.672 23.3023L38.025 17.9494C38.3949 17.5794 38.993 17.5794 39.363 17.9494C39.7329 18.3193 39.7329 18.9174 39.363 19.2874L34.01 24.6403C33.8255 24.8248 33.5833 24.9175 33.341 24.9175Z" fill="black"/>
<path d="M27.9895 30.2707C27.7472 30.2707 27.505 30.178 27.3205 29.9935C26.9505 29.6245 26.9505 29.0255 27.3205 28.6555L28.6585 27.3166C29.0284 26.9466 29.6265 26.9466 29.9965 27.3166C30.3664 27.6856 30.3664 28.2846 29.9965 28.6545L28.6585 29.9935C28.4739 30.178 28.2317 30.2707 27.9895 30.2707Z" fill="black"/>
<path d="M31.333 43.9578C30.8097 43.9578 30.3867 43.5339 30.3867 43.0116V40.1728C30.3867 39.6505 30.8097 39.2266 31.333 39.2266C31.8562 39.2266 32.2792 39.6505 32.2792 40.1728V43.0116C32.2792 43.5339 31.8562 43.9578 31.333 43.9578Z" fill="black"/>
<path d="M43.3754 38.969C43.1331 38.969 42.8909 38.8763 42.7064 38.6918L40.6994 36.6838C40.3294 36.3139 40.3294 35.7149 40.6994 35.3458C41.0693 34.9759 41.6674 34.9759 42.0374 35.3458L44.0444 37.3538C44.4143 37.7238 44.4143 38.3228 44.0444 38.6918C43.8589 38.8763 43.6167 38.969 43.3754 38.969Z" fill="black"/>
<path d="M41.3684 16.889C41.1261 16.889 40.8839 16.7962 40.6994 16.6117C40.3294 16.2427 40.3294 15.6437 40.6994 15.2737L42.7064 13.2658C43.0763 12.8958 43.6744 12.8958 44.0444 13.2658C44.4143 13.6348 44.4143 14.2338 44.0444 14.6038L42.0374 16.6117C41.8528 16.7962 41.6106 16.889 41.3684 16.889Z" fill="black"/>
<path d="M31.333 12.7312C30.8097 12.7312 30.3867 12.3073 30.3867 11.785V8.94625C30.3867 8.42392 30.8097 8 31.333 8C31.8562 8 32.2792 8.42392 32.2792 8.94625V11.785C32.2792 12.3073 31.8562 12.7312 31.333 12.7312Z" fill="black"/>
<path d="M48.367 26.9247H45.5283C45.005 26.9247 44.582 26.5008 44.582 25.9785C44.582 25.4561 45.005 25.0322 45.5283 25.0322H48.367C48.8903 25.0322 49.3133 25.4561 49.3133 25.9785C49.3133 26.5008 48.8903 26.9247 48.367 26.9247Z" fill="black"/>
<path d="M24.5108 15.5702H14.3017C13.7784 15.5702 13.3555 15.1463 13.3555 14.624C13.3555 14.1017 13.7784 13.6777 14.3017 13.6777H24.5108C25.0341 13.6777 25.4571 14.1017 25.4571 14.624C25.4571 15.1463 25.0341 15.5702 24.5108 15.5702Z" fill="black"/>
<path d="M24.5108 38.2802H14.3017C13.7784 38.2802 13.3555 37.8563 13.3555 37.3339C13.3555 36.8116 13.7784 36.3877 14.3017 36.3877H24.5108C25.0341 36.3877 25.4571 36.8116 25.4571 37.3339C25.4571 37.8563 25.0341 38.2802 24.5108 38.2802Z" fill="black"/>
<path d="M31.2728 43.9395C28.4994 43.9395 25.6975 43.3008 23.0953 41.96C22.6307 41.7206 22.4481 41.15 22.6875 40.6854C22.9269 40.2207 23.4984 40.0381 23.9621 40.2775C31.3845 44.1023 40.6303 41.5398 45.0114 34.4439C49.4049 27.3271 47.5663 17.9034 40.8262 12.9896C35.9445 9.43167 29.3245 8.91691 23.9621 11.679C23.4984 11.9184 22.9269 11.7367 22.6875 11.2712C22.4481 10.8066 22.6298 10.236 23.0953 9.99658C29.0879 6.90802 36.4838 7.48239 41.9409 11.4595C49.4749 16.9515 51.5311 27.4842 46.621 35.4375C43.2609 40.8822 37.3383 43.9395 31.2728 43.9395Z" fill="black"/>
</svg>
