<svg width="32" height="32" viewBox="0 0 32 32" fill="none" xmlns="http://www.w3.org/2000/svg">
<g clip-path="url(#clip0_1036_12973)">
<path d="M23.2703 16.8052H15.8516V15.7469H23.2703C25.8497 15.7469 27.9479 13.6484 27.9479 11.069C27.9479 9.81824 27.4617 8.64311 26.579 7.76028C25.6962 6.87764 24.5211 6.39142 23.2703 6.39142H19.6879V5.33301H23.2703C24.8038 5.33301 26.2447 5.92935 27.3273 7.01192C28.4099 8.09448 29.0062 9.5355 29.0062 11.0689C29.0062 14.232 26.433 16.8052 23.2703 16.8052Z" fill="black"/>
<path d="M12.1484 26.1553H25.3984V27.2136H12.1484V26.1553Z" fill="black"/>
<path d="M8.35377 27.2138H6.82994C3.66692 27.2138 1.09375 24.6406 1.09375 21.4776C1.09375 19.9502 1.6898 18.5097 2.77187 17.4216C3.85187 16.3413 5.29279 15.7471 6.82994 15.7471H12.0579V16.8054H6.82994C5.57554 16.8054 4.4004 17.2895 3.52122 18.1688C2.63858 19.0564 2.15206 20.2317 2.15206 21.4775C2.15206 24.0569 4.25055 26.1554 6.82994 26.1554H8.35387L8.35377 27.2138Z" fill="black"/>
<path d="M4.34375 5.33301H15.8952V6.39132H4.34375V5.33301Z" fill="black"/>
<path d="M2.44728 8.03519C1.09785 8.03519 0 6.93734 0 5.58791C0 4.23847 1.09785 3.14062 2.44728 3.14062C3.79672 3.14062 4.89456 4.23847 4.89456 5.58791C4.89456 6.93734 3.79682 8.03519 2.44728 8.03519ZM2.44728 4.19884C1.68147 4.19884 1.05821 4.822 1.05821 5.58791C1.05821 6.35382 1.68137 6.97697 2.44728 6.97697C3.21319 6.97697 3.83635 6.35382 3.83635 5.58791C3.83635 4.822 3.21319 4.19884 2.44728 4.19884Z" fill="black"/>
<path d="M17.7885 8.03201C16.5806 8.03201 15.5408 7.13154 15.3704 5.93737C15.3517 5.83504 15.3438 5.71487 15.3438 5.5873C15.3438 4.23934 16.4405 3.14258 17.7885 3.14258C19.1393 3.14258 20.2384 4.23934 20.2384 5.5873C20.2384 5.71496 20.2304 5.83504 20.2089 5.95522C20.0412 7.13154 18.9994 8.03201 17.7885 8.03201ZM17.7885 4.20079C17.0239 4.20079 16.4021 4.82267 16.4021 5.5872C16.4021 5.65019 16.4044 5.70994 16.415 5.76958C16.5145 6.46362 17.1038 6.9736 17.7885 6.9736C18.4763 6.9736 19.0677 6.46352 19.1643 5.78742C19.1777 5.70994 19.1801 5.65019 19.1801 5.5872C19.18 4.82277 18.5558 4.20079 17.7885 4.20079Z" fill="black"/>
<path d="M13.9525 18.4453C12.7444 18.4453 11.7049 17.5449 11.5344 16.351C11.5158 16.2482 11.5078 16.128 11.5078 16.0009C11.5078 14.6499 12.6046 13.5508 13.9525 13.5508C15.3033 13.5508 16.4025 14.6499 16.4025 16.0009C16.4025 16.128 16.3945 16.2482 16.373 16.3685C16.2053 17.5449 15.1636 18.4453 13.9525 18.4453ZM13.9525 14.609C13.188 14.609 12.5661 15.2335 12.5661 16.0008C12.5661 16.0638 12.5685 16.1236 12.579 16.1835C12.6785 16.8772 13.2679 17.387 13.9525 17.387C14.6404 17.387 15.2318 16.8772 15.3284 16.201C15.3418 16.1236 15.3442 16.0638 15.3442 16.0008C15.3442 15.2334 14.7199 14.609 13.9525 14.609Z" fill="black"/>
<path d="M10.2546 28.8597C9.03612 28.8597 7.99407 27.9554 7.83081 26.756C7.81248 26.6568 7.80469 26.5358 7.80469 26.415C7.80469 25.0642 8.90382 23.9648 10.2546 23.9648C11.6026 23.9648 12.6993 25.0643 12.6993 26.415C12.6993 26.5359 12.6916 26.6568 12.6699 26.7778C12.51 27.9554 11.47 28.8597 10.2546 28.8597ZM10.2546 25.0229C9.48724 25.0229 8.863 25.6476 8.863 26.415C8.863 26.4739 8.86556 26.5328 8.87592 26.5917C8.97154 27.2909 9.56296 27.8015 10.2546 27.8015C10.9434 27.8015 11.5326 27.2909 11.6248 26.6134C11.6385 26.5328 11.641 26.4739 11.641 26.415C11.641 25.6476 11.0192 25.0229 10.2546 25.0229Z" fill="black"/>
<path d="M26.5627 28.3309C25.63 28.3309 24.8711 27.5718 24.8711 26.6391C24.8711 25.7064 25.6299 24.9473 26.5627 24.9473C27.4957 24.9473 28.2545 25.7064 28.2545 26.6391C28.2545 27.5718 27.4957 28.3309 26.5627 28.3309ZM26.5627 26.0055C26.2136 26.0055 25.9294 26.2897 25.9294 26.639C25.9294 26.9883 26.2136 27.2725 26.5627 27.2725C26.912 27.2725 27.1962 26.9883 27.1962 26.639C27.1962 26.2897 26.912 26.0055 26.5627 26.0055Z" fill="black"/>
<path d="M26.5604 19.1585C26.2681 19.1585 26.0312 18.9216 26.0312 18.6294V17.9832C26.0312 17.691 26.2681 17.4541 26.5604 17.4541C26.8526 17.4541 27.0895 17.691 27.0895 17.9832V18.6294C27.0896 18.9215 26.8526 19.1585 26.5604 19.1585Z" fill="black"/>
<path d="M26.5604 26.0052C26.2681 26.0052 26.0312 25.7685 26.0312 25.4761V21.9881C26.0312 21.6959 26.2681 21.459 26.5604 21.459C26.8526 21.459 27.0895 21.6959 27.0895 21.9881V25.4761C27.0896 25.7685 26.8526 26.0052 26.5604 26.0052Z" fill="black"/>
<path d="M31.4695 22.5174H26.5604C26.2681 22.5174 26.0312 22.2805 26.0312 21.9883V18.6297C26.0312 18.3375 26.2681 18.1006 26.5604 18.1006H31.4695C31.6667 18.1006 31.8473 18.2101 31.9385 18.3848C32.0297 18.5592 32.0166 18.7701 31.9039 18.9318L30.9463 20.3086L31.9041 21.6862C32.0165 21.848 32.0297 22.0588 31.9385 22.2335C31.8472 22.4079 31.6664 22.5174 31.4695 22.5174ZM27.0896 21.4591H30.4572L29.8671 20.6106C29.741 20.429 29.741 20.1878 29.8674 20.0064L30.457 19.1587H27.0897V21.4591H27.0896Z" fill="black"/>
</g>
<defs>
<clipPath id="clip0_1036_12973">
<rect width="32" height="32" fill="white"/>
</clipPath>
</defs>
</svg>
