<svg width="200" height="200" viewBox="0 0 200 200" fill="none" xmlns="http://www.w3.org/2000/svg">
<path d="M57.3247 144.867C57.7765 144.872 58.2245 144.785 58.6416 144.612C59.0588 144.438 59.4363 144.182 59.7515 143.858C60.3858 143.221 60.7419 142.359 60.7419 141.46C60.7419 140.561 60.3858 139.699 59.7515 139.062C53.3369 132.648 48.5941 124.758 45.9388 116.084C43.2835 107.41 42.797 98.2167 44.5218 89.3108C46.2467 80.4049 50.1302 72.0581 55.8319 65.0026C61.5336 57.947 68.8792 52.398 77.2248 48.8424C77.6439 48.6737 78.0251 48.4231 78.3462 48.1053C78.6673 47.7875 78.9217 47.4088 79.0947 46.9915C79.2677 46.5741 79.3557 46.1265 79.3536 45.6747C79.3515 45.2229 79.2593 44.7761 79.0825 44.3604C78.9056 43.9447 78.6476 43.5684 78.3235 43.2536C77.9995 42.9388 77.6159 42.6918 77.1953 42.527C76.7746 42.3622 76.3253 42.283 75.8737 42.294C75.422 42.3049 74.9771 42.4058 74.5649 42.5908C65.1926 46.5757 56.9415 52.8001 50.536 60.7179C44.1305 68.6356 39.7664 78.0046 37.8266 88.0025C35.8868 98.0004 36.4307 108.322 39.4106 118.06C42.3904 127.799 47.7151 136.657 54.9173 143.858C55.2308 144.178 55.6054 144.433 56.0189 144.606C56.4323 144.78 56.8763 144.868 57.3247 144.867Z" fill="black"/>
<path d="M186.626 156.498L170.842 140.694C170.191 140.056 169.313 139.702 168.401 139.711C167.489 139.72 166.617 140.091 165.979 140.743C165.34 141.394 164.987 142.272 164.996 143.184C165.005 144.096 165.376 144.968 166.027 145.606L175.735 155.313H144.069C143.168 155.313 142.304 155.671 141.667 156.308C141.03 156.946 140.672 157.81 140.672 158.711C140.672 159.612 141.03 160.476 141.667 161.113C142.304 161.751 143.168 162.108 144.069 162.108H176.24L166.047 172.301C165.573 172.779 165.25 173.386 165.119 174.047C164.989 174.707 165.057 175.392 165.314 176.014C165.571 176.636 166.006 177.169 166.565 177.544C167.124 177.92 167.781 178.122 168.454 178.126C169.358 178.117 170.222 177.754 170.862 177.116L186.646 161.332C186.965 161.015 187.217 160.637 187.389 160.222C187.56 159.806 187.648 159.36 187.646 158.911C187.644 158.461 187.553 158.016 187.378 157.602C187.203 157.188 186.948 156.812 186.626 156.498Z" fill="black"/>
<path d="M158.77 116.677C163.059 116.221 167.101 114.45 170.344 111.607C173.587 108.764 175.871 104.988 176.884 100.796C177.088 99.924 176.94 99.0067 176.471 98.2436C176.003 97.4805 175.252 96.9332 174.382 96.7209C173.512 96.5085 172.593 96.6482 171.826 97.1095C171.058 97.5709 170.504 98.3166 170.283 99.1845C169.548 102.266 167.808 105.015 165.336 106.997C162.864 108.979 159.803 110.081 156.635 110.128C153.467 110.176 150.374 109.166 147.844 107.259C145.314 105.352 143.491 102.656 142.665 99.598C141.838 96.5396 142.054 93.2929 143.279 90.371C144.503 87.4491 146.667 85.0186 149.427 83.4636C152.187 81.9086 155.387 81.3178 158.521 81.7845C161.654 82.2512 164.543 83.7489 166.73 86.0408L159.1 93.6513L157.159 90.7974C156.608 90.1618 155.841 89.7531 155.006 89.6504C154.171 89.5477 153.328 89.7583 152.64 90.2415C151.951 90.7246 151.467 91.4459 151.279 92.2659C151.092 93.0859 151.215 93.9461 151.626 94.6803L155.916 100.951C156.203 101.354 156.573 101.689 157.002 101.934C157.432 102.179 157.909 102.327 158.401 102.369H158.77C159.665 102.364 160.523 102.008 161.158 101.378L181.524 80.9347C182.163 80.2962 182.522 79.4302 182.522 78.5273C182.522 77.6243 182.163 76.7583 181.524 76.1199C180.886 75.4814 180.02 75.1227 179.117 75.1227C178.214 75.1227 177.348 75.4814 176.71 76.1199L171.584 81.2453C169.626 79.2286 167.284 77.6231 164.697 76.523C162.11 75.4228 159.329 74.8501 156.518 74.8385H155.858C151.037 63.8169 143.115 54.4356 133.056 47.8377C122.997 41.2397 111.236 37.71 99.2061 37.6787L109.205 27.6802C109.521 27.3653 109.772 26.9912 109.943 26.5794C110.115 26.1675 110.204 25.7258 110.205 25.2796C110.206 24.8334 110.119 24.3914 109.949 23.9788C109.779 23.5663 109.529 23.1912 109.214 22.875C108.899 22.5589 108.525 22.3079 108.114 22.1363C107.702 21.9647 107.26 21.8759 106.814 21.875C106.368 21.8741 105.926 21.9611 105.513 22.131C105.1 22.3009 104.725 22.5505 104.409 22.8653L88.625 38.6689C88.3063 38.9816 88.0531 39.3547 87.8802 39.7664C87.7074 40.1781 87.6183 40.6201 87.6183 41.0666C87.6183 41.5131 87.7074 41.9552 87.8802 42.3669C88.0531 42.7785 88.3063 43.1516 88.625 43.4643L104.409 59.2485C105.046 59.8904 105.912 60.2534 106.817 60.258C107.488 60.2508 108.143 60.0458 108.699 59.6687C109.254 59.2915 109.687 58.759 109.942 58.1375C110.196 57.516 110.262 56.8333 110.131 56.1745C110 55.5158 109.678 54.9103 109.205 54.4336L99.2449 44.4545C109.707 44.4859 119.945 47.4902 128.765 53.1171C137.586 58.7441 144.625 66.762 149.063 76.2363C144.86 77.8404 141.284 80.7539 138.864 84.5463C136.443 88.3388 135.307 92.8092 135.623 97.297C135.938 101.785 137.689 106.052 140.616 109.469C143.543 112.885 147.492 115.269 151.878 116.269C148.386 127.586 141.357 137.484 131.825 144.511C122.292 151.538 110.758 155.324 98.9148 155.312H45.9321V145.372C45.9321 144.471 45.5742 143.607 44.937 142.97C44.2998 142.332 43.4356 141.975 42.5345 141.975H15.8976C14.9965 141.975 14.1323 142.332 13.4951 142.97C12.858 143.607 12.5 144.471 12.5 145.372V172.009C12.5 172.91 12.858 173.774 13.4951 174.412C14.1323 175.049 14.9965 175.407 15.8976 175.407H42.5345C43.4356 175.407 44.2998 175.049 44.937 174.412C45.5742 173.774 45.9321 172.91 45.9321 172.009V162.088H98.9148C112.482 162.092 125.677 157.656 136.485 149.456C147.293 141.256 155.12 129.744 158.77 116.677ZM39.137 168.612H19.2951V148.77H39.137V168.612Z" fill="black"/>
</svg>
