<svg width="32" height="32" viewBox="0 0 32 32" fill="none" xmlns="http://www.w3.org/2000/svg">
<path d="M31.7899 7.68191L24.5128 2.35715C24.3928 2.26884 24.2398 2.23859 24.0953 2.27463L15.3532 4.49205C15.0856 4.56025 14.924 4.83245 14.9922 5.09999C15.0208 5.21216 15.0874 5.31097 15.1807 5.37946L17.4956 7.06938L16.9956 9.60422C16.7231 11.0191 18.9955 13.2591 22.0578 13.854C22.5949 13.9577 23.1407 14.0096 23.6877 14.009C24.5263 14.0142 25.3603 13.8842 26.1576 13.624C27.3825 13.2166 28.1999 12.5366 28.3425 11.8091L28.8425 9.28173L31.6198 8.57928C31.8874 8.51109 32.049 8.23889 31.9808 7.97135C31.9523 7.85918 31.8856 7.76037 31.7923 7.69187L31.7899 7.68191ZM27.3676 11.6167C27.3101 11.9092 26.7676 12.3666 25.8452 12.6742C24.6804 13.0388 23.4427 13.1058 22.2453 12.8691C19.433 12.3216 17.8631 10.4193 17.9956 9.79432L18.3981 7.72194L22.4579 10.7018C22.5434 10.7648 22.6466 10.7989 22.7529 10.7993C22.7952 10.7996 22.8373 10.7937 22.8779 10.7818L27.7676 9.54438L27.3676 11.6167ZM22.8678 9.75679L16.6307 5.197L24.1128 3.30208L30.3424 7.85935L22.8678 9.75679Z" fill="black"/>
<path d="M12.2266 14.1045C12.0736 14.1928 11.9785 14.3553 11.9766 14.532V23.4515C11.9785 23.6282 12.0736 23.7906 12.2266 23.879C12.3017 23.9255 12.3882 23.9505 12.4766 23.9515C12.5574 23.9522 12.6371 23.9334 12.709 23.8965L21.2336 19.4342C21.478 19.3056 21.5718 19.0033 21.4433 18.759C21.3962 18.6695 21.323 18.5964 21.2336 18.5493L12.7165 14.087C12.5614 14.0069 12.3757 14.0135 12.2266 14.1045ZM12.9766 15.3544L19.9237 18.9917L12.9841 22.6265L12.9766 15.3544Z" fill="black"/>
<path d="M30.4984 26.7404H27.9311C27.9755 26.6006 27.9983 26.4547 27.9986 26.308V14.741C27.9986 14.4649 27.7747 14.241 27.4986 14.241C27.2224 14.241 26.9986 14.4649 26.9986 14.741V26.3079C26.9945 26.5509 26.7942 26.7445 26.5512 26.7404C26.5511 26.7404 26.5511 26.7404 26.5511 26.7404H4.44726C4.2043 26.7446 4.00394 26.551 3.99976 26.308C3.99976 26.308 3.99976 26.308 3.99976 26.3079V11.1737C4.00388 10.9307 4.20418 10.7371 4.44714 10.7412H4.44726H15.4992C15.7753 10.7412 15.9992 10.5174 15.9992 10.2412C15.9992 9.96509 15.7753 9.74122 15.4992 9.74122H4.44726C3.65257 9.73848 3.00531 10.379 2.99982 11.1736V26.3079C3.00012 26.4546 3.02285 26.6005 3.0673 26.7403H0.5C0.223866 26.7403 0 26.9642 0 27.2403V27.3653C0 28.4903 0.884964 29.7402 2.07237 29.7402H28.926C30.1134 29.7402 30.9984 28.4903 30.9984 27.3653V27.2403C30.9984 26.9643 30.7745 26.7404 30.4984 26.7404ZM28.926 28.7403H2.07237C1.63992 28.7403 1.19994 28.2804 1.05245 27.7404H29.9459C29.7984 28.2804 29.3585 28.7403 28.926 28.7403Z" fill="black"/>
</svg>
