<svg width="41" height="40" viewBox="0 0 41 40" fill="none" xmlns="http://www.w3.org/2000/svg">
<g clip-path="url(#clip0_1036_12882)">
<path d="M20.5001 29.8865C14.8426 29.8865 9.77662 27.3265 6.52303 25.179C3.01569 22.8643 0.858343 20.5777 0.768186 20.4816C0.646076 20.3513 0.578125 20.1794 0.578125 20.0009C0.578125 19.8223 0.646076 19.6504 0.768186 19.5201C0.858343 19.424 3.01631 17.1374 6.52303 14.8227C9.77662 12.6752 14.8426 10.1152 20.5001 10.1152C26.1576 10.1152 31.2235 12.6752 34.4771 14.8227C37.9838 17.1374 40.1418 19.4238 40.2318 19.5201C40.3539 19.6504 40.4218 19.8223 40.4218 20.0009C40.4218 20.1794 40.3539 20.3513 40.2318 20.4816C40.1418 20.5779 37.9838 22.8643 34.4771 25.179C31.2235 27.3265 26.1576 29.8865 20.5001 29.8865ZM2.27741 20.0009C4.21131 21.8618 11.7096 28.4802 20.5001 28.4802C29.3026 28.4802 36.7913 21.8627 38.7232 20.0012C36.7897 18.1415 29.2912 11.5215 20.5001 11.5215C11.709 11.5215 4.21147 18.1398 2.27741 20.0009Z" fill="black"/>
<path d="M20.4988 29.8865C18.5436 29.8865 16.6323 29.3067 15.0066 28.2204C13.381 27.1341 12.1139 25.5902 11.3657 23.7838C10.6175 21.9775 10.4218 19.9898 10.8033 18.0722C11.1847 16.1546 12.1262 14.3931 13.5088 13.0106C14.8913 11.6281 16.6528 10.6866 18.5704 10.3052C20.488 9.92375 22.4757 10.1195 24.282 10.8678C26.0884 11.616 27.6323 12.883 28.7185 14.5087C29.8048 16.1344 30.3845 18.0457 30.3845 20.0009C30.3816 22.6218 29.3391 25.1345 27.4858 26.9878C25.6325 28.8411 23.1197 29.8836 20.4988 29.8865ZM20.4988 11.5215C18.8217 11.5215 17.1823 12.0189 15.7879 12.9506C14.3935 13.8823 13.3067 15.2067 12.6649 16.7561C12.0232 18.3055 11.8553 20.0104 12.1825 21.6552C12.5097 23.3 13.3173 24.8109 14.5031 25.9967C15.689 27.1826 17.1999 27.9902 18.8447 28.3173C20.4896 28.6445 22.1945 28.4766 23.7439 27.8348C25.2933 27.193 26.6175 26.1062 27.5493 24.7117C28.481 23.3173 28.9783 21.6779 28.9783 20.0009C28.9757 17.7528 28.0815 15.5975 26.4918 14.0078C24.9022 12.4182 22.7469 11.524 20.4988 11.5215Z" fill="black"/>
<path d="M20.5 8.81961C20.3135 8.81961 20.1347 8.74553 20.0028 8.61367C19.871 8.48181 19.7969 8.30296 19.7969 8.11648V5.45898C19.7969 5.2725 19.871 5.09366 20.0028 4.9618C20.1347 4.82994 20.3135 4.75586 20.5 4.75586C20.6865 4.75586 20.8653 4.82994 20.9972 4.9618C21.129 5.09366 21.2031 5.2725 21.2031 5.45898V8.11648C21.2031 8.30296 21.129 8.48181 20.9972 8.61367C20.8653 8.74553 20.6865 8.81961 20.5 8.81961Z" fill="black"/>
<path d="M14.5567 10.411C14.4332 10.411 14.3119 10.3786 14.2049 10.3168C14.0979 10.2551 14.0091 10.1662 13.9474 10.0592L12.6192 7.75768C12.5275 7.59627 12.5033 7.40512 12.5519 7.22593C12.6006 7.04675 12.7181 6.89408 12.8789 6.80124C13.0397 6.7084 13.2307 6.68293 13.4102 6.73039C13.5897 6.77785 13.7431 6.89438 13.837 7.05456L15.1652 9.35612C15.2269 9.46296 15.2594 9.58417 15.2595 9.70756C15.2595 9.83096 15.2271 9.95219 15.1654 10.0591C15.1038 10.166 15.0151 10.2548 14.9083 10.3165C14.8015 10.3783 14.6801 10.4109 14.5567 10.411Z" fill="black"/>
<path d="M13.2299 33.2978C13.1065 33.2977 12.9853 33.2651 12.8785 33.2034C12.7717 33.1416 12.683 33.0528 12.6214 32.9459C12.5597 32.839 12.5273 32.7178 12.5273 32.5944C12.5274 32.471 12.5599 32.3498 12.6216 32.2429L13.9498 29.9415C13.9956 29.8609 14.0569 29.7902 14.1302 29.7334C14.2035 29.6766 14.2873 29.6348 14.3768 29.6105C14.4663 29.5862 14.5597 29.5799 14.6516 29.5918C14.7436 29.6038 14.8323 29.6338 14.9126 29.6801C14.9929 29.7265 15.0632 29.7883 15.1195 29.862C15.1759 29.9356 15.2171 30.0197 15.2408 30.1093C15.2645 30.199 15.2702 30.2924 15.2576 30.3843C15.2451 30.4762 15.2145 30.5647 15.1676 30.6447L13.8394 32.9461C13.7777 33.0531 13.6889 33.1419 13.5819 33.2037C13.4748 33.2654 13.3535 33.2979 13.2299 33.2978Z" fill="black"/>
<path d="M20.5 35.2452C20.3135 35.2452 20.1347 35.1712 20.0028 35.0393C19.871 34.9074 19.7969 34.7286 19.7969 34.5421V31.8848C19.7969 31.6983 19.871 31.5194 20.0028 31.3876C20.1347 31.2557 20.3135 31.1816 20.5 31.1816C20.6865 31.1816 20.8653 31.2557 20.9972 31.3876C21.129 31.5194 21.2031 31.6983 21.2031 31.8848V34.5421C21.2031 34.7286 21.129 34.9074 20.9972 35.0393C20.8653 35.1712 20.6865 35.2452 20.5 35.2452Z" fill="black"/>
<path d="M27.77 33.2977C27.6465 33.2978 27.5251 33.2653 27.4181 33.2036C27.3112 33.1418 27.2223 33.053 27.1606 32.946L25.8325 30.6446C25.7392 30.4831 25.714 30.2911 25.7623 30.111C25.8105 29.9309 25.9284 29.7773 26.0899 29.684C26.2514 29.5908 26.4433 29.5655 26.6235 29.6138C26.8036 29.6621 26.9572 29.7799 27.0504 29.9415L28.3786 32.2429C28.4403 32.3497 28.4728 32.4709 28.4729 32.5944C28.4729 32.7178 28.4405 32.839 28.3788 32.9459C28.3171 33.0528 28.2284 33.1416 28.1216 33.2033C28.0148 33.2651 27.8934 33.2976 27.77 33.2977Z" fill="black"/>
<path d="M26.4409 10.4115C26.3175 10.4114 26.1963 10.3788 26.0894 10.3171C25.9826 10.2553 25.8939 10.1665 25.8323 10.0596C25.7707 9.95271 25.7382 9.83148 25.7383 9.70809C25.7383 9.58469 25.7708 9.46349 25.8326 9.35664L27.1607 7.05508C27.2539 6.89346 27.4076 6.77551 27.5878 6.72716C27.768 6.67881 27.96 6.70403 28.1216 6.79727C28.2833 6.89051 28.4012 7.04413 28.4496 7.22434C28.4979 7.40455 28.4727 7.59659 28.3794 7.7582L27.0513 10.0598C26.9895 10.1669 26.9005 10.2559 26.7933 10.3176C26.6861 10.3794 26.5646 10.4117 26.4409 10.4115Z" fill="black"/>
<path d="M25.8269 19.7127C25.6404 19.7127 25.4616 19.6386 25.3297 19.5067C25.1978 19.3749 25.1238 19.196 25.1238 19.0095V17.418H23.5312C23.3448 17.418 23.1659 17.3439 23.0341 17.212C22.9022 17.0802 22.8281 16.9013 22.8281 16.7148C22.8281 16.5284 22.9022 16.3495 23.0341 16.2177C23.1659 16.0858 23.3448 16.0117 23.5312 16.0117H25.8263C26.0127 16.0117 26.1916 16.0858 26.3234 16.2177C26.4553 16.3495 26.5294 16.5284 26.5294 16.7148V19.0095C26.5294 19.1959 26.4554 19.3747 26.3237 19.5065C26.1919 19.6383 26.0132 19.7125 25.8269 19.7127Z" fill="black"/>
<path d="M15.1719 23.9885C15.0328 23.9885 14.8969 23.9473 14.7812 23.87C14.6656 23.7928 14.5755 23.683 14.5223 23.5545C14.4691 23.426 14.4551 23.2846 14.4823 23.1482C14.5094 23.0118 14.5764 22.8865 14.6747 22.7882L18.8925 18.5704C18.9578 18.5051 19.0353 18.4533 19.1206 18.418C19.2059 18.3826 19.2974 18.3645 19.3897 18.3645C19.482 18.3645 19.5735 18.3826 19.6588 18.418C19.7441 18.4533 19.8216 18.5051 19.8869 18.5704L21.4311 20.1148L25.3283 16.2176C25.4602 16.0857 25.639 16.0117 25.8255 16.0117C26.012 16.0117 26.1908 16.0859 26.3227 16.2177C26.4545 16.3496 26.5286 16.5285 26.5285 16.715C26.5285 16.9014 26.4544 17.0803 26.3225 17.2121L21.9281 21.6063C21.7963 21.7382 21.6175 21.8122 21.4311 21.8123C21.3388 21.8123 21.2473 21.7941 21.162 21.7587C21.0767 21.7234 20.9992 21.6716 20.9339 21.6063L19.3892 20.0624L15.6691 23.7826C15.6039 23.848 15.5264 23.8998 15.441 23.9352C15.3557 23.9705 15.2642 23.9886 15.1719 23.9885Z" fill="black"/>
</g>
<defs>
<clipPath id="clip0_1036_12882">
<rect width="40" height="40" fill="white" transform="translate(0.5)"/>
</clipPath>
</defs>
</svg>
