<svg width="52" height="52" viewBox="0 0 52 52" fill="none" xmlns="http://www.w3.org/2000/svg">
<path d="M42.602 11.2667L43.7677 11.323C43.9401 11.331 44.1086 11.2703 44.2362 11.1541C44.3638 11.0378 44.44 10.8757 44.448 10.7033C44.456 10.5309 44.3953 10.3624 44.2791 10.2348C44.1629 10.1072 44.0007 10.031 43.8283 10.023L41.081 9.89299C40.9094 9.88694 40.7422 9.9477 40.6145 10.0625C40.4868 10.1772 40.4086 10.3371 40.3963 10.5083L40.2663 13.2643C40.2583 13.4367 40.3191 13.6052 40.4353 13.7328C40.5515 13.8604 40.7136 13.9366 40.886 13.9447C41.0584 13.9527 41.2269 13.8919 41.3545 13.7757C41.4821 13.6595 41.5583 13.4974 41.5663 13.325L41.6227 12.1333C45.125 16.1886 46.9647 21.4182 46.7726 26.7731C46.5805 32.1281 44.3709 37.2124 40.587 41.0063C40.4983 41.098 40.4383 41.2136 40.4144 41.3389C40.3905 41.4643 40.4038 41.5939 40.4526 41.7117C40.5014 41.8296 40.5836 41.9307 40.6891 42.0024C40.7946 42.0742 40.9188 42.1135 41.0463 42.1157C50.0683 34.346 50.2677 20.007 42.602 11.2667Z" fill="black"/>
<path d="M11.1151 38.0554C10.9429 38.0483 10.7749 38.1094 10.6476 38.2254C10.5202 38.3414 10.4437 38.503 10.4347 38.6751L10.4001 39.8667C6.89644 35.8111 5.05605 30.5807 5.24814 25.2247C5.44022 19.8688 7.65058 14.7836 11.4357 10.9894C12.0381 10.4087 11.1021 9.46406 10.5171 10.0707C6.49258 14.0956 4.14034 19.4944 3.93295 25.1824C3.72555 30.8704 5.67838 36.4261 9.39907 40.7334L8.2334 40.6771C8.06101 40.669 7.89248 40.7298 7.7649 40.846C7.63731 40.9622 7.56111 41.1243 7.55307 41.2967C7.54502 41.4691 7.60579 41.6376 7.722 41.7652C7.83821 41.8928 8.00034 41.969 8.17274 41.9771L10.9244 42.1071C11.0161 42.1101 11.1074 42.0939 11.1925 42.0596C11.2775 42.0252 11.3545 41.9735 11.4184 41.9077C11.5302 41.7901 11.5963 41.6364 11.6047 41.4744L11.7304 38.7227C11.7352 38.5532 11.6735 38.3885 11.5585 38.2639C11.4436 38.1392 11.2844 38.0644 11.1151 38.0554Z" fill="black"/>
<path d="M39.2677 30.4457C39.4324 29.8434 40.299 29.956 40.7627 29.8997C41.2608 29.8562 41.7243 29.6272 42.0614 29.258C42.3985 28.8887 42.5846 28.4063 42.5827 27.9064V24.2664C42.522 22.6934 41.2827 22.2124 39.9134 22.1864C39.7778 22.1723 39.6494 22.1188 39.5439 22.0326C39.4384 21.9463 39.3604 21.8311 39.3197 21.701C39.1057 21.0339 38.8391 20.3847 38.5224 19.7597C38.4599 19.637 38.4344 19.4987 38.449 19.3618C38.4636 19.2249 38.5177 19.0951 38.6047 18.9884C39.584 18.0047 40.1604 16.7697 39.064 15.5997L36.5074 13.043C35.3417 11.951 34.1154 12.523 33.1144 13.4764C33.0073 13.5613 32.8782 13.6138 32.7423 13.6276C32.6063 13.6414 32.4693 13.616 32.3474 13.5544C31.7373 13.2433 31.1042 12.9796 30.4537 12.7657C30.3233 12.7229 30.208 12.6432 30.1219 12.5363C30.0358 12.4295 29.9824 12.2999 29.9684 12.1634L29.899 11.236C29.8556 10.738 29.6265 10.2744 29.2573 9.9373C28.8881 9.60019 28.4057 9.41414 27.9057 9.41603H24.2657C22.593 9.49836 22.2204 10.7724 22.1727 12.211C22.1584 12.3459 22.1054 12.4737 22.02 12.579C21.9347 12.6844 21.8206 12.7628 21.6917 12.8047C21.065 13.0141 20.4539 13.2675 19.863 13.563C19.2954 13.901 18.693 13.095 18.2944 12.8134C17.9121 12.4911 17.4225 12.3247 16.923 12.3472C16.4235 12.3696 15.9508 12.5794 15.599 12.9347L13.0424 15.4914C11.894 16.7394 12.609 17.944 13.5797 18.9927C13.6646 19.0997 13.7171 19.2289 13.7309 19.3648C13.7448 19.5007 13.7193 19.6378 13.6577 19.7597C13.3666 20.3331 13.1175 20.9269 12.9124 21.5364C12.7434 22.182 11.7077 22.026 11.2224 22.1127C10.7243 22.1562 10.2607 22.3852 9.92364 22.7544C9.58653 23.1237 9.40047 23.6061 9.40236 24.106V27.733C9.40008 28.2291 9.58326 28.7081 9.91597 29.0761C10.2487 29.4441 10.7069 29.6745 11.2007 29.722C11.699 29.8217 12.6914 29.67 12.856 30.32C13.0559 30.9317 13.2992 31.5283 13.584 32.1054C13.6446 32.2273 13.6687 32.3642 13.6533 32.4995C13.638 32.6348 13.5838 32.7628 13.4974 32.868C12.4964 33.921 11.764 35.1127 12.921 36.3997L15.4777 38.9564C16.704 40.0874 17.9044 39.433 18.9444 38.4494C19.0515 38.3627 19.1818 38.3096 19.3189 38.2965C19.4561 38.2834 19.5941 38.3109 19.7157 38.3757C20.302 38.6766 20.9087 38.9358 21.5314 39.1514C21.6598 39.1948 21.7731 39.2742 21.8576 39.3803C21.9422 39.4863 21.9944 39.6145 22.008 39.7494L22.099 40.7634C22.1425 41.2614 22.3716 41.725 22.7408 42.0621C23.11 42.3992 23.5924 42.5853 24.0924 42.5834H27.7324C29.3574 42.514 29.782 41.2834 29.8167 39.849C29.8317 39.712 29.8865 39.5824 29.9743 39.4762C30.062 39.3699 30.179 39.2916 30.3107 39.251C30.9623 39.0469 31.597 38.7918 32.2087 38.4884C32.3309 38.4288 32.4676 38.4053 32.6026 38.4207C32.7377 38.436 32.8656 38.4896 32.9714 38.575C33.9724 39.5587 35.203 40.1827 36.399 39.0647L38.9557 36.508C40.026 35.364 39.4974 34.1377 38.5224 33.1497C38.4357 33.0425 38.3826 32.9123 38.3695 32.7751C38.3564 32.638 38.3839 32.5 38.4487 32.3784C38.7713 31.7563 39.0451 31.1102 39.2677 30.4457ZM37.5127 33.973C37.8334 34.3804 38.6004 35.0434 38.024 35.5894L35.4674 38.133C35.3441 38.2576 35.1785 38.3311 35.0035 38.3392C34.8285 38.3472 34.6568 38.2891 34.5227 38.1764C33.7167 37.4094 32.7547 36.7377 31.6237 37.3097C30.4927 37.8817 28.625 38.0594 28.5124 39.706C28.4344 40.2304 28.5427 41.2834 27.7194 41.2704H24.1054C23.2387 41.2704 23.399 40.1697 23.3167 39.6107C23.2257 38.003 21.4534 37.8167 20.3224 37.1927C18.1557 36.1267 17.5057 38.9694 16.4224 38.0117L13.8657 35.468C13.246 34.857 14.182 34.168 14.52 33.6914C15.586 32.504 14.4897 31.1304 14.1214 29.904C13.753 28.6777 12.505 28.4784 11.3567 28.4177C11.1835 28.4047 11.0214 28.3271 10.9027 28.2003C10.7839 28.0735 10.717 27.9068 10.7154 27.733V24.106C10.802 22.637 13.3587 24.2144 14.156 21.9394C14.5417 20.7174 15.6467 19.3394 14.5894 18.1564C14.2817 17.723 13.3457 16.9864 13.9654 16.397L16.522 13.8404C17.1114 13.2294 17.822 14.1307 18.2554 14.4644C19.4644 15.5477 20.8554 14.4037 22.099 14.031C22.4657 13.909 22.7895 13.6839 23.0316 13.3827C23.2737 13.0814 23.4238 12.7167 23.464 12.3324C23.5507 11.8037 23.4164 10.6944 24.2614 10.7074H27.8754C28.0562 10.7001 28.2327 10.7634 28.3677 10.8839C28.5028 11.0044 28.5857 11.1726 28.599 11.353C28.6337 12.4884 28.8244 13.6324 30.055 14.031C32.1004 14.7287 32.7634 15.7644 34.6614 13.927C34.7955 13.8174 34.9656 13.7615 35.1386 13.7703C35.3116 13.7791 35.4751 13.852 35.5974 13.9747L38.154 16.5314C38.2786 16.6546 38.3521 16.8202 38.3602 16.9952C38.3682 17.1703 38.3101 17.3419 38.1974 17.476C37.4304 18.2777 36.7934 19.244 37.3697 20.3534C38.3187 22.2557 38.05 23.534 40.663 23.5817C40.8324 23.5998 40.9891 23.6796 41.1034 23.8059C41.2177 23.9321 41.2815 24.0961 41.2827 24.2664V27.8804C41.2827 28.695 40.3077 28.591 39.753 28.656C39.3629 28.6889 38.9908 28.8353 38.6828 29.0771C38.3748 29.3189 38.1443 29.6455 38.0197 30.0167C37.66 31.3124 36.4207 32.712 37.5127 33.973Z" fill="black"/>
<path d="M24.4211 22.1942H26.5838C26.7765 22.1942 26.9613 22.2682 27.0976 22.3998C27.2338 22.5314 27.3104 22.7099 27.3104 22.896C27.3104 23.1124 27.3994 23.32 27.5578 23.473C27.7162 23.626 27.9311 23.712 28.1552 23.712C28.3792 23.712 28.5941 23.626 28.7526 23.473C28.911 23.32 29 23.1124 29 22.896C28.9973 22.5706 28.9251 22.2492 28.7877 21.952C28.6503 21.6548 28.4508 21.3883 28.2017 21.1691C27.9526 20.95 27.6593 20.7829 27.3401 20.6785C27.021 20.5741 26.683 20.5345 26.3473 20.5622V18.816C26.3473 18.5996 26.2583 18.392 26.0998 18.239C25.9414 18.086 25.7265 18 25.5024 18C25.2784 18 25.0635 18.086 24.9051 18.239C24.7466 18.392 24.6576 18.5996 24.6576 18.816V20.5622C24.3219 20.5345 23.9839 20.5741 23.6647 20.6785C23.3456 20.7829 23.0523 20.95 22.8032 21.1691C22.5541 21.3883 22.3546 21.6548 22.2172 21.952C22.0798 22.2492 22.0075 22.5706 22.0049 22.896V24.9795C22.0064 25.598 22.2614 26.1908 22.7142 26.6281C23.167 27.0655 23.7807 27.3118 24.4211 27.3133H26.5838C26.7765 27.3133 26.9613 27.3872 27.0976 27.5188C27.2338 27.6504 27.3104 27.8289 27.3104 28.015V30.104C27.3104 30.2901 27.2338 30.4686 27.0976 30.6002C26.9613 30.7318 26.7765 30.8058 26.5838 30.8058H24.4211C24.2284 30.8058 24.0436 30.7318 23.9073 30.6002C23.7711 30.4686 23.6945 30.2901 23.6945 30.104C23.711 29.9948 23.7046 29.8836 23.6756 29.7768C23.6467 29.6701 23.5957 29.5701 23.5259 29.4829C23.456 29.3956 23.3686 29.3228 23.269 29.2688C23.1694 29.2148 23.0595 29.1808 22.946 29.1687C22.8325 29.1567 22.7176 29.1668 22.6082 29.1986C22.4988 29.2303 22.3971 29.2831 22.3093 29.3536C22.2215 29.4241 22.1492 29.511 22.0969 29.6091C22.0446 29.7072 22.0133 29.8145 22.0049 29.9245C21.9827 30.2643 22.0365 30.6048 22.1626 30.9228C22.2888 31.2407 22.4844 31.5288 22.7361 31.7672C22.9877 32.0057 23.2896 32.189 23.6212 32.3047C23.9528 32.4204 24.3063 32.4658 24.6576 32.4378V34.184C24.6576 34.4004 24.7466 34.608 24.9051 34.761C25.0635 34.914 25.2784 35 25.5024 35C25.7265 35 25.9414 34.914 26.0998 34.761C26.2583 34.608 26.3473 34.4004 26.3473 34.184V32.4378C26.683 32.4655 27.021 32.4259 27.3401 32.3215C27.6593 32.2171 27.9526 32.05 28.2017 31.8309C28.4508 31.6117 28.6503 31.3452 28.7877 31.048C28.9251 30.7508 28.9973 30.4294 29 30.104V28.015C28.9985 27.3965 28.7435 26.8038 28.2907 26.3664C27.8379 25.9291 27.2242 25.6827 26.5838 25.6813H24.4211C24.2284 25.6813 24.0436 25.6073 23.9073 25.4757C23.7711 25.3441 23.6945 25.1656 23.6945 24.9795V22.896C23.6945 22.7099 23.7711 22.5314 23.9073 22.3998C24.0436 22.2682 24.2284 22.1942 24.4211 22.1942Z" fill="black"/>
</svg>
