<svg width="156" height="156" viewBox="0 0 156 156" fill="none" xmlns="http://www.w3.org/2000/svg">
<g clip-path="url(#clip0_1455_13543)">
<path d="M109.647 0.226562H46.3253C39.6972 0.226562 34.3047 5.61905 34.3047 12.2469V143.762C34.3047 150.39 39.6972 155.782 46.3253 155.782H109.647C116.275 155.782 121.668 150.389 121.668 143.762V12.2469C121.667 5.61905 116.275 0.226562 109.647 0.226562ZM63.2164 4.78385H92.7556V7.37604C92.7556 8.80551 91.5926 9.96823 90.1634 9.96823H65.8089C64.3795 9.96823 63.2168 8.80521 63.2168 7.37604V4.78385H63.2164ZM117.11 143.762C117.11 147.877 113.762 151.225 109.647 151.225H46.3253C42.2101 151.225 38.862 147.877 38.862 143.762V12.2469C38.862 8.13164 42.2101 4.78385 46.3253 4.78385H58.6595V7.37604C58.6595 11.3184 61.8669 14.5255 65.8089 14.5255H90.1634C94.1058 14.5255 97.3129 11.3181 97.3129 7.37604V4.78385H109.647C113.762 4.78385 117.11 8.13194 117.11 12.2469V143.762H117.11Z" fill="black"/>
<path d="M90.1566 141.48H65.8021C64.5437 141.48 63.5234 142.501 63.5234 143.759C63.5234 145.018 64.5437 146.038 65.8021 146.038H90.1566C91.415 146.038 92.4352 145.018 92.4352 143.759C92.4352 142.501 91.415 141.48 90.1566 141.48Z" fill="black"/>
<path d="M53.626 55.9274H68.2388C72.1812 55.9274 75.3883 52.72 75.3883 48.778V29.294C75.3883 25.3517 72.1809 22.1445 68.2388 22.1445H53.626C49.6837 22.1445 46.4766 25.352 46.4766 29.294V48.7776C46.4766 52.72 49.6837 55.9274 53.626 55.9274ZM51.0339 29.294C51.0339 27.8645 52.1969 26.7018 53.626 26.7018H68.2388C69.6683 26.7018 70.831 27.8648 70.831 29.294V48.7776C70.831 50.2071 69.668 51.3698 68.2388 51.3698H53.626C52.1966 51.3698 51.0339 50.2068 51.0339 48.7776V29.294Z" fill="black"/>
<path d="M87.7354 26.7018H102.348C103.778 26.7018 104.94 27.8648 104.94 29.294C104.94 30.5524 105.961 31.5727 107.219 31.5727C108.477 31.5727 109.498 30.5524 109.498 29.294C109.498 25.3517 106.29 22.1445 102.348 22.1445H87.7354C83.7931 22.1445 80.5859 25.352 80.5859 29.294V48.7776C80.5859 52.72 83.7934 55.9271 87.7354 55.9271H102.348C106.291 55.9271 109.498 52.7197 109.498 48.7776V39.0357C109.498 37.7773 108.477 36.757 107.219 36.757C105.961 36.757 104.94 37.7773 104.94 39.0357V48.7776C104.94 50.2071 103.777 51.3698 102.348 51.3698H87.7354C86.3059 51.3698 85.1432 50.2068 85.1432 48.7776V29.294C85.1432 27.8648 86.3062 26.7018 87.7354 26.7018Z" fill="black"/>
<path d="M53.626 94.9017H68.2388C72.1812 94.9017 75.3883 91.6943 75.3883 87.7523V68.2686C75.3883 64.3263 72.1809 61.1191 68.2388 61.1191H53.626C49.6837 61.1191 46.4766 64.3266 46.4766 68.2686V87.7523C46.4766 91.6943 49.6837 94.9017 53.626 94.9017ZM51.0339 68.2686C51.0339 66.8391 52.1969 65.6764 53.626 65.6764H68.2388C69.6683 65.6764 70.831 66.8395 70.831 68.2686V87.7523C70.831 89.1817 69.668 90.3444 68.2388 90.3444H53.626C52.1966 90.3444 51.0339 89.1814 51.0339 87.7523V68.2686Z" fill="black"/>
<path d="M102.348 61.1191H87.7354C83.7931 61.1191 80.5859 64.3266 80.5859 68.2686V87.7523C80.5859 91.6946 83.7934 94.9017 87.7354 94.9017H102.348C106.291 94.9017 109.498 91.6943 109.498 87.7523V68.2686C109.498 64.3266 106.291 61.1191 102.348 61.1191ZM104.94 87.7523C104.94 89.1817 103.777 90.3444 102.348 90.3444H87.7354C86.3059 90.3444 85.1432 89.1814 85.1432 87.7523V68.2686C85.1432 66.8391 86.3062 65.6764 87.7354 65.6764H102.348C103.778 65.6764 104.94 66.8395 104.94 68.2686V87.7523Z" fill="black"/>
<path d="M75.3883 126.707V116.966C75.3883 115.707 74.3681 114.687 73.1097 114.687C71.8513 114.687 70.831 115.707 70.831 116.966V126.707C70.831 128.137 69.668 129.3 68.2388 129.3H53.626C52.1966 129.3 51.0339 128.137 51.0339 126.707V107.224C51.0339 105.794 52.1969 104.632 53.626 104.632H68.2388C69.6683 104.632 70.831 105.795 70.831 107.224C70.831 108.482 71.8513 109.502 73.1097 109.502C74.3681 109.502 75.3883 108.482 75.3883 107.224C75.3883 103.281 72.1809 100.074 68.2388 100.074H53.626C49.6837 100.074 46.4766 103.282 46.4766 107.224V126.707C46.4766 130.65 49.684 133.857 53.626 133.857H68.2388C72.1809 133.857 75.3883 130.649 75.3883 126.707Z" fill="black"/>
<path d="M102.348 100.074H87.7354C83.7931 100.074 80.5859 103.282 80.5859 107.224V126.707C80.5859 130.65 83.7934 133.857 87.7354 133.857H102.348C106.291 133.857 109.498 130.649 109.498 126.707V107.224C109.498 103.282 106.291 100.074 102.348 100.074ZM104.94 126.708C104.94 128.137 103.777 129.3 102.348 129.3H87.7354C86.3059 129.3 85.1432 128.137 85.1432 126.708V107.224C85.1432 105.795 86.3062 104.632 87.7354 104.632H102.348C103.778 104.632 104.94 105.795 104.94 107.224V126.708Z" fill="black"/>
<path d="M58.5052 41.3073H63.376C64.6345 41.3073 65.6547 40.2871 65.6547 39.0286C65.6547 37.7702 64.6345 36.75 63.376 36.75H58.5052C57.2468 36.75 56.2266 37.7702 56.2266 39.0286C56.2266 40.2871 57.2468 41.3073 58.5052 41.3073Z" fill="black"/>
<path d="M97.4698 70.8633H92.599C91.3405 70.8633 90.3203 71.8835 90.3203 73.1419C90.3203 74.4003 91.3405 75.4206 92.599 75.4206H97.4698C98.7282 75.4206 99.7484 74.4003 99.7484 73.1419C99.7484 71.8835 98.7282 70.8633 97.4698 70.8633Z" fill="black"/>
<path d="M58.5052 114.701C57.2468 114.701 56.2266 115.721 56.2266 116.98C56.2266 118.238 57.2468 119.258 58.5052 119.258H63.376C64.6345 119.258 65.6547 118.238 65.6547 116.98C65.6547 115.721 64.6345 114.701 63.376 114.701H58.5052Z" fill="black"/>
<path d="M97.4698 80.5859H92.599C91.3405 80.5859 90.3203 81.6062 90.3203 82.8646C90.3203 84.123 91.3405 85.1432 92.599 85.1432H97.4698C98.7282 85.1432 99.7484 84.123 99.7484 82.8646C99.7484 81.6062 98.7282 80.5859 97.4698 80.5859Z" fill="black"/>
</g>
<defs>
<clipPath id="clip0_1455_13543">
<rect width="155.556" height="155.556" fill="white" transform="translate(0.21875 0.222656)"/>
</clipPath>
</defs>
</svg>
