<svg width="52" height="52" viewBox="0 0 52 52" fill="none" xmlns="http://www.w3.org/2000/svg">
<g clip-path="url(#clip0_989_14637)">
<path d="M14.4684 43.7036C14.3492 43.7038 14.2315 43.6777 14.1235 43.6273C14.0156 43.5769 13.92 43.5033 13.8437 43.4119C13.7673 43.3204 13.712 43.2132 13.6816 43.098C13.6513 42.9828 13.6467 42.8623 13.6681 42.7451C15.259 34.0337 11.7587 28.857 11.7224 28.8058C11.6301 28.6727 11.5795 28.5151 11.5771 28.3532C11.5747 28.1912 11.6206 28.0322 11.709 27.8964C12.2292 27.1006 12.606 24.7935 12.6252 22.2857C12.6488 19.184 12.1428 17.6896 11.9082 17.484C11.616 17.2844 11.2789 17.1601 10.9271 17.122C10.5752 17.084 10.2194 17.1334 9.89119 17.2659C9.64113 17.3641 9.42218 17.5279 9.25739 17.74C9.0926 17.9522 8.98806 18.2049 8.95478 18.4714C8.79675 19.4997 8.30722 20.9565 7.7405 22.6436C7.11528 24.5049 6.40637 26.6143 6.07264 28.4095C5.69223 30.5708 5.5094 32.7622 5.52644 34.9567C5.53144 35.163 5.45773 35.3635 5.32026 35.5175L2.13729 39.0815C2.06622 39.1611 1.98017 39.2259 1.88405 39.2722C1.78793 39.3186 1.68362 39.3455 1.57709 39.3515C1.47056 39.3575 1.36388 39.3425 1.26316 39.3073C1.16243 39.2721 1.06963 39.2174 0.990045 39.1463C0.91046 39.0752 0.845655 38.9892 0.799328 38.8931C0.753001 38.7969 0.72606 38.6926 0.720043 38.5861C0.714026 38.4796 0.729051 38.3729 0.76426 38.2722C0.799469 38.1714 0.854173 38.0786 0.925248 37.9991L3.89819 34.6707C3.89743 32.4721 4.09047 30.2777 4.47506 28.113C4.82992 26.2056 5.55792 24.0387 6.2002 22.1267C6.7204 20.5778 7.21176 19.1151 7.34887 18.2248C7.42497 17.6834 7.64188 17.1714 7.97791 16.7401C8.31395 16.3088 8.75734 15.9732 9.26373 15.767C9.84964 15.5272 10.4864 15.4384 11.1156 15.5088C11.7448 15.5793 12.3462 15.8067 12.8645 16.1702C14.7869 17.5586 14.5279 25.526 13.3232 28.3017C14.1917 29.781 16.7381 34.9798 15.2667 43.0368C15.2326 43.2237 15.1341 43.3928 14.9882 43.5147C14.8424 43.6365 14.6584 43.7034 14.4684 43.7036Z" fill="black"/>
<path d="M13.0782 51.0043C12.9187 51.0043 12.7629 50.9575 12.6299 50.8695C12.497 50.7816 12.3928 50.6565 12.3304 50.5098C12.268 50.3631 12.2502 50.2013 12.2791 50.0445C12.308 49.8878 12.3824 49.743 12.4929 49.6282L15.2644 46.7503C15.3578 46.6532 15.4739 46.581 15.6023 46.5399C15.7306 46.4989 15.8671 46.4904 15.9995 46.5153C16.0294 46.521 19.1886 47.081 21.8818 45.7345C21.9224 45.7142 24.6366 44.3922 25.5844 42.0894C25.6664 41.8901 25.8242 41.7315 26.0232 41.6485C26.2221 41.5656 26.4459 41.5651 26.6452 41.6471C26.8445 41.7291 27.0031 41.8869 27.086 42.0859C27.169 42.2848 27.1695 42.5086 27.0875 42.7079C25.8978 45.5988 22.7286 47.1314 22.5942 47.1951C20.0336 48.4748 17.2205 48.3064 16.1462 48.1779L13.6638 50.7555C13.588 50.8343 13.497 50.897 13.3964 50.9398C13.2958 50.9826 13.1875 51.0045 13.0782 51.0043Z" fill="black"/>
<path d="M35.68 24.0764C35.4645 24.0764 35.2579 23.9908 35.1055 23.8385C34.9531 23.6861 34.8675 23.4794 34.8675 23.2639V3.60145C34.8675 2.52488 33.8294 1.65002 32.5531 1.65002H15.5109C14.2345 1.65002 13.1953 2.52549 13.1953 3.60145V16.8285C13.1953 17.044 13.1097 17.2507 12.9573 17.4031C12.805 17.5554 12.5983 17.641 12.3828 17.641C12.1673 17.641 11.9607 17.5554 11.8083 17.4031C11.6559 17.2507 11.5703 17.044 11.5703 16.8285V3.60084C11.5703 1.6289 13.3375 0.0244141 15.5109 0.0244141H32.5531C34.7253 0.0244141 36.4925 1.6291 36.4925 3.60084V23.2633C36.4926 23.3701 36.4717 23.4758 36.4309 23.5745C36.3901 23.6731 36.3302 23.7627 36.2548 23.8383C36.1793 23.9138 36.0897 23.9737 35.9911 24.0145C35.8925 24.0554 35.7868 24.0764 35.68 24.0764Z" fill="black"/>
<path d="M21.5456 42.1455H14.9922C14.7767 42.1455 14.57 42.0599 14.4177 41.9075C14.2653 41.7552 14.1797 41.5485 14.1797 41.333C14.1797 41.1175 14.2653 40.9109 14.4177 40.7585C14.57 40.6061 14.7767 40.5205 14.9922 40.5205H21.5466C21.7621 40.5205 21.9688 40.6061 22.1211 40.7585C22.2735 40.9109 22.3591 41.1175 22.3591 41.333C22.3591 41.5485 22.2735 41.7552 22.1211 41.9075C21.9688 42.0599 21.7621 42.1455 21.5466 42.1455H21.5456Z" fill="black"/>
<path d="M35.5548 6.02734H12.4453C12.2298 6.02734 12.0232 5.94174 11.8708 5.78937C11.7184 5.63699 11.6328 5.43033 11.6328 5.21484C11.6328 4.99936 11.7184 4.79269 11.8708 4.64032C12.0232 4.48795 12.2298 4.40234 12.4453 4.40234H35.5548C35.7703 4.40234 35.977 4.48795 36.1294 4.64032C36.2817 4.79269 36.3673 4.99936 36.3673 5.21484C36.3673 5.43033 36.2817 5.63699 36.1294 5.78937C35.977 5.94174 35.7703 6.02734 35.5548 6.02734Z" fill="black"/>
<path d="M19.0048 37.5264H15.1719C14.9564 37.5264 14.7497 37.4408 14.5974 37.2884C14.445 37.136 14.3594 36.9294 14.3594 36.7139C14.3594 36.4984 14.445 36.2917 14.5974 36.1393C14.7497 35.987 14.9564 35.9014 15.1719 35.9014H19.0048C19.2203 35.9014 19.427 35.987 19.5794 36.1393C19.7317 36.2917 19.8173 36.4984 19.8173 36.7139C19.8173 36.9294 19.7317 37.136 19.5794 37.2884C19.427 37.4408 19.2203 37.5264 19.0048 37.5264Z" fill="black"/>
<path d="M36.3147 51.975C36.1568 51.9751 36.0024 51.9292 35.8702 51.8429C35.7379 51.7566 35.6337 51.6337 35.5703 51.4891L34.8508 49.8511L30.5592 47.8926C30.4657 47.8498 30.3812 47.7898 30.3099 47.7157L22.1143 39.1657C22.1056 39.1565 22.0971 39.1472 22.0887 39.1377C21.978 39.011 21.0194 37.8649 21.4023 36.6673C21.6479 35.8983 22.3397 35.3728 23.4579 35.1055C25.4372 34.6324 27.8607 36.0139 29.4584 37.1706L22.8772 22.19C22.5569 21.4697 22.5307 20.6528 22.8043 19.9136C22.9372 19.5479 23.143 19.213 23.4092 18.9292C23.6753 18.6453 23.9963 18.4185 24.3527 18.2624C25.077 17.9558 25.8932 17.9489 26.6226 18.2433C27.3519 18.5377 27.9347 19.1093 28.2431 19.8327C28.328 20.0297 28.3315 20.2522 28.2529 20.4517C28.1743 20.6513 28.0201 20.8116 27.8237 20.8979C27.6274 20.9842 27.4049 20.9893 27.2048 20.9122C27.0047 20.8351 26.8432 20.6821 26.7555 20.4864C26.6205 20.1573 26.3607 19.8951 26.0328 19.7571C25.705 19.6191 25.3358 19.6165 25.0061 19.75C24.8498 19.8193 24.7091 19.9195 24.5926 20.0446C24.476 20.1697 24.3861 20.3172 24.3281 20.478C24.2018 20.8221 24.215 21.2019 24.3649 21.5363L31.5216 37.8284C31.589 37.9815 31.6074 38.1518 31.5744 38.3159L31.379 39.2888C31.3506 39.4304 31.285 39.5618 31.1889 39.6696C31.0929 39.7774 30.9698 39.8577 30.8324 39.9021C30.6951 39.9466 30.5483 39.9536 30.4073 39.9225C30.2663 39.8914 30.1362 39.8233 30.0302 39.7251C28.9496 38.7266 25.7283 36.2314 23.8349 36.6868C23.2509 36.8263 22.9948 37.0236 22.9499 37.1615C22.8778 37.3823 23.1106 37.8265 23.3046 38.0605L31.3747 46.4797L35.8067 48.5022C35.9882 48.5851 36.1328 48.732 36.213 48.9147L37.0574 50.8363C37.1117 50.9599 37.1344 51.0952 37.1233 51.2298C37.1123 51.3644 37.0679 51.4941 36.9941 51.6073C36.9203 51.7204 36.8194 51.8133 36.7007 51.8777C36.5819 51.942 36.449 51.9758 36.3139 51.9758L36.3147 51.975Z" fill="black"/>
<path d="M33.5538 34.7577C33.3959 34.7578 33.2414 34.7119 33.1092 34.6256C32.977 34.5393 32.8728 34.4164 32.8093 34.2719L26.7537 20.4864C26.6689 20.2894 26.6654 20.0669 26.744 19.8674C26.8226 19.6678 26.9768 19.5074 27.1732 19.4212C27.3695 19.3349 27.592 19.3298 27.7921 19.4069C27.9922 19.4839 28.1537 19.637 28.2414 19.8327L34.2972 33.6182C34.3516 33.7418 34.3742 33.8771 34.3632 34.0117C34.3521 34.1463 34.3077 34.2761 34.2339 34.3892C34.1601 34.5023 34.0593 34.5952 33.9405 34.6596C33.8217 34.7239 33.6888 34.7577 33.5538 34.7577Z" fill="black"/>
<path d="M31.5831 30.271C31.4252 30.2711 31.2708 30.2252 31.1386 30.139C31.0065 30.0527 30.9023 29.9298 30.8388 29.7854C30.5185 29.0651 30.4924 28.2482 30.7659 27.5089C30.8991 27.1434 31.105 26.8087 31.3711 26.5249C31.6372 26.2411 31.958 26.0141 32.3142 25.8576C32.6704 25.7011 33.0546 25.6184 33.4436 25.6144C33.8326 25.6104 34.2184 25.6852 34.5777 25.8344C35.3071 26.1332 35.8908 26.705 36.2046 27.4281C36.249 27.526 36.2736 27.6318 36.2769 27.7393C36.2802 27.8468 36.2621 27.9539 36.2237 28.0543C36.1853 28.1548 36.1273 28.2466 36.0531 28.3245C35.9789 28.4024 35.89 28.4647 35.7915 28.508C35.6931 28.5512 35.587 28.5745 35.4795 28.5764C35.3719 28.5784 35.2651 28.559 35.1651 28.5193C35.0651 28.4796 34.974 28.4205 34.8971 28.3454C34.8202 28.2702 34.7589 28.1805 34.7169 28.0815C34.572 27.7449 34.3013 27.4783 33.9625 27.3385C33.8049 27.2719 33.6354 27.2382 33.4644 27.2394C33.2933 27.2406 33.1243 27.2767 32.9677 27.3455C32.8111 27.4143 32.6702 27.5144 32.5537 27.6395C32.4371 27.7647 32.3473 27.9123 32.2897 28.0734C32.1634 28.4174 32.1767 28.7972 32.3267 29.1315C32.3811 29.2552 32.4038 29.3904 32.3927 29.5251C32.3816 29.6597 32.3372 29.7894 32.2634 29.9026C32.1895 30.0157 32.0887 30.1086 31.9699 30.173C31.8511 30.2373 31.7181 30.271 31.5831 30.271Z" fill="black"/>
<path d="M37.5806 33.3974C37.4227 33.3975 37.2682 33.3516 37.136 33.2653C37.0037 33.1789 36.8995 33.056 36.8361 32.9114L34.7147 28.0821C34.6299 27.8851 34.6264 27.6626 34.7049 27.4631C34.7835 27.2635 34.9378 27.1031 35.1341 27.0169C35.3304 26.9306 35.5529 26.9255 35.753 27.0026C35.9531 27.0796 36.1147 27.2327 36.2024 27.4284L38.324 32.2579C38.3784 32.3816 38.4011 32.5168 38.39 32.6514C38.379 32.786 38.3345 32.9158 38.2607 33.0289C38.1869 33.142 38.0861 33.235 37.9673 33.2993C37.8486 33.3637 37.7156 33.3974 37.5806 33.3974Z" fill="black"/>
<path d="M36.2317 30.3131C36.0738 30.3133 35.9194 30.2674 35.7872 30.1811C35.655 30.0949 35.5507 29.972 35.4872 29.8275C35.167 29.1072 35.1408 28.2903 35.4143 27.5511C35.5475 27.1855 35.7534 26.8507 36.0195 26.5669C36.2855 26.283 36.6064 26.056 36.9626 25.8996C37.3188 25.7431 37.703 25.6604 38.092 25.6564C38.481 25.6524 38.8669 25.7273 39.2262 25.8765C39.9555 26.1752 40.5393 26.7471 40.853 27.4702C40.8975 27.5681 40.9221 27.6739 40.9253 27.7814C40.9286 27.8889 40.9105 27.996 40.8721 28.0965C40.8337 28.1969 40.7757 28.2887 40.7015 28.3666C40.6274 28.4445 40.5384 28.5069 40.44 28.5501C40.3415 28.5934 40.2354 28.6166 40.1279 28.6186C40.0204 28.6205 39.9135 28.6011 39.8135 28.5614C39.7136 28.5218 39.6225 28.4626 39.5455 28.3875C39.4686 28.3123 39.4073 28.2227 39.3653 28.1237C39.2204 27.787 38.9497 27.5204 38.6109 27.3806C38.4534 27.314 38.2839 27.2802 38.1128 27.2814C37.9417 27.2826 37.7727 27.3187 37.6161 27.3875C37.4595 27.4563 37.3186 27.5564 37.202 27.6815C37.0854 27.8067 36.9957 27.9544 36.9382 28.1155C36.8119 28.4595 36.8251 28.8393 36.9751 29.1736C37.0295 29.2973 37.0522 29.4325 37.0411 29.5671C37.0301 29.7017 36.9856 29.8315 36.9118 29.9446C36.838 30.0577 36.7372 30.1507 36.6184 30.215C36.4997 30.2794 36.3668 30.3131 36.2317 30.3131Z" fill="black"/>
<path d="M41.8437 32.5621C41.6858 32.5622 41.5314 32.5163 41.3992 32.43C41.2671 32.3437 41.1629 32.2208 41.0994 32.0763L39.3631 28.1241C39.2783 27.9271 39.2748 27.7046 39.3534 27.5051C39.4319 27.3055 39.5862 27.1451 39.7825 27.0589C39.9789 26.9726 40.2013 26.9675 40.4015 27.0446C40.6016 27.1216 40.7631 27.2747 40.8508 27.4704L42.5871 31.4226C42.6415 31.5463 42.6642 31.6815 42.6531 31.8161C42.6421 31.9507 42.5976 32.0805 42.5238 32.1936C42.45 32.3067 42.3492 32.3997 42.2304 32.464C42.1117 32.5284 41.9787 32.5621 41.8437 32.5621Z" fill="black"/>
<path d="M40.8366 30.2814C40.6788 30.2815 40.5243 30.2356 40.3922 30.1493C40.26 30.063 40.1558 29.9401 40.0924 29.7955C39.9254 29.4414 39.8311 29.0574 39.815 28.6661C39.7989 28.2749 39.8613 27.8844 39.9986 27.5177C40.1359 27.1511 40.3453 26.8156 40.6143 26.5311C40.8834 26.2467 41.2067 26.019 41.5652 25.8616C41.9238 25.7042 42.3102 25.6202 42.7017 25.6146C43.0932 25.6089 43.4819 25.6818 43.8447 25.8289C44.2076 25.9759 44.5374 26.1942 44.8145 26.4708C45.0916 26.7474 45.3106 27.0767 45.4583 27.4393C45.545 27.6366 45.5498 27.8603 45.4716 28.0611C45.3934 28.2619 45.2386 28.4235 45.0413 28.5102C44.844 28.5969 44.6203 28.6016 44.4195 28.5234C44.2187 28.4452 44.0571 28.2905 43.9704 28.0931C43.9079 27.9269 43.8121 27.7751 43.689 27.6471C43.5658 27.5191 43.4179 27.4175 43.2542 27.3486C43.0905 27.2797 42.9145 27.2448 42.7368 27.2462C42.5592 27.2475 42.3837 27.2851 42.2211 27.3565C42.0585 27.4279 41.9121 27.5318 41.7909 27.6616C41.6697 27.7915 41.5763 27.9447 41.5163 28.1119C41.4563 28.2791 41.4311 28.4568 41.442 28.6341C41.453 28.8114 41.4999 28.9846 41.5801 29.1431C41.6344 29.2667 41.657 29.402 41.646 29.5366C41.6349 29.6711 41.5904 29.8008 41.5166 29.9139C41.4428 30.027 41.342 30.12 41.2233 30.1843C41.1046 30.2486 40.9717 30.2824 40.8366 30.2824V30.2814Z" fill="black"/>
<path d="M50.473 46.0645C50.3151 46.0646 50.1606 46.0187 50.0284 45.9324C49.8962 45.8461 49.792 45.7232 49.7286 45.5786L48.9457 43.7962C48.8934 43.6771 48.8704 43.5472 48.8787 43.4174L49.1117 39.7861L43.9748 28.0924C43.8882 27.8951 43.8835 27.6714 43.9617 27.4706C44.0399 27.2698 44.1947 27.1084 44.3921 27.0217C44.5894 26.9351 44.813 26.9303 45.0138 27.0086C45.2146 27.0868 45.3761 27.2416 45.4627 27.4389L50.6792 39.3142C50.7316 39.4334 50.7545 39.5634 50.7462 39.6933L50.5132 43.3245L51.2164 44.9256C51.2708 45.0492 51.2935 45.1844 51.2824 45.3191C51.2714 45.4537 51.227 45.5834 51.1532 45.6965C51.0793 45.8097 50.9785 45.9026 50.8598 45.967C50.741 46.0313 50.6081 46.065 50.473 46.0651V46.0645Z" fill="black"/>
</g>
<defs>
<clipPath id="clip0_989_14637">
<rect width="52" height="52" fill="white"/>
</clipPath>
</defs>
</svg>
