<svg width="52" height="52" viewBox="0 0 52 52" fill="none" xmlns="http://www.w3.org/2000/svg">
<path d="M23.575 26.9403L26.9395 23.5754C27.0056 23.5094 27.058 23.4311 27.0938 23.3449C27.1295 23.2586 27.1479 23.1662 27.1479 23.0728C27.1479 22.9795 27.1295 22.8871 27.0938 22.8008C27.058 22.7146 27.0056 22.6363 26.9395 22.5703L25.1472 20.7779C25.5156 20.1028 25.811 19.3902 26.0283 18.6524H28.5617C28.7502 18.6524 28.9311 18.5775 29.0644 18.4442C29.1977 18.3109 29.2726 18.1301 29.2726 17.9415V13.1835C29.2726 12.9949 29.1977 12.8141 29.0644 12.6808C28.9311 12.5475 28.7502 12.4726 28.5617 12.4726H26.034C25.8165 11.7337 25.5201 11.0205 25.15 10.345L26.9395 8.55509C27.0056 8.4891 27.058 8.41074 27.0938 8.32447C27.1295 8.23821 27.148 8.14574 27.148 8.05236C27.148 7.95898 27.1295 7.86651 27.0938 7.78025C27.058 7.69398 27.0056 7.61562 26.9395 7.54962L23.575 4.18466C23.509 4.1186 23.4307 4.06619 23.3444 4.03043C23.2582 3.99467 23.1658 3.97627 23.0724 3.97627C22.9791 3.97627 22.8867 3.99467 22.8004 4.03043C22.7142 4.06619 22.6359 4.1186 22.5699 4.18466L20.78 5.975C20.1045 5.60488 19.3913 5.30851 18.6524 5.091V2.5625C18.6525 2.46912 18.6341 2.37665 18.5984 2.29037C18.5627 2.20409 18.5104 2.1257 18.4443 2.05967C18.3783 1.99365 18.2999 1.94128 18.2136 1.90557C18.1273 1.86986 18.0349 1.85151 17.9415 1.85156H13.1831C13.0897 1.85151 12.9972 1.86986 12.911 1.90557C12.8247 1.94128 12.7463 1.99365 12.6803 2.05967C12.6142 2.1257 12.5619 2.20409 12.5262 2.29037C12.4905 2.37665 12.4721 2.46912 12.4722 2.5625V5.09547C11.7345 5.31307 11.0221 5.60859 10.3471 5.97703L8.55509 4.18466C8.4891 4.11858 8.41074 4.06617 8.32447 4.0304C8.23821 3.99464 8.14574 3.97623 8.05236 3.97623C7.95898 3.97623 7.86651 3.99464 7.78025 4.0304C7.69398 4.06617 7.61562 4.11858 7.54962 4.18466L4.18466 7.54962C4.11858 7.61562 4.06617 7.69398 4.0304 7.78025C3.99464 7.86651 3.97623 7.95898 3.97623 8.05236C3.97623 8.14574 3.99464 8.23821 4.0304 8.32447C4.06617 8.41074 4.11858 8.4891 4.18466 8.55509L5.97622 10.3471C5.6078 11.0223 5.31228 11.7348 5.09466 12.4726H2.5625C2.46912 12.4725 2.37665 12.4909 2.29037 12.5266C2.20409 12.5623 2.1257 12.6146 2.05967 12.6807C1.99365 12.7467 1.94128 12.8251 1.90557 12.9114C1.86986 12.9977 1.85151 13.0901 1.85156 13.1835V17.9415C1.85151 18.0349 1.86986 18.1273 1.90557 18.2136C1.94128 18.2999 1.99365 18.3783 2.05967 18.4443C2.1257 18.5104 2.20409 18.5627 2.29037 18.5984C2.37665 18.6341 2.46912 18.6525 2.5625 18.6524H5.09059C5.30822 19.3913 5.60472 20.1046 5.975 20.78L4.18466 22.5703C4.1186 22.6363 4.06619 22.7146 4.03043 22.8008C3.99467 22.8871 3.97627 22.9795 3.97627 23.0728C3.97627 23.1662 3.99467 23.2586 4.03043 23.3449C4.06619 23.4311 4.1186 23.5094 4.18466 23.5754L7.54881 26.9403C7.68225 27.0735 7.86305 27.1483 8.05155 27.1483C8.24005 27.1483 8.42085 27.0735 8.55428 26.9403L10.3442 25.15C11.0198 25.5201 11.7332 25.8166 12.4722 26.0344V28.5629C12.4722 28.7515 12.5471 28.9323 12.6804 29.0656C12.8137 29.1989 12.9945 29.2738 13.1831 29.2738H17.9415C18.1301 29.2738 18.3109 29.1989 18.4442 29.0656C18.5775 28.9323 18.6524 28.7515 18.6524 28.5629V26.0295C19.3901 25.8119 20.1025 25.5164 20.7775 25.148L22.5699 26.9403C22.7032 27.0736 22.884 27.1484 23.0724 27.1484C23.2609 27.1484 23.4417 27.0736 23.575 26.9403ZM21.3971 23.7566C21.2842 23.6434 21.1364 23.5717 20.9777 23.553C20.8189 23.5343 20.6585 23.5696 20.5224 23.6534C19.673 24.1756 18.746 24.5596 17.7762 24.7909C17.6209 24.8281 17.4828 24.9165 17.3838 25.0417C17.2849 25.167 17.2309 25.3219 17.2306 25.4815V27.8499H13.894V25.488C13.8938 25.3282 13.8398 25.1732 13.7406 25.0479C13.6415 24.9226 13.5031 24.8344 13.3476 24.7974C12.3779 24.5655 11.4514 24.1799 10.6034 23.6554C10.4671 23.5714 10.3065 23.5358 10.1475 23.5543C9.98846 23.5729 9.84036 23.6446 9.72713 23.7578L8.05216 25.4315L5.69347 23.072L7.36722 21.3979C7.48031 21.2847 7.55193 21.1366 7.5705 20.9777C7.58908 20.8188 7.55353 20.6582 7.46959 20.522C6.94512 19.6735 6.55986 18.7465 6.32844 17.7762C6.29146 17.6207 6.20321 17.4823 6.07791 17.3831C5.95262 17.284 5.79758 17.23 5.63781 17.2297H3.27344V13.894H5.64147C5.80111 13.8938 5.95602 13.8398 6.08129 13.7409C6.20656 13.6419 6.2949 13.5037 6.33209 13.3484C6.56315 12.3787 6.94712 11.452 7.46959 10.603C7.55318 10.4667 7.58846 10.3062 7.56974 10.1474C7.55102 9.98857 7.4794 9.84068 7.36641 9.72753L5.69347 8.05216L8.05216 5.69347L9.72753 7.36884C9.84058 7.48187 9.98841 7.55352 10.1472 7.57224C10.3059 7.59096 10.4664 7.55566 10.6026 7.47203C11.4518 6.94981 12.3787 6.56585 13.3484 6.33453C13.5036 6.29727 13.6418 6.20891 13.7408 6.08366C13.8397 5.95841 13.8937 5.80353 13.894 5.64391V3.27344H17.2306V5.63741C17.2308 5.79718 17.2848 5.95221 17.384 6.07751C17.4831 6.2028 17.6215 6.29106 17.777 6.32803C18.7472 6.55937 19.6742 6.94449 20.5228 7.46878C20.6589 7.55307 20.8196 7.58883 20.9786 7.57025C21.1376 7.55166 21.2857 7.47982 21.3987 7.36641L23.0724 5.69266L25.4315 8.05216L23.7578 9.72631C23.6447 9.83962 23.5731 9.98771 23.5546 10.1467C23.536 10.3057 23.5715 10.4663 23.6554 10.6026C24.1799 11.4509 24.565 12.3778 24.7962 13.348C24.8331 13.5035 24.9214 13.6419 25.0467 13.741C25.172 13.8402 25.327 13.8942 25.4868 13.8944H27.8507V17.2306H25.4823C25.3226 17.2309 25.1677 17.2849 25.0425 17.384C24.9172 17.483 24.8289 17.6213 24.7917 17.7766C24.5604 18.7463 24.1765 19.6732 23.6542 20.5224C23.5704 20.6585 23.5351 20.8189 23.5538 20.9777C23.5725 21.1364 23.6443 21.2842 23.7574 21.3971L25.4315 23.0728L23.0724 25.4315L21.3971 23.7566Z" fill="black"/>
<path d="M15.5644 9.4082C14.3472 9.4082 13.1574 9.76915 12.1453 10.4454C11.1332 11.1216 10.3444 12.0828 9.87863 13.2073C9.41282 14.3319 9.29095 15.5693 9.52841 16.7631C9.76588 17.9569 10.352 19.0535 11.2127 19.9142C12.0734 20.7749 13.17 21.361 14.3638 21.5985C15.5576 21.836 16.795 21.7141 17.9196 21.2483C19.0441 20.7825 20.0053 19.9937 20.6815 18.9816C21.3578 17.9696 21.7187 16.7797 21.7187 15.5625C21.7169 13.9308 21.0679 12.3665 19.9142 11.2128C18.7604 10.059 17.1961 9.41003 15.5644 9.4082ZM15.5644 20.2957C14.6285 20.2957 13.7136 20.0182 12.9353 19.4982C12.1571 18.9782 11.5506 18.2392 11.1923 17.3745C10.8341 16.5098 10.7404 15.5583 10.9229 14.6403C11.1054 13.7224 11.5561 12.8791 12.2178 12.2173C12.8796 11.5554 13.7228 11.1046 14.6407 10.9219C15.5586 10.7392 16.5101 10.8328 17.3749 11.1909C18.2396 11.549 18.9788 12.1554 19.4989 12.9335C20.019 13.7117 20.2967 14.6265 20.2968 15.5625C20.2953 16.8171 19.7963 18.02 18.9091 18.9071C18.0219 19.7943 16.8191 20.2934 15.5644 20.2949V20.2957Z" fill="black"/>
<path d="M49.4375 33.348H46.909C46.6915 32.6091 46.3951 31.8958 46.025 31.2204L47.8149 29.4301C47.881 29.3641 47.9334 29.2858 47.9692 29.1996C48.0049 29.1133 48.0233 29.0209 48.0233 28.9276C48.0233 28.8342 48.0049 28.7418 47.9692 28.6555C47.9334 28.5693 47.881 28.491 47.8149 28.425L44.4504 25.0609C44.3844 24.9948 44.306 24.9424 44.2198 24.9066C44.1335 24.8709 44.041 24.8525 43.9476 24.8525C43.8543 24.8525 43.7618 24.8709 43.6755 24.9066C43.5893 24.9424 43.5109 24.9948 43.4449 25.0609L41.655 26.8504C40.9796 26.4804 40.2665 26.1839 39.5278 25.966V23.4375C39.5278 23.2489 39.4529 23.0681 39.3196 22.9348C39.1863 22.8015 39.0055 22.7266 38.8169 22.7266H34.0585C33.8699 22.7266 33.6891 22.8015 33.5558 22.9348C33.4225 23.0681 33.3476 23.2489 33.3476 23.4375V25.9709C32.6098 26.1884 31.8972 26.4839 31.2221 26.8524L29.4301 25.0609C29.3641 24.9948 29.2858 24.9424 29.1996 24.9066C29.1133 24.8709 29.0209 24.8525 28.9276 24.8525C28.8342 24.8525 28.7418 24.8709 28.6555 24.9066C28.5693 24.9424 28.491 24.9948 28.425 25.0609L25.0601 28.425C24.9268 28.5583 24.852 28.7391 24.852 28.9276C24.852 29.116 24.9268 29.2968 25.0601 29.4301L26.8528 31.2225C26.4843 31.8976 26.1889 32.6101 25.9717 33.348H23.4375C23.2489 33.348 23.0681 33.4229 22.9348 33.5562C22.8015 33.6895 22.7266 33.8704 22.7266 34.0589V38.8169C22.7266 39.0055 22.8015 39.1863 22.9348 39.3196C23.0681 39.4529 23.2489 39.5278 23.4375 39.5278H25.966C26.1835 40.2667 26.4799 40.98 26.85 41.6554L25.0601 43.4453C24.9268 43.5787 24.852 43.7595 24.852 43.948C24.852 44.1366 24.9268 44.3174 25.0601 44.4508L28.425 47.8157C28.491 47.8818 28.5693 47.9342 28.6555 47.97C28.7418 48.0057 28.8342 48.0241 28.9276 48.0241C29.0209 48.0241 29.1133 48.0057 29.1996 47.97C29.2858 47.9342 29.3641 47.8818 29.4301 47.8157L31.22 46.0283C31.8954 46.3984 32.6087 46.6948 33.3476 46.9122V49.4407C33.3475 49.5341 33.3659 49.6266 33.4016 49.7129C33.4373 49.7992 33.4896 49.8776 33.5557 49.9436C33.6217 50.0096 33.7001 50.062 33.7864 50.0977C33.8727 50.1334 33.9651 50.1517 34.0585 50.1517H38.8165C38.9099 50.1517 39.0023 50.1334 39.0886 50.0977C39.1749 50.062 39.2533 50.0096 39.3193 49.9436C39.3854 49.8776 39.4377 49.7992 39.4734 49.7129C39.5091 49.6266 39.5275 49.5341 39.5274 49.4407V46.9078C40.2653 46.6901 40.9778 46.3945 41.6529 46.0258L43.4449 47.8178C43.5109 47.8839 43.5893 47.9363 43.6755 47.972C43.7618 48.0078 43.8543 48.0262 43.9476 48.0262C44.041 48.0262 44.1335 48.0078 44.2198 47.972C44.306 47.9363 44.3844 47.8839 44.4504 47.8178L47.8149 44.4536C47.881 44.3876 47.9334 44.3093 47.9692 44.223C48.005 44.1367 48.0234 44.0443 48.0234 43.9509C48.0234 43.8575 48.005 43.765 47.9692 43.6788C47.9334 43.5925 47.881 43.5141 47.8149 43.4482L46.023 41.6558C46.3914 40.9807 46.6869 40.2683 46.9045 39.5307H49.4375C49.5309 39.5307 49.6233 39.5124 49.7096 39.4767C49.7959 39.441 49.8743 39.3886 49.9403 39.3226C50.0064 39.2565 50.0587 39.1782 50.0944 39.0919C50.1301 39.0056 50.1485 38.9131 50.1484 38.8197V34.0589C50.1485 33.9655 50.1301 33.8731 50.0944 33.7868C50.0587 33.7005 50.0064 33.6221 49.9403 33.5561C49.8743 33.4901 49.7959 33.4377 49.7096 33.402C49.6233 33.3663 49.5309 33.3479 49.4375 33.348ZM48.7266 38.1064H46.3585C46.1989 38.1066 46.044 38.1606 45.9187 38.2595C45.7934 38.3585 45.7051 38.4967 45.6679 38.652C45.4366 39.6217 45.0526 40.5486 44.5304 41.3978C44.4468 41.5341 44.4116 41.6945 44.4303 41.8532C44.449 42.012 44.5206 42.1598 44.6336 42.2729L46.3094 43.9487L43.9503 46.3073L42.2749 44.632C42.1617 44.5191 42.0139 44.4476 41.8552 44.4289C41.6965 44.4102 41.5361 44.4454 41.3998 44.5288C40.5504 45.0509 39.6235 45.4349 38.6536 45.6663C38.4983 45.7035 38.3601 45.7918 38.2612 45.9171C38.1622 46.0424 38.1083 46.1973 38.108 46.3569V48.7249H34.7694V46.361C34.7692 46.2012 34.7152 46.0462 34.616 45.9209C34.5169 45.7956 34.3785 45.7073 34.223 45.6703C33.2528 45.439 32.3258 45.0539 31.4772 44.5296C31.341 44.4454 31.1804 44.4097 31.0214 44.4282C30.8624 44.4468 30.7144 44.5186 30.6013 44.632L28.9276 46.3057L26.5685 43.9482L28.2422 42.2741C28.3555 42.1609 28.4272 42.0128 28.4458 41.8538C28.4644 41.6947 28.4287 41.5341 28.3446 41.3978C27.8204 40.5494 27.4354 39.6225 27.2042 38.6524C27.1673 38.4969 27.079 38.3585 26.9537 38.2594C26.8284 38.1602 26.6734 38.1062 26.5136 38.106H24.1484V34.7698H26.5165C26.6761 34.7695 26.8311 34.7155 26.9563 34.6164C27.0816 34.5174 27.1699 34.3791 27.2071 34.2238C27.4384 33.2541 27.8223 32.3272 28.3446 31.478C28.4283 31.3419 28.4637 31.1815 28.445 31.0227C28.4262 30.864 28.3545 30.7163 28.2414 30.6033L26.5685 28.9276L28.9276 26.5689L30.6029 28.2443C30.7158 28.3575 30.8635 28.4293 31.0223 28.448C31.1811 28.4668 31.3415 28.4313 31.4776 28.3474C32.327 27.8252 33.254 27.4412 34.2238 27.2099C34.3791 27.1727 34.5172 27.0843 34.6162 26.9591C34.7151 26.8338 34.7691 26.6789 34.7694 26.5193V24.1509H38.106V26.5148C38.1062 26.6746 38.1602 26.8296 38.2594 26.9549C38.3585 27.0802 38.4969 27.1685 38.6524 27.2055C39.6225 27.4371 40.5494 27.8223 41.3978 28.3466C41.534 28.4309 41.6947 28.4666 41.8538 28.448C42.0129 28.4294 42.161 28.3576 42.2741 28.2443L43.9478 26.5689L46.3069 28.928L44.6328 30.6021C44.5196 30.7153 44.448 30.8633 44.4294 31.0223C44.4108 31.1812 44.4464 31.3418 44.5304 31.478C45.0546 32.3264 45.4396 33.2533 45.6707 34.2234C45.7076 34.3789 45.7959 34.5175 45.9212 34.6167C46.0465 34.7159 46.2016 34.77 46.3614 34.7702H48.7253L48.7266 38.1064Z" fill="black"/>
<path d="M36.4394 30.2842C35.2222 30.2842 34.0324 30.6451 33.0203 31.3214C32.0082 31.9976 31.2194 32.9588 30.7536 34.0833C30.2878 35.2079 30.1659 36.4453 30.4034 37.6391C30.6409 38.8329 31.227 39.9295 32.0877 40.7902C32.9484 41.6509 34.045 42.237 35.2388 42.4745C36.4326 42.712 37.67 42.5901 38.7946 42.1243C39.9191 41.6585 40.8803 40.8697 41.5565 39.8576C42.2328 38.8455 42.5937 37.6557 42.5937 36.4385C42.5919 34.8068 41.9429 33.2425 40.7892 32.0887C39.6354 30.935 38.0711 30.286 36.4394 30.2842ZM36.4394 41.1717C35.5035 41.1717 34.5885 40.8941 33.8103 40.3741C33.032 39.8541 32.4255 39.115 32.0673 38.2503C31.7091 37.3856 31.6154 36.434 31.798 35.516C31.9806 34.598 32.4313 33.7548 33.0931 33.093C33.755 32.4311 34.5982 31.9804 35.5162 31.7978C36.4342 31.6152 37.3857 31.7089 38.2505 32.0671C39.1152 32.4253 39.8543 33.0318 40.3743 33.8101C40.8943 34.5883 41.1718 35.5033 41.1718 36.4393C41.1702 37.6938 40.6711 38.8965 39.7839 39.7835C38.8968 40.6705 37.694 41.1695 36.4394 41.1709V41.1717Z" fill="black"/>
<path d="M31.1634 8.47378C35.294 9.6898 38.8613 12.3279 41.2339 15.9212C40.6649 16.4362 40.3051 17.1425 40.223 17.9057C40.1409 18.6688 40.3423 19.4354 40.7887 20.0598C41.2351 20.6841 41.8955 21.1225 42.6442 21.2916C43.3929 21.4606 44.1776 21.3485 44.849 20.9766C45.5204 20.6047 46.0316 19.999 46.2854 19.2746C46.5392 18.5503 46.5178 17.7579 46.2253 17.0483C45.9329 16.3387 45.3897 15.7613 44.6993 15.4262C44.0088 15.091 43.2192 15.0214 42.4807 15.2305C39.9247 11.3107 36.0543 8.43134 31.5652 7.11C31.4751 7.08161 31.3802 7.07147 31.2861 7.08017C31.192 7.08888 31.1006 7.11625 31.0172 7.1607C30.9338 7.20514 30.8601 7.26577 30.8004 7.33903C30.7407 7.41229 30.6962 7.49671 30.6695 7.58736C30.6429 7.67801 30.6345 7.77308 30.645 7.86699C30.6555 7.9609 30.6846 8.05178 30.7306 8.13431C30.7766 8.21685 30.8387 8.28938 30.913 8.34767C30.9874 8.40595 31.0723 8.44883 31.1634 8.47378ZM45.0121 18.2307C45.0121 18.5659 44.9127 18.8936 44.7264 19.1723C44.5402 19.451 44.2755 19.6683 43.9658 19.7965C43.6561 19.9248 43.3153 19.9584 42.9865 19.893C42.6578 19.8276 42.3558 19.6662 42.1187 19.4291C41.8817 19.1921 41.7203 18.8901 41.6549 18.5613C41.5895 18.2326 41.623 17.8918 41.7513 17.5821C41.8796 17.2724 42.0968 17.0077 42.3756 16.8215C42.6543 16.6352 42.982 16.5358 43.3172 16.5358C43.7666 16.5362 44.1974 16.715 44.5152 17.0327C44.8329 17.3505 45.0116 17.7813 45.0121 18.2307Z" fill="black"/>
<path d="M20.835 43.5274C16.7051 42.311 13.1386 39.6729 10.7665 36.08C11.3355 35.565 11.6953 34.8587 11.7774 34.0955C11.8595 33.3324 11.6581 32.5658 11.2117 31.9414C10.7653 31.3171 10.1049 30.8787 9.35621 30.7096C8.60754 30.5406 7.82284 30.6527 7.15144 31.0246C6.48005 31.3965 5.96881 32.0022 5.71502 32.7266C5.46123 33.4509 5.4826 34.2433 5.77507 34.9529C6.06754 35.6625 6.61068 36.2399 7.30115 36.575C7.99162 36.9102 8.78121 36.9798 9.51968 36.7707C12.0751 40.6901 15.9448 43.5695 20.4332 44.8912C20.4985 44.9105 20.5662 44.9202 20.6343 44.92C20.805 44.9197 20.9699 44.8579 21.0989 44.7459C21.2278 44.6339 21.3121 44.4793 21.3364 44.3103C21.3607 44.1413 21.3234 43.9692 21.2313 43.8254C21.1391 43.6817 20.9983 43.5759 20.8346 43.5274H20.835ZM6.98631 33.7705C6.98647 33.4353 7.08601 33.1077 7.27234 32.8291C7.45867 32.5505 7.72343 32.3334 8.03315 32.2052C8.34286 32.0771 8.68361 32.0436 9.01233 32.1091C9.34105 32.1746 9.64298 32.3361 9.87993 32.5732C10.1169 32.8102 10.2782 33.1122 10.3436 33.441C10.4089 33.7697 10.3753 34.1105 10.247 34.4201C10.1187 34.7298 9.90142 34.9944 9.62272 35.1806C9.34402 35.3668 9.01636 35.4662 8.68118 35.4662C8.23167 35.4658 7.80069 35.2869 7.48291 34.969C7.16513 34.6511 6.98652 34.22 6.98631 33.7705Z" fill="black"/>
</svg>
