<svg width="41" height="40" viewBox="0 0 41 40" fill="none" xmlns="http://www.w3.org/2000/svg">
<g clip-path="url(#clip0_1036_12894)">
<path d="M32.2346 32.245C28.9638 35.5158 24.6151 37.3171 19.9895 37.3171H1.125C0.779844 37.3171 0.5 37.0373 0.5 36.6921C0.5 36.347 0.779844 36.0671 1.125 36.0671H19.9895C28.8491 36.0671 36.0568 28.8594 36.0568 19.9998C36.0568 11.869 29.8713 5.03782 21.9616 4.05461L23.8096 5.49782C24.0816 5.71024 24.13 6.10305 23.9175 6.37508C23.7942 6.53289 23.6103 6.61547 23.4245 6.61547C23.2899 6.61547 23.1545 6.57227 23.0402 6.48305L19.6048 3.80032C19.4532 3.68188 19.3645 3.50016 19.3645 3.30774C19.3645 3.11532 19.4532 2.9336 19.6048 2.81516L23.0402 0.132425C23.3122 -0.0799966 23.7051 -0.0317154 23.9175 0.240316C24.1299 0.512347 24.0816 0.90516 23.8096 1.11758L21.698 2.76664C25.7334 3.16032 29.4734 4.94196 32.3459 7.86711C35.545 11.1247 37.3068 15.4336 37.3068 20C37.3067 24.6255 35.5055 28.9742 32.2346 32.245ZM8.95531 33.347C9.07187 33.4435 9.21305 33.4906 9.35344 33.4906C9.5332 33.4906 9.71164 33.4134 9.83523 33.2641C10.0553 32.9981 10.0181 32.6041 9.75219 32.3841C6.04719 29.3177 3.92227 24.8039 3.92227 19.9998C3.92227 12.7128 8.83617 6.32461 15.8721 4.46485C16.2058 4.37664 16.4048 4.03461 16.3166 3.70086C16.2284 3.36711 15.8862 3.16813 15.5527 3.25633C7.96891 5.26094 2.67227 12.1461 2.67227 19.9998C2.67227 25.1776 4.96234 30.0424 8.95531 33.347ZM40.2597 36.1995L36.8243 33.5167C36.5523 33.3043 36.1596 33.3526 35.947 33.6246C35.7346 33.8966 35.7829 34.2895 36.0549 34.5019L38.0592 36.067H31.1939C30.8487 36.067 30.5689 36.3469 30.5689 36.692C30.5689 37.0372 30.8487 37.317 31.1939 37.317H38.0592L36.0549 38.8822C35.7829 39.0946 35.7345 39.4874 35.947 39.7595C36.0703 39.9173 36.2542 39.9998 36.4401 39.9998C36.5746 39.9998 36.7102 39.9566 36.8243 39.8674L40.2597 37.1847C40.4113 37.0663 40.5 36.8845 40.5 36.6921C40.5 36.4997 40.4113 36.318 40.2597 36.1995ZM13.8198 20.0015C13.8198 16.5995 16.5876 13.8318 19.9895 13.8318C23.3915 13.8318 26.1592 16.5995 26.1592 20.0015C26.1592 23.4034 23.3915 26.1712 19.9895 26.1712C16.5876 26.1711 13.8198 23.4034 13.8198 20.0015ZM15.0698 20.0015C15.0698 22.7142 17.2768 24.9212 19.9895 24.9212C22.7023 24.9212 24.9092 22.7142 24.9092 20.0015C24.9092 17.2888 22.7023 15.0818 19.9895 15.0818C17.2768 15.0817 15.0698 17.2887 15.0698 20.0015ZM14.5841 11.3082C15.5388 10.7127 16.5724 10.2842 17.6652 10.0309L18.2741 8.44883C18.367 8.20758 18.5988 8.04836 18.8574 8.04836H21.1215C21.3801 8.04836 21.6119 8.20758 21.7048 8.44883L22.3138 10.0309C23.4065 10.2842 24.4401 10.7127 25.3948 11.3082L26.9455 10.6196C27.1818 10.5148 27.4582 10.566 27.6411 10.7489L29.2421 12.3498C29.4249 12.5327 29.4763 12.8091 29.3713 13.0455L28.683 14.5955C29.2784 15.5498 29.707 16.5838 29.9605 17.6774L31.5421 18.2862C31.7834 18.379 31.9426 18.6109 31.9426 18.8695V21.1336C31.9426 21.3922 31.7834 21.624 31.5421 21.7169L29.9601 22.3259C29.7066 23.4186 29.2782 24.4522 28.6827 25.407L29.3713 26.9576C29.4763 27.1938 29.4249 27.4704 29.242 27.6532L27.6411 29.2542C27.4583 29.437 27.1818 29.4884 26.9455 29.3835L25.3955 28.6951C24.441 29.2906 23.4071 29.7191 22.3136 29.9727L21.7048 31.5542C21.612 31.7955 21.3802 31.9547 21.1216 31.9547H18.8574C18.5989 31.9547 18.367 31.7955 18.2741 31.5542L17.6652 29.9722C16.5724 29.7188 15.5388 29.2903 14.5841 28.6948L13.0334 29.3835C12.7972 29.4885 12.5207 29.4372 12.3378 29.2542L10.7368 27.6533C10.554 27.4705 10.5026 27.194 10.6076 26.9577L11.296 25.4077C10.7005 24.4533 10.272 23.4194 10.0184 22.3258L8.4368 21.717C8.19547 21.6242 8.03633 21.3923 8.03633 21.1338V18.8694C8.03633 18.6108 8.19555 18.379 8.4368 18.2861L10.0187 17.6772C10.2721 16.5841 10.7006 15.5505 11.2962 14.5959L10.6076 13.0454C10.5027 12.8091 10.554 12.5326 10.7369 12.3498L12.3379 10.7488C12.5206 10.5659 12.7973 10.5147 13.0335 10.6195L14.5841 11.3082ZM14.3859 12.5879L12.9183 11.9361L11.9241 12.9302L12.5759 14.3977C12.663 14.594 12.6433 14.8214 12.5235 14.9998C11.8566 15.993 11.402 17.0897 11.1723 18.2594C11.1309 18.4702 10.9841 18.6451 10.7834 18.7222L9.28625 19.2984V20.7044L10.7831 21.2806C10.9837 21.3577 11.1305 21.5325 11.172 21.7434C11.4018 22.9138 11.8565 24.0106 12.5234 25.0035C12.6432 25.1819 12.663 25.4093 12.5757 25.6056L11.9241 27.0727L12.9183 28.0668L14.3859 27.415C14.5822 27.3278 14.8095 27.3475 14.9879 27.4673C15.9814 28.1342 17.078 28.5888 18.2473 28.8185C18.4582 28.8599 18.633 29.0067 18.7102 29.2073L19.2866 30.7046H20.6924L21.2686 29.2078C21.3458 29.0073 21.5205 28.8605 21.7314 28.819C22.9017 28.5891 23.9986 28.1345 24.9916 27.4676C25.1699 27.3477 25.3973 27.3281 25.5937 27.4152L27.0607 28.0668L28.0548 27.0727L27.403 25.6051C27.3159 25.4088 27.3356 25.1814 27.4553 25.003C28.1223 24.0095 28.5769 22.9129 28.8066 21.7436C28.848 21.5327 28.9948 21.358 29.1953 21.2808L30.6927 20.7045V19.2986L29.1959 18.7224C28.9953 18.6452 28.8485 18.4705 28.807 18.2596C28.5771 17.0893 28.1224 15.9923 27.4556 14.9994C27.3358 14.821 27.316 14.5936 27.4033 14.3973L28.0548 12.9303L27.0606 11.9362L25.593 12.588C25.3966 12.6751 25.1694 12.6554 24.991 12.5357C23.9975 11.8688 22.9009 11.4141 21.7316 11.1845C21.5207 11.1431 21.3459 10.9962 21.2687 10.7957L20.6924 9.29836H19.2866L18.7102 10.7957C18.633 10.9962 18.4583 11.1431 18.2474 11.1845C17.0782 11.4141 15.9816 11.8687 14.988 12.5357C14.8095 12.6554 14.5821 12.675 14.3859 12.5879Z" fill="black"/>
</g>
<defs>
<clipPath id="clip0_1036_12894">
<rect width="40" height="40" fill="white" transform="translate(0.5)"/>
</clipPath>
</defs>
</svg>
