<svg width="52" height="52" viewBox="0 0 52 52" fill="none" xmlns="http://www.w3.org/2000/svg">
<path d="M44.418 18.9583H32.5013V11.9167C32.4996 10.4806 31.9283 9.10385 30.9129 8.0884C29.8974 7.07296 28.5207 6.50172 27.0846 6.5H7.58464C6.14857 6.50172 4.77182 7.07296 3.75637 8.0884C2.74092 9.10385 2.16969 10.4806 2.16797 11.9167V24.9167C2.16969 26.3527 2.74092 27.7295 3.75637 28.7449C4.77182 29.7604 6.14857 30.3316 7.58464 30.3333V32.5975C7.58383 33.0249 7.7102 33.4429 7.94769 33.7982C8.18517 34.1536 8.52301 34.4303 8.91822 34.593C9.31516 34.7583 9.75231 34.8018 10.174 34.7178C10.5958 34.6339 10.983 34.4264 11.2864 34.1217C11.3259 34.0837 11.3622 34.0424 11.3947 33.9983L14.0901 30.3333H19.5013V37.375C19.503 38.8111 20.0743 40.1878 21.0897 41.2033C22.1052 42.2187 23.4819 42.7899 24.918 42.7917H36.9278L40.7195 46.5833C41.0225 46.8863 41.4085 47.0925 41.8287 47.1761C42.249 47.2597 42.6845 47.2168 43.0804 47.0528C43.4762 46.8889 43.8146 46.6112 44.0527 46.255C44.2908 45.8988 44.4179 45.48 44.418 45.0515V42.7917C45.854 42.7899 47.2308 42.2187 48.2462 41.2033C49.2617 40.1878 49.8329 38.8111 49.8346 37.375V24.375C49.8329 22.9389 49.2617 21.5622 48.2462 20.5467C47.2308 19.5313 45.854 18.9601 44.418 18.9583ZM13.543 28.1667C13.3741 28.1675 13.2079 28.2079 13.0574 28.2844C12.9069 28.361 12.7764 28.4716 12.6763 28.6076L9.7513 32.5726V29.25C9.7513 28.9627 9.63717 28.6871 9.434 28.484C9.23084 28.2808 8.95529 28.1667 8.66797 28.1667H7.58464C6.72268 28.1667 5.89603 27.8243 5.28654 27.2148C4.67705 26.6053 4.33464 25.7786 4.33464 24.9167V11.9167C4.33464 11.0547 4.67705 10.2281 5.28654 9.61857C5.89603 9.00908 6.72268 8.66667 7.58464 8.66667H27.0846C27.9466 8.66667 28.7732 9.00908 29.3827 9.61857C29.9922 10.2281 30.3346 11.0547 30.3346 11.9167V18.9583H24.918C23.7654 18.9617 22.6446 19.3359 21.7211 20.0254L18.3205 12.5504C18.2343 12.3613 18.0955 12.2009 17.9207 12.0885C17.7459 11.976 17.5425 11.9162 17.3346 11.9162C17.1268 11.9162 16.9233 11.976 16.7485 12.0885C16.5737 12.2009 16.435 12.3613 16.3488 12.5504L10.9321 24.4671C10.8734 24.5968 10.8408 24.7368 10.8363 24.8792C10.8317 25.0215 10.8553 25.1633 10.9056 25.2966C10.9559 25.4298 11.032 25.5518 11.1295 25.6556C11.227 25.7593 11.344 25.8429 11.4738 25.9014C11.613 25.9659 11.7645 25.9996 11.918 26C12.1259 25.9999 12.3294 25.9401 12.5042 25.8275C12.679 25.7149 12.8177 25.5544 12.9038 25.3652L14.5851 21.6667H20.0863L20.1632 21.8346C19.735 22.6133 19.5076 23.4864 19.5013 24.375V28.1667H13.543ZM19.1016 19.5H15.5699L17.3346 15.6173L19.1016 19.5ZM47.668 37.375C47.668 38.237 47.3256 39.0636 46.7161 39.6731C46.1066 40.2826 45.2799 40.625 44.418 40.625H43.3346C43.0473 40.625 42.7718 40.7391 42.5686 40.9423C42.3654 41.1455 42.2513 41.421 42.2513 41.7083V45.0515L38.1422 40.9424C37.9391 40.7392 37.6636 40.6251 37.3763 40.625H24.918C24.056 40.625 23.2294 40.2826 22.6199 39.6731C22.0104 39.0636 21.668 38.237 21.668 37.375V24.375C21.668 23.513 22.0104 22.6864 22.6199 22.0769C23.2294 21.4674 24.056 21.125 24.918 21.125H44.418C45.2799 21.125 46.1066 21.4674 46.7161 22.0769C47.3256 22.6864 47.668 23.513 47.668 24.375V37.375Z" fill="black"/>
<path d="M40.0846 27.083H35.7513V24.9163C35.7513 24.629 35.6372 24.3535 35.434 24.1503C35.2308 23.9471 34.9553 23.833 34.668 23.833C34.3807 23.833 34.1051 23.9471 33.9019 24.1503C33.6988 24.3535 33.5846 24.629 33.5846 24.9163V27.083H29.2513C28.964 27.083 28.6884 27.1971 28.4853 27.4003C28.2821 27.6035 28.168 27.879 28.168 28.1663C28.168 28.4537 28.2821 28.7292 28.4853 28.9324C28.6884 29.1355 28.964 29.2497 29.2513 29.2497H37.2896C37.0244 31.0901 36.0884 32.7677 34.6615 33.96C33.828 33.2639 33.1544 32.3963 32.6866 31.4163C32.6277 31.2845 32.543 31.1657 32.4376 31.0671C32.3321 30.9684 32.208 30.8918 32.0725 30.8418C31.9371 30.7918 31.793 30.7694 31.6487 30.7759C31.5045 30.7824 31.363 30.8177 31.2325 30.8796C31.1021 30.9416 30.9854 31.029 30.8892 31.1367C30.793 31.2445 30.7194 31.3703 30.6726 31.5069C30.6258 31.6435 30.6067 31.7881 30.6166 31.9322C30.6265 32.0763 30.665 32.2169 30.7301 32.3458C31.2334 33.3896 31.9216 34.3336 32.7613 35.1322C31.7985 35.5422 30.7625 35.7523 29.7161 35.7497C29.5757 35.7503 29.437 35.7791 29.3079 35.8342C29.1789 35.8894 29.0622 35.9698 28.9648 36.0708C28.8674 36.1718 28.7911 36.2912 28.7406 36.4221C28.6901 36.5531 28.6663 36.6928 28.6706 36.833C28.6794 37.1243 28.8017 37.4007 29.0114 37.6031C29.221 37.8055 29.5015 37.9179 29.793 37.9163C31.5147 37.9157 33.205 37.4557 34.6896 36.5838C36.188 37.4521 37.8881 37.9116 39.6199 37.9163C39.7602 37.9157 39.899 37.8869 40.028 37.8318C40.157 37.7766 40.2737 37.6962 40.3711 37.5952C40.4686 37.4942 40.5448 37.3748 40.5953 37.2439C40.6459 37.113 40.6696 36.9733 40.6653 36.833C40.6565 36.5417 40.5343 36.2654 40.3246 36.063C40.1149 35.8606 39.8344 35.7481 39.543 35.7497C38.5295 35.7457 37.5272 35.5372 36.5963 35.1365C38.21 33.5673 39.2289 31.4866 39.4791 29.2497H40.0846C40.372 29.2497 40.6475 29.1355 40.8507 28.9324C41.0538 28.7292 41.168 28.4537 41.168 28.1663C41.168 27.879 41.0538 27.6035 40.8507 27.4003C40.6475 27.1971 40.372 27.083 40.0846 27.083Z" fill="black"/>
</svg>
