<svg width="32" height="32" viewBox="0 0 32 32" fill="none" xmlns="http://www.w3.org/2000/svg">
<path d="M20.33 21.173C19.2177 20.8971 18.1069 20.7238 17.0017 20.6527C18.5972 20.043 19.7634 18.1562 19.7634 15.9281C19.7634 13.4551 18.2795 11.9188 15.891 11.9188C13.5024 11.9188 12.0186 13.4551 12.0186 15.9281C12.0186 18.1512 13.1795 20.0347 14.7694 20.6488C13.6519 20.7174 12.5432 20.8923 11.4479 21.174C9.15792 21.7626 7.89686 23.0121 7.89686 24.6922V31.5C7.89686 31.7761 8.12074 32 8.39686 32H23.3852C23.6613 32 23.8852 31.7761 23.8852 31.5V24.6922C23.885 23.0161 22.5892 21.7333 20.33 21.173ZM13.0185 15.9281C13.0185 14.0156 14.0654 12.9188 15.8909 12.9188C17.7163 12.9188 18.7632 14.0157 18.7632 15.9281C18.7632 18.0964 17.4747 19.8605 15.8909 19.8605C14.307 19.8605 13.0185 18.0964 13.0185 15.9281ZM22.885 31H20.4796V26.2572C20.4796 25.9811 20.2557 25.7572 19.9796 25.7572C19.7035 25.7572 19.4796 25.9811 19.4796 26.2572V31H12.3021V26.2572C12.3021 25.9811 12.0782 25.7572 11.8021 25.7572C11.526 25.7572 11.3021 25.9811 11.3021 26.2572V31H8.89674V24.6922C8.89674 23.1797 10.4194 22.4709 11.6968 22.1425C14.4297 21.4396 17.2534 21.4401 20.0892 22.1436C21.1334 22.4026 22.885 23.0781 22.885 24.6922V31ZM10.5648 4.64075L13.4559 6.73281L12.3466 10.1248C12.2792 10.3309 12.3524 10.5571 12.5279 10.6846C12.7034 10.8123 12.9411 10.8119 13.1165 10.6841L15.9996 8.58094L18.8827 10.684C18.9705 10.748 19.0739 10.7801 19.1774 10.7801C19.2805 10.7801 19.3836 10.7482 19.4712 10.6846C19.6468 10.5571 19.72 10.3309 19.6525 10.1247L18.5432 6.73275L21.4344 4.64069C21.6101 4.5135 21.6838 4.28744 21.6167 4.08112C21.5498 3.87506 21.3578 3.73563 21.1412 3.73563C21.1409 3.73563 21.1406 3.73563 21.1402 3.73563L17.5715 3.7425L16.4753 0.346375C16.4088 0.139937 16.2166 0 15.9996 0C15.7826 0 15.5904 0.139938 15.5238 0.346438L14.4275 3.74256L10.8589 3.73569C10.8585 3.73569 10.8582 3.73569 10.8579 3.73569C10.6413 3.73569 10.4493 3.87513 10.3824 4.08119C10.3154 4.2875 10.389 4.51356 10.5648 4.64075ZM14.7904 4.74325H14.7914C15.0083 4.74325 15.2005 4.60337 15.2672 4.39681L15.9996 2.12769L16.732 4.39681C16.7987 4.60337 16.9909 4.74325 17.2079 4.74325H17.2089L19.5933 4.73869L17.6615 6.1365C17.4855 6.26394 17.4119 6.49044 17.4794 6.697L18.2206 8.96338L16.2942 7.55819C16.2064 7.49419 16.103 7.46212 15.9995 7.46212C15.8961 7.46212 15.7927 7.49419 15.7049 7.55819L13.7785 8.96338L14.5197 6.697C14.5872 6.49044 14.5136 6.26394 14.3375 6.1365L12.4059 4.73863L14.7904 4.74325ZM30.8068 6.88831C30.7399 6.68231 30.5479 6.54287 30.3313 6.54287C30.331 6.54287 30.3307 6.54287 30.3303 6.54287L27.4804 6.54844L26.605 3.83625C26.5384 3.62975 26.3461 3.48981 26.1292 3.48981C25.9122 3.48981 25.72 3.62975 25.6534 3.83625L24.7779 6.54844L21.928 6.54287C21.9277 6.54287 21.9273 6.54287 21.927 6.54287C21.7104 6.54287 21.5184 6.68231 21.4515 6.88831C21.3844 7.09469 21.4581 7.32075 21.6339 7.44794L23.9427 9.11862L23.0569 11.8274C22.9894 12.0336 23.0627 12.2598 23.2382 12.3873C23.4136 12.5149 23.6514 12.5146 23.8267 12.3868L26.1292 10.7072L28.4316 12.3868C28.5194 12.4508 28.6228 12.4828 28.7262 12.4828C28.8294 12.4828 28.9325 12.4509 29.0201 12.3873C29.1957 12.2598 29.2689 12.0336 29.2014 11.8274L28.3155 9.11862L30.6244 7.44794C30.8002 7.32075 30.8739 7.09469 30.8068 6.88831ZM27.4338 8.52231C27.2577 8.64975 27.1841 8.87625 27.2517 9.08281L27.7694 10.666L26.4237 9.68437C26.2482 9.55637 26.01 9.55631 25.8344 9.68437L24.4887 10.6661L25.0064 9.08281C25.074 8.87625 25.0004 8.64975 24.8243 8.52231L23.4748 7.54581L25.1405 7.54906H25.1415C25.3584 7.54906 25.5506 7.40919 25.6173 7.20262L26.129 5.6175L26.6407 7.20262C26.7074 7.40919 26.8995 7.54906 27.1165 7.54906H27.1175L28.7832 7.54581L27.4338 8.52231ZM8.46717 12.4829C8.5703 12.4829 8.67342 12.451 8.76105 12.3874C8.93661 12.2599 9.0098 12.0337 8.94236 11.8275L8.05649 9.11869L10.3654 7.448C10.5411 7.32081 10.6148 7.09475 10.5477 6.88837C10.4808 6.68237 10.2888 6.54294 10.0722 6.54294C10.0719 6.54294 10.0716 6.54294 10.0712 6.54294L7.2213 6.5485L6.34598 3.83625C6.27936 3.62975 6.08711 3.48981 5.87017 3.48981C5.65323 3.48981 5.46098 3.62975 5.39436 3.83625L4.51892 6.54844L1.66898 6.54287C1.66867 6.54287 1.6683 6.54287 1.66798 6.54287C1.45142 6.54287 1.25942 6.68231 1.19248 6.88831C1.12542 7.09469 1.19911 7.32075 1.37486 7.44794L3.68373 9.11862L2.79786 11.8274C2.73042 12.0336 2.80367 12.2598 2.97917 12.3873C3.15461 12.5149 3.39236 12.5146 3.56773 12.3868L5.87017 10.7072L8.17255 12.3868C8.2603 12.4508 8.36374 12.4829 8.46717 12.4829ZM6.1648 9.68437C5.98923 9.55637 5.75105 9.55631 5.57542 9.68437L4.22973 10.6661L4.74748 9.08281C4.81505 8.87625 4.74142 8.64975 4.56536 8.52231L3.21586 7.54581L4.88155 7.54906H4.88255C5.09948 7.54906 5.29167 7.40919 5.35836 7.20262L5.87005 5.6175L6.38173 7.20262C6.44842 7.40919 6.64061 7.54906 6.85755 7.54906H6.85855L8.52423 7.54581L7.17474 8.52231C6.99867 8.64975 6.92505 8.87625 6.99261 9.08281L7.51036 10.666L6.1648 9.68437Z" fill="black"/>
</svg>
