<svg width="401" height="400" viewBox="0 0 401 400" fill="none" xmlns="http://www.w3.org/2000/svg">
<path d="M222.221 171.924H178.275C174.904 171.924 172.172 174.657 172.172 178.027V221.973C172.172 225.343 174.904 228.076 178.275 228.076H222.221C225.592 228.076 228.324 225.343 228.324 221.973V178.027C228.324 174.657 225.592 171.924 222.221 171.924ZM216.117 215.869H184.379V184.131H216.117V215.869Z" fill="black"/>
<path d="M335.752 76.709C324.309 76.709 315 86.0181 315 97.4609C315 108.904 324.309 118.213 335.752 118.213C347.195 118.213 356.504 108.904 356.504 97.4609C356.504 86.0181 347.195 76.709 335.752 76.709ZM335.752 106.006C331.04 106.006 327.207 102.173 327.207 97.4609C327.207 92.749 331.04 88.916 335.752 88.916C340.464 88.916 344.297 92.749 344.297 97.4609C344.297 102.173 340.464 106.006 335.752 106.006Z" fill="black"/>
<path d="M304.372 93.1282C303.237 91.9935 301.662 91.3398 300.057 91.3398C298.445 91.3398 296.871 91.9929 295.735 93.1282C294.6 94.2634 293.953 95.8381 293.953 97.4434C293.953 99.0486 294.6 100.623 295.735 101.759C296.877 102.893 298.445 103.547 300.057 103.547C301.662 103.547 303.237 102.894 304.372 101.759C305.507 100.623 306.16 99.0486 306.16 97.4434C306.16 95.8381 305.507 94.2634 304.372 93.1282Z" fill="black"/>
<path d="M297.619 206.104C300.232 214.577 308.135 220.752 317.454 220.752C328.897 220.752 338.206 211.443 338.206 200C338.206 188.557 328.896 179.248 317.454 179.248C308.134 179.248 300.232 185.423 297.619 193.896H260.062V146.289C260.062 142.919 257.329 140.186 253.958 140.186H244.193V103.546H278.386C281.757 103.546 284.489 100.813 284.489 97.4426C284.489 94.0723 281.757 91.3391 278.386 91.3391H238.089C234.718 91.3391 231.986 94.0723 231.986 97.4426V140.186H206.351V102.629C214.824 100.016 220.999 92.1136 220.999 82.7942C220.999 71.3513 211.69 62.0422 200.247 62.0422C188.805 62.0422 179.495 71.3513 179.495 82.7942C179.495 92.1136 185.671 100.016 194.144 102.629V140.186H146.537C143.166 140.186 140.433 142.919 140.433 146.289V156.055H103.793V84.342C112.276 81.7352 118.46 73.8281 118.46 64.502C118.46 53.0591 109.151 43.75 97.7084 43.75C86.2655 43.75 76.9564 53.0591 76.9564 64.502C76.9564 73.8147 83.1228 81.7126 91.5859 84.3311V162.158C91.5859 165.529 94.3185 168.262 97.6895 168.262H140.433V193.896H102.876C100.263 185.423 92.3599 179.248 83.041 179.248C71.5981 179.248 62.2891 188.557 62.2891 200C62.2891 211.443 71.5981 220.752 83.041 220.752C92.3605 220.752 100.263 214.577 102.876 206.104H140.433V253.711C140.433 257.081 143.166 259.814 146.537 259.814H156.302V296.454H122.109C118.738 296.454 116.005 299.187 116.005 302.557C116.005 305.928 118.738 308.661 122.109 308.661H162.406C165.777 308.661 168.509 305.928 168.509 302.557V259.814H194.144V297.371C185.671 299.984 179.495 307.886 179.495 317.206C179.495 328.649 188.805 337.958 200.247 337.958C211.69 337.958 220.999 328.649 220.999 317.206C220.999 307.886 214.824 299.984 206.351 297.371V259.814H253.958C257.329 259.814 260.062 257.081 260.062 253.711V243.945H296.702V315.658C288.219 318.265 282.035 326.172 282.035 335.498C282.035 346.941 291.344 356.25 302.787 356.25C314.229 356.25 323.538 346.941 323.538 335.498C323.538 326.185 317.372 318.287 308.909 315.669V237.842C308.909 234.471 306.176 231.738 302.805 231.738H260.062V206.104H297.619ZM317.454 191.455C322.166 191.455 325.999 195.288 325.999 200C325.999 204.712 322.165 208.545 317.454 208.545C312.742 208.545 308.909 204.712 308.909 200C308.909 195.288 312.742 191.455 317.454 191.455ZM97.7084 73.0469C92.9965 73.0469 89.1635 69.2139 89.1635 64.502C89.1635 59.79 92.9965 55.957 97.7084 55.957C102.42 55.957 106.253 59.79 106.253 64.502C106.253 69.2139 102.42 73.0469 97.7084 73.0469ZM83.041 208.545C78.3291 208.545 74.4961 204.712 74.4961 200C74.4961 195.288 78.3291 191.455 83.041 191.455C87.7529 191.455 91.5859 195.288 91.5859 200C91.5859 204.712 87.7529 208.545 83.041 208.545ZM191.703 82.7942C191.703 78.0823 195.536 74.2493 200.247 74.2493C204.959 74.2493 208.792 78.0823 208.792 82.7942C208.792 87.5061 204.959 91.3391 200.247 91.3391C195.536 91.3391 191.703 87.5061 191.703 82.7942ZM208.792 317.206C208.792 321.918 204.959 325.751 200.247 325.751C195.536 325.751 191.703 321.918 191.703 317.206C191.703 312.494 195.536 308.661 200.247 308.661C204.959 308.661 208.792 312.494 208.792 317.206ZM247.855 247.607H152.64V152.393H247.855V247.607ZM302.787 326.953C307.498 326.953 311.331 330.786 311.331 335.498C311.331 340.21 307.498 344.043 302.787 344.043C298.075 344.043 294.242 340.21 294.242 335.498C294.242 330.786 298.075 326.953 302.787 326.953Z" fill="black"/>
<path d="M64.752 281.787C53.3091 281.787 44 291.096 44 302.539C44 313.982 53.3091 323.291 64.752 323.291C76.1948 323.291 85.5039 313.982 85.5039 302.539C85.5039 291.096 76.1948 281.787 64.752 281.787ZM64.752 311.084C60.04 311.084 56.207 307.251 56.207 302.539C56.207 297.827 60.04 293.994 64.752 293.994C69.4639 293.994 73.2969 297.827 73.2969 302.539C73.2969 307.251 69.4639 311.084 64.752 311.084Z" fill="black"/>
<path d="M104.77 298.241C103.635 297.106 102.06 296.453 100.455 296.453C98.8499 296.453 97.2751 297.106 96.1399 298.241C95.0046 299.376 94.3516 300.951 94.3516 302.557C94.3516 304.162 95.0046 305.737 96.1399 306.871C97.2751 308.006 98.8499 308.66 100.455 308.66C102.06 308.66 103.635 308.007 104.77 306.871C105.906 305.737 106.559 304.162 106.559 302.557C106.559 300.951 105.906 299.376 104.77 298.241Z" fill="black"/>
</svg>
