<svg width="52" height="52" viewBox="0 0 52 52" fill="none" xmlns="http://www.w3.org/2000/svg">
<path d="M43.3815 40.6835L34.4814 43.6508H30.804L29.5332 43.225L32.5655 42.3987C33.2035 42.2258 33.7515 41.8159 34.0977 41.2527C34.4438 40.6895 34.5619 40.0155 34.428 39.3681C34.294 38.7208 33.9181 38.149 33.3769 37.7694C32.8357 37.3898 32.17 37.231 31.5158 37.3255L23.9871 38.4012C23.9248 38.4103 23.8638 38.4264 23.8051 38.4492L20.6567 39.6882C19.6683 40.0779 18.6153 40.2774 17.5529 40.2765H14.5312V39C14.5312 38.7846 14.4456 38.5779 14.2933 38.4255C14.1409 38.2731 13.9342 38.1875 13.7188 38.1875H7.21875C7.00326 38.1875 6.7966 38.2731 6.64423 38.4255C6.49185 38.5779 6.40625 38.7846 6.40625 39V50.375C6.40625 50.5905 6.49185 50.7972 6.64423 50.9496C6.7966 51.1019 7.00326 51.1875 7.21875 51.1875H13.7188C13.9342 51.1875 14.1409 51.1019 14.2933 50.9496C14.4456 50.7972 14.5312 50.5905 14.5312 50.375V49.3359H20.0473C20.7296 49.3356 21.4094 49.4175 22.0721 49.5796L28.5071 51.1632C28.5706 51.1787 28.6358 51.1866 28.7013 51.1867C28.7558 51.1868 28.8103 51.1813 28.8638 51.1705L35.4328 49.8567C35.5101 49.8407 35.5846 49.8133 35.6538 49.7754L45.13 44.7582C45.6248 44.4976 46.0033 44.0602 46.1902 43.5332C46.3772 43.0061 46.3588 42.428 46.1388 41.9138C45.9188 41.3997 45.5133 40.9872 45.003 40.7585C44.4926 40.5298 43.9149 40.5016 43.3847 40.6795L43.3815 40.6835ZM12.9062 49.5625H8.03125V39.8125H12.9062V49.5625ZM44.3662 43.3258L34.9949 48.2877L28.7191 49.543L22.4629 48.0034C21.6732 47.8092 20.863 47.711 20.0497 47.7109H14.5312V41.9031H17.5529C18.8192 41.9042 20.0742 41.6663 21.2523 41.2019L24.3113 39.9986L31.7457 38.9367C31.9907 38.9002 32.2404 38.9589 32.4434 39.1007C32.6465 39.2425 32.7876 39.4567 32.8377 39.6993C32.8878 39.9419 32.8432 40.1944 32.7129 40.4051C32.5827 40.6158 32.3767 40.7686 32.1373 40.8322L26.5164 42.3654C26.3483 42.4114 26.1995 42.5102 26.0919 42.6473C25.9842 42.7844 25.9235 42.9524 25.9187 43.1266C25.9139 43.3008 25.9652 43.472 26.065 43.6148C26.1649 43.7576 26.3081 43.8645 26.4734 43.9197L30.4148 45.2335C30.4976 45.2613 30.5843 45.2756 30.6716 45.2758H34.6114C34.6987 45.2756 34.7854 45.2613 34.8681 45.2335L43.8926 42.2273C44.0355 42.1795 44.1912 42.1873 44.3286 42.249C44.4661 42.3107 44.5754 42.4218 44.6347 42.5604C44.6941 42.6989 44.6992 42.8547 44.649 42.9968C44.5988 43.1389 44.497 43.2569 44.3638 43.3274L44.3662 43.3258Z" fill="black"/>
<path d="M11.375 19.5C11.375 22.3926 12.2327 25.2201 13.8398 27.6252C15.4468 30.0303 17.7309 31.9048 20.4033 33.0117C23.0756 34.1187 26.0162 34.4083 28.8532 33.844C31.6902 33.2797 34.2961 31.8868 36.3414 29.8414C38.3868 27.7961 39.7797 25.1902 40.344 22.3532C40.9083 19.5162 40.6187 16.5756 39.5117 13.9033C38.4048 11.2309 36.5303 8.94677 34.1252 7.33976C31.7201 5.73274 28.8926 4.875 26 4.875C22.1226 4.87952 18.4053 6.42181 15.6636 9.16355C12.9218 11.9053 11.3795 15.6226 11.375 19.5ZM24.7812 13.4062C24.7812 13.1652 24.8527 12.9296 24.9866 12.7291C25.1206 12.5287 25.3109 12.3725 25.5336 12.2803C25.7563 12.188 26.0014 12.1639 26.2378 12.2109C26.4742 12.2579 26.6913 12.374 26.8618 12.5445C27.0322 12.7149 27.1483 12.9321 27.1953 13.1685C27.2424 13.4049 27.2182 13.6499 27.126 13.8726C27.0337 14.0953 26.8775 14.2857 26.6771 14.4196C26.4767 14.5535 26.241 14.625 26 14.625C25.6768 14.625 25.3668 14.4966 25.1382 14.268C24.9097 14.0395 24.7812 13.7295 24.7812 13.4062ZM26 6.5C29.376 6.49898 32.6197 7.81212 35.0443 10.1613C37.4689 12.5104 38.8838 15.7111 38.9894 19.0854C39.095 22.4597 37.883 25.7426 35.6101 28.2388C33.3372 30.735 30.1819 32.2485 26.8125 32.4586V28.8438L32.9875 24.2125C33.0884 24.1368 33.1703 24.0387 33.2267 23.9259C33.2831 23.813 33.3125 23.6886 33.3125 23.5625V21.8051C33.9671 21.6099 34.5296 21.1856 34.8971 20.6098C35.2646 20.0341 35.4126 19.3452 35.314 18.6693C35.2153 17.9934 34.8767 17.3755 34.36 16.9288C33.8433 16.482 33.1831 16.2361 32.5 16.2361C31.8169 16.2361 31.1567 16.482 30.64 16.9288C30.1233 17.3755 29.7847 17.9934 29.686 18.6693C29.5874 19.3452 29.7354 20.0341 30.1029 20.6098C30.4704 21.1856 31.0329 21.6099 31.6875 21.8051V23.1562L26.8125 26.8125V16.1176C27.4671 15.9224 28.0296 15.4981 28.3971 14.9223C28.7646 14.3466 28.9126 13.6577 28.814 12.9818C28.7153 12.3059 28.3767 11.688 27.86 11.2413C27.3433 10.7945 26.6831 10.5486 26 10.5486C25.3169 10.5486 24.6567 10.7945 24.14 11.2413C23.6233 11.688 23.2847 12.3059 23.186 12.9818C23.0874 13.6577 23.2354 14.3466 23.6029 14.9223C23.9704 15.4981 24.5329 15.9224 25.1875 16.1176V23.8729L20.3125 21.4354V20.1801C20.9671 19.9849 21.5296 19.5606 21.8971 18.9848C22.2646 18.4091 22.4126 17.7202 22.314 17.0443C22.2153 16.3684 21.8767 15.7505 21.36 15.3038C20.8433 14.857 20.1831 14.6111 19.5 14.6111C18.8169 14.6111 18.1567 14.857 17.64 15.3038C17.1233 15.7505 16.7847 16.3684 16.686 17.0443C16.5874 17.7202 16.7354 18.4091 17.1029 18.9848C17.4704 19.5606 18.0329 19.9849 18.6875 20.1801V21.9375C18.6874 22.0885 18.7294 22.2365 18.8088 22.365C18.8882 22.4934 19.0017 22.5972 19.1368 22.6647L25.1875 25.6896V32.4586C21.8181 32.2485 18.6628 30.735 16.3899 28.2388C14.117 25.7426 12.905 22.4597 13.0106 19.0854C13.1162 15.7111 14.5311 12.5104 16.9557 10.1613C19.3803 7.81212 22.624 6.49898 26 6.5ZM32.5 20.3125C32.259 20.3125 32.0233 20.241 31.8229 20.1071C31.6225 19.9732 31.4663 19.7828 31.374 19.5601C31.2818 19.3374 31.2576 19.0924 31.3047 18.856C31.3517 18.6196 31.4678 18.4024 31.6382 18.232C31.8087 18.0615 32.0258 17.9454 32.2622 17.8984C32.4986 17.8514 32.7437 17.8755 32.9664 17.9678C33.1891 18.06 33.3794 18.2162 33.5134 18.4166C33.6473 18.6171 33.7188 18.8527 33.7188 19.0938C33.7188 19.417 33.5903 19.727 33.3618 19.9555C33.1332 20.1841 32.8232 20.3125 32.5 20.3125ZM19.5 18.6875C19.259 18.6875 19.0233 18.616 18.8229 18.4821C18.6225 18.3482 18.4663 18.1578 18.374 17.9351C18.2818 17.7124 18.2576 17.4674 18.3047 17.231C18.3517 16.9946 18.4678 16.7774 18.6382 16.607C18.8087 16.4365 19.0258 16.3204 19.2622 16.2734C19.4986 16.2264 19.7437 16.2505 19.9664 16.3428C20.1891 16.435 20.3794 16.5912 20.5134 16.7916C20.6473 16.9921 20.7188 17.2277 20.7188 17.4688C20.7188 17.792 20.5903 18.102 20.3618 18.3305C20.1332 18.5591 19.8232 18.6875 19.5 18.6875Z" fill="black"/>
<path d="M40.625 31.6875H42.25V33.3125H40.625V31.6875Z" fill="black"/>
<path d="M44.6875 18.6875H46.3125V20.3125H44.6875V18.6875Z" fill="black"/>
<path d="M39.8125 4.875H41.4375V6.5H39.8125V4.875Z" fill="black"/>
<path d="M21.9375 0.8125H23.5625V2.4375H21.9375V0.8125Z" fill="black"/>
<path d="M6.5 13.8125H8.125V15.4375H6.5V13.8125Z" fill="black"/>
<path d="M8.125 30.0625H9.75V31.6875H8.125V30.0625Z" fill="black"/>
</svg>
