<svg width="52" height="52" viewBox="0 0 52 52" fill="none" xmlns="http://www.w3.org/2000/svg">
<g clip-path="url(#clip0_989_14899)">
<path fill-rule="evenodd" clip-rule="evenodd" d="M19.8812 30.2609H32.1168C32.5193 30.2609 32.8448 30.5864 32.8448 30.9889V51.272C32.8448 51.6745 32.5193 52 32.1168 52H19.8812C19.4787 52 19.1532 51.6745 19.1532 51.272V30.9889C19.1532 30.5864 19.4798 30.2609 19.8812 30.2609ZM41.8065 4.03624V3.59528C41.8065 3.1928 42.132 2.86728 42.5345 2.86728C42.937 2.86728 43.2625 3.1928 43.2625 3.59528V4.03624C43.6067 4.15064 43.9156 4.34408 44.1673 4.59576C44.5854 5.01384 44.8433 5.59104 44.8433 6.22856C44.8433 6.63104 44.5178 6.95656 44.1153 6.95656C43.7128 6.95656 43.3873 6.63104 43.3873 6.22856C43.3873 5.99352 43.2916 5.78032 43.1377 5.62536C42.9838 5.4704 42.7706 5.37576 42.5345 5.37576C42.2995 5.37576 42.0863 5.47144 41.9313 5.62536C41.7774 5.77928 41.6817 5.99248 41.6817 6.22856C41.6817 6.85776 42.1923 6.97944 42.7019 7.10112C43.7721 7.35592 44.8433 7.61072 44.8433 9.39016C44.8433 10.0277 44.5843 10.6049 44.1673 11.023C43.9167 11.2736 43.6078 11.467 43.2625 11.5825V12.0234C43.2625 12.4259 42.937 12.7514 42.5345 12.7514C42.132 12.7514 41.8065 12.4259 41.8065 12.0234V11.5825C41.4623 11.4681 41.1534 11.2746 40.9017 11.023C40.4836 10.6049 40.2257 10.0277 40.2257 9.39016C40.2257 8.98768 40.5512 8.66216 40.9537 8.66216C41.3562 8.66216 41.6817 8.98768 41.6817 9.39016C41.6817 9.6252 41.7774 9.8384 41.9313 9.99336C42.0852 10.1473 42.2984 10.243 42.5345 10.243C42.7695 10.243 42.9827 10.1473 43.1377 9.99336C43.2927 9.83944 43.3873 9.62624 43.3873 9.39016C43.3873 8.76096 42.8767 8.63928 42.3671 8.5176C41.2969 8.2628 40.2257 8.008 40.2257 6.22856C40.2257 5.59104 40.4836 5.01384 40.9017 4.59576C41.1534 4.34408 41.4623 4.15064 41.8065 4.03624ZM42.5345 0C40.3786 0 38.4265 0.8736 37.0131 2.28696C35.5998 3.70032 34.7262 5.6524 34.7262 7.80832C34.7262 9.96424 35.5998 11.9163 37.0131 13.3297C38.4265 14.743 40.3786 15.6166 42.5345 15.6166C44.6904 15.6166 46.6425 14.743 48.0559 13.3297C49.4692 11.9163 50.3428 9.96424 50.3428 7.80832C50.3428 5.6524 49.4692 3.70032 48.0559 2.28696C46.6425 0.8736 44.6904 0 42.5345 0ZM47.0263 3.31656C45.8771 2.16736 44.289 1.456 42.5345 1.456C40.78 1.456 39.1919 2.16736 38.0427 3.31656C36.8935 4.46576 36.1822 6.05384 36.1822 7.80832C36.1822 9.5628 36.8935 11.1509 38.0427 12.3001C39.1919 13.4493 40.78 14.1606 42.5345 14.1606C44.289 14.1606 45.8771 13.4493 47.0263 12.3001C48.1755 11.1509 48.8868 9.5628 48.8868 7.80832C48.8868 6.05384 48.1755 4.46576 47.0263 3.31656ZM25.2715 14.923V14.482C25.2715 14.0795 25.5971 13.754 25.9995 13.754C26.402 13.754 26.7275 14.0795 26.7275 14.482V14.923C27.0718 15.0374 27.3807 15.2308 27.6323 15.4825C28.0504 15.9006 28.3083 16.4778 28.3083 17.1153C28.3083 17.5178 27.9828 17.8433 27.5803 17.8433C27.1779 17.8433 26.8523 17.5178 26.8523 17.1153C26.8523 16.8802 26.7567 16.667 26.6027 16.5121C26.4488 16.3571 26.2356 16.2625 25.9995 16.2625C25.7645 16.2625 25.5513 16.3582 25.3963 16.5121C25.2424 16.666 25.1467 16.8792 25.1467 17.1153C25.1467 17.7445 25.6574 17.8662 26.167 17.9878C27.2371 18.2426 28.3083 18.4974 28.3083 20.2769C28.3083 20.9144 28.0494 21.4916 27.6323 21.9097C27.3817 22.1603 27.0728 22.3538 26.7275 22.4692V22.9102C26.7275 23.3126 26.402 23.6382 25.9995 23.6382C25.5971 23.6382 25.2715 23.3126 25.2715 22.9102V22.4692C24.9273 22.3548 24.6184 22.1614 24.3667 21.9097C23.9487 21.4916 23.6907 20.9144 23.6907 20.2769C23.6907 19.8744 24.0163 19.5489 24.4187 19.5489C24.8212 19.5489 25.1467 19.8744 25.1467 20.2769C25.1467 20.5119 25.2424 20.7251 25.3963 20.8801C25.5503 21.034 25.7635 21.1297 25.9995 21.1297C26.2356 21.1297 26.4478 21.034 26.6027 20.8801C26.7567 20.7262 26.8523 20.513 26.8523 20.2769C26.8523 19.6477 26.3417 19.526 25.8321 19.4043C24.7619 19.1495 23.6907 18.8947 23.6907 17.1153C23.6907 16.4778 23.9487 15.9006 24.3667 15.4825C24.6184 15.2308 24.9273 15.0374 25.2715 14.923ZM25.9995 10.8867C23.8436 10.8867 21.8915 11.7603 20.4782 13.1737C19.0648 14.587 18.1912 16.5391 18.1912 18.695C18.1912 20.851 19.0648 22.803 20.4782 24.2164C21.8915 25.6298 23.8436 26.5034 25.9995 26.5034C28.1555 26.5034 30.1075 25.6298 31.5209 24.2164C32.9343 22.803 33.8079 20.851 33.8079 18.695C33.8079 16.5391 32.9343 14.587 31.5209 13.1737C30.1075 11.7614 28.1555 10.8867 25.9995 10.8867ZM30.4913 14.2033C29.3421 13.0541 27.754 12.3427 25.9995 12.3427C24.2451 12.3427 22.657 13.0541 21.5078 14.2033C20.3586 15.3525 19.6472 16.9406 19.6472 18.695C19.6472 20.4495 20.3586 22.0376 21.5078 23.1868C22.657 24.336 24.2451 25.0474 25.9995 25.0474C27.754 25.0474 29.3421 24.336 30.4913 23.1868C31.6405 22.0376 32.3519 20.4495 32.3519 18.695C32.3519 16.9406 31.6405 15.3525 30.4913 14.2033ZM8.73657 6.87648V6.43552C8.73657 6.03304 9.06209 5.70752 9.46457 5.70752C9.86705 5.70752 10.1926 6.03304 10.1926 6.43552V6.87648C10.5368 6.99088 10.8457 7.18432 11.0974 7.436C11.5155 7.85408 11.7734 8.43128 11.7734 9.0688C11.7734 9.47128 11.4479 9.7968 11.0454 9.7968C10.6429 9.7968 10.3174 9.47128 10.3174 9.0688C10.3174 8.83376 10.2217 8.62056 10.0678 8.4656C9.91385 8.31168 9.70065 8.216 9.46457 8.216C9.22953 8.216 9.01633 8.31168 8.86137 8.4656C8.70745 8.61952 8.61177 8.83272 8.61177 9.0688C8.61177 9.698 9.12241 9.81968 9.63201 9.94136C10.7022 10.1962 11.7734 10.451 11.7734 12.2304C11.7734 12.8679 11.5144 13.4451 11.0974 13.8632C10.8467 14.1138 10.5379 14.3073 10.1926 14.4227V14.8637C10.1926 15.2662 9.86705 15.5917 9.46457 15.5917C9.06209 15.5917 8.73657 15.2662 8.73657 14.8637V14.4227C8.39233 14.3083 8.08345 14.1149 7.83177 13.8632C7.41369 13.4451 7.15577 12.8679 7.15577 12.2304C7.15577 11.8279 7.48129 11.5024 7.88377 11.5024C8.28625 11.5024 8.61177 11.8279 8.61177 12.2304C8.61177 12.4654 8.70745 12.6786 8.86137 12.8336C9.01529 12.9875 9.22849 13.0832 9.46457 13.0832C9.69961 13.0832 9.91281 12.9875 10.0678 12.8336C10.2217 12.6797 10.3174 12.4665 10.3174 12.2304C10.3174 11.6012 9.80673 11.4795 9.29713 11.3578C8.22697 11.103 7.15577 10.8482 7.15577 9.0688C7.15577 8.43128 7.41369 7.85408 7.83177 7.436C8.08345 7.18432 8.39129 6.99088 8.73657 6.87648ZM9.46457 2.84024C7.30865 2.84024 5.35657 3.71384 3.94321 5.1272C2.52985 6.54056 1.65625 8.49264 1.65625 10.6486C1.65625 12.8045 2.52985 14.7566 3.94321 16.1699C5.35657 17.5833 7.30865 18.4569 9.46457 18.4569C11.6205 18.4569 13.5726 17.5833 14.9859 16.1699C16.3993 14.7566 17.2729 12.8045 17.2729 10.6486C17.2729 8.49264 16.3993 6.54056 14.9859 5.1272C13.5726 3.71384 11.6205 2.84024 9.46457 2.84024ZM13.9563 6.1568C12.8071 5.0076 11.2191 4.29624 9.46457 4.29624C7.71009 4.29624 6.12201 5.00656 4.97281 6.1568C3.82361 7.30704 3.11225 8.89408 3.11225 10.6486C3.11225 12.403 3.82361 13.9911 4.97281 15.1403C6.12201 16.2895 7.71009 17.0009 9.46457 17.0009C11.2191 17.0009 12.8071 16.2895 13.9563 15.1403C15.1055 13.9911 15.8169 12.403 15.8169 10.6486C15.8159 8.89408 15.1055 7.306 13.9563 6.1568ZM3.34625 22.0626H15.5819C15.9843 22.0626 16.3099 22.3881 16.3099 22.7906V51.272C16.3099 51.6745 15.9843 52 15.5819 52H3.34625C2.94377 52 2.61825 51.6745 2.61825 51.272V22.7906C2.61825 22.3881 2.94481 22.0626 3.34625 22.0626ZM14.8549 23.5186H4.07425V50.544H14.8539V23.5186H14.8549ZM48.6528 52H36.4162C36.0137 52 35.6882 51.6745 35.6882 51.272V20.8468C35.6882 20.4443 36.0137 20.1188 36.4162 20.1188H48.6518C49.0543 20.1188 49.3798 20.4443 49.3798 20.8468V51.272C49.3808 51.6745 49.0543 52 48.6528 52ZM37.1442 50.544H47.9238V21.5748H37.1442V50.544ZM31.3899 31.7169H20.6092V50.544H31.3888V31.7169H31.3899Z" fill="black"/>
</g>
<defs>
<clipPath id="clip0_989_14899">
<rect width="52" height="52" fill="white"/>
</clipPath>
</defs>
</svg>
