<svg width="400" height="400" viewBox="0 0 400 400" fill="none" xmlns="http://www.w3.org/2000/svg">
<path d="M166.864 205.075C165.89 205.075 164.916 204.701 164.168 203.952L127.473 165.61C126.051 164.187 126.051 161.866 127.473 160.443L164.168 122.101C165.59 120.604 167.987 120.529 169.485 121.952C170.982 123.374 171.057 125.771 169.634 127.269L135.411 163.064L169.634 198.86C171.057 200.357 170.982 202.754 169.485 204.177C168.661 204.776 167.762 205.075 166.864 205.075Z" fill="black" stroke="black" stroke-width="6.25"/>
<path d="M233.207 205.076C232.308 205.076 231.335 204.701 230.586 204.028C229.088 202.605 229.013 200.208 230.436 198.711L264.659 162.915L230.511 127.194C229.088 125.697 229.163 123.3 230.661 121.877C232.158 120.455 234.555 120.529 235.978 122.027L272.672 160.369C274.095 161.792 274.095 164.113 272.672 165.536L235.978 203.878C235.154 204.702 234.18 205.076 233.207 205.076Z" fill="black" stroke="black" stroke-width="6.25"/>
<path d="M190.602 211.44C190.377 211.44 190.078 211.44 189.853 211.365C187.831 210.916 186.558 208.969 186.932 206.947L205.729 117.533C206.178 115.511 208.125 114.238 210.147 114.612C212.169 115.061 213.442 117.008 213.068 119.03L194.271 208.444C193.897 210.167 192.399 211.44 190.602 211.44Z" fill="black" stroke="black" stroke-width="6.25"/>
<path d="M251.854 267.604C250.506 267.604 249.158 266.856 248.559 265.583C247.586 263.71 248.334 261.464 250.207 260.565C286.901 241.619 309.666 204.326 309.666 163.063C309.666 121.801 286.901 84.4329 250.207 65.5616C248.334 64.5881 247.66 62.3415 248.559 60.5442C249.533 58.6721 251.779 57.9981 253.576 58.8967C292.742 79.116 317.155 119.03 317.155 163.063C317.155 207.096 292.817 247.011 253.576 267.23C253.052 267.455 252.453 267.604 251.854 267.604ZM148.137 267.604C147.538 267.604 146.938 267.455 146.414 267.155C107.249 246.936 82.8359 207.022 82.8359 162.988C82.8359 118.955 107.174 79.0411 146.414 58.8218C148.286 57.8483 150.533 58.5972 151.432 60.4693C152.405 62.3415 151.656 64.5881 149.784 65.4867C113.09 84.4329 90.3246 121.801 90.3246 162.988C90.3246 204.176 113.09 241.619 149.784 260.49C151.656 261.464 152.33 263.71 151.432 265.508C150.833 266.856 149.485 267.604 148.137 267.604Z" fill="black" stroke="black" stroke-width="6.25"/>
<path d="M330.564 323.021H69.436C55.2825 323.021 43.75 311.489 43.75 297.335V140.299C43.75 126.146 55.2825 114.613 69.436 114.613H95.721C97.8178 114.613 99.4653 116.261 99.4653 118.358C99.4653 120.454 97.8178 122.102 95.721 122.102H69.436C59.4012 122.102 51.2386 130.264 51.2386 140.299V297.335C51.2386 307.37 59.4012 315.533 69.436 315.533H330.564C340.599 315.533 348.761 307.37 348.761 297.335V140.299C348.761 130.264 340.599 122.102 330.564 122.102H304.279C302.182 122.102 300.535 120.454 300.535 118.358C300.535 116.261 302.182 114.613 304.279 114.613H330.564C344.718 114.613 356.25 126.146 356.25 140.299V297.335C356.25 311.489 344.718 323.021 330.564 323.021Z" fill="black" stroke="black" stroke-width="6.25"/>
<path d="M227.74 365.331H172.249C170.901 365.331 169.703 364.657 169.029 363.534C168.355 362.411 168.28 360.988 168.954 359.865C175.769 346.909 175.769 334.553 168.954 320.924C168.355 319.8 168.43 318.378 169.104 317.254C169.778 316.131 170.976 315.457 172.324 315.457H227.814C229.088 315.457 230.286 316.131 231.035 317.254C231.709 318.378 231.783 319.726 231.184 320.924C224.37 334.553 224.37 346.909 231.184 359.865C231.783 360.988 231.783 362.411 231.109 363.534C230.286 364.657 229.088 365.331 227.74 365.331ZM178.09 357.843H221.898C217.33 346.385 217.33 334.853 221.973 322.946H178.015C182.658 334.927 182.658 346.385 178.09 357.843Z" fill="black" stroke="black" stroke-width="6.25"/>
<path d="M244.593 365.332H155.479C153.382 365.332 151.734 363.685 151.734 361.588C151.734 359.491 153.382 357.844 155.479 357.844H244.593C246.69 357.844 248.338 359.491 248.338 361.588C248.338 363.685 246.615 365.332 244.593 365.332Z" fill="black" stroke="black" stroke-width="6.25"/>
<path d="M155.781 89.9002C153.984 89.9002 152.187 89.5258 150.539 88.7769C146.72 87.0546 144.398 83.6847 144.398 79.7157V44.5192C144.398 40.6252 146.645 37.2553 150.464 35.5329C154.808 33.511 160.05 34.1849 163.494 37.1804L183.639 54.7037C185.81 56.5759 187.084 59.3467 187.084 62.1924C187.084 65.038 185.81 67.8088 183.639 69.681L163.494 87.2043C161.398 89.0016 158.627 89.9002 155.781 89.9002ZM155.856 41.8233C155.032 41.8233 154.283 41.9731 153.609 42.2726C152.861 42.6471 151.887 43.3211 151.887 44.4443V79.7157C151.887 80.9888 153.01 81.6628 153.609 81.9623C155.032 82.6363 157.129 82.7112 158.627 81.4381L178.771 63.9147C179.295 63.4654 179.67 62.7915 179.67 62.0426C179.67 61.2937 179.37 60.6946 178.771 60.1704L158.627 42.7969C157.878 42.1229 156.83 41.8233 155.856 41.8233Z" fill="black" stroke="black" stroke-width="6.25"/>
<path d="M244.221 291.57C241.375 291.57 238.605 290.597 236.433 288.799L216.289 271.351C214.117 269.479 212.844 266.708 212.844 263.862C212.844 261.017 214.117 258.246 216.289 256.374L236.433 238.85C239.878 235.855 245.12 235.181 249.463 237.203C253.282 238.925 255.604 242.295 255.604 246.264V281.535C255.604 285.429 253.357 288.799 249.538 290.522C247.816 291.196 246.018 291.57 244.221 291.57ZM244.221 243.493C243.248 243.493 242.199 243.793 241.45 244.467L221.306 261.99C220.782 262.439 220.407 263.113 220.407 263.862C220.407 264.536 220.707 265.21 221.306 265.734L241.45 283.258C242.798 284.456 245.045 284.381 246.468 283.707C247.216 283.333 248.19 282.659 248.19 281.535V246.264C248.19 245.066 247.067 244.317 246.468 244.017C245.794 243.718 244.97 243.493 244.221 243.493Z" fill="black" stroke="black" stroke-width="6.25"/>
</svg>
