<svg width="52" height="52" viewBox="0 0 52 52" fill="none" xmlns="http://www.w3.org/2000/svg">
<g clip-path="url(#clip0_1036_12776)">
<path d="M21.4236 20.2926C21.2351 20.2926 21.0542 20.3674 20.9209 20.5008L17.0102 24.4115C16.607 24.1781 16.1396 24.0437 15.6412 24.0437C14.1292 24.0437 12.899 25.2738 12.899 26.7859C12.899 28.298 14.1292 29.5281 15.6412 29.5281C17.1533 29.5281 18.3834 28.298 18.3834 26.7859C18.3834 26.2874 18.2491 25.82 18.0157 25.4168L21.7181 21.7144H29.1309C29.1792 21.9889 29.3082 22.2517 29.5199 22.4634L31.0175 23.961C31.2832 24.2267 31.6364 24.3731 32.0121 24.3731C32.3878 24.3731 32.7411 24.2267 33.0067 23.961C33.5756 23.3921 34.2989 23.4053 34.7862 23.6071C35.2735 23.8089 35.7942 24.3112 35.7942 25.1156C35.7942 25.8912 36.4252 26.5222 37.2007 26.5222H39.3187C40.0942 26.5222 40.7252 25.8912 40.7252 25.1156C40.7252 24.3126 41.2463 23.8107 41.734 23.6088C42.2217 23.4068 42.945 23.3932 43.5127 23.961C43.7784 24.2267 44.1316 24.3731 44.5074 24.3731C44.8832 24.3731 45.2364 24.2267 45.502 23.961L46.9997 22.4634C47.2654 22.1977 47.4116 21.8445 47.4116 21.4688C47.4116 21.093 47.2654 20.7398 46.9997 20.4742C46.4319 19.9065 46.4454 19.183 46.6475 18.6954C46.8495 18.2078 47.3514 17.6867 48.1543 17.6867C48.9299 17.6867 49.5609 17.0557 49.5609 16.2801V14.1621C49.5609 13.3865 48.9299 12.7555 48.1543 12.7555C47.3514 12.7555 46.8495 12.2345 46.6475 11.7468C46.4454 11.2592 46.4319 10.5358 46.9997 9.96805C47.2654 9.70237 47.4116 9.34913 47.4116 8.97345C47.4116 8.59767 47.2654 8.24434 46.9997 7.97885L45.502 6.48111C45.2363 6.21542 44.8831 6.06917 44.5074 6.06917C44.1317 6.06917 43.7784 6.21542 43.5128 6.48111C42.9451 7.04884 42.2218 7.03544 41.7341 6.83333C41.2464 6.63132 40.7253 6.1294 40.7253 5.32645C40.7253 4.55081 40.0943 3.9198 39.3188 3.9198H37.2008C36.4253 3.9198 35.7943 4.55081 35.7943 5.32645C35.7943 6.1294 35.2733 6.63132 34.7856 6.83333C34.298 7.03523 33.5745 7.04884 33.0067 6.48101C32.4583 5.93267 31.5658 5.93267 31.0175 6.48101L29.5199 7.97865C29.3131 8.18533 29.1797 8.44543 29.1303 8.72767H21.718L18.0157 5.02531C18.2491 4.62211 18.3834 4.15472 18.3834 3.65625C18.3834 2.14419 17.1533 0.914062 15.6412 0.914062C14.1292 0.914062 12.899 2.14419 12.899 3.65625C12.899 5.16831 14.1292 6.39844 15.6412 6.39844C16.1396 6.39844 16.607 6.26407 17.0102 6.03078L20.9209 9.94145C21.0541 10.0748 21.235 10.1496 21.4236 10.1496H29.6767C30.0813 10.6837 30.0531 11.3098 29.872 11.7469C29.67 12.2346 29.168 12.7556 28.3651 12.7556C27.5896 12.7556 26.9585 13.3866 26.9585 14.1622V14.5102H21.3501C21.036 13.3419 19.9681 12.479 18.7019 12.479C17.1899 12.479 15.9597 13.7091 15.9597 15.2212C15.9597 16.7332 17.1899 17.9634 18.7019 17.9634C19.9681 17.9634 21.036 17.1005 21.3501 15.9321H26.9585V16.2802C26.9585 17.0558 27.5896 17.6868 28.3651 17.6868C29.168 17.6868 29.67 18.2078 29.872 18.6955C30.053 19.1325 30.0812 19.7587 29.6767 20.2927L21.4236 20.2926ZM15.6412 28.1063C14.9132 28.1063 14.3209 27.514 14.3209 26.786C14.3209 26.058 14.9132 25.4657 15.6412 25.4657C16.3692 25.4657 16.9615 26.058 16.9615 26.786C16.9614 27.514 16.3692 28.1063 15.6412 28.1063ZM15.6412 4.97656C14.9132 4.97656 14.3209 4.38425 14.3209 3.65625C14.3209 2.92825 14.9132 2.33594 15.6412 2.33594C16.3692 2.33594 16.9615 2.92825 16.9615 3.65625C16.9615 4.38425 16.3692 4.97656 15.6412 4.97656ZM18.7019 16.5415C17.9739 16.5415 17.3816 15.9492 17.3816 15.2212C17.3816 14.4932 17.9739 13.9009 18.7019 13.9009C19.4299 13.9009 20.0222 14.4932 20.0222 15.2212C20.0222 15.9492 19.4299 16.5415 18.7019 16.5415ZM28.3804 16.2649V14.1774C29.6316 14.1715 30.7056 13.4498 31.1857 12.291C31.6658 11.1321 31.4165 9.86233 30.536 8.97345L32.0122 7.49724C32.9011 8.37789 34.1708 8.62692 35.3297 8.14694C36.4887 7.66685 37.2104 6.59293 37.2162 5.34168H39.3036C39.3094 6.59293 40.0311 7.66695 41.19 8.14694C42.3488 8.62692 43.6187 8.37789 44.5075 7.49724L45.9837 8.97345C45.1031 9.86233 44.854 11.132 45.334 12.291C45.814 13.4499 46.8881 14.1716 48.1392 14.1774V16.2649C46.8881 16.2708 45.814 16.9925 45.334 18.1514C44.854 19.3103 45.1031 20.5799 45.9837 21.4689L44.5076 22.9451C43.6188 22.0645 42.349 21.8153 41.19 22.2954C40.0311 22.7755 39.3094 23.8493 39.3036 25.1007H37.2162C37.2104 23.8482 36.489 22.7737 35.3304 22.2938C34.1719 21.8139 32.9019 22.0636 32.0122 22.9452L30.536 21.469C31.4166 20.5801 31.6658 19.3104 31.1857 18.1515C30.7057 16.9925 29.6317 16.2708 28.3804 16.2649ZM38.2597 21.1074C41.5054 21.1074 44.146 18.4669 44.146 15.2212C44.146 11.9754 41.5053 9.33491 38.2597 9.33491C35.0141 9.33491 32.3735 11.9754 32.3735 15.2212C32.3735 18.4669 35.0141 21.1074 38.2597 21.1074ZM38.2597 10.7569C40.7214 10.7569 42.7241 12.7596 42.7241 15.2213C42.7241 17.6829 40.7214 19.6857 38.2597 19.6857C35.798 19.6857 33.7953 17.6829 33.7953 15.2213C33.7953 12.7596 35.7981 10.7569 38.2597 10.7569ZM50.7523 38.2254C50.0541 37.0161 48.5021 36.6004 47.2927 37.2984L36.8829 43.3083L28.2323 40.2937C28.3382 40.1714 28.4376 40.0436 28.5287 39.9095L33.915 39.1244C35.4293 38.9038 36.4869 37.807 36.4869 36.4573C36.4869 34.9826 35.2872 33.7828 33.8125 33.7828H26.7283C26.2288 33.5686 25.6792 33.4496 25.1021 33.4496C24.4806 33.4496 23.8913 33.5881 23.3617 33.8345L23.3614 33.8339L13.1851 37.9124H8.26505V36.1451C8.26505 35.7524 7.94676 35.4341 7.55412 35.4341H1.625C1.23236 35.4341 0.914062 35.7524 0.914062 36.1451V50.375C0.914062 50.7676 1.23236 51.0859 1.625 51.0859H7.55412C7.94676 51.0859 8.26505 50.7676 8.26505 50.375V48.6178C10.4859 48.6762 13.3054 48.9868 16.2755 49.3148C20.2781 49.7568 24.7978 50.2559 28.9103 50.2558C29.0448 50.2558 29.1789 50.2553 29.3126 50.2541C34.2482 50.2139 37.7718 49.4168 40.0838 47.8172L49.8486 41.6709C51.0383 40.9221 51.4353 39.4086 50.7523 38.2254ZM37.1912 45.9634L37.9814 47.3769C37.572 47.5654 37.1374 47.7325 36.6796 47.8796L37.1912 45.9634ZM35.0651 36.4573C35.0651 37.1914 34.3845 37.6191 33.7099 37.7174L29.1653 38.3798C29.2151 38.1237 29.2419 37.8596 29.2419 37.5892C29.2419 36.7017 28.9602 35.8793 28.4829 35.2046H33.8125C34.5031 35.2047 35.0651 35.7667 35.0651 36.4573ZM27.82 37.5893C27.82 39.088 26.6008 40.3072 25.1022 40.3072C23.6035 40.3072 22.3843 39.088 22.3843 37.5893C22.3843 36.0906 23.6035 34.8715 25.1022 34.8715C26.6008 34.8715 27.82 36.0906 27.82 37.5893ZM13.2143 43.26C13.2143 45.4247 11.4532 47.1858 9.2885 47.1858C7.1238 47.1858 5.3627 45.4247 5.3627 43.26C5.3627 41.0953 7.1238 39.3342 9.2885 39.3342C11.4532 39.3342 13.2143 41.0953 13.2143 43.26ZM2.33594 49.6641V36.856H6.84318V38.5067C5.12139 39.3961 3.94093 41.1922 3.94093 43.26C3.94093 45.3279 5.12149 47.124 6.84318 48.0135V49.6641H2.33594ZM16.4315 47.9015C15.0967 47.7542 13.7927 47.6105 12.5539 47.4906C13.8192 46.5118 14.6362 44.9799 14.6362 43.26C14.6362 41.7097 13.9724 40.3119 12.9148 39.3342H13.3225C13.4131 39.3342 13.5028 39.3169 13.5869 39.2833L21.1908 36.2358C21.0434 36.6603 20.9623 37.1154 20.9623 37.5894C20.9623 39.8721 22.8194 41.7292 25.1021 41.7292C25.7377 41.7292 26.34 41.5849 26.8787 41.3278L36.0993 44.541L35.0974 48.2936C29.8875 49.3869 22.587 48.5812 16.4315 47.9015ZM49.0911 40.4677L39.3131 46.6223C39.3041 46.628 39.295 46.6339 39.2862 46.64C39.2653 46.6546 39.2434 46.6684 39.2224 46.6827L37.9193 44.3519L48.0036 38.5298C48.534 38.2235 49.2148 38.4059 49.521 38.9363C49.8203 39.4548 49.6315 40.1275 49.0911 40.4677ZM24.1688 37.5894C24.1688 37.0753 24.5881 36.656 25.1022 36.656C25.6163 36.656 26.0354 37.0753 26.0354 37.5894C26.0354 38.1035 25.6162 38.5228 25.1022 38.5228C24.5881 38.5227 24.1688 38.1034 24.1688 37.5894ZM8.35524 43.26C8.35524 42.7459 8.77449 42.3267 9.2886 42.3267C9.80261 42.3267 10.222 42.7459 10.222 43.26C10.222 43.7742 9.80271 44.1934 9.2886 44.1934C8.77449 44.1934 8.35524 43.7742 8.35524 43.26Z" fill="black"/>
</g>
<defs>
<clipPath id="clip0_1036_12776">
<rect width="52" height="52" fill="white"/>
</clipPath>
</defs>
</svg>
