<svg width="41" height="40" viewBox="0 0 41 40" fill="none" xmlns="http://www.w3.org/2000/svg">
<g clip-path="url(#clip0_1036_12907)">
<path d="M20.5 0C18.2908 0 16.5 1.79083 16.5 4C16.5 6.20917 18.2908 8 20.5 8C22.7083 7.99783 24.4978 6.20825 24.5 4C24.5 1.79083 22.7092 0 20.5 0ZM20.5 6.66667C19.0273 6.66667 17.8333 5.47275 17.8333 4C17.8333 2.52725 19.0273 1.33333 20.5 1.33333C21.9728 1.33333 23.1667 2.52725 23.1667 4C23.1667 5.47275 21.9728 6.66667 20.5 6.66667Z" fill="black"/>
<path d="M23.1667 8.66602H23.0093L22.8687 8.73602C21.3769 9.47877 19.6231 9.47877 18.1313 8.73602L17.9907 8.66602H17.8333C15.9933 8.66818 14.5022 10.1593 14.5 11.9993V15.9993C14.5 17.1039 15.3954 17.9993 16.5 17.9993H24.5C25.6046 17.9993 26.5 17.1039 26.5 15.9993V11.9993C26.4978 10.1593 25.0067 8.66818 23.1667 8.66602ZM25.1667 15.9993C25.1667 16.3675 24.8682 16.666 24.5 16.666H16.5C16.1318 16.666 15.8333 16.3675 15.8333 15.9993V11.9993C15.8335 10.95 16.6446 10.0792 17.6913 10.0047C19.4726 10.8313 21.5275 10.8313 23.3087 10.0047C24.3553 10.0792 25.1665 10.95 25.1667 11.9993V15.9993Z" fill="black"/>
<path d="M34.5 22C32.2908 22 30.5 23.7908 30.5 26C30.5 28.2092 32.2908 30 34.5 30C36.7092 30 38.5 28.2092 38.5 26C38.4978 23.7917 36.7083 22.0022 34.5 22ZM34.5 28.6667C33.0273 28.6667 31.8333 27.4728 31.8333 26C31.8333 24.5273 33.0273 23.3333 34.5 23.3333C35.9728 23.3333 37.1667 24.5273 37.1667 26C37.1667 27.4728 35.9728 28.6667 34.5 28.6667Z" fill="black"/>
<path d="M37.1667 30.666H37.0093L36.8687 30.7327C35.3769 31.4753 33.6231 31.4753 32.1313 30.7327L31.9907 30.666H31.8333C29.9933 30.6682 28.5022 32.1593 28.5 33.9993V37.9993C28.5 39.1039 29.3954 39.9993 30.5 39.9993H38.5C39.6046 39.9993 40.5 39.1039 40.5 37.9993V33.9993C40.4978 32.1593 39.0067 30.6682 37.1667 30.666ZM39.1667 37.9993C39.1667 38.3675 38.8682 38.666 38.5 38.666H30.5C30.1318 38.666 29.8333 38.3675 29.8333 37.9993V33.9993C29.8335 32.95 30.6446 32.0792 31.6913 32.0047C33.4726 32.8313 35.5274 32.8313 37.3087 32.0047C38.3554 32.0792 39.1665 32.95 39.1667 33.9993V37.9993Z" fill="black"/>
<path d="M6.5 22C4.29083 22 2.5 23.7908 2.5 26C2.5 28.2092 4.29083 30 6.5 30C8.70917 30 10.5 28.2092 10.5 26C10.4978 23.7917 8.70825 22.0022 6.5 22ZM6.5 28.6667C5.02725 28.6667 3.83333 27.4728 3.83333 26C3.83333 24.5273 5.02725 23.3333 6.5 23.3333C7.97275 23.3333 9.16667 24.5273 9.16667 26C9.16667 27.4728 7.97275 28.6667 6.5 28.6667Z" fill="black"/>
<path d="M9.16667 30.666H9.00933L8.86867 30.7327C7.37692 31.4753 5.62308 31.4753 4.13133 30.7327L3.99067 30.666H3.83333C1.99333 30.6682 0.502167 32.1593 0.5 33.9993V37.9993C0.5 39.1039 1.39542 39.9993 2.5 39.9993H10.5C11.6046 39.9993 12.5 39.1039 12.5 37.9993V33.9993C12.4978 32.1593 11.0067 30.6682 9.16667 30.666ZM11.1667 37.9993C11.1667 38.3675 10.8682 38.666 10.5 38.666H2.5C2.13183 38.666 1.83333 38.3675 1.83333 37.9993V33.9993C1.8335 32.95 2.64458 32.0792 3.69133 32.0047C5.47258 32.8313 7.52742 32.8313 9.30867 32.0047C10.3554 32.0792 11.1665 32.95 11.1667 33.9993V37.9993Z" fill="black"/>
<path d="M27.1132 33.8561C27.1129 33.8553 27.1126 33.8546 27.1122 33.8537C26.9679 33.515 26.5763 33.3574 26.2376 33.5017C23.2272 34.7634 19.8839 34.9936 16.729 34.1564L17.353 33.9731C17.7065 33.8696 17.9091 33.4992 17.8056 33.1457C17.7021 32.7922 17.3318 32.5896 16.9783 32.6931L14.3116 33.4751C14.3016 33.4751 14.2943 33.4864 14.285 33.4897C14.2232 33.5127 14.1652 33.5449 14.113 33.5851C14.0898 33.5976 14.0676 33.6116 14.0463 33.6271C13.976 33.6898 13.9202 33.7671 13.883 33.8537C13.8468 33.9409 13.8296 34.0347 13.8323 34.1291C13.8486 34.2193 13.8708 34.3084 13.899 34.3957C13.903 34.4051 13.899 34.4157 13.9063 34.4251L15.2396 36.9764C15.4101 37.303 15.8131 37.4296 16.1396 37.2591C16.4662 37.0886 16.5928 36.6856 16.4223 36.3591L15.8796 35.3217C19.4641 36.3992 23.3126 36.1898 26.759 34.7297C27.098 34.5863 27.2566 34.1951 27.1132 33.8561Z" fill="black"/>
<path d="M38.3036 17.5289C38.0432 17.2687 37.6212 17.2687 37.3609 17.5289L36.4176 18.4723C35.8656 12.6331 32.1583 7.56595 26.7602 5.27228C26.4215 5.12795 26.0299 5.28553 25.8856 5.62428C25.7412 5.96303 25.8988 6.35461 26.2376 6.49895C31.0801 8.55703 34.4462 13.0547 35.0556 18.2809L34.3036 17.5289C34.0387 17.2731 33.6167 17.2804 33.3609 17.5453C33.1114 17.8036 33.1114 18.2132 33.3609 18.4716L35.3609 20.4716C35.6209 20.7323 36.0431 20.7329 36.3037 20.4728C36.3041 20.4724 36.3046 20.4719 36.3049 20.4716L38.3049 18.4716C38.5648 18.2109 38.5642 17.7889 38.3036 17.5289Z" fill="black"/>
<path d="M15.1473 5.77318C15.1452 5.73426 15.1394 5.69568 15.13 5.65785C15.13 5.65185 15.1227 5.64785 15.12 5.64118C15.1173 5.63451 15.12 5.62985 15.12 5.62451C15.1018 5.5921 15.0808 5.56126 15.0573 5.53251C15.0358 5.49343 15.0103 5.4566 14.9813 5.42251C14.9419 5.3876 14.8983 5.35785 14.8513 5.33385C14.8279 5.31393 14.8029 5.29585 14.7767 5.27985L12.11 4.06185C11.7694 3.92201 11.3799 4.08476 11.2401 4.42535C11.1078 4.74743 11.2458 5.1171 11.5567 5.27385L12.9373 5.90518C7.73959 8.68693 4.49625 14.1052 4.5 20.0005C4.5 20.3687 4.7985 20.6672 5.16667 20.6672C5.53484 20.6672 5.83334 20.3687 5.83334 20.0005C5.83 14.8094 8.57509 10.0045 13.0487 7.37118L12.5667 8.37851C12.4078 8.70993 12.547 9.10743 12.878 9.26718C12.9679 9.3111 13.0666 9.33393 13.1667 9.33385C13.4227 9.33351 13.6558 9.1866 13.7667 8.95585L15.1 6.17385C15.1 6.16718 15.1 6.15985 15.1053 6.15318C15.1227 6.1076 15.1348 6.06018 15.1413 6.01185C15.1528 5.97593 15.1613 5.93918 15.1667 5.90185C15.1644 5.85843 15.158 5.81535 15.1473 5.77318Z" fill="black"/>
</g>
<defs>
<clipPath id="clip0_1036_12907">
<rect width="40" height="40" fill="white" transform="translate(0.5)"/>
</clipPath>
</defs>
</svg>
