<svg width="52" height="52" viewBox="0 0 52 52" fill="none" xmlns="http://www.w3.org/2000/svg">
<path d="M46.7621 1.41113H13.3264C11.2201 1.41113 9.50626 3.125 9.50626 5.2313V29.8248H5.23423C3.12793 29.8248 1.41406 31.5386 1.41406 33.6449V46.7684C1.41406 48.8747 3.12793 50.5883 5.23423 50.5883H18.3509C20.4572 50.5883 22.1711 48.8748 22.1711 46.7684V42.5003H46.762C48.8683 42.5003 50.5822 40.7868 50.5822 38.6804V5.2313C50.5823 3.125 48.8684 1.41113 46.7621 1.41113ZM20.6345 46.7685C20.6345 48.0273 19.6102 49.0516 18.351 49.0516H5.23423C3.97506 49.0516 2.9508 48.0273 2.9508 46.7685V33.645C2.9508 32.3859 3.97506 31.3616 5.23423 31.3616H18.3509C19.6101 31.3616 20.6344 32.3859 20.6344 33.645V46.7685H20.6345ZM49.0456 38.6805C49.0456 39.9393 48.0213 40.9635 46.7621 40.9635H22.1712V33.645C22.1712 32.8695 21.9358 32.1491 21.537 31.5459L43.4536 9.62927V13.5685C43.4536 13.9928 43.7973 14.3369 44.222 14.3369C44.6468 14.3369 44.9905 13.9928 44.9905 13.5685V7.77433C44.9905 7.36026 44.6512 7.00591 44.222 7.00591H38.4276C38.0029 7.00591 37.6592 7.35 37.6592 7.77433C37.6592 8.19866 38.0029 8.54275 38.4276 8.54275H42.3671L20.4505 30.4592C19.8472 30.0603 19.1267 29.8248 18.3509 29.8248H11.0429V5.2313C11.0429 3.97213 12.0672 2.94787 13.3263 2.94787H46.762C48.0212 2.94787 49.0455 3.97213 49.0455 5.2313V38.6805H49.0456Z" fill="black"/>
</svg>
