<svg width="52" height="52" viewBox="0 0 52 52" fill="none" xmlns="http://www.w3.org/2000/svg">
<path d="M34.4407 30.1742L33.6688 30.1641L33.4352 30.3773C31.1501 32.4492 28.6516 33.4953 26.0009 33.4953C23.3501 33.4953 20.8516 32.4492 18.5665 30.3773L18.3329 30.1641L17.561 30.1742C12.1477 30.8039 8.10555 36.0344 8.56258 41.9148L10.1571 51.7969H41.8345L43.4391 41.8438C43.8962 36.0344 39.854 30.8039 34.4407 30.1742ZM41.7938 41.6508L40.4227 50.1313H11.579L10.2181 41.7219C9.83211 36.8164 13.1938 32.3883 17.7032 31.8398C20.2118 34.0234 23.0759 35.1711 26.011 35.1711C28.9462 35.1711 31.8102 34.0234 34.3188 31.8398C38.8079 32.3883 42.1696 36.8063 41.7938 41.6508Z" fill="black"/>
<path d="M33.4844 41.001H38.4812V42.6666H33.4844V41.001Z" fill="black"/>
<path d="M11.8438 20.1805H14.3423V11.8523H13.1032C14.5962 6.0125 19.8673 1.85859 26.0016 1.85859C32.1258 1.85859 37.3969 6.00234 38.9001 11.8523H37.661V20.1805H39.3266V22.6789H35.1118C36.1985 20.3734 36.8282 17.9055 36.8282 15.8438C36.8282 9.97344 31.9735 5.2 26.0016 5.2C20.0298 5.2 15.1751 9.97344 15.1751 15.8438C15.1751 21.4805 19.8266 30.1742 26.0016 30.1742C29.3633 30.1742 32.268 27.6047 34.218 24.3445H40.9821V20.0281C41.9469 19.6828 42.6477 18.7688 42.6477 17.682V14.3508C42.6477 13.132 41.7641 12.1164 40.6063 11.9031C39.0829 5.08828 33.0501 0.203125 26.0016 0.203125C18.943 0.203125 12.9102 5.08828 11.3969 11.9031C10.2391 12.1164 9.35554 13.132 9.35554 14.3508V17.682C9.34538 19.0633 10.4727 20.1805 11.8438 20.1805ZM33.2633 22.6789H27.6571V21.8461H26.0016V25.1773H27.6673V24.3445H32.268C30.6329 26.7312 28.429 28.5086 26.0016 28.5086C20.9438 28.5086 16.8407 20.8508 16.8407 15.8438C16.8407 10.8875 20.9438 6.86562 26.0016 6.86562C31.0493 6.86562 35.1626 10.8977 35.1626 15.8438C35.1524 17.9156 34.4415 20.4344 33.2633 22.6789ZM39.3165 13.5281H40.1493C40.6063 13.5281 40.9821 13.9039 40.9821 14.3609V17.6922C40.9821 18.1492 40.6063 18.525 40.1493 18.525H39.3165V13.5281ZM11.011 14.3508C11.011 13.8938 11.3868 13.518 11.8438 13.518H12.6766V18.5148H11.8438C11.3868 18.5148 11.011 18.1391 11.011 17.682V14.3508Z" fill="black"/>
</svg>
