<svg width="32" height="32" viewBox="0 0 32 32" fill="none" xmlns="http://www.w3.org/2000/svg">
<path d="M18.2678 20.1013C18.1804 20.1014 18.0945 20.0786 18.0187 20.0351C17.9428 19.9916 17.8797 19.929 17.8357 19.8535L15.7864 16.3469C15.6449 16.1051 15.5703 15.8299 15.5703 15.5498V10.2607C15.5703 10.1281 15.623 10.001 15.7168 9.90719C15.8105 9.81342 15.9377 9.76074 16.0703 9.76074C16.2029 9.76074 16.3301 9.81342 16.4239 9.90719C16.5176 10.001 16.5703 10.1281 16.5703 10.2607V15.5498C16.5703 15.6526 16.5977 15.7536 16.6497 15.8423L18.699 19.3491C18.7433 19.425 18.7668 19.5113 18.7672 19.5993C18.7676 19.6872 18.7447 19.7736 18.701 19.8499C18.6573 19.9262 18.5942 19.9896 18.5181 20.0338C18.4421 20.0779 18.3558 20.1012 18.2678 20.1013Z" fill="black"/>
<path d="M24.437 20.6198C25.2736 19.1666 25.7139 17.5191 25.7139 15.8423C25.7139 14.1654 25.2736 12.518 24.437 11.0647C24.4326 11.0487 24.4273 11.0328 24.4211 11.0173C24.4084 11.0007 24.3945 10.985 24.3796 10.9702C23.5429 9.54841 22.3578 8.36324 20.9359 7.52661C20.9248 7.51121 20.9107 7.49818 20.8944 7.4883C20.8782 7.47841 20.8601 7.47187 20.8413 7.46906C19.3881 6.63263 17.7408 6.19239 16.064 6.19238C14.3873 6.19237 12.74 6.63258 11.2868 7.46899C11.2679 7.47181 11.2498 7.47836 11.2336 7.48825C11.2173 7.49815 11.2032 7.51119 11.192 7.52661C9.76994 8.36335 8.58463 9.54873 7.74798 10.9708C7.73332 10.9854 7.71964 11.0009 7.70703 11.0173C7.70099 11.0326 7.69576 11.0481 7.69137 11.0639C6.85452 12.5173 6.41406 14.1651 6.41406 15.8423C6.41406 17.5195 6.85452 19.1672 7.69137 20.6207C7.69576 20.6365 7.70099 20.652 7.70703 20.6672C7.72421 20.6946 7.74403 20.7202 7.7662 20.7437C8.60179 22.1526 9.78029 23.3271 11.192 24.158C11.2067 24.1728 11.2224 24.1867 11.239 24.1995C11.2602 24.2101 11.2822 24.2191 11.3048 24.2266C12.7538 25.0559 14.3944 25.4922 16.064 25.4922C17.7335 25.4922 19.3741 25.0559 20.8231 24.2266C20.8457 24.2191 20.8677 24.2101 20.8889 24.1995C20.9055 24.1867 20.9212 24.1728 20.9359 24.158C22.3471 23.3274 23.5253 22.1534 24.3608 20.7452C24.3835 20.7213 24.4037 20.6952 24.4211 20.6672C24.4273 20.6517 24.4326 20.6359 24.437 20.6198ZM20.8114 23.0649L20.2622 22.1135C20.2294 22.0567 20.1857 22.0068 20.1336 21.9668C20.0815 21.9268 20.022 21.8975 19.9586 21.8805C19.8951 21.8635 19.829 21.8592 19.7639 21.8677C19.6988 21.8763 19.636 21.8976 19.5791 21.9304C19.5222 21.9633 19.4724 22.007 19.4324 22.0591C19.3924 22.1112 19.3631 22.1706 19.3461 22.2341C19.3291 22.2975 19.3247 22.3636 19.3333 22.4288C19.3419 22.4939 19.3632 22.5567 19.396 22.6135L19.9438 23.5624C18.8913 24.0929 17.7407 24.4008 16.564 24.4669V23.3726C16.564 23.24 16.5113 23.1128 16.4175 23.019C16.3237 22.9253 16.1966 22.8726 16.064 22.8726C15.9314 22.8726 15.8042 22.9253 15.7104 23.019C15.6166 23.1128 15.564 23.24 15.564 23.3726V24.4669C14.3872 24.4008 13.2367 24.0929 12.1842 23.5624L12.7319 22.6135C12.7648 22.5567 12.7861 22.4939 12.7947 22.4287C12.8033 22.3636 12.799 22.2974 12.782 22.234C12.765 22.1705 12.7357 22.111 12.6957 22.0589C12.6557 22.0068 12.6058 21.963 12.549 21.9302C12.4921 21.8974 12.4293 21.8761 12.3641 21.8675C12.299 21.8589 12.2328 21.8633 12.1694 21.8803C12.1059 21.8973 12.0464 21.9267 11.9943 21.9667C11.9422 22.0067 11.8985 22.0566 11.8657 22.1135L11.3165 23.0649C10.3326 22.4158 9.49055 21.5737 8.84143 20.5898L9.79272 20.0405C9.90752 19.9742 9.99127 19.865 10.0256 19.7369C10.0599 19.6088 10.0419 19.4724 9.97561 19.3576C9.90932 19.2427 9.80015 19.1589 9.6721 19.1246C9.54404 19.0902 9.40758 19.1081 9.29272 19.1743L8.3439 19.7221C7.81337 18.6696 7.50546 17.5191 7.4394 16.3423H8.53394C8.66655 16.3423 8.79373 16.2896 8.8875 16.1958C8.98126 16.1021 9.03394 15.9749 9.03394 15.8423C9.03394 15.7097 8.98126 15.5825 8.8875 15.4887C8.79373 15.395 8.66655 15.3423 8.53394 15.3423H7.43939C7.50545 14.1655 7.81336 13.0149 8.34389 11.9624L9.29272 12.5103C9.40758 12.5765 9.54404 12.5944 9.6721 12.56C9.80015 12.5257 9.90932 12.4419 9.97561 12.327C10.0419 12.2122 10.0599 12.0758 10.0256 11.9477C9.99127 11.8196 9.90752 11.7104 9.79272 11.6441L8.84143 11.0948C9.49055 10.1108 10.3326 9.26879 11.3165 8.61967L11.8657 9.57102C11.8985 9.62793 11.9422 9.67782 11.9943 9.71784C12.0464 9.75786 12.1059 9.78721 12.1694 9.80424C12.2328 9.82126 12.299 9.82562 12.3641 9.81706C12.4293 9.8085 12.4921 9.78719 12.549 9.75435C12.6058 9.72151 12.6557 9.67778 12.6957 9.62566C12.7357 9.57354 12.765 9.51405 12.782 9.4506C12.799 9.38714 12.8033 9.32095 12.7947 9.25583C12.7861 9.1907 12.7648 9.1279 12.7319 9.07102L12.1842 8.12217C13.2366 7.59164 14.3872 7.28373 15.564 7.21767V8.31227C15.564 8.44488 15.6166 8.57205 15.7104 8.66582C15.8042 8.75959 15.9314 8.81227 16.064 8.81227C16.1966 8.81227 16.3237 8.75959 16.4175 8.66582C16.5113 8.57205 16.564 8.44488 16.564 8.31227V7.21771C17.7407 7.28377 18.8913 7.59168 19.9438 8.12221L19.396 9.07106C19.3297 9.18593 19.3117 9.32243 19.3461 9.45054C19.3804 9.57865 19.4642 9.68787 19.5791 9.75417C19.694 9.82048 19.8305 9.83843 19.9586 9.80409C20.0867 9.76975 20.1959 9.68593 20.2622 9.57106L20.8114 8.61971C21.7954 9.26885 22.6374 10.1109 23.2866 11.0949L22.3352 11.6441C22.2204 11.7104 22.1367 11.8196 22.1024 11.9477C22.0681 12.0758 22.086 12.2122 22.1523 12.327C22.2186 12.4419 22.3278 12.5257 22.4558 12.56C22.5839 12.5944 22.7203 12.5765 22.8352 12.5103L23.7841 11.9625C24.3146 13.015 24.6225 14.1655 24.6886 15.3423H23.5943C23.4616 15.3423 23.3345 15.395 23.2407 15.4888C23.1469 15.5825 23.0943 15.7097 23.0943 15.8423C23.0943 15.9749 23.1469 16.1021 23.2407 16.1959C23.3345 16.2896 23.4616 16.3423 23.5943 16.3423H24.6886C24.6225 17.5191 24.3146 18.6696 23.7841 19.7221L22.8352 19.1743C22.7203 19.1081 22.5839 19.0902 22.4558 19.1246C22.3278 19.1589 22.2186 19.2427 22.1523 19.3576C22.086 19.4724 22.0681 19.6088 22.1024 19.7369C22.1367 19.865 22.2204 19.9742 22.3352 20.0405L23.2866 20.5897C22.6374 21.5737 21.7954 22.4157 20.8114 23.0649Z" fill="black"/>
<path d="M28.9286 24.11L27.0435 24.5976C28.9767 22.1091 30.0125 19.0404 29.9828 15.8894C29.9532 12.7384 28.8598 9.68976 26.8801 7.23811C24.9003 4.78646 22.1504 3.07555 19.0763 2.38292C16.0022 1.69028 12.7842 2.05654 9.94439 3.42229C7.10456 4.78804 4.80943 7.07317 3.43129 9.90701C2.05316 12.7408 1.67285 15.9572 2.35205 19.0343C3.03126 22.1114 4.73014 24.8688 7.17312 26.8592C9.61611 28.8496 12.6599 29.9563 15.8108 29.9997H15.8176C15.9502 30.0005 16.0777 29.9487 16.1721 29.8555C16.2665 29.7623 16.3199 29.6355 16.3208 29.5029C16.3216 29.3703 16.2698 29.2428 16.1766 29.1484C16.0834 29.054 15.9566 29.0005 15.824 28.9997C12.8921 28.9619 10.059 27.9344 7.78457 26.0839C5.5101 24.2335 3.9277 21.6688 3.29415 18.8059C2.66061 15.9431 3.0131 12.9501 4.29444 10.3128C5.57577 7.67548 7.71074 5.54855 10.3529 4.27718C12.995 3.00581 15.9893 2.66462 18.8497 3.30897C21.7101 3.95332 24.2689 5.5454 26.1107 7.82684C27.9525 10.1083 28.9693 12.9452 28.9961 15.8772C29.0229 18.8092 28.0581 21.6642 26.2582 23.9789L26.4112 22.0144C26.4215 21.8822 26.3789 21.7513 26.2927 21.6506C26.2065 21.5498 26.0838 21.4874 25.9516 21.4772C25.8194 21.4669 25.6886 21.5095 25.5878 21.5957C25.4871 21.6819 25.4247 21.8046 25.4144 21.9367L25.1729 25.0357C25.1636 25.1609 25.1842 25.2865 25.2332 25.4022C25.2821 25.5178 25.3579 25.6202 25.4542 25.7007C25.5506 25.7812 25.6647 25.8376 25.7872 25.8652C25.9097 25.8928 26.037 25.8909 26.1586 25.8594L29.1788 25.0784C29.2423 25.0619 29.3021 25.0331 29.3545 24.9936C29.407 24.9541 29.4511 24.9047 29.4845 24.8481C29.5178 24.7915 29.5397 24.7289 29.5488 24.6639C29.558 24.5989 29.5542 24.5327 29.5378 24.4691C29.5214 24.4055 29.4926 24.3458 29.4531 24.2933C29.4136 24.2409 29.3641 24.1967 29.3076 24.1634C29.251 24.13 29.1884 24.1082 29.1234 24.099C29.0583 24.0899 28.9922 24.0936 28.9286 24.11Z" fill="black"/>
</svg>
