<svg width="52" height="52" viewBox="0 0 52 52" fill="none" xmlns="http://www.w3.org/2000/svg">
<g clip-path="url(#clip0_989_14732)">
<path d="M37.2651 0H14.7318C13.5829 0.00137614 12.4815 0.458364 11.6692 1.27072C10.8568 2.08308 10.3998 3.18448 10.3984 4.33333V47.6667C10.3998 48.8155 10.8568 49.9169 11.6692 50.7293C12.4815 51.5416 13.5829 51.9986 14.7318 52H37.2651C38.414 51.9986 39.5154 51.5416 40.3277 50.7293C41.1401 49.9169 41.5971 48.8155 41.5984 47.6667V4.33333C41.5971 3.18448 41.1401 2.08308 40.3277 1.27072C39.5154 0.458364 38.414 0.00137614 37.2651 0ZM20.7984 1.73333H31.1984V2.6C31.1984 2.82985 31.1071 3.05029 30.9446 3.21283C30.7821 3.37536 30.5616 3.46667 30.3318 3.46667H21.6651C21.4353 3.46667 21.2148 3.37536 21.0523 3.21283C20.8897 3.05029 20.7984 2.82985 20.7984 2.6V1.73333ZM39.8651 47.6667C39.8651 48.3562 39.5912 49.0175 39.1036 49.5051C38.616 49.9927 37.9547 50.2667 37.2651 50.2667H14.7318C14.0422 50.2667 13.3809 49.9927 12.8933 49.5051C12.4057 49.0175 12.1318 48.3562 12.1318 47.6667V4.33333C12.1318 3.64377 12.4057 2.98245 12.8933 2.49486C13.3809 2.00726 14.0422 1.73333 14.7318 1.73333H19.0651V2.6C19.0651 3.28956 19.339 3.95088 19.8266 4.43848C20.3142 4.92607 20.9755 5.2 21.6651 5.2H30.3318C31.0213 5.2 31.6827 4.92607 32.1702 4.43848C32.6578 3.95088 32.9318 3.28956 32.9318 2.6V1.73333H37.2651C37.9547 1.73333 38.616 2.00726 39.1036 2.49486C39.5912 2.98245 39.8651 3.64377 39.8651 4.33333V47.6667Z" fill="black"/>
<path d="M32.0703 46.7998H19.937C19.7071 46.7998 19.4867 46.8911 19.3242 47.0536C19.1616 47.2162 19.0703 47.4366 19.0703 47.6665C19.0703 47.8963 19.1616 48.1168 19.3242 48.2793C19.4867 48.4418 19.7071 48.5331 19.937 48.5331H32.0703C32.3002 48.5331 32.5206 48.4418 32.6831 48.2793C32.8457 48.1168 32.937 47.8963 32.937 47.6665C32.937 47.4366 32.8457 47.2162 32.6831 47.0536C32.5206 46.8911 32.3002 46.7998 32.0703 46.7998Z" fill="black"/>
<path d="M21.6698 28.067C22.5892 28.067 23.471 27.7018 24.1211 27.0516C24.7712 26.4015 25.1365 25.5197 25.1365 24.6003V18.5337C25.1365 18.3038 25.0452 18.0834 24.8826 17.9208C24.7201 17.7583 24.4996 17.667 24.2698 17.667C24.0399 17.667 23.8195 17.7583 23.657 17.9208C23.4944 18.0834 23.4031 18.3038 23.4031 18.5337V24.6003C23.4031 25.06 23.2205 25.5009 22.8954 25.826C22.5704 26.151 22.1295 26.3337 21.6698 26.3337C21.2101 26.3337 20.7692 26.151 20.4441 25.826C20.1191 25.5009 19.9365 25.06 19.9365 24.6003V18.5337C19.9365 18.3038 19.8451 18.0834 19.6826 17.9208C19.5201 17.7583 19.2996 17.667 19.0698 17.667C18.8399 17.667 18.6195 17.7583 18.457 17.9208C18.2944 18.0834 18.2031 18.3038 18.2031 18.5337V24.6003C18.2031 25.5197 18.5684 26.4015 19.2185 27.0516C19.8686 27.7018 20.7504 28.067 21.6698 28.067Z" fill="black"/>
<path d="M27.2873 27.9423C27.4843 28.0607 27.7203 28.0959 27.9432 28.0404C28.1662 27.9848 28.358 27.8429 28.4764 27.6459L30.3337 24.5511L32.1909 27.6459C32.3114 27.8385 32.5027 27.976 32.7236 28.029C32.9445 28.0819 33.1773 28.0461 33.372 27.9291C33.5667 27.8121 33.7077 27.6233 33.7646 27.4034C33.8215 27.1835 33.7899 26.9501 33.6764 26.7533L31.3442 22.8663L33.6764 18.9793C33.7899 18.7825 33.8215 18.549 33.7646 18.3292C33.7077 18.1093 33.5667 17.9205 33.372 17.8035C33.1773 17.6865 32.9445 17.6506 32.7236 17.7036C32.5027 17.7565 32.3114 17.8941 32.1909 18.0866L30.3337 21.1815L28.4764 18.0866C28.3559 17.8941 28.1646 17.7565 27.9437 17.7036C27.7229 17.6506 27.49 17.6865 27.2953 17.8035C27.1006 17.9205 26.9596 18.1093 26.9027 18.3292C26.8458 18.549 26.8775 18.7825 26.9909 18.9793L29.3231 22.8663L26.9909 26.7533C26.8726 26.9503 26.8373 27.1862 26.8929 27.4092C26.9485 27.6322 27.0904 27.8239 27.2873 27.9423Z" fill="black"/>
<path d="M36.1584 31.7017L15.3584 37.7683C15.2491 37.8002 15.1472 37.8533 15.0585 37.9245C14.9697 37.9958 14.8959 38.0838 14.8411 38.1836C14.7864 38.2834 14.7519 38.393 14.7395 38.5061C14.7271 38.6193 14.7372 38.7337 14.769 38.843C14.8009 38.9523 14.854 39.0542 14.9252 39.1429C14.9965 39.2317 15.0845 39.3055 15.1843 39.3602C15.2841 39.415 15.3937 39.4495 15.5068 39.4619C15.62 39.4742 15.7344 39.4642 15.8437 39.4323L36.6437 33.3657C36.8644 33.3013 37.0504 33.1519 37.1609 32.9504C37.2715 32.7488 37.2974 32.5117 37.233 32.291C37.1687 32.0703 37.0193 31.8843 36.8178 31.7738C36.6162 31.6632 36.379 31.6373 36.1584 31.7017Z" fill="black"/>
</g>
<defs>
<clipPath id="clip0_989_14732">
<rect width="52" height="52" fill="white"/>
</clipPath>
</defs>
</svg>
