<svg width="41" height="40" viewBox="0 0 41 40" fill="none" xmlns="http://www.w3.org/2000/svg">
<path d="M34.3196 26.726C33.3499 26.3624 32.259 26.4836 31.2893 27.0897L25.4711 30.6048C25.2287 30.423 24.9863 30.2412 24.7438 30.1806L15.956 27.0291C15.2893 26.7866 14.562 26.7866 13.956 27.0897C13.956 27.0897 13.8954 27.0897 13.8954 27.1503L10.3802 29.2715V29.0897C10.3802 28.423 9.83475 27.8775 9.16809 27.8775H6.259C5.59233 27.8775 5.04688 28.423 5.04688 29.0897V38.1806C5.04688 38.8472 5.59233 39.3927 6.259 39.3927H9.10748C9.77415 39.3927 10.3196 38.8472 10.3196 38.1806V37.8775C11.6529 37.1503 12.1984 36.4836 13.1075 36.6048L22.8045 38.726C23.5923 38.9685 24.4408 38.7866 25.1681 38.3018L35.0469 30.4836C36.3802 29.5745 36.259 27.4533 34.3196 26.726ZM6.259 38.1806V29.0897H9.10748V38.1806H6.259ZM34.3196 29.5139C24.259 37.1503 24.5014 37.9382 23.1075 37.5139L13.3499 35.3927H13.2893C11.8954 35.1503 10.9257 36.12 10.3196 36.423V30.6048L14.4408 28.12C14.8045 27.9988 15.1681 27.9988 15.5317 28.12L24.3196 31.2715C25.1075 31.5745 25.4105 32.5442 24.9257 33.2109C24.562 33.6957 23.956 33.8775 23.3499 33.6351L18.1378 31.6351C17.8348 31.5139 17.4711 31.6957 17.3499 31.9988C17.2287 32.3018 17.4105 32.6654 17.7135 32.7866L22.9257 34.7866C24.0166 35.2715 25.2287 34.9078 25.8954 33.9988C26.3802 33.3321 26.562 32.5442 26.1984 31.6351L31.956 28.1806C32.562 27.8169 33.2893 27.6957 33.956 27.9382C34.8651 28.2412 34.9257 29.0897 34.3196 29.5139Z" fill="black"/>
<path d="M19.471 20.6664C20.0165 21.0301 20.3801 21.6361 20.5013 22.2422C19.9559 22.5452 19.6528 23.1513 19.6528 23.7573C19.6528 24.6058 20.2589 25.3331 21.1074 25.5149L21.3498 27.4543C21.4104 27.7573 21.6528 27.9998 21.9559 27.9998H26.6832C26.9862 27.9998 27.2286 27.7573 27.2892 27.4543L27.5316 25.4543C28.2589 25.2119 28.865 24.5452 28.865 23.7573C28.865 23.0907 28.5013 22.5452 28.0165 22.2422C28.0771 21.6361 28.4407 21.0301 29.0468 20.6058C31.2892 19.0301 32.6831 16.4846 32.6831 13.7573C32.6831 9.03006 28.7438 5.21188 23.9559 5.4543C19.6528 5.63612 16.0771 9.33309 16.0165 13.6361C15.8347 16.4846 17.168 19.0907 19.471 20.6664ZM22.4407 26.8482L22.3195 25.6361H26.2589L26.1377 26.8482H22.4407ZM26.9256 24.424H21.4104C21.1074 24.424 20.8044 24.1816 20.8044 23.8179C20.8044 23.5149 21.0468 23.2119 21.4104 23.2119H26.9256C27.2286 23.2119 27.5316 23.4543 27.5316 23.8179C27.5316 24.121 27.2892 24.424 26.9256 24.424ZM23.8347 6.72703C27.8953 6.54521 31.2892 9.81794 31.2892 13.8179C31.2892 16.1816 30.1377 18.3634 28.1983 19.6967C27.3498 20.2422 26.8044 21.0907 26.6832 22.0604H21.7135C21.5922 21.1513 21.0468 20.3028 20.1983 19.6967C18.2589 18.3634 17.1074 16.121 17.1074 13.7573C17.168 10.0604 20.1983 6.90885 23.8347 6.72703Z" fill="black"/>
<path d="M24.0182 9.75749C26.3213 9.63628 28.2607 11.5151 28.2607 13.8181C28.2607 14.1817 28.5031 14.4242 28.8667 14.4242C29.2303 14.4242 29.4728 14.1817 29.4728 13.8181C29.4728 10.8484 26.9879 8.42416 23.9576 8.54537C23.594 8.54537 23.3516 8.8484 23.3516 9.15143C23.3516 9.51507 23.6546 9.75749 24.0182 9.75749Z" fill="black"/>
<path d="M24.1998 4.18123C24.5634 4.18123 24.8059 3.9388 24.8059 3.57517V1.21153C24.8059 0.847893 24.5634 0.605469 24.1998 0.605469C23.8362 0.605469 23.5938 0.847893 23.5938 1.21153V3.57517C23.5938 3.9388 23.8362 4.18123 24.1998 4.18123Z" fill="black"/>
<path d="M19.8957 4.48364C20.0169 4.72607 20.1987 4.84728 20.4412 4.84728C20.5018 4.84728 20.623 4.84728 20.6836 4.78668C20.9866 4.66546 21.1684 4.30183 20.9866 3.9988L20.0775 1.81698C19.9563 1.51395 19.5927 1.33213 19.2896 1.51395C18.9866 1.63516 18.8048 1.9988 18.9866 2.30183L19.8957 4.48364Z" fill="black"/>
<path d="M16.8632 6.78782C17.1056 7.03024 17.4692 7.03024 17.7116 6.78782C17.9541 6.5454 17.9541 6.18176 17.7116 5.93933L16.0147 4.24237C15.7723 3.99994 15.4086 3.99994 15.1662 4.24237C14.9238 4.48479 14.9238 4.84843 15.1662 5.09085L16.8632 6.78782Z" fill="black"/>
<path d="M31.4717 6.96946L33.1687 5.27249C33.4111 5.03007 33.4111 4.66643 33.1687 4.42401C32.9263 4.18158 32.5626 4.18158 32.3202 4.42401L30.6232 6.06037C30.3808 6.30279 30.3808 6.66643 30.6232 6.90885C30.805 7.15128 31.2293 7.15128 31.4717 6.96946Z" fill="black"/>
<path d="M27.6542 4.90902C27.7148 4.96963 27.836 4.96963 27.8966 4.96963C28.139 4.96963 28.3814 4.84841 28.442 4.60599L29.3511 2.42417C29.4723 2.12114 29.3511 1.7575 29.0481 1.63629C28.7451 1.51508 28.3814 1.63629 28.2602 1.93932L27.3511 4.12114C27.2299 4.42417 27.3511 4.78781 27.6542 4.90902Z" fill="black"/>
</svg>
