<svg width="52" height="52" viewBox="0 0 52 52" fill="none" xmlns="http://www.w3.org/2000/svg">
<path d="M50.8777 47.3197L47.57 50.6274C47.4312 50.7662 47.2493 50.8356 47.0673 50.8356C46.8853 50.8356 46.7034 50.7661 46.5646 50.6274C46.2869 50.3498 46.2869 49.8996 46.5646 49.622L48.6587 47.5279H36.5915C36.1989 47.5279 35.8806 47.2096 35.8806 46.817C35.8806 46.4243 36.1989 46.1061 36.5915 46.1061H48.6587L46.5646 44.0119C46.2869 43.7344 46.2869 43.2841 46.5646 43.0066C46.8421 42.729 47.2924 42.729 47.5699 43.0066L50.8776 46.3143C51.1554 46.592 51.1554 47.0421 50.8777 47.3197ZM47.7783 25.7498C47.7783 19.9327 45.5129 14.4636 41.3995 10.3503C37.3547 6.30544 31.9989 4.04922 26.2903 3.97508L27.8877 2.37761C28.1654 2.10004 28.1654 1.64981 27.8877 1.37224C27.6102 1.09467 27.1599 1.09467 26.8824 1.37224L24.2072 4.0474C17.6226 4.58822 11.62 8.08623 7.8977 13.6395C7.67904 13.9656 7.76628 14.4073 8.0924 14.6258C8.41852 14.8443 8.86021 14.7573 9.07877 14.4311C12.5456 9.25897 18.1283 5.99354 24.2566 5.46958L26.8824 8.09537C27.0212 8.23421 27.2031 8.30358 27.3851 8.30358C27.5671 8.30358 27.749 8.23411 27.8878 8.09537C28.1655 7.8178 28.1655 7.36758 27.8878 7.09001L26.1938 5.39594C37.3293 5.50045 46.3564 14.5901 46.3564 25.7498C46.3564 36.9744 37.2167 46.1062 25.9824 46.1062H1.625C1.23236 46.1062 0.914062 46.4244 0.914062 46.8171C0.914062 47.2097 1.23236 47.528 1.625 47.528H25.9824C31.8071 47.528 37.2816 45.2628 41.3972 41.1495C45.5121 37.0369 47.7783 31.5679 47.7783 25.7498ZM8.0925 36.8738C7.76638 37.0924 7.67914 37.534 7.8978 37.8602C9.9127 40.8663 12.667 43.3453 15.8627 45.0293C15.9685 45.0849 16.0818 45.1115 16.1935 45.1115C16.4489 45.1115 16.6958 44.9734 16.8231 44.7318C17.0061 44.3845 16.873 43.9544 16.5255 43.7714C13.5379 42.1971 10.9629 39.8794 9.07877 37.0686C8.86031 36.7424 8.41862 36.6551 8.0925 36.8738ZM17.9911 25.7498C17.9911 21.3336 21.5839 17.7409 26 17.7409C30.4161 17.7409 34.0089 21.3336 34.0089 25.7498C34.0089 30.1659 30.4161 33.7587 26 33.7587C21.5839 33.7587 17.9911 30.1659 17.9911 25.7498ZM19.413 25.7498C19.413 29.382 22.3679 32.3368 26 32.3368C29.6321 32.3368 32.587 29.3819 32.587 25.7498C32.587 22.1177 29.6322 19.1626 26 19.1626C22.3678 19.1626 19.413 22.1176 19.413 25.7498ZM14.2554 20.8851C14.5833 20.0936 14.6051 18.9193 13.6833 17.9974C13.0171 17.3312 13.0171 16.2472 13.6833 15.581L15.8314 13.433C16.4976 12.7667 17.5815 12.7668 18.2477 13.433C19.1697 14.355 20.3441 14.333 21.1355 14.0051C21.9269 13.6772 22.7726 12.8625 22.7726 11.5588C22.7726 10.6167 23.5391 9.85017 24.4812 9.85017H27.5189C28.461 9.85017 29.2275 10.6167 29.2275 11.5588C29.2275 12.8624 30.0732 13.6772 30.8647 14.0051C31.6563 14.333 32.8305 14.3549 33.7524 13.433C34.4186 12.7667 35.5026 12.7668 36.1687 13.433L38.3168 15.581C38.6395 15.9037 38.8172 16.3328 38.8172 16.7892C38.8172 17.2456 38.6395 17.6747 38.3167 17.9974C37.3949 18.9192 37.4167 20.0935 37.7447 20.885C38.0725 21.6765 38.8873 22.5222 40.1909 22.5222C41.1331 22.5222 41.8996 23.2887 41.8996 24.2308V27.2684C41.8996 28.2105 41.1331 28.977 40.1909 28.977C38.8873 28.977 38.0725 29.8227 37.7447 30.6142C37.4167 31.4058 37.3949 32.5801 38.3168 33.5019C38.6395 33.8246 38.8172 34.2537 38.8172 34.7101C38.8172 35.1666 38.6395 35.5957 38.3168 35.9183L36.1688 38.0663C35.8462 38.3889 35.4171 38.5667 34.9607 38.5667C34.5042 38.5667 34.0751 38.3889 33.7525 38.0663C32.8305 37.1444 31.6562 37.1663 30.8647 37.4942C30.0733 37.822 29.2276 38.6368 29.2276 39.9405C29.2276 40.8826 28.4611 41.6491 27.519 41.6491H24.4813C23.5392 41.6491 22.7728 40.8826 22.7728 39.9405C22.7728 38.6347 21.9274 37.8194 21.1365 37.4917C20.3455 37.164 19.1711 37.1429 18.2479 38.0663C17.9253 38.3889 17.4962 38.5667 17.0397 38.5667C16.5833 38.5667 16.1542 38.3889 15.8316 38.0662L13.6836 35.9182C13.0174 35.252 13.0175 34.168 13.6836 33.5018C14.6055 32.58 14.5836 31.4057 14.2557 30.6141C13.9279 29.8226 13.113 28.9769 11.8094 28.9769C10.8672 28.9769 10.1007 28.2104 10.1007 27.2683V24.2307C10.1007 23.2886 10.8672 22.5221 11.8094 22.5221C13.1127 22.5223 13.9276 21.6766 14.2554 20.8851ZM15.569 21.4293C14.9264 22.9806 13.4858 23.9443 11.8091 23.9443C11.6509 23.9443 11.5223 24.073 11.5223 24.231V27.2686C11.5223 27.4268 11.6509 27.5554 11.8091 27.5554C13.4858 27.5554 14.9264 28.519 15.569 30.0702C16.2116 31.6216 15.8743 33.322 14.6887 34.5075C14.5769 34.6193 14.5769 34.8013 14.6887 34.9132L16.8366 37.0611C16.9096 37.1341 16.9951 37.1451 17.0394 37.1451C17.0838 37.1451 17.1692 37.1342 17.2423 37.0611C18.0314 36.272 19.0476 35.858 20.0961 35.858C20.6244 35.858 21.1607 35.9631 21.6804 36.1783C23.2312 36.8206 24.1945 38.2624 24.1945 39.9407C24.1945 40.0988 24.3232 40.2274 24.4812 40.2274H27.5189C27.677 40.2274 27.8056 40.0987 27.8056 39.9407C27.8056 38.264 28.7692 36.8233 30.3206 36.1808C31.8719 35.5382 33.5721 35.8755 34.7577 37.061C34.8697 37.1728 35.0516 37.1728 35.1634 37.061L37.3113 34.9131C37.3843 34.84 37.3953 34.7546 37.3953 34.7102C37.3953 34.6658 37.3844 34.5805 37.3114 34.5075C36.1258 33.3219 35.7884 31.6215 36.4311 30.0702C37.0737 28.519 38.5144 27.5553 40.191 27.5553C40.3492 27.5553 40.4778 27.4266 40.4778 27.2685V24.2309C40.4778 24.0728 40.3492 23.9442 40.191 23.9442C38.5143 23.9442 37.0737 22.9805 36.4311 21.4292C35.7885 19.8778 36.1258 18.1776 37.3114 16.992C37.3844 16.919 37.3954 16.8336 37.3954 16.7892C37.3954 16.7447 37.3845 16.6594 37.3115 16.5864L35.1635 14.4384C35.0517 14.3265 34.8697 14.3265 34.7577 14.4384C33.5722 15.6239 31.8719 15.9612 30.3206 15.3186C28.7693 14.676 27.8056 13.2352 27.8056 11.5587C27.8056 11.4005 27.6769 11.2719 27.5189 11.2719H24.4812C24.3231 11.2719 24.1945 11.4006 24.1945 11.5587C24.1945 13.2353 23.2309 14.676 21.6795 15.3186C20.1283 15.9612 18.428 15.6238 17.2424 14.4383C17.1305 14.3264 16.9485 14.3264 16.8367 14.4383L14.6887 16.5863C14.6157 16.6593 14.6048 16.7447 14.6048 16.7891C14.6048 16.8335 14.6157 16.9188 14.6887 16.9919C15.8743 18.1777 16.2116 19.8779 15.569 21.4293ZM5.52855 25.7498C5.52855 26.1424 5.84685 26.4607 6.23949 26.4607H8.6317C9.02434 26.4607 9.34263 26.1424 9.34263 25.7498C9.34263 25.3571 9.02434 25.0388 8.6317 25.0388H6.23949C5.84675 25.0388 5.52855 25.3571 5.52855 25.7498ZM1.625 26.4607H4.0172C4.40984 26.4607 4.72814 26.1424 4.72814 25.7498C4.72814 25.3571 4.40984 25.0388 4.0172 25.0388H1.625C1.23236 25.0388 0.914062 25.3571 0.914062 25.7498C0.914062 26.1424 1.23236 26.4607 1.625 26.4607ZM4.67198 17.5002H7.06418C7.45682 17.5002 7.77512 17.1819 7.77512 16.7892C7.77512 16.3966 7.45682 16.0783 7.06418 16.0783H4.67198C4.27934 16.0783 3.96104 16.3966 3.96104 16.7892C3.96104 17.1819 4.27934 17.5002 4.67198 17.5002ZM11.6786 16.0783H9.28637C8.89373 16.0783 8.57543 16.3966 8.57543 16.7892C8.57543 17.1819 8.89373 17.5002 9.28637 17.5002H11.6786C12.0712 17.5002 12.3895 17.1819 12.3895 16.7892C12.3895 16.3966 12.0712 16.0783 11.6786 16.0783ZM11.6786 35.4213C12.0712 35.4213 12.3895 35.103 12.3895 34.7103C12.3895 34.3177 12.0712 33.9994 11.6786 33.9994H9.28637C8.89373 33.9994 8.57543 34.3177 8.57543 34.7103C8.57543 35.103 8.89373 35.4213 9.28637 35.4213H11.6786ZM4.67198 33.9994C4.27934 33.9994 3.96104 34.3177 3.96104 34.7103C3.96104 35.103 4.27934 35.4213 4.67198 35.4213H7.06418C7.45682 35.4213 7.77512 35.103 7.77512 34.7103C7.77512 34.3177 7.45682 33.9994 7.06418 33.9994H4.67198Z" fill="black"/>
</svg>
