<svg width="52" height="52" viewBox="0 0 52 52" fill="none" xmlns="http://www.w3.org/2000/svg">
<path d="M17.7198 7.52474C17.8695 7.78392 18.142 7.93109 18.4239 7.93109C18.5415 7.93109 18.6608 7.90549 18.7733 7.85177C20.6637 6.94969 22.6944 6.4108 24.8091 6.25002C25.2327 6.21783 25.56 5.8647 25.56 5.43986V1.62558C25.56 1.40113 25.4671 1.18663 25.3035 1.03306C25.1399 0.879501 24.9202 0.800282 24.6958 0.814806C21.7089 1.00554 18.838 1.77437 16.1629 3.09996C15.9619 3.19959 15.8109 3.37804 15.7459 3.59285C15.6809 3.80765 15.7078 4.03982 15.82 4.23421L17.7198 7.52474ZM23.935 2.50938V4.7016C22.1403 4.9095 20.405 5.36988 18.7591 6.07483L17.6691 4.18688C19.661 3.30014 21.7618 2.73769 23.935 2.50938ZM5.94058 33.2934C6.04001 33.4948 6.21845 33.646 6.43346 33.7112C6.51055 33.7346 6.58997 33.7461 6.66898 33.7461C6.81026 33.7461 6.95051 33.7093 7.07523 33.6373L10.3813 31.7286C10.7484 31.5166 10.8909 31.058 10.7084 30.6752C9.80402 28.7786 9.26248 26.7497 9.09856 24.6449C9.06555 24.2219 8.71273 23.8955 8.2885 23.8955H4.4731C4.24865 23.8955 4.03405 23.9884 3.88048 24.1521C3.72692 24.3159 3.6479 24.5359 3.66233 24.76C3.85408 27.7498 4.62067 30.6208 5.94058 33.2934ZM7.55176 25.5204C7.7623 27.3078 8.22492 29.0406 8.93149 30.6892L7.02912 31.7875C6.14624 29.797 5.58562 27.6957 5.3571 25.5204H7.55176ZM4.4732 22.7157H8.30353C8.72501 22.7157 9.07662 22.3934 9.11298 21.9734C9.2959 19.8636 9.84169 17.8366 10.7352 15.9488C10.9162 15.5665 10.7734 15.1091 10.4071 14.8976L7.08123 12.9774C6.88683 12.8652 6.65456 12.8383 6.43976 12.9034C6.22485 12.9684 6.0464 13.1193 5.94677 13.3205C4.6227 15.9945 3.85418 18.8647 3.66233 21.8511C3.6479 22.0752 3.72692 22.2953 3.88048 22.459C4.03415 22.6228 4.24865 22.7157 4.4732 22.7157ZM7.0343 14.8267L8.95891 15.9379C8.26037 17.5772 7.79562 19.3046 7.57259 21.0907H5.3572C5.58623 18.9181 6.14848 16.8178 7.0343 14.8267ZM50.5756 25.4258C50.3647 24.9914 49.9335 24.7215 49.45 24.7214H48.6496C48.6789 24.25 48.6936 23.7766 48.6936 23.3056C48.6936 17.538 46.5165 12.0508 42.5634 7.85481C38.6277 3.67724 33.3149 1.17688 27.6037 0.814095C27.38 0.800079 27.1597 0.878892 26.9962 1.03245C26.8326 1.18602 26.7398 1.40052 26.7398 1.62487V5.44017C26.7398 5.8647 27.0665 6.21763 27.4898 6.25023C36.3337 6.93252 43.2614 14.4241 43.2614 23.3055C43.2614 23.7768 43.2421 24.2506 43.2034 24.7212H42.6838C42.2004 24.7212 41.7691 24.991 41.5582 25.4255C41.3474 25.8599 41.4021 26.3657 41.7011 26.7453L45.0845 31.0428C45.3233 31.3458 45.6814 31.5196 46.0672 31.5195C46.4529 31.5195 46.811 31.3456 47.0495 31.0425L50.4327 26.7453C50.7316 26.3659 50.7864 25.8602 50.5756 25.4258ZM46.0668 29.664L43.4549 26.3465H43.9361C44.3461 26.3465 44.6919 26.0411 44.7424 25.6342C44.8379 24.8659 44.8863 24.0825 44.8863 23.3057C44.8863 18.557 43.1064 14.0277 39.8741 10.5523C36.8312 7.28038 32.7679 5.2212 28.3647 4.70333V2.50867C38.9209 3.61844 47.0687 12.5907 47.0687 23.3057C47.0687 24.0212 47.0322 24.7432 46.9599 25.4515C46.9367 25.6801 47.0112 25.9081 47.1653 26.0786C47.3194 26.2491 47.5384 26.3465 47.7683 26.3465H48.6789L46.0668 29.664ZM7.67273 11.9568L10.9871 13.8704C11.1148 13.9441 11.2545 13.9793 11.3928 13.9793C11.6536 13.9793 11.9087 13.8537 12.0651 13.6238C13.254 11.8762 14.7321 10.3853 16.4583 9.1926C16.8064 8.95199 16.9117 8.4844 16.7 8.11786L14.7995 4.82612C14.6871 4.63142 14.499 4.49208 14.2802 4.44099C14.0611 4.39011 13.831 4.43195 13.6442 4.55688C11.1626 6.21631 9.06291 8.31733 7.40318 10.8018C7.27836 10.9886 7.23652 11.2188 7.2875 11.4376C7.33879 11.6566 7.47813 11.8445 7.67273 11.9568ZM13.8351 6.40552L14.9258 8.29468C13.4936 9.37175 12.2309 10.6453 11.1592 12.0933L9.25172 10.9921C10.5368 9.22834 12.0734 7.69069 13.8351 6.40552ZM37.4753 33.934L29.6418 38.4966C29.3438 38.6701 29.0418 38.804 28.7307 38.8989C28.8261 38.707 28.9043 38.4994 28.9639 38.277C29.3805 36.722 28.4582 35.0993 26.8643 34.5826C26.8294 34.5713 26.7939 34.5624 26.7579 34.5559C24.5163 34.1516 22.2994 33.35 20.5179 32.706C19.8968 32.4815 19.3101 32.2693 18.8101 32.1072C16.7606 31.4423 14.9189 32.2591 13.3875 33.1458L7.66216 36.4607L7.17111 35.593C6.91314 35.1371 6.49186 34.8087 5.98496 34.6681C5.47816 34.5279 4.9479 34.5925 4.49199 34.8503L2.29408 36.0943C1.35076 36.6282 1.01764 37.83 1.55145 38.7734L8.01316 50.1907C8.27113 50.6466 8.69241 50.9751 9.19931 51.1156C9.37461 51.1641 9.55265 51.1882 9.72947 51.1882C10.0639 51.1882 10.3941 51.1021 10.6923 50.9334L12.8902 49.6894C13.346 49.4314 13.6745 49.0102 13.815 48.5033C13.9555 47.9964 13.8908 47.4661 13.6328 47.0102L13.024 45.9344L14.2095 45.2498L24.1955 47.9256C24.7594 48.0767 25.3205 48.1519 25.8723 48.1519C26.9887 48.1519 28.0672 47.8445 29.0532 47.2375L43.2691 38.4839C44.6167 37.6543 45.0464 35.567 44.1706 34.1049C43.7468 33.397 42.0109 31.2927 37.4753 33.934ZM12.2491 48.0693C12.2349 48.1206 12.1953 48.2155 12.0899 48.2753L9.89197 49.5192C9.78665 49.579 9.68468 49.564 9.63339 49.5497C9.5821 49.5355 9.48714 49.4958 9.42742 49.3904L2.96581 37.9731C2.87481 37.8123 2.93372 37.5995 3.09459 37.5085L5.29261 36.2646C5.35121 36.2315 5.40859 36.2213 5.45694 36.2213C5.49553 36.2213 5.52833 36.2277 5.55119 36.2341C5.60248 36.2483 5.69744 36.2879 5.75705 36.3933L12.2188 47.8106C12.2783 47.9161 12.2634 48.0179 12.2491 48.0693ZM42.4172 37.1003L28.2014 45.8538C27.1025 46.5301 25.8964 46.6993 24.6162 46.356L14.305 43.5931C14.0967 43.5375 13.875 43.5666 13.6885 43.6743L12.2235 44.52L8.46258 37.8748L14.2017 34.5518C15.4845 33.8091 16.8699 33.1859 18.3087 33.6527C18.783 33.8066 19.3309 34.0046 19.9653 34.234C21.7888 34.8933 24.0544 35.7124 26.4098 36.144C27.1643 36.4121 27.5862 37.1399 27.3942 37.8563C27.1412 38.8 26.3476 38.9174 25.7142 38.8453C24.5673 38.6092 23.4752 38.2975 22.3199 37.9676C21.7692 37.8104 21.1998 37.6478 20.6141 37.4907C20.1807 37.3749 19.7352 37.6319 19.619 38.0653C19.5029 38.4988 19.7602 38.9442 20.1936 39.0604C20.7664 39.2139 21.3293 39.3746 21.8736 39.5301C23.0714 39.8722 25.4503 40.4499 25.4557 40.4507L26.4301 40.6092C27.9148 40.8466 29.2329 40.615 30.4595 39.9007L38.293 35.3381C40.4851 34.0614 42.1612 33.9123 42.7766 34.9398C43.1971 35.6416 43.0157 36.7319 42.4172 37.1003ZM5.87233 38.3674C5.93499 38.7962 5.63823 39.1948 5.20943 39.2574C4.78063 39.3201 4.3821 39.0233 4.31944 38.5944C4.25677 38.1656 4.55354 37.7671 4.98233 37.7044C5.41113 37.6419 5.80956 37.9386 5.87233 38.3674ZM33.0593 15.6921C33.0593 12.451 30.4224 9.81416 27.1814 9.81416C23.9403 9.81416 21.3034 12.451 21.3034 15.6921C21.3034 17.6689 22.2853 19.4195 23.786 20.4856C19.8408 21.7802 16.8765 25.2762 16.4126 29.6115C16.388 29.8408 16.462 30.0696 16.6161 30.241C16.7702 30.4125 16.9899 30.5105 17.2204 30.5105H37.142C37.3726 30.5105 37.5922 30.4126 37.7463 30.241C37.9004 30.0696 37.9744 29.8408 37.9498 29.6114C37.4858 25.2762 34.5216 21.7803 30.5765 20.4856C32.0773 19.4196 33.0593 17.6689 33.0593 15.6921ZM36.1934 28.8855H18.1691C19.0448 24.6573 22.7702 21.5709 27.1792 21.5699C27.1799 21.5699 27.1807 21.57 27.1814 21.57H27.1834C31.5923 21.571 35.3177 24.6573 36.1934 28.8855ZM27.1813 19.9449C27.1803 19.9449 27.1795 19.9449 27.1786 19.9449C24.8349 19.9434 22.9284 18.0363 22.9284 15.6921C22.9284 13.347 24.8363 11.4392 27.1814 11.4392C29.5264 11.4392 31.4343 13.347 31.4343 15.6921C31.4343 18.0363 29.5279 19.9435 27.184 19.9449C27.1831 19.945 27.1822 19.9449 27.1813 19.9449Z" fill="black"/>
</svg>
