<svg width="52" height="52" viewBox="0 0 52 52" fill="none" xmlns="http://www.w3.org/2000/svg">
<path d="M35.7072 41.1052C34.0388 39.5964 32.0633 38.5122 29.9368 37.9125C32.2011 36.5651 33.7224 34.0941 33.7224 31.2734C33.7224 27.0161 30.2588 23.5525 26.0015 23.5525C21.7443 23.5525 18.2807 27.0161 18.2807 31.2734C18.2807 34.0941 19.802 36.5651 22.0664 37.9125C19.9398 38.5122 17.9642 39.5964 16.2957 41.1052C13.6511 43.4968 11.9866 46.7582 11.6089 50.2885C11.5843 50.5177 11.6583 50.7465 11.8124 50.918C11.9666 51.0894 12.1863 51.1874 12.4167 51.1874L39.5862 51.1873C39.8168 51.1873 40.0364 51.0894 40.1905 50.9179C40.3447 50.7464 40.4186 50.5176 40.3941 50.2883C40.0163 46.7581 38.3517 43.4968 35.7072 41.1052ZM19.9058 31.2734C19.9058 27.9122 22.6404 25.1775 26.0016 25.1775C29.3629 25.1775 32.0975 27.9121 32.0975 31.2734C32.0975 34.6342 29.3638 37.3684 26.003 37.3692C26.0026 37.3692 26.0021 37.3692 26.0017 37.3692C26.0013 37.3692 26.0008 37.3692 26.0004 37.3692C22.6396 37.3685 19.9058 34.6342 19.9058 31.2734ZM13.3526 49.5625C14.4362 43.4778 19.7218 38.9948 26.0003 38.9942H26.0016C26.0016 38.9942 26.0025 38.9942 26.0029 38.9942C32.2811 38.9948 37.5669 43.4778 38.6505 49.5624L13.3526 49.5625ZM17.0575 8.9245L21.1447 12.2095L19.769 17.2696C19.635 17.763 19.8156 18.276 20.2292 18.5765C20.4444 18.7329 20.6948 18.8114 20.9457 18.8114C21.1771 18.8114 21.4091 18.7446 21.6142 18.6102L26.0015 15.7382L30.3889 18.6102C30.8166 18.8902 31.3603 18.877 31.7741 18.5764C32.1877 18.2758 32.3683 17.7628 32.234 17.2696L30.8583 12.2096L34.9455 8.9245C35.3441 8.60417 35.4993 8.08306 35.3413 7.59677C35.1833 7.11049 34.7512 6.78021 34.2407 6.75533L29.0031 6.5L27.142 1.59778C26.9609 1.12074 26.5134 0.812602 26.0016 0.8125C26.0016 0.8125 26.0016 0.8125 26.0015 0.8125C25.4899 0.8125 25.0423 1.12074 24.8611 1.59778L22.9999 6.5L17.7624 6.75533C17.2517 6.78021 16.8197 7.11059 16.6616 7.59688C16.5036 8.08316 16.659 8.60427 17.0575 8.9245ZM23.3437 8.11017C23.8283 8.08661 24.2526 7.77837 24.425 7.32469L26.0015 3.1722L27.5782 7.32489C27.7504 7.77837 28.1749 8.08661 28.6592 8.11017L33.0959 8.3264L29.6338 11.109C29.2554 11.4131 29.0934 11.9121 29.2209 12.38L30.3861 16.6662L26.6696 14.2333C26.4668 14.1005 26.2343 14.0342 26.0017 14.0342C25.7692 14.0342 25.5366 14.1006 25.3335 14.2334L21.6173 16.6662L22.7825 12.38C22.9098 11.912 22.7477 11.4131 22.3696 11.1091L18.9075 8.3264L23.3437 8.11017ZM12.9467 21.355H6.55078C6.10208 21.355 5.73828 20.9912 5.73828 20.5425C5.73828 20.0938 6.10208 19.73 6.55078 19.73H12.9468C13.3955 19.73 13.7593 20.0938 13.7593 20.5425C13.7593 20.9912 13.3954 21.355 12.9467 21.355ZM8.45295 10.411C8.6772 10.0223 9.17414 9.88914 9.56282 10.1136L15.1019 13.3116C15.4905 13.5359 15.6238 14.0329 15.3993 14.4215C15.2489 14.6821 14.9757 14.8278 14.6949 14.8278C14.5571 14.8278 14.4174 14.7927 14.2894 14.7188L8.75032 11.5208C8.36174 11.2965 8.22849 10.7995 8.45295 10.411ZM15.1019 27.7737L9.56282 30.9717C9.43485 31.0455 9.2951 31.0807 9.15738 31.0807C8.87646 31.0807 8.60346 30.9349 8.45295 30.6743C8.22849 30.2857 8.36174 29.7888 8.75032 29.5644L14.2894 26.3664C14.6783 26.142 15.1751 26.2754 15.3993 26.6638C15.6238 27.0524 15.4905 27.5493 15.1019 27.7737ZM43.55 30.6742C43.3996 30.9348 43.1264 31.0806 42.8456 31.0806C42.7077 31.0806 42.5681 31.0454 42.4401 30.9716L36.9011 27.7736C36.5125 27.5492 36.3793 27.0523 36.6037 26.6637C36.8281 26.2751 37.3249 26.1418 37.7136 26.3663L43.2526 29.5643C43.6412 29.7887 43.7745 30.2856 43.55 30.6742ZM46.2648 20.5425C46.2648 20.9912 45.901 21.355 45.4523 21.355H39.0564C38.6077 21.355 38.2439 20.9912 38.2439 20.5425C38.2439 20.0938 38.6077 19.73 39.0564 19.73H45.4524C45.901 19.73 46.2648 20.0938 46.2648 20.5425ZM36.6037 14.4214C36.3793 14.0328 36.5125 13.5358 36.9011 13.3115L42.4401 10.1135C42.829 9.88904 43.3258 10.0224 43.55 10.4109C43.7745 10.7994 43.6412 11.2964 43.2526 11.5207L37.7136 14.7187C37.5856 14.7926 37.4459 14.8277 37.3082 14.8277C37.0273 14.8278 36.7543 14.6821 36.6037 14.4214Z" fill="black"/>
</svg>
