<svg width="52" height="52" viewBox="0 0 52 52" fill="none" xmlns="http://www.w3.org/2000/svg">
<g clip-path="url(#clip0_1035_12686)">
<path d="M42.0469 15.1074C42.6077 15.1074 43.0625 14.6527 43.0625 14.0918V3.04688C43.0625 1.36683 41.6957 0 40.0156 0H3.04688C1.36683 0 0 1.36683 0 3.04688V48.9531C0 50.6332 1.36683 52 3.04688 52H40.0156C41.6957 52 43.0625 50.6332 43.0625 48.9531V41.4708C43.0625 40.9099 42.6077 40.4552 42.0469 40.4552C41.486 40.4552 41.0312 40.9099 41.0312 41.4708V48.9531C41.0312 49.5131 40.5756 49.9688 40.0156 49.9688H3.04688C2.48686 49.9688 2.03125 49.5131 2.03125 48.9531V3.04688C2.03125 2.48686 2.48686 2.03125 3.04688 2.03125H40.0156C40.5756 2.03125 41.0312 2.48686 41.0312 3.04688V14.0918C41.0312 14.6527 41.486 15.1074 42.0469 15.1074Z" fill="black"/>
<path d="M21.5312 5.48438C16.3791 5.48438 12.1875 9.67596 12.1875 14.8281C12.1875 17.5009 13.3159 19.9149 15.1208 21.6195C15.1546 21.6557 15.1906 21.6899 15.2299 21.7211C16.8926 23.2424 19.1053 24.1718 21.5311 24.1718C23.957 24.1718 26.1697 23.2423 27.8324 21.7211C27.8717 21.6899 27.9076 21.6556 27.9415 21.6195C29.7466 19.9149 30.875 17.5009 30.875 14.8281C30.875 9.67596 26.6834 5.48438 21.5312 5.48438ZM21.5312 22.1406C19.8728 22.1406 18.3423 21.5849 17.1142 20.6509C18.0068 19.0681 19.6726 18.0781 21.5312 18.0781C23.3899 18.0781 25.0557 19.0681 25.9483 20.6509C24.7201 21.5849 23.1897 22.1406 21.5312 22.1406ZM19.9062 14.4219V13.7617C19.9062 12.8657 20.6353 12.1367 21.5312 12.1367C22.4272 12.1367 23.1562 12.8657 23.1562 13.7617V14.4219C23.1562 15.3179 22.4272 16.0469 21.5312 16.0469C20.6353 16.0469 19.9062 15.3179 19.9062 14.4219ZM27.4158 19.1631C26.6668 18.0522 25.6287 17.1882 24.4234 16.6548C24.9018 16.0366 25.1875 15.2622 25.1875 14.4219V13.7617C25.1875 11.7456 23.5474 10.1055 21.5312 10.1055C19.5151 10.1055 17.875 11.7456 17.875 13.7617V14.4219C17.875 15.2622 18.1607 16.0366 18.6391 16.6548C17.4338 17.1882 16.3957 18.0522 15.6467 19.1631C14.75 17.9491 14.2188 16.4498 14.2188 14.8281C14.2188 10.796 17.4991 7.51562 21.5312 7.51562C25.5634 7.51562 28.8437 10.796 28.8437 14.8281C28.8437 16.4498 28.3125 17.9491 27.4158 19.1631Z" fill="black"/>
<path d="M27.0156 33.1094H12.5938C12.0329 33.1094 11.5781 33.5641 11.5781 34.125C11.5781 34.6859 12.0329 35.1406 12.5938 35.1406H27.0156C27.5765 35.1406 28.0312 34.6859 28.0312 34.125C28.0312 33.5641 27.5765 33.1094 27.0156 33.1094Z" fill="black"/>
<path d="M8.97287 27.7195C8.78406 27.5305 8.52203 27.4219 8.25391 27.4219C7.9867 27.4219 7.72466 27.5305 7.53586 27.7195C7.34695 27.9084 7.23828 28.1704 7.23828 28.4375C7.23828 28.7046 7.34685 28.9666 7.53586 29.1555C7.72578 29.3445 7.9867 29.4531 8.25391 29.4531C8.52203 29.4531 8.78305 29.3445 8.97287 29.1555C9.16177 28.9666 9.27055 28.7046 9.27055 28.4375C9.27055 28.1704 9.16187 27.9084 8.97287 27.7195Z" fill="black"/>
<path d="M8.97287 33.407C8.78305 33.218 8.52203 33.1094 8.25391 33.1094C7.9867 33.1094 7.72578 33.218 7.53586 33.407C7.34695 33.5959 7.23828 33.8579 7.23828 34.125C7.23828 34.3921 7.34685 34.6541 7.53586 34.843C7.72578 35.032 7.9867 35.1406 8.25391 35.1406C8.52203 35.1406 8.78305 35.032 8.97287 34.843C9.16177 34.6541 9.27055 34.3921 9.27055 34.125C9.27055 33.8579 9.16187 33.5959 8.97287 33.407Z" fill="black"/>
<path d="M27.0156 27.4219H12.5938C12.0329 27.4219 11.5781 27.8766 11.5781 28.4375C11.5781 28.9984 12.0329 29.4531 12.5938 29.4531H27.0156C27.5765 29.4531 28.0312 28.9984 28.0312 28.4375C28.0312 27.8766 27.5765 27.4219 27.0156 27.4219Z" fill="black"/>
<path d="M49.8661 13.2354C48.8795 12.6657 47.73 12.5144 46.6292 12.8093C45.5287 13.1042 44.6088 13.8101 44.0392 14.7967L31.2584 36.9336C31.1884 37.055 31.1441 37.1895 31.1286 37.3288L30.2289 45.3872C30.1842 45.7881 30.3811 46.1776 30.7304 46.3794C30.8882 46.4704 31.0634 46.5155 31.2382 46.5155C31.4506 46.5155 31.6623 46.449 31.8405 46.3177L38.3694 41.5093C38.4822 41.4262 38.5767 41.3207 38.6466 41.1993L51.4274 19.0625C52.6035 17.0255 51.9031 14.4115 49.8661 13.2354ZM32.5051 43.3054L32.975 39.0975L35.9144 40.7946L32.5051 43.3054ZM37.3954 39.3041L33.5253 37.0697L43.7816 19.3054L47.6517 21.5398L37.3954 39.3041ZM49.6683 18.0467L48.6672 19.7807L44.7972 17.5463L45.7983 15.8124C46.0966 15.2955 46.5785 14.9258 47.1549 14.7713C47.7316 14.6168 48.3337 14.6962 48.8504 14.9946C49.3673 15.293 49.737 15.7748 49.8914 16.3512C50.0459 16.9277 49.9667 17.5299 49.6683 18.0467Z" fill="black"/>
</g>
<defs>
<clipPath id="clip0_1035_12686">
<rect width="52" height="52" fill="white"/>
</clipPath>
</defs>
</svg>
