<svg width="52" height="52" viewBox="0 0 52 52" fill="none" xmlns="http://www.w3.org/2000/svg">
<path d="M40.5498 34.1232C43.8312 30.5826 45.8406 25.8472 45.8406 20.6507C45.8405 9.71191 36.9412 0.8125 26.0023 0.8125C15.0634 0.8125 6.16406 9.71191 6.16406 20.6507C6.16406 26.2477 8.49472 31.31 12.2355 34.9202L7.34615 45.4219C7.21838 45.6963 7.25373 46.019 7.43786 46.2592C7.62199 46.4993 7.92434 46.6174 8.22253 46.5653L14.2226 45.5169L17.2829 50.7833C17.4288 51.0343 17.6969 51.1875 17.9853 51.1875C17.9976 51.1875 18.01 51.1872 18.0223 51.1867C18.3246 51.1729 18.5943 50.9923 18.7221 50.718L23.5547 40.3379C24.357 40.437 25.1736 40.4889 26.0023 40.4889C27.1941 40.4889 28.3617 40.3831 29.4962 40.1807L33.1436 48.649C33.2634 48.9269 33.5277 49.1154 33.8295 49.1378C33.8497 49.1394 33.8699 49.14 33.89 49.14C34.1695 49.14 34.4313 48.9958 34.5802 48.7559L37.7919 43.5805L43.7589 44.8025C44.0555 44.8638 44.3612 44.7541 44.5521 44.5193C44.7432 44.2846 44.7879 43.9631 44.6682 43.6852L40.5498 34.1232ZM17.9059 48.6209L15.3432 44.2108C15.1722 43.9166 14.8366 43.7606 14.5008 43.8186L9.47632 44.6966L13.5044 36.0448C15.902 37.995 18.7618 39.3974 21.8918 40.0595L17.9059 48.6209ZM7.78906 20.6507C7.78906 10.6079 15.9595 2.4375 26.0023 2.4375C36.0451 2.4375 44.2155 10.6079 44.2155 20.6507C44.2155 30.6935 36.0451 38.8639 26.0023 38.8639C15.9595 38.8639 7.78906 30.6935 7.78906 20.6507ZM37.5631 41.8751C37.2298 41.8065 36.8892 41.9534 36.7098 42.2427L34.0203 46.5766L31.1107 39.8209C34.2043 38.9958 37.003 37.4409 39.3093 35.3512L42.5599 42.8985L37.5631 41.8751ZM39.6573 26.242C39.6185 25.9168 39.5822 25.6275 39.5496 25.3677C39.4171 24.312 39.3507 23.7824 39.4247 23.3633C39.4986 22.9444 39.7421 22.4692 40.2276 21.5226C40.3471 21.2896 40.4801 21.0301 40.6278 20.7379C41.3979 19.2144 41.079 17.4058 39.8343 16.2375C39.5955 16.0134 39.3817 15.8151 39.1898 15.637C38.4099 14.9134 38.0183 14.5504 37.8057 14.1819C37.593 13.8135 37.4742 13.2929 37.2376 12.2557C37.1793 12.0004 37.1145 11.7163 37.0398 11.3973C36.6505 9.73517 35.2435 8.55471 33.539 8.45985C33.2121 8.44157 32.9209 8.42715 32.6594 8.41415C31.5968 8.36123 31.0635 8.33473 30.6637 8.18919C30.2639 8.04355 29.8383 7.72119 28.9903 7.0787C28.7816 6.92047 28.5493 6.74446 28.2871 6.54824C26.9204 5.5253 25.084 5.5253 23.7172 6.54824C23.455 6.74446 23.2226 6.92057 23.0139 7.0787C22.1659 7.72109 21.7403 8.04355 21.3405 8.18919C20.9407 8.33473 20.4074 8.36113 19.3449 8.41415C19.0834 8.42715 18.7922 8.44167 18.4653 8.45985C16.7608 8.55471 15.3539 9.73517 14.9646 11.3973C14.8899 11.7161 14.825 12.0004 14.7668 12.2556C14.5302 13.2928 14.4113 13.8134 14.1987 14.1819C13.986 14.5504 13.5945 14.9134 12.8147 15.6369C12.6226 15.815 12.4088 16.0134 12.1701 16.2375C10.9253 17.4058 10.6064 19.2144 11.3766 20.7379C11.5243 21.0301 11.6573 21.2896 11.7767 21.5226C12.2622 22.4692 12.5058 22.9444 12.5797 23.3633C12.6536 23.7824 12.5871 24.3121 12.4547 25.3677C12.4221 25.6276 12.3859 25.9168 12.347 26.242C12.1444 27.937 13.0626 29.5275 14.6319 30.1996C14.933 30.3286 15.2017 30.4418 15.443 30.5435C16.4233 30.9566 16.9154 31.1639 17.2413 31.4375C17.5672 31.711 17.8569 32.1595 18.4339 33.0532C18.5759 33.2732 18.7341 33.5181 18.9134 33.7922C19.6352 34.8959 20.8292 35.5218 22.0885 35.5217C22.4593 35.5217 22.836 35.4674 23.2077 35.355C23.5211 35.2603 23.7997 35.1743 24.0498 35.0972C25.0664 34.7834 25.5766 34.626 26.0021 34.626C26.4275 34.626 26.9378 34.7834 27.9544 35.0972C28.2045 35.1743 28.4832 35.2603 28.7966 35.355C30.4306 35.8489 32.1564 35.2209 33.0908 33.7921C33.2701 33.518 33.4282 33.2731 33.5703 33.0531C34.1474 32.1594 34.437 31.7108 34.7629 31.4374C35.0889 31.1639 35.5809 30.9566 36.5612 30.5434C36.8025 30.4417 37.0713 30.3285 37.3723 30.1995C38.9417 29.5275 39.86 27.937 39.6573 26.242ZM38.7817 20.781C37.6641 22.9605 37.6325 23.1396 37.9373 25.5698C37.9695 25.8267 38.0054 26.113 38.0438 26.4348C38.1619 27.4227 37.6472 28.3141 36.7327 28.7058C36.4348 28.8334 36.169 28.9453 35.9302 29.046C33.6732 29.9971 33.5339 30.114 32.2053 32.1715C32.0648 32.3892 31.9083 32.6315 31.731 32.9026C31.1865 33.7352 30.2192 34.0873 29.2668 33.7994C28.9567 33.7057 28.6811 33.6206 28.4336 33.5443C26.0932 32.8221 25.9114 32.822 23.5709 33.5443C23.3234 33.6206 23.0477 33.7057 22.7376 33.7994C21.7851 34.0875 20.818 33.7352 20.2734 32.9026C20.0961 32.6315 19.9396 32.3891 19.7991 32.1715C18.4705 30.1139 18.3312 29.9971 16.0742 29.046C15.8355 28.9454 15.5697 28.8334 15.2718 28.7058C14.3572 28.3141 13.8425 27.4226 13.9606 26.4348C13.999 26.113 14.035 25.8268 14.0672 25.5698C14.372 23.1395 14.3405 22.9605 13.2229 20.781C13.1046 20.5505 12.9731 20.2938 12.827 20.0047C12.3782 19.1168 12.5568 18.1031 13.2823 17.4222C13.5186 17.2004 13.7301 17.0043 13.92 16.8281C15.7155 15.1624 15.8064 15.0049 16.3512 12.6169C16.4088 12.3644 16.473 12.0832 16.5468 11.7677C16.7737 10.799 17.5622 10.1374 18.5556 10.0821C18.8791 10.0641 19.1671 10.0498 19.4258 10.0369C21.8721 9.91514 22.043 9.85288 23.9953 8.37383C24.2018 8.21742 24.4317 8.04324 24.6911 7.84905C25.0893 7.55097 25.5458 7.40198 26.0023 7.40198C26.4587 7.40198 26.9151 7.55107 27.3134 7.84905C27.5728 8.04314 27.8027 8.21742 28.0091 8.37383C29.9615 9.85288 30.1323 9.91514 32.5786 10.0369C32.8373 10.0498 33.1255 10.0642 33.4488 10.0821C34.4422 10.1374 35.2307 10.799 35.4576 11.7677C35.5316 12.0832 35.5957 12.3645 35.6533 12.617C36.1981 15.0049 36.289 15.1624 38.0846 16.8281C38.2746 17.0043 38.486 17.2005 38.7223 17.4222C39.4477 18.1031 39.6264 19.1168 39.1776 20.0047C39.0315 20.2938 38.8999 20.5506 38.7817 20.781ZM32.9728 17.9416L28.6278 17.7298L27.0837 13.6629C26.912 13.2104 26.4874 12.918 26.0023 12.918C25.517 12.918 25.0925 13.2104 24.9208 13.6629L23.3768 17.7298L19.0318 17.9416C18.5476 17.9651 18.1378 18.2782 17.9879 18.7394C17.838 19.2006 17.9853 19.6948 18.3632 19.9987L21.7539 22.7239L20.6126 26.9217C20.4855 27.3895 20.6568 27.876 21.0491 28.1609C21.2532 28.3092 21.4906 28.3838 21.7285 28.3838C21.948 28.3838 22.168 28.3203 22.3625 28.1929L26.0023 25.8106L29.642 28.1931C30.0477 28.4587 30.5632 28.4459 30.9556 28.1611C31.3478 27.8761 31.519 27.3896 31.3918 26.9219L30.2506 22.7241L33.6414 19.9989C34.0193 19.695 34.1666 19.2008 34.0167 18.7396C33.8668 18.2784 33.457 17.9652 32.9728 17.9416ZM25.5645 14.2398L25.5649 14.2408C25.5648 14.2404 25.5646 14.2401 25.5645 14.2398C25.5645 14.2397 25.5645 14.2397 25.5645 14.2398ZM28.9937 21.6495C28.635 21.9377 28.4813 22.4108 28.6021 22.8545L29.5002 26.1581L26.6358 24.2832C26.2509 24.0311 25.7534 24.0312 25.3686 24.2831L22.5041 26.1581L23.4025 22.8541C23.5229 22.4103 23.3691 21.9374 23.0107 21.6495L20.3423 19.5047L23.7615 19.3379C24.2211 19.3158 24.6237 19.0235 24.7871 18.5931L26.0023 15.3926L27.2175 18.5934C27.3809 19.0236 27.7835 19.3159 28.2426 19.338L31.6621 19.5048L28.9937 21.6495Z" fill="black"/>
</svg>
