<svg width="52" height="52" viewBox="0 0 52 52" fill="none" xmlns="http://www.w3.org/2000/svg">
<path d="M43.357 37.9135H39.6398C37.4055 37.9135 35.5875 39.7416 35.5875 41.976V43.3877H47.4195V41.976C47.4195 39.7416 45.5914 37.9135 43.357 37.9135ZM44.3828 36.5932C46.932 37.0807 48.8414 39.3252 48.8414 41.976V43.3877H49.8672C50.2633 43.3877 50.5781 43.7025 50.5781 44.0986V49.1768C50.5781 49.5729 50.2633 49.8877 49.8672 49.8877H2.13281C1.73672 49.8877 1.42188 49.5729 1.42188 49.1768V44.0986C1.42188 43.7025 1.73672 43.3877 2.13281 43.3877H3.15859V41.976C3.15859 39.3252 5.06797 37.0807 7.61719 36.5932C5.73828 34.9377 5.64687 32.033 7.41406 30.2557C8.33828 29.3314 9.64844 28.8541 11.0094 29.0166V12.0658C11.0094 6.58145 15.4883 2.10254 20.9727 2.10254H30.225C30.6211 2.10254 30.9359 2.41738 30.9359 2.81348V11.6596H40.2594C40.6555 11.6596 40.9703 11.9744 40.9703 12.3705V29.0166C43.5703 28.7018 45.8453 30.733 45.8453 33.333C45.8555 34.6229 45.2867 35.7908 44.3828 36.5932ZM34.6531 39.7314C35.3844 38.1166 36.8672 36.9283 38.6242 36.5932C36.2984 34.5416 36.8164 30.8143 39.5586 29.4432V13.0814H30.9461V28.3666C30.9461 28.5291 30.8953 28.6814 30.8039 28.8033C31.718 30.9971 31.0273 33.5158 29.1688 34.9377C31.7891 35.2932 33.9523 37.2025 34.6531 39.7314ZM12.35 37.9135H8.63281C6.40859 37.9135 4.58047 39.7416 4.58047 41.976V43.3877H16.4125V41.976C16.4125 39.7416 14.5844 37.9135 12.35 37.9135ZM13.3758 36.5932C15.1328 36.9283 16.6156 38.1166 17.3469 39.7314C18.0477 37.2025 20.2109 35.2932 22.8313 34.9377C20.343 33.0283 20.0891 29.3619 22.3133 27.1275C24.2836 25.1572 27.4625 25.0861 29.5141 26.9854V3.52441H20.9727C16.2805 3.52441 12.4313 7.37363 12.4313 12.0658V29.433C15.1836 30.8143 15.6914 34.5416 13.3758 36.5932ZM10.4914 30.408C7.89141 30.408 6.58125 33.5666 8.41953 35.4049C10.2578 37.2432 13.4164 35.933 13.4164 33.333C13.4266 31.7182 12.1164 30.408 10.4914 30.408ZM26 27.026C23.9078 27.026 22.2219 28.7221 22.2219 30.8041C22.2219 32.8963 23.9078 34.5822 26 34.5822C28.0922 34.5822 29.7781 32.8861 29.7781 30.8041C29.7781 28.7221 28.0922 27.026 26 27.026ZM28.2953 36.2986H23.7148C20.8711 36.2986 18.5352 38.6346 18.5352 41.4783V43.3877H33.4648V41.4783C33.4648 38.6346 31.1391 36.2986 28.2953 36.2986ZM41.4984 30.408C38.8984 30.408 37.5883 33.5666 39.4266 35.4049C41.2648 37.2432 44.4234 35.933 44.4234 33.333C44.4336 31.7182 43.1234 30.408 41.4984 30.408ZM34.0945 16.9916C33.6984 16.9916 33.3836 16.6768 33.3836 16.2807C33.3836 15.8846 33.6984 15.5697 34.0945 15.5697H36.4102C36.8063 15.5697 37.1211 15.8846 37.1211 16.2807C37.1211 16.6768 36.8063 16.9916 36.4102 16.9916H34.0945ZM34.9984 25.5736C34.6023 25.5736 34.2875 25.2588 34.2875 24.8627C34.2875 24.4666 34.6023 24.1518 34.9984 24.1518H36.4C36.7961 24.1518 37.1109 24.4666 37.1109 24.8627C37.1109 25.2588 36.7961 25.5736 36.4 25.5736H34.9984ZM34.0945 21.2775C33.6984 21.2775 33.3836 20.9627 33.3836 20.5666C33.3836 20.1705 33.6984 19.8557 34.0945 19.8557H36.4102C36.8063 19.8557 37.1211 20.1705 37.1211 20.5666C37.1211 20.9627 36.8063 21.2775 36.4102 21.2775H34.0945ZM15.6305 29.8697C15.2344 29.8697 14.9195 29.5549 14.9195 29.1588C14.9195 28.7627 15.2344 28.4479 15.6305 28.4479H17.2453C17.6414 28.4479 17.9563 28.7627 17.9563 29.1588C17.9563 29.5549 17.6414 29.8697 17.2453 29.8697H15.6305ZM15.6305 25.5939C15.2344 25.5939 14.9195 25.2791 14.9195 24.883C14.9195 24.4869 15.2344 24.1721 15.6305 24.1721H17.2453C17.6414 24.1721 17.9563 24.4869 17.9563 24.883C17.9563 25.2791 17.6414 25.5939 17.2453 25.5939H15.6305ZM15.6305 21.3182C15.2344 21.3182 14.9195 21.0033 14.9195 20.6072C14.9195 20.2111 15.2344 19.8963 15.6305 19.8963H17.2453C17.6414 19.8963 17.9563 20.2111 17.9563 20.6072C17.9563 21.0033 17.6414 21.3182 17.2453 21.3182H15.6305ZM24.7203 21.3182C24.3242 21.3182 24.0094 21.0033 24.0094 20.6072C24.0094 20.2111 24.3242 19.8963 24.7203 19.8963H26.3352C26.7312 19.8963 27.0461 20.2111 27.0461 20.6072C27.0461 21.0033 26.7312 21.3182 26.3352 21.3182H24.7203ZM20.1703 21.3182C19.7742 21.3182 19.4594 21.0033 19.4594 20.6072C19.4594 20.2111 19.7742 19.8963 20.1703 19.8963H21.7852C22.1812 19.8963 22.4961 20.2111 22.4961 20.6072C22.4961 21.0033 22.1812 21.3182 21.7852 21.3182H20.1703ZM15.6305 17.0424C15.2344 17.0424 14.9195 16.7275 14.9195 16.3314C14.9195 15.9354 15.2344 15.6205 15.6305 15.6205H17.2453C17.6414 15.6205 17.9563 15.9354 17.9563 16.3314C17.9563 16.7275 17.6414 17.0424 17.2453 17.0424H15.6305ZM24.7203 17.0424C24.3242 17.0424 24.0094 16.7275 24.0094 16.3314C24.0094 15.9354 24.3242 15.6205 24.7203 15.6205H26.3352C26.7312 15.6205 27.0461 15.9354 27.0461 16.3314C27.0461 16.7275 26.7312 17.0424 26.3352 17.0424H24.7203ZM20.1703 17.0424C19.7742 17.0424 19.4594 16.7275 19.4594 16.3314C19.4594 15.9354 19.7742 15.6205 20.1703 15.6205H21.7852C22.1812 15.6205 22.4961 15.9354 22.4961 16.3314C22.4961 16.7275 22.1812 17.0424 21.7852 17.0424H20.1703ZM15.6305 12.7666C15.2344 12.7666 14.9195 12.4518 14.9195 12.0557C14.9195 11.6596 15.2344 11.3447 15.6305 11.3447H17.2453C17.6414 11.3447 17.9563 11.6596 17.9563 12.0557C17.9563 12.4518 17.6414 12.7666 17.2453 12.7666H15.6305ZM24.7203 12.7666C24.3242 12.7666 24.0094 12.4518 24.0094 12.0557C24.0094 11.6596 24.3242 11.3447 24.7203 11.3447H26.3352C26.7312 11.3447 27.0461 11.6596 27.0461 12.0557C27.0461 12.4518 26.7312 12.7666 26.3352 12.7666H24.7203ZM20.1703 12.7666C19.7742 12.7666 19.4594 12.4518 19.4594 12.0557C19.4594 11.6596 19.7742 11.3447 20.1703 11.3447H21.7852C22.1812 11.3447 22.4961 11.6596 22.4961 12.0557C22.4961 12.4518 22.1812 12.7666 21.7852 12.7666H20.1703ZM24.7203 8.49082C24.3242 8.49082 24.0094 8.17598 24.0094 7.77988C24.0094 7.38379 24.3242 7.06894 24.7203 7.06894H26.3352C26.7312 7.06894 27.0461 7.38379 27.0461 7.77988C27.0461 8.17598 26.7312 8.49082 26.3352 8.49082H24.7203ZM20.1703 8.49082C19.7742 8.49082 19.4594 8.17598 19.4594 7.77988C19.4594 7.38379 19.7742 7.06894 20.1703 7.06894H21.7852C22.1812 7.06894 22.4961 7.38379 22.4961 7.77988C22.4961 8.17598 22.1812 8.49082 21.7852 8.49082H20.1703ZM2.84375 48.476H49.1562V44.8096H2.84375V48.476Z" fill="black"/>
</svg>
