<svg width="32" height="32" viewBox="0 0 32 32" fill="none" xmlns="http://www.w3.org/2000/svg">
<path d="M4.81736 31.9812L27.1752 31.9999C27.5571 32.0031 27.9327 31.9037 28.263 31.7121C28.5934 31.5205 28.8662 31.2438 29.0531 30.9108C29.2394 30.5873 29.3351 30.2196 29.3304 29.8463C29.3256 29.473 29.2204 29.1079 29.0259 28.7892L23.1816 19.0063C23.2648 18.9178 23.3486 18.8388 23.4312 18.7434L25.307 19.281C25.4984 19.3378 25.7032 19.3306 25.8902 19.2606C26.0772 19.1905 26.2363 19.0614 26.3432 18.8927C26.4499 18.7327 26.8078 18.1172 26.8888 17.9594C26.9859 17.7803 27.021 17.5743 26.9889 17.3732C26.9568 17.1721 26.8592 16.9873 26.7112 16.8474L25.3139 15.5066C25.4618 15.076 25.5798 14.6356 25.667 14.1887L27.5699 13.7199C27.7607 13.6696 27.9306 13.5602 28.0555 13.4074C28.1803 13.2546 28.2536 13.0662 28.2648 12.8692C28.2707 12.7738 28.2712 12.521 28.2712 12.2628C28.2712 12.0047 28.2712 11.7514 28.2654 11.6692C28.2552 11.467 28.1802 11.2734 28.0515 11.117C27.9228 10.9606 27.7472 10.8498 27.5507 10.801L25.6654 10.3364C25.5782 9.88971 25.4602 9.44955 25.3123 9.01911L26.7107 7.67991C26.8577 7.54202 26.9553 7.35973 26.9888 7.16099C27.0222 6.96225 26.9895 6.75803 26.8958 6.57964C26.8067 6.40844 26.4504 5.79511 26.3598 5.66018C26.2543 5.48425 26.0935 5.34821 25.9026 5.27333C25.7116 5.19845 25.5012 5.18895 25.3043 5.24631L23.4312 5.78391C23.1327 5.43915 22.8089 5.11702 22.4627 4.82018L22.9998 2.95351C23.0555 2.75879 23.0464 2.55122 22.9737 2.36215C22.9011 2.17308 22.7689 2.01279 22.5971 1.90551C22.4403 1.81058 21.836 1.45911 21.6771 1.37751C21.4978 1.28015 21.2913 1.24458 21.0898 1.2763C20.8882 1.30802 20.7027 1.40525 20.5619 1.55298L19.2094 2.94498C18.7767 2.79544 18.3337 2.67744 17.884 2.59191L17.4088 0.693243C17.3563 0.501513 17.2442 0.331438 17.0887 0.20758C16.9332 0.0837219 16.7424 0.0124919 16.5438 0.00417656C16.364 -9.01044e-05 15.6488 -9.01044e-05 15.4648 0.00417656C15.2635 0.0137115 15.0705 0.0875412 14.9143 0.214826C14.758 0.342111 14.6466 0.516145 14.5966 0.711377L14.1278 2.59191C13.678 2.67741 13.2351 2.7954 12.8024 2.94498L11.452 1.55404C11.3132 1.40705 11.1301 1.3095 10.9307 1.27628C10.7313 1.24306 10.5265 1.27599 10.3475 1.37004C10.1758 1.45858 9.57149 1.81004 9.40349 1.91191C9.23405 2.0202 9.10426 2.1805 9.03359 2.36876C8.96292 2.55703 8.95516 2.76313 9.01149 2.95618L9.54749 4.81804C9.20145 5.11511 8.87789 5.43742 8.57949 5.78231L6.70536 5.24418C6.51411 5.18692 6.3094 5.19377 6.1224 5.26368C5.93541 5.33358 5.77641 5.46271 5.66962 5.63138C5.55656 5.79991 5.19869 6.41911 5.12296 6.56631C5.02544 6.74549 4.98998 6.95191 5.02211 7.15336C5.05424 7.3548 5.15215 7.53995 5.30056 7.67991L6.69789 9.02124C6.55011 9.45083 6.43214 9.89009 6.34482 10.3359L4.44242 10.8052C4.25101 10.8547 4.0803 10.9638 3.95499 11.1168C3.82968 11.2697 3.75626 11.4585 3.74536 11.6559C3.74002 11.7514 3.73949 12.0042 3.73949 12.2628C3.73949 12.5215 3.73949 12.7738 3.74429 12.8543C3.75406 13.0569 3.82893 13.251 3.95777 13.4077C4.08662 13.5644 4.26257 13.6754 4.45949 13.7242L6.34482 14.1866C6.4321 14.6335 6.55007 15.0738 6.69789 15.5044L5.30162 16.8468C5.15473 16.9847 5.0572 17.167 5.02405 17.3657C4.9909 17.5644 5.02397 17.7685 5.11816 17.9466C5.20829 18.121 5.56509 18.7348 5.65416 18.8671C5.75941 19.0431 5.92013 19.1791 6.11107 19.2538C6.30202 19.3285 6.51237 19.3377 6.70909 19.2799L8.58216 18.7434C8.66429 18.8383 8.74216 18.9263 8.82429 19.01L2.97149 28.7663C2.77604 29.0847 2.66993 29.4497 2.6643 29.8233C2.65867 30.1968 2.75373 30.5649 2.93949 30.889C3.12562 31.2229 3.39821 31.5005 3.72863 31.6926C4.05905 31.8848 4.43512 31.9845 4.81736 31.9812ZM9.32829 17.9764C9.21018 17.845 9.0578 17.7491 8.88823 17.6995C8.71867 17.6498 8.53862 17.6484 8.36829 17.6954L6.51229 18.2287C6.41202 18.065 6.22002 17.7354 6.11549 17.5476L7.51122 16.2079C7.63698 16.0816 7.72445 15.9222 7.76352 15.7483C7.80259 15.5744 7.79167 15.393 7.73202 15.225C7.58106 14.7997 7.4632 14.3634 7.37949 13.9199C7.34648 13.7421 7.2634 13.5773 7.14002 13.4451C7.01664 13.3128 6.85808 13.2185 6.68296 13.1732L4.80776 12.7108C4.80776 12.5999 4.80776 12.4324 4.80776 12.2623C4.80776 12.0922 4.80776 11.93 4.80776 11.8132L6.69789 11.3471C6.86873 11.301 7.02312 11.2077 7.14339 11.0779C7.26365 10.9481 7.34492 10.7871 7.37789 10.6132C7.4611 10.1675 7.57879 9.72881 7.72989 9.30124C7.78944 9.13148 7.7995 8.94829 7.7589 8.77302C7.71829 8.59776 7.6287 8.43765 7.50056 8.31138L6.11389 6.97804C6.21096 6.80311 6.39869 6.48044 6.51122 6.29751L8.37256 6.83084C8.54546 6.87657 8.72771 6.87309 8.89874 6.82079C9.06977 6.76849 9.2228 6.66946 9.34056 6.53484C9.63904 6.18499 9.96603 5.8605 10.3182 5.56471C10.4503 5.44711 10.5467 5.29478 10.5965 5.12506C10.6463 4.95533 10.6474 4.77504 10.5998 4.60471L10.0664 2.75564C10.2462 2.64898 10.5667 2.46391 10.7518 2.36151L12.0984 3.74818C12.2244 3.87362 12.383 3.96136 12.5562 4.00151C12.7294 4.04165 12.9104 4.0326 13.0787 3.97538C13.5129 3.82158 13.9588 3.70315 14.412 3.62124C14.5858 3.58549 14.7463 3.50227 14.8757 3.38082C15.005 3.25937 15.0982 3.10444 15.1448 2.93324L15.6083 1.06658H16.404L16.8744 2.94818C16.9231 3.11843 17.0179 3.2719 17.1483 3.39163C17.2788 3.51136 17.4398 3.59267 17.6136 3.62658C18.067 3.70859 18.513 3.82757 18.947 3.98231C19.1153 4.03729 19.2957 4.04416 19.4678 4.00213C19.6398 3.9601 19.7968 3.87086 19.9208 3.74444L21.2616 2.36311C21.4403 2.46231 21.772 2.65484 21.9464 2.75724L21.4131 4.60791C21.3658 4.78133 21.3687 4.96462 21.4215 5.13645C21.4743 5.30829 21.5747 5.46161 21.7112 5.57858C22.0615 5.87417 22.3867 6.1983 22.6835 6.54764C22.802 6.67951 22.9549 6.77576 23.125 6.82559C23.2951 6.87543 23.4758 6.87688 23.6467 6.82978L25.5027 6.29644C25.604 6.46071 25.7955 6.79031 25.8995 6.97698L24.5032 8.31991C24.3777 8.44639 24.2904 8.60572 24.2513 8.77959C24.2123 8.95346 24.223 9.13482 24.2824 9.30284C24.4326 9.72746 24.5495 10.1631 24.6323 10.6058C24.6655 10.7835 24.7486 10.9482 24.872 11.0804C24.9953 11.2126 25.1538 11.307 25.3288 11.3524L27.2046 11.8143V12.2639C27.2046 12.2639 27.2046 12.5962 27.2046 12.7124L25.3144 13.1786C25.1434 13.2248 24.9889 13.3183 24.8686 13.4483C24.7482 13.5782 24.6669 13.7395 24.6339 13.9135C24.551 14.3594 24.4333 14.798 24.2819 15.2255C24.2226 15.3954 24.2127 15.5786 24.2533 15.7539C24.2939 15.9292 24.3833 16.0894 24.5112 16.2159L25.8979 17.5492C25.8014 17.7236 25.6136 18.0458 25.5006 18.2303L23.6403 17.697C23.467 17.6499 23.284 17.6528 23.1123 17.7054C22.9407 17.758 22.7874 17.858 22.6702 17.994C22.6504 18.0175 22.6318 18.0367 22.6126 18.0591L21.5934 16.3524C22.3497 15.3183 22.8048 14.0949 22.908 12.8178C23.0112 11.5408 22.7586 10.2601 22.1781 9.11791C21.5976 7.97575 20.712 7.01677 19.6195 6.3474C18.527 5.67804 17.2705 5.32447 15.9893 5.32594C14.7081 5.3274 13.4523 5.68385 12.3614 6.35571C11.2705 7.02758 10.387 7.98858 9.80916 9.13207C9.23129 10.2756 8.98156 11.5568 9.0877 12.8336C9.19383 14.1104 9.65168 15.3329 10.4104 16.3652L9.39709 18.0559C9.37362 18.0266 9.35229 18.0052 9.32829 17.9764ZM11.0158 15.3556C10.4637 14.468 10.1588 13.4489 10.1326 12.4039C10.1065 11.3589 10.36 10.3259 10.8671 9.41173C11.3741 8.49758 12.1161 7.7355 13.0165 7.20433C13.9168 6.67317 14.9427 6.39222 15.9881 6.39054C17.0334 6.38886 18.0602 6.66652 18.9622 7.1948C19.8643 7.72307 20.6088 8.48276 21.1187 9.39528C21.6287 10.3078 21.8855 11.34 21.8627 12.3851C21.8399 13.4302 21.5383 14.4502 20.9891 15.3396L17.8648 10.1092C17.6744 9.78909 17.4035 9.52439 17.079 9.34146C16.7545 9.15854 16.3877 9.06376 16.0152 9.06658C15.643 9.06384 15.2766 9.15854 14.9523 9.34127C14.628 9.52399 14.3572 9.78838 14.1667 10.1082L11.0158 15.3556ZM3.88509 29.3167L15.0803 10.6538C15.1769 10.4931 15.3139 10.3606 15.4777 10.2693C15.6414 10.178 15.8262 10.1311 16.0136 10.1332C16.2016 10.1315 16.3868 10.1791 16.5507 10.2713C16.7145 10.3635 16.8513 10.497 16.9475 10.6586L28.1134 29.338C28.2094 29.4953 28.2614 29.6756 28.2639 29.8599C28.2663 30.0442 28.2191 30.2257 28.1272 30.3855C28.0325 30.5536 27.8944 30.693 27.7273 30.7894C27.5602 30.8858 27.3702 30.9354 27.1774 30.9332L4.81842 30.9146C4.62539 30.9166 4.43538 30.8666 4.26827 30.77C4.10116 30.6733 3.96311 30.5335 3.86856 30.3652C3.77682 30.2051 3.72994 30.0232 3.73285 29.8387C3.73576 29.6542 3.78835 29.4739 3.88509 29.3167Z" fill="black"/>
<path d="M15.9984 24.5336C16.4228 24.5336 16.8297 24.365 17.1298 24.065C17.4299 23.7649 17.5984 23.3579 17.5984 22.9336V16.5336C17.5984 16.1092 17.4299 15.7023 17.1298 15.4022C16.8297 15.1022 16.4228 14.9336 15.9984 14.9336C15.5741 14.9336 15.1671 15.1022 14.8671 15.4022C14.567 15.7023 14.3984 16.1092 14.3984 16.5336V22.9336C14.3984 23.3579 14.567 23.7649 14.8671 24.065C15.1671 24.365 15.5741 24.5336 15.9984 24.5336ZM15.4651 16.5336C15.4651 16.3921 15.5213 16.2565 15.6213 16.1565C15.7213 16.0565 15.857 16.0003 15.9984 16.0003C16.1399 16.0003 16.2755 16.0565 16.3756 16.1565C16.4756 16.2565 16.5318 16.3921 16.5318 16.5336V22.9336C16.5318 23.075 16.4756 23.2107 16.3756 23.3107C16.2755 23.4107 16.1399 23.4669 15.9984 23.4669C15.857 23.4669 15.7213 23.4107 15.6213 23.3107C15.5213 23.2107 15.4651 23.075 15.4651 22.9336V16.5336Z" fill="black"/>
<path d="M15.9984 28.7996C16.3149 28.7996 16.6242 28.7058 16.8873 28.53C17.1505 28.3542 17.3555 28.1043 17.4766 27.8119C17.5977 27.5195 17.6294 27.1978 17.5677 26.8875C17.506 26.5771 17.3536 26.292 17.1298 26.0682C16.906 25.8445 16.621 25.6921 16.3106 25.6304C16.0002 25.5686 15.6785 25.6003 15.3861 25.7214C15.0938 25.8425 14.8439 26.0476 14.6681 26.3107C14.4923 26.5738 14.3984 26.8832 14.3984 27.1996C14.3984 27.624 14.567 28.0309 14.8671 28.331C15.1671 28.631 15.5741 28.7996 15.9984 28.7996ZM15.9984 26.6663C16.1039 26.6663 16.207 26.6976 16.2947 26.7562C16.3824 26.8148 16.4508 26.8981 16.4912 26.9955C16.5315 27.093 16.5421 27.2002 16.5215 27.3037C16.5009 27.4071 16.4501 27.5021 16.3756 27.5767C16.301 27.6513 16.2059 27.7021 16.1025 27.7227C15.999 27.7433 15.8918 27.7327 15.7943 27.6923C15.6969 27.652 15.6136 27.5836 15.555 27.4959C15.4964 27.4082 15.4651 27.3051 15.4651 27.1996C15.4651 27.0582 15.5213 26.9225 15.6213 26.8225C15.7213 26.7225 15.857 26.6663 15.9984 26.6663Z" fill="black"/>
</svg>
