<svg width="80" height="80" viewBox="0 0 80 80" fill="none" xmlns="http://www.w3.org/2000/svg">
<g clip-path="url(#clip0_3_12)">
<path d="M58.3333 36.6667C46.3867 36.6667 36.6667 46.3867 36.6667 58.3333C36.6667 70.28 46.3867 80 58.3333 80C70.28 80 80 70.28 80 58.3333C80 46.3867 70.28 36.6667 58.3333 36.6667ZM58.3333 76.6667C48.2267 76.6667 40 68.44 40 58.3333C40 48.2267 48.2267 40 58.3333 40C68.44 40 76.6667 48.2267 76.6667 58.3333C76.6667 68.44 68.44 76.6667 58.3333 76.6667ZM69.5 53.81C70.14 54.47 70.1233 55.5267 69.46 56.1667L60.45 64.88C59.2533 66.0633 57.6667 66.6567 56.08 66.6567C54.4933 66.6567 52.9167 66.0667 51.7067 64.8867L47.16 60.3967C46.5067 59.7533 46.5 58.6967 47.1467 58.04C47.79 57.39 48.8467 57.38 49.5033 58.0267L54.0433 62.51C55.1633 63.6067 56.9967 63.6 58.1167 62.4967L67.14 53.77C67.8 53.1333 68.8667 53.1467 69.5 53.81ZM18.3333 33.3333C23.8467 33.3333 28.3333 28.8467 28.3333 23.3333C28.3333 17.82 23.8467 13.3333 18.3333 13.3333C12.82 13.3333 8.33334 17.82 8.33334 23.3333C8.33334 28.8467 12.82 33.3333 18.3333 33.3333ZM18.3333 16.6667C22.01 16.6667 25 19.6567 25 23.3333C25 27.01 22.01 30 18.3333 30C14.6567 30 11.6667 27.01 11.6667 23.3333C11.6667 19.6567 14.6567 16.6667 18.3333 16.6667ZM32.9967 47.3333C33.55 48.07 33.4033 49.1133 32.6633 49.6633C31.9267 50.2233 30.8833 50.0667 30.3333 49.33C27.47 45.5167 23.0933 43.33 18.33 43.33C10.06 43.33 3.33001 50.06 3.33001 58.33C3.33001 59.25 2.58334 59.9967 1.66334 59.9967C0.74334 59.9967 -0.00332642 59.25 -0.00332642 58.33C-0.00332642 48.2233 8.22334 39.9967 18.33 39.9967C24.15 39.9967 29.5 42.67 32.9933 47.33L32.9967 47.3333ZM51.6667 20C57.18 20 61.6667 15.5133 61.6667 10C61.6667 4.48667 57.18 0 51.6667 0C46.1533 0 41.6667 4.48667 41.6667 10C41.6667 15.5133 46.1533 20 51.6667 20ZM51.6667 3.33333C55.3433 3.33333 58.3333 6.32333 58.3333 10C58.3333 13.6767 55.3433 16.6667 51.6667 16.6667C47.99 16.6667 45 13.6767 45 10C45 6.32333 47.99 3.33333 51.6667 3.33333ZM35.7633 41.6667C34.13 41.6667 33.8967 40.3767 34.1733 39.5C36.5867 31.8233 43.6167 26.6667 51.6667 26.6667C54.89 26.6667 58.06 27.5133 60.8333 29.12C61.63 29.58 61.9033 30.6 61.4433 31.3967C60.9833 32.1967 59.9567 32.47 59.1667 32.0033C56.8967 30.69 54.3033 29.9967 51.6667 29.9967C45.0767 29.9967 39.3267 34.2167 37.35 40.4967C37.13 41.2067 36.47 41.6633 35.76 41.6633L35.7633 41.6667Z" fill="black"/>
</g>
<defs>
<clipPath id="clip0_3_12">
<rect width="80" height="80" fill="white"/>
</clipPath>
</defs>
</svg>
