<svg width="33" height="32" viewBox="0 0 33 32" fill="none" xmlns="http://www.w3.org/2000/svg">
<g clip-path="url(#clip0_989_14546)">
<path d="M16.4974 15.9995C16.4187 15.9995 16.3414 15.9862 16.2667 15.9582L3.60006 11.2915C3.3374 11.1955 3.16406 10.9449 3.16406 10.6662C3.16406 10.3875 3.33873 10.1369 3.6014 10.0409L12.2681 6.85421C12.6121 6.72887 12.9974 6.90487 13.1241 7.25021C13.2507 7.59554 13.0734 7.97821 12.7281 8.10621L5.7614 10.6662L16.4974 14.6222L27.2334 10.6662L20.2667 8.10487C19.9214 7.97821 19.7441 7.59421 19.8707 7.24887C19.9974 6.90354 20.3814 6.72754 20.7267 6.85287L29.3934 10.0395C29.6561 10.1369 29.8307 10.3875 29.8307 10.6662C29.8307 10.9449 29.6574 11.1955 29.3947 11.2915L16.7281 15.9582C16.6534 15.9862 16.5761 15.9995 16.4974 15.9995Z" fill="black"/>
<path d="M16.4962 32.0002C16.4176 32.0002 16.3402 31.9869 16.2669 31.9589L9.18691 29.3589C8.84157 29.2322 8.66424 28.8495 8.79091 28.5029C8.91757 28.1575 9.30157 27.9802 9.64691 28.1069L16.4962 30.6229L23.3469 28.1069C23.6922 27.9789 24.0749 28.1575 24.2029 28.5029C24.3296 28.8482 24.1522 29.2309 23.8069 29.3589L16.7269 31.9589C16.6522 31.9869 16.5749 32.0002 16.4962 32.0002Z" fill="black"/>
<path d="M3.83073 23.68C3.46273 23.68 3.16406 23.3813 3.16406 23.0133V10.6667C3.16406 10.2987 3.46273 10 3.83073 10C4.19873 10 4.4974 10.2987 4.4974 10.6667V23.0133C4.4974 23.3813 4.19873 23.68 3.83073 23.68Z" fill="black"/>
<path d="M29.1667 23.68C28.7987 23.68 28.5 23.3813 28.5 23.0133V10.6667C28.5 10.2987 28.7987 10 29.1667 10C29.5347 10 29.8333 10.2987 29.8333 10.6667V23.0133C29.8333 23.3813 29.5347 23.68 29.1667 23.68Z" fill="black"/>
<path d="M16.5026 10.6667C16.1346 10.6667 15.8359 10.368 15.8359 10V4.66667C15.8359 4.29867 16.1346 4 16.5026 4C16.8706 4 17.1693 4.29867 17.1693 4.66667V10C17.1693 10.368 16.8706 10.6667 16.5026 10.6667Z" fill="black"/>
<path d="M28.4203 28.5866C28.2497 28.5866 28.079 28.5213 27.9483 28.392L24.695 25.1386C24.435 24.8786 24.435 24.456 24.695 24.196C24.955 23.936 25.3777 23.936 25.6377 24.196L28.891 27.4493C29.151 27.7093 29.151 28.132 28.891 28.392C28.7617 28.5213 28.591 28.5866 28.4203 28.5866Z" fill="black"/>
<path d="M4.58106 28.5866C4.4104 28.5866 4.23973 28.5213 4.10906 28.392C3.84906 28.132 3.84906 27.7093 4.10906 27.4493L7.3624 24.196C7.6224 23.936 8.04506 23.936 8.30506 24.196C8.56506 24.456 8.56506 24.8786 8.30506 25.1386L5.05173 28.392C4.9224 28.5213 4.75173 28.5866 4.58106 28.5866Z" fill="black"/>
<path d="M16.5026 32.0003C16.1346 32.0003 15.8359 31.7017 15.8359 31.3337V15.3337C15.8359 14.9657 16.1346 14.667 16.5026 14.667C16.8706 14.667 17.1693 14.9657 17.1693 15.3337V31.3337C17.1693 31.7017 16.8706 32.0003 16.5026 32.0003Z" fill="black"/>
<path d="M16.5026 5.33333C15.0319 5.33333 13.8359 4.13733 13.8359 2.66667C13.8359 1.196 15.0319 0 16.5026 0C17.9733 0 19.1693 1.196 19.1693 2.66667C19.1693 4.13733 17.9733 5.33333 16.5026 5.33333ZM16.5026 1.33333C15.7679 1.33333 15.1693 1.932 15.1693 2.66667C15.1693 3.40133 15.7679 4 16.5026 4C17.2373 4 17.8359 3.40133 17.8359 2.66667C17.8359 1.932 17.2373 1.33333 16.5026 1.33333Z" fill="black"/>
<path d="M29.8307 32.0003C28.3601 32.0003 27.1641 30.8043 27.1641 29.3337C27.1641 27.863 28.3601 26.667 29.8307 26.667C31.3014 26.667 32.4974 27.863 32.4974 29.3337C32.4974 30.8043 31.3014 32.0003 29.8307 32.0003ZM29.8307 28.0003C29.0961 28.0003 28.4974 28.599 28.4974 29.3337C28.4974 30.0683 29.0961 30.667 29.8307 30.667C30.5654 30.667 31.1641 30.0683 31.1641 29.3337C31.1641 28.599 30.5654 28.0003 29.8307 28.0003Z" fill="black"/>
<path d="M3.16667 32.0003C1.696 32.0003 0.5 30.8043 0.5 29.3337C0.5 27.863 1.696 26.667 3.16667 26.667C4.63733 26.667 5.83333 27.863 5.83333 29.3337C5.83333 30.8043 4.63733 32.0003 3.16667 32.0003ZM3.16667 28.0003C2.432 28.0003 1.83333 28.599 1.83333 29.3337C1.83333 30.0683 2.432 30.667 3.16667 30.667C3.90133 30.667 4.5 30.0683 4.5 29.3337C4.5 28.599 3.90133 28.0003 3.16667 28.0003Z" fill="black"/>
</g>
<defs>
<clipPath id="clip0_989_14546">
<rect width="32" height="32" fill="white" transform="translate(0.5)"/>
</clipPath>
</defs>
</svg>
