<svg width="32" height="32" viewBox="0 0 32 32" fill="none" xmlns="http://www.w3.org/2000/svg">
<path d="M2.5 6.37994V8.00005C2.5 8.27642 2.72363 8.50005 3 8.50005C3.27637 8.50005 3.5 8.27642 3.5 8.00005V6.37994C3.5 6.00884 3.70948 5.66607 4.04492 5.48638C11.0561 1.71255 18.8041 2.68493 23.9791 5.50108C24.3003 5.6729 24.5 6.00982 24.5 6.37993V14.2349C24.5 15.3223 24.3828 16.4209 24.1514 17.5C24.0933 17.7701 24.2651 18.0362 24.5352 18.0938C24.7978 18.1521 25.0724 17.9819 25.1289 17.71C25.375 16.5621 25.5 15.3926 25.5 14.2349V6.37993C25.5 5.64019 25.0981 4.96587 24.4502 4.6187C19.0172 1.67245 10.9298 0.651114 3.57429 4.60411C2.91162 4.95903 2.5 5.63921 2.5 6.37994Z" fill="black"/>
<path d="M2.50069 14.2346C2.43407 21.2268 7.17863 27.8479 13.843 29.9743C13.9457 30.0085 14.0563 30.0081 14.1589 29.9739C15.0925 29.6628 16.0002 29.2654 16.8576 28.7927C17.4256 28.4705 16.9521 27.6069 16.3742 27.9167C15.6189 28.3337 14.821 28.6882 14.0007 28.9719C10.2614 27.6828 7.18575 25.051 5.32686 21.5442C4.13203 19.303 3.50069 16.7756 3.50069 14.2346V10.4997C3.49586 9.85225 2.51009 9.83547 2.50069 10.4998C2.50069 10.4997 2.50069 14.2346 2.50069 14.2346Z" fill="black"/>
<path d="M11.0326 13.0977C11.8732 13.5171 12.8199 12.5491 12.4036 11.7134C11.7992 10.3687 10.4627 9.5 8.99936 9.5C7.535 9.5 6.19858 10.3696 5.59408 11.7153C5.26763 12.376 5.80198 13.215 6.53063 13.1953C6.6766 13.1953 6.82455 13.1641 6.96518 13.0996C8.38154 12.5268 9.42937 12.4517 11.0326 13.0977ZM6.51352 12.1865C6.83037 11.1715 7.94944 10.5002 8.99932 10.5C10.0477 10.4998 11.1655 11.1701 11.4838 12.1826C9.53156 11.4427 8.2725 11.4857 6.51352 12.1865Z" fill="black"/>
<path d="M22.1905 12.8911C22.503 12.5801 22.5869 12.1177 22.4048 11.7134C21.8003 10.3687 20.4639 9.5 19.0005 9.5C17.5362 9.5 16.1997 10.3696 15.5952 11.7153C15.4126 12.1216 15.4971 12.585 15.8101 12.896C16.1187 13.2031 16.5768 13.2791 16.9663 13.0996C17.6153 12.8037 18.2994 12.6533 19.0005 12.6533C19.4829 12.6533 20.2271 12.7305 21.0337 13.0977C21.4302 13.2788 21.8838 13.1968 22.1905 12.8911ZM16.5147 12.1865C16.8315 11.1715 17.9506 10.5002 19.0005 10.5C20.0488 10.4998 21.1667 11.1701 21.4849 12.1826C19.5327 11.4427 18.2737 11.4857 16.5147 12.1865Z" fill="black"/>
<path d="M8.64587 20.7193C11.6515 23.3916 16.3567 23.388 19.3573 20.7191C20.2482 20.0022 19.4963 18.5124 18.3866 18.815C15.5189 19.5303 12.4818 19.5298 9.6112 18.814C8.50953 18.5129 7.75695 20.0067 8.64587 20.7193ZM9.26648 19.8311C9.29599 19.7758 9.32928 19.7746 9.36902 19.7847C12.3993 20.5391 15.6029 20.5401 18.6283 19.7857C18.6532 19.7783 18.7054 19.7666 18.7396 19.8325C18.7753 19.9019 18.7308 19.9395 18.7118 19.9556C16.0731 22.3133 11.9241 22.3086 9.29139 19.9555C9.27479 19.9414 9.22937 19.9033 9.26648 19.8311Z" fill="black"/>
<path d="M25.3844 20.3496C24.8718 19.3011 23.2456 19.2992 22.7331 20.3496C22.7331 20.3496 18.7916 27.7983 18.7916 27.7983C18.2479 28.7497 19.0209 30.0362 20.1174 29.9999C20.1173 29.9999 28.0001 29.9999 28.0001 29.9999C29.0954 30.0354 29.8708 28.7503 29.3258 27.7983C29.3258 27.7983 25.3844 20.3496 25.3844 20.3496ZM28.4284 28.7578C28.3844 28.8305 28.255 28.9999 28.0001 28.9999H20.1173C19.8625 28.9999 19.7331 28.8305 19.6891 28.7578C19.6452 28.685 19.5563 28.4916 19.6754 28.2661L23.6168 20.8173C23.7438 20.5771 23.9684 20.5512 24.0587 20.5512C24.1491 20.5512 24.3737 20.5771 24.5006 20.8173L28.442 28.2661C28.5612 28.4916 28.4723 28.685 28.4284 28.7578Z" fill="black"/>
<path d="M24.0554 26.5C23.3982 26.5111 23.3983 27.4889 24.0554 27.5C24.7126 27.4888 24.7125 26.5111 24.0554 26.5Z" fill="black"/>
<path d="M24.0586 25.5C24.335 25.5 24.5586 25.2764 24.5586 25V23C24.5586 22.7236 24.335 22.5 24.0586 22.5C23.7822 22.5 23.5586 22.7236 23.5586 23V25C23.5586 25.2764 23.7822 25.5 24.0586 25.5Z" fill="black"/>
</svg>
