<svg width="52" height="52" viewBox="0 0 52 52" fill="none" xmlns="http://www.w3.org/2000/svg">
<g clip-path="url(#clip0_1044_15338)">
<path d="M51.1875 5.3291H15.7686C15.3197 5.3291 14.9571 5.6927 14.9571 6.14059V22.7704H2.45883C1.10297 22.7704 0 23.8744 0 25.2313V30.5339C0 31.8897 1.10297 32.9927 2.45883 32.9927H3.72531V36.4499H2.45883C1.10297 36.4509 0 37.5539 0 38.9097V44.2123C0 45.5682 1.10297 46.6711 2.45883 46.6711H29.0773C30.4332 46.6711 31.5362 45.5682 31.5362 44.2123V42.373H51.1875C51.6354 42.373 51.999 42.0094 51.999 41.5615V6.1416C52 5.6927 51.6364 5.3291 51.1875 5.3291ZM1.62398 30.5349V25.2323C1.62398 24.7783 2.00586 24.3944 2.45883 24.3944H29.0773C29.5374 24.3944 29.9122 24.7702 29.9122 25.2323V30.5349C29.9122 30.995 29.5374 31.3697 29.0773 31.3697H2.45883C2.00688 31.3697 1.62398 30.9868 1.62398 30.5349ZM5.3493 32.9927H26.1899V36.4499H5.3493V32.9927ZM29.9122 44.2123C29.9122 44.6724 29.5374 45.0471 29.0773 45.0471H2.45883C1.99875 45.0471 1.62398 44.6724 1.62398 44.2123V38.9097C1.62398 38.4496 1.99875 38.0749 2.45883 38.0749H29.0773C29.5374 38.0749 29.9122 38.4496 29.9122 38.9097V44.2123ZM50.376 40.749H31.5362V38.9097C31.5362 37.5539 30.4332 36.4509 29.0773 36.4509H27.8139V32.9937H29.0773C30.4332 32.9937 31.5362 31.8907 31.5362 30.5349V25.2323C31.5362 23.8754 30.4332 22.7704 29.0773 22.7704H16.5801V6.95309H50.376V40.749ZM4.65867 27.8831C4.65867 27.4342 5.02227 27.0716 5.47016 27.0716H19.3609C19.8098 27.0716 20.1723 27.4352 20.1723 27.8831C20.1723 28.331 19.8088 28.6946 19.3609 28.6946H5.47016C5.02227 28.6946 4.65867 28.331 4.65867 27.8831ZM23.7605 27.8831C23.7605 27.4342 24.1241 27.0716 24.572 27.0716H26.066C26.5149 27.0716 26.8775 27.4352 26.8775 27.8831C26.8775 28.331 26.5139 28.6946 26.066 28.6946H24.572C24.1241 28.6946 23.7605 28.331 23.7605 27.8831ZM20.1734 41.5605C20.1734 42.0094 19.8098 42.372 19.3619 42.372H5.47016C5.02125 42.372 4.65867 42.0084 4.65867 41.5605C4.65867 41.1126 5.02227 40.749 5.47016 40.749H19.3609C19.8098 40.749 20.1734 41.1126 20.1734 41.5605ZM26.8785 41.5605C26.8785 42.0094 26.5149 42.372 26.067 42.372H24.573C24.1241 42.372 23.7616 42.0084 23.7616 41.5605C23.7616 41.1126 24.1252 40.749 24.573 40.749H26.067C26.5149 40.749 26.8785 41.1126 26.8785 41.5605ZM34.3332 22.9959C34.0163 22.679 34.0163 22.1651 34.3332 21.8482L43.7379 12.4436H35.6271C35.1782 12.4436 34.8156 12.08 34.8156 11.6321C34.8156 11.1842 35.1792 10.8206 35.6271 10.8206H45.698C46.147 10.8206 46.5095 11.1842 46.5095 11.6321V21.703C46.5095 22.1519 46.1459 22.5145 45.698 22.5145C45.2502 22.5145 44.8866 22.1509 44.8866 21.703V13.5922L35.4819 22.9969C35.3234 23.1554 35.1152 23.2346 34.908 23.2346C34.6998 23.2336 34.4916 23.1543 34.3332 22.9959Z" fill="black"/>
</g>
<defs>
<clipPath id="clip0_1044_15338">
<rect width="52" height="52" fill="white"/>
</clipPath>
</defs>
</svg>
