<svg width="52" height="52" viewBox="0 0 52 52" fill="none" xmlns="http://www.w3.org/2000/svg">
<mask id="mask0_1071_2313" style="mask-type:luminance" maskUnits="userSpaceOnUse" x="0" y="0" width="52" height="52">
<path d="M52 0H0V52H52V0Z" fill="white" style="fill:white;fill-opacity:1;"/>
</mask>
<g mask="url(#mask0_1071_2313)">
<path d="M48.4034 17.7345C48.4036 17.7345 48.4032 17.7345 48.4034 17.7345C47.541 17.7345 46.7279 18.0722 46.1149 18.6853C45.5016 19.2984 45.164 20.1112 45.164 20.9738L45.1637 29.9273C44.8056 29.8046 44.4256 29.7393 44.0348 29.7377C44.03 29.7377 44.0252 29.7377 44.0205 29.7377C43.0889 29.7377 42.2149 30.0961 41.5579 30.7479L34.9041 37.3494C34.8783 37.375 34.8542 37.4023 34.8321 37.4311C33.9595 38.5666 33.6111 39.8621 33.7967 41.2814L34.1522 44.0019L34.0659 43.9787C33.7189 43.886 33.356 43.9335 33.044 44.1138C32.7321 44.2937 32.5091 44.5841 32.416 44.9312L31.8395 47.0831C31.7465 47.4301 31.7946 47.7929 31.9746 48.1049C32.1547 48.4169 32.4451 48.6398 32.792 48.7327L44.4349 51.8524C44.5507 51.8835 44.6681 51.8988 44.7849 51.8988C45.0183 51.8988 45.249 51.8375 45.4569 51.7175C45.7688 51.5375 45.9918 51.2471 46.0848 50.9001L46.6614 48.7482C46.7543 48.4011 46.7063 48.0384 46.5262 47.7264C46.3461 47.4144 46.0558 47.1914 45.7088 47.0985L45.3949 47.0144C45.2423 45.5418 45.5804 44.4965 46.5189 43.487L50.1375 39.5946C51.1363 38.5202 51.6427 37.2881 51.6427 35.9322L51.6428 20.9738C51.6427 19.1879 50.1896 17.7348 48.4034 17.7345ZM44.587 50.211L33.4808 47.235L33.9135 45.6204L45.0196 48.5963L44.587 50.211ZM50.0176 35.9322C50.0176 36.8773 49.6675 37.7134 48.9473 38.4881L45.3287 42.3805C44.2011 43.5934 43.692 44.917 43.7378 46.5704L35.8506 44.457L35.4081 41.0708C35.2808 40.0977 35.5035 39.2442 36.089 38.4628L42.7024 31.9015C43.0528 31.5537 43.5207 31.3626 44.0207 31.3626H44.0285C44.5313 31.3646 45.0007 31.5596 45.3501 31.912C46.0772 32.6447 46.0724 33.8324 45.3397 34.5595L41.7852 38.0861C41.4667 38.4021 41.4646 38.9166 41.7807 39.2351C42.0968 39.5535 42.6113 39.5555 42.9297 39.2396L46.484 35.7131C47.7487 34.4583 47.8514 32.4694 46.7886 31.0944L46.7889 20.9738C46.7889 20.5452 46.9575 20.1406 47.2639 19.8342C47.5701 19.528 47.9746 19.3594 48.4029 19.3594C49.2932 19.3595 50.0177 20.0838 50.0177 20.9738L50.0176 35.9322ZM19.5842 44.9313C19.4912 44.5842 19.2683 44.294 18.9563 44.1139C18.6443 43.9337 18.2813 43.8859 17.9343 43.9788L17.8479 44.002L18.2035 41.2814C18.389 39.8621 18.0407 38.5666 17.1681 37.4312C17.146 37.4023 17.1219 37.375 17.0961 37.3494L10.4424 30.7479C9.78552 30.0961 8.91142 29.7377 7.97992 29.7377C7.97512 29.7377 7.97022 29.7378 7.96552 29.7378C7.57472 29.7393 7.19462 29.8047 6.83652 29.9273L6.83642 20.9738C6.83642 20.1112 6.49872 19.2985 5.88552 18.6853C5.27232 18.0721 4.45972 17.7345 3.59732 17.7345C3.59742 17.7345 3.59722 17.7345 3.59732 17.7345C1.81112 17.7348 0.357422 19.188 0.357422 20.9739L0.357522 35.9322C0.357522 37.2881 0.864023 38.5202 1.86282 39.5946L5.48142 43.487C6.41992 44.4965 6.75802 45.5419 6.60532 47.0144L6.29152 47.0985C5.94452 47.1914 5.65412 47.4144 5.47402 47.7265C5.29392 48.0384 5.24592 48.4014 5.33892 48.7483L5.91542 50.9002C6.00852 51.2471 6.23142 51.5374 6.54342 51.7175C6.75142 51.8376 6.98192 51.8988 7.21542 51.8988C7.33212 51.8988 7.44962 51.8835 7.56522 51.8525L19.2084 48.7328C19.9259 48.5404 20.3531 47.8003 20.1609 47.0832L19.5842 44.9313ZM6.67152 42.3806L3.05292 38.4882C2.33262 37.7135 1.98252 36.8775 1.98252 35.9323L1.98232 20.9739C1.98232 20.0839 2.70672 19.3596 3.59692 19.3595C4.02542 19.3594 4.43002 19.5281 4.73632 19.8344C5.04262 20.1408 5.21132 20.5454 5.21132 20.9739L5.21142 31.0945C4.14862 32.4695 4.25132 34.4584 5.51612 35.7132L9.07042 39.2397C9.38892 39.5557 9.90342 39.5536 10.2193 39.2352C10.5354 38.9166 10.5334 38.4022 10.2149 38.0862L6.66062 34.5598C5.92782 33.8327 5.92312 32.6449 6.65012 31.9123C6.99952 31.5599 7.46892 31.3649 7.97192 31.363C7.97452 31.3629 7.97702 31.3629 7.97972 31.3629C8.47962 31.3629 8.94752 31.5541 9.29792 31.9017L15.9112 38.463C16.4966 39.2443 16.7194 40.0979 16.5922 41.071L16.1497 44.4573L8.26242 46.5707C8.30802 44.9171 7.79902 43.5934 6.67152 42.3806ZM7.41312 50.211L6.98042 48.5962L18.0865 45.6204L18.5191 47.2351L7.41312 50.211ZM32.4421 39.1695V35.8392C32.4421 35.1221 32.7816 34.5251 33.3977 34.1578C35.5135 32.8972 37.2855 31.1052 38.5223 28.9758C39.7972 26.7803 40.4712 24.2706 40.4712 21.7178C40.4712 13.7386 33.9795 7.24686 26 7.24686C18.0207 7.24686 11.529 13.7386 11.529 21.7178C11.529 24.2706 12.203 26.7803 13.4779 28.9758C14.7146 31.1053 16.4867 32.8972 18.6023 34.1577C19.2185 34.525 19.5579 35.1221 19.5579 35.8392V39.1695C19.5579 40.3698 20.3481 41.3886 21.4355 41.734V41.7879C21.4355 43.7633 23.0425 45.3704 25.0179 45.3704H26.9822C28.9576 45.3704 30.5646 43.7633 30.5646 41.7879V41.734C31.652 41.3885 32.4421 40.3697 32.4421 39.1695ZM19.434 32.7617C15.5603 30.4537 13.1539 26.2219 13.1539 21.7178C13.1539 14.6345 18.9166 8.87186 25.9999 8.87186C33.0833 8.87186 38.8461 14.6345 38.8461 21.7178C38.8461 26.222 36.4396 30.4538 32.5659 32.7618C31.4545 33.4241 30.8171 34.5457 30.8171 35.8392V36.9852H21.1828V35.8392C21.1828 34.5457 20.5454 33.4241 19.434 32.7617ZM26.9821 43.7453H25.0178C23.9628 43.7453 23.1022 42.9056 23.0641 41.8596H28.9359C28.8977 42.9056 28.0373 43.7453 26.9821 43.7453ZM29.752 40.2346H22.2479C21.6606 40.2346 21.1828 39.7568 21.1828 39.1695V38.6102H30.8171V39.1695C30.8171 39.7568 30.3394 40.2346 29.752 40.2346ZM40.1516 13.4392C39.9273 13.0506 40.0604 12.5536 40.449 12.3293L43.5166 10.5582C43.9053 10.3339 44.4021 10.467 44.6265 10.8556C44.8508 11.2442 44.7177 11.7411 44.3291 11.9655L41.2615 13.7365C41.1335 13.8105 40.9939 13.8455 40.856 13.8455C40.5753 13.8455 40.3022 13.6998 40.1516 13.4392ZM25.1875 4.45626V0.914062C25.1875 0.465362 25.5513 0.101562 26 0.101562C26.4487 0.101562 26.8125 0.465362 26.8125 0.914062V4.45626C26.8125 4.90496 26.4487 5.26876 26 5.26876C25.5513 5.26876 25.1875 4.90486 25.1875 4.45626ZM14.9486 4.09296C14.7243 3.70436 14.8574 3.20736 15.246 2.98306C15.6346 2.75876 16.1315 2.89186 16.3559 3.28046L18.127 6.34796C18.3514 6.73646 18.2182 7.23346 17.8296 7.45776C17.7018 7.53176 17.562 7.56676 17.4241 7.56676C17.1433 7.56676 16.8702 7.42106 16.7196 7.16046L14.9486 4.09296ZM7.37352 10.8555C7.59782 10.4668 8.09482 10.3337 8.48332 10.5581L11.5509 12.3292C11.9395 12.5535 12.0727 13.0505 11.8483 13.4391C11.6978 13.6997 11.4247 13.8454 11.1439 13.8454C11.006 13.8454 10.8663 13.8103 10.7383 13.7364L7.67072 11.9654C7.28232 11.741 7.14912 11.2441 7.37352 10.8555ZM33.873 6.34796L35.6441 3.28046C35.8684 2.89176 36.3654 2.75856 36.754 2.98306C37.1425 3.20736 37.2757 3.70436 37.0513 4.09296L35.2803 7.16046C35.1298 7.42106 34.8567 7.56676 34.5759 7.56676C34.438 7.56676 34.2983 7.53166 34.1703 7.45776C33.7818 7.23346 33.6487 6.73656 33.873 6.34796ZM23.4432 31.08V32.1874C23.4432 32.6361 23.807 32.9999 24.2557 32.9999H27.7444C28.1931 32.9999 28.5569 32.6361 28.5569 32.1874V31.08C29.342 30.8662 30.0926 30.555 30.7998 30.1503L31.5833 30.9338C31.7357 31.0863 31.9423 31.1719 32.1579 31.1719C32.3734 31.1719 32.5801 31.0863 32.7324 30.9339L35.1994 28.4671C35.3517 28.3146 35.4373 28.108 35.4373 27.8925C35.4373 27.677 35.3517 27.4704 35.1994 27.318L34.4157 26.5343C34.8206 25.8268 35.1317 25.0764 35.3455 24.2914H36.453C36.9017 24.2914 37.2655 23.9276 37.2655 23.4789V19.9902C37.2655 19.5415 36.9017 19.1777 36.453 19.1777H35.3454C35.1315 18.3927 34.8204 17.6421 34.4157 16.9349L35.1994 16.1512C35.5167 15.8339 35.5166 15.3196 35.1994 15.0023L32.7325 12.5354C32.5802 12.383 32.3735 12.2974 32.158 12.2974C31.9424 12.2974 31.7358 12.383 31.5834 12.5354L30.7997 13.3191C30.0923 12.9144 29.3417 12.6032 28.5569 12.3894V11.2818C28.5569 10.8331 28.1931 10.4693 27.7444 10.4693H24.2557C23.807 10.4693 23.4432 10.8331 23.4432 11.2818V12.3893C22.6581 12.6031 21.9075 12.9142 21.2003 13.3189L20.4166 12.5352C20.0993 12.2181 19.5849 12.2181 19.2676 12.5352L16.8008 15.0021C16.4835 15.3195 16.4835 15.8338 16.8008 16.1512L17.5845 16.9348C17.1796 17.6422 16.8684 18.3927 16.6546 19.1776H15.5472C15.0985 19.1776 14.7347 19.5414 14.7347 19.9901V23.4788C14.7347 23.9275 15.0985 24.2913 15.5472 24.2913H16.6546C16.8685 25.0765 17.1796 25.827 17.5844 26.5343L16.8008 27.3179C16.6485 27.4703 16.5628 27.6769 16.5628 27.8924C16.5628 28.1079 16.6485 28.3145 16.8008 28.467L19.2676 30.9338C19.5849 31.2509 20.0993 31.2511 20.4166 30.9338L21.2003 30.1501C21.9078 30.5551 22.6582 30.8663 23.4432 31.08ZM20.5059 28.5466L19.8422 29.2103L18.5243 27.8924L19.188 27.2288C19.462 26.9548 19.5044 26.5255 19.2894 26.2031C18.7027 25.324 18.3006 24.354 18.0943 23.3199C18.0185 22.9399 17.685 22.6662 17.2975 22.6662H16.3597V20.8025H17.2975C17.685 20.8025 18.0186 20.5289 18.0944 20.1489C18.3004 19.1154 18.7025 18.1454 19.2895 17.2657C19.5046 16.9435 19.4621 16.5143 19.1881 16.2401L18.5243 15.5764L19.8422 14.2586L20.506 14.9224C20.7799 15.1963 21.2092 15.2386 21.5316 15.0236C22.4107 14.4369 23.3807 14.0348 24.4147 13.8286C24.7947 13.7529 25.0684 13.4194 25.0684 13.0318V12.0939H26.9321V13.0318C26.9321 13.4193 27.2057 13.7529 27.5857 13.8286C28.6192 14.0346 29.5893 14.4367 30.4689 15.0237C30.7912 15.2388 31.2204 15.1965 31.4943 14.9225L32.1583 14.2586L33.476 15.5764L32.8122 16.2404C32.5382 16.5143 32.4959 16.9437 32.711 17.2659C33.2977 18.1449 33.6997 19.1149 33.906 20.1489C33.9817 20.5288 34.3152 20.8025 34.7027 20.8025H35.6407V22.6662H34.7027C34.3152 22.6662 33.9816 22.9398 33.9059 23.32C33.6999 24.3535 33.2979 25.3235 32.7109 26.2031C32.4958 26.5254 32.5382 26.9547 32.8122 27.2287L33.476 27.8924L32.1582 29.2103L31.4945 28.5466C31.2205 28.2726 30.7911 28.2302 30.4689 28.4453C29.5899 29.032 28.6198 29.434 27.5858 29.6403C27.2059 29.7161 26.9322 30.0496 26.9322 30.4372V31.375H25.0685V30.4372C25.0685 30.0497 24.7949 29.7161 24.4147 29.6403C23.3813 29.4343 22.4113 29.0324 21.5317 28.4453C21.2091 28.2302 20.78 28.2727 20.5059 28.5466ZM26 27.9644C29.4352 27.9644 32.2299 25.1697 32.2299 21.7346C32.2299 18.2994 29.4352 15.5047 26 15.5047C22.5649 15.5047 19.7702 18.2995 19.7702 21.7347C19.7702 25.1698 22.5649 27.9644 26 27.9644ZM25.5155 26.3138V22.8574C25.5155 22.4086 25.1517 22.0449 24.703 22.0449H24.3883L26 19.9593L27.6117 22.0449H27.2971C26.8484 22.0449 26.4846 22.4086 26.4846 22.8574V26.3138C26.3253 26.3306 26.1637 26.3394 26 26.3394C25.8364 26.3394 25.6747 26.3305 25.5155 26.3138ZM26 17.1297C28.5391 17.1297 30.6049 19.1955 30.6049 21.7347C30.6049 23.5138 29.5901 25.0593 28.1096 25.8258V23.67H28.5641C29.0087 23.67 29.408 23.4216 29.6045 23.0217C29.8001 22.6238 29.7525 22.1577 29.4803 21.8055L26.9155 18.4863C26.6947 18.2006 26.361 18.0367 25.9999 18.0367C25.639 18.0368 25.3053 18.2006 25.0845 18.4864L22.5197 21.8056C22.2476 22.1578 22.2001 22.6238 22.3955 23.0216C22.592 23.4215 22.9903 23.67 23.4349 23.67H23.8904V25.8258C22.4098 25.0593 21.3951 23.5138 21.3951 21.7347C21.3952 19.1955 23.4609 17.1297 26 17.1297Z" fill="black" style="fill:black;fill-opacity:1;"/>
</g>
</svg>
