<svg width="52" height="52" viewBox="0 0 52 52" fill="none" xmlns="http://www.w3.org/2000/svg">
<path d="M3.25059 26.0003C3.29986 26.0002 3.34907 25.997 3.39792 25.9906C11.356 24.9108 19.1176 22.6929 26.4448 19.405C33.8442 16.0758 40.719 11.6863 46.8526 6.37466L45.5331 11.6548C45.4636 11.9334 45.5075 12.2281 45.6552 12.4743C45.8029 12.7205 46.0422 12.898 46.3207 12.9678C46.4068 12.9891 46.4952 13 46.5839 13.0003C46.8254 13 47.0598 12.919 47.25 12.7703C47.4402 12.6215 47.5752 12.4134 47.6337 12.1792L49.8003 3.51249C49.8401 3.35292 49.8431 3.18637 49.809 3.02549C49.7748 2.86461 49.7045 2.71361 49.6033 2.58394C49.5022 2.45427 49.3728 2.34934 49.2251 2.2771C49.0773 2.20485 48.9151 2.1672 48.7506 2.16699H40.0839C39.7966 2.16699 39.5211 2.28113 39.3179 2.48429C39.1147 2.68746 39.0006 2.96301 39.0006 3.25033C39.0006 3.53764 39.1147 3.81319 39.3179 4.01636C39.5211 4.21952 39.7966 4.33366 40.0839 4.33366H45.9003C39.8086 9.68702 32.9517 14.1008 25.5564 17.429C18.4184 20.6318 10.857 22.7921 3.10434 23.8434C2.83197 23.8802 2.58376 24.0191 2.41 24.2321C2.23623 24.445 2.14991 24.7161 2.1685 24.9903C2.18709 25.2645 2.30922 25.5214 2.51014 25.7089C2.71105 25.8965 2.97574 26.0006 3.25059 26.0003Z" fill="black"/>
<path d="M48.7513 47.6673H47.668V18.4173C47.668 18.13 47.5538 17.8544 47.3507 17.6513C47.1475 17.4481 46.872 17.334 46.5846 17.334H35.7513C35.464 17.334 35.1884 17.4481 34.9853 17.6513C34.7821 17.8544 34.668 18.13 34.668 18.4173V47.6673H32.5013V24.9173C32.5013 24.63 32.3872 24.3544 32.184 24.1513C31.9808 23.9481 31.7053 23.834 31.418 23.834H20.5846C20.2973 23.834 20.0218 23.9481 19.8186 24.1513C19.6154 24.3544 19.5013 24.63 19.5013 24.9173V47.6673H17.3346V31.4173C17.3346 31.13 17.2205 30.8544 17.0173 30.6513C16.8142 30.4481 16.5386 30.334 16.2513 30.334H5.41797C5.13065 30.334 4.8551 30.4481 4.65194 30.6513C4.44877 30.8544 4.33464 31.13 4.33464 31.4173V47.6673H3.2513C2.96398 47.6673 2.68843 47.7815 2.48527 47.9846C2.28211 48.1878 2.16797 48.4633 2.16797 48.7507C2.16797 49.038 2.28211 49.3135 2.48527 49.5167C2.68843 49.7198 2.96398 49.834 3.2513 49.834H48.7513C49.0386 49.834 49.3142 49.7198 49.5173 49.5167C49.7205 49.3135 49.8346 49.038 49.8346 48.7507C49.8346 48.4633 49.7205 48.1878 49.5173 47.9846C49.3142 47.7815 49.0386 47.6673 48.7513 47.6673ZM36.8346 19.5007H45.5013V47.6673H36.8346V19.5007ZM21.668 26.0007H30.3346V47.6673H21.668V26.0007ZM6.5013 32.5007H15.168V47.6673H6.5013V32.5007Z" fill="black"/>
</svg>
