<svg width="33" height="32" viewBox="0 0 33 32" fill="none" xmlns="http://www.w3.org/2000/svg">
<path d="M27.1667 8.068V6C27.1667 2.692 24.4747 0 21.1667 0H11.8333C8.52533 0 5.83333 2.692 5.83333 6V8.068C2.84133 8.404 0.5 10.92 0.5 14V26C0.5 29.308 3.192 32 6.5 32H26.5C29.808 32 32.5 29.308 32.5 26V14C32.5 10.92 30.1587 8.404 27.1667 8.068ZM1.83333 26V14C1.83333 11.656 3.57733 9.728 5.83333 9.40133V30.6C3.57733 30.2733 1.83333 28.344 1.83333 26ZM7.16667 6C7.16667 3.42667 9.26 1.33333 11.8333 1.33333H21.1667C23.74 1.33333 25.8333 3.42667 25.8333 6V30.6667H7.16667V6ZM31.1667 26C31.1667 28.344 29.4227 30.272 27.1667 30.5987V9.40133C29.4227 9.728 31.1667 11.656 31.1667 14V26ZM15.1667 19.3333C15.1667 19.7013 14.868 20 14.5 20H11.8333C11.4653 20 11.1667 19.7013 11.1667 19.3333C11.1667 18.9653 11.4653 18.6667 11.8333 18.6667H14.5C14.868 18.6667 15.1667 18.9653 15.1667 19.3333ZM21.8333 19.3333C21.8333 19.7013 21.5347 20 21.1667 20H18.5C18.132 20 17.8333 19.7013 17.8333 19.3333C17.8333 18.9653 18.132 18.6667 18.5 18.6667H21.1667C21.5347 18.6667 21.8333 18.9653 21.8333 19.3333ZM15.1667 24.6667C15.1667 25.0347 14.868 25.3333 14.5 25.3333H11.8333C11.4653 25.3333 11.1667 25.0347 11.1667 24.6667C11.1667 24.2987 11.4653 24 11.8333 24H14.5C14.868 24 15.1667 24.2987 15.1667 24.6667ZM21.8333 24.6667C21.8333 25.0347 21.5347 25.3333 21.1667 25.3333H18.5C18.132 25.3333 17.8333 25.0347 17.8333 24.6667C17.8333 24.2987 18.132 24 18.5 24H21.1667C21.5347 24 21.8333 24.2987 21.8333 24.6667ZM17.1667 10V12.6667C17.1667 13.0347 16.868 13.3333 16.5 13.3333C16.132 13.3333 15.8333 13.0347 15.8333 12.6667V10H13.1667C12.7987 10 12.5 9.70133 12.5 9.33333C12.5 8.96533 12.7987 8.66667 13.1667 8.66667H15.8333V6C15.8333 5.632 16.132 5.33333 16.5 5.33333C16.868 5.33333 17.1667 5.632 17.1667 6V8.66667H19.8333C20.2013 8.66667 20.5 8.96533 20.5 9.33333C20.5 9.70133 20.2013 10 19.8333 10H17.1667Z" fill="white"/>
</svg>
