<svg width="52" height="52" viewBox="0 0 52 52" fill="none" xmlns="http://www.w3.org/2000/svg">
<path d="M15.7673 36.4824H15.0851C14.6844 36.4824 14.3594 36.8074 14.3594 37.2082C14.3594 37.609 14.6844 37.934 15.0851 37.934H15.7673C16.1681 37.934 16.4931 37.609 16.4931 37.2082C16.493 36.8073 16.1681 36.4824 15.7673 36.4824Z" fill="black"/>
<path d="M39.7782 36.4824H39.3898C38.9891 36.4824 38.6641 36.8074 38.6641 37.2082C38.6641 37.609 38.9891 37.934 39.3898 37.934H39.7782C40.179 37.934 40.504 37.609 40.504 37.2082C40.504 36.8073 40.1791 36.4824 39.7782 36.4824Z" fill="black"/>
<path d="M45.092 17.3304C44.5583 16.3063 43.5076 15.6702 42.3492 15.6702H33.316V13.0933C33.316 11.4118 31.9482 10.0439 30.267 10.0439H6.11963C4.43816 10.0439 3.07031 11.4118 3.07031 13.0933V35.1997C3.07031 36.7071 4.30034 37.9336 5.8124 37.9336H10.6397C10.991 40.2079 12.956 41.9564 15.3271 41.9564C17.7029 41.9564 19.6717 40.2079 20.0235 37.9336H34.8935C35.2447 40.2079 37.2095 41.9564 39.5806 41.9564C41.9565 41.9564 43.9256 40.2079 44.2775 37.9336H45.8178C47.5357 37.9336 48.9333 36.536 48.9333 34.818V25.4659C48.9333 24.9684 48.8128 24.4758 48.5861 24.0438L45.092 17.3304ZM6.11963 11.4954H30.2671C31.1481 11.4954 31.8646 12.2123 31.8646 13.0933V29.2108H4.52174V13.0933C4.52174 12.2123 5.23867 11.4954 6.11963 11.4954ZM4.52174 35.1997V30.6624H31.8646V36.4821H20.0338C19.686 34.2135 17.7117 32.4959 15.3964 32.4624C15.3768 32.4622 15.3585 32.4572 15.3388 32.4572C15.3289 32.4572 15.3197 32.4598 15.3098 32.4598C12.9935 32.4683 10.988 34.1859 10.6352 36.482H5.8124C5.10075 36.4821 4.52174 35.9069 4.52174 35.1997ZM15.3271 40.5049C13.5108 40.5049 12.0336 39.0289 12.0303 37.2137C12.0303 37.2117 12.0315 37.21 12.0315 37.2079C12.0315 35.3784 13.528 33.9105 15.3271 33.9105C17.1503 33.9105 18.6336 35.3897 18.6336 37.2079C18.6336 39.0257 17.1503 40.5049 15.3271 40.5049ZM39.5806 40.5049C37.7667 40.5049 36.2913 39.032 36.2848 37.2195C36.2849 37.2154 36.2871 37.212 36.2871 37.2079C36.2871 35.3838 37.7783 33.9105 39.5806 33.9105C41.4396 33.9105 42.8847 35.4636 42.8847 37.2079C42.8847 37.2112 42.8866 37.2138 42.8867 37.2172C42.8814 39.0307 41.4009 40.5049 39.5806 40.5049ZM47.4819 34.818C47.4819 35.7354 46.7352 36.4821 45.8178 36.4821H44.2809C43.9272 34.1986 41.9624 32.4983 39.6537 32.4626C39.6334 32.4623 39.6145 32.4572 39.5941 32.4572C39.585 32.4572 39.5764 32.4596 39.5674 32.4596C37.2383 32.4662 35.2488 34.1835 34.8911 36.4821H33.3162V17.1216H42.3494C42.9646 17.1216 43.5224 17.4586 43.8048 18.0005L47.2999 24.7161C47.4189 24.9433 47.482 25.2023 47.482 25.4659V34.818H47.4819Z" fill="black"/>
<path d="M42.9 19.4152C42.6307 18.8982 42.1012 18.5771 41.5184 18.5771H36.3273C35.4683 18.5771 34.7695 19.276 34.7695 20.1349V24.7824C34.7695 25.6414 35.4684 26.3402 36.3273 26.3402H45.303C45.7037 26.3402 46.0288 26.0014 46.0288 25.6006C46.0288 25.484 46.0007 25.3688 45.9466 25.2653L42.9 19.4152ZM36.3273 24.8888C36.2688 24.8888 36.221 24.8409 36.221 24.7824V20.1349C36.221 20.0764 36.2688 20.0286 36.3273 20.0286H41.5184C41.5581 20.0286 41.5942 20.0505 41.6126 20.0857L44.1141 24.8888H36.3273Z" fill="black"/>
<path d="M37.2924 27.7568H36.3937C35.993 27.7568 35.668 28.0818 35.668 28.4826C35.668 28.8834 35.993 29.2084 36.3937 29.2084H37.2924C37.6931 29.2084 38.0181 28.8834 38.0181 28.4826C38.018 28.0818 37.6931 27.7568 37.2924 27.7568Z" fill="black"/>
</svg>
