<svg width="52" height="52" viewBox="0 0 52 52" fill="none" xmlns="http://www.w3.org/2000/svg">
<g clip-path="url(#clip0_1040_13958)">
<path d="M37.2651 0H14.7318C13.5829 0.00137614 12.4815 0.458364 11.6692 1.27072C10.8568 2.08308 10.3998 3.18448 10.3984 4.33333V47.6667C10.3998 48.8155 10.8568 49.9169 11.6692 50.7293C12.4815 51.5416 13.5829 51.9986 14.7318 52H37.2651C38.414 51.9986 39.5154 51.5416 40.3277 50.7293C41.1401 49.9169 41.5971 48.8155 41.5984 47.6667V4.33333C41.5971 3.18448 41.1401 2.08308 40.3277 1.27072C39.5154 0.458364 38.414 0.00137614 37.2651 0ZM20.7984 1.73333H31.1984V2.6C31.1984 2.82985 31.1071 3.05029 30.9446 3.21283C30.7821 3.37536 30.5616 3.46667 30.3318 3.46667H21.6651C21.4353 3.46667 21.2148 3.37536 21.0523 3.21283C20.8897 3.05029 20.7984 2.82985 20.7984 2.6V1.73333ZM39.8651 47.6667C39.8651 48.3562 39.5912 49.0175 39.1036 49.5051C38.616 49.9927 37.9547 50.2667 37.2651 50.2667H14.7318C14.0422 50.2667 13.3809 49.9927 12.8933 49.5051C12.4057 49.0175 12.1318 48.3562 12.1318 47.6667V4.33333C12.1318 3.64377 12.4057 2.98245 12.8933 2.49486C13.3809 2.00726 14.0422 1.73333 14.7318 1.73333H19.0651V2.6C19.0651 3.28956 19.339 3.95088 19.8266 4.43848C20.3142 4.92607 20.9755 5.2 21.6651 5.2H30.3318C31.0213 5.2 31.6827 4.92607 32.1702 4.43848C32.6578 3.95088 32.9318 3.28956 32.9318 2.6V1.73333H37.2651C37.9547 1.73333 38.616 2.00726 39.1036 2.49486C39.5912 2.98245 39.8651 3.64377 39.8651 4.33333V47.6667Z" fill="black"/>
<path d="M32.0664 46.7998H19.9331C19.7032 46.7998 19.4828 46.8911 19.3202 47.0536C19.1577 47.2162 19.0664 47.4366 19.0664 47.6665C19.0664 47.8963 19.1577 48.1168 19.3202 48.2793C19.4828 48.4418 19.7032 48.5331 19.9331 48.5331H32.0664C32.2963 48.5331 32.5167 48.4418 32.6792 48.2793C32.8418 48.1168 32.9331 47.8963 32.9331 47.6665C32.9331 47.4366 32.8418 47.2162 32.6792 47.0536C32.5167 46.8911 32.2963 46.7998 32.0664 46.7998Z" fill="black"/>
<path d="M32.9339 33.7997C33.1637 33.7997 33.3841 33.7084 33.5467 33.5459C33.7092 33.3834 33.8005 33.1629 33.8005 32.9331C33.8005 32.7032 33.7092 32.4828 33.5467 32.3202C33.3841 32.1577 33.1637 32.0664 32.9339 32.0664H27.7339C27.504 32.0664 27.2836 32.1577 27.121 32.3202C26.9585 32.4828 26.8672 32.7032 26.8672 32.9331C26.8672 33.1629 26.9585 33.3834 27.121 33.5459C27.2836 33.7084 27.504 33.7997 27.7339 33.7997H29.4672V40.7331H27.7339C27.504 40.7331 27.2836 40.8244 27.121 40.9869C26.9585 41.1494 26.8672 41.3699 26.8672 41.5997C26.8672 41.8296 26.9585 42.05 27.121 42.2126C27.2836 42.3751 27.504 42.4664 27.7339 42.4664H32.9339C33.1637 42.4664 33.3841 42.3751 33.5467 42.2126C33.7092 42.05 33.8005 41.8296 33.8005 41.5997C33.8005 41.3699 33.7092 41.1494 33.5467 40.9869C33.3841 40.8244 33.1637 40.7331 32.9339 40.7331H31.2005V33.7997H32.9339Z" fill="black"/>
<path d="M19.0659 32.0664C18.836 32.0664 18.6156 32.1577 18.4531 32.3202C18.2905 32.4828 18.1992 32.7032 18.1992 32.9331V38.9997C18.1992 39.9192 18.5645 40.8009 19.2146 41.451C19.8647 42.1012 20.7465 42.4664 21.6659 42.4664C22.5853 42.4664 23.4671 42.1012 24.1172 41.451C24.7673 40.8009 25.1326 39.9192 25.1326 38.9997V32.9331C25.1326 32.7032 25.0412 32.4828 24.8787 32.3202C24.7162 32.1577 24.4957 32.0664 24.2659 32.0664C24.036 32.0664 23.8156 32.1577 23.6531 32.3202C23.4905 32.4828 23.3992 32.7032 23.3992 32.9331V38.9997C23.3992 39.4594 23.2166 39.9003 22.8915 40.2254C22.5665 40.5505 22.1256 40.7331 21.6659 40.7331C21.2062 40.7331 20.7653 40.5505 20.4402 40.2254C20.1152 39.9003 19.9326 39.4594 19.9326 38.9997V32.9331C19.9326 32.7032 19.8412 32.4828 19.6787 32.3202C19.5162 32.1577 19.2957 32.0664 19.0659 32.0664Z" fill="black"/>
<path d="M21.6659 19.067C22.5853 19.067 23.4671 18.7018 24.1172 18.0516C24.7673 17.4015 25.1326 16.5197 25.1326 15.6003V9.53366C25.1326 9.3038 25.0412 9.08336 24.8787 8.92083C24.7162 8.7583 24.4957 8.66699 24.2659 8.66699C24.036 8.66699 23.8156 8.7583 23.6531 8.92083C23.4905 9.08336 23.3992 9.3038 23.3992 9.53366V15.6003C23.3992 16.06 23.2166 16.5009 22.8915 16.826C22.5665 17.151 22.1256 17.3337 21.6659 17.3337C21.2062 17.3337 20.7653 17.151 20.4402 16.826C20.1152 16.5009 19.9326 16.06 19.9326 15.6003V9.53366C19.9326 9.3038 19.8412 9.08336 19.6787 8.92083C19.5162 8.7583 19.2957 8.66699 19.0659 8.66699C18.836 8.66699 18.6156 8.7583 18.4531 8.92083C18.2905 9.08336 18.1992 9.3038 18.1992 9.53366V15.6003C18.1992 16.5197 18.5645 17.4015 19.2146 18.0516C19.8647 18.7018 20.7465 19.067 21.6659 19.067Z" fill="black"/>
<path d="M27.2873 18.9423C27.4843 19.0607 27.7203 19.0959 27.9432 19.0404C28.1662 18.9848 28.358 18.8429 28.4764 18.6459L30.3337 15.5511L32.1909 18.6459C32.3114 18.8385 32.5027 18.976 32.7236 19.029C32.9445 19.0819 33.1773 19.0461 33.372 18.9291C33.5667 18.8121 33.7077 18.6233 33.7646 18.4034C33.8215 18.1835 33.7899 17.9501 33.6764 17.7533L31.3442 13.8663L33.6764 9.97928C33.7899 9.7825 33.8215 9.54905 33.7646 9.32915C33.7077 9.10926 33.5667 8.9205 33.372 8.8035C33.1773 8.6865 32.9445 8.65062 32.7236 8.70356C32.5027 8.75651 32.3114 8.89406 32.1909 9.08661L30.3337 12.1815L28.4764 9.08661C28.3559 8.89406 28.1646 8.75651 27.9437 8.70356C27.7229 8.65062 27.49 8.6865 27.2953 8.8035C27.1006 8.9205 26.9596 9.10926 26.9027 9.32915C26.8458 9.54905 26.8775 9.7825 26.9909 9.97928L29.3231 13.8663L26.9909 17.7533C26.8726 17.9503 26.8373 18.1862 26.8929 18.4092C26.9485 18.6322 27.0904 18.8239 27.2873 18.9423Z" fill="black"/>
<path d="M36.1584 21.7017L15.3584 27.7683C15.2491 27.8002 15.1472 27.8533 15.0585 27.9245C14.9697 27.9958 14.8959 28.0838 14.8411 28.1836C14.7864 28.2834 14.7519 28.393 14.7395 28.5061C14.7271 28.6193 14.7372 28.7337 14.769 28.843C14.8009 28.9523 14.854 29.0542 14.9252 29.1429C14.9965 29.2317 15.0845 29.3055 15.1843 29.3602C15.2841 29.415 15.3937 29.4495 15.5068 29.4619C15.62 29.4742 15.7344 29.4642 15.8437 29.4323L36.6437 23.3657C36.8644 23.3013 37.0504 23.1519 37.1609 22.9504C37.2715 22.7488 37.2974 22.5117 37.233 22.291C37.1687 22.0703 37.0193 21.8843 36.8178 21.7738C36.6162 21.6632 36.379 21.6373 36.1584 21.7017Z" fill="black"/>
</g>
<defs>
<clipPath id="clip0_1040_13958">
<rect width="52" height="52" fill="white"/>
</clipPath>
</defs>
</svg>
