<svg width="52" height="52" viewBox="0 0 52 52" fill="none" xmlns="http://www.w3.org/2000/svg">
<path d="M11.5455 9.8475C11.7892 9.8475 12.0411 9.75812 12.2361 9.57937C15.9573 6.15063 20.7917 4.26562 25.8536 4.26562C30.9073 4.26562 35.7417 6.15063 39.463 9.57937C39.8773 9.96125 40.5192 9.93688 40.9011 9.5225C41.283 9.10813 41.2505 8.46625 40.8442 8.08437C36.7492 4.31437 31.4273 2.23438 25.8536 2.23438C20.2798 2.23438 14.958 4.31437 10.863 8.0925C10.4486 8.47438 10.4242 9.11625 10.8061 9.53062C11.0011 9.74187 11.2773 9.8475 11.5455 9.8475Z" fill="black"/>
<path d="M36.8892 13.8772C37.2711 13.4629 37.2386 12.821 36.8323 12.4391C33.8342 9.6766 29.9342 8.15723 25.8555 8.15723C21.7767 8.15723 17.8767 9.6766 14.8786 12.4472C14.4642 12.8291 14.4398 13.471 14.8217 13.8854C15.0248 14.1047 15.293 14.2104 15.5692 14.2104C15.813 14.2104 16.0648 14.121 16.2598 13.9422C18.8842 11.521 22.2886 10.1966 25.8555 10.1966C29.4223 10.1966 32.8267 11.5291 35.4511 13.9422C35.8655 14.316 36.5073 14.2916 36.8892 13.8772Z" fill="black"/>
<path d="M32.8087 16.8029C30.9075 15.0479 28.4375 14.0811 25.8456 14.0811C23.2537 14.0811 20.7837 15.0479 18.8825 16.8029C18.4681 17.1848 18.4437 17.8267 18.8256 18.2411C19.2075 18.6554 19.8494 18.6798 20.2637 18.2979C21.7912 16.8923 23.7737 16.1204 25.8456 16.1204C27.9175 16.1204 29.9 16.8923 31.4275 18.2979C31.6225 18.4767 31.8662 18.5661 32.1181 18.5661C32.3944 18.5661 32.6625 18.4523 32.8656 18.2411C33.2475 17.8186 33.2231 17.1767 32.8087 16.8029Z" fill="black"/>
<path d="M31.4353 33.7104C29.9078 35.116 27.9253 35.8879 25.8534 35.8879C23.7816 35.8879 21.7991 35.116 20.2716 33.7104C19.8572 33.3285 19.2153 33.3529 18.8334 33.7673C18.4516 34.1816 18.4759 34.8235 18.8903 35.2054C20.7916 36.9604 23.2697 37.9273 25.8534 37.9273C28.4372 37.9273 30.9153 36.9604 32.8166 35.2054C33.2309 34.8235 33.2553 34.1816 32.8734 33.7673C32.4916 33.3529 31.8497 33.3285 31.4353 33.7104Z" fill="black"/>
<path d="M30.9173 25.9997C30.9173 23.2047 28.6423 20.9297 25.8473 20.9297C23.0523 20.9297 20.7773 23.2047 20.7773 25.9997C20.7773 28.7947 23.0523 31.0697 25.8473 31.0697C28.6423 31.0697 30.9173 28.7947 30.9173 25.9997ZM22.8086 25.9997C22.8086 24.3259 24.1736 22.9609 25.8473 22.9609C27.5211 22.9609 28.8861 24.3259 28.8861 25.9997C28.8861 27.6734 27.5211 29.0384 25.8473 29.0384C24.1736 29.0384 22.8086 27.6734 22.8086 25.9997Z" fill="black"/>
<path d="M16.0078 30.0541V21.9453C16.0078 21.3847 15.5528 20.9297 14.9922 20.9297C14.4316 20.9297 13.9766 21.3847 13.9766 21.9453V30.0541C13.9766 30.6147 14.4316 31.0697 14.9922 31.0697C15.5528 31.0697 16.0078 30.6147 16.0078 30.0541Z" fill="black"/>
<path d="M41.8509 20.9297H33.7422C33.1816 20.9297 32.7266 21.3847 32.7266 21.9453C32.7266 22.5059 33.1816 22.9609 33.7422 22.9609H36.7809V30.0541C36.7809 30.6147 37.2359 31.0697 37.7966 31.0697C38.3572 31.0697 38.8122 30.6147 38.8122 30.0541V22.9609H41.8509C42.4116 22.9609 42.8666 22.5059 42.8666 21.9453C42.8666 21.3847 42.4116 20.9297 41.8509 20.9297Z" fill="black"/>
<path d="M39.463 42.4202C35.7417 45.849 30.9073 47.734 25.8536 47.734C20.7998 47.734 15.9655 45.849 12.2442 42.4202C11.8298 42.0384 11.188 42.0709 10.8061 42.4771C10.4242 42.8915 10.4486 43.5334 10.863 43.9152C14.958 47.6852 20.2798 49.7652 25.8536 49.7652C31.4273 49.7652 36.7492 47.6852 40.8442 43.9071C41.2586 43.5252 41.283 42.8834 40.9011 42.469C40.5192 42.0627 39.8773 42.0384 39.463 42.4202Z" fill="black"/>
<path d="M25.8437 43.8421C29.9225 43.8421 33.8225 42.3227 36.8206 39.5521C37.235 39.1702 37.2594 38.5283 36.8775 38.1139C36.4956 37.6996 35.8537 37.6752 35.4394 38.0571C32.815 40.4783 29.4106 41.8027 25.8437 41.8027C22.2769 41.8027 18.8725 40.4702 16.2481 38.0571C15.8337 37.6752 15.1919 37.7077 14.81 38.1139C14.4281 38.5283 14.4525 39.1702 14.8669 39.5521C17.8731 42.3227 21.7731 43.8421 25.8437 43.8421Z" fill="black"/>
</svg>
