<svg width="58" height="58" viewBox="0 0 58 58" fill="none" xmlns="http://www.w3.org/2000/svg">
<path d="M13.4503 34.4997C13.4503 32.8942 19.5419 31.9934 22.3786 31.7745L22.6499 31.9312C21.5602 32.1297 17.1878 32.9007 17.1878 33.9067C17.1878 35.0017 23.8939 35.7192 27.7859 35.7192C34.3966 35.7192 38.8903 34.7186 40.0989 34.3894L41.7902 35.3729C40.6319 35.9402 35.661 37.4256 27.7859 37.4256C19.0346 37.4255 13.4503 35.7138 13.4503 34.4997ZM26.7885 57.0431C23.3245 57.0731 19.0957 56.7867 15.5383 56.1894L15.208 56.3781C18.7524 57.4173 23.6869 58.0447 29.1083 57.9976C39.7557 57.9054 48.3881 55.2649 48.5585 52.0872L48.4363 52.0154C47.7221 52.8862 43.1168 56.9004 26.7885 57.0431ZM27.6947 54.9969C36.4096 54.9207 46.1595 53.2155 46.1348 50.3488C46.1294 49.8286 45.7915 49.4726 45.4977 49.2581L45.3539 49.3407C44.5485 51.5607 37.7405 53.2016 27.6807 53.2885C21.1901 53.3453 12.1985 51.7902 12.1825 49.9938C12.1674 48.1921 16.4423 47.2022 16.4423 47.2022L16.1398 47.0296C13.2753 47.4242 7.99661 48.796 8.01371 50.7768C8.03864 53.6401 20.1704 55.0622 27.6947 54.9969ZM47.3274 35.2667C47.1516 38.6288 44.0456 40.7223 40.9408 42.4908L41.2219 42.6538C44.5348 41.7209 50.4461 39.0074 49.9571 34.8355C49.7137 32.756 47.8121 31.2695 45.3336 31.2695C44.5615 31.2695 43.8752 31.4057 43.3185 31.5752L43.3163 31.5805L43.1983 31.8765C45.4162 31.4422 47.4422 33.0616 47.3274 35.2667ZM21.7287 45.2566C20.7173 45.4582 18.5134 45.9645 18.5134 47.0358C18.5134 48.5201 23.228 49.658 27.7806 49.658C34.0449 49.658 36.6113 48.0461 36.7271 47.9624L34.1221 46.4556C33.0142 46.7194 31.1481 47.1333 27.7871 47.1333C24.0367 47.1333 21.5925 46.492 21.5925 45.7884C21.5925 45.6394 21.6859 45.4614 21.8595 45.3327L21.7287 45.2566ZM37.1175 40.2525C35.6771 40.6601 32.4318 41.3249 27.7913 41.3249C23.2376 41.3249 19.5172 40.5464 19.5053 39.6283C19.4967 39.0169 20.2356 38.7511 20.2356 38.7511L20.1048 38.675C17.9234 39.06 15.8985 39.6563 15.9093 40.5485C15.9297 42.1669 22.1199 43.382 27.7826 43.382C32.597 43.382 37.2203 42.5744 39.3063 41.5159L37.1175 40.2525Z" fill="#427595"/>
<path d="M35.8759 4.14836C35.8759 13.0724 23.6465 16.4871 23.6465 22.8318C23.6465 27.2858 26.6001 30.0786 28.2345 31.8448L28.1015 31.9221C26.0381 30.6308 20.6104 27.3877 20.6104 22.0307C20.6104 14.5095 34.6576 10.9157 34.6576 2.37347C34.6576 1.32245 34.502 0.515996 34.3927 0.0815625L34.5343 0C34.9793 0.558816 35.8759 1.95727 35.8759 4.14836ZM39.8977 12.0513L39.7508 11.9677C37.0901 12.8589 28.8963 16.0934 28.8963 22.1229C28.8963 25.5322 32.2263 27.422 32.2263 30.619C32.2263 31.7601 31.5818 32.8294 31.0584 33.4685L31.3211 33.6207C32.7078 32.7199 35.1616 30.7691 35.1616 28.251C35.1616 26.1179 32.2101 23.5547 32.2101 20.8134C32.2102 16.4935 37.905 13.1045 39.8977 12.0513Z" fill="#DE8E2F"/>
</svg>
