<svg width="52" height="52" viewBox="0 0 52 52" fill="none" xmlns="http://www.w3.org/2000/svg">
<path d="M26 12.7969C25.4394 12.7969 24.9844 13.2519 24.9844 13.8125C24.9844 14.3731 25.4394 14.8281 26 14.8281C26.5606 14.8281 27.0156 14.3731 27.0156 13.8125C27.0156 13.2519 26.5606 12.7969 26 12.7969Z" fill="black"/>
<path d="M9.14062 31.0781C9.7012 31.0781 10.1562 30.6231 10.1562 30.0625C10.1562 29.5019 9.7012 29.0469 9.14062 29.0469C8.58005 29.0469 8.125 29.5019 8.125 30.0625C8.125 30.6231 8.58005 31.0781 9.14062 31.0781Z" fill="black"/>
<path d="M34.125 2.64062C24.9816 2.64062 17.4771 8.94464 16.8967 16.8852C8.18887 17.322 0 23.601 0 32.0938C0 35.6429 1.40442 39.0817 3.96094 41.8065C4.46677 43.8917 3.85263 46.1018 2.3288 47.6257C2.03839 47.9161 1.95151 48.3529 2.10861 48.7325C2.26572 49.1118 2.63586 49.3594 3.04688 49.3594C5.94339 49.3594 8.73477 48.2235 10.8089 46.222C12.8294 46.9108 15.4657 47.3281 17.875 47.3281C27.0172 47.3281 34.5209 41.0257 35.1029 33.0868C37.2294 32.9923 39.4412 32.5996 41.1911 32.0033C43.2652 34.0048 46.0566 35.1406 48.9531 35.1406C49.3641 35.1406 49.7343 34.8931 49.8914 34.5138C50.0485 34.1341 49.9616 33.6973 49.6712 33.4069C48.1474 31.8831 47.5332 29.6729 48.0391 27.5877C50.5956 24.863 52 21.4241 52 17.875C52 9.05057 43.1803 2.64062 34.125 2.64062ZM17.875 45.2969C15.478 45.2969 12.7465 44.8264 10.9168 44.0984C10.5248 43.942 10.0769 44.0448 9.79166 44.3562C8.56537 45.6968 6.97092 46.6315 5.23364 47.0611C6.19095 45.2271 6.43533 43.0649 5.85294 41.0162C5.80692 40.8547 5.72162 40.7071 5.60458 40.5869C3.30038 38.2137 2.03125 35.1974 2.03125 32.0938C2.03125 24.9368 9.28662 18.8906 17.875 18.8906C25.9849 18.8906 33.1094 24.5301 33.1094 32.0938C33.1094 39.3741 26.2753 45.2969 17.875 45.2969ZM46.3954 26.3682C46.2784 26.4888 46.1931 26.6364 46.1471 26.7974C45.5647 28.8461 45.8091 31.0083 46.7664 32.8424C45.0291 32.4131 43.4346 31.478 42.2083 30.1375C41.9231 29.8264 41.4752 29.7233 41.0832 29.8796C39.4975 30.5104 37.2354 30.9472 35.0998 31.0527C34.803 27.212 32.8872 23.6022 29.6118 20.9219H42.8594C43.4203 20.9219 43.875 20.4672 43.875 19.9062C43.875 19.3453 43.4203 18.8906 42.8594 18.8906H26.4915C24.1862 17.7171 21.5975 17.0327 18.9331 16.8891C19.5167 10.0678 26.1075 4.67188 34.125 4.67188C42.7134 4.67188 49.9688 10.718 49.9688 17.875C49.9688 20.9786 48.6996 23.9949 46.3954 26.3682Z" fill="black"/>
<path d="M26 29.0469H13.2031C12.6422 29.0469 12.1875 29.5015 12.1875 30.0625C12.1875 30.6235 12.6422 31.0781 13.2031 31.0781H26C26.561 31.0781 27.0156 30.6235 27.0156 30.0625C27.0156 29.5015 26.561 29.0469 26 29.0469Z" fill="black"/>
<path d="M26 35.1406H9.14062C8.57965 35.1406 8.125 35.5953 8.125 36.1562C8.125 36.7172 8.57965 37.1719 9.14062 37.1719H26C26.561 37.1719 27.0156 36.7172 27.0156 36.1562C27.0156 35.5953 26.561 35.1406 26 35.1406Z" fill="black"/>
<path d="M42.8594 12.7969H30.0625C29.5015 12.7969 29.0469 13.2515 29.0469 13.8125C29.0469 14.3735 29.5015 14.8281 30.0625 14.8281H42.8594C43.4203 14.8281 43.875 14.3735 43.875 13.8125C43.875 13.2515 43.4203 12.7969 42.8594 12.7969Z" fill="black"/>
</svg>
