<svg width="33" height="32" viewBox="0 0 33 32" fill="none" xmlns="http://www.w3.org/2000/svg">
<path d="M31.8333 25.3333H10.5C7.92667 25.3333 5.83333 23.24 5.83333 20.6667V4.66667C5.83333 2.09333 3.74 0 1.16667 0C0.798667 0 0.5 0.298667 0.5 0.666667C0.5 1.03467 0.798667 1.33333 1.16667 1.33333C3.00533 1.33333 4.5 2.82933 4.5 4.66667V20.6667C4.5 23.2747 6.172 25.4987 8.5 26.324V28C8.5 30.2053 10.2947 32 12.5 32C14.7053 32 16.5 30.2053 16.5 28V26.6667H21.8333V28C21.8333 30.2053 23.628 32 25.8333 32C28.0387 32 29.8333 30.2053 29.8333 28V26.6667H31.8333C32.2013 26.6667 32.5 26.368 32.5 26C32.5 25.632 32.2013 25.3333 31.8333 25.3333ZM15.1667 28C15.1667 29.4707 13.9707 30.6667 12.5 30.6667C11.0293 30.6667 9.83333 29.4707 9.83333 28V26.6293C10.052 26.6533 10.2747 26.6667 10.5 26.6667H15.1667V28ZM28.5 28C28.5 29.4707 27.304 30.6667 25.8333 30.6667C24.3627 30.6667 23.1667 29.4707 23.1667 28V26.6667H28.5V28ZM13.1667 22.6667H26.5C29.0733 22.6667 31.1667 20.5733 31.1667 18V8.66667C31.1667 6.09333 29.0733 4 26.5 4H13.1667C10.5933 4 8.5 6.09333 8.5 8.66667V18C8.5 20.5733 10.5933 22.6667 13.1667 22.6667ZM17.8333 5.33333H21.8333V11.3333C21.8333 11.7013 21.5333 12 21.1667 12H18.5C18.1333 12 17.8333 11.7013 17.8333 11.3333V5.33333ZM9.83333 8.66667C9.83333 6.82933 11.328 5.33333 13.1667 5.33333H16.5V11.3333C16.5 12.436 17.3973 13.3333 18.5 13.3333H21.1667C22.2693 13.3333 23.1667 12.436 23.1667 11.3333V5.33333H26.5C28.3387 5.33333 29.8333 6.82933 29.8333 8.66667V18C29.8333 19.8387 28.3387 21.3333 26.5 21.3333H13.1667C11.328 21.3333 9.83333 19.8387 9.83333 18V8.66667Z" fill="white"/>
</svg>
