<svg width="32" height="32" viewBox="0 0 32 32" fill="none" xmlns="http://www.w3.org/2000/svg">
<path d="M30.9387 8.26133C30.2733 7.892 29.4893 7.91333 28.7987 8.34933L21.3333 13.9933V10.0627C21.3333 9.30267 20.936 8.62933 20.272 8.26C19.6067 7.892 18.824 7.91067 18.1467 8.336L10.6667 13.6533V1.33333H11.3333C11.7013 1.33333 12 1.03467 12 0.666667C12 0.298667 11.7013 0 11.3333 0H0.666667C0.298667 0 0 0.298667 0 0.666667C0 1.03467 0.298667 1.33333 0.666667 1.33333H1.33333V26C1.33333 29.308 4.02533 32 7.33333 32H26C29.308 32 32 29.308 32 26V10.0627C32 9.30267 31.6027 8.63067 30.9387 8.26133ZM30.6667 26C30.6667 28.5733 28.5733 30.6667 26 30.6667H7.33333C4.76 30.6667 2.66667 28.5733 2.66667 26V1.33333H9.33333V26C9.33333 26.368 9.632 26.6667 10 26.6667C10.368 26.6667 10.6667 26.368 10.6667 26V15.292L18.8867 9.44667C19.2147 9.24133 19.512 9.364 19.6253 9.428C19.7387 9.49067 20 9.67733 20 10.064V15.3347C20 15.588 20.1427 15.8187 20.3693 15.932C20.5933 16.044 20.8653 16.0187 21.068 15.8667L29.552 9.448C29.88 9.24267 30.1773 9.36533 30.2907 9.42933C30.404 9.492 30.6653 9.67867 30.6653 10.0653V26.0027L30.6667 26ZM18 21.3333H16.6667C15.564 21.3333 14.6667 22.2307 14.6667 23.3333V24.6667C14.6667 25.7693 15.564 26.6667 16.6667 26.6667H18C19.1027 26.6667 20 25.7693 20 24.6667V23.3333C20 22.2307 19.1027 21.3333 18 21.3333ZM18.6667 24.6667C18.6667 25.0347 18.3667 25.3333 18 25.3333H16.6667C16.3 25.3333 16 25.0347 16 24.6667V23.3333C16 22.9653 16.3 22.6667 16.6667 22.6667H18C18.3667 22.6667 18.6667 22.9653 18.6667 23.3333V24.6667ZM26 21.3333H24.6667C23.564 21.3333 22.6667 22.2307 22.6667 23.3333V24.6667C22.6667 25.7693 23.564 26.6667 24.6667 26.6667H26C27.1027 26.6667 28 25.7693 28 24.6667V23.3333C28 22.2307 27.1027 21.3333 26 21.3333ZM26.6667 24.6667C26.6667 25.0347 26.3667 25.3333 26 25.3333H24.6667C24.3 25.3333 24 25.0347 24 24.6667V23.3333C24 22.9653 24.3 22.6667 24.6667 22.6667H26C26.3667 22.6667 26.6667 22.9653 26.6667 23.3333V24.6667Z" fill="white"/>
</svg>
