<svg width="33" height="32" viewBox="0 0 33 32" fill="none" xmlns="http://www.w3.org/2000/svg">
<g clip-path="url(#clip0_872_181)">
<path d="M29.8333 25.4013V14.1987C31.404 13.4467 32.5 11.8547 32.5 10C32.5 9.93867 29.8067 0.484 29.8067 0.484C29.724 0.197333 29.464 0 29.1667 0H3.83333C3.53467 0 3.27467 0.197333 3.19333 0.484C3.19333 0.484 0.5 9.93867 0.5 10C0.5 11.8547 1.596 13.4467 3.16667 14.1987V25.4013C1.64667 25.7107 0.5 27.0573 0.5 28.6667C0.5 30.504 1.99467 32 3.83333 32H29.1667C31.0053 32 32.5 30.504 32.5 28.6667C32.5 27.0573 31.3533 25.7107 29.8333 25.4013ZM1.83467 10.0893L4.336 1.33333H9.83333V4.66667C9.83333 5.03467 10.132 5.33333 10.5 5.33333C10.868 5.33333 11.1667 5.03467 11.1667 4.66667V1.33333H21.8333V4.66667C21.8333 5.03467 22.132 5.33333 22.5 5.33333C22.868 5.33333 23.1667 5.03467 23.1667 4.66667V1.33333H28.664L31.1653 10.0893C31.1187 11.8867 29.6413 13.3333 27.8333 13.3333H26.5C24.6613 13.3333 23.1667 11.8373 23.1667 10C23.1667 9.632 22.868 9.33333 22.5 9.33333C22.132 9.33333 21.8333 9.632 21.8333 10C21.8333 11.8373 20.3387 13.3333 18.5 13.3333H14.5C12.6613 13.3333 11.1667 11.8373 11.1667 10C11.1667 9.632 10.868 9.33333 10.5 9.33333C10.132 9.33333 9.83333 9.632 9.83333 10C9.83333 11.8373 8.33867 13.3333 6.5 13.3333H5.16667C3.35867 13.3333 1.88133 11.8867 1.83467 10.0893ZM5.16667 14.6667H6.5C8.20667 14.6667 9.68667 13.736 10.5 12.3653C11.3133 13.736 12.7933 14.6667 14.5 14.6667H18.5C20.2067 14.6667 21.6867 13.736 22.5 12.3653C23.3133 13.736 24.7933 14.6667 26.5 14.6667H27.8333C28.0613 14.6667 28.28 14.6307 28.5 14.5987V25.3333H21.1667C20.9893 25.3333 20.82 25.404 20.6947 25.528L19.556 26.6667H13.4413L12.3027 25.528C12.1773 25.4027 12.008 25.3333 11.8307 25.3333H4.5V14.5987C4.72 14.6307 4.93867 14.6667 5.16667 14.6667ZM29.1667 30.6667H3.83333C2.73067 30.6667 1.83333 29.7693 1.83333 28.6667C1.83333 27.564 2.73067 26.6667 3.83333 26.6667H11.5573L12.696 27.8053C12.8213 27.9307 12.9907 28 13.168 28H19.8347C20.012 28 20.1813 27.9293 20.3067 27.8053L21.4453 26.6667H29.1693C30.272 26.6667 31.1693 27.564 31.1693 28.6667C31.1693 29.7693 30.272 30.6667 29.1693 30.6667H29.1667Z" fill="white"/>
</g>
<defs>
<clipPath id="clip0_872_181">
<rect width="32" height="32" fill="white" transform="translate(0.5)"/>
</clipPath>
</defs>
</svg>
