<svg width="24" height="24" viewBox="0 0 24 24" fill="none" xmlns="http://www.w3.org/2000/svg">
<path d="M19.8658 8.75881C19.8658 10.366 19.3891 11.8402 18.5689 13.0705C17.3719 14.8439 15.4765 16.0964 13.2708 16.4179C12.8939 16.4844 12.506 16.5176 12.107 16.5176C11.7079 16.5176 11.32 16.4844 10.9431 16.4179C8.73741 16.0964 6.84205 14.8439 5.64497 13.0705C4.82476 11.8402 4.34814 10.366 4.34814 8.75881C4.34814 4.4693 7.81744 1 12.107 1C16.3965 1 19.8658 4.4693 19.8658 8.75881Z" stroke="#212121" stroke-width="1.5" stroke-linecap="round" stroke-linejoin="round"/>
<path d="M22.3595 19.2558L20.5307 19.6881C20.1206 19.7878 19.7991 20.0982 19.7105 20.5083L19.3225 22.1377C19.1119 23.0244 17.9814 23.2904 17.3939 22.5921L12.1068 16.5181L6.81976 22.6032C6.2323 23.3015 5.10173 23.0355 4.89114 22.1487L4.5032 20.5194C4.40344 20.1093 4.08201 19.7879 3.68298 19.6992L1.85412 19.2669C1.01173 19.0674 0.712466 18.0144 1.32209 17.4048L5.64485 13.082C6.84192 14.8555 8.73729 16.108 10.943 16.4294C11.3199 16.4959 11.7078 16.5292 12.1068 16.5292C12.5059 16.5292 12.8938 16.4959 13.2707 16.4294C15.4764 16.108 17.3717 14.8555 18.5688 13.082L22.8916 17.4048C23.5012 18.0033 23.2019 19.0563 22.3595 19.2558Z" stroke="#212121" stroke-width="1.5" stroke-linecap="round" stroke-linejoin="round"/>
<path d="M12.7497 5.41094L13.4036 6.71884C13.4923 6.89619 13.7251 7.07354 13.9357 7.10679L15.1217 7.3063C15.8754 7.42822 16.0527 7.98243 15.5096 8.52554L14.5896 9.4455C14.4345 9.60068 14.3458 9.89996 14.4012 10.1216L14.6672 11.2633C14.8778 12.1611 14.4012 12.5158 13.6032 12.0392L12.4948 11.3852C12.2952 11.2633 11.9627 11.2633 11.7632 11.3852L10.6548 12.0392C9.85676 12.5047 9.38015 12.1611 9.59075 11.2633L9.85677 10.1216C9.9011 9.91105 9.82351 9.60068 9.66834 9.4455L8.74836 8.52554C8.20525 7.98243 8.38259 7.4393 9.1363 7.3063L10.3223 7.10679C10.5218 7.07354 10.7546 6.89619 10.8432 6.71884L11.4972 5.41094C11.8186 4.70156 12.395 4.70156 12.7497 5.41094Z" stroke="#212121" stroke-width="1.5" stroke-linecap="round" stroke-linejoin="round"/>
</svg>
