<svg width="32" height="32" viewBox="0 0 32 32" fill="none" xmlns="http://www.w3.org/2000/svg">
<path d="M26 0H6C2.692 0 0 2.692 0 6V18C0 21.308 2.692 24 6 24H26C29.308 24 32 21.308 32 18V6C32 2.692 29.308 0 26 0ZM30.6667 18C30.6667 20.5733 28.5733 22.6667 26 22.6667H6C3.42667 22.6667 1.33333 20.5733 1.33333 18V6C1.33333 3.42667 3.42667 1.33333 6 1.33333H26C28.5733 1.33333 30.6667 3.42667 30.6667 6V18ZM20.8867 10.092L13.944 6.29067C12.5573 5.43333 10.612 6.56133 10.6667 8.192V15.8067C10.6667 16.596 11.0747 17.304 11.7573 17.7C12.436 18.0947 13.2533 18.1013 13.9333 17.7147L20.896 13.9C22.3547 13.1267 22.352 10.8627 20.8853 10.0907L20.8867 10.092ZM20.2467 12.7373L13.284 16.5507C12.5333 16.8173 12.1413 16.5933 12.0013 15.8067V8.19333C12.088 7.39467 12.6853 7.176 13.2933 7.456L20.236 11.2573C20.8493 11.7667 20.8493 12.2307 20.2467 12.74V12.7373ZM31.3347 28.6653H13.2387C12.94 27.5187 11.9053 26.6653 10.6667 26.6653C9.428 26.6653 8.39333 27.5187 8.09467 28.6653H0.666667C0.298667 28.6653 0 28.964 0 29.332C0 29.7 0.298667 29.9987 0.666667 29.9987H8.09467C8.39333 31.1453 9.428 31.9987 10.6667 31.9987C11.9053 31.9987 12.94 31.1453 13.2387 29.9987H31.3333C31.7013 29.9987 32 29.7 32 29.332C32 28.964 31.7027 28.6653 31.3347 28.6653ZM10.668 30.6653C9.93333 30.6653 9.33467 30.068 9.33467 29.332C9.33467 28.596 9.93333 27.9987 10.668 27.9987C11.4027 27.9987 12.0013 28.596 12.0013 29.332C12.0013 30.068 11.4027 30.6653 10.668 30.6653Z" fill="white"/>
</svg>
