<svg width="32" height="32" viewBox="0 0 32 32" fill="none" xmlns="http://www.w3.org/2000/svg">
<path d="M7.33953 22.6296C7.17443 22.6975 7.02438 22.7974 6.89799 22.9235C6.77161 23.0496 6.67139 23.1994 6.60309 23.3643C6.53479 23.5293 6.49975 23.7061 6.5 23.8846C6.50025 24.0631 6.53577 24.2399 6.60453 24.4046L7.29953 26.0896C7.43883 26.4213 7.70344 26.6846 8.03584 26.8222C8.36823 26.9599 8.74152 26.9607 9.07453 26.8246C9.14693 26.7923 9.22779 26.7841 9.3052 26.8012C9.38262 26.8183 9.45249 26.8598 9.50453 26.9196C9.8294 27.3114 10.1892 27.6729 10.5795 27.9996C10.6364 28.0504 10.6765 28.1173 10.6943 28.1915C10.7122 28.2656 10.707 28.3435 10.6795 28.4146C10.5434 28.7476 10.5443 29.1209 10.6819 29.4533C10.8195 29.7857 11.0828 30.0503 11.4145 30.1896L13.0995 30.8846C13.4324 31.0221 13.8063 31.0219 14.139 30.8841C14.4718 30.7463 14.7363 30.4822 14.8745 30.1496C14.9045 30.0788 14.9557 30.0192 15.0211 29.9788C15.0865 29.9385 15.1629 29.9196 15.2395 29.9246C15.7386 29.9684 16.2405 29.9684 16.7395 29.9246C16.8179 29.9208 16.8956 29.9413 16.9618 29.9834C17.0281 30.0255 17.0797 30.087 17.1095 30.1596C17.1769 30.3249 17.2766 30.4751 17.4029 30.6013C17.5291 30.7275 17.6792 30.8272 17.8445 30.8946C18.0031 30.9609 18.1727 30.9965 18.3445 30.9996C18.5164 30.997 18.6861 30.9614 18.8445 30.8946L20.5295 30.1996C20.8612 30.0603 21.1245 29.7957 21.2622 29.4633C21.3998 29.1309 21.4007 28.7576 21.2645 28.4246C21.2322 28.3522 21.224 28.2714 21.2411 28.1939C21.2582 28.1165 21.2997 28.0466 21.3595 27.9946C21.7734 27.674 22.1552 27.314 22.4995 26.9196C22.5516 26.8598 22.6214 26.8183 22.6989 26.8012C22.7763 26.7841 22.8571 26.7923 22.9295 26.8246C23.2625 26.9607 23.6358 26.9599 23.9682 26.8222C24.3006 26.6846 24.5652 26.4213 24.7045 26.0896L25.3995 24.4046C25.4683 24.2399 25.5038 24.0631 25.5041 23.8846C25.5043 23.7061 25.4693 23.5293 25.401 23.3643C25.3327 23.1994 25.2325 23.0496 25.1061 22.9235C24.9797 22.7974 24.8296 22.6975 24.6645 22.6296C24.5911 22.601 24.5286 22.5497 24.4863 22.4832C24.4441 22.4166 24.4242 22.3383 24.4295 22.2596C24.4295 22.0046 24.4645 21.7596 24.4645 21.4996H23.4645C23.4645 21.7246 23.4645 21.9446 23.4345 22.1646C23.408 22.4569 23.4763 22.75 23.6294 23.0003C23.7825 23.2507 24.0122 23.4451 24.2845 23.5546C24.3718 23.5922 24.441 23.6623 24.4774 23.75C24.5138 23.8378 24.5146 23.9363 24.4795 24.0246L23.7795 25.7046C23.743 25.7928 23.673 25.8628 23.5849 25.8994C23.4968 25.9359 23.3977 25.936 23.3095 25.8996C23.0401 25.7861 22.7414 25.7617 22.4571 25.8301C22.1728 25.8984 21.9179 26.056 21.7295 26.2796C21.444 26.6243 21.1277 26.9423 20.7845 27.2296C20.5606 27.4167 20.4028 27.6707 20.3344 27.9543C20.266 28.238 20.2906 28.536 20.4045 28.8046C20.4409 28.8928 20.4409 28.9918 20.4043 29.08C20.3677 29.1681 20.2977 29.2381 20.2095 29.2746L18.4995 29.9696C18.4569 29.988 18.411 29.9976 18.3645 29.9976C18.3181 29.9976 18.2722 29.988 18.2295 29.9696C18.1418 29.9322 18.072 29.8623 18.0345 29.7746C17.9246 29.5037 17.7309 29.275 17.4817 29.1221C17.2325 28.9692 16.9409 28.9 16.6495 28.9246C16.2038 28.9646 15.7553 28.9646 15.3095 28.9246C15.0187 28.8988 14.7272 28.9669 14.4779 29.119C14.2286 29.2711 14.0346 29.4991 13.9245 29.7696C13.8872 29.8556 13.8173 29.9233 13.7302 29.958C13.6431 29.9926 13.5458 29.9914 13.4595 29.9546L11.7745 29.2596C11.6879 29.224 11.6186 29.1561 11.5812 29.0702C11.5439 28.9843 11.5415 28.8872 11.5745 28.7996C11.6889 28.5303 11.7137 28.2314 11.6453 27.9469C11.5769 27.6624 11.4188 27.4075 11.1945 27.2196C10.8498 26.9341 10.5319 26.6178 10.2445 26.2746C10.0575 26.0507 9.8034 25.8929 9.51979 25.8245C9.23619 25.7561 8.93809 25.7806 8.66953 25.8946C8.58134 25.931 8.4823 25.9309 8.39418 25.8944C8.30605 25.8578 8.23604 25.7878 8.19953 25.6996L7.49953 24.0196C7.47866 23.9729 7.4677 23.9224 7.46734 23.8713C7.46698 23.8201 7.47722 23.7695 7.49742 23.7225C7.51763 23.6755 7.54735 23.6332 7.58472 23.5983C7.62209 23.5634 7.66629 23.5366 7.71453 23.5196C7.97839 23.4105 8.20087 23.2206 8.35 22.9772C8.49914 22.7337 8.56724 22.4492 8.54453 22.1646C8.54453 21.9346 8.51453 21.6996 8.51453 21.4746H7.51453C7.51453 21.7296 7.51453 21.9746 7.54953 22.2546C7.56212 22.3317 7.5482 22.4107 7.51006 22.4788C7.47192 22.5469 7.4118 22.6001 7.33953 22.6296Z" fill="black"/>
<path d="M16 27C17.4587 27 18.8576 26.4205 19.8891 25.3891C20.9205 24.3576 21.5 22.9587 21.5 21.5H20.5C20.5 22.6935 20.0259 23.8381 19.182 24.682C18.3381 25.5259 17.1935 26 16 26C14.8065 26 13.6619 25.5259 12.818 24.682C11.9741 23.8381 11.5 22.6935 11.5 21.5H10.5C10.5 22.9587 11.0795 24.3576 12.1109 25.3891C13.1424 26.4205 14.5413 27 16 27Z" fill="black"/>
<path d="M27 8C27 7.86739 26.9473 7.74021 26.8536 7.64645C26.7598 7.55268 26.6326 7.5 26.5 7.5H22.5C22.3674 7.5 22.2402 7.55268 22.1464 7.64645C22.0527 7.74021 22 7.86739 22 8V19.5H18.5V11.5C18.5 11.3674 18.4473 11.2402 18.3536 11.1464C18.2598 11.0527 18.1326 11 18 11H14C13.8674 11 13.7402 11.0527 13.6464 11.1464C13.5527 11.2402 13.5 11.3674 13.5 11.5V19.5H10V15C10 14.8674 9.94732 14.7402 9.85355 14.6464C9.75979 14.5527 9.63261 14.5 9.5 14.5H5.5C5.36739 14.5 5.24021 14.5527 5.14645 14.6464C5.05268 14.7402 5 14.8674 5 15V19.5H1V20.5H31V19.5H27V8ZM9 19.5H6V15.5H9V19.5ZM17.5 19.5H14.5V12H17.5V19.5ZM26 19.5H23V8.5H26V19.5Z" fill="black"/>
<path d="M3.60547 12.76L26.8655 3.42L26.0005 4.965L26.8705 5.465L28.4455 2.675C28.4822 2.6101 28.504 2.5378 28.5092 2.4634C28.5144 2.389 28.5029 2.31437 28.4755 2.245C28.4478 2.17489 28.4047 2.11194 28.3493 2.06086C28.2938 2.00977 28.2276 1.97187 28.1555 1.95L25.0805 1L24.7905 2L26.5005 2.5L3.23047 11.835L3.60547 12.76Z" fill="black"/>
</svg>
