<svg width="115" height="181" viewBox="0 0 115 181" fill="none" xmlns="http://www.w3.org/2000/svg">
<path opacity="0.1" d="M49.4902 137.041C34.084 137.041 20.7695 135.447 9.54688 132.26L10.9414 125.586C20.1055 128.441 32.9551 129.869 49.4902 129.869C59.3184 129.869 64.2324 127.279 64.2324 122.1C64.2324 117.982 59.4844 115.924 49.9883 115.924H28.2734V108.752H50.0879C56.1973 108.752 61.2773 109.814 65.3281 111.939C69.3789 114.064 71.4043 117.451 71.4043 122.1C71.4043 127.08 69.3457 130.832 65.2285 133.355C61.1777 135.812 55.9316 137.041 49.4902 137.041ZM70.209 66.3184L63.3359 64.8242C63.9336 63.8281 64.2324 62.168 64.2324 59.8438C64.2324 54 59.3184 51.0781 49.4902 51.0781C32.9551 51.0781 20.1055 52.5059 10.9414 55.3613L9.54688 48.6875C20.7695 45.5 34.084 43.9062 49.4902 43.9062C55.9316 43.9062 61.1777 45.2344 65.2285 47.8906C69.3457 50.5469 71.4043 54.5313 71.4043 59.8438C71.4043 62.6992 71.0059 64.8574 70.209 66.3184ZM8.15234 41.9141L6.75781 34.9414C19.1758 31.3555 33.4199 29.5625 49.4902 29.5625C59.8496 29.5625 68.4824 32.2852 75.3887 37.7305C82.2949 43.1094 85.748 50.4805 85.748 59.8438C85.748 63.6289 85.0176 67.3809 83.5566 71.0996L76.8828 68.4102C78.0117 65.8867 78.5762 63.0312 78.5762 59.8438C78.5762 52.5391 75.8203 46.8613 70.3086 42.8105C64.7969 38.7598 57.8574 36.7344 49.4902 36.7344C34.084 36.7344 20.3047 38.4609 8.15234 41.9141ZM95.9082 77.873L90.0312 74.2871C91.957 69.7051 92.9199 64.8906 92.9199 59.8438C92.9199 48.4883 88.7695 39.4238 80.4688 32.6504C72.168 25.8105 61.8418 22.3906 49.4902 22.3906C34.2832 22.3906 19.5742 24.3164 5.36328 28.168L3.86914 20.9961C17.6152 17.1445 32.8223 15.2188 49.4902 15.2188C58.7871 15.2188 67.2539 17.0117 74.8906 20.5977C82.5273 24.1836 88.6367 29.4297 93.2188 36.3359C97.8008 43.1758 100.092 51.0117 100.092 59.8438C100.092 66.2852 98.6973 72.2949 95.9082 77.873ZM106.566 88.2324L101.387 82.8535C105.305 75.748 107.264 68.0781 107.264 59.8438C107.264 49.6836 104.641 40.6191 99.3945 32.6504C94.2148 24.6816 87.2422 18.6055 78.4766 14.4219C69.7773 10.1719 60.1152 8.04688 49.4902 8.04688C33.2207 8.04688 17.5488 10.0391 2.47461 14.0234L0.980469 6.85156C15.457 2.86719 31.627 0.875 49.4902 0.875C58.3887 0.875 66.7891 2.30273 74.6914 5.1582C82.6602 8.01367 89.5664 11.998 95.4102 17.1113C101.254 22.1582 105.869 28.4004 109.256 35.8379C112.709 43.209 114.436 51.2109 114.436 59.8438C114.436 70.2695 111.812 79.7324 106.566 88.2324ZM49.4902 144.213C57.8574 144.213 64.7969 142.287 70.3086 138.436C75.8203 134.518 78.5762 129.072 78.5762 122.1C78.5762 115.658 75.8535 110.645 70.4082 107.059C65.0293 103.406 58.5215 101.58 50.8848 101.58H28.2734V94.4082H50.9844C60.6133 94.4082 68.8145 96.9316 75.5879 101.979C82.3613 106.959 85.748 113.666 85.748 122.1C85.748 131.197 82.2949 138.369 75.3887 143.615C68.4824 148.795 59.8496 151.385 49.4902 151.385C33.4199 151.385 19.1758 149.592 6.75781 146.006L8.15234 139.033C20.3047 142.486 34.084 144.213 49.4902 144.213ZM49.4902 158.557C61.8418 158.557 72.168 155.27 80.4688 148.695C88.7695 142.055 92.9199 133.189 92.9199 122.1C92.9199 111.541 88.8359 103.107 80.668 96.7988C72.5664 90.4238 62.8047 87.2363 51.3828 87.2363H28.2734V80.0645H51.582C60.3477 80.0645 68.4492 81.9238 75.8867 85.6426C83.3242 89.2949 89.2012 94.375 93.5176 100.883C97.9004 107.324 100.092 114.396 100.092 122.1C100.092 130.732 97.8008 138.402 93.2188 145.109C88.6367 151.816 82.5273 156.93 74.8906 160.449C67.2539 163.969 58.7871 165.729 49.4902 165.729C32.8223 165.729 17.6152 163.803 3.86914 159.951L5.36328 152.779C19.5742 156.631 34.2832 158.557 49.4902 158.557ZM49.4902 172.9C60.1152 172.9 69.7773 170.842 78.4766 166.725C87.2422 162.541 94.2148 156.564 99.3945 148.795C104.641 140.959 107.264 132.061 107.264 122.1C107.264 114.795 105.67 108.021 102.482 101.779C99.2949 95.4707 95.0781 90.2578 89.832 86.1406C84.6523 81.957 78.7422 78.7031 72.1016 76.3789C65.4609 74.0547 58.6211 72.8926 51.582 72.8926H28.2734V65.7207H51.9805C60.1484 65.7207 67.9844 67.082 75.4883 69.8047C83.0586 72.5273 89.6992 76.2793 95.4102 81.0605C101.188 85.8418 105.803 91.8184 109.256 98.9902C112.709 106.096 114.436 113.799 114.436 122.1C114.436 133.389 111.514 143.482 105.67 152.381C99.8262 161.279 91.957 168.119 82.0625 172.9C72.2344 177.682 61.377 180.072 49.4902 180.072C31.627 180.072 15.457 178.08 0.980469 174.096L2.47461 166.924C17.5488 170.908 33.2207 172.9 49.4902 172.9Z" fill="#212121"/>
</svg>
