<svg width="109" height="173" viewBox="0 0 109 173" fill="none" xmlns="http://www.w3.org/2000/svg">
<path opacity="0.1" d="M2.66992 144.312V137.141H99.8887V144.312H2.66992ZM2.66992 158.656V151.484H99.8887V158.656H2.66992ZM2.66992 173V165.828H99.8887V173H2.66992ZM13.7266 133.156H5.35938C10.0078 126.848 14.5898 120.672 19.1055 114.629C23.6211 108.586 27.373 103.572 30.3613 99.5879C33.416 95.5371 36.3711 91.5859 39.2266 87.7344C42.082 83.8828 44.373 80.7949 46.0996 78.4707C47.8926 76.1465 49.5859 73.8887 51.1797 71.6973C52.7734 69.5059 53.9688 67.8125 54.7656 66.6172C55.5625 65.3555 56.2598 64.1602 56.8574 63.0312C57.5215 61.9023 57.9531 61.0059 58.1523 60.3418C58.3516 59.6113 58.4512 58.9141 58.4512 58.25C58.4512 55.1953 57.1895 53.2363 54.666 52.373C52.1426 51.5098 47.6934 51.0781 41.3184 51.0781C30.959 51.0781 20.5996 52.4395 10.2402 55.1621L8.74609 48.2891C10.4062 47.5586 14.5898 46.6289 21.2969 45.5C28.0703 44.3047 34.5781 43.707 40.8203 43.707C44.6055 43.707 47.8926 43.9395 50.6816 44.4043C53.4707 44.8027 55.9941 45.5332 58.252 46.5957C60.5762 47.5918 62.3359 49.0859 63.5312 51.0781C64.7266 53.0039 65.3242 55.3945 65.3242 58.25C65.3242 61.1055 63.8633 64.7578 60.9414 69.207C58.0195 73.6562 50.5156 83.9492 38.4297 100.086C28.6016 113.168 20.3672 124.191 13.7266 133.156ZM29.9629 133.156H21.5957C46.3652 99.8203 60.1113 81.1934 62.834 77.2754C68.4121 69.3066 71.5332 63.6289 72.1973 60.2422C72.3965 59.3125 72.4961 58.3164 72.4961 57.2539C72.4961 43.5078 62.0703 36.6348 41.2188 36.6348C34.8438 36.6348 28.3691 37.1992 21.7949 38.3281C15.2207 39.457 10.4062 40.5859 7.35156 41.7148L5.95703 34.8418C17.3125 31.3223 29.0996 29.5625 41.3184 29.5625C45.5684 29.5625 49.4863 29.8613 53.0723 30.459C56.7246 30.9902 60.2109 31.9199 63.5312 33.248C66.8516 34.5762 69.6738 36.3027 71.998 38.4277C74.3223 40.4863 76.1484 43.1094 77.4766 46.2969C78.8711 49.4844 79.5684 53.1367 79.5684 57.2539C79.5684 61.5039 77.4766 66.8496 73.293 73.291C69.1094 79.7324 56.5918 97.0645 35.7402 125.287C33.2168 128.674 31.291 131.297 29.9629 133.156ZM46.5977 133.156H38.2305C60.875 102.211 74.6211 82.9531 79.4688 75.3828C84.3164 67.7461 86.7402 61.3711 86.7402 56.2578C86.7402 50.0156 85.5117 44.6367 83.0547 40.1211C80.6641 35.6055 77.2773 32.0859 72.8945 29.5625C68.5781 27.0391 63.7969 25.2129 58.5508 24.084C53.3711 22.9551 47.5938 22.3906 41.2188 22.3906C28.9336 22.3906 16.6816 24.25 4.46289 27.9688L2.96875 20.6973C16.0508 16.8457 28.7012 14.9199 40.9199 14.9199C46.8965 14.9199 52.4414 15.3516 57.5547 16.2148C62.668 17.0781 67.4824 18.5391 71.998 20.5977C76.5801 22.5898 80.4316 25.1465 83.5527 28.2676C86.7402 31.3887 89.2637 35.3398 91.123 40.1211C92.9824 44.8359 93.9121 50.2148 93.9121 56.2578C93.9121 60.5742 92.8828 64.9902 90.8242 69.5059C88.832 73.9551 84.6484 80.7617 78.2734 89.9258C71.9648 99.0898 61.4062 113.5 46.5977 133.156ZM63.8301 133.156H55.4629C69.4746 114.629 79.6016 100.717 85.8438 91.4199C92.1523 82.0566 96.2695 74.9844 98.1953 70.2031C100.121 65.3555 101.084 60.375 101.084 55.2617C101.084 48.7539 100.088 42.877 98.0957 37.6309C96.1699 32.3184 93.4141 27.8691 89.8281 24.2832C86.3086 20.6309 82.0586 17.5762 77.0781 15.1191C72.0977 12.6621 66.6191 10.8691 60.6426 9.74023C54.7324 8.61133 48.3242 8.04688 41.418 8.04688C28.668 8.04688 15.3867 10.0391 1.57422 14.0234L0.0800781 6.95117C14.0918 2.90039 27.8047 0.875 41.2188 0.875C51.1797 0.875 60.1777 1.9707 68.2129 4.16211C76.3145 6.28711 83.3535 9.50781 89.3301 13.8242C95.373 18.1406 100.021 23.8184 103.275 30.8574C106.596 37.8965 108.256 46.0312 108.256 55.2617C108.256 61.1055 107.293 66.6172 105.367 71.7969C103.508 76.9766 99.3906 84.3145 93.0156 93.8105C86.707 103.307 76.9785 116.422 63.8301 133.156Z" fill="#212121"/>
</svg>
