<svg width="52" height="52" viewBox="0 0 52 52" fill="none" xmlns="http://www.w3.org/2000/svg">
<g clip-path="url(#clip0_1040_13915)">
<path d="M21.0626 28.4424C21.0626 28.0217 20.7216 27.6807 20.3009 27.6807H3.20409C2.27734 27.6807 1.52344 26.9268 1.52344 26V3.20409C1.52344 2.27734 2.27734 1.52344 3.20409 1.52344H26C26.9268 1.52344 27.6807 2.27734 27.6807 3.20409V20.3009C27.6807 20.7216 28.0217 21.0626 28.4424 21.0626C28.863 21.0626 29.2041 20.7216 29.2041 20.3009V3.20409C29.2041 1.43731 27.7668 0 26 0H3.20409C1.43731 0 0 1.43731 0 3.20409V26C0 27.7668 1.43731 29.2041 3.20409 29.2041H20.3009C20.7216 29.2041 21.0626 28.863 21.0626 28.4424Z" fill="black"/>
<path d="M48.7969 22.7959H42.2838C41.8631 22.7959 41.5221 23.1369 41.5221 23.5576C41.5221 23.9783 41.8631 24.3193 42.2838 24.3193H48.7969C49.7236 24.3193 50.4775 25.0732 50.4775 26V48.7959C50.4775 49.7227 49.7236 50.4766 48.7969 50.4766H26.001C25.0742 50.4766 24.3203 49.7227 24.3203 48.7959V26C24.3203 25.0732 25.0742 24.3193 26.001 24.3193H39.0273C39.4479 24.3193 39.789 23.9783 39.789 23.5576C39.789 23.1369 39.4479 22.7959 39.0273 22.7959H26.001C24.2342 22.7959 22.7969 24.2332 22.7969 26V48.7959C22.7969 50.5627 24.2342 52 26.001 52H48.7969C50.5637 52 52.001 50.5627 52.001 48.7959V26C52.001 24.2332 50.5637 22.7959 48.7969 22.7959Z" fill="black"/>
<path d="M21.9279 8.14095H15.3624V7.27441C15.3624 6.85374 15.0213 6.5127 14.6007 6.5127C14.18 6.5127 13.8389 6.85374 13.8389 7.27441V8.14095H7.27344C6.85277 8.14095 6.51172 8.48199 6.51172 8.90266C6.51172 9.32334 6.85277 9.66438 7.27344 9.66438H18.4906C18.052 11.0735 16.9529 13.9151 14.597 16.7513C13.1583 15.0209 12.1837 13.2813 11.5381 11.8435C11.3658 11.4598 10.9153 11.2883 10.5313 11.4605C10.1475 11.6329 9.97602 12.0836 10.1483 12.4674C10.8613 14.0557 11.9488 15.9877 13.5705 17.8989C12.4144 19.0982 11.0145 20.2611 9.32378 21.2756C8.96303 21.492 8.84603 21.9599 9.06256 22.3207C9.20536 22.5588 9.45764 22.6906 9.71642 22.6906C9.84977 22.6906 9.98495 22.6555 10.1076 22.5819C11.9 21.5065 13.3805 20.2761 14.5967 19.0265C15.8266 20.2893 17.3085 21.5109 19.0935 22.5819C19.2162 22.6555 19.3514 22.6906 19.4847 22.6906C19.7435 22.6906 19.9958 22.5588 20.1386 22.3207C20.355 21.9599 20.238 21.492 19.8773 21.2756C18.1837 20.2595 16.7824 19.0974 15.6239 17.8971C16.8212 16.4877 17.6994 15.1054 18.3244 13.9449C19.3355 12.067 19.8522 10.4885 20.0806 9.66428H21.9279C22.3486 9.66428 22.6896 9.32323 22.6896 8.90256C22.6896 8.48189 22.3487 8.14095 21.9279 8.14095Z" fill="black"/>
<path d="M38.4353 29.9864C38.2659 29.5746 37.8689 29.3086 37.4237 29.3086C37.4234 29.3086 37.423 29.3086 37.4226 29.3086C36.9769 29.309 36.5799 29.5758 36.4112 29.9884C36.4089 29.994 36.4066 29.9998 36.4044 30.0055L30.9016 44.4536C30.7519 44.8467 30.9492 45.2868 31.3423 45.4365C31.4316 45.4705 31.5232 45.4866 31.6133 45.4866C31.9202 45.4866 32.2096 45.2997 32.3252 44.9957L33.5089 41.888H41.2988L42.4708 44.9936C42.6194 45.3872 43.0587 45.5859 43.4524 45.4373C43.846 45.2888 44.0447 44.8493 43.8962 44.4557L38.4435 30.007C38.4409 30.0002 38.4382 29.9933 38.4353 29.9864ZM34.0892 40.3648L37.4218 31.6146L40.724 40.3648H34.0892Z" fill="black"/>
<path d="M20.7596 41.6733L17.5031 39.2309C17.1666 38.9785 16.6891 39.0468 16.4367 39.3832C16.1843 39.7197 16.2526 40.1973 16.589 40.4496L18.0174 41.5209H15.4177C12.6952 41.5209 10.4805 39.306 10.4805 36.5837V31.6992C10.4805 31.2785 10.1394 30.9375 9.71875 30.9375C9.29808 30.9375 8.95703 31.2785 8.95703 31.6992V36.5837C8.95703 40.1462 11.8553 43.0444 15.4177 43.0444H18.0174L16.589 44.1156C16.2526 44.368 16.1843 44.8456 16.4367 45.182C16.5864 45.3816 16.8151 45.4867 17.0467 45.4867C17.2057 45.4867 17.3661 45.4371 17.5031 45.3344L20.7596 42.892C20.9515 42.7481 21.0643 42.5224 21.0643 42.2826C21.0643 42.0429 20.9515 41.8171 20.7596 41.6733Z" fill="black"/>
<path d="M31.2422 10.3262L34.4987 12.7686C34.6357 12.8714 34.7961 12.9209 34.9551 12.9209C35.1867 12.9209 35.4155 12.8157 35.5651 12.6162C35.8175 12.2798 35.7492 11.8022 35.4127 11.5498L33.9844 10.4785H36.5841C39.3066 10.4785 41.5213 12.6934 41.5213 15.4158V20.3003C41.5213 20.7209 41.8624 21.062 42.283 21.062C42.7037 21.062 43.0448 20.7209 43.0448 20.3003V15.4158C43.0448 11.8533 40.1465 8.95511 36.5841 8.95511H33.9844L35.4127 7.88383C35.7492 7.63145 35.8175 7.1539 35.5651 6.81742C35.3126 6.48085 34.8353 6.4127 34.4987 6.66508L31.2422 9.10746C31.0503 9.25137 30.9375 9.47704 30.9375 9.71683C30.9375 9.95662 31.0503 10.1824 31.2422 10.3262Z" fill="black"/>
</g>
<defs>
<clipPath id="clip0_1040_13915">
<rect width="52" height="52" fill="white"/>
</clipPath>
</defs>
</svg>
