<svg width="80" height="80" viewBox="0 0 80 80" fill="none" xmlns="http://www.w3.org/2000/svg">
<path d="M77.45 29.39C72.2333 15.37 59.3433 5.24662 44.6167 3.59329C33.0567 2.30329 21.9467 5.81662 13.3467 13.5033C4.86667 21.0866 0 31.96 0 43.3333C0 53.5766 4.20333 63.7933 11.53 71.36C14.7933 74.7333 19.5 76.6666 24.4433 76.6666H55.55C60.51 76.6666 65.2433 74.71 68.5367 71.2966C79.44 59.9766 82.86 43.9166 77.45 29.39ZM66.1367 68.98C63.4667 71.7466 59.6067 73.3333 55.5467 73.3333H24.4433C20.3967 73.3333 16.5633 71.77 13.9267 69.0433C7.19333 62.09 3.33333 52.72 3.33333 43.3333C3.33333 32.9066 7.79333 22.9433 15.5733 15.9866C22.3833 9.89996 30.91 6.66329 39.9467 6.66329C41.37 6.66329 42.8033 6.74329 44.25 6.90662C57.7367 8.41996 69.5433 17.7 74.3267 30.5566C79.2833 43.87 76.1433 58.5933 66.1367 68.98ZM59.51 23.82C58.86 23.17 57.8033 23.17 57.1533 23.82L43.3633 37.61C42.3733 37.0233 41.23 36.6633 40 36.6633C36.3233 36.6633 33.3333 39.6533 33.3333 43.33C33.3333 47.0066 36.3233 49.9966 40 49.9966C43.6767 49.9966 46.6667 47.0066 46.6667 43.33C46.6667 42.0966 46.3067 40.9566 45.72 39.9666L59.51 26.1766C60.16 25.5266 60.16 24.47 59.51 23.82ZM39.9967 46.6666C38.1567 46.6666 36.6633 45.1733 36.6633 43.3333C36.6633 41.4933 38.1567 40 39.9967 40C41.8367 40 43.33 41.4933 43.33 43.3333C43.33 45.1733 41.8367 46.6666 39.9967 46.6666ZM64.4433 32.6666C65.9167 36.04 66.6633 39.6266 66.6633 43.3333C66.6633 49.9066 64.25 56.22 59.87 61.1133C59.54 61.4766 59.0867 61.6666 58.63 61.6666C58.2333 61.6666 57.8367 61.5266 57.5167 61.24C56.8333 60.6266 56.7733 59.5733 57.39 58.8866C61.22 54.61 63.33 49.0866 63.33 43.3333C63.33 40.0866 62.6767 36.95 61.39 34C61.0233 33.1566 61.4067 32.1733 62.25 31.8066C63.0967 31.45 64.0767 31.8233 64.4433 32.6666ZM39.9967 20C27.1333 20 16.6633 30.47 16.6633 43.3333C16.6633 49.0866 18.7733 54.61 22.6033 58.8866C23.22 59.5733 23.16 60.6266 22.4767 61.24C22.1567 61.5266 21.76 61.6666 21.3633 61.6666C20.9067 61.6666 20.4533 61.4766 20.1233 61.1133C15.7433 56.22 13.33 49.9066 13.33 43.3333C13.33 28.63 25.2933 16.6666 39.9967 16.6666C43.7033 16.6666 47.29 17.4133 50.6633 18.8866C51.5067 19.2533 51.89 20.2366 51.5233 21.08C51.1567 21.9233 50.1767 22.3066 49.33 21.94C46.38 20.6533 43.2433 20 39.9967 20Z" fill="black"/>
</svg>
