<svg width="62" height="38" viewBox="0 0 62 38" fill="none" xmlns="http://www.w3.org/2000/svg">
<g clip-path="url(#clip0_892_4569)">
<path d="M30.645 38.0004C30.4404 38.0004 30.2372 37.9467 30.0578 37.8433L28.1886 36.7358C27.9094 36.5796 28.0456 36.5243 28.1377 36.4925C28.5099 36.3621 28.5855 36.3326 28.9828 36.1068C29.0246 36.0829 29.0792 36.0914 29.122 36.1166L30.558 36.9694C30.6099 36.9974 30.6834 36.9974 30.7315 36.9694L36.3307 33.735C36.3825 33.7056 36.4162 33.6453 36.4162 33.5835V27.1176C36.4162 27.0531 36.3825 26.9956 36.3295 26.9634L30.7326 23.7318C30.6808 23.701 30.6121 23.701 30.5602 23.7318L24.9645 26.9634C24.9102 26.9942 24.8757 27.0545 24.8757 27.1162V33.5821C24.8757 33.6439 24.9094 33.7028 24.9626 33.7322L26.4959 34.6187C27.3284 35.0352 27.8372 34.5443 27.8372 34.0506V27.6689C27.8372 27.5777 27.9087 27.5076 27.9998 27.5076H28.709C28.7972 27.5076 28.8701 27.5777 28.8701 27.6689V34.0534C28.8701 35.1643 28.2647 35.8024 27.2121 35.8024C26.8884 35.8024 26.6333 35.8024 25.9213 35.4518L24.4525 34.6046C24.0895 34.3942 23.8652 34.0015 23.8652 33.5821V27.1162C23.8652 26.6955 24.0895 26.3027 24.4525 26.0952L30.0572 22.8594C30.4118 22.6588 30.8827 22.6588 31.2345 22.8594L36.8323 26.0966C37.1939 26.3056 37.4195 26.6969 37.4195 27.1176V33.5835C37.4195 34.0029 37.1939 34.3942 36.8323 34.6046L31.2345 37.8404C31.0551 37.9442 30.8519 37.9975 30.6445 37.9975" fill="#689F63"/>
<path d="M32.3737 33.5443C29.9238 33.5443 29.4102 32.4189 29.4102 31.475C29.4102 31.3852 29.4825 31.3137 29.5723 31.3137H30.2955C30.3754 31.3137 30.4427 31.3719 30.4553 31.4508C30.5646 32.1883 30.8898 32.5603 32.3712 32.5603C33.5513 32.5603 34.053 32.2935 34.053 31.6673C34.053 31.3068 33.9101 31.0389 32.0769 30.8594C30.5436 30.7079 29.5961 30.3699 29.5961 29.1426C29.5961 28.0121 30.5492 27.3389 32.1455 27.3389C33.9381 27.3389 34.8267 27.9616 34.9388 29.2997C34.943 29.346 34.9262 29.3909 34.8954 29.4245C34.8645 29.4568 34.8211 29.4764 34.7762 29.4764H34.0488C33.9731 29.4764 33.9073 29.4231 33.8919 29.3502C33.7167 28.5746 33.2934 28.3263 32.1427 28.3263C30.8547 28.3263 30.7048 28.7751 30.7048 29.1118C30.7048 29.5199 30.8814 29.6391 32.6193 29.8691C34.3403 30.0978 35.1574 30.4204 35.1574 31.6308C35.1574 32.851 34.1399 33.5509 32.3656 33.5509M39.1855 26.6937H39.3733C39.5274 26.6937 39.5569 26.5857 39.5569 26.5226C39.5569 26.3571 39.4433 26.3571 39.3803 26.3571H39.1869L39.1855 26.6937ZM38.957 26.1635H39.3733C39.5162 26.1635 39.7965 26.1635 39.7965 26.4833C39.7965 26.7063 39.6536 26.7526 39.5681 26.7807C39.7349 26.7919 39.7461 26.9013 39.7685 27.0556C39.7797 27.1523 39.7979 27.3193 39.8316 27.3754H39.5751C39.5681 27.3193 39.5288 27.0107 39.5288 26.9939C39.512 26.9251 39.4882 26.8915 39.4027 26.8915H39.1911V27.3768H38.957V26.1635ZM38.4567 26.7666C38.4567 27.2688 38.8617 27.6755 39.3593 27.6755C39.861 27.6755 40.2661 27.2603 40.2661 26.7666C40.2661 26.2631 39.8554 25.8634 39.3579 25.8634C38.8673 25.8634 38.4553 26.2575 38.4553 26.7652M40.4398 26.7694C40.4398 27.3641 39.9535 27.8494 39.3607 27.8494C38.772 27.8494 38.2815 27.3697 38.2815 26.7694C38.2815 26.1579 38.7832 25.6895 39.3607 25.6895C39.9423 25.6895 40.4384 26.1593 40.4384 26.7694" fill="#689F63"/>
<path fill-rule="evenodd" clip-rule="evenodd" d="M13.3056 12.7003C13.3056 12.4423 13.1697 12.2052 12.9471 12.0769L7.01077 8.65881C6.91056 8.5999 6.7983 8.56904 6.6845 8.56483H6.62311C6.5093 8.56904 6.39704 8.5999 6.29515 8.65881L0.359074 12.0769C0.137911 12.2059 0 12.443 0 12.701L0.0130343 21.9076C0.0130343 22.0352 0.0789066 22.1544 0.19103 22.2176C0.30035 22.2849 0.4377 22.2849 0.54702 22.2176L4.07609 20.195C4.29894 20.0624 4.43489 19.8278 4.43489 19.5723V15.2713C4.43489 15.0146 4.57084 14.7776 4.79298 14.6499L6.29543 13.784C6.40699 13.7195 6.52949 13.6875 6.65422 13.6875C6.777 13.6875 6.9023 13.7192 7.01077 13.7838L8.51252 14.6495C8.73481 14.7771 8.87132 15.0142 8.87132 15.2709V19.5716C8.87132 19.8269 9.00909 20.0625 9.23081 20.1943L12.7576 22.2155C12.8684 22.2814 13.0061 22.2814 13.1164 22.2155C13.2252 22.1523 13.2942 22.0331 13.2942 21.9055L13.3056 12.7003ZM41.3179 17.4938C41.3179 17.5579 41.2839 17.6172 41.2282 17.6489L39.1893 18.8251C39.1339 18.857 39.0655 18.857 39.0103 18.8251L36.971 17.6489C36.915 17.6171 36.8813 17.5578 36.8813 17.4938V15.138C36.8813 15.0738 36.915 15.0146 36.9696 14.9823L39.0075 13.8042C39.0635 13.7719 39.1322 13.7719 39.1883 13.8042L41.2275 14.9823C41.2836 15.0146 41.3172 15.0738 41.3172 15.138L41.3179 17.4938ZM41.8687 0.0454133C41.7574 -0.0165808 41.622 -0.0148977 41.5122 0.0492003C41.4028 0.113719 41.3353 0.231536 41.3353 0.359171V9.47595C41.3353 9.56572 41.2876 9.64847 41.21 9.69335C41.1329 9.73823 41.0369 9.73823 40.9591 9.69335L39.4721 8.83623C39.2506 8.70804 38.9779 8.70804 38.7556 8.83623L32.8173 12.266C32.5954 12.3936 32.4585 12.6306 32.4585 12.8859V19.7473C32.4585 20.004 32.5954 20.2396 32.8173 20.3687L38.7556 23.8008C38.9773 23.9284 39.2504 23.9284 39.4728 23.8008L45.4111 20.3673C45.6325 20.2382 45.7699 20.0026 45.7699 19.7459V2.64566C45.7699 2.38534 45.6283 2.14592 45.4013 2.01871L41.8687 0.0454133ZM61.6434 15.076C61.864 14.9478 61.9998 14.7111 61.9998 14.4558V12.7929C61.9998 12.5371 61.8639 12.301 61.6429 12.1723L55.7424 8.74436C55.5196 8.61533 55.2463 8.61533 55.0234 8.74436L49.0865 12.1737C48.8637 12.3027 48.7277 12.5383 48.7277 12.795V19.6536C48.7277 19.9117 48.8665 20.1502 49.0893 20.2778L54.9884 23.6426C55.2056 23.7674 55.4719 23.7688 55.6919 23.6468L59.2603 21.6621C59.3724 21.599 59.4439 21.4798 59.4439 21.3508C59.4439 21.2217 59.3752 21.1011 59.2631 21.038L53.2897 17.6073C53.1776 17.5442 53.1089 17.4249 53.1089 17.2973V15.1457C53.1089 15.0173 53.1762 14.8989 53.2883 14.8349L55.1467 13.762C55.2575 13.6974 55.3934 13.6974 55.5041 13.762L57.364 14.8349C57.4747 14.8981 57.5434 15.0173 57.5434 15.1449V16.8364C57.5434 16.9641 57.6121 17.0833 57.7228 17.1478C57.8335 17.2109 57.9708 17.2109 58.0816 17.1464L61.6434 15.076Z" fill="#333333"/>
<path fill-rule="evenodd" clip-rule="evenodd" d="M55.2967 14.7549C55.3388 14.7301 55.3915 14.7301 55.4341 14.7549L56.5735 15.4128C56.6161 15.4374 56.6422 15.4829 56.6422 15.532V16.849C56.6422 16.8981 56.6161 16.9435 56.5735 16.9682L55.4341 17.626C55.3915 17.6509 55.3388 17.6509 55.2967 17.626L54.158 16.9682C54.1145 16.9435 54.0879 16.8981 54.0879 16.849V15.532C54.0879 15.4829 54.1131 15.4374 54.1566 15.4128L55.2967 14.7549Z" fill="#689F63"/>
<mask id="mask0_892_4569" style="mask-type:luminance" maskUnits="userSpaceOnUse" x="16" y="8" width="14" height="16">
<path d="M22.5252 8.77897L16.6205 12.1896C16.3993 12.3173 16.2637 12.5529 16.2637 12.8076V19.6337C16.2637 19.8885 16.3993 20.124 16.6205 20.2517L22.5256 23.665C22.7463 23.7922 23.0185 23.7922 23.239 23.665L29.1431 20.2517C29.3631 20.124 29.4991 19.8884 29.4991 19.6337V12.8076C29.4991 12.5529 29.3632 12.3173 29.1417 12.1896L23.2384 8.77897C23.1277 8.71543 23.0044 8.68359 22.881 8.68359C22.7577 8.68359 22.6344 8.71543 22.5236 8.77897" fill="white"/>
</mask>
<g mask="url(#mask0_892_4569)">
<path d="M35.4664 11.6108L18.828 3.44922L10.2969 20.8656L26.9348 29.0277L35.4664 11.6108Z" fill="url(#paint0_linear_892_4569)"/>
</g>
<mask id="mask1_892_4569" style="mask-type:luminance" maskUnits="userSpaceOnUse" x="16" y="8" width="14" height="16">
<path d="M16.4102 20.0664C16.4666 20.1398 16.5373 20.2033 16.6204 20.251L21.6855 23.1789L22.5293 23.6642C22.6554 23.7371 22.7992 23.768 22.9405 23.7575C22.9876 23.7537 23.0347 23.7448 23.0806 23.7318L29.3082 12.3204C29.2606 12.2685 29.2048 12.225 29.1423 12.1885L25.276 9.95423L23.2323 8.77746C23.1743 8.7438 23.1113 8.71996 23.0473 8.70312L16.4102 20.0664Z" fill="white"/>
</mask>
<g mask="url(#mask1_892_4569)">
<path d="M9.2168 14.0237L20.9652 29.9364L36.5026 18.4484L24.7536 2.53613L9.2168 14.0237Z" fill="url(#paint1_linear_892_4569)"/>
</g>
<mask id="mask2_892_4569" style="mask-type:luminance" maskUnits="userSpaceOnUse" x="16" y="8" width="14" height="16">
<path d="M22.8117 8.68723C22.7127 8.69705 22.6158 8.72791 22.5265 8.77868L16.6387 12.1795L22.9876 23.7522C23.0759 23.7396 23.1628 23.7101 23.2413 23.6647L29.146 20.2514C29.3282 20.1456 29.4529 19.9667 29.4908 19.7638L23.0185 8.69888C22.9708 8.68948 22.9232 8.68457 22.8741 8.68457C22.8545 8.68457 22.8349 8.68555 22.8153 8.68737" fill="white"/>
</mask>
<g mask="url(#mask2_892_4569)">
<path d="M16.6387 8.68457V23.7525H29.4884V8.68457H16.6387Z" fill="url(#paint2_linear_892_4569)"/>
</g>
</g>
<defs>
<linearGradient id="paint0_linear_892_4569" x1="27.1422" y1="7.5172" x2="18.6014" y2="24.9274" gradientUnits="userSpaceOnUse">
<stop offset="0.3" stop-color="#3E863D"/>
<stop offset="0.5" stop-color="#55934F"/>
<stop offset="0.8" stop-color="#5AAD45"/>
</linearGradient>
<linearGradient id="paint1_linear_892_4569" x1="15.1614" y1="22.0713" x2="30.7076" y2="10.593" gradientUnits="userSpaceOnUse">
<stop offset="0.57" stop-color="#3E863D"/>
<stop offset="0.72" stop-color="#619857"/>
<stop offset="1" stop-color="#76AC64"/>
</linearGradient>
<linearGradient id="paint2_linear_892_4569" x1="16.643" y1="16.219" x2="29.4908" y2="16.219" gradientUnits="userSpaceOnUse">
<stop offset="0.16" stop-color="#6BBF47"/>
<stop offset="0.38" stop-color="#79B461"/>
<stop offset="0.47" stop-color="#75AC64"/>
<stop offset="0.7" stop-color="#659E5A"/>
<stop offset="0.9" stop-color="#3E863D"/>
</linearGradient>
<clipPath id="clip0_892_4569">
<rect width="62" height="38" fill="white"/>
</clipPath>
</defs>
</svg>
