<svg width="52" height="52" viewBox="0 0 52 52" fill="none" xmlns="http://www.w3.org/2000/svg">
<path d="M13.0017 26.7225C12.8566 26.7225 12.7107 26.6785 12.5857 26.5911C12.19 26.3123 2.89062 19.6787 2.89062 12.2781C2.89062 6.70255 7.42618 2.16699 13.0017 2.16699C18.5773 2.16699 23.1128 6.70255 23.1128 12.2781C23.1128 19.6787 13.8135 26.3123 13.4177 26.5911C13.2928 26.6785 13.1469 26.7225 13.0017 26.7225ZM13.0017 3.61144C8.22279 3.61144 4.33507 7.49916 4.33507 12.2781C4.33507 18.0978 11.22 23.739 13.0017 25.1004C14.7835 23.739 21.6684 18.0978 21.6684 12.2781C21.6684 7.49916 17.7807 3.61144 13.0017 3.61144Z" fill="black"/>
<path d="M13.0013 15.1667C10.6115 15.1667 8.66797 13.2232 8.66797 10.8333C8.66797 8.4435 10.6115 6.5 13.0013 6.5C15.3911 6.5 17.3346 8.4435 17.3346 10.8333C17.3346 13.2232 15.3911 15.1667 13.0013 15.1667ZM13.0013 7.94444C11.4081 7.94444 10.1124 9.24011 10.1124 10.8333C10.1124 12.4266 11.4081 13.7222 13.0013 13.7222C14.5945 13.7222 15.8902 12.4266 15.8902 10.8333C15.8902 9.24011 14.5945 7.94444 13.0013 7.94444Z" fill="black"/>
<path d="M41.8924 46.2228H18.4201C15.0351 46.2228 12.2812 43.4689 12.2812 40.0839C12.2812 36.6988 15.0351 33.945 18.4201 33.945H31.7812C33.7724 33.945 35.3924 32.325 35.3924 30.3339C35.3924 28.3427 33.7724 26.7228 31.7812 26.7228H16.6146C16.2152 26.7228 15.8924 26.3992 15.8924 26.0005C15.8924 25.6019 16.2152 25.2783 16.6146 25.2783H31.7812C34.5683 25.2783 36.8368 27.5461 36.8368 30.3339C36.8368 33.1217 34.5683 35.3894 31.7812 35.3894H18.4201C15.8317 35.3894 13.7257 37.4954 13.7257 40.0839C13.7257 42.6723 15.8317 44.7783 18.4201 44.7783H41.8924C42.2917 44.7783 42.6146 45.1019 42.6146 45.5005C42.6146 45.8992 42.2917 46.2228 41.8924 46.2228Z" fill="black"/>
<path d="M45.5013 49.8337C43.1115 49.8337 41.168 47.8902 41.168 45.5003C41.168 43.1105 43.1115 41.167 45.5013 41.167C47.8911 41.167 49.8346 43.1105 49.8346 45.5003C49.8346 47.8902 47.8911 49.8337 45.5013 49.8337ZM45.5013 42.6114C43.9081 42.6114 42.6124 43.9071 42.6124 45.5003C42.6124 47.0935 43.9081 48.3892 45.5013 48.3892C47.0945 48.3892 48.3902 47.0935 48.3902 45.5003C48.3902 43.9071 47.0945 42.6114 45.5013 42.6114Z" fill="black"/>
</svg>
