<svg width="401" height="400" viewBox="0 0 401 400" fill="none" xmlns="http://www.w3.org/2000/svg">
<path d="M354.562 227.08C353.134 225.652 351.197 224.85 349.177 224.85C347.158 224.85 345.221 225.652 343.792 227.08L276.027 294.845C275.741 295.132 275.401 295.359 275.027 295.514C274.653 295.669 274.252 295.748 273.847 295.748C273.442 295.748 273.041 295.669 272.667 295.514C272.292 295.359 271.952 295.132 271.666 294.845L249.701 272.88C248.268 271.47 246.337 270.684 244.328 270.692C242.319 270.7 240.394 271.501 238.973 272.922C237.552 274.343 236.75 276.268 236.742 278.277C236.734 280.287 237.521 282.218 238.93 283.65L271.666 316.386C271.952 316.672 272.292 316.899 272.667 317.054C273.041 317.209 273.442 317.289 273.847 317.289C274.252 317.289 274.653 317.209 275.027 317.054C275.401 316.899 275.741 316.672 276.027 316.386L354.562 237.85C355.269 237.143 355.83 236.303 356.213 235.379C356.596 234.455 356.793 233.465 356.793 232.465C356.793 231.465 356.596 230.475 356.213 229.551C355.83 228.627 355.269 227.787 354.562 227.08Z" fill="black"/>
<path d="M341.653 276.85C339.633 276.85 337.696 277.653 336.268 279.081C334.84 280.509 334.037 282.446 334.037 284.466C334.037 295.652 330.721 306.586 324.506 315.887C318.292 325.187 309.459 332.436 299.125 336.716C288.791 340.997 277.42 342.117 266.449 339.935C255.478 337.752 245.401 332.366 237.492 324.457C229.583 316.547 224.196 306.47 222.014 295.5C219.832 284.529 220.952 273.158 225.232 262.824C229.513 252.49 236.762 243.657 246.062 237.443C255.363 231.228 266.297 227.911 277.482 227.911C286.285 227.884 294.97 229.933 302.832 233.893C304.637 234.799 306.728 234.952 308.645 234.316C310.562 233.681 312.149 232.31 313.055 230.505C313.962 228.7 314.114 226.609 313.479 224.692C312.844 222.775 311.473 221.188 309.668 220.282C299.686 215.251 288.659 212.646 277.482 212.678C263.284 212.678 249.405 216.888 237.6 224.776C225.794 232.664 216.593 243.875 211.16 256.993C205.727 270.11 204.305 284.543 207.075 298.469C209.844 312.394 216.681 325.185 226.72 335.224C236.76 345.264 249.551 352.101 263.476 354.871C277.401 357.641 291.835 356.22 304.952 350.787C318.069 345.354 329.281 336.153 337.169 324.348C345.057 312.543 349.268 298.664 349.268 284.466C349.268 282.446 348.466 280.509 347.038 279.081C345.61 277.653 343.673 276.85 341.653 276.85Z" fill="black"/>
<path d="M293.268 166.955H280.451C278.335 166.955 276.307 167.795 274.811 169.291C273.315 170.787 272.474 172.816 272.474 174.931C272.474 177.047 273.315 179.076 274.811 180.572C276.307 182.068 278.335 182.908 280.451 182.908H301.284C303.483 182.825 305.567 181.903 307.108 180.332C308.649 178.76 309.529 176.658 309.569 174.457C309.173 139.656 295.07 106.414 270.321 81.9443C245.571 57.4746 212.172 43.7506 177.368 43.75C104.466 43.75 45.1562 103.06 45.1562 175.961C45.1562 248.863 104.466 308.172 177.368 308.172C179.078 308.171 180.742 307.621 182.116 306.602C183.49 305.584 184.5 304.151 184.997 302.515C185.236 301.833 185.353 301.114 185.343 300.392V278.016C185.324 275.912 184.476 273.901 182.982 272.42C181.488 270.939 179.469 270.108 177.366 270.108C175.262 270.108 173.244 270.939 171.75 272.42C170.256 273.901 169.407 275.912 169.389 278.016V291.939C111.287 287.982 64.7737 241.147 61.3221 182.911H74.2824C76.398 182.911 78.4269 182.071 79.9229 180.575C81.4188 179.079 82.2592 177.05 82.2592 174.934C82.2592 172.819 81.4188 170.79 79.9229 169.294C78.4269 167.798 76.398 166.958 74.2824 166.958H61.4564C65.8662 109.673 111.973 63.8918 169.391 59.9855V71.8465C169.409 73.9501 170.258 75.9612 171.752 77.4422C173.245 78.9232 175.264 79.7541 177.368 79.7541C179.471 79.7541 181.49 78.9232 182.984 77.4422C184.478 75.9612 185.326 73.9501 185.345 71.8465V59.9855C242.537 63.918 288.839 109.786 293.268 166.955Z" fill="black"/>
<path d="M177.366 121.836C175.251 121.836 173.222 122.676 171.726 124.172C170.229 125.668 169.389 127.698 169.389 129.813V171.35L115.448 202.442C114.532 202.961 113.729 203.656 113.083 204.487C112.438 205.318 111.963 206.269 111.687 207.284C111.41 208.299 111.337 209.359 111.472 210.403C111.607 211.446 111.947 212.453 112.472 213.364C112.998 214.276 113.698 215.075 114.533 215.714C115.369 216.354 116.323 216.822 117.34 217.092C118.357 217.361 119.417 217.427 120.46 217.285C121.502 217.143 122.507 216.796 123.415 216.265L181.35 182.875C181.496 182.79 181.624 182.709 181.744 182.63C182.85 181.906 183.759 180.917 184.387 179.754C185.016 178.59 185.345 177.288 185.345 175.966V129.813C185.345 128.766 185.139 127.728 184.738 126.76C184.337 125.792 183.749 124.913 183.008 124.172C182.267 123.431 181.388 122.844 180.42 122.443C179.452 122.042 178.414 121.836 177.366 121.836Z" fill="black"/>
</svg>
