<svg width="120" height="120" viewBox="0 0 120 120" fill="none" xmlns="http://www.w3.org/2000/svg">
<path fill-rule="evenodd" clip-rule="evenodd" d="M22.1666 7.47619C14.6056 7.47619 8.47618 13.6056 8.47618 21.1667V97.8333C8.47618 105.394 14.6056 111.524 22.1666 111.524H63.238C64.7502 111.524 65.9761 112.75 65.9761 114.262C65.9761 115.774 64.7502 117 63.238 117H22.1666C11.5812 117 3 108.419 3 97.8333V21.1667C3 10.5812 11.5812 2 22.1666 2H60.4999C61.2261 2 61.9226 2.28849 62.4363 2.80199L95.2934 35.6591C95.8065 36.1726 96.0951 36.869 96.0951 37.5952V45.8095C96.0951 47.3217 94.8692 48.5476 93.357 48.5476C91.8448 48.5476 90.6189 47.3217 90.6189 45.8095V38.7294L59.3658 7.47619H22.1666Z" fill="#212121"/>
<path fill-rule="evenodd" clip-rule="evenodd" d="M59.4532 2.2085C60.4761 1.7847 61.6541 2.01897 62.4372 2.80206L95.2943 35.6592C96.0773 36.4422 96.3112 37.62 95.8873 38.6431C95.4635 39.6663 94.4652 40.3334 93.3579 40.3334H76.9293C66.3439 40.3334 57.7627 31.7522 57.7627 21.1667V4.73817C57.7627 3.63072 58.4297 2.6323 59.4532 2.2085ZM63.2389 11.3485V21.1667C63.2389 28.7278 69.3684 34.8572 76.9293 34.8572H86.7476L63.2389 11.3485Z" fill="#212121"/>
<path fill-rule="evenodd" clip-rule="evenodd" d="M79.6674 62.2379C70.5939 62.2379 63.2389 69.593 63.2389 78.6665C63.2389 87.74 70.5939 95.095 79.6674 95.095C88.7409 95.095 96.096 87.74 96.096 78.6665C96.096 69.593 88.7409 62.2379 79.6674 62.2379ZM57.7627 78.6665C57.7627 66.569 67.57 56.7617 79.6674 56.7617C91.7649 56.7617 101.572 66.569 101.572 78.6665C101.572 90.7639 91.7649 100.571 79.6674 100.571C67.57 100.571 57.7627 90.7639 57.7627 78.6665Z" fill="#212121"/>
<path fill-rule="evenodd" clip-rule="evenodd" d="M95.2931 90.4219L115.262 110.391C116.331 111.46 116.331 113.193 115.262 114.263C114.193 115.332 112.459 115.332 111.389 114.263L91.4209 94.2946L95.2931 90.4219Z" fill="#212121"/>
<path fill-rule="evenodd" clip-rule="evenodd" d="M49.5508 34.857H22.1699V29.3809H49.5508V34.857Z" fill="#EDB600"/>
<path fill-rule="evenodd" clip-rule="evenodd" d="M49.5508 62.2379H22.1699V56.7617H49.5508V62.2379Z" fill="#EDB600"/>
<path fill-rule="evenodd" clip-rule="evenodd" d="M49.5508 89.6188H22.1699V84.1426H49.5508V89.6188Z" fill="#EDB600"/>
</svg>
