<svg width="32" height="32" viewBox="0 0 32 32" fill="none" xmlns="http://www.w3.org/2000/svg">
<path d="M12.2134 14.4927C12.0801 14.4793 11.9201 14.4793 11.7734 14.4927C8.60008 14.386 6.08008 11.786 6.08008 8.58602C6.08008 5.31935 8.72008 2.66602 12.0001 2.66602C15.2667 2.66602 17.9201 5.31935 17.9201 8.58602C17.9067 11.786 15.3867 14.386 12.2134 14.4927Z" stroke="#212121" stroke-width="1.5" stroke-linecap="round" stroke-linejoin="round"/>
<path d="M21.8799 5.33398C24.4665 5.33398 26.5465 7.42732 26.5465 10.0007C26.5465 12.5207 24.5465 14.574 22.0532 14.6673C21.9465 14.654 21.8265 14.654 21.7065 14.6673" stroke="#212121" stroke-width="1.5" stroke-linecap="round" stroke-linejoin="round"/>
<path d="M5.54646 19.414C2.3198 21.574 2.3198 25.094 5.54646 27.2407C9.21313 29.694 15.2265 29.694 18.8931 27.2407C22.1198 25.0807 22.1198 21.5607 18.8931 19.414C15.2398 16.974 9.22646 16.974 5.54646 19.414Z" stroke="#212121" stroke-width="1.5" stroke-linecap="round" stroke-linejoin="round"/>
<path d="M24.4531 26.666C25.4131 26.466 26.3198 26.0793 27.0665 25.506C29.1465 23.946 29.1465 21.3727 27.0665 19.8127C26.3331 19.2527 25.4398 18.8793 24.4931 18.666" stroke="#212121" stroke-width="1.5" stroke-linecap="round" stroke-linejoin="round"/>
</svg>
