<svg width="32" height="32" viewBox="0 0 32 32" fill="none" xmlns="http://www.w3.org/2000/svg">
<g clip-path="url(#clip0_872_748)">
<path d="M1.13067 20.6582L3.89733 22.6262C5.19467 23.5489 6.72533 24.0195 8.264 24.0195C9.368 24.0195 10.4773 23.7769 11.508 23.2862L30.084 14.3835C31.7387 13.5929 32.4587 11.5969 31.688 9.93285C30.916 8.26485 28.9293 7.53952 27.2627 8.30752L27.2533 8.31285L21.9173 10.8889C21.904 10.8782 21.8907 10.8689 21.876 10.8595L12.2467 4.65552C11.268 3.92752 9.96933 3.79685 8.85733 4.30885L7.816 4.79819C7.20533 5.08485 6.784 5.65552 6.688 6.32352C6.592 6.99285 6.836 7.65819 7.33867 8.10352L14.4667 14.4835L7.72 17.7395L3.40267 16.1542C2.36533 15.7782 1.20133 16.1089 0.509333 16.9929C0.1 17.5169 -0.0706667 18.1782 0.028 18.8555C0.133333 19.5782 0.533333 20.2342 1.13067 20.6582ZM8.22533 7.10885C8.05467 6.95685 7.97467 6.74085 8.00667 6.51419C8.03867 6.28752 8.176 6.10219 8.38267 6.00619L9.42 5.51952C10.084 5.20885 10.864 5.28885 11.4867 5.75152L20.512 11.5675L15.764 13.8595L8.22533 7.10885ZM1.55867 17.8129C1.80133 17.5049 2.16133 17.3329 2.53067 17.3329C2.66933 17.3329 2.808 17.3582 2.94267 17.4075L7.52533 19.0902C7.69467 19.1529 7.88267 19.1422 8.04533 19.0635L27.828 9.51685C28.8253 9.05819 30.016 9.49285 30.48 10.4929C30.9453 11.4982 30.5093 12.7035 29.5093 13.1809L10.9333 22.0835C8.904 23.0502 6.504 22.8435 4.67067 21.5409L1.904 19.5729C1.60267 19.3595 1.40133 19.0275 1.348 18.6635C1.30267 18.3502 1.37733 18.0475 1.56133 17.8129H1.55867ZM32 31.3329C32 31.7009 31.7013 31.9995 31.3333 31.9995H0.666667C0.298667 31.9995 0 31.7009 0 31.3329C0 30.9649 0.298667 30.6662 0.666667 30.6662H31.3333C31.7013 30.6662 32 30.9649 32 31.3329Z" fill="white"/>
</g>
<defs>
<clipPath id="clip0_872_748">
<rect width="32" height="32" fill="white"/>
</clipPath>
</defs>
</svg>
