<svg width="60" height="60" viewBox="0 0 60 60" fill="none" xmlns="http://www.w3.org/2000/svg">
<g clip-path="url(#clip0_774_3289)">
<path d="M30 60C46.5685 60 60 46.5685 60 30C60 13.4315 46.5685 0 30 0C13.4315 0 0 13.4315 0 30C0 46.5685 13.4315 60 30 60Z" fill="url(#paint0_linear_774_3289)"/>
<path d="M42.8714 28.5363L23.5742 18.0105C22.4636 17.4048 21.1094 18.2086 21.1094 19.4737V40.5253C21.1094 41.7905 22.4635 42.5942 23.5742 41.9885L42.8714 31.4627C44.0296 30.831 44.0296 29.1681 42.8714 28.5363Z" fill="white"/>
<path d="M25.5074 32.4368V19.0651L23.5741 18.0105C22.4635 17.4048 21.1094 18.2086 21.1094 19.4737V40.5253C21.1094 41.7903 22.4635 42.5942 23.5741 41.9885L42.8713 31.4626C43.4525 31.1456 43.7413 30.5689 43.7391 29.9932L28.3633 34.5668C26.9385 34.9905 25.5074 33.9232 25.5074 32.4368Z" fill="white"/>
</g>
<defs>
<linearGradient id="paint0_linear_774_3289" x1="-3.64015" y1="-1.30331" x2="20.2906" y2="62.7626" gradientUnits="userSpaceOnUse">
<stop stop-color="#007AEB"/>
<stop offset="0.416839" stop-color="#008CE7"/>
<stop offset="1" stop-color="#00DBD3"/>
</linearGradient>
<clipPath id="clip0_774_3289">
<rect width="60" height="60" fill="white"/>
</clipPath>
</defs>
</svg>
