<svg width="32" height="32" viewBox="0 0 32 32" fill="none" xmlns="http://www.w3.org/2000/svg">
<path d="M29.1778 23.0433H28.9903C28.9004 22.7723 28.7908 22.5082 28.6619 22.2523L28.7957 22.118C28.982 21.9315 29.0848 21.6835 29.0848 21.4188C29.0848 21.1547 28.982 20.9066 28.796 20.7206L28.2581 20.1827V14.5211C28.2581 13.8283 27.6937 13.2648 27.0001 13.2648H26.0411L26.7925 4.88465C26.8113 4.673 26.8396 4.3534 26.5315 4.0336L24.7361 2.17155C24.553 1.9782 24.4297 1.93595 24.1753 1.91375L23.4749 1.8509C23.4745 1.85085 23.4741 1.85055 23.4737 1.85055C23.4732 1.8505 23.4729 1.85075 23.4724 1.8507L8.49589 0.506497C8.12334 0.470347 7.75714 0.586097 7.46779 0.827797C7.17824 1.0695 7.00049 1.40885 6.96754 1.78265L5.96414 12.9557H3.01564C3.01344 12.9557 3.01124 12.9557 3.00904 12.9557C2.67214 12.9557 2.36939 13.0724 2.15579 13.2848C1.95339 13.4865 1.84644 13.7536 1.84644 14.0578L1.83594 27.0551C1.83594 28.0399 2.31569 29.2044 4.53444 29.2753C4.59094 29.2975 4.65149 29.3119 4.71579 29.3119H18.571L19.3879 30.1288C19.7597 30.5009 20.4123 30.5004 20.7846 30.1288L20.9182 29.995C21.1728 30.1234 21.437 30.2333 21.7089 30.3232V30.5126C21.7089 31.0571 22.1528 31.5004 22.6984 31.5004H24.3305C24.8754 31.5004 25.3186 31.0571 25.3186 30.5126V30.3232C25.591 30.2333 25.8554 30.124 26.1093 29.9955L26.2443 30.1308C26.6315 30.5136 27.2578 30.5131 27.6411 30.1288L28.7956 28.9745C28.9819 28.788 29.0847 28.54 29.0847 28.2758C29.0847 28.0116 28.9819 27.7636 28.7968 27.5785L28.6618 27.4428C28.7907 27.1864 28.9006 26.9223 28.9902 26.6513H29.1777C29.7233 26.6513 30.1674 26.2079 30.1674 25.6635V24.0312C30.1675 23.4867 29.7234 23.0433 29.1778 23.0433ZM27.2581 14.5211V19.333C26.9141 19.218 26.5188 19.293 26.2424 19.5658L26.1094 19.6991C25.8555 19.5707 25.5911 19.4613 25.3186 19.3715V19.1825C25.3186 18.6376 24.8755 18.1942 24.3306 18.1942H22.6985C22.1528 18.1942 21.709 18.6376 21.709 19.1825V19.3715C21.437 19.4613 21.1728 19.5712 20.9182 19.6996L20.7847 19.5658C20.3997 19.1815 19.7734 19.1811 19.3879 19.5658L18.2331 20.7206C17.8479 21.1059 17.8479 21.7323 18.2331 22.1176L18.3667 22.2514C18.2383 22.5063 18.1287 22.7709 18.0388 23.0434H17.8496C17.3049 23.0434 16.8618 23.4867 16.8618 24.0312V25.6635C16.8618 26.2079 17.3049 26.6513 17.8496 26.6513H18.0388C18.1287 26.9237 18.2383 27.1884 18.367 27.4433L18.2332 27.5776C18.0315 27.7792 17.9382 28.0471 17.9479 28.312H5.21584V17.8715C5.21584 17.8353 5.24634 17.8046 5.28249 17.8046H16.1509C16.3315 17.8046 16.4983 17.7069 16.5869 17.5497L18.1509 14.7655L18.2424 14.5956C18.3022 14.482 18.4026 14.2919 18.4709 14.2648H27C27.1399 14.2648 27.2581 14.3822 27.2581 14.5211ZM25.803 4.71965C25.802 4.74285 25.7988 4.76775 25.7964 4.7958L25.7956 4.8043L23.7256 4.6171L23.8817 2.8915L24.0557 2.90715L25.803 4.71965ZM7.96364 1.87125C7.97314 1.7636 8.02469 1.6657 8.10864 1.59535C8.19264 1.5253 8.29884 1.4911 8.40554 1.50235L22.8856 2.8021L22.7234 4.59635C22.7014 4.84415 22.7778 5.0861 22.9385 5.27725C23.0986 5.46815 23.3232 5.5851 23.5696 5.6071L25.7063 5.80045L25.0369 13.2648H18.4709C17.8137 13.2648 17.5393 13.7848 17.3579 14.129L15.8581 16.8046H6.62264L7.96364 1.87125ZM2.83599 27.0551L2.84649 14.0578C2.84649 14.0395 2.84844 14.0065 2.86139 13.9936C2.87554 13.9792 2.92489 13.9635 3.01349 13.9557H5.87439L5.61854 16.8046H5.28249C4.69434 16.8046 4.21584 17.2831 4.21584 17.8715V28.255C2.84054 28.1131 2.83599 27.4122 2.83599 27.0551ZM28.6162 25.6513C28.388 25.6513 28.1887 25.8056 28.1321 26.0268C28.0195 26.4638 27.8452 26.8842 27.6135 27.2768C27.4978 27.4726 27.5293 27.7221 27.6897 27.8832L28.0888 28.267L26.9499 29.4218L26.5517 29.0234C26.3899 28.8618 26.1389 28.83 25.9421 28.9472C25.5569 29.1767 25.1367 29.351 24.6938 29.4648C24.4729 29.522 24.3186 29.7212 24.3186 29.9492L24.3306 30.5004L22.709 30.5126V29.9491C22.709 29.721 22.5547 29.5218 22.334 29.4652C21.8926 29.3509 21.4722 29.1766 21.0847 28.9466C21.0054 28.8997 20.9172 28.8768 20.8298 28.8768C20.7004 28.8768 20.5725 28.9271 20.4761 29.0233L20.095 29.4218L19.1582 28.4977C19.1373 28.4724 19.1149 28.4506 19.0894 28.4298L18.9412 28.2836L19.3397 27.8832C19.5006 27.7216 19.5316 27.4711 19.4149 27.2753C19.1849 26.8886 19.0108 26.4687 18.8975 26.0268C18.8406 25.8061 18.6414 25.6513 18.4131 25.6513L17.8619 25.6635L17.8497 24.0434H18.4132C18.6414 24.0434 18.8407 23.8891 18.8976 23.6679C19.0109 23.2265 19.1852 22.8061 19.4154 22.4174C19.5318 22.2211 19.5003 21.9706 19.3387 21.809L18.9403 21.4276L20.0777 20.2728L20.4762 20.6713C20.6376 20.8324 20.8883 20.8646 21.0848 20.7479C21.4723 20.5179 21.8927 20.3436 22.3341 20.2294C22.5548 20.1727 22.7091 19.9735 22.7091 19.7455L22.6986 19.1942L24.3187 19.1825V19.7455C24.3187 19.9736 24.473 20.1728 24.6939 20.2299C25.1368 20.3437 25.557 20.518 25.9422 20.7475C26.139 20.8647 26.39 20.8325 26.5518 20.6714L26.9341 20.2729L27.3917 20.7242C27.4024 20.7359 27.4132 20.7464 27.425 20.757L28.0882 21.4111L27.69 21.811C27.5293 21.9726 27.4978 22.2222 27.6136 22.418C27.845 22.8101 28.0193 23.231 28.1321 23.668C28.189 23.8892 28.3882 24.0435 28.6163 24.0435L29.1675 24.0313L29.1778 25.6514L28.6162 25.6513Z" fill="black"/>
<path d="M23.5156 21.5977C21.7236 21.5977 20.2656 23.0557 20.2656 24.8477C20.2656 26.6397 21.7236 28.0977 23.5156 28.0977C25.3076 28.0977 26.7656 26.6397 26.7656 24.8477C26.7656 23.0557 25.3076 21.5977 23.5156 21.5977ZM23.5156 27.0977C22.2749 27.0977 21.2656 26.0884 21.2656 24.8477C21.2656 23.607 22.2749 22.5977 23.5156 22.5977C24.7563 22.5977 25.7656 23.607 25.7656 24.8477C25.7656 26.0884 24.7563 27.0977 23.5156 27.0977Z" fill="black"/>
<path d="M10.8773 7.39536L21.5931 8.35726C21.6082 8.35846 21.6233 8.35921 21.6382 8.35921C21.8943 8.35921 22.1123 8.16366 22.1358 7.90391C22.1604 7.62901 21.9576 7.38586 21.6824 7.36121L10.9666 6.39931C10.6907 6.37586 10.4486 6.57776 10.4239 6.85266C10.3993 7.12756 10.6021 7.37071 10.8773 7.39536Z" fill="black"/>
<path d="M10.6233 10.2407L21.3406 11.2023C21.3558 11.2035 21.3709 11.2043 21.3858 11.2043C21.6419 11.2043 21.8599 11.0087 21.8833 10.749C21.908 10.4738 21.7051 10.2309 21.43 10.2063L10.7127 9.24465C10.4353 9.2239 10.1949 9.4231 10.17 9.698C10.1453 9.9731 10.3482 10.216 10.6233 10.2407Z" fill="black"/>
</svg>
