<svg width="52" height="52" viewBox="0 0 52 52" fill="none" xmlns="http://www.w3.org/2000/svg">
<path fill-rule="evenodd" clip-rule="evenodd" d="M25.0131 43.808C23.3333 43.808 21.9669 42.4385 21.9668 40.7625C21.9668 39.0806 23.333 37.711 25.0128 37.711C26.6924 37.711 28.0591 39.0804 28.0591 40.7624C28.0591 42.4383 26.6926 43.8079 25.0131 43.808ZM25.0128 36.2873C22.547 36.2874 20.5408 38.2937 20.5408 40.7625C20.541 43.2254 22.5471 45.2316 25.0131 45.2315C27.479 45.2314 29.4851 43.225 29.4851 40.7622C29.485 38.2935 27.4787 36.2872 25.0128 36.2873ZM20.9497 6.06064C20.9497 5.86845 21.1144 5.70028 21.3094 5.70018L28.5339 5.69997L24.6663 10.1451L23.4457 8.65555C23.1962 8.3552 22.7471 8.30715 22.4423 8.55945C22.1377 8.80573 22.0934 9.25625 22.3428 9.56264L24.0982 11.7011C24.3777 12.0417 24.8935 12.0574 25.1874 11.7191L29.0742 7.25581L29.0743 13.4669C29.0743 13.6651 28.9095 13.8274 28.7145 13.8274L21.3093 13.8276C21.1143 13.8276 20.9496 13.6654 20.9496 13.4672L20.9497 6.06064ZM21.3096 15.2512L28.7148 15.251C29.6994 15.251 30.5004 14.4521 30.5004 13.4669L30.5002 6.06033C30.5002 5.92815 30.4836 5.79607 30.4546 5.66992L32.2095 3.65159C32.4679 3.35727 32.4369 2.90674 32.1399 2.6484C31.8428 2.39017 31.3925 2.42012 31.134 2.71444L29.5797 4.5046C29.3232 4.36045 29.0285 4.27632 28.7146 4.27632L21.3094 4.27652C20.3248 4.27652 19.5238 5.08148 19.5238 6.06064L19.524 13.4672C19.5239 14.4523 20.325 15.2512 21.3096 15.2512ZM43.9656 19.6778C43.9656 19.87 43.8009 20.0382 43.606 20.0382L36.2009 20.0385C36.0059 20.0385 35.8413 19.8703 35.8413 19.6781L35.8411 12.2716C35.8411 12.0794 36.0056 11.9112 36.2006 11.9112L43.4253 11.911L39.5576 16.3561L38.3372 14.8664C38.0875 14.56 37.6385 14.518 37.3336 14.7643C37.0291 15.0166 36.9845 15.4671 37.2342 15.7675L38.9896 17.9119C39.1226 18.0741 39.3208 18.1702 39.5304 18.1702C39.5513 18.2032 39.8814 18.1571 40.0788 17.93L43.9656 13.4667V19.6778ZM47.0309 8.85929C46.7339 8.60095 46.2836 8.631 46.025 8.92532L44.4707 10.7094C44.2143 10.5713 43.9196 10.4872 43.6057 10.4872L36.2005 10.4874C35.216 10.4874 34.4152 11.2864 34.4152 12.2715L34.4154 19.678C34.4154 20.6631 35.2163 21.462 36.2009 21.462L43.606 21.4618C44.5905 21.4618 45.3917 20.6629 45.3917 19.6777L45.3914 12.2712C45.3914 12.139 45.3747 12.0069 45.3461 11.8808L47.1007 9.86236C47.359 9.56804 47.328 9.11752 47.0309 8.85929ZM6.21838 12.2721C6.21838 12.08 6.38312 11.9117 6.57812 11.9117L13.8026 11.9115L9.93482 16.3566L8.71438 14.8669C8.46489 14.5606 8.01561 14.5185 7.71099 14.7648C7.40648 15.0171 7.36186 15.4677 7.61157 15.768L9.36698 17.9124C9.5001 18.0746 9.69791 18.1707 9.90789 18.1707C9.92619 18.2023 10.2564 18.1604 10.4563 17.9305L14.3429 13.4672L14.343 19.6783C14.343 19.8705 14.1784 20.0388 13.9834 20.0388L6.57833 20.039C6.38333 20.039 6.21859 19.8708 6.21859 19.6786L6.21838 12.2721ZM6.57833 21.4627L13.9834 21.4625C14.968 21.4625 15.7688 20.6636 15.7688 19.6784L15.7686 12.2719C15.7686 12.1398 15.7522 12.0077 15.7233 11.8815L17.4778 9.86309C17.7364 9.56877 17.7052 9.11824 17.4084 8.86001C17.1112 8.60168 16.661 8.63173 16.4025 8.92605L14.848 10.7102C14.5915 10.5721 14.2968 10.4879 13.983 10.4879L6.57791 10.4881C5.59334 10.4881 4.79223 11.2872 4.79234 12.2723L4.79254 19.6787C4.79265 20.6638 5.59376 21.4627 6.57833 21.4627ZM43.7587 33.1272L36.9576 33.1274L38.1045 31.5175L43.7191 31.8297C44.111 31.8477 44.4064 32.13 44.4064 32.4784C44.4064 32.8328 44.1159 33.1272 43.7587 33.1272ZM31.3408 31.77L34.4626 33.0674C34.8306 33.2175 35.2305 33.1033 35.4578 32.773L40.6034 25.5526C40.7308 25.3664 40.7805 25.1322 40.7385 24.9039C40.6065 24.176 39.6547 23.8862 39.1558 24.5615C39.1368 24.5855 39.1162 24.6096 39.0938 24.6336L34.2713 29.8597C34.0231 30.13 33.6118 30.1661 33.3194 29.9499L28.7919 26.5501C27.9538 26.0455 26.6357 25.7693 25.2964 25.7993H24.7276C23.3885 25.7693 22.0712 26.0457 21.2333 26.5503L16.7058 29.9503C16.4133 30.1665 16.0022 30.1305 15.7538 29.8602L10.9312 24.6343C10.9087 24.6103 10.8881 24.5863 10.8691 24.5622C10.7368 24.3701 10.5358 24.2379 10.304 24.1959C9.54181 24.0577 8.9801 24.925 9.42678 25.5594L14.5624 32.7675C14.7983 33.1001 15.1993 33.2158 15.5629 33.0679L18.6843 31.7703C19.1489 31.5786 19.6701 31.9298 19.6701 32.431L19.6702 34.8578L20.8127 35.1041C21.2482 34.7797 21.7173 34.5094 22.2133 34.2931L22.7602 32.6111C22.8799 32.2387 23.2206 31.9924 23.6079 31.9924L26.4174 31.9923C26.8052 31.9923 27.146 32.2386 27.2654 32.611L27.8121 34.2929C28.3082 34.5091 28.7772 34.7794 29.2128 35.1038L30.3552 34.8575L30.3551 32.4307C30.3551 31.9291 30.8743 31.5787 31.3408 31.77ZM30.5578 39.8372C30.5226 39.621 30.5865 39.4047 30.7315 39.2426L31.8784 37.9691L30.8621 36.2091L29.1839 36.5696C28.9715 36.6116 28.7503 36.5576 28.5825 36.4194C28.1023 36.0229 27.5651 35.7106 26.9862 35.4943C26.7831 35.4222 26.6256 35.2541 26.5587 35.0498L26.0291 33.4219H23.9965L23.4669 35.0498C23.3997 35.2541 23.2424 35.4222 23.0393 35.4943C22.4606 35.7105 21.9234 36.0229 21.4431 36.4194C21.2755 36.5575 21.0541 36.6116 20.8416 36.5696L19.1635 36.2092L18.1473 37.9692L19.2943 39.2427C19.4393 39.4049 19.5031 39.6211 19.4679 39.8373C19.3677 40.4508 19.3666 41.0676 19.4679 41.6815C19.5031 41.8977 19.4393 42.114 19.2943 42.2761L18.1473 43.5498L19.1636 45.3098L20.8417 44.9554C21.0541 44.9073 21.2756 44.9614 21.4432 45.0995C21.9234 45.496 22.4606 45.8083 23.0394 46.0245C23.2425 46.1026 23.3999 46.2648 23.467 46.469L23.9967 48.1029H26.0293L26.5586 46.469C26.6257 46.2648 26.7832 46.1026 26.9864 46.0245C27.5659 45.8082 28.103 45.4959 28.5831 45.0994C28.7508 44.9612 28.9721 44.9071 29.1845 44.9553L30.8622 45.3096L31.8784 43.5495L30.7313 42.276C30.5863 42.1138 30.5222 41.8976 30.5577 41.6814C30.6591 41.0685 30.6582 40.4497 30.5578 39.8372ZM6.1487 32.4793C6.1487 32.1309 6.44406 31.8486 6.83594 31.8306L11.9411 31.5422L13.0677 33.128L6.79642 33.1281C6.43918 33.1281 6.1487 32.8338 6.1487 32.4793ZM25.0121 18.615C26.6035 18.615 27.898 19.9064 27.8981 21.4982C27.8981 23.1982 26.433 24.5034 24.8112 24.3756C23.3137 24.2735 22.1263 23.0241 22.1263 21.4983C22.1263 19.9065 23.421 18.615 25.0121 18.615ZM43.7983 30.4061L39.0831 30.1419L41.77 26.3696C42.4978 25.3395 42.2239 23.8827 41.1895 23.1679C40.6853 22.8195 40.0738 22.6874 39.4668 22.7955C38.878 22.9037 38.3646 23.222 38.0152 23.7026L33.6601 28.4181L29.6192 25.3848C29.2322 25.1113 28.4813 24.8222 27.9256 24.676C28.7846 23.8892 29.324 22.7538 29.324 21.4983C29.3239 19.1196 27.3897 17.1915 25.012 17.1915C22.6346 17.1916 20.7003 19.1198 20.7003 21.4985C20.7003 22.754 21.24 23.8893 22.0991 24.6761C21.5441 24.8221 20.7914 25.1118 20.4054 25.385L16.3646 28.4186L12.0093 23.7032C11.6599 23.2227 11.1465 22.9043 10.5578 22.7962C9.95094 22.6882 9.33932 22.8202 8.83523 23.1686C7.79128 23.8895 7.53118 25.3312 8.26022 26.3823L10.962 30.1726L6.75648 30.407C5.61612 30.4672 4.72255 31.3802 4.72266 32.4795C4.72266 33.6207 5.65304 34.5519 6.79631 34.5518L15.0952 34.5516C15.4314 34.5756 15.7771 34.5215 16.1084 34.3833L18.2443 33.5002V34.9959C18.1982 35.044 18.1573 35.0981 18.1225 35.1581L16.7178 37.5909C16.5245 37.9273 16.5684 38.3479 16.8274 38.6362L18.0124 39.9516C17.9516 40.4868 17.9501 41.032 18.0124 41.5675L16.8272 42.883C16.5685 43.1713 16.5246 43.5919 16.7179 43.9282L18.1231 46.361C18.3169 46.6974 18.7017 46.8656 19.0802 46.7875L20.8128 46.415C21.2483 46.7394 21.7174 47.0157 22.2134 47.2259L22.7604 48.9138C22.8801 49.2802 23.2208 49.5265 23.6082 49.5265L26.4177 49.5264C26.8055 49.5264 27.1462 49.2801 27.2654 48.9136L27.812 47.2257C28.3087 47.0154 28.7781 46.7391 29.2136 46.4208L30.945 46.7872C31.3237 46.8653 31.7088 46.697 31.9027 46.3606L33.308 43.9278C33.5009 43.5914 33.4569 43.1709 33.198 42.8826L32.0127 41.5671C32.0754 41.0324 32.0737 40.4856 32.0129 39.9512L33.1981 38.6357C33.4569 38.3474 33.5008 37.9269 33.3074 37.5905L31.9024 35.1578C31.8677 35.0977 31.8266 35.0437 31.781 34.9956V33.4999L33.9167 34.3829C34.2926 34.5391 34.6866 34.5871 35.0643 34.539C35.103 34.545 35.1426 34.551 35.1826 34.551L43.7585 34.5508C44.9019 34.5508 45.8321 33.6197 45.8321 32.4784C45.8323 31.3791 44.9389 30.4661 43.7983 30.4061Z" fill="black"/>
</svg>
