<svg width="33" height="32" viewBox="0 0 33 32" fill="none" xmlns="http://www.w3.org/2000/svg">
<path d="M22.7566 4.51012H18.5766C18.4366 3.44012 17.5316 2.60512 16.4266 2.60512H16.3416C16.1216 2.60512 15.9716 2.43512 15.9016 2.27512C15.5566 1.50012 14.7866 0.995117 13.9416 0.995117C13.0966 0.995117 12.3266 1.49512 11.9816 2.27012C11.9116 2.43012 11.7566 2.60012 11.5416 2.60012H11.3966C10.2916 2.60012 9.38156 3.43512 9.24656 4.50512H5.05656C3.77156 4.50512 2.72656 5.55012 2.72656 6.83512V28.6701C2.72656 29.9551 3.77156 31.0001 5.05656 31.0001H22.7566C24.0416 31.0001 25.0866 29.9551 25.0866 28.6701V23.4101L26.4966 24.8351C26.8016 25.1451 27.2866 25.2401 27.7116 25.0701C28.0966 24.9151 28.3366 24.5751 28.3366 24.1851V19.8201C28.5716 19.5751 28.7516 19.2801 28.8616 18.9451C28.9466 18.6851 29.1066 18.4651 29.3266 18.3001C30.1316 17.7151 30.4666 16.6901 30.1566 15.7451C30.0716 15.4851 30.0716 15.2101 30.1566 14.9501C30.4616 14.0051 30.1316 12.9801 29.3266 12.3951C29.1066 12.2351 28.9416 12.0101 28.8616 11.7501C28.5566 10.8051 27.6816 10.1701 26.6916 10.1701C26.4216 10.1701 26.1566 10.0851 25.9366 9.92512C25.6766 9.73512 25.3916 9.61512 25.0916 9.55012V6.83512C25.0916 5.55012 24.0466 4.50512 22.7616 4.50512L22.7566 4.51012ZM10.2116 4.78512C10.2116 4.13512 10.7416 3.60512 11.3916 3.60512H11.5366C12.1216 3.60512 12.6366 3.25012 12.8916 2.68512C13.0766 2.27012 13.4866 2.00012 13.9366 2.00012C14.3866 2.00012 14.7966 2.27012 14.9816 2.68512C15.2366 3.25512 15.7516 3.60512 16.3366 3.60512H16.4216C17.0716 3.60512 17.6016 4.13512 17.6016 4.78512V5.00012V5.29012C17.6016 5.94012 17.0716 6.47012 16.4216 6.47012H11.3916C10.7416 6.47012 10.2116 5.94012 10.2116 5.29012V4.78512ZM24.0866 28.6701C24.0866 29.4051 23.4916 30.0001 22.7566 30.0001H5.05656C4.32156 30.0001 3.72656 29.4051 3.72656 28.6701V6.84012C3.72656 6.10512 4.32156 5.51012 5.05656 5.51012H9.23156C9.34156 6.61012 10.2616 7.47512 11.3916 7.47512H16.4216C17.5516 7.47512 18.4716 6.61012 18.5816 5.51012H22.7566C23.4916 5.51012 24.0866 6.10512 24.0866 6.84012V9.55512C23.7916 9.62012 23.5016 9.74512 23.2416 9.93012C23.0216 10.0901 22.7616 10.1751 22.4866 10.1751C21.4916 10.1751 20.6216 10.8101 20.3166 11.7551C20.2316 12.0101 20.0666 12.2401 19.8516 12.4001C19.0466 12.9851 18.7116 14.0101 19.0216 14.9551C19.1066 15.2151 19.1066 15.4901 19.0216 15.7501C18.7166 16.6951 19.0466 17.7201 19.8516 18.3051C20.0716 18.4651 20.2366 18.6901 20.3166 18.9501C20.3916 19.1801 20.5016 19.3901 20.6366 19.5801C20.6316 19.6101 20.6166 19.6351 20.6166 19.6701V24.2751C20.6166 24.6551 20.8466 24.9901 21.2166 25.1501C21.3666 25.2151 21.5216 25.2451 21.6766 25.2451C21.9516 25.2451 22.2216 25.1451 22.4266 24.9551L24.0866 23.3951V28.6801V28.6701ZM27.3316 24.1451C27.2966 24.1601 27.2366 24.1651 27.2066 24.1351L25.6366 22.5451C25.0866 22.0001 24.1116 21.9851 23.5516 22.5101L21.7366 24.2101C21.7066 24.2401 21.6466 24.2351 21.6116 24.2201V20.3401C21.8816 20.4501 22.1716 20.5201 22.4816 20.5201C22.7516 20.5201 23.0166 20.6051 23.2366 20.7651C23.6366 21.0551 24.1116 21.2051 24.5816 21.2051C25.0516 21.2051 25.5216 21.0601 25.9216 20.7651C26.1416 20.6051 26.4016 20.5201 26.6766 20.5201C26.9016 20.5201 27.1166 20.4851 27.3216 20.4251V24.1451H27.3316ZM25.3416 10.7401C25.7366 11.0251 26.1966 11.1751 26.6816 11.1751C27.2416 11.1751 27.7316 11.5301 27.9016 12.0601C28.0516 12.5251 28.3366 12.9201 28.7316 13.2051C29.1816 13.5351 29.3716 14.1101 29.1966 14.6401C29.0466 15.1051 29.0466 15.5901 29.1966 16.0551C29.3716 16.5851 29.1816 17.1601 28.7316 17.4901C28.3366 17.7751 28.0516 18.1701 27.9016 18.6351C27.7316 19.1651 27.2416 19.5201 26.6816 19.5201C26.1966 19.5201 25.7316 19.6701 25.3416 19.9551C24.8916 20.2851 24.2816 20.2851 23.8316 19.9551C23.4366 19.6701 22.9766 19.5201 22.4916 19.5201C21.9316 19.5201 21.4416 19.1651 21.2716 18.6351C21.1216 18.1751 20.8366 17.7751 20.4416 17.4901C19.9916 17.1601 19.8016 16.5851 19.9766 16.0551C20.1266 15.5901 20.1266 15.1051 19.9766 14.6401C19.8016 14.1101 19.9916 13.5351 20.4416 13.2051C20.8366 12.9201 21.1216 12.5251 21.2716 12.0601C21.4416 11.5301 21.9316 11.1751 22.4916 11.1751C22.9766 11.1751 23.4416 11.0251 23.8316 10.7401C24.0566 10.5801 24.3166 10.4951 24.5766 10.4951H24.5916C24.8516 10.4951 25.1166 10.5801 25.3366 10.7401H25.3416ZM24.5816 12.0801C24.0766 12.0801 23.6266 12.3601 23.4066 12.8151L23.2266 13.1851C23.1816 13.2751 23.0916 13.3401 22.9916 13.3551L22.5816 13.4151C22.0816 13.4901 21.6766 13.8301 21.5216 14.3101C21.3666 14.7901 21.4966 15.3051 21.8566 15.6551L22.1516 15.9451C22.2266 16.0151 22.2566 16.1201 22.2416 16.2201L22.1716 16.6251C22.0866 17.1201 22.2866 17.6101 22.6966 17.9051C22.9266 18.0701 23.1966 18.1551 23.4666 18.1551C23.6766 18.1551 23.8866 18.1051 24.0816 18.0001L24.4466 17.8101C24.5366 17.7651 24.6466 17.7601 24.7366 17.8101L25.1016 18.0001C25.5466 18.2351 26.0766 18.1951 26.4816 17.8951C26.8866 17.6001 27.0866 17.1051 27.0016 16.6101L26.9316 16.2051C26.9116 16.1051 26.9466 16.0001 27.0216 15.9301L27.3166 15.6401C27.6766 15.2901 27.8016 14.7751 27.6466 14.2951C27.4916 13.8151 27.0816 13.4751 26.5866 13.4051L26.1766 13.3451C26.0766 13.3301 25.9866 13.2651 25.9416 13.1751L25.7566 12.8051C25.5316 12.3551 25.0816 12.0751 24.5816 12.0751V12.0801ZM24.8666 13.2551L25.0516 13.6251C25.2416 14.0101 25.6116 14.2801 26.0416 14.3401L26.4516 14.4001C26.6266 14.4251 26.6866 14.5551 26.7016 14.6101C26.7216 14.6651 26.7466 14.8051 26.6216 14.9301L26.3266 15.2201C26.0166 15.5251 25.8766 15.9551 25.9516 16.3801L26.0216 16.7851C26.0516 16.9551 25.9466 17.0551 25.8966 17.0901C25.8516 17.1251 25.7266 17.1951 25.5666 17.1151L25.2016 16.9251C24.8166 16.7251 24.3616 16.7251 23.9816 16.9251L23.6166 17.1151C23.4616 17.1951 23.3366 17.1251 23.2866 17.0901C23.2416 17.0551 23.1316 16.9601 23.1616 16.7851L23.2316 16.3801C23.3016 15.9551 23.1616 15.5201 22.8516 15.2201L22.5566 14.9301C22.4316 14.8101 22.4566 14.6651 22.4766 14.6101C22.4966 14.5551 22.5566 14.4201 22.7266 14.3951L23.1366 14.3351C23.5616 14.2701 23.9316 14.0001 24.1216 13.6151L24.3016 13.2451C24.3816 13.0851 24.5166 13.0801 24.5816 13.0701C24.6416 13.0701 24.7816 13.0851 24.8616 13.2451L24.8666 13.2551ZM10.1366 19.3801C10.2716 19.4151 10.4116 19.4301 10.5516 19.4301C10.6916 19.4301 10.8316 19.4151 10.9666 19.3801C15.2016 18.3001 15.6266 14.3951 15.6116 12.7651C15.6066 12.1501 15.2516 11.5801 14.6916 11.2801C13.8266 10.8201 13.1966 10.1301 12.8216 9.63512C12.4966 9.20512 11.9766 8.94512 11.4366 8.94512H9.65656C9.11656 8.94512 8.59656 9.20512 8.27156 9.63512C7.89656 10.1301 7.27156 10.8151 6.40656 11.2801C5.84656 11.5801 5.49156 12.1501 5.48656 12.7651C5.47156 14.3951 5.89656 18.3001 10.1316 19.3801H10.1366ZM6.88156 12.1651C7.90656 11.6201 8.64156 10.8151 9.07656 10.2401C9.21656 10.0551 9.43156 9.95012 9.66156 9.95012H11.4416C11.6716 9.95012 11.8866 10.0551 12.0266 10.2401C12.4616 10.8151 13.1966 11.6151 14.2216 12.1651C14.4616 12.2951 14.6116 12.5201 14.6116 12.7751C14.6266 14.5051 14.1416 17.5401 10.7166 18.4101C10.6066 18.4351 10.4866 18.4401 10.3816 18.4101C6.95656 17.5351 6.47156 14.5051 6.48656 12.7751C6.48656 12.5201 6.63656 12.2951 6.87656 12.1651H6.88156ZM9.69156 16.1201L7.91156 14.4801C7.70656 14.2951 7.69656 13.9751 7.88156 13.7751C8.07156 13.5701 8.38656 13.5601 8.58656 13.7451L9.98156 15.0351L12.0316 12.6151C12.2116 12.4051 12.5266 12.3801 12.7366 12.5551C12.9466 12.7351 12.9716 13.0501 12.7966 13.2601L10.4116 16.0801C10.3216 16.1851 10.1966 16.2501 10.0616 16.2551C10.0516 16.2551 10.0416 16.2551 10.0316 16.2551C9.90656 16.2551 9.78656 16.2101 9.69156 16.1251V16.1201ZM17.1966 22.6701C17.1966 22.9451 16.9716 23.1701 16.6966 23.1701H6.48656C6.21156 23.1701 5.98656 22.9451 5.98656 22.6701C5.98656 22.3951 6.21156 22.1701 6.48656 22.1701H16.6916C16.9666 22.1701 17.1916 22.3951 17.1916 22.6701H17.1966ZM17.1966 26.4451C17.1966 26.7201 16.9716 26.9451 16.6966 26.9451H6.48656C6.21156 26.9451 5.98656 26.7201 5.98656 26.4451C5.98656 26.1701 6.21156 25.9451 6.48656 25.9451H16.6916C16.9666 25.9451 17.1916 26.1701 17.1916 26.4451H17.1966Z" fill="black"/>
</svg>
