<svg width="200" height="200" viewBox="0 0 200 200" fill="none" xmlns="http://www.w3.org/2000/svg">
<path d="M36.3272 42.3838L42.1475 54.4151L55.3507 56.2119C57.9679 56.5635 58.9054 59.8057 57.1085 61.5244L47.46 70.7823L49.8429 83.9073C50.3116 86.4854 47.5772 88.4385 45.3116 87.1885L33.5538 80.8604L21.796 87.1885C19.5304 88.3994 16.6788 86.5244 17.3038 83.7119L19.6475 70.7432L9.99911 61.4854C8.12411 59.6885 9.13973 56.4854 11.796 56.1338L24.96 54.3369L30.7804 42.3057C31.8741 40.001 35.2335 40.0401 36.3272 42.3838ZM37.2647 58.6338L33.5538 50.8994L29.8038 58.6338C29.3741 59.5323 28.4757 60.2354 27.421 60.3916L18.9444 61.5244L25.1554 67.4619C25.8585 68.1651 26.2491 69.1807 26.0538 70.2354L24.5304 78.6729L32.0304 74.6494C32.9288 74.1807 34.0616 74.1026 34.9991 74.6494L42.5382 78.7119L41.0538 70.4307C40.8194 69.4151 41.0929 68.2823 41.9132 67.4619L48.1241 61.5244L39.7257 60.3916C38.71 60.2744 37.7335 59.6104 37.2647 58.6338ZM102.812 14.0635L108.632 26.0948L121.874 27.8916C124.491 28.2432 125.429 31.4854 123.632 33.2432L113.983 42.501L116.366 55.626C116.835 58.2041 114.101 60.1573 111.835 58.9073L99.9991 52.5791L88.2413 58.9073C85.9757 60.1182 83.1241 58.2432 83.7491 55.4307L86.0929 42.4619L76.4054 33.2041C74.5304 31.4073 75.546 28.2041 78.2022 27.8526L91.3663 26.0557L97.1866 14.0635C98.3585 11.6807 101.679 11.7198 102.812 14.0635ZM103.749 30.3135L99.9991 22.5791L96.2882 30.3135C95.8585 31.2119 94.96 31.9151 93.9054 32.0713L85.3897 33.2041L91.6007 39.1416C92.3429 39.8448 92.6944 40.8604 92.4991 41.9151L90.9757 50.3526L98.5147 46.3291C99.4132 45.8604 100.507 45.7823 101.483 46.3291L109.023 50.3916L107.538 42.1104C107.304 41.0948 107.577 39.9619 108.398 39.1416L114.608 33.2041L106.21 32.0323C105.155 31.9541 104.218 31.2901 103.749 30.3135ZM169.257 42.3838L175.077 54.4151L188.28 56.2119C190.898 56.5635 191.874 59.8057 190.038 61.5244L180.39 70.7823L182.773 83.9073C183.241 86.4854 180.507 88.4385 178.241 87.1885L166.483 80.8604L154.726 87.1885C152.46 88.3994 149.608 86.5244 150.194 83.7119L152.538 70.7432L142.89 61.4854C141.015 59.6885 142.03 56.4854 144.687 56.1338L157.851 54.3369L163.671 42.3057C164.804 40.001 168.163 40.0401 169.257 42.3838ZM170.194 58.6338L166.483 50.8994L162.733 58.6338C162.304 59.5323 161.444 60.2354 160.351 60.3916L151.874 61.5244L158.046 67.4619C158.749 68.1651 159.14 69.1807 158.944 70.2354L157.421 78.6729L164.96 74.6494C165.858 74.1807 166.991 74.1026 167.929 74.6494L175.507 78.7119L174.023 70.4307C173.788 69.4151 174.062 68.2823 174.882 67.4619L181.054 61.5244L172.655 60.3916C171.64 60.2744 170.663 59.6104 170.194 58.6338ZM85.5069 122.149C84.6475 120.665 85.1554 118.751 86.6397 117.892C88.1241 117.032 90.0382 117.54 90.8975 119.024L94.9991 126.134L109.569 111.564C110.78 110.353 112.773 110.353 113.983 111.564C115.194 112.774 115.194 114.767 113.983 115.978L96.5225 133.439C95.0772 134.884 92.6554 134.571 91.6397 132.814L85.5069 122.149ZM99.9991 89.1416C116.991 89.1416 130.78 102.931 130.78 119.923C130.78 136.915 116.991 150.704 99.9991 150.704C83.0069 150.704 69.2179 136.915 69.2179 119.923C69.2179 102.931 83.0069 89.1416 99.9991 89.1416ZM117.343 102.579C107.773 93.0088 92.2257 93.0088 82.6554 102.579C73.085 112.149 73.085 127.696 82.6554 137.267C92.2257 146.837 107.773 146.837 117.343 137.267C126.913 127.657 126.913 112.149 117.343 102.579ZM99.9991 69.8057C127.655 69.8057 150.077 92.2276 150.077 119.884C150.077 130.353 146.874 140.079 141.366 148.126L156.327 174.024C157.773 176.446 155.78 179.181 153.202 178.79L137.89 176.368L129.687 186.446C128.241 188.321 125.546 188.009 124.491 186.134L114.023 168.009C104.882 170.665 95.0772 170.665 85.9757 168.009L75.5069 186.134C74.4522 188.009 71.7569 188.321 70.3116 186.446L62.1085 176.368L46.796 178.79C44.1788 179.22 42.3429 176.368 43.5929 174.142L58.6319 148.126C45.0382 128.243 47.5772 101.485 64.6085 84.4541C73.6319 75.4307 86.171 69.8057 99.9991 69.8057ZM137.226 153.399C132.46 158.712 126.601 162.97 119.96 165.86L127.616 179.103L134.179 171.056C134.921 170.118 136.054 169.767 137.148 169.962L147.694 171.642L137.226 153.399ZM79.9991 165.86C73.3975 162.97 67.5382 158.712 62.7725 153.438L52.2647 171.642L62.8116 169.962C63.8663 169.767 65.0382 170.157 65.7804 171.056L72.3429 179.103L79.9991 165.86ZM131.015 88.9073C113.905 71.7979 86.1319 71.7979 69.0225 88.9073C51.9132 106.017 51.9132 133.79 69.0225 150.899C86.171 168.009 113.905 168.009 131.015 150.899C148.124 133.79 148.124 106.017 131.015 88.9073Z" fill="black"/>
</svg>
