<svg width="52" height="52" viewBox="0 0 52 52" fill="none" xmlns="http://www.w3.org/2000/svg">
<g clip-path="url(#clip0_1040_13950)">
<path d="M30.3333 45.9333C29.8547 45.9333 29.4667 46.3214 29.4667 46.8C29.4667 48.7146 27.9146 50.2667 26 50.2667H5.2C3.28541 50.2667 1.73333 48.7146 1.73333 46.8V5.2C1.73333 3.28541 3.28541 1.73333 5.2 1.73333H5.53107L7.4126 5.4964C7.85056 6.37933 8.75229 6.93657 9.73787 6.93333H21.4621C22.4477 6.93657 23.3494 6.37933 23.7874 5.4964L25.6689 1.73333H26C27.9146 1.73333 29.4667 3.28541 29.4667 5.2V6.93333C29.4667 7.41198 29.8547 7.8 30.3333 7.8C30.812 7.8 31.2 7.41198 31.2 6.93333V5.2C31.1971 2.32931 28.8707 0.0028664 26 0H5.2C2.32931 0.0028664 0.0028664 2.32931 0 5.2V46.8C0.0028664 49.6707 2.32931 51.9971 5.2 52H26C28.8707 51.9971 31.1971 49.6707 31.2 46.8C31.2 46.3214 30.812 45.9333 30.3333 45.9333ZM22.2369 4.72073C22.0912 5.01516 21.7907 5.20105 21.4621 5.2H9.73787C9.40934 5.20105 9.10882 5.01516 8.96307 4.72073L7.46893 1.73333H23.7311L22.2369 4.72073Z" fill="black"/>
<path d="M22.5341 48.5331C23.0128 48.5331 23.4008 48.1451 23.4008 47.6665C23.4008 47.1878 23.0128 46.7998 22.5341 46.7998H8.66745C8.1888 46.7998 7.80078 47.1878 7.80078 47.6665C7.80078 48.1451 8.1888 48.5331 8.66745 48.5331H22.5341Z" fill="black"/>
<path d="M46.7996 9.5332H22.5329C19.6622 9.53607 17.3358 11.8625 17.3329 14.7332V20.2799L7.84376 25.3403C7.28092 25.6422 6.92969 26.2291 6.92969 26.8678C6.92969 27.5065 7.28092 28.0935 7.84376 28.3953L17.3329 33.4532V38.9999C17.3358 41.8706 19.6622 44.197 22.5329 44.1999H46.7996C49.6703 44.197 51.9967 41.8706 51.9996 38.9999V14.7332C51.9967 11.8625 49.6703 9.53607 46.7996 9.5332ZM50.2662 38.9999C50.2662 40.9145 48.7141 42.4665 46.7996 42.4665H22.5329C20.6183 42.4665 19.0662 40.9145 19.0662 38.9999V32.9332C19.0665 32.613 18.8902 32.3187 18.6078 32.1679L8.66623 26.8665L18.6104 21.5634C18.8913 21.4122 19.0664 21.1189 19.0662 20.7999V14.7332C19.0662 12.8186 20.6183 11.2665 22.5329 11.2665H46.7996C48.7141 11.2665 50.2662 12.8186 50.2662 14.7332V38.9999Z" fill="black"/>
<path d="M45.8521 32.4134L43.7114 26.0616C43.4594 25.1969 43.3316 24.3007 43.3318 23.4001C43.3318 18.6136 39.4516 14.7334 34.6651 14.7334C29.8787 14.7334 25.9985 18.6136 25.9985 23.4001C25.9994 24.289 25.8751 25.1736 25.6293 26.0278L23.4678 32.4481C23.315 32.9718 23.4178 33.5369 23.7451 33.9734C24.0725 34.4099 24.5862 34.6667 25.1318 34.6667H30.3318C30.3318 37.06 32.2719 39.0001 34.6651 39.0001C37.0584 39.0001 38.9985 37.06 38.9985 34.6667H44.1985C44.744 34.6667 45.2578 34.4099 45.5851 33.9734C45.9125 33.5369 46.0152 32.9718 45.8625 32.4481L45.8521 32.4134ZM34.6651 37.2667C33.2292 37.2667 32.0651 36.1027 32.0651 34.6667H37.2651C37.2651 36.1027 36.1011 37.2667 34.6651 37.2667ZM38.1422 32.9438C38.1165 32.9425 38.0907 32.9425 38.0651 32.9438L31.4221 32.9551C31.3314 32.9403 31.2389 32.9403 31.1482 32.9551L25.1214 32.9655L27.282 26.5461C27.5804 25.524 27.7319 24.4648 27.7318 23.4001C27.7318 19.5709 30.8359 16.4667 34.6651 16.4667C38.4943 16.4667 41.5985 19.5709 41.5985 23.4001C41.599 24.4771 41.754 25.5485 42.0587 26.5816L44.1985 32.9334L38.1422 32.9438Z" fill="black"/>
</g>
<defs>
<clipPath id="clip0_1040_13950">
<rect width="52" height="52" fill="white"/>
</clipPath>
</defs>
</svg>
