<svg width="33" height="32" viewBox="0 0 33 32" fill="none" xmlns="http://www.w3.org/2000/svg">
<g clip-path="url(#clip0_1036_13129)">
<path d="M32.0739 13.2556L28.3704 12.7021C28.103 11.7376 27.7184 10.8096 27.225 9.93875L29.4527 6.92825C29.524 6.83196 29.5583 6.71328 29.5495 6.59381C29.5406 6.47434 29.4891 6.36203 29.4044 6.27731L26.2227 3.09531C26.138 3.01062 26.0257 2.95915 25.9062 2.95028C25.7867 2.94142 25.668 2.97574 25.5718 3.047L22.5613 5.275C21.6904 4.78171 20.7624 4.39709 19.7979 4.12975L19.2444 0.426062C19.2267 0.307594 19.1671 0.199422 19.0763 0.121228C18.9856 0.0430342 18.8698 1.56991e-05 18.75 0L14.25 0C14.1302 7.25822e-07 14.0144 0.0430125 13.9236 0.121208C13.8329 0.199403 13.7732 0.307584 13.7555 0.426062L13.2021 4.1295C12.2376 4.39696 11.3096 4.78166 10.4388 5.275L7.42825 3.047C7.33196 2.97574 7.21328 2.94142 7.09381 2.95028C6.97434 2.95915 6.86203 3.01062 6.77731 3.09531L3.59531 6.27731C3.51062 6.36203 3.45915 6.47434 3.45028 6.59381C3.44142 6.71328 3.47574 6.83196 3.547 6.92825L5.775 9.93875C5.28172 10.8096 4.89712 11.7376 4.62981 12.7021L0.926125 13.2556C0.807645 13.2733 0.699458 13.3329 0.621252 13.4237C0.543045 13.5144 0.500018 13.6302 0.5 13.75L0.5 18.25C0.500001 18.3698 0.543012 18.4856 0.621208 18.5764C0.699403 18.6671 0.807584 18.7268 0.926062 18.7445L4.6295 19.2979C4.89695 20.2624 5.28166 21.1904 5.775 22.0612L3.547 25.0718C3.47572 25.1681 3.44139 25.2867 3.45026 25.4062C3.45913 25.5257 3.5106 25.638 3.59531 25.7227L6.77731 28.9046C6.86203 28.9893 6.97434 29.0408 7.09381 29.0497C7.21328 29.0585 7.33196 29.0242 7.42825 28.9529L10.4388 26.725C11.3096 27.2183 12.2376 27.6029 13.2021 27.8702L13.7556 31.5736C13.7732 31.6922 13.8328 31.8004 13.9236 31.8787C14.0143 31.9569 14.1302 32 14.25 32H18.75C18.8698 32 18.9856 31.957 19.0764 31.8788C19.1671 31.8006 19.2268 31.6924 19.2445 31.5739L19.7979 27.8705C20.7624 27.603 21.6904 27.2183 22.5613 26.725L25.5718 28.9527C25.668 29.024 25.7867 29.0583 25.9062 29.0494C26.0257 29.0405 26.138 28.9891 26.2227 28.9044L29.4047 25.7225C29.4894 25.6378 29.5409 25.5255 29.5497 25.406C29.5586 25.2865 29.5243 25.1678 29.453 25.0715L27.225 22.0612C27.7183 21.1904 28.1029 20.2624 28.3702 19.2979L32.0736 18.7444C32.1922 18.7268 32.3004 18.6672 32.3787 18.5764C32.4569 18.4857 32.5 18.3698 32.5 18.25V13.75C32.5 13.6302 32.457 13.5144 32.3787 13.4237C32.3005 13.3329 32.1924 13.2733 32.0739 13.2556ZM31.5 17.8191L27.8967 18.3576C27.7988 18.3722 27.7075 18.4156 27.6342 18.4822C27.561 18.5488 27.5092 18.6357 27.4854 18.7318C27.2145 19.8249 26.7809 20.8711 26.1992 21.8354C26.148 21.9202 26.1232 22.0183 26.1279 22.1172C26.1325 22.2161 26.1665 22.3114 26.2254 22.3911L28.3929 25.3203L25.8204 27.8928L22.8912 25.7253C22.8116 25.6664 22.7163 25.6325 22.6174 25.6279C22.5184 25.6232 22.4204 25.648 22.3356 25.6991C21.3712 26.2808 20.325 26.7143 19.2318 26.9853C19.1357 27.0091 19.0489 27.0609 18.9823 27.1341C18.9156 27.2074 18.8723 27.2987 18.8576 27.3966L18.3191 31H14.6812L14.1427 27.3967C14.1281 27.2988 14.0847 27.2074 14.0181 27.1342C13.9515 27.0609 13.8647 27.0091 13.7686 26.9853C12.6754 26.7145 11.6292 26.2809 10.6649 25.6992C10.5801 25.648 10.482 25.6232 10.3831 25.6279C10.2841 25.6325 10.1888 25.6665 10.1092 25.7254L7.18 27.8929L4.60744 25.3204L6.775 22.3911C6.83391 22.3115 6.86785 22.2162 6.87252 22.1172C6.87719 22.0183 6.85239 21.9202 6.80125 21.8354C6.21954 20.8711 5.78596 19.8249 5.515 18.7318C5.49118 18.6357 5.43937 18.5488 5.36613 18.4822C5.2929 18.4156 5.20154 18.3722 5.10362 18.3576L1.5 17.8191V14.1812L5.10325 13.6427C5.20116 13.6281 5.29252 13.5847 5.36576 13.5181C5.43899 13.4515 5.4908 13.3647 5.51463 13.2686C5.78552 12.1754 6.21909 11.1292 6.80081 10.1649C6.85197 10.0801 6.8768 9.98198 6.87214 9.88305C6.86747 9.78412 6.83353 9.6888 6.77462 9.60919L4.60712 6.67969L7.17969 4.10712L10.1089 6.275C10.1885 6.33387 10.2838 6.36778 10.3827 6.37246C10.4816 6.37713 10.5797 6.35235 10.6645 6.30125C11.6288 5.71948 12.6751 5.28589 13.7683 5.015C13.8643 4.99118 13.9512 4.93937 14.0178 4.86613C14.0844 4.7929 14.1278 4.70154 14.1424 4.60362L14.6812 1H18.3194L18.8579 4.60331C18.8725 4.70122 18.9159 4.79258 18.9825 4.86582C19.0491 4.93905 19.136 4.99087 19.2321 5.01469C20.3252 5.28559 21.3715 5.71915 22.3358 6.30088C22.4206 6.35202 22.5187 6.37684 22.6176 6.37218C22.7165 6.36752 22.8118 6.33358 22.8914 6.27469L25.8206 4.10712L28.3932 6.67969L26.2256 9.60888C26.1667 9.68849 26.1328 9.78379 26.1281 9.88271C26.1235 9.98163 26.1483 10.0797 26.1994 10.1645C26.7811 11.1289 27.2147 12.1751 27.4856 13.2683C27.5094 13.3643 27.5613 13.4512 27.6345 13.5178C27.7077 13.5844 27.7991 13.6278 27.897 13.6424L31.5 14.1812V17.8194V17.8191ZM16.5 7.73956C11.9452 7.73956 8.23956 11.4451 8.23956 15.9999C8.23956 20.5547 11.9452 24.2604 16.5 24.2604C21.0548 24.2604 24.7604 20.5548 24.7604 16C24.7604 11.4452 21.0548 7.73956 16.5 7.73956ZM13.9584 22.8009V20.0562C13.9584 19.9236 13.9057 19.7965 13.8119 19.7027C13.7182 19.6089 13.591 19.5562 13.4584 19.5562C13.3258 19.5562 13.1986 19.6089 13.1048 19.7027C13.0111 19.7965 12.9584 19.9236 12.9584 20.0562V22.3361C12.4216 22.0348 11.925 21.6668 11.4805 21.2409V19C11.4812 18.4088 11.7163 17.842 12.1343 17.424C12.5524 17.006 13.1191 16.7708 13.7103 16.7702H19.2897C19.8809 16.7708 20.4477 17.006 20.8657 17.424C21.2837 17.842 21.5189 18.4088 21.5196 19V21.2406C21.075 21.6664 20.5785 22.0344 20.0416 22.3357V20.0562C20.0416 19.9236 19.9889 19.7965 19.8952 19.7027C19.8014 19.6089 19.6742 19.5562 19.5416 19.5562C19.409 19.5562 19.2818 19.6089 19.1881 19.7027C19.0943 19.7965 19.0416 19.9236 19.0416 20.0562V22.801C17.4026 23.4137 15.5974 23.4137 13.9584 22.801V22.8009ZM22.5196 20.0554V19C22.5186 18.1437 22.178 17.3227 21.5725 16.7173C20.9669 16.1118 20.146 15.7712 19.2897 15.7702H13.7103C12.854 15.7712 12.0331 16.1118 11.4276 16.7173C10.8221 17.3228 10.4815 18.1437 10.4805 19V20.0551C9.74391 18.9629 9.31838 17.6908 9.24952 16.3752C9.18066 15.0596 9.47106 13.75 10.0896 12.5868C10.7081 11.4236 11.6315 10.4507 12.7608 9.77218C13.89 9.09368 15.1826 8.73523 16.5 8.73523C17.8174 8.73523 19.11 9.09368 20.2393 9.77218C21.3686 10.4507 22.2919 11.4236 22.9105 12.5868C23.529 13.75 23.8194 15.0596 23.7505 16.3752C23.6817 17.6908 23.2562 18.9629 22.5196 20.0551V20.0554ZM16.5 9.3985C15.8859 9.3985 15.2856 9.5806 14.775 9.92178C14.2644 10.263 13.8664 10.7479 13.6314 11.3152C13.3964 11.8826 13.3349 12.5069 13.4547 13.1092C13.5745 13.7115 13.8702 14.2647 14.3045 14.699C14.7387 15.1332 15.292 15.4289 15.8943 15.5487C16.4966 15.6685 17.1209 15.607 17.6882 15.372C18.2556 15.137 18.7405 14.7391 19.0817 14.2284C19.4228 13.7178 19.6049 13.1175 19.6049 12.5034C19.604 11.6802 19.2766 10.891 18.6945 10.309C18.1124 9.72687 17.3232 9.39944 16.5 9.3985ZM16.5 14.6084C16.0837 14.6084 15.6767 14.4849 15.3306 14.2536C14.9844 14.0223 14.7146 13.6936 14.5553 13.309C14.396 12.9243 14.3543 12.5011 14.4355 12.0928C14.5167 11.6845 14.7172 11.3094 15.0116 11.015C15.306 10.7206 15.681 10.5202 16.0893 10.4389C16.4977 10.3577 16.9209 10.3994 17.3055 10.5587C17.6902 10.718 18.0189 10.9878 18.2502 11.334C18.4815 11.6802 18.6049 12.0871 18.6049 12.5034C18.6043 13.0615 18.3823 13.5965 17.9877 13.9911C17.5931 14.3858 17.0581 14.6077 16.5 14.6084Z" fill="black"/>
</g>
<defs>
<clipPath id="clip0_1036_13129">
<rect width="32" height="32" fill="white" transform="translate(0.5)"/>
</clipPath>
</defs>
</svg>
