<svg width="80" height="80" viewBox="0 0 80 80" fill="none" xmlns="http://www.w3.org/2000/svg">
<g clip-path="url(#clip0_87_1623)">
<path d="M40 16.6667C40.92 16.6667 41.6667 17.4133 41.6667 18.3333V39.5867C41.6667 40.18 41.35 40.73 40.84 41.0267L25.84 49.7733C25.5767 49.93 25.2867 50 25 50C24.4267 50 23.87 49.7033 23.56 49.1733C23.0933 48.38 23.3633 47.3567 24.16 46.8933L38.3333 38.63V18.3333C38.3333 17.4133 39.08 16.6667 40 16.6667ZM80 48.3333C80 45.5733 77.76 43.3333 75 43.3333H60C59.08 43.3333 58.3333 44.08 58.3333 45C58.3333 45.92 59.08 46.6667 60 46.6667H74.25L55.1633 65.7533C53.93 66.9867 51.9067 66.99 50.6733 65.7533L46.6867 61.77C44.1533 59.24 40.01 59.24 37.48 61.77L22.1267 77.1233C21.4767 77.7733 21.4767 78.83 22.1267 79.48C22.4533 79.8067 22.88 79.9667 23.3067 79.9667C23.7333 79.9667 24.16 79.8033 24.4867 79.48L39.84 64.1267C41.0733 62.8933 43.0967 62.89 44.33 64.1267L48.3167 68.11C50.86 70.65 54.98 70.65 57.52 68.11L76.6667 48.9667V63.3367C76.6667 64.2567 77.4133 65.0033 78.3333 65.0033C79.2533 65.0033 80 64.2567 80 63.3367V48.3367V48.3333ZM3.33333 40C3.33333 19.7833 19.7833 3.33333 40 3.33333C58.36 3.33333 73.99 17.04 76.3567 35.2133C76.4767 36.1233 77.32 36.7633 78.2267 36.6533C79.14 36.5333 79.7833 35.6967 79.6667 34.7833C77.08 14.9533 60.03 0 40 0C17.9433 0 0 17.9433 0 40C0 53.1867 6.5 65.5233 17.39 73C17.68 73.2 18.01 73.2933 18.3333 73.2933C18.8633 73.2933 19.3833 73.04 19.7067 72.57C20.2267 71.81 20.0367 70.7733 19.2767 70.2533C9.29333 63.3967 3.33333 52.09 3.33333 40Z" fill="black"/>
</g>
<defs>
<clipPath id="clip0_87_1623">
<rect width="80" height="80" fill="white"/>
</clipPath>
</defs>
</svg>
