<svg width="80" height="80" viewBox="0 0 80 80" fill="none" xmlns="http://www.w3.org/2000/svg">
<path d="M73.1233 12.9433C72.9133 11.98 71.7967 11.3967 70.8833 11.7833C63.1267 14.8867 51.8133 16.6633 39.8433 16.6633C32.8567 16.6633 28.3733 16.37 23.9167 15.59C24.2 12.26 24.5867 9.01334 25.0667 5.95667C25.2233 5.05 24.5333 4.13334 23.6133 4.04334C23.3867 4.01667 18.01 3.38 16.2167 3.38C12.2267 3.38 9.83332 4.35334 8.25665 6.57667C4.71332 11.15 3.32999 19.4267 3.32999 36.0933C3.32999 46.13 4.71999 59.95 7.75665 67.99C8.96665 71.5533 11.0967 73.15 15.6433 74.4967C22.23 75.9367 27.78 76.6633 39.84 76.6633C51.7133 76.6633 64.2267 74.6067 72.5067 71.2933C73.02 71.0867 73.4 70.6433 73.5167 70.1033C73.6467 69.5167 76.6633 55.5933 76.6633 41.7467C76.6633 27.9 73.2633 13.5467 73.1233 12.9433ZM8.51665 57.72C7.25999 50.7733 6.66665 42.6233 6.66665 36.0967C6.66665 20.4567 7.97665 12.56 10.9367 8.56334C11.77 7.44 12.91 6.71667 16.2167 6.71667C17.18 6.71667 19.6567 6.96334 21.5133 7.16334C20.49 14.3267 19.9567 22.3667 20.0033 30.01C20.0433 37.1333 20.5333 44.9833 21.4967 53.9467C20.0867 53.64 18.29 53.3333 16.7567 53.3333C13.7367 53.3333 10.3133 54.2233 8.51332 57.72H8.51665ZM70.4433 68.5233C62.5367 71.5 50.9267 73.3333 39.8433 73.3333C28.0867 73.3333 22.71 72.63 16.46 71.2667C11.8633 70.0167 10.5767 68.0567 10.5833 63.9267C10.5833 58.8367 12.43 56.6633 16.7567 56.6633C19.2533 56.6633 22.91 57.73 22.9433 57.74C24.0433 58.1033 25.2333 57.0967 25.0733 55.9533C23.9467 46.1067 23.3767 37.6133 23.3367 29.9867C23.3133 26.3433 23.4267 22.61 23.6667 18.93C28.2167 19.7 32.8133 19.9967 39.8467 19.9967C51.3233 19.9967 62.2733 18.3933 70.2933 15.5633C71.2033 19.89 73.3367 31.1167 73.3367 41.7433C73.3367 53.2933 71.1033 65.25 70.4467 68.52L70.4433 68.5233ZM65.95 28.8433C66.3633 32.0467 66.6667 37.2467 66.6667 41.2067C66.6667 48.0533 65.8567 54.4267 65.1533 59.2167C65.0533 59.9 64.5433 60.4467 63.87 60.6C56.1633 62.35 46.9033 63.3933 39.11 63.3933C36.8067 63.3933 34.8367 63.3567 33.01 63.3067C32.1533 63.2833 31.4567 62.6167 31.3933 61.7633C30.6133 51.28 30.14 41.17 30 31.7133C29.9867 30.7933 30.7233 30.0367 31.64 30.0233H31.6667C32.5733 30.0233 33.32 30.7533 33.3333 31.6667C33.4667 40.6033 33.8967 50.1333 34.61 60.01C35.9833 60.04 37.4567 60.06 39.1133 60.06C41.5133 60.06 44.0733 59.9233 46.67 59.73V46.3933C44.9967 46.5133 43.31 46.64 41.72 46.6867C40.8033 46.7133 40.03 45.99 40.0033 45.07C39.9767 44.15 40.7033 43.3833 41.62 43.3533C45.8533 43.23 50.5367 42.8233 54.81 42.2067C55.6933 42.0567 56.5633 42.7033 56.6967 43.6167C56.8267 44.5267 56.1967 45.3733 55.2833 45.5033C53.5767 45.75 51.7833 45.9333 50 46.11V59.4533C54.1033 59.03 58.2267 58.4033 62.0167 57.5933C62.66 53.07 63.3333 47.3133 63.3333 41.2067C63.3333 38.1167 63.1333 34.12 62.8467 31.1067C57.1767 32.31 49.2067 33.0967 45.0933 33.33C44.0933 33.4233 43.3867 32.68 43.3367 31.76C43.2833 30.8433 43.9867 30.0533 44.9067 30.0033C49.3733 29.7533 58.4733 28.8367 63.88 27.4433C64.82 27.1867 65.8467 27.87 65.95 28.8433Z" fill="black"/>
</svg>
