<svg width="50" height="50" viewBox="0 0 50 50" fill="none" xmlns="http://www.w3.org/2000/svg">
<g clip-path="url(#clip0_870_6655)">
<path d="M46.0479 11.5351C44.185 8.61768 40.1793 7.40575 34.7819 8.10135C34.5912 8.1237 34.3892 8.15745 34.1985 8.17981C34.12 8.00054 34.0416 7.82083 33.9517 7.64156C31.6291 2.71535 28.4535 0 24.9974 0C21.5413 0 18.3548 2.71535 16.0431 7.64156C15.9647 7.82083 15.8748 8.00054 15.7963 8.17981C15.5943 8.14649 15.4036 8.1237 15.213 8.10135C9.8046 7.39435 5.80981 8.61768 3.94698 11.5351C2.08459 14.4525 2.65659 18.5928 5.55165 23.1934C5.93342 23.7995 6.3485 24.4053 6.79733 25.0001C6.3485 25.6058 5.93342 26.2006 5.55165 26.8064C2.65659 31.4069 2.08459 35.5586 3.94698 38.4651C5.46179 40.8438 8.402 42.0895 12.3626 42.0895C13.312 42.0842 14.2601 42.0207 15.2016 41.8984C15.3922 41.876 15.5943 41.8423 15.785 41.8199C15.8638 41.9996 15.9423 42.1789 16.0322 42.3586C18.3548 47.2844 21.5304 50.0002 24.986 50.0002C28.4421 50.0002 31.6291 47.2844 33.9403 42.3586C34.0188 42.1789 34.1087 41.9996 34.1871 41.8199C34.3892 41.8537 34.5798 41.876 34.7709 41.8984C35.7116 42.0259 36.6601 42.0895 37.6095 42.0895C41.5705 42.0895 44.5103 40.8438 46.0251 38.4651C47.8879 35.5477 47.3155 31.4069 44.4209 26.8064C44.0391 26.2006 43.624 25.5949 43.1752 25.0001C43.624 24.3939 44.0391 23.7995 44.4209 23.1934C47.3492 18.5819 47.9217 14.4411 46.0479 11.5351ZM18.0743 8.59533C19.9704 4.55583 22.4951 2.24417 24.9974 2.24417C27.4998 2.24417 30.0244 4.55583 31.9206 8.59533C31.9219 8.60366 31.9258 8.61155 31.932 8.61768C29.5484 9.191 27.2236 9.98347 24.986 10.985C22.7511 9.97865 20.4254 9.18574 18.0405 8.61768C18.0629 8.61768 18.0629 8.60629 18.0743 8.59533ZM35.1076 25.0001C35.108 26.7954 35.0107 28.5899 34.8156 30.3747C33.417 31.5033 31.9561 32.5522 30.4395 33.5165C28.6893 34.6404 26.8677 35.6489 24.986 36.5352C23.1083 35.6419 21.2867 34.6338 19.533 33.5165C18.0182 32.5496 16.5573 31.5007 15.1568 30.3747C14.7676 26.802 14.7676 23.1977 15.1568 19.625C18.1812 17.1946 21.4804 15.1271 24.986 13.465C26.8642 14.3578 28.6854 15.366 30.4395 16.4832C31.9543 17.4501 33.4152 18.499 34.8156 19.625C35.0107 21.4103 35.108 23.2043 35.1076 25.0001ZM37.2505 21.7347C38.3493 22.7581 39.3838 23.8486 40.3476 25.0001C39.3838 26.1511 38.3493 27.2416 37.2505 28.2651C37.318 27.1882 37.3517 26.0998 37.3517 25.0001C37.3517 23.9004 37.318 22.812 37.2505 21.7347ZM34.3554 33.5617C34.0013 35.5043 33.4871 37.4144 32.8183 39.2729C31.0755 38.8793 29.3652 38.3542 27.7018 37.702C29.0255 37.0064 30.3497 36.2433 31.6624 35.4131C32.5829 34.8183 33.4805 34.2012 34.3554 33.5617ZM22.293 37.702C20.6327 38.3625 18.9215 38.8881 17.1766 39.2729C16.5077 37.4144 15.9936 35.5043 15.6394 33.5617C16.5033 34.2012 17.401 34.8183 18.3324 35.4017C19.6452 36.2433 20.9693 37.0064 22.293 37.702ZM12.7444 28.2651C11.6455 27.2416 10.6115 26.1511 9.64725 25.0001C10.6115 23.8486 11.6455 22.7581 12.7444 21.7347C12.6769 22.812 12.6431 23.9004 12.6431 25.0001C12.6431 26.0998 12.6769 27.1882 12.7444 28.2651ZM15.6394 16.4385C15.9936 14.4955 16.5077 12.5853 17.1766 10.7273C18.9193 11.1205 20.6301 11.6456 22.293 12.2982C20.9693 12.9938 19.6452 13.7569 18.3324 14.5871C17.412 15.1819 16.5143 15.799 15.6394 16.4385ZM31.6515 14.5871C30.3497 13.7569 29.0255 12.9824 27.6904 12.2982C29.3508 11.6377 31.0619 11.1121 32.8073 10.7273C33.4757 12.5853 33.9899 14.4955 34.3445 16.4385C33.4805 15.799 32.5829 15.1819 31.6515 14.5871ZM7.44823 21.9928C5.06906 18.2224 4.48567 14.8452 5.83217 12.7356C6.90954 11.0525 9.24356 10.1435 12.3963 10.1435C13.2405 10.147 14.0839 10.2035 14.921 10.3118H14.9434C14.0356 12.9513 13.404 15.6776 13.0586 18.4469C11.3295 19.8894 9.71957 21.4695 8.24465 23.171C7.96412 22.7897 7.695 22.3969 7.44823 21.9928ZM14.9101 39.677C14.0729 39.7857 13.2296 39.8418 12.3854 39.8453C9.23217 39.8453 6.89815 38.9477 5.82121 37.2531C4.47471 35.1435 5.05811 31.7663 7.43683 27.996C7.6836 27.6032 7.95317 27.1991 8.23369 26.8064C9.70817 28.5084 11.3181 30.088 13.0472 31.5305C13.3931 34.3002 14.0247 37.0265 14.9324 39.6656C14.9324 39.677 14.921 39.677 14.9101 39.677ZM31.9206 41.4049C30.0244 45.4443 27.4998 47.756 24.9974 47.756C22.4951 47.756 19.9704 45.4443 18.0743 41.4049C18.0729 41.3965 18.069 41.3886 18.0629 41.3825C20.4464 40.8092 22.7712 40.0167 25.0088 39.0147C27.2438 40.0215 29.5695 40.8144 31.9543 41.3825C31.932 41.3825 31.932 41.3935 31.9206 41.4049ZM42.5466 28.0074C44.9258 31.7773 45.5092 35.1549 44.1627 37.2645C42.8162 39.3737 39.506 40.2604 35.0848 39.677H35.0624C35.9702 37.0375 36.6022 34.3112 36.9476 31.5419C38.6768 30.0994 40.2867 28.5193 41.7612 26.8178C42.0307 27.2105 42.2999 27.6032 42.5466 28.0074ZM36.9362 18.4583C36.5908 15.6886 35.9592 12.9622 35.0515 10.3232H35.0738C39.4946 9.75072 42.8048 10.626 44.1513 12.7356C45.4978 14.8452 44.9144 18.2224 42.5357 21.9928C42.2889 22.3855 42.0193 22.7897 41.7388 23.1824C40.2709 21.4778 38.6645 19.8977 36.9362 18.4583Z" fill="url(#paint0_linear_870_6655)"/>
<path d="M24.9973 20.5566C22.5432 20.5566 20.5537 22.5461 20.5537 25.0003C20.5537 27.4544 22.5432 29.4434 24.9973 29.4434C27.4515 29.4434 29.441 27.4544 29.441 25.0003C29.4392 22.5466 27.4506 20.5584 24.9973 20.5566ZM24.9973 27.1993C23.7828 27.1993 22.7979 26.2148 22.7979 25.0003C22.7979 23.7857 23.7828 22.8008 24.9973 22.8008C26.2119 22.8008 27.1968 23.7857 27.1968 25.0003C27.1946 26.214 26.211 27.1975 24.9973 27.1993Z" fill="url(#paint1_linear_870_6655)"/>
</g>
<defs>
<linearGradient id="paint0_linear_870_6655" x1="25.0008" y1="-1.92998" x2="25.0008" y2="52.4696" gradientUnits="userSpaceOnUse">
<stop stop-color="#00EFD1"/>
<stop offset="1" stop-color="#00ACEA"/>
</linearGradient>
<linearGradient id="paint1_linear_870_6655" x1="24.9974" y1="-1.92981" x2="24.9974" y2="52.4698" gradientUnits="userSpaceOnUse">
<stop stop-color="#00EFD1"/>
<stop offset="1" stop-color="#00ACEA"/>
</linearGradient>
<clipPath id="clip0_870_6655">
<rect width="50" height="50" fill="white"/>
</clipPath>
</defs>
</svg>
