<svg width="52" height="52" viewBox="0 0 52 52" fill="none" xmlns="http://www.w3.org/2000/svg">
<path fill-rule="evenodd" clip-rule="evenodd" d="M39.7634 36.0731C41.0697 35.3183 42.6461 36.4665 42.2924 37.8631C42.1783 38.2957 41.908 38.656 41.5176 38.8783C41.0911 39.1306 40.4663 39.5091 39.7455 39.9416C37.8774 41.065 35.0602 42.765 32.5193 44.1286C28.681 46.183 27.3774 46.4474 26.9449 46.4234C23.1178 46.207 19.2021 45.4903 15.3635 46.0632L15.3633 38.9691C16.2584 38.915 17.3096 38.8189 18.3728 38.5846C19.0143 38.4439 20.3384 37.8271 21.5984 37.2089C24.1641 35.9503 24.4219 36.0734 26.6142 36.554C27.8037 36.8147 31.334 37.4706 31.3476 38.6443C31.3537 38.9025 31.2935 39.1489 31.1674 39.3711C31.1254 39.4012 31.0833 39.4372 31.0473 39.4793C30.7169 39.8517 30.2183 40.05 29.7138 40.0079L23.4967 39.5095C23.1002 39.4794 22.7578 39.7678 22.7278 40.1643C22.6917 40.5547 22.9861 40.897 23.3826 40.9271L29.5997 41.4315C29.6838 41.4375 29.7619 41.4375 29.846 41.4375C30.6148 41.4375 31.3657 41.1431 31.9303 40.6146L39.7634 36.0731ZM19.3273 10.5684C19.3272 6.89216 22.3246 3.9006 26.0009 3.9005C29.6771 3.90039 32.6746 6.89174 32.6747 10.568C32.6748 14.2503 29.6774 17.2417 26.0012 17.2418C22.3249 17.2419 19.3274 14.2506 19.3273 10.5684ZM13.94 48.0275C13.94 48.0636 13.904 48.0996 13.8619 48.0996L11.4352 48.0997C11.3992 48.0997 11.3631 48.0637 11.3631 48.0276L11.3629 37.7078C11.3629 37.6658 11.399 37.6297 11.4349 37.6297L13.8617 37.6296C13.9037 37.6296 13.9398 37.6655 13.9398 37.7077L13.94 48.0275ZM11.699 30.133C8.02281 30.1331 5.02522 27.1418 5.02522 23.4596C5.02511 19.7834 8.0225 16.7918 11.6987 16.7917C15.3749 16.7916 18.3725 19.783 18.3725 23.4592C18.3726 27.1414 15.3752 30.1329 11.699 30.133ZM33.6301 23.4588C33.63 19.7826 36.6274 16.7911 40.3036 16.791C43.9858 16.7909 46.9774 19.7822 46.9775 23.4584C46.9776 27.1406 43.9862 30.1322 40.304 30.1322C36.6277 30.1324 33.6301 27.1411 33.6301 23.4588ZM34.9637 29.5438C36.3934 30.7932 38.2615 31.556 40.3039 31.556C44.767 31.5559 48.4011 27.9276 48.401 23.4584C48.4009 18.9953 44.7666 15.3612 40.3035 15.3613C35.8403 15.3614 32.2062 18.9957 32.2063 23.4587C32.2063 25.3689 32.8732 27.123 33.9785 28.5105L30.867 31.484C30.7288 31.6162 30.6448 31.8023 30.6448 32.0006L30.6449 36.1934C29.6698 35.7668 28.4374 35.4926 27.5033 35.2864L26.7163 35.1122L26.7159 18.6353C30.8486 18.2748 34.0983 14.7967 34.0982 10.5678C34.0981 6.10467 30.4638 2.4706 26.0008 2.4707C21.5376 2.47081 17.9035 6.10509 17.9036 10.5682C17.9037 14.7971 21.1535 18.275 25.2863 18.6353L25.2867 34.848C23.9832 34.6679 23.2143 34.8721 21.3582 35.7431L21.3581 32.0008C21.3581 31.8025 21.28 31.6163 21.1359 31.4842L18.0183 28.5108C19.1295 27.1232 19.7962 25.3692 19.7961 23.4589C19.796 18.9958 16.1617 15.3617 11.6987 15.3618C7.2296 15.3619 3.60146 18.9962 3.60156 23.4593C3.60167 27.9283 7.22991 31.5565 11.6991 31.5564C13.7415 31.5564 15.6096 30.7934 17.0392 29.544L19.9285 32.3071L19.9286 36.4218C19.1537 36.7882 18.427 37.1127 18.0665 37.1908C17.1234 37.4011 16.1743 37.4911 15.3514 37.5393C15.2733 36.7884 14.6365 36.2058 13.8616 36.2058L11.4348 36.2059C10.6119 36.2059 9.93911 36.8787 9.93911 37.7077L9.93932 48.0275C9.93932 48.8565 10.6121 49.5291 11.4351 49.5291L13.8618 49.529C14.6908 49.529 15.3635 48.8563 15.3635 48.0273V47.5107C17.9775 47.0699 20.5533 47.3121 23.4549 47.5765C24.5541 47.6726 25.6894 47.7807 26.8607 47.8467C29.1801 47.912 35.0481 44.4298 40.4782 41.1607C41.199 40.7281 41.8177 40.3557 42.2322 40.1155C43.7167 39.2557 44.2142 37.3651 43.3193 35.8986C42.4422 34.4569 40.52 33.9825 39.0483 34.8415L32.7712 38.4818C32.729 37.9112 32.4648 37.4486 32.0744 37.0762L32.0743 32.3067L34.9637 29.5438ZM11.6989 26.4327C13.1646 25.6518 14.7383 23.7897 14.7383 22.3119C14.7383 20.9775 13.0735 20.3968 12.2334 21.369C11.9511 21.6956 11.4528 21.6994 11.1641 21.369C10.3145 20.3965 8.65929 20.9778 8.65929 22.3121C8.65939 23.7898 10.2332 25.6519 11.6989 26.4327ZM13.3086 19.4587C12.7319 19.4587 12.1673 19.6329 11.6988 19.9573C9.84915 18.6769 7.22971 19.9941 7.22971 22.312C7.22981 24.5406 9.39228 26.9914 11.4106 27.8803C11.5872 27.9604 11.8078 27.9617 11.9873 27.8803C14.0056 26.9912 16.168 24.5403 16.168 22.3118C16.1679 20.7381 14.8824 19.4587 13.3086 19.4587ZM24.6014 13.025L28.8543 10.5681L24.6013 8.11738L24.6014 13.025ZM30.9927 10.568C30.9927 10.3157 30.8546 10.0814 30.6382 9.94934L24.2468 6.26129C23.771 5.98902 23.1776 6.32962 23.1776 6.87999L23.1778 14.2624C23.1778 14.8126 23.7748 15.1481 24.247 14.8751L30.6382 11.1867C30.8546 11.0606 30.9928 10.8264 30.9927 10.568ZM38.0091 22.4675L38.0092 26.2999L42.0098 26.2998C43.0671 26.2998 43.926 25.4408 43.926 24.3835C43.926 23.3262 43.067 22.4673 42.0097 22.4673H41.1327C40.7362 22.4673 40.4179 22.149 40.4178 21.7525V20.0045C40.4178 19.7582 40.2135 19.5479 39.9612 19.548C39.7149 19.548 39.5107 19.7583 39.5107 20.0046V21.7526C39.5107 22.1491 39.1863 22.4674 38.7959 22.4674L38.0091 22.4675ZM37.2943 27.7236L42.0098 27.7235C43.8539 27.7235 45.3496 26.2276 45.3496 24.3835C45.3496 22.5394 43.8537 21.0436 42.0096 21.0438H41.8475V20.0046C41.8475 18.9654 41.0004 18.1245 39.9612 18.1245C38.9281 18.1245 38.0811 18.9655 38.0811 20.0047V21.0439H37.2942C36.8978 21.0439 36.5794 21.3622 36.5794 21.7527L36.5795 27.0148C36.5795 27.4052 36.8979 27.7237 37.2943 27.7236Z" fill="black"/>
</svg>
