<svg width="32" height="32" viewBox="0 0 32 32" fill="none" xmlns="http://www.w3.org/2000/svg">
<path d="M17.3327 29.3347H6.66602C3.99935 29.3347 2.66602 28.0013 2.66602 25.3347V14.668C2.66602 12.0013 3.99935 10.668 6.66602 10.668H13.3327V25.3347C13.3327 28.0013 14.666 29.3347 17.3327 29.3347Z" stroke="white" style="stroke:white;stroke-opacity:1;" stroke-width="1.5" stroke-miterlimit="10" stroke-linecap="round" stroke-linejoin="round"/>
<path d="M13.4793 5.33398C13.3727 5.73398 13.3327 6.17398 13.3327 6.66731V10.6673H6.66602V8.00064C6.66602 6.53398 7.86602 5.33398 9.33268 5.33398H13.4793Z" stroke="white" style="stroke:white;stroke-opacity:1;" stroke-width="1.5" stroke-miterlimit="10" stroke-linecap="round" stroke-linejoin="round"/>
<path d="M18.666 10.668V17.3347" stroke="white" style="stroke:white;stroke-opacity:1;" stroke-width="1.5" stroke-miterlimit="10" stroke-linecap="round" stroke-linejoin="round"/>
<path d="M24 10.668V17.3347" stroke="white" style="stroke:white;stroke-opacity:1;" stroke-width="1.5" stroke-miterlimit="10" stroke-linecap="round" stroke-linejoin="round"/>
<path d="M22.666 22.668H19.9993C19.266 22.668 18.666 23.268 18.666 24.0013V29.3347H23.9993V24.0013C23.9993 23.268 23.3993 22.668 22.666 22.668Z" stroke="white" style="stroke:white;stroke-opacity:1;" stroke-width="1.5" stroke-miterlimit="10" stroke-linecap="round" stroke-linejoin="round"/>
<path d="M8 17.332V22.6653" stroke="white" style="stroke:white;stroke-opacity:1;" stroke-width="1.5" stroke-miterlimit="10" stroke-linecap="round" stroke-linejoin="round"/>
<path d="M13.334 25.3327V6.66602C13.334 3.99936 14.6673 2.66602 17.334 2.66602H25.334C28.0007 2.66602 29.334 3.99936 29.334 6.66602V25.3327C29.334 27.9993 28.0007 29.3327 25.334 29.3327H17.334C14.6673 29.3327 13.334 27.9993 13.334 25.3327Z" stroke="white" style="stroke:white;stroke-opacity:1;" stroke-width="1.5" stroke-miterlimit="10" stroke-linecap="round" stroke-linejoin="round"/>
</svg>
