<svg width="52" height="52" viewBox="0 0 52 52" fill="none" xmlns="http://www.w3.org/2000/svg">
<g clip-path="url(#clip0_1036_13364)">
<path d="M51.2976 39.8429H41.0279V27.9919C41.031 27.6806 40.8503 27.3968 40.5669 27.268L29.0409 22.139C30.3645 20.2304 31.5582 18.235 32.6139 16.1662H45.002C48.048 16.2284 50.4668 18.7482 50.4045 21.7942C50.3441 24.7525 47.9604 27.1362 45.002 27.1967C42.8859 26.8348 42.8859 29.1538 45.002 28.7872C48.9265 28.7166 52.0505 25.4779 51.9799 21.5535C51.9109 17.7286 48.8269 14.6446 45.002 14.5756H33.3378C41.6756 -4.788 10.4495 -4.76502 18.785 14.5756H2.70399L4.52044 12.7707C5.24656 12.0653 4.13548 10.9495 3.40703 11.6458L0.244376 14.8153C-0.0626187 15.1275 -0.0626187 15.6282 0.244376 15.9402L3.40713 19.0914C4.11484 19.8337 5.25134 18.6695 4.52055 17.9711L2.70399 16.1662H19.5066C20.5484 18.2317 21.738 20.2194 23.0658 22.1137L11.4868 27.2889C11.1958 27.5601 11.0426 27.9479 11.0695 28.3446C11.0164 30.7029 11.0971 39.6148 11.0695 39.843H7.10692C4.05141 39.843 1.57441 37.366 1.57441 34.3105C1.57441 31.255 4.05141 28.778 7.10692 28.778C9.22081 29.1515 9.22996 26.8255 7.10692 27.1874C3.18187 27.1874 0 30.3693 0 34.2943C0 38.2194 3.18187 41.4013 7.10692 41.4013H11.0649C11.0649 41.8393 11.0649 43.6258 11.0764 44.7184C11.0926 45.0781 11.2124 45.4538 11.5374 45.546C11.5374 45.546 25.7305 51.8692 25.7651 51.8945C25.9648 51.962 26.1825 51.953 26.3759 51.8692L40.5667 45.546C40.9978 45.3431 41.0531 44.9397 41.0531 44.4995C41.0393 43.4045 41.0047 41.8808 41.0347 41.4013H51.3044C51.7345 41.3525 52.0436 40.9644 51.9949 40.5342C51.9535 40.1686 51.6634 39.8811 51.2976 39.8429ZM26.0626 33.4714L20.491 30.9887L32.7477 25.5092L38.3078 27.9919L26.0626 33.4714ZM18.8634 8.64901C19.7786 -4.58052 44.9329 0.546285 26.0625 23.5429C24.2023 21.1316 18.8634 13.6628 18.8634 8.64901ZM25.4309 25.3225C26.6804 26.2238 26.7979 24.9168 28.1027 23.4506L30.8067 24.6447L18.5569 30.1242C17.3813 29.5917 14.9515 28.5105 13.7805 27.9919L23.9925 23.4506C24.7878 24.5271 25.3502 25.2303 25.4309 25.3225ZM12.644 44.3219V29.209C15.756 30.5921 22.1807 33.4714 25.2558 34.8545V49.9581L12.644 44.3219ZM39.4604 44.3219L26.8371 49.965V34.8545L39.4604 29.209V44.3219ZM30.5139 8.71813C30.5139 6.25079 28.5138 4.25065 26.0465 4.25065C23.5791 4.25065 21.579 6.25079 21.579 8.71813C21.579 11.1855 23.5791 13.1856 26.0465 13.1856C28.5138 13.1856 30.5139 11.1855 30.5139 8.71813ZM26.0626 11.6227C24.4654 11.5776 23.2073 10.2463 23.2524 8.64921C23.2957 7.11546 24.5289 5.8823 26.0626 5.83899C27.6598 5.88413 28.918 7.21539 28.8728 8.81247C28.8295 10.3462 27.5963 11.5794 26.0626 11.6227Z" fill="black"/>
</g>
<defs>
<clipPath id="clip0_1036_13364">
<rect width="52" height="52" fill="white"/>
</clipPath>
</defs>
</svg>
