<svg width="33" height="32" viewBox="0 0 33 32" fill="none" xmlns="http://www.w3.org/2000/svg">
<g clip-path="url(#clip0_1036_13132)">
<path d="M7.15488 20.3926H3.39015C2.35488 20.3926 1.50781 21.2396 1.50781 22.2749V31.3729C1.50781 31.718 1.79015 32.0004 2.13524 32.0004H8.40973C8.75482 32.0004 9.03716 31.718 9.03716 31.3729V22.275C9.03721 21.2396 8.19021 20.3926 7.15488 20.3926ZM7.78236 30.7455H2.76272V22.275C2.76272 21.9299 3.04506 21.6475 3.39015 21.6475H7.15488C7.49997 21.6475 7.7823 21.9299 7.7823 22.275L7.78236 30.7455Z" fill="black"/>
<path d="M17.8228 15.373H14.0581C13.0228 15.373 12.1758 16.2201 12.1758 17.2554V31.373C12.1758 31.7181 12.4581 32.0005 12.8032 32.0005H19.0777C19.4228 32.0005 19.7051 31.7181 19.7051 31.373V17.2554C19.7052 16.2201 18.8581 15.373 17.8228 15.373ZM18.4503 30.7456H13.4306V17.2554C13.4306 16.9103 13.713 16.628 14.0581 16.628H17.8228C18.1679 16.628 18.4502 16.9103 18.4502 17.2554V30.7456H18.4503Z" fill="black"/>
<path d="M28.4869 12.8633H24.7222C23.6869 12.8633 22.8398 13.7103 22.8398 14.7456V31.3731C22.8398 31.7182 23.1222 32.0005 23.4673 32.0005H29.7418C30.0869 32.0005 30.3692 31.7182 30.3692 31.3731V14.7456C30.3692 13.7103 29.5222 12.8633 28.4869 12.8633ZM29.1143 30.7456H24.0947V14.7456C24.0947 14.4005 24.377 14.1182 24.7221 14.1182H28.4869C28.8319 14.1182 29.1143 14.4005 29.1143 14.7456V30.7456H29.1143Z" fill="black"/>
<path d="M31.4614 3.55137C31.3861 3.32551 31.1916 3.15607 30.9531 3.1247L28.3179 2.74195L27.1382 0.351366C27.0316 0.138059 26.8119 0 26.5735 0C26.3351 0 26.1155 0.138059 26.0088 0.351366L24.8292 2.74195L22.1939 3.1247C21.9555 3.15607 21.761 3.32545 21.6857 3.55137C21.6104 3.77728 21.6731 4.02824 21.8425 4.19762L23.6434 5.9545L17.8959 8.48942C17.4441 7.90587 16.7351 7.5294 15.9382 7.5294C14.5516 7.5294 13.4284 8.65253 13.4284 10.0392C13.4284 10.1773 13.441 10.3153 13.4598 10.4471L7.23546 13.189C6.77741 12.6117 6.0684 12.2353 5.27154 12.2353C3.88485 12.2353 2.76172 13.3584 2.76172 14.7451C2.76172 16.1318 3.88485 17.2549 5.27154 17.2549C6.65823 17.2549 7.78136 16.1318 7.78136 14.7451C7.78136 14.607 7.76881 14.469 7.74998 14.3372L13.9743 11.5953C14.4323 12.1726 15.1413 12.549 15.9382 12.549C17.3249 12.549 18.448 11.4259 18.448 10.0392C18.448 9.90116 18.4355 9.76316 18.4166 9.63138L23.5303 7.37257L23.3045 8.67769C23.2668 8.91609 23.361 9.14829 23.5554 9.29256C23.75 9.43062 24.0072 9.44945 24.2142 9.34277L26.5735 8.10041L28.9327 9.34277C29.0268 9.39297 29.1272 9.4118 29.2276 9.4118C29.3593 9.4118 29.4848 9.37414 29.5977 9.29256C29.7923 9.1545 29.8864 8.91609 29.8487 8.67769L29.3969 6.04869L31.3044 4.19146C31.4739 4.02824 31.5366 3.77728 31.4614 3.55137ZM5.27154 16C4.58136 16 4.01663 15.4353 4.01663 14.7451C4.01663 14.0549 4.58136 13.4902 5.27154 13.4902C5.96172 13.4902 6.52645 14.0549 6.52645 14.7451C6.52645 15.4353 5.96172 16 5.27154 16ZM15.9382 11.2941C15.248 11.2941 14.6833 10.7294 14.6833 10.0392C14.6833 9.34904 15.248 8.78431 15.9382 8.78431C16.6284 8.78431 17.1931 9.34904 17.1931 10.0392C17.1931 10.7294 16.6284 11.2941 15.9382 11.2941ZM28.2801 5.38356C28.1295 5.52789 28.0668 5.73492 28.0982 5.94201L28.3868 7.64242L26.8621 6.83928C26.7679 6.78908 26.6675 6.77025 26.5672 6.77025C26.4668 6.77025 26.3664 6.79535 26.2723 6.83928L24.7476 7.64242L24.9546 6.44399L25.0425 5.94201C25.0801 5.74125 25.0111 5.52789 24.8605 5.38356L23.6244 4.17885L25.3311 3.93417C25.5381 3.90279 25.7138 3.77728 25.8017 3.58908L26.5672 2.04555L27.3327 3.58908C27.4268 3.77734 27.6025 3.90279 27.8033 3.93417L29.5099 4.17885L28.2801 5.38356Z" fill="black"/>
</g>
<defs>
<clipPath id="clip0_1036_13132">
<rect width="32" height="32" fill="white" transform="translate(0.5)"/>
</clipPath>
</defs>
</svg>
