<svg width="52" height="52" viewBox="0 0 52 52" fill="none" xmlns="http://www.w3.org/2000/svg">
<path d="M34.6667 48.75H8.66667C7.23061 48.7483 5.85385 48.177 4.8384 47.1616C3.82296 46.1461 3.25172 44.7694 3.25 43.3333V8.66667C3.25172 7.23061 3.82296 5.85385 4.8384 4.8384C5.85385 3.82296 7.23061 3.25172 8.66667 3.25H25.415C26.1364 3.25048 26.8505 3.3944 27.5157 3.67337C28.181 3.95234 28.7841 4.3608 29.2901 4.875L38.5396 14.3423C39.5317 15.3551 40.0861 16.7172 40.0833 18.135V26.2058C40.0833 26.4932 39.9692 26.7687 39.766 26.9719C39.5629 27.175 39.2873 27.2892 39 27.2892C38.7127 27.2892 38.4371 27.175 38.234 26.9719C38.0308 26.7687 37.9167 26.4932 37.9167 26.2058V18.135C37.9171 17.2845 37.5842 16.4678 36.9893 15.86L27.7388 6.39167C27.4356 6.08293 27.074 5.83769 26.675 5.67028C26.276 5.50288 25.8477 5.41666 25.415 5.41667H8.66667C7.80471 5.41667 6.97806 5.75908 6.36857 6.36857C5.75908 6.97806 5.41667 7.80471 5.41667 8.66667V43.3333C5.41667 44.1953 5.75908 45.0219 6.36857 45.6314C6.97806 46.2409 7.80471 46.5833 8.66667 46.5833H34.6667C35.0754 46.5849 35.4803 46.5058 35.8583 46.3504C36.1241 46.2411 36.4224 46.2418 36.6876 46.3524C36.9529 46.4631 37.1633 46.6745 37.2726 46.9403C37.382 47.2061 37.3812 47.5044 37.2706 47.7696C37.16 48.0348 36.9485 48.2453 36.6828 48.3546C36.0431 48.6173 35.3581 48.7516 34.6667 48.75Z" fill="black"/>
<path d="M38.5558 17.3334H31.4167C29.9806 17.3317 28.6039 16.7605 27.5884 15.745C26.573 14.7296 26.0017 13.3528 26 11.9168V4.66927C26 4.38195 26.1141 4.1064 26.3173 3.90324C26.5205 3.70007 26.796 3.58594 27.0833 3.58594C27.3707 3.58594 27.6462 3.70007 27.8494 3.90324C28.0525 4.1064 28.1667 4.38195 28.1667 4.66927V11.9168C28.1667 12.7787 28.5091 13.6054 29.1186 14.2149C29.7281 14.8244 30.5547 15.1668 31.4167 15.1668H38.5558C38.8432 15.1668 39.1187 15.2809 39.3219 15.4841C39.525 15.6872 39.6392 15.9628 39.6392 16.2501C39.6392 16.5374 39.525 16.813 39.3219 17.0161C39.1187 17.2193 38.8432 17.3334 38.5558 17.3334Z" fill="black"/>
<path d="M36.8327 48.5922C36.4055 48.5927 35.9877 48.4664 35.6324 48.2293L32.1527 45.9088C29.925 44.4276 28.0984 42.4182 26.8358 40.0598C25.5731 37.7014 24.9136 35.0672 24.916 32.392V30.5374C24.9181 30.0499 25.0838 29.5773 25.3865 29.1953C25.6892 28.8132 26.1114 28.5438 26.5854 28.4303C29.8028 27.541 32.8636 26.16 35.6594 24.3364C36.0093 24.111 36.4166 23.9912 36.8327 23.9912C37.2488 23.9912 37.6561 24.111 38.0059 24.3364C40.8017 26.1603 43.8624 27.5412 47.0799 28.4303C47.554 28.5438 47.9762 28.8132 48.2789 29.1953C48.5816 29.5773 48.7472 30.0499 48.7494 30.5374V32.392C48.7525 35.0679 48.0933 37.703 46.8306 40.0622C45.5679 42.4215 43.741 44.4315 41.5127 45.9131L38.0341 48.2325C37.678 48.4686 37.2599 48.5938 36.8327 48.5922ZM36.8327 26.1564C33.8375 28.1103 30.5571 29.5875 27.1087 30.5352L27.0827 32.392C27.0801 34.7111 27.6513 36.9948 28.7456 39.0394C29.8399 41.0841 31.4231 42.8262 33.3541 44.1104L36.8327 46.4255L40.3113 44.1061C42.2417 42.8223 43.8245 41.0809 44.9188 39.037C46.013 36.9932 46.5846 34.7104 46.5827 32.392V30.5374C43.1258 29.5902 39.8367 28.1127 36.8327 26.1574V26.1564Z" fill="black"/>
<path d="M35.7504 39.0004C35.4631 39.0003 35.1876 38.8861 34.9844 38.6829L32.8178 36.5163C32.6204 36.312 32.5112 36.0383 32.5137 35.7543C32.5162 35.4702 32.6301 35.1985 32.831 34.9976C33.0318 34.7968 33.3035 34.6828 33.5876 34.6804C33.8716 34.6779 34.1453 34.7871 34.3496 34.9844L35.7504 36.3852L39.3178 32.8178C39.5221 32.6204 39.7958 32.5112 40.0798 32.5137C40.3638 32.5162 40.6356 32.6301 40.8364 32.831C41.0373 33.0318 41.1512 33.3035 41.1537 33.5876C41.1561 33.8716 41.0469 34.1453 40.8496 34.3496L36.5163 38.6829C36.3132 38.8861 36.0377 39.0003 35.7504 39.0004Z" fill="black"/>
<path d="M19.5 14.0837H10.8333C10.546 14.0837 10.2705 13.9695 10.0673 13.7664C9.86414 13.5632 9.75 13.2876 9.75 13.0003C9.75 12.713 9.86414 12.4375 10.0673 12.2343C10.2705 12.0311 10.546 11.917 10.8333 11.917H19.5C19.7873 11.917 20.0629 12.0311 20.266 12.2343C20.4692 12.4375 20.5833 12.713 20.5833 13.0003C20.5833 13.2876 20.4692 13.5632 20.266 13.7664C20.0629 13.9695 19.7873 14.0837 19.5 14.0837Z" fill="black"/>
<path d="M26 20.5837H10.8333C10.546 20.5837 10.2705 20.4695 10.0673 20.2664C9.86414 20.0632 9.75 19.7876 9.75 19.5003C9.75 19.213 9.86414 18.9375 10.0673 18.7343C10.2705 18.5311 10.546 18.417 10.8333 18.417H26C26.2873 18.417 26.5629 18.5311 26.766 18.7343C26.9692 18.9375 27.0833 19.213 27.0833 19.5003C27.0833 19.7876 26.9692 20.0632 26.766 20.2664C26.5629 20.4695 26.2873 20.5837 26 20.5837Z" fill="black"/>
<path d="M28.1667 27.0837H10.8333C10.546 27.0837 10.2705 26.9695 10.0673 26.7664C9.86414 26.5632 9.75 26.2876 9.75 26.0003C9.75 25.713 9.86414 25.4375 10.0673 25.2343C10.2705 25.0311 10.546 24.917 10.8333 24.917H28.1667C28.454 24.917 28.7295 25.0311 28.9327 25.2343C29.1359 25.4375 29.25 25.713 29.25 26.0003C29.25 26.2876 29.1359 26.5632 28.9327 26.7664C28.7295 26.9695 28.454 27.0837 28.1667 27.0837Z" fill="black"/>
<path d="M21.6667 33.5837H10.8333C10.546 33.5837 10.2705 33.4695 10.0673 33.2664C9.86414 33.0632 9.75 32.7876 9.75 32.5003C9.75 32.213 9.86414 31.9375 10.0673 31.7343C10.2705 31.5311 10.546 31.417 10.8333 31.417H21.6667C21.954 31.417 22.2295 31.5311 22.4327 31.7343C22.6359 31.9375 22.75 32.213 22.75 32.5003C22.75 32.7876 22.6359 33.0632 22.4327 33.2664C22.2295 33.4695 21.954 33.5837 21.6667 33.5837Z" fill="black"/>
<path d="M21.6667 40.0837H10.8333C10.546 40.0837 10.2705 39.9695 10.0673 39.7664C9.86414 39.5632 9.75 39.2876 9.75 39.0003C9.75 38.713 9.86414 38.4375 10.0673 38.2343C10.2705 38.0311 10.546 37.917 10.8333 37.917H21.6667C21.954 37.917 22.2295 38.0311 22.4327 38.2343C22.6359 38.4375 22.75 38.713 22.75 39.0003C22.75 39.2876 22.6359 39.5632 22.4327 39.7664C22.2295 39.9695 21.954 40.0837 21.6667 40.0837Z" fill="black"/>
</svg>
