<svg width="32" height="32" viewBox="0 0 32 32" fill="none" xmlns="http://www.w3.org/2000/svg">
<path d="M31.7364 7.07377C31.478 6.72282 31.0802 6.52149 30.6451 6.52149H7.56286C7.22274 6.52149 6.94751 6.79673 6.94751 7.13685C6.94751 7.477 7.22275 7.75223 7.56286 7.75223H30.6451L30.7617 7.91147L27.4842 18.3937C27.4709 18.4382 27.4313 18.4719 27.3856 18.4791L10.171 21.1088L4.58578 3.24936C4.50302 2.98539 4.25912 2.82517 3.99536 2.82697C3.99664 2.82291 3.9974 2.82199 3.99868 2.81787H0.615355C0.27524 2.81788 0 3.09311 0 3.43323C0 3.77338 0.27524 4.04862 0.615355 4.04862H3.54647L8.9403 21.2975L7.97271 21.4453C7.10375 21.5787 6.47335 22.3143 6.47335 23.1929C6.47335 24.1676 7.26602 24.9596 8.24014 24.9596H9.70969C9.42658 25.3893 9.26052 25.9027 9.26052 26.4548C9.26052 27.9583 10.4835 29.1819 11.987 29.1819C13.4906 29.1819 14.7135 27.9583 14.7135 26.4548C14.7135 25.9027 14.5475 25.3893 14.2643 24.9596H24.1573C24.9818 24.9596 25.6537 25.6303 25.6537 26.4548C25.6537 27.2793 24.9818 27.9511 24.1573 27.9511C23.3328 27.9511 22.6622 27.2793 22.6646 26.3719C22.685 26.0329 22.4266 25.7409 22.0877 25.7204C21.7091 25.6904 21.4555 25.9584 21.4362 26.2973C21.435 26.3094 21.4314 26.4428 21.4314 26.4548C21.4314 27.9583 22.6538 29.1819 24.1573 29.1819C25.6609 29.1819 26.8844 27.9583 26.8844 26.4548C26.8844 25.9027 26.7183 25.3893 26.435 24.9596H27.9048C28.2449 24.9596 28.5202 24.6844 28.5202 24.3443C28.5202 24.0042 28.2449 23.7289 27.9048 23.7289H8.24014C7.94449 23.7289 7.7041 23.4885 7.7041 23.1929C7.7041 22.9261 7.89578 22.7025 8.15961 22.6616L27.5731 19.6954C28.0875 19.6148 28.5046 19.2579 28.6596 18.7615L31.9371 8.27924C32.067 7.86399 31.9936 7.42472 31.7364 7.07377ZM13.4828 26.4548C13.4828 27.2793 12.8115 27.9511 11.987 27.9511C11.1625 27.9511 10.4913 27.2793 10.4913 26.4548C10.4913 25.6303 11.1625 24.9596 11.987 24.9596C12.8115 24.9596 13.4828 25.6303 13.4828 26.4548ZM24.4446 17.4731C24.1093 17.4142 23.8869 17.0945 23.9458 16.7604L25.2018 9.66263C25.2619 9.3273 25.5888 9.10254 25.9145 9.16385C26.2498 9.22272 26.4722 9.54242 26.4133 9.87656L25.1573 16.9743C25.1044 17.2724 24.8448 17.4827 24.5528 17.4827C24.5167 17.4827 24.4806 17.4803 24.4446 17.4731ZM20.4315 18.1173C20.0926 18.1017 19.8305 17.8144 19.8462 17.4743L20.2031 9.74134C20.2175 9.40183 20.5228 9.1308 20.8461 9.15482C21.1851 9.17045 21.4471 9.45832 21.4315 9.79783L21.0745 17.532C21.0601 17.8613 20.7872 18.1185 20.4603 18.1185C20.4507 18.1185 20.4411 18.1185 20.4315 18.1173ZM15.8793 18.1558L15.2285 9.81766C15.2021 9.47873 15.4551 9.18247 15.794 9.15604C16.1317 9.13019 16.4292 9.38257 16.4556 9.72153L17.1064 18.0596C17.1329 18.3985 16.8799 18.6942 16.541 18.7206C16.5247 18.7231 16.5085 18.7231 16.4923 18.7231C16.1738 18.7231 15.9046 18.4779 15.8793 18.1558ZM12.0609 18.8L10.3098 9.88798C10.2443 9.55506 10.4618 9.23115 10.7954 9.16566C11.1259 9.09776 11.4516 9.31709 11.5177 9.65122L13.2688 18.562C13.3344 18.8961 13.1168 19.2194 12.7833 19.2843C12.7436 19.2928 12.7033 19.2964 12.6643 19.2964C12.3758 19.2964 12.1186 19.0932 12.0609 18.8Z" fill="black"/>
</svg>
