<svg width="60" height="60" viewBox="0 0 60 60" fill="none" xmlns="http://www.w3.org/2000/svg">
<g clip-path="url(#clip0_1164_2992)">
<path d="M30 0C13.4315 0 0 13.4315 0 30C0 46.5685 13.4315 60 30 60C46.5685 60 60 46.5685 60 30C60 13.4315 46.5685 0 30 0Z" fill="url(#paint0_linear_1164_2992)" fill-opacity="0.4" style=""/>
<path d="M41.5605 31.1295C42.1465 30.5048 42.1465 29.4902 41.5605 28.8655L35.5602 22.4685C34.9743 21.8438 34.0227 21.8438 33.4367 22.4685C32.8507 23.0932 32.8507 24.1078 33.4367 24.7325L36.8775 28.4007H19.5001C18.6703 28.4007 18 29.1154 18 30C18 30.8846 18.6703 31.5992 19.5001 31.5992H36.8775L33.4367 35.2675C32.8507 35.8922 32.8507 36.9068 33.4367 37.5315C34.0227 38.1562 34.9743 38.1562 35.5602 37.5315L41.5605 31.1345V31.1295Z" fill="white" style="fill:white;fill-opacity:1;"/>
</g>
<defs>
<linearGradient id="paint0_linear_1164_2992" x1="63.6402" y1="61.3033" x2="39.7094" y2="-2.76261" gradientUnits="userSpaceOnUse">
<stop stop-color="#007AEB" style="stop-color:#007AEB;stop-color:color(display-p3 0.0000 0.4784 0.9216);stop-opacity:1;"/>
<stop offset="0.416839" stop-color="#008CE7" style="stop-color:#008CE7;stop-color:color(display-p3 0.0000 0.5490 0.9039);stop-opacity:1;"/>
<stop offset="1" stop-color="#00DBD3" style="stop-color:#00DBD3;stop-color:color(display-p3 0.0000 0.8588 0.8275);stop-opacity:1;"/>
</linearGradient>
<clipPath id="clip0_1164_2992">
<rect width="60" height="60" fill="white" style="fill:white;fill-opacity:1;" transform="matrix(-1 0 0 -1 60 60)"/>
</clipPath>
</defs>
</svg>
