<svg width="32" height="32" viewBox="0 0 32 32" fill="none" xmlns="http://www.w3.org/2000/svg">
<g clip-path="url(#clip0_888_2340)">
<path d="M29.1336 12.119C29.2829 11.5849 29.3584 11.0335 29.3584 10.4734C29.3584 7.10931 26.6211 4.37238 23.2564 4.37238C23.0144 4.37238 22.7746 4.38625 22.5387 4.41381C22.056 3.21281 21.257 2.17587 20.2053 1.39244C18.9824 0.4815 17.5279 0 15.9991 0C14.4703 0 13.0159 0.4815 11.7929 1.39244C10.7413 2.17587 9.94225 3.21269 9.4595 4.41362C9.22419 4.38625 8.98425 4.37238 8.74181 4.37238C5.37819 4.37238 2.64156 7.10931 2.64156 10.4734C2.64156 11.0335 2.71706 11.5849 2.86644 12.119C1.394 13.0384 0.5 14.634 0.5 16.4013C0.5 19.1881 2.76694 21.4553 5.55337 21.4553H6.51025V23.4877C6.51025 24.2173 7.10369 24.8108 7.83313 24.8108H8.08006C8.248 25.3906 8.47956 25.9492 8.77213 26.4799L8.59888 26.6532C8.34856 26.9019 8.21044 27.2339 8.20981 27.588C8.20925 27.9429 8.34688 28.2764 8.59713 28.5267L9.98231 29.9139C10.4994 30.4277 11.3387 30.4269 11.8525 29.9131L12.0291 29.7372C12.5593 30.0293 13.1173 30.2604 13.6966 30.4282V30.6752C13.6966 31.4057 14.2909 32 15.0212 32H16.9786C17.7091 32 18.3032 31.4057 18.3032 30.6752V30.428C18.8814 30.2603 19.4391 30.0292 19.9698 29.7373L20.1449 29.9125C20.6611 30.4288 21.501 30.4287 22.0173 29.9124L23.4039 28.5256C23.9176 28.0085 23.9169 27.1693 23.4025 26.6547L23.2273 26.4794C23.5191 25.9487 23.7506 25.3903 23.9191 24.8108H24.1651C24.8955 24.8108 25.4897 24.2173 25.4897 23.4877V21.4553H26.4466C29.233 21.4553 31.4999 19.1881 31.4999 16.4013C31.5 14.634 30.606 13.0384 29.1336 12.119ZM24.2397 23.4877C24.2397 23.5267 24.2048 23.5608 24.1651 23.5608H23.4353C23.1432 23.5608 22.89 23.7631 22.8257 24.0481C22.6497 24.8269 22.3432 25.5664 21.9147 26.2458C21.7589 26.4928 21.7949 26.8147 22.0014 27.0211L22.5186 27.5384C22.5459 27.5658 22.5452 27.6164 22.5186 27.6432L21.1334 29.0286C21.1167 29.0453 21.0958 29.0488 21.0812 29.0488C21.0666 29.0488 21.0456 29.0452 21.0289 29.0286L20.5117 28.5113C20.3052 28.3048 19.9832 28.2688 19.7362 28.4246C19.0561 28.8538 18.3177 29.1596 17.5416 29.3337C17.2562 29.3977 17.0534 29.6511 17.0534 29.9436V30.6752C17.0534 30.7144 17.0178 30.75 16.9788 30.75H15.0214C14.9816 30.75 14.9467 30.7151 14.9467 30.6752V29.9436C14.9467 29.6509 14.7438 29.3976 14.4583 29.3336C13.6807 29.1596 12.9426 28.8538 12.2645 28.425C12.0177 28.2689 11.6959 28.3044 11.4892 28.5106L10.9695 29.0286C10.9417 29.0562 10.8921 29.0556 10.8652 29.0289L9.48156 27.6432C9.46369 27.6253 9.45994 27.6044 9.45994 27.59C9.46 27.57 9.46675 27.5531 9.4815 27.5384L9.99875 27.0211C10.2055 26.8144 10.2413 26.4919 10.0849 26.2449C9.65512 25.5662 9.34894 24.8274 9.17475 24.0492C9.11088 23.7638 8.85744 23.5608 8.56481 23.5608H7.83313C7.79362 23.5608 7.76025 23.5274 7.76025 23.4877V21.4553H10.6717C10.6039 21.8001 10.5684 22.1519 10.5684 22.5081C10.5684 25.5029 13.0046 27.9394 15.9991 27.9394C18.9946 27.9394 21.4316 25.5029 21.4316 22.5081C21.4316 22.1528 21.3959 21.8011 21.3274 21.4553H24.2398V23.4877H24.2397ZM26.4466 20.2053H18.8049C18.4598 20.2053 18.1799 20.4852 18.1799 20.8303C18.1799 21.1754 18.4598 21.4553 18.8049 21.4553H20.0458C20.1355 21.7987 20.1816 22.1511 20.1816 22.5081C20.1816 24.8137 18.3053 26.6894 15.9991 26.6894C13.6939 26.6894 11.8184 24.8136 11.8184 22.5081C11.8184 22.1496 11.8641 21.7971 11.9529 21.4553H13.1933C13.5384 21.4553 13.8183 21.1754 13.8183 20.8303C13.8183 20.4852 13.5384 20.2053 13.1933 20.2053H5.55337C3.45619 20.2053 1.75 18.4988 1.75 16.4013C1.75 14.9316 2.5715 13.6196 3.89394 12.9773C4.18469 12.8361 4.31981 12.4964 4.20544 12.194C3.99719 11.6435 3.89162 11.0647 3.89162 10.4735C3.89162 7.79862 6.06737 5.62244 8.74187 5.62244C9.0865 5.62244 9.42256 5.65712 9.74081 5.72538C10.0559 5.79306 10.3709 5.60987 10.468 5.3025C11.2335 2.87862 13.4563 1.25 15.9991 1.25C18.5419 1.25 20.7647 2.87856 21.5302 5.3025C21.6272 5.60962 21.9417 5.79294 22.2568 5.7255C22.5771 5.65706 22.9134 5.62244 23.2563 5.62244C25.9318 5.62244 28.1084 7.79862 28.1084 10.4735C28.1084 11.0647 28.0028 11.6436 27.7946 12.194C27.6802 12.4964 27.8153 12.8361 28.1061 12.9773C29.4285 13.6196 30.25 14.9316 30.25 16.4013C30.25 18.4988 28.5438 20.2053 26.4466 20.2053Z" fill="black"/>
<path d="M22.6016 8.86719C22.2564 8.86719 21.9766 9.14706 21.9766 9.49219V15.6574C21.9766 16.0026 22.2564 16.2824 22.6016 16.2824C22.9467 16.2824 23.2266 16.0026 23.2266 15.6574V9.49219C23.2266 9.14706 22.9467 8.86719 22.6016 8.86719Z" fill="black"/>
<path d="M17.6234 8.86719H15.875C15.5354 8.86719 15.25 9.15163 15.25 9.49219V15.7708C15.25 16.1159 15.5299 16.3958 15.875 16.3958C16.2201 16.3958 16.5 16.1159 16.5 15.7708V13.6653C16.8887 13.6629 17.3665 13.6604 17.6234 13.6604C18.9643 13.6604 20.0551 12.5853 20.0551 11.2638C20.0551 9.94231 18.9643 8.86719 17.6234 8.86719ZM17.6234 12.4104C17.3676 12.4104 16.8968 12.4128 16.5093 12.4152C16.5074 12.0158 16.5054 11.5256 16.5054 11.2638C16.5054 11.0419 16.5038 10.5332 16.5023 10.1171H17.6234C18.264 10.1171 18.8052 10.6422 18.8052 11.2638C18.8052 11.8853 18.2639 12.4104 17.6234 12.4104Z" fill="black"/>
<path d="M10.9528 9.35959C10.9512 9.35527 10.9495 9.3509 10.9477 9.34665C10.8301 9.05484 10.5511 8.86621 10.237 8.86621C9.92284 8.86621 9.64384 9.05484 9.52622 9.34665C9.52472 9.3504 9.52322 9.35409 9.52184 9.35784L7.16416 15.5479C7.04128 15.8705 7.20316 16.2315 7.52572 16.3544C7.84834 16.4773 8.20934 16.3154 8.33222 15.9928L8.76597 14.854H11.6906L12.1198 15.991C12.2142 16.2413 12.452 16.3955 12.7046 16.3955C12.7779 16.3955 12.8525 16.3825 12.9252 16.3551C13.2481 16.2332 13.411 15.8726 13.2892 15.5496L10.9528 9.35959ZM9.24209 13.604L10.2349 10.9974L11.2188 13.604H9.24209Z" fill="black"/>
<path d="M16 20.2051C15.6549 20.2051 15.375 20.485 15.375 20.8301C15.375 21.1752 15.6549 21.4551 16 21.4551H16.0036C16.3487 21.4551 16.6269 21.1752 16.6269 20.8301C16.6269 20.485 16.3452 20.2051 16 20.2051Z" fill="black"/>
</g>
<defs>
<clipPath id="clip0_888_2340">
<rect width="32" height="32" fill="white"/>
</clipPath>
</defs>
</svg>
