<svg width="52" height="52" viewBox="0 0 52 52" fill="none" xmlns="http://www.w3.org/2000/svg">
<g clip-path="url(#clip0_1036_13373)">
<path d="M45.6379 34.908C45.5282 34.4916 45.2621 34.1443 44.8893 33.928C44.5156 33.7116 44.0799 33.6548 43.6625 33.7665L42.6204 29.8777C47.2527 27.6087 50.4499 22.8455 50.4499 17.3489C50.4499 9.66266 44.1957 3.40945 36.5074 3.40945C34.4558 3.40945 32.5068 3.85531 30.7508 4.65359C27.5354 1.64937 23.349 0 18.8965 0C14.2449 0 9.8838 1.79969 6.61653 5.06594C3.39802 8.28445 1.59833 12.5805 1.54755 17.1641C1.47442 24.0561 7.38333 32.7204 12.9124 39.6652C6.68559 40.5935 2.74294 42.8685 2.74294 45.6168C2.74294 47.4723 4.52841 49.142 7.7713 50.3191C10.7552 51.4028 14.707 52 18.8965 52C23.0879 52 27.0387 51.4028 30.0226 50.3202C33.2645 49.143 35.05 47.4734 35.05 45.6178C35.05 42.8705 31.1073 40.5945 24.8805 39.6662C27.1718 36.787 29.525 33.6131 31.5085 30.3652C33.0604 30.9634 34.7463 31.2924 36.5064 31.2924C36.8334 31.2924 37.1564 31.2802 37.4773 31.2579L38.5204 35.1447H38.5193C38.1029 35.2544 37.7556 35.5205 37.5393 35.8932C37.3229 36.267 37.265 36.7027 37.3778 37.118L40.0408 47.0559C40.3353 48.1569 41.0432 49.0791 42.0344 49.6509C42.6956 50.0327 43.4279 50.2277 44.1693 50.2277C44.54 50.2277 44.9117 50.179 45.2783 50.0805C47.5543 49.4711 48.9112 47.122 48.3029 44.8419L45.6379 34.908ZM44.086 35.3346H44.084L43.8737 34.5505L44.086 35.3346ZM33.427 45.6168C33.427 46.7055 31.9472 47.8928 29.4691 48.7927C26.6589 49.8134 22.9041 50.375 18.8965 50.375C14.8908 50.375 11.1361 49.8134 8.32583 48.7927C5.84669 47.8928 4.36692 46.7055 4.36692 45.6168C4.36692 44.0009 7.77638 41.9128 14.1037 41.144C15.4261 42.7659 16.6986 44.2731 17.83 45.6117L18.2769 46.1409C18.4313 46.3237 18.6578 46.4293 18.8975 46.4293C19.1361 46.4293 19.3636 46.3237 19.518 46.1409L19.9456 45.6341C21.0872 44.2833 22.3658 42.771 23.6912 41.143C30.0175 41.9128 33.427 44.0009 33.427 45.6168ZM22.7243 39.7577C22.7213 39.7617 22.7183 39.7648 22.7152 39.7688C21.3695 41.4294 20.0654 42.9762 18.8965 44.3595C17.7468 42.9985 16.4407 41.4487 15.0838 39.7739C15.0787 39.7678 15.0747 39.7617 15.0696 39.7566C12.9804 37.177 10.7735 34.2987 8.83263 31.3493C5.03723 25.5805 3.13294 20.8142 3.17153 17.1823C3.21723 13.0254 4.84833 9.13047 7.76419 6.21461C10.7247 3.25508 14.6775 1.62398 18.8954 1.62398C22.7426 1.62398 26.3715 2.98086 29.2254 5.46508C27.6613 6.42688 26.3014 7.68727 25.2238 9.16805C23.418 7.7675 21.204 7.00477 18.8954 7.00477C13.1917 7.00477 8.5513 11.6452 8.5513 17.3489C8.5513 23.0527 13.1917 27.693 18.8954 27.693C21.204 27.693 23.418 26.9313 25.2248 25.5318C26.4801 27.2573 28.1204 28.6843 30.0186 29.6867C27.8441 33.2241 25.2147 36.6854 22.7243 39.7577ZM24.3433 10.5422C23.2108 12.5562 22.5639 14.8789 22.5639 17.3489C22.5639 19.8199 23.2108 22.1427 24.3433 24.1577C22.8005 25.3937 20.8901 26.0691 18.8965 26.0691C14.0885 26.0691 10.1763 22.1569 10.1763 17.3489C10.1763 12.5409 14.0885 8.62875 18.8965 8.62875C20.8922 8.62875 22.8015 9.30516 24.3433 10.5422ZM24.1879 17.3489C24.1879 10.5574 29.7139 5.03242 36.5064 5.03242C43.2989 5.03242 48.8249 10.5574 48.8249 17.3489C48.8249 24.1414 43.2989 29.6674 36.5064 29.6674C29.7149 29.6674 24.1879 24.1414 24.1879 17.3489ZM39.1033 31.0487C39.7909 30.9187 40.4602 30.7379 41.1092 30.5104L42.0943 34.187L40.0905 34.7242L39.1033 31.0487ZM44.8589 48.5123C44.1774 48.6952 43.4634 48.6007 42.8479 48.2452C42.2325 47.8898 41.7927 47.319 41.6109 46.6365L38.951 36.7108L44.0738 35.3387L46.7357 45.2634C47.1125 46.6761 46.2716 48.1345 44.8589 48.5123ZM41.9369 17.3489C41.9369 17.7978 41.5733 18.1604 41.1254 18.1604H36.5074C36.0595 18.1604 35.6959 17.7968 35.6959 17.3489V12.7309C35.6959 12.282 36.0595 11.9194 36.5074 11.9194C36.9563 11.9194 37.3189 12.283 37.3189 12.7309V16.5364H41.1244C41.5733 16.5374 41.9369 16.9 41.9369 17.3489Z" fill="black"/>
</g>
<defs>
<clipPath id="clip0_1036_13373">
<rect width="52" height="52" fill="white"/>
</clipPath>
</defs>
</svg>
