<svg width="32" height="32" viewBox="0 0 32 32" fill="none" xmlns="http://www.w3.org/2000/svg">
<g clip-path="url(#clip0_1044_14163)">
<path d="M29.9224 15.6376C28.9151 14.609 27.2594 14.591 26.2317 15.5973L26.1107 15.7156V6.88002C26.1107 6.63834 25.9148 6.44246 25.6732 6.44246H22.5019C22.2602 6.44246 22.0643 6.6384 22.0643 6.88002V17.4911C21.7502 17.2051 21.3596 17.0021 20.9269 16.917V10.705C20.9269 10.4633 20.731 10.2675 20.4893 10.2675H17.3198C17.0782 10.2675 16.8823 10.4634 16.8823 10.705V16.8721H16.061C15.9558 16.7936 15.8504 16.7203 15.7448 16.6501V8.44084C15.7448 8.19915 15.5489 8.00327 15.3073 8.00327H12.136C11.8943 8.00327 11.6985 8.19921 11.6985 8.44084V15.9796C11.3203 16.0996 10.9412 16.2703 10.5611 16.4906V11.1568C10.5611 10.9151 10.3652 10.7192 10.1235 10.7192H6.95403C6.71234 10.7192 6.51647 10.9151 6.51647 11.1568V19.4318L5.78241 18.6976C5.70034 18.6155 5.58903 18.5694 5.47297 18.5694C5.35691 18.5694 5.24559 18.6155 5.16353 18.6976L1.46409 22.3968C1.29322 22.5677 1.29322 22.8448 1.46409 23.0156L10.3206 31.8721C10.4027 31.9542 10.514 32.0003 10.6301 32.0003C10.7462 32.0003 10.8575 31.9542 10.9395 31.8721L14.637 28.1728C14.8078 28.002 14.8077 27.725 14.6369 27.5541L13.431 26.3479L14.2837 25.4964L22.2025 25.4912C23.1185 25.4912 23.9153 25.1661 24.5707 24.525L29.8823 19.3303C30.9114 18.3225 30.9294 16.666 29.9224 15.6376ZM25.2355 7.31765V16.5718L22.9395 18.8178V7.31765H25.2355ZM17.7573 11.1426H20.0517V16.8721H17.7573V11.1426ZM12.5735 8.87846H14.8695V16.1645C14.1117 15.8285 13.3455 15.705 12.5735 15.7919V8.87846ZM9.68572 11.5944V17.0856C9.66653 17.1006 9.64734 17.1147 9.62816 17.1299C9.62034 17.1361 9.61272 17.1426 9.60534 17.1493L7.39147 19.1671V11.5944H9.68572ZM10.63 30.9438L2.39234 22.7062L5.47266 19.6259L6.45284 20.6063C6.45422 20.6078 6.45534 20.6095 6.45678 20.611C6.46784 20.6232 6.47953 20.6344 6.49159 20.645L13.7087 27.8635L10.63 30.9438ZM29.2702 18.7048L23.9587 23.8993C23.4657 24.3816 22.8913 24.6161 22.2022 24.6161L14.1022 24.6214C13.9863 24.6215 13.8753 24.6675 13.7933 24.7493L12.8122 25.729L7.41453 20.3302L10.1837 17.8063C12.0724 16.3137 13.8586 16.2643 15.6442 17.6549C15.7211 17.7148 15.8157 17.7473 15.9131 17.7473H20.468C21.2944 17.7473 21.9668 18.4196 21.9668 19.2461C21.9668 19.2756 21.9657 19.305 21.964 19.3341C21.9634 19.3443 21.9625 19.3544 21.9617 19.3645C21.9602 19.3836 21.9583 19.4027 21.9562 19.4216C21.9548 19.4331 21.9534 19.4445 21.9518 19.4558C21.949 19.4752 21.9458 19.4945 21.9423 19.5138C21.9407 19.5229 21.9393 19.5321 21.9375 19.5411C21.9317 19.5698 21.9252 19.5984 21.9177 19.6267C21.9173 19.6283 21.9168 19.6297 21.9164 19.6313C21.9085 19.6606 21.8998 19.6898 21.8901 19.7186C21.8899 19.7192 21.8897 19.7198 21.8895 19.7204C21.8589 19.811 21.8193 19.8991 21.7707 19.9845C21.7672 19.9907 21.7642 19.9972 21.761 20.0035C21.5004 20.4477 21.0185 20.7468 20.4678 20.7468H14.1025C13.8608 20.7468 13.6649 20.9427 13.6649 21.1843C13.6649 21.426 13.8608 21.6219 14.1025 21.6219H20.468C21.33 21.6219 22.086 21.1596 22.502 20.47L25.9665 17.081C25.9752 17.0731 25.9837 17.0649 25.9917 17.0563L26.8438 16.2228C27.5269 15.554 28.6273 15.5661 29.2971 16.25C29.9664 16.9335 29.9543 18.0348 29.2702 18.7048ZM7.34159 8.79721C7.17316 8.6239 7.17709 8.34684 7.35041 8.1784L11.9443 3.71384C12.0627 3.59877 12.2358 3.56009 12.3919 3.61396L18.4395 5.69865L24.2425 0.874148H22.6914C22.4497 0.874148 22.2538 0.678211 22.2538 0.436586C22.2538 0.194961 22.4498 -0.000976562 22.6914 -0.000976562H25.3578C25.5995 -0.000976562 25.7953 0.194961 25.7953 0.436586V3.10465C25.7953 3.34634 25.5994 3.54221 25.3578 3.54221C25.1162 3.54221 24.9202 3.34627 24.9202 3.10465V1.44884L18.8096 6.52909C18.692 6.6269 18.532 6.65615 18.3872 6.60627L12.3612 4.52902L7.96041 8.80596C7.87534 8.88859 7.76534 8.92971 7.65547 8.92971C7.54134 8.92984 7.42734 8.88552 7.34159 8.79721Z" fill="black"/>
</g>
<defs>
<clipPath id="clip0_1044_14163">
<rect width="32" height="32" fill="white"/>
</clipPath>
</defs>
</svg>
