<svg width="52" height="52" viewBox="0 0 52 52" fill="none" xmlns="http://www.w3.org/2000/svg">
<path d="M44.8229 48.75H8.80208C6.18773 48.75 4.0625 46.6229 4.0625 44.0104V7.98958C4.0625 5.37713 6.18773 3.25 8.80208 3.25H44.8229C47.4373 3.25 49.5625 5.37713 49.5625 7.98958V44.0104C49.5625 46.6229 47.4373 48.75 44.8229 48.75ZM8.80208 5.14583C7.23423 5.14583 5.95833 6.42173 5.95833 7.98958V44.0104C5.95833 45.5783 7.23423 46.8542 8.80208 46.8542H44.8229C46.3908 46.8542 47.6667 45.5783 47.6667 44.0104V7.98958C47.6667 6.42173 46.3908 5.14583 44.8229 5.14583H8.80208Z" fill="black"/>
<path d="M41.0312 26.0007C40.508 26.0007 40.0833 25.576 40.0833 25.0527V12.7298H27.7604C27.2372 12.7298 26.8125 12.3052 26.8125 11.7819C26.8125 11.2587 27.2372 10.834 27.7604 10.834H41.0312C41.5545 10.834 41.9792 11.2587 41.9792 11.7819V25.0527C41.9792 25.576 41.5545 26.0007 41.0312 26.0007Z" fill="black"/>
<path d="M23.964 29.7929C23.7213 29.7929 23.4787 29.7 23.2929 29.5161C22.9232 29.1464 22.9232 28.5454 23.2929 28.1757L40.3554 11.1132C40.7251 10.7435 41.3261 10.7435 41.6957 11.1132C42.0654 11.4829 42.0654 12.0839 41.6957 12.4536L24.6332 29.5161C24.4493 29.7 24.2067 29.7929 23.964 29.7929Z" fill="black"/>
<path d="M20.1771 48.75C19.6538 48.75 19.2292 48.3253 19.2292 47.8021V33.5833H5.01042C4.48717 33.5833 4.0625 33.1587 4.0625 32.6354C4.0625 32.1122 4.48717 31.6875 5.01042 31.6875H20.1771C20.7003 31.6875 21.125 32.1122 21.125 32.6354V47.8021C21.125 48.3253 20.7003 48.75 20.1771 48.75Z" fill="black"/>
</svg>
