<svg width="33" height="32" viewBox="0 0 33 32" fill="none" xmlns="http://www.w3.org/2000/svg">
<path d="M28.446 22.857C28.4331 22.8578 28.4203 22.8547 28.4093 22.8481C28.3982 22.8415 28.3894 22.8317 28.384 22.82C28.2828 22.4969 28.1526 22.1837 27.995 21.884C27.99 21.8714 27.9891 21.8576 27.9923 21.8444C27.9955 21.8312 28.0028 21.8194 28.013 21.8105C28.21 21.6125 28.3206 21.3446 28.3206 21.0653C28.3206 20.7859 28.21 20.518 28.013 20.32L27.181 19.4885C27.0835 19.3899 26.9674 19.3117 26.8394 19.2585C26.7114 19.2053 26.5741 19.1781 26.4355 19.1785C26.2967 19.1781 26.1593 19.2053 26.0311 19.2585C25.903 19.3117 25.7867 19.3899 25.689 19.4885C25.6804 19.4985 25.6688 19.5055 25.656 19.5085C25.6432 19.5116 25.6297 19.5105 25.6175 19.5055C25.3177 19.3478 25.0043 19.2176 24.681 19.1165C24.6692 19.1111 24.6593 19.1022 24.6526 19.0911C24.6459 19.0799 24.6427 19.067 24.6435 19.054C24.6431 18.7744 24.5318 18.5064 24.334 18.3088C24.1362 18.1112 23.8681 18.0001 23.5885 18H23.5V1.5C23.5 1.36739 23.4473 1.24021 23.3536 1.14645C23.2598 1.05268 23.1326 1 23 1H4C3.86739 1 3.74021 1.05268 3.64645 1.14645C3.55268 1.24021 3.5 1.36739 3.5 1.5V27.5C3.5 27.6326 3.55268 27.7598 3.64645 27.8536C3.74021 27.9473 3.86739 28 4 28H17.686C17.6995 28.2557 17.8062 28.4976 17.986 28.68L18.818 29.5115C18.9155 29.6101 19.0316 29.6883 19.1596 29.7415C19.2876 29.7947 19.4249 29.8219 19.5635 29.8215C19.7023 29.8219 19.8397 29.7947 19.9679 29.7415C20.096 29.6883 20.2123 29.6101 20.31 29.5115C20.3189 29.502 20.3305 29.4952 20.3432 29.4922C20.3559 29.4892 20.3692 29.49 20.3815 29.4945C20.6813 29.6522 20.9947 29.7824 21.318 29.8835C21.3298 29.8889 21.3397 29.8978 21.3464 29.9089C21.3531 29.9201 21.3563 29.933 21.3555 29.946C21.3559 30.2258 21.4673 30.4939 21.6654 30.6916C21.8634 30.8892 22.1317 31.0001 22.4115 31H23.5885C23.868 30.9997 24.136 30.8886 24.3337 30.691C24.5314 30.4934 24.6426 30.2255 24.643 29.946C24.6422 29.9332 24.6452 29.9204 24.6517 29.9094C24.6582 29.8983 24.6679 29.8895 24.6795 29.884C25.003 29.7828 25.3166 29.6524 25.6165 29.4945C25.6289 29.4897 25.6424 29.4889 25.6552 29.492C25.6681 29.4951 25.6797 29.5021 25.6885 29.512C25.7863 29.6103 25.9025 29.6882 26.0306 29.7413C26.1586 29.7945 26.2959 29.8217 26.4345 29.8215C26.573 29.8219 26.7102 29.7947 26.8381 29.7416C26.966 29.6884 27.082 29.6104 27.1795 29.512L28.0125 28.6795C28.2097 28.4815 28.3204 28.2134 28.3204 27.934C28.3204 27.6546 28.2097 27.3865 28.0125 27.1885C28.0028 27.1796 27.996 27.1679 27.993 27.1551C27.9901 27.1422 27.9911 27.1288 27.996 27.1165C28.1556 26.8125 28.287 26.4945 28.3885 26.1665C28.392 26.1545 28.4115 26.1415 28.447 26.1415C28.7261 26.1408 28.9935 26.0297 29.1909 25.8324C29.3882 25.635 29.4993 25.3676 29.5 25.0885V23.9115C29.4997 23.632 29.3886 23.364 29.191 23.1663C28.9934 22.9686 28.7255 22.8574 28.446 22.857ZM4.5 27V2H22.5V18H22.4115C22.2722 18.0005 22.1343 18.0286 22.0058 18.0825C21.8773 18.1364 21.7607 18.2152 21.6628 18.3143C21.5648 18.4134 21.4874 18.5308 21.4349 18.6599C21.3824 18.789 21.3559 18.9272 21.357 19.0665C21.3575 19.0757 21.3555 19.0848 21.3512 19.0929C21.3469 19.1011 21.3404 19.1078 21.3325 19.1125C21.0043 19.2138 20.6863 19.3453 20.3825 19.5055C20.3702 19.5104 20.3566 19.5114 20.3437 19.5082C20.3308 19.5051 20.3192 19.498 20.3105 19.488C20.2127 19.3897 20.0965 19.3118 19.9684 19.2587C19.8404 19.2055 19.7031 19.1783 19.5645 19.1785C19.426 19.1781 19.2888 19.2053 19.1609 19.2584C19.033 19.3116 18.917 19.3896 18.8195 19.488L17.9865 20.3205C17.7893 20.5185 17.6786 20.7866 17.6786 21.066C17.6786 21.3454 17.7893 21.6135 17.9865 21.8115C17.9962 21.8204 18.003 21.8321 18.006 21.8449C18.0091 21.8577 18.0082 21.8712 18.0035 21.8835C17.8456 22.1833 17.7153 22.4967 17.614 22.82C17.6086 22.8317 17.5998 22.8415 17.5887 22.8481C17.5777 22.8547 17.5649 22.8578 17.552 22.857C17.2728 22.8579 17.0054 22.9694 16.8083 23.167C16.6111 23.3647 16.5003 23.6323 16.5 23.9115V25.0885C16.5003 25.368 16.6114 25.636 16.809 25.8337C17.0066 26.0314 17.2745 26.1426 17.554 26.143C17.5669 26.1422 17.5797 26.1453 17.5907 26.1519C17.6018 26.1585 17.6106 26.1683 17.616 26.18C17.7056 26.4617 17.8173 26.7359 17.95 27H4.5ZM28.5 25.0885C28.5 25.1185 28.4755 25.143 28.434 25.143C28.2112 25.1413 27.9937 25.2112 27.8137 25.3425C27.6337 25.4737 27.5005 25.6594 27.434 25.872C27.3508 26.1412 27.2429 26.4022 27.1115 26.6515C27.0064 26.8524 26.9687 27.0818 27.0039 27.3058C27.0391 27.5298 27.1454 27.7365 27.307 27.8955C27.3172 27.9058 27.323 27.9197 27.323 27.9342C27.323 27.9488 27.3172 27.9627 27.307 27.973L26.473 28.805H26.3955C26.2365 28.6429 26.0294 28.5364 25.805 28.5013C25.5807 28.4661 25.351 28.5043 25.15 28.61C24.9038 28.7396 24.6462 28.8463 24.3805 28.929C24.1648 28.9972 23.9767 29.1328 23.8438 29.3159C23.7108 29.4989 23.6401 29.7198 23.642 29.946C23.6419 29.9604 23.6361 29.9741 23.6259 29.9842C23.6157 29.9943 23.6019 30 23.5875 30H22.4115C22.3971 30 22.3833 29.9943 22.3731 29.9842C22.3629 29.9741 22.3571 29.9604 22.357 29.946C22.3588 29.7196 22.2879 29.4986 22.1548 29.3155C22.0217 29.1324 21.8334 28.9967 21.6175 28.9285C21.3525 28.8459 21.0956 28.7393 20.85 28.61C20.6995 28.5305 20.5318 28.4889 20.3615 28.489C20.2209 28.4893 20.0817 28.5173 19.952 28.5716C19.8222 28.6258 19.7045 28.7051 19.6055 28.805H19.5285L18.695 27.9735C18.6899 27.9684 18.6858 27.9623 18.683 27.9556C18.6802 27.9489 18.6788 27.9417 18.6788 27.9345C18.6788 27.9273 18.6802 27.9201 18.683 27.9134C18.6858 27.9067 18.6899 27.9006 18.695 27.8955C18.8569 27.7363 18.9633 27.5293 18.9984 27.305C19.0335 27.0807 18.9955 26.851 18.89 26.65C18.7607 26.404 18.654 26.1468 18.571 25.8815C18.5031 25.6655 18.3676 25.4771 18.1845 25.344C18.0014 25.2108 17.7804 25.14 17.554 25.142C17.5398 25.1419 17.5262 25.1362 17.5161 25.1262C17.506 25.1162 17.5003 25.1027 17.5 25.0885V23.9115C17.5 23.8971 17.5057 23.8833 17.5158 23.8731C17.5259 23.8629 17.5396 23.8571 17.554 23.857C17.7804 23.859 18.0014 23.7882 18.1845 23.655C18.3676 23.5219 18.5031 23.3335 18.571 23.1175C18.654 22.852 18.761 22.5946 18.8905 22.3485C18.9956 22.1476 19.0333 21.9182 18.9981 21.6942C18.9629 21.4702 18.8566 21.2635 18.695 21.1045C18.6848 21.0942 18.679 21.0803 18.679 21.0658C18.679 21.0512 18.6848 21.0373 18.695 21.027L19.5275 20.195H19.605C19.7641 20.3567 19.971 20.4629 20.1951 20.4979C20.4192 20.5329 20.6487 20.4949 20.8495 20.3895C21.099 20.2585 21.3599 20.1506 21.629 20.067C21.8435 19.9993 22.0304 19.864 22.1617 19.6813C22.293 19.4987 22.3617 19.2784 22.3575 19.0535C22.3578 19.0393 22.3635 19.0258 22.3736 19.0158C22.3837 19.0058 22.3973 19.0001 22.4115 19H23.5885C23.6029 19 23.6167 19.0057 23.6269 19.0158C23.6371 19.0259 23.6429 19.0396 23.643 19.054C23.6412 19.2804 23.7121 19.5014 23.8452 19.6845C23.9783 19.8676 24.1666 20.0033 24.3825 20.0715C24.648 20.154 24.9054 20.2607 25.1515 20.39C25.3523 20.4957 25.5819 20.5338 25.806 20.4986C26.0302 20.4635 26.2371 20.357 26.396 20.195H26.473L27.305 21.0265C27.3101 21.0316 27.3142 21.0377 27.317 21.0444C27.3198 21.0511 27.3212 21.0583 27.3212 21.0655C27.3212 21.0727 27.3198 21.0799 27.317 21.0866C27.3142 21.0933 27.3101 21.0994 27.305 21.1045C27.1431 21.2637 27.0367 21.4707 27.0016 21.695C26.9665 21.9193 27.0045 22.149 27.11 22.35C27.2393 22.596 27.346 22.8532 27.429 23.1185C27.4969 23.3345 27.6324 23.5229 27.8155 23.656C27.9986 23.7892 28.2196 23.86 28.446 23.858C28.4604 23.8581 28.4741 23.8639 28.4842 23.8741C28.4943 23.8843 28.5 23.8981 28.5 23.9125V25.0885Z" fill="black"/>
<path d="M23 21C22.3078 21 21.6311 21.2053 21.0555 21.5899C20.4799 21.9744 20.0313 22.5211 19.7664 23.1606C19.5015 23.8001 19.4322 24.5039 19.5673 25.1828C19.7023 25.8617 20.0356 26.4854 20.5251 26.9749C21.0146 27.4644 21.6383 27.7977 22.3172 27.9327C22.9961 28.0678 23.6999 27.9985 24.3394 27.7336C24.9789 27.4687 25.5256 27.0201 25.9101 26.4445C26.2947 25.8689 26.5 25.1922 26.5 24.5C26.4989 23.5721 26.1299 22.6824 25.4737 22.0263C24.8176 21.3701 23.9279 21.0011 23 21ZM23 27C22.5055 27 22.0222 26.8534 21.6111 26.5787C21.2 26.304 20.8795 25.9135 20.6903 25.4567C20.5011 24.9999 20.4516 24.4972 20.548 24.0123C20.6445 23.5273 20.8826 23.0819 21.2322 22.7322C21.5819 22.3826 22.0273 22.1445 22.5123 22.048C22.9972 21.9516 23.4999 22.0011 23.9567 22.1903C24.4135 22.3795 24.804 22.7 25.0787 23.1111C25.3534 23.5222 25.5 24.0055 25.5 24.5C25.4992 25.1628 25.2356 25.7982 24.7669 26.2669C24.2982 26.7356 23.6628 26.9992 23 27Z" fill="black"/>
<path d="M7.67181 8.70692L6.96481 7.99992L6.25781 8.70692L7.31831 9.76742C7.41208 9.86116 7.53923 9.91382 7.67181 9.91382C7.80439 9.91382 7.93155 9.86116 8.02531 9.76742L10.8538 6.93942L10.1468 6.23242L7.67181 8.70692Z" fill="black"/>
<path d="M7.67181 15.2069L6.96481 14.4999L6.25781 15.2069L7.31831 16.2674C7.41208 16.3612 7.53923 16.4138 7.67181 16.4138C7.80439 16.4138 7.93155 16.3612 8.02531 16.2674L10.8538 13.4394L10.1468 12.7324L7.67181 15.2069Z" fill="black"/>
<path d="M7.67181 21.7069L6.96481 20.9999L6.25781 21.7069L7.31831 22.7674C7.41208 22.8612 7.53923 22.9138 7.67181 22.9138C7.80439 22.9138 7.93155 22.8612 8.02531 22.7674L10.8538 19.9394L10.1468 19.2324L7.67181 21.7069Z" fill="black"/>
<path d="M12.5 7.5H21V8.5H12.5V7.5Z" fill="black"/>
<path d="M12.5 14H21V15H12.5V14Z" fill="black"/>
<path d="M12.5 20.5H16.5V21.5H12.5V20.5Z" fill="black"/>
</svg>
