<svg width="80" height="80" viewBox="0 0 80 80" fill="none" xmlns="http://www.w3.org/2000/svg">
<g clip-path="url(#clip0_87_1625)">
<path d="M33.3333 46.6667V0H8.33333C3.74 0 0 3.73667 0 8.33333V71.6667C0 76.2633 3.74 80 8.33333 80H71.6667C76.2633 80 80 76.2633 80 71.6667V46.6667H33.3333ZM76.6667 71.6667C76.6667 74.4233 74.4233 76.6667 71.6667 76.6667H8.33333C5.57667 76.6667 3.33333 74.4233 3.33333 71.6667V8.33333C3.33333 5.57667 5.57667 3.33333 8.33333 3.33333H30V13.3333H16.6667V16.6667H30V30H16.6667V33.3333H30V46.6667H16.6667V50H30V63.3333H33.3333V50H46.6667V63.3333H50V50H63.3333V63.3333H66.6667V50H76.6667V71.6667Z" fill="black"/>
</g>
<defs>
<clipPath id="clip0_87_1625">
<rect width="80" height="80" fill="white"/>
</clipPath>
</defs>
</svg>
