<svg width="52" height="52" viewBox="0 0 52 52" fill="none" xmlns="http://www.w3.org/2000/svg">
<path d="M48.6306 10.2809L39.3449 6.56664C39.1232 6.47779 38.8757 6.47779 38.654 6.56664L29.3683 10.2809C29.1962 10.3499 29.0486 10.4689 28.9447 10.6224C28.8408 10.776 28.7852 10.9572 28.7852 11.1426V20.7404C28.79 22.5039 29.2489 24.2364 30.1177 25.7711C30.9865 27.3057 32.2359 28.5908 33.7456 29.5024L38.5222 32.3679C38.6664 32.4543 38.8313 32.5 38.9994 32.5C39.1676 32.5 39.3325 32.4543 39.4767 32.3679L43.6423 29.8682V40.2682C43.6418 40.672 43.4812 41.059 43.1957 41.3445C42.9102 41.63 42.5232 41.7906 42.1194 41.7911H6.16516C5.76142 41.7906 5.37436 41.63 5.08888 41.3445C4.80339 41.059 4.64279 40.672 4.6423 40.2682V19.4998H25.9994C26.2457 19.4998 26.4819 19.402 26.656 19.2278C26.8302 19.0537 26.928 18.8175 26.928 18.5712C26.928 18.3249 26.8302 18.0888 26.656 17.9146C26.4819 17.7405 26.2457 17.6426 25.9994 17.6426H4.6423V15.4512C4.64279 15.0475 4.80339 14.6604 5.08888 14.3749C5.37436 14.0894 5.76142 13.9288 6.16516 13.9284H25.9994C26.2457 13.9284 26.4819 13.8305 26.656 13.6564C26.8302 13.4822 26.928 13.2461 26.928 12.9998C26.928 12.7535 26.8302 12.5173 26.656 12.3432C26.4819 12.169 26.2457 12.0712 25.9994 12.0712H6.16516C5.26888 12.0717 4.40945 12.428 3.77568 13.0617C3.14191 13.6955 2.78565 14.5549 2.78516 15.4512V40.2626C2.78565 41.1589 3.14191 42.0184 3.77568 42.6521C4.40945 43.2859 5.26888 43.6422 6.16516 43.6426H42.1194C43.0157 43.6422 43.8752 43.2859 44.5089 42.6521C45.1427 42.0184 45.499 41.1589 45.4994 40.2626V28.5998C46.6562 27.6407 47.5883 26.4395 48.2301 25.0808C48.8719 23.7222 49.2077 22.2392 49.2137 20.7366V11.1426C49.2137 10.9572 49.1581 10.776 49.0542 10.6224C48.9503 10.4689 48.8027 10.3499 48.6306 10.2809ZM47.3566 20.7404C47.3528 22.1834 46.9772 23.601 46.2661 24.8567C45.5551 26.1123 44.5324 27.1635 43.2969 27.9089L38.9994 30.4885L34.702 27.9089C33.4665 27.1635 32.4438 26.1123 31.7327 24.8567C31.0217 23.601 30.6461 22.1834 30.6423 20.7404V11.7704L38.9994 8.4275L47.3566 11.7704V20.7404Z" fill="black"/>
<path d="M35.942 18.0733C35.8558 17.9869 35.7534 17.9184 35.6407 17.8716C35.528 17.8249 35.4072 17.8008 35.2852 17.8007C35.1632 17.8006 35.0424 17.8245 34.9296 17.8711C34.8169 17.9178 34.7144 17.9861 34.6281 18.0723C34.5417 18.1585 34.4732 18.2609 34.4264 18.3736C34.3797 18.4863 34.3556 18.6071 34.3555 18.7291C34.3554 18.8511 34.3793 18.9719 34.4259 19.0847C34.4726 19.1975 34.5409 19.2999 34.6271 19.3863L37.1046 21.8618C37.2787 22.0359 37.5148 22.1337 37.7611 22.1337C38.0073 22.1337 38.2434 22.0359 38.4176 21.8618L43.3706 16.9088C43.5447 16.7345 43.6424 16.4981 43.6422 16.2517C43.642 16.0053 43.544 15.769 43.3696 15.5949C43.1953 15.4208 42.9589 15.3231 42.7125 15.3232C42.4661 15.3234 42.2298 15.4215 42.0557 15.5958L37.7601 19.8933L35.942 18.0733Z" fill="black"/>
<path d="M9.28404 36.2139C9.03777 36.2139 8.80158 36.3117 8.62744 36.4858C8.4533 36.66 8.35547 36.8962 8.35547 37.1424C8.35547 37.3887 8.4533 37.6249 8.62744 37.799C8.80158 37.9732 9.03777 38.071 9.28404 38.071H16.7126C16.9589 38.071 17.1951 37.9732 17.3692 37.799C17.5434 37.6249 17.6412 37.3887 17.6412 37.1424C17.6412 36.8962 17.5434 36.66 17.3692 36.4858C17.1951 36.3117 16.9589 36.2139 16.7126 36.2139H9.28404Z" fill="black"/>
</svg>
