<svg width="401" height="400" viewBox="0 0 401 400" fill="none" xmlns="http://www.w3.org/2000/svg">
<path d="M174.539 252.084H226.622C235.251 252.084 242.247 245.089 242.247 236.459V189.585C242.247 180.955 235.251 173.96 226.622 173.96V163.543C226.622 149.161 214.963 137.502 200.58 137.502C186.198 137.502 174.539 149.161 174.539 163.543V173.96C165.91 173.96 158.914 180.955 158.914 189.585V236.459C158.914 245.089 165.91 252.084 174.539 252.084ZM184.955 163.543C184.955 154.914 191.951 147.919 200.58 147.919C209.21 147.919 216.205 154.914 216.205 163.543V173.96H184.955V163.543ZM169.331 189.585C169.331 186.708 171.662 184.377 174.539 184.377H226.622C229.498 184.377 231.83 186.708 231.83 189.585V236.459C231.83 239.336 229.498 241.668 226.622 241.668H174.539C171.662 241.668 169.331 239.336 169.331 236.459V189.585Z" fill="black"/>
<path d="M195.363 225.083V226.041C195.363 228.917 197.695 231.249 200.572 231.249C203.448 231.249 205.78 228.917 205.78 226.041V225.083C212.955 222.546 217.258 215.209 215.971 207.709C214.685 200.209 208.182 194.727 200.572 194.727C192.962 194.727 186.459 200.209 185.172 207.709C183.885 215.209 188.189 222.546 195.363 225.083ZM200.572 205.208C203.448 205.208 205.78 207.54 205.78 210.416C205.78 213.293 203.448 215.624 200.572 215.624C197.695 215.624 195.363 213.293 195.363 210.416C195.363 207.54 197.695 205.208 200.572 205.208Z" fill="black"/>
<path d="M112.039 200C112.039 248.9 151.68 288.541 200.58 288.541C249.48 288.541 289.121 248.9 289.121 200C289.121 151.1 249.48 111.459 200.58 111.459C151.703 111.514 112.094 151.123 112.039 200ZM200.58 121.876C243.727 121.876 278.704 156.853 278.704 200C278.704 243.147 243.727 278.124 200.58 278.124C157.433 278.124 122.456 243.147 122.456 200C122.504 156.873 157.453 121.924 200.58 121.876Z" fill="black"/>
<path d="M304.747 314.582C295.276 314.618 287.021 321.037 284.653 330.207H247.456V298.723C259.1 293.241 269.681 285.738 278.705 276.562C280.039 275.239 280.558 273.301 280.063 271.489C279.567 269.677 278.134 268.272 276.313 267.813C274.491 267.353 272.564 267.91 271.268 269.27C262.425 278.311 251.927 285.569 240.346 290.65C239.647 290.928 239.017 291.356 238.503 291.905C238.445 291.968 238.414 292.051 238.357 292.124C237.976 292.548 237.668 293.032 237.445 293.556C237.343 293.883 237.275 294.22 237.242 294.561C237.145 294.856 237.077 295.16 237.039 295.468V295.561V330.207C237.039 335.96 241.703 340.624 247.456 340.624H284.653C287.378 351.08 297.657 357.707 308.305 355.874C318.954 354.041 326.425 344.358 325.498 333.593C324.57 322.828 315.552 314.566 304.747 314.582ZM304.747 345.832C298.994 345.832 294.33 341.168 294.33 335.415C294.33 329.662 298.994 324.999 304.747 324.999C310.5 324.999 315.163 329.662 315.163 335.415C315.163 341.168 310.5 345.832 304.747 345.832Z" fill="black"/>
<path d="M85.2547 257.291H110.421C110.463 257.291 110.499 257.265 110.546 257.265C111.064 257.241 111.576 257.138 112.062 256.957C112.305 256.878 112.541 256.78 112.77 256.666C112.827 256.634 112.895 256.624 112.952 256.588C113.01 256.551 113.098 256.442 113.182 256.384C113.654 256.093 114.073 255.723 114.421 255.291C114.483 255.21 114.54 255.127 114.593 255.041C114.93 254.566 115.184 254.038 115.343 253.478C115.343 253.4 115.374 253.322 115.39 253.244C115.516 252.868 115.596 252.478 115.629 252.082C115.603 251.886 115.563 251.691 115.51 251.499C115.51 251.431 115.51 251.369 115.473 251.296C115.385 250.685 115.185 250.096 114.885 249.556L114.859 249.473C109.518 240.254 105.715 230.227 103.598 219.786C103.023 216.967 100.271 215.148 97.4525 215.723C94.6336 216.299 92.8148 219.05 93.3901 221.869C95.1424 230.51 97.9408 238.905 101.723 246.869H85.2547C82.632 236.711 72.8653 230.088 62.4581 231.41C52.0508 232.732 44.25 241.586 44.25 252.077C44.25 262.568 52.0508 271.422 62.4581 272.744C72.8653 274.066 82.632 267.448 85.2547 257.291ZM65.1612 262.499C59.4083 262.499 54.7446 257.835 54.7446 252.082C54.7446 246.33 59.4083 241.666 65.1612 241.666C70.9141 241.666 75.5777 246.33 75.5777 252.082C75.5777 257.835 70.9141 262.499 65.1612 262.499Z" fill="black"/>
<path d="M44.3203 147.917C44.3073 158.395 52.093 167.245 62.4871 168.568C72.8811 169.891 82.6354 163.272 85.247 153.125H110.413H110.554C111.068 153.096 111.575 152.992 112.059 152.818C112.288 152.745 112.511 152.654 112.726 152.547C113.004 152.401 113.265 152.226 113.507 152.026C113.947 151.695 114.327 151.292 114.632 150.834C114.7 150.735 114.788 150.662 114.851 150.558C121.529 138.968 130.492 128.856 141.194 120.834C142.683 119.717 143.463 117.892 143.24 116.044C143.018 114.197 141.827 112.609 140.115 111.878C138.404 111.147 136.433 111.384 134.944 112.501C123.984 120.757 114.677 131.005 107.512 142.709H85.247C82.6354 132.562 72.8811 125.943 62.4871 127.266C52.093 128.589 44.3073 137.439 44.3203 147.917ZM75.57 147.917C75.57 153.67 70.9064 158.334 65.1535 158.334C59.4006 158.334 54.7369 153.67 54.7369 147.917C54.7369 142.164 59.4006 137.5 65.1535 137.5C67.9161 137.5 70.5656 138.598 72.5191 140.551C74.4726 142.505 75.57 145.154 75.57 147.917Z" fill="black"/>
<path d="M335.992 231.251C326.521 231.286 318.266 237.705 315.898 246.875H299.424C303.21 238.913 306.009 230.517 307.758 221.876C308.333 219.055 306.513 216.303 303.693 215.727C300.872 215.152 298.119 216.972 297.544 219.792C295.431 230.233 291.632 240.26 286.294 249.48V249.547C285.983 250.098 285.778 250.702 285.69 251.328C285.69 251.386 285.69 251.438 285.654 251.495C285.6 251.689 285.556 251.885 285.523 252.084C285.555 252.493 285.635 252.897 285.763 253.287C285.763 253.355 285.763 253.422 285.805 253.49C285.966 254.052 286.226 254.58 286.57 255.052C286.622 255.131 286.664 255.209 286.721 255.282C287.074 255.716 287.497 256.089 287.971 256.386C288.055 256.443 288.107 256.532 288.195 256.584C288.284 256.636 288.32 256.631 288.378 256.662C288.609 256.78 288.849 256.879 289.096 256.959C289.58 257.133 290.088 257.235 290.602 257.261C290.648 257.261 290.685 257.287 290.732 257.287H315.898C318.621 267.744 328.899 274.375 339.549 272.543C350.199 270.712 357.671 261.029 356.744 250.262C355.816 239.496 346.798 231.234 335.992 231.251ZM335.992 262.5C330.239 262.5 325.575 257.837 325.575 252.084C325.575 246.331 330.239 241.667 335.992 241.667C341.745 241.667 346.408 246.331 346.408 252.084C346.408 257.837 341.745 262.5 335.992 262.5Z" fill="black"/>
<path d="M164.119 295.556V295.467C164.086 295.175 164.028 294.886 163.947 294.603C163.91 294.249 163.839 293.9 163.733 293.561C163.514 293.045 163.212 292.568 162.838 292.15C162.77 292.072 162.739 291.978 162.671 291.905C162.154 291.356 161.523 290.927 160.822 290.65C147.189 284.633 135.076 275.638 125.374 264.327C124.181 262.858 122.285 262.152 120.421 262.483C118.558 262.813 117.02 264.129 116.406 265.919C115.791 267.709 116.196 269.692 117.463 271.098C127.479 282.756 139.823 292.191 153.702 298.795V330.207H116.505C113.882 320.049 104.115 313.426 93.7081 314.748C83.3008 316.07 75.5 324.924 75.5 335.415C75.5 345.906 83.3008 354.76 93.7081 356.082C104.115 357.404 113.882 350.781 116.505 340.623H153.702C159.455 340.623 164.119 335.959 164.119 330.207V295.556ZM96.4112 345.831C90.6583 345.831 85.9946 341.168 85.9946 335.415C85.9946 329.662 90.6583 324.998 96.4112 324.998C102.164 324.998 106.828 329.662 106.828 335.415C106.828 341.168 102.164 345.831 96.4112 345.831Z" fill="black"/>
<path d="M220.37 296.98C207.306 299.603 193.851 299.603 180.787 296.98C178.944 296.557 177.017 297.166 175.752 298.571C174.487 299.976 174.083 301.956 174.696 303.745C175.309 305.533 176.843 306.849 178.704 307.183C184.202 308.251 189.774 308.897 195.37 309.115V351.042C195.37 353.918 197.702 356.25 200.578 356.25C203.455 356.25 205.787 353.918 205.787 351.042V309.115C211.383 308.897 216.955 308.251 222.453 307.183C225.209 306.55 226.957 303.835 226.392 301.064C225.826 298.294 223.153 296.481 220.37 296.98Z" fill="black"/>
<path d="M153.702 59.3764H116.505C113.882 49.2186 104.115 42.5957 93.7081 43.9176C83.3008 45.2395 75.5 54.0938 75.5 64.5847C75.5 75.0756 83.3008 83.9299 93.7081 85.2518C104.115 86.5737 113.882 79.9507 116.505 69.793H153.702V104.543C153.702 104.751 153.801 104.954 153.827 105.162C153.882 105.702 154.021 106.229 154.239 106.725C154.455 107.189 154.743 107.616 155.093 107.991C155.267 108.179 155.457 108.354 155.661 108.511C155.916 108.72 156.189 108.905 156.478 109.063C156.719 109.197 156.97 109.312 157.228 109.407C157.601 109.525 157.985 109.602 158.374 109.636C158.545 109.683 158.719 109.72 158.895 109.746C159.641 109.73 160.375 109.552 161.046 109.225C167.391 106.474 174.007 104.396 180.785 103.027C183.606 102.452 185.426 99.699 184.85 96.8786C184.275 94.0583 181.522 92.2383 178.702 92.8136C173.752 93.8264 168.879 95.1838 164.119 96.876V69.793C164.119 64.04 159.455 59.3764 153.702 59.3764ZM96.4112 75.0012C90.6583 75.0012 85.9946 70.3376 85.9946 64.5847C85.9946 58.8318 90.6583 54.1681 96.4112 54.1681C102.164 54.1681 106.828 58.8318 106.828 64.5847C106.828 67.3473 105.73 69.9968 103.777 71.9503C101.823 73.9038 99.1738 75.0012 96.4112 75.0012Z" fill="black"/>
<path d="M284.653 69.793C287.276 79.9507 297.043 86.5737 307.45 85.2518C317.857 83.9299 325.658 75.0756 325.658 64.5847C325.658 54.0938 317.857 45.2395 307.45 43.9176C297.043 42.5957 287.276 49.2186 284.653 59.3764H247.456C241.703 59.3764 237.039 64.04 237.039 69.793V104.433V104.527C237.071 104.834 237.132 105.138 237.221 105.433C237.254 105.774 237.322 106.111 237.424 106.438C237.647 106.963 237.955 107.447 238.336 107.871C238.393 107.938 238.424 108.027 238.482 108.089C238.997 108.638 239.626 109.067 240.325 109.345C251.904 114.418 262.402 121.667 271.247 130.699C272.524 132.118 274.476 132.725 276.333 132.279C278.19 131.834 279.654 130.409 280.149 128.565C280.644 126.72 280.09 124.753 278.705 123.438C269.681 114.262 259.1 106.759 247.456 101.277V69.793H284.653ZM304.747 54.1681C310.5 54.1681 315.163 58.8318 315.163 64.5847C315.163 70.3376 310.5 75.0012 304.747 75.0012C298.994 75.0012 294.33 70.3376 294.33 64.5847C294.33 58.8318 298.994 54.1681 304.747 54.1681Z" fill="black"/>
<path d="M200.575 43.752C197.699 43.752 195.367 46.0838 195.367 48.9602V95.8348C195.367 98.7112 197.699 101.043 200.575 101.043C207.222 101.042 213.852 101.705 220.367 103.022C220.71 103.093 221.059 103.128 221.409 103.126C224.075 103.116 226.303 101.094 226.571 98.4418C226.839 95.7893 225.06 93.3626 222.45 92.8192C216.952 91.7506 211.38 91.1046 205.784 90.8869V48.9602C205.784 46.0838 203.452 43.752 200.575 43.752Z" fill="black"/>
<path d="M315.898 153.125C318.521 163.283 328.288 169.906 338.695 168.584C349.102 167.262 356.903 158.408 356.903 147.917C356.903 137.426 349.102 128.572 338.695 127.25C328.288 125.928 318.521 132.551 315.898 142.708H290.732C290.633 142.708 290.555 142.761 290.461 142.761C290.159 142.793 289.861 142.854 289.57 142.943C289.142 143.027 288.727 143.167 288.336 143.359C288.294 143.359 288.242 143.359 288.195 143.412C288.148 143.464 288.06 143.552 287.971 143.609C287.497 143.906 287.074 144.279 286.721 144.714C286.664 144.787 286.622 144.865 286.57 144.943C286.226 145.415 285.966 145.944 285.805 146.505C285.805 146.573 285.805 146.641 285.763 146.708C285.635 147.1 285.555 147.506 285.523 147.917C285.551 148.117 285.589 148.315 285.638 148.51C285.638 148.568 285.664 148.62 285.674 148.677C285.762 149.303 285.967 149.908 286.279 150.458V150.526C294.965 165.567 299.537 182.631 299.534 200C299.534 202.876 301.866 205.208 304.742 205.208H351.617C354.493 205.208 356.825 202.876 356.825 200C356.825 197.123 354.493 194.791 351.617 194.791H309.778C309.096 180.35 305.555 166.188 299.362 153.125H315.898ZM335.992 137.5C341.745 137.5 346.408 142.164 346.408 147.917C346.408 153.67 341.745 158.333 335.992 158.333C330.239 158.333 325.575 153.67 325.575 147.917C325.575 142.164 330.239 137.5 335.992 137.5Z" fill="black"/>
<path d="M49.5286 205.207H96.4031C99.2796 205.207 101.611 202.875 101.611 199.999C101.6 189.475 103.269 179.018 106.554 169.02C107.136 167.252 106.73 165.309 105.49 163.921C104.25 162.534 102.363 161.913 100.542 162.294C98.7202 162.674 97.2398 163.997 96.6584 165.765C93.5987 175.157 91.829 184.922 91.398 194.791H49.5286C46.6521 194.791 44.3203 197.122 44.3203 199.999C44.3203 202.875 46.6521 205.207 49.5286 205.207Z" fill="black"/>
</svg>
