<svg width="200" height="200" viewBox="0 0 200 200" fill="none" xmlns="http://www.w3.org/2000/svg">
<path d="M87.0156 126.041H113.057C117.372 126.041 120.869 122.543 120.869 118.229V94.7914C120.869 90.4767 117.372 86.979 113.057 86.979V81.7707C113.057 74.5796 107.227 68.75 100.036 68.75C92.8451 68.75 87.0156 74.5796 87.0156 81.7707V86.979C82.7009 86.979 79.2031 90.4767 79.2031 94.7914V118.229C79.2031 122.543 82.7009 126.041 87.0156 126.041ZM92.2238 81.7707C92.2238 77.456 95.7216 73.9583 100.036 73.9583C104.351 73.9583 107.849 77.456 107.849 81.7707V86.979H92.2238V81.7707ZM84.4114 94.7914C84.4114 93.3532 85.5773 92.1873 87.0156 92.1873H113.057C114.495 92.1873 115.661 93.3532 115.661 94.7914V118.229C115.661 119.667 114.495 120.833 113.057 120.833H87.0156C85.5773 120.833 84.4114 119.667 84.4114 118.229V94.7914Z" fill="black"/>
<path d="M97.4278 112.541V113.02C97.4278 114.459 98.5937 115.625 100.032 115.625C101.47 115.625 102.636 114.459 102.636 113.02V112.541C106.223 111.273 108.375 107.605 107.732 103.855C107.088 100.104 103.837 97.3633 100.032 97.3633C96.227 97.3633 92.9754 100.104 92.332 103.855C91.6886 107.605 93.8404 111.273 97.4278 112.541ZM100.032 102.604C101.47 102.604 102.636 103.77 102.636 105.208C102.636 106.646 101.47 107.812 100.032 107.812C98.5937 107.812 97.4278 106.646 97.4278 105.208C97.4278 103.77 98.5937 102.604 100.032 102.604Z" fill="black"/>
<path d="M55.7656 100.001C55.7656 124.451 75.5862 144.271 100.036 144.271C124.486 144.271 144.306 124.451 144.306 100.001C144.306 75.551 124.486 55.7305 100.036 55.7305C75.5975 55.7577 55.7929 75.5623 55.7656 100.001ZM100.036 60.9388C121.609 60.9388 139.098 78.4275 139.098 100.001C139.098 121.574 121.609 139.063 100.036 139.063C78.4626 139.063 60.9739 121.574 60.9739 100.001C60.9983 78.4376 78.4727 60.9631 100.036 60.9388Z" fill="black"/>
<path d="M152.119 157.292C147.384 157.31 143.257 160.519 142.073 165.104H123.474V149.362C129.296 146.622 134.587 142.87 139.099 138.282C139.766 137.621 140.025 136.651 139.777 135.745C139.53 134.839 138.813 134.137 137.902 133.907C136.992 133.678 136.028 133.956 135.38 134.636C130.958 139.156 125.71 142.786 119.919 145.326C119.57 145.465 119.255 145.679 118.997 145.954C118.969 145.985 118.953 146.027 118.924 146.063C118.734 146.275 118.58 146.517 118.469 146.779C118.418 146.943 118.384 147.111 118.367 147.282C118.319 147.429 118.285 147.581 118.266 147.735V147.782V165.104C118.266 167.981 120.597 170.313 123.474 170.313H142.073C143.435 175.541 148.574 178.854 153.899 177.938C159.223 177.022 162.959 172.18 162.495 166.797C162.031 161.415 157.522 157.284 152.119 157.292ZM152.119 172.917C149.243 172.917 146.911 170.585 146.911 167.709C146.911 164.832 149.243 162.5 152.119 162.5C154.996 162.5 157.328 164.832 157.328 167.709C157.328 170.585 154.996 172.917 152.119 172.917Z" fill="black"/>
<path d="M42.3774 128.645H54.9606C54.9814 128.645 54.9996 128.632 55.0231 128.632C55.2821 128.621 55.5378 128.569 55.7809 128.479C55.9024 128.439 56.0207 128.39 56.135 128.333C56.1637 128.317 56.1975 128.312 56.2262 128.294C56.2548 128.276 56.2991 128.221 56.3408 128.192C56.577 128.047 56.7866 127.862 56.9606 127.645C56.9913 127.605 57.02 127.563 57.0465 127.52C57.2151 127.283 57.3419 127.019 57.4215 126.739C57.4215 126.7 57.4371 126.661 57.4449 126.622C57.5079 126.434 57.5481 126.239 57.5647 126.041C57.5513 125.943 57.5313 125.845 57.5048 125.75C57.5048 125.716 57.5048 125.684 57.4866 125.648C57.4424 125.343 57.3427 125.048 57.1923 124.778L57.1793 124.737C54.509 120.127 52.6074 115.114 51.5492 109.893C51.2615 108.483 49.8857 107.574 48.4763 107.862C47.0668 108.149 46.1574 109.525 46.445 110.935C47.3212 115.255 48.7204 119.452 50.6117 123.434H42.3774C41.066 118.356 36.1827 115.044 30.979 115.705C25.7754 116.366 21.875 120.793 21.875 126.039C21.875 131.284 25.7754 135.711 30.979 136.372C36.1827 137.033 41.066 133.724 42.3774 128.645ZM32.3306 131.25C29.4541 131.25 27.1223 128.918 27.1223 126.041C27.1223 123.165 29.4541 120.833 32.3306 120.833C35.207 120.833 37.5389 123.165 37.5389 126.041C37.5389 128.918 35.207 131.25 32.3306 131.25Z" fill="black"/>
<path d="M21.9063 73.9595C21.8997 79.1984 25.7926 83.6236 30.9896 84.285C36.1866 84.9464 41.0638 81.6372 42.3696 76.5636H54.9528H55.0231C55.2801 76.549 55.5336 76.4972 55.7757 76.41C55.8902 76.3735 56.0016 76.3282 56.1091 76.2746C56.2479 76.2014 56.3788 76.1142 56.4997 76.0142C56.7193 75.8484 56.9095 75.6468 57.0622 75.4178C57.096 75.3683 57.1403 75.3319 57.1716 75.2798C60.5107 69.4852 64.9918 64.4291 70.3433 60.4179C71.0876 59.8597 71.4776 58.9468 71.3663 58.0231C71.255 57.0994 70.6594 56.3053 69.8038 55.9398C68.9482 55.5744 67.9626 55.6931 67.2183 56.2513C61.738 60.3795 57.0848 65.5036 53.5023 71.3553H42.3696C41.0638 66.2818 36.1866 62.9726 30.9896 63.634C25.7926 64.2953 21.8997 68.7206 21.9063 73.9595ZM37.5311 73.9595C37.5311 76.8359 35.1993 79.1678 32.3228 79.1678C29.4464 79.1678 27.1146 76.8359 27.1146 73.9595C27.1146 71.083 29.4464 68.7512 32.3228 68.7512C33.7042 68.7512 35.0289 69.2999 36.0056 70.2767C36.9824 71.2534 37.5311 72.5782 37.5311 73.9595Z" fill="black"/>
<path d="M167.75 115.625C163.014 115.643 158.887 118.853 157.703 123.438H149.466C151.359 119.456 152.758 115.259 153.633 110.938C153.92 109.528 153.01 108.151 151.6 107.864C150.19 107.576 148.814 108.486 148.526 109.896C147.47 115.117 145.57 120.13 142.901 124.74V124.774C142.745 125.049 142.643 125.351 142.599 125.664C142.599 125.693 142.599 125.719 142.581 125.748C142.554 125.844 142.532 125.943 142.516 126.042C142.531 126.246 142.572 126.448 142.635 126.643C142.635 126.677 142.635 126.711 142.656 126.745C142.737 127.026 142.867 127.29 143.039 127.526C143.065 127.565 143.086 127.604 143.115 127.641C143.291 127.858 143.502 128.045 143.74 128.193C143.781 128.222 143.807 128.266 143.852 128.292C143.896 128.318 143.914 128.315 143.943 128.331C144.058 128.39 144.178 128.44 144.302 128.479C144.544 128.567 144.798 128.617 145.055 128.63C145.078 128.63 145.096 128.643 145.12 128.643H157.703C159.064 133.872 164.203 137.187 169.528 136.272C174.853 135.356 178.59 130.514 178.126 125.131C177.662 119.748 173.153 115.617 167.75 115.625ZM167.75 131.25C164.873 131.25 162.541 128.918 162.541 126.042C162.541 123.165 164.873 120.834 167.75 120.834C170.626 120.834 172.958 123.165 172.958 126.042C172.958 128.918 170.626 131.25 167.75 131.25Z" fill="black"/>
<path d="M81.8094 147.778V147.734C81.7929 147.587 81.7641 147.443 81.7235 147.301C81.7051 147.125 81.6693 146.95 81.6167 146.781C81.5071 146.522 81.3558 146.284 81.1688 146.075C81.135 146.036 81.1193 145.989 81.0855 145.952C80.8271 145.678 80.5115 145.464 80.161 145.325C73.3444 142.316 67.2882 137.819 62.4372 132.164C61.8406 131.429 60.8924 131.076 59.9607 131.241C59.0289 131.407 58.2602 132.065 57.9529 132.96C57.6456 133.855 57.848 134.846 58.4815 135.549C63.4896 141.378 69.6616 146.095 76.6011 149.398V165.103H58.0024C56.691 160.024 51.8077 156.713 46.604 157.374C41.4004 158.035 37.5 162.462 37.5 167.707C37.5 172.953 41.4004 177.38 46.604 178.041C51.8077 178.702 56.691 175.39 58.0024 170.312H76.6011C79.4776 170.312 81.8094 167.98 81.8094 165.103V147.778ZM47.9556 172.916C45.0791 172.916 42.7473 170.584 42.7473 167.707C42.7473 164.831 45.0791 162.499 47.9556 162.499C50.832 162.499 53.1639 164.831 53.1639 167.707C53.1639 170.584 50.832 172.916 47.9556 172.916Z" fill="black"/>
<path d="M109.931 148.49C103.399 149.802 96.6715 149.802 90.1396 148.49C89.2182 148.278 88.2546 148.583 87.6221 149.286C86.9895 149.988 86.7874 150.978 87.0939 151.872C87.4004 152.767 88.1674 153.425 89.0979 153.591C91.847 154.126 94.6328 154.448 97.4312 154.557V175.521C97.4312 176.959 98.5971 178.125 100.035 178.125C101.474 178.125 102.639 176.959 102.639 175.521V154.557C105.438 154.449 108.224 154.126 110.973 153.591C112.351 153.275 113.225 151.917 112.942 150.532C112.659 149.147 111.323 148.24 109.931 148.49Z" fill="black"/>
<path d="M76.6011 29.6882H58.0024C56.691 24.6093 51.8077 21.2978 46.604 21.9588C41.4004 22.6197 37.5 27.0469 37.5 32.2923C37.5 37.5378 41.4004 41.9649 46.604 42.6259C51.8077 43.2868 56.691 39.9754 58.0024 34.8965H76.6011V52.2713C76.6011 52.3755 76.6506 52.477 76.6636 52.5812C76.6909 52.8508 76.7603 53.1144 76.8694 53.3624C76.9776 53.5945 77.1217 53.8081 77.2965 53.9953C77.3837 54.0897 77.4787 54.1769 77.5803 54.2557C77.7078 54.3601 77.8447 54.4525 77.9892 54.5317C78.1096 54.5984 78.235 54.6559 78.3642 54.7036C78.5503 54.7627 78.7425 54.8011 78.9371 54.8182C79.0227 54.8416 79.1097 54.8598 79.1975 54.8728C79.5706 54.865 79.9376 54.7761 80.273 54.6124C83.4454 53.2369 86.7534 52.1982 90.1427 51.5135C91.5529 51.2259 92.4629 49.8495 92.1752 48.4393C91.8876 47.0291 90.5112 46.1191 89.101 46.4068C86.6261 46.9132 84.1897 47.5919 81.8094 48.438V34.8965C81.8094 32.02 79.4776 29.6882 76.6011 29.6882ZM47.9556 37.5006C45.0791 37.5006 42.7473 35.1688 42.7473 32.2923C42.7473 29.4159 45.0791 27.0841 47.9556 27.0841C50.832 27.0841 53.1639 29.4159 53.1639 32.2923C53.1639 33.6737 52.6151 34.9984 51.6384 35.9752C50.6617 36.9519 49.3369 37.5006 47.9556 37.5006Z" fill="black"/>
<path d="M142.073 34.8965C143.384 39.9754 148.267 43.2868 153.471 42.6259C158.675 41.9649 162.575 37.5378 162.575 32.2923C162.575 27.0469 158.675 22.6197 153.471 21.9588C148.267 21.2978 143.384 24.6093 142.073 29.6882H123.474C120.597 29.6882 118.266 32.02 118.266 34.8965V52.2166V52.2635C118.281 52.4171 118.312 52.5689 118.357 52.7166C118.373 52.8872 118.407 53.0556 118.458 53.2192C118.57 53.4815 118.724 53.7235 118.914 53.9354C118.943 53.9692 118.958 54.0135 118.987 54.0447C119.244 54.3192 119.559 54.5335 119.909 54.6723C125.698 57.2089 130.947 60.8336 135.37 65.3493C136.008 66.059 136.984 66.3623 137.912 66.1397C138.841 65.9172 139.573 65.2044 139.821 64.2823C140.068 63.3602 139.791 62.3766 139.099 61.7191C134.587 57.1309 129.296 53.3793 123.474 50.6385V34.8965H142.073ZM152.119 27.0841C154.996 27.0841 157.328 29.4159 157.328 32.2923C157.328 35.1688 154.996 37.5006 152.119 37.5006C149.243 37.5006 146.911 35.1688 146.911 32.2923C146.911 29.4159 149.243 27.0841 152.119 27.0841Z" fill="black"/>
<path d="M100.042 21.875C98.6034 21.875 97.4375 23.0409 97.4375 24.4791V47.9164C97.4375 49.3546 98.6034 50.5206 100.042 50.5206C103.365 50.5199 106.68 50.8514 109.937 51.5101C110.109 51.5454 110.283 51.5628 110.458 51.5622C111.791 51.5571 112.905 50.5462 113.039 49.2199C113.173 47.8937 112.284 46.6803 110.979 46.4086C108.23 45.8743 105.444 45.5513 102.646 45.4425V24.4791C102.646 23.0409 101.48 21.875 100.042 21.875Z" fill="black"/>
<path d="M157.703 76.5625C159.014 81.6414 163.898 84.9528 169.101 84.2919C174.305 83.631 178.205 79.2038 178.205 73.9584C178.205 68.7129 174.305 64.2858 169.101 63.6248C163.898 62.9639 159.014 66.2753 157.703 71.3542H145.12C145.07 71.3542 145.031 71.3803 144.984 71.3803C144.833 71.3966 144.684 71.4271 144.539 71.4714C144.325 71.5136 144.118 71.5837 143.922 71.6797C143.901 71.6797 143.875 71.6797 143.852 71.7058C143.828 71.7318 143.784 71.7761 143.74 71.8047C143.502 71.953 143.291 72.1395 143.115 72.3568C143.086 72.3933 143.065 72.4323 143.039 72.4714C142.867 72.7074 142.737 72.9718 142.656 73.2526C142.656 73.2865 142.656 73.3203 142.635 73.3542C142.571 73.55 142.531 73.7529 142.516 73.9584C142.529 74.0583 142.549 74.1574 142.573 74.2552C142.573 74.2839 142.586 74.3099 142.591 74.3386C142.635 74.6517 142.738 74.9539 142.893 75.2292V75.263C147.236 82.7835 149.522 91.3153 149.521 99.9998C149.521 101.438 150.687 102.604 152.125 102.604H175.562C177 102.604 178.166 101.438 178.166 99.9998C178.166 98.5615 177 97.3956 175.562 97.3956H154.643C154.302 90.1752 152.531 83.0942 149.435 76.5625H157.703ZM167.75 68.7501C170.626 68.7501 172.958 71.0819 172.958 73.9584C172.958 76.8348 170.626 79.1666 167.75 79.1666C164.873 79.1666 162.541 76.8348 162.541 73.9584C162.541 71.0819 164.873 68.7501 167.75 68.7501Z" fill="black"/>
<path d="M24.5104 102.604H47.9477C49.3859 102.604 50.5518 101.438 50.5518 99.9994C50.5463 94.7377 51.3806 89.5088 53.0231 84.51C53.3139 83.6261 53.111 82.6543 52.4909 81.9606C51.8709 81.2669 50.9278 80.9567 50.017 81.1468C49.1062 81.337 48.366 81.9986 48.0753 82.8824C46.5454 87.5786 45.6606 92.4609 45.4451 97.3953H24.5104C23.0722 97.3953 21.9062 98.5612 21.9062 99.9994C21.9062 101.438 23.0722 102.604 24.5104 102.604Z" fill="black"/>
</svg>
