<svg width="80" height="80" viewBox="0 0 80 80" fill="none" xmlns="http://www.w3.org/2000/svg">
<path fill-rule="evenodd" clip-rule="evenodd" d="M22.5784 51.5896C21.3092 50.1739 18.6388 50.274 17.3266 51.6482C15.1506 53.9271 16.6981 59.4371 19.9135 59.4371C20.8634 59.4371 21.7377 58.9195 22.3832 58.0826C23.0766 57.1836 23.5055 55.9277 23.5055 54.5263C23.5055 53.2146 23.159 52.2371 22.5784 51.5896ZM20.0534 48.8641C23.274 48.8641 25.2189 51.1894 25.2189 54.5263C25.2189 56.3107 24.6517 57.9382 23.7354 59.1265C21.6531 61.8263 18.1745 61.8263 16.0922 59.1265C14.2808 56.7784 13.9415 52.7193 16.0888 50.4705C17.1081 49.4027 18.5332 48.8641 20.0537 48.8641H20.0534ZM9.87312 75.5961H12.9597V73.2048C12.9597 72.9776 13.05 72.7597 13.2106 72.599C13.3713 72.4384 13.5892 72.3481 13.8164 72.3481C14.0436 72.3481 14.2615 72.4384 14.4221 72.599C14.5828 72.7597 14.673 72.9776 14.673 73.2048V75.5961H25.1536V73.2048C25.1536 72.9776 25.2439 72.7597 25.4045 72.599C25.5652 72.4384 25.7831 72.3481 26.0103 72.3481C26.2375 72.3481 26.4554 72.4384 26.616 72.599C26.7767 72.7597 26.867 72.9776 26.867 73.2048V75.5961H29.9537V70.1775C29.9489 68.7477 29.3788 67.3778 28.3677 66.3668C27.3567 65.3557 25.9868 64.7857 24.5569 64.7809H15.2699C13.84 64.7857 12.4701 65.3557 11.4591 66.3668C10.448 67.3778 9.87789 68.7477 9.87312 70.1775V75.5961ZM41.8383 47.5308C40.3109 45.8273 37.1236 45.9454 35.548 47.5956C33.7217 49.5084 34.127 53.228 35.6748 55.2342C37.3444 57.3988 39.9486 57.3988 41.6182 55.2342C42.4401 54.1687 42.9484 52.6821 42.9484 51.027C42.9484 49.4715 42.5335 48.3065 41.8383 47.5308ZM38.8088 44.5978C42.4699 44.5978 44.6617 47.2352 44.6617 51.027C44.6617 53.0658 44.0152 54.9233 42.9701 56.2782C40.6104 59.3373 36.6825 59.3373 34.3228 56.2782C32.2637 53.608 31.8683 48.9748 34.3098 46.4179C35.4654 45.2082 37.0819 44.5978 38.8088 44.5978ZM31.667 75.5961V70.1775C31.6659 69.0857 31.4132 68.0089 30.9286 67.0306C30.444 66.0522 29.7405 65.1986 28.8728 64.5361C30.0566 63.41 31.6279 62.7819 33.2617 62.7817H44.031C45.7253 62.7872 47.3485 63.4626 48.5466 64.6606C49.7446 65.8586 50.4202 67.4819 50.4258 69.1761V75.5955H46.5729V72.6863C46.5745 72.5729 46.5534 72.4602 46.5111 72.355C46.4687 72.2497 46.4059 72.1539 46.3262 72.0731C46.2465 71.9923 46.1515 71.9282 46.0468 71.8844C45.9421 71.8406 45.8298 71.8181 45.7163 71.8181C45.6029 71.8181 45.4905 71.8406 45.3858 71.8844C45.2811 71.9282 45.1862 71.9923 45.1065 72.0731C45.0268 72.1539 44.9639 72.2497 44.9216 72.355C44.8792 72.4602 44.8582 72.5729 44.8597 72.6863V75.5961H31.667ZM63.9078 43.2984C62.112 41.2949 58.3855 41.4314 56.5346 43.3698C54.4016 45.6028 54.8657 49.9227 56.6715 52.2639C58.6299 54.803 61.7037 54.8029 63.662 52.2639C64.6178 51.0247 65.2091 49.2981 65.2091 47.378C65.2091 45.5673 64.7228 44.208 63.9078 43.2984ZM60.3524 40.149C64.4731 40.149 66.9224 43.1116 66.9224 47.378C66.9224 49.6817 66.193 51.7792 65.0139 53.3078C62.3651 56.742 57.9684 56.742 55.3195 53.3078C53.002 50.3031 52.5482 45.07 55.2966 42.1919C56.5927 40.8341 58.4103 40.149 60.3524 40.149ZM74.6153 77.3093H9.01644C8.78924 77.3093 8.57134 77.2191 8.41069 77.0584C8.25003 76.8978 8.15977 76.6799 8.15977 76.4527V70.1781C8.16476 68.294 8.91547 66.4884 10.2478 65.1562C11.5801 63.8239 13.3857 63.0733 15.2699 63.0684H24.5565C25.5168 63.0676 26.4672 63.263 27.3493 63.6427C28.1056 62.8313 29.0207 62.1841 30.0378 61.7414C31.0548 61.2986 32.152 61.0698 33.2612 61.0691H44.0305C45.1983 61.0681 46.3523 61.3216 47.4121 61.8119C48.2634 60.9194 49.2868 60.2086 50.4205 59.7226C51.5541 59.2365 52.7745 58.9853 54.008 58.9841H66.3228C68.7471 58.9906 71.0703 59.9565 72.7846 61.6707C74.4989 63.385 75.4649 65.7082 75.4715 68.1325V76.4527C75.4715 76.6799 75.3812 76.8978 75.2206 77.0584C75.0599 77.2191 74.842 77.3093 74.6148 77.3093H74.6153ZM52.1389 75.5961H67.3938V72.1451C67.3938 71.9179 67.4841 71.7 67.6447 71.5393C67.8054 71.3787 68.0233 71.2884 68.2505 71.2884C68.4777 71.2884 68.6956 71.3787 68.8563 71.5393C69.0169 71.7 69.1072 71.9179 69.1072 72.1451V75.5961H73.7588V68.1319C73.7524 66.1619 72.9669 64.2744 71.5739 62.8814C70.1808 61.4884 68.2932 60.7031 66.3232 60.6968H54.0084C52.1166 60.6961 50.2962 61.4197 48.921 62.719C49.9195 63.4738 50.7297 64.4496 51.288 65.5698C51.8463 66.6901 52.1375 67.9244 52.1389 69.1761V75.5955V75.5961ZM30.5724 39.8711H34.8042V26.5055H30.5724V39.8725V39.8711ZM20.0579 39.8711H24.2898V23.515H20.0579V39.8711ZM9.54347 39.8711H13.7753V26.6646H9.54347V39.8711ZM12.6141 19.4955C12.4253 19.3067 12.1847 19.1781 11.9228 19.126C11.6608 19.0739 11.3893 19.1006 11.1426 19.2028C10.8959 19.305 10.685 19.4781 10.5366 19.7002C10.3883 19.9222 10.3091 20.1833 10.3091 20.4503C10.3091 20.7174 10.3883 20.9784 10.5366 21.2005C10.685 21.4226 10.8959 21.5956 11.1426 21.6978C11.3893 21.8 11.6608 21.8268 11.9228 21.7747C12.1847 21.7226 12.4253 21.594 12.6141 21.4051C12.867 21.1517 13.009 20.8083 13.009 20.4503C13.009 20.0923 12.867 19.7489 12.6141 19.4955ZM22.9309 15.222C22.742 15.0331 22.5014 14.9045 22.2394 14.8524C21.9775 14.8003 21.706 14.827 21.4592 14.9292C21.2124 15.0315 21.0015 15.2045 20.8531 15.4266C20.7047 15.6487 20.6255 15.9098 20.6255 16.1769C20.6255 16.444 20.7047 16.7051 20.8531 16.9272C21.0015 17.1492 21.2124 17.3223 21.4592 17.4245C21.706 17.5267 21.9775 17.5535 22.2394 17.5014C22.5014 17.4493 22.742 17.3206 22.9309 17.1318C23.1838 16.8783 23.3258 16.5349 23.3258 16.1769C23.3258 15.8188 23.1838 15.4754 22.9309 15.222ZM33.2475 19.4955C33.0586 19.3067 32.818 19.1781 32.5561 19.1261C32.2942 19.074 32.0227 19.1007 31.776 19.2029C31.5293 19.3051 31.3184 19.4782 31.1701 19.7003C31.0217 19.9223 30.9425 20.1834 30.9425 20.4504C30.9425 20.7175 31.0217 20.9785 31.1701 21.2006C31.3184 21.4226 31.5293 21.5957 31.776 21.6979C32.0227 21.8001 32.2942 21.8268 32.5561 21.7748C32.818 21.7227 33.0586 21.5941 33.2475 21.4053C33.5004 21.1519 33.6425 20.8085 33.6425 20.4504C33.6425 20.0924 33.5004 19.7489 33.2475 19.4955ZM45.3184 39.8711V19.5505H41.0865V39.8711H45.3184ZM39.3735 39.8711V18.6938C39.3735 18.4666 39.4638 18.2487 39.6244 18.088C39.7851 17.9274 40.003 17.8371 40.2302 17.8371H46.175C46.4022 17.8372 46.6201 17.9275 46.7807 18.0881C46.9413 18.2488 47.0316 18.4666 47.0316 18.6938V39.8711H50.9042C51.1314 39.8711 51.3493 39.9613 51.51 40.122C51.6706 40.2826 51.7609 40.5005 51.7609 40.7277C51.7609 40.9549 51.6706 41.1728 51.51 41.3335C51.3493 41.4942 51.1314 41.5844 50.9042 41.5844H5.38519C5.15799 41.5844 4.94009 41.4942 4.77943 41.3335C4.61877 41.1728 4.52852 40.9549 4.52852 40.7277C4.52852 40.5005 4.61877 40.2826 4.77943 40.122C4.94009 39.9613 5.15799 39.8711 5.38519 39.8711H7.83013V25.808C7.83017 25.5808 7.92044 25.3629 8.08109 25.2023C8.24173 25.0416 8.45961 24.9513 8.6868 24.9513H14.6317C14.8588 24.9513 15.0767 25.0416 15.2373 25.2023C15.3979 25.3629 15.4882 25.5808 15.4882 25.808V39.8711H18.3446V22.6583C18.3446 22.4311 18.4348 22.2132 18.5955 22.0525C18.7562 21.8919 18.9741 21.8016 19.2013 21.8016H25.1461C25.3733 21.8016 25.5912 21.8919 25.7519 22.0525C25.9125 22.2132 26.0028 22.4311 26.0028 22.6583V39.8711H28.8592V25.6482C28.8592 25.5357 28.8814 25.4244 28.9244 25.3204C28.9674 25.2165 29.0305 25.1221 29.1101 25.0426C29.1896 24.963 29.284 24.8999 29.3879 24.8569C29.4919 24.8139 29.6032 24.7917 29.7157 24.7917H35.6606C35.8878 24.7917 36.1056 24.8819 36.2663 25.0426C36.4269 25.2032 36.5172 25.421 36.5173 25.6482V39.8711H39.3735ZM44.1575 10.2729C43.9687 10.0841 43.7281 9.95551 43.4661 9.90341C43.2042 9.85132 42.9327 9.87806 42.686 9.98026C42.4393 10.0825 42.2284 10.2555 42.08 10.4776C41.9316 10.6996 41.8524 10.9607 41.8524 11.2278C41.8524 11.4948 41.9316 11.7559 42.08 11.9779C42.2284 12.2 42.4393 12.373 42.686 12.4752C42.9327 12.5774 43.2042 12.6042 43.4661 12.5521C43.7281 12.5 43.9687 12.3714 44.1575 12.1826C44.4104 11.9291 44.5524 11.5858 44.5524 11.2278C44.5524 10.8698 44.4104 10.5264 44.1575 10.2729ZM47.8575 4.20643C47.633 4.18888 47.4245 4.08354 47.2772 3.91326C47.13 3.74297 47.0558 3.52148 47.0707 3.29684C47.0857 3.0722 47.1887 2.86253 47.3573 2.71332C47.5259 2.5641 47.7465 2.48738 47.9713 2.4998L52.3749 2.80352C52.487 2.81091 52.5965 2.84032 52.6972 2.89007C52.798 2.93983 52.8879 3.00896 52.9618 3.0935C53.0358 3.17805 53.0924 3.27635 53.1283 3.38278C53.1643 3.48921 53.1789 3.60168 53.1713 3.71376L52.8676 8.11736C52.8499 8.34173 52.7446 8.5501 52.5743 8.69731C52.4041 8.84451 52.1827 8.91867 51.9581 8.90371C51.7335 8.88875 51.5239 8.78588 51.3747 8.6174C51.2255 8.44891 51.1487 8.2284 51.1609 8.00368L51.3265 5.60496L46.0298 10.0467C46.2816 10.6496 46.334 11.3172 46.1795 11.9521C46.025 12.5869 45.6715 13.1557 45.1708 13.5755C44.6702 13.9953 44.0484 14.2441 43.3963 14.2855C42.7443 14.3269 42.096 14.1587 41.5463 13.8057L35.097 19.2149C35.2865 19.6452 35.3745 20.1133 35.3541 20.583C35.3337 21.0527 35.2055 21.5115 34.9794 21.9237C34.7532 22.3359 34.4353 22.6906 34.0501 22.9602C33.6649 23.2298 33.2228 23.4071 32.7581 23.4785C32.2934 23.5499 31.8185 23.5133 31.3701 23.3717C30.9218 23.2301 30.5121 22.9872 30.1727 22.6618C29.8333 22.3364 29.5733 21.9373 29.4129 21.4953C29.2525 21.0534 29.196 20.5804 29.2477 20.1131L24.3675 18.0917C24.0804 18.4499 23.7164 18.739 23.3025 18.9377C22.8885 19.1364 22.4353 19.2396 21.9762 19.2396C21.517 19.2396 21.0638 19.1364 20.6498 18.9377C20.2359 18.739 19.8719 18.4499 19.5848 18.0917L14.7044 20.1131C15.0192 22.9864 11.5304 24.6538 9.49303 22.6166C9.04753 22.1714 8.75005 21.5998 8.64107 20.9794C8.5321 20.3591 8.61693 19.7203 8.88402 19.1499L6.23312 16.8195C6.14666 16.7458 6.07571 16.6557 6.02442 16.5544C5.97312 16.4531 5.9425 16.3426 5.93434 16.2293C5.92618 16.1161 5.94064 16.0023 5.97688 15.8947C6.01312 15.7871 6.07041 15.6877 6.14543 15.6025C6.22044 15.5172 6.31167 15.4477 6.4138 15.3981C6.51594 15.3484 6.62693 15.3196 6.74031 15.3133C6.8537 15.3069 6.96721 15.3232 7.07423 15.3612C7.18126 15.3992 7.27965 15.4581 7.36369 15.5345L10.0146 17.8651C10.6517 17.46 11.4159 17.3045 12.1607 17.4282C12.9054 17.552 13.5783 17.9463 14.0501 18.5356L18.9305 16.5142C18.6154 13.6409 22.1042 11.9733 24.1417 14.0107C24.4668 14.3352 24.7146 14.7288 24.8668 15.1622C25.0189 15.5956 25.0716 16.0577 25.0207 16.5142L29.9009 18.5356C30.3805 17.9365 31.0676 17.5393 31.826 17.4225C32.5845 17.3056 33.3592 17.4778 33.9969 17.9048L40.4219 12.5164C40.1388 11.9055 40.0648 11.2182 40.2114 10.5609C40.358 9.90369 40.717 9.31304 41.233 8.88033C41.749 8.44762 42.3932 8.19695 43.0659 8.16709C43.7387 8.13723 44.4025 8.32983 44.9548 8.71512L50.1428 4.3643L47.8575 4.20643Z" fill="black"/>
</svg>
