<svg width="52" height="52" viewBox="0 0 52 52" fill="none" xmlns="http://www.w3.org/2000/svg">
<mask id="mask0_1071_2339" style="mask-type:luminance" maskUnits="userSpaceOnUse" x="0" y="0" width="52" height="52">
<path d="M52 0H0V52H52V0Z" fill="white" style="fill:white;fill-opacity:1;"/>
</mask>
<g mask="url(#mask0_1071_2339)">
<path d="M5.12889 33.8711C4.70819 33.8711 4.36719 34.2121 4.36719 34.6328C4.36719 35.0535 4.70819 35.3946 5.12889 35.3946H11.7814C12.2021 35.3946 12.5432 35.0535 12.5432 34.6328C12.5432 34.2121 12.2021 33.8711 11.7814 33.8711H5.12889Z" fill="black" style="fill:black;fill-opacity:1;"/>
<path d="M51.1453 39.4436L47.938 36.2364L47.9387 10.4623C47.9387 9.76235 47.3692 9.19275 46.6692 9.19275L39.3373 9.19225C36.4507 6.42925 32.3949 4.80875 28.3612 4.82235C24.1204 4.82235 20.2607 6.48435 17.3982 9.19065L10.3121 9.18995C9.8914 9.18995 9.5503 9.53095 9.5503 9.95165C9.5503 10.3725 9.8912 10.7134 10.3119 10.7135L15.9826 10.7141C15.5618 11.23 15.1728 11.7726 14.818 12.3389L1.5241 12.338V10.7132L6.7571 10.7135C7.1778 10.7135 7.5189 10.3726 7.5189 9.95175C7.5189 9.53095 7.1779 9.18995 6.7571 9.18995L1.2701 9.18965C0.57 9.18965 0.000499725 9.75915 0.000499725 10.4593L0 38.8951C0 39.5952 0.5695 40.1646 1.2696 40.1646L11.5914 40.1655C12.0121 40.1655 12.3532 39.8244 12.3532 39.4036C12.3532 38.9828 12.0122 38.6419 11.5914 38.6419L1.5235 38.6413L1.5241 13.8615L13.9745 13.8623C13.4852 14.874 13.1004 15.945 12.8322 17.061H5.1798C4.7591 17.061 4.4181 17.4021 4.4181 17.8228V23.9167C4.4181 24.3373 4.7591 24.6784 5.1798 24.6784H12.8699C13.0492 25.3926 13.2766 26.0878 13.5486 26.7605H5.129C4.7084 26.7605 4.3673 27.1015 4.3673 27.5222C4.3673 27.9429 4.7084 28.284 5.129 28.284H14.2605C14.6396 28.9945 15.0701 29.6736 15.5483 30.3153H5.129C4.7084 30.3153 4.3673 30.6563 4.3673 31.077C4.3673 31.4977 4.7084 31.8387 5.129 31.8387H16.838C19.7466 34.8719 23.8371 36.7632 28.3613 36.7632C31.1548 36.7632 33.8585 36.0408 36.2398 34.6881L37.7629 36.2112C38.0476 36.4959 38.4216 36.6383 38.7955 36.6383C39.1293 36.6383 39.4625 36.5241 39.7328 36.2974L42.0792 38.644L15.1462 38.6421C14.7255 38.6421 14.3845 38.983 14.3845 39.4038C14.3845 39.8246 14.7254 40.1656 15.1462 40.1656L18.47 40.1657L17.8021 42.6022L16.485 42.602C14.5914 42.602 13.051 44.1424 13.051 46.0359V46.4104C13.051 46.8311 13.392 47.1721 13.8126 47.1721L34.1254 47.1752C34.3274 47.1752 34.5212 47.0948 34.6641 46.952C34.807 46.8091 34.8872 46.6154 34.8872 46.4133V46.0388C34.8872 44.1453 33.3468 42.6049 31.4533 42.6049L30.1363 42.6045L29.4679 40.1665L43.6029 40.1674L47.0122 43.5769C47.5643 44.1289 48.2983 44.4328 49.0788 44.4328C49.8594 44.4328 50.5933 44.1289 51.1454 43.5769C52.2849 42.4374 52.2849 40.5832 51.1453 39.4436ZM33.3241 45.6516L14.6138 45.6488C14.7933 44.7803 15.5639 44.1255 16.4847 44.1255L31.453 44.1283C32.3739 44.1283 33.1446 44.7832 33.3241 45.6516ZM28.5563 42.6044L19.3817 42.6026L20.0497 40.1659L27.888 40.1665L28.5563 42.6044ZM46.4152 12.341L41.9115 12.3407C41.5593 11.7767 41.1721 11.2337 40.7509 10.7158L46.4152 10.7162V12.341ZM5.9416 23.155V18.5845H12.5443C12.444 19.3066 12.3909 20.0437 12.3909 20.7929C12.3909 21.5954 12.4511 22.384 12.5659 23.155H5.9416ZM13.9144 20.7929C13.9144 12.8269 20.3953 6.34595 28.3613 6.34595C35.5316 6.34595 41.5349 11.4795 42.6357 18.5524C42.7004 18.9681 43.0899 19.253 43.5055 19.1879C43.9212 19.1232 44.2058 18.7338 44.141 18.3181C43.8992 16.7643 43.427 15.2647 42.7515 13.8643L46.4151 13.8646L46.4146 34.7131L43.8661 32.1645C44.0867 31.902 44.2074 31.574 44.2074 31.2271C44.2074 30.8371 44.0555 30.4704 43.7797 30.1945L42.2573 28.672C43.4086 26.6454 44.1078 24.3771 44.2861 22.0084C44.3177 21.5889 44.0033 21.2232 43.5837 21.1916C43.1643 21.1608 42.7986 21.4744 42.7669 21.894C42.2033 29.3776 35.8756 35.2397 28.3613 35.2397C20.3953 35.2399 13.9144 28.759 13.9144 20.7929ZM37.5573 33.8512C38.1462 33.4355 38.7104 32.9786 39.245 32.4806C40.0614 31.72 40.7885 30.8847 41.4204 29.9897L42.6577 31.2271L38.7955 35.0893L37.5573 33.8512ZM50.0681 42.4995C49.8039 42.7638 49.4524 42.9094 49.0788 42.9094C48.7051 42.9094 48.3537 42.7638 48.0894 42.4995L40.8145 35.2247L42.7931 33.246L50.068 40.5209C50.6135 41.0665 50.6135 41.954 50.0681 42.4995Z" fill="black" style="fill:black;fill-opacity:1;"/>
<path d="M28.3622 7.86328C21.2334 7.86328 15.4336 13.6631 15.4336 20.792C15.4336 24.9094 17.4225 28.8174 20.7539 31.2459C21.0938 31.4938 21.5704 31.4189 21.8182 31.079C22.066 30.739 21.9913 30.2625 21.6513 30.0147C18.712 27.872 16.9571 24.4241 16.9571 20.7919C16.9571 14.503 22.0734 9.38668 28.3622 9.38668C34.651 9.38668 39.7674 14.503 39.7674 20.7919C39.7674 27.0807 34.651 32.197 28.3622 32.197C27.067 32.197 25.7965 31.9818 24.5861 31.5573C24.189 31.4179 23.7544 31.6271 23.6153 32.024C23.476 32.4211 23.685 32.8557 24.082 32.9949C25.4547 33.4764 26.8947 33.7205 28.3622 33.7205C35.4911 33.7205 41.2908 27.9207 41.2908 20.7919C41.2908 13.663 35.4912 7.86328 28.3622 7.86328Z" fill="black" style="fill:black;fill-opacity:1;"/>
<path d="M28.724 18.8243C29.1447 18.8243 29.4857 18.4833 29.4857 18.0626C29.4857 17.6419 29.1447 17.3008 28.724 17.3008H26.4238C26.0032 17.3008 25.6621 17.6419 25.6621 18.0626V23.5214C25.6621 23.9421 26.0032 24.2831 26.4238 24.2831H28.724C29.1447 24.2831 29.4857 23.9421 29.4857 23.5214C29.4857 23.1007 29.1447 22.7597 28.724 22.7597H27.1856V21.5538H28.5544C28.9751 21.5538 29.3161 21.2127 29.3161 20.792C29.3161 20.3713 28.9751 20.0303 28.5544 20.0303H27.1856V18.8243H28.724Z" fill="black" style="fill:black;fill-opacity:1;"/>
<path d="M21.4238 22.7862C20.8966 22.7862 20.3898 22.5745 20.0684 22.2198C19.7859 21.9082 19.3042 21.8844 18.9924 22.1669C18.6806 22.4493 18.657 22.9311 18.9395 23.2429C19.554 23.9208 20.4594 24.3097 21.4237 24.3097C22.6201 24.3097 23.6253 23.5435 23.8138 22.4878C23.9561 21.6906 23.598 20.6504 22.1656 20.1222C21.7054 19.9546 20.9506 19.6794 20.6637 19.5181C20.5834 19.4744 20.5487 19.396 20.5602 19.285C20.5761 19.1312 20.6907 18.9374 20.9647 18.8549C21.7017 18.633 22.3918 19.1747 22.4135 19.1921C22.7356 19.4588 23.213 19.4162 23.4824 19.0954C23.7531 18.7734 23.7114 18.2929 23.3894 18.0221C23.3361 17.9774 22.0676 16.9314 20.5252 17.3961C19.7092 17.6419 19.1281 18.3217 19.0446 19.1282C18.9696 19.854 19.3106 20.5161 19.9349 20.856C20.2488 21.037 20.9686 21.3098 21.6383 21.5515C21.8133 21.616 22.3791 21.855 22.3139 22.2201C22.2645 22.4984 21.9179 22.7862 21.4238 22.7862Z" fill="black" style="fill:black;fill-opacity:1;"/>
<path d="M38.2123 20.7917C38.2123 18.8529 36.6348 17.2754 34.696 17.2754C32.7571 17.2754 31.1797 18.8529 31.1797 20.7917C31.1797 22.7306 32.7571 24.308 34.696 24.308C36.6348 24.308 38.2123 22.7306 38.2123 20.7917ZM32.7032 20.7917C32.7032 19.6929 33.5971 18.7989 34.696 18.7989C35.7948 18.7989 36.6888 19.6929 36.6888 20.7917C36.6888 21.8906 35.7948 22.7845 34.696 22.7845C33.5971 22.7845 32.7032 21.8906 32.7032 20.7917Z" fill="black" style="fill:black;fill-opacity:1;"/>
</g>
</svg>
