<svg width="80" height="80" viewBox="0 0 80 80" fill="none" xmlns="http://www.w3.org/2000/svg">
<g clip-path="url(#clip0_87_1627)">
<path d="M77.03 50.4467L47.6567 37.1167C44.6233 36.09 41.33 36.8533 39.0733 39.11C36.7633 41.4167 36.0633 44.7433 37.26 48.15L50.4067 77.0667C51.2 78.81 52.95 79.96 54.8967 79.9967H54.96C56.8633 79.9967 58.5767 78.94 59.4333 77.2333L65.3533 65.39L77.2 59.47C78.9133 58.61 79.9967 56.82 79.9633 54.9067C79.93 52.99 78.78 51.2367 77.0333 50.4467H77.03ZM75.7067 56.4867L62.87 62.9033L56.4533 75.74C56.1667 76.31 55.6367 76.6667 55 76.6667C54.3633 76.6567 53.7067 76.27 53.4433 75.6867L40.3533 46.91C39.6367 44.8533 40.0267 42.87 41.4333 41.4667C42.3667 40.53 43.6 40.0233 44.9267 40.0233C45.5167 40.0233 46.1267 40.1233 46.7333 40.3333L75.65 53.48C76.23 53.7433 76.6133 54.3267 76.6233 54.9633C76.6333 55.6 76.2767 56.2 75.7067 56.4867ZM40 0C39.9833 0 39.9667 0 39.9467 0C39.9467 0 39.9467 0 39.9433 0C17.9133 0.03 0 17.9633 0 40C0 62.0367 17.9433 80 40 80C40.58 80 41.16 79.9867 41.7367 79.9633C42.6567 79.9233 43.37 79.1467 43.3333 78.2267C43.2933 77.31 42.5 76.5733 41.6 76.63C41.2933 76.6433 40.9833 76.6533 40.6767 76.6567C38.7833 74.7567 31.5533 67.09 27.0467 56.6633H31.67C32.59 56.6633 33.3367 55.9167 33.3367 54.9967C33.3367 54.0767 32.59 53.33 31.67 53.33H25.7433C24.2867 49.18 23.3367 44.6833 23.3367 39.9967C23.3367 35.31 24.2867 30.8133 25.7467 26.6633H54.27C54.8767 28.39 55.3967 30.18 55.7933 32.0133C55.9633 32.7933 56.6533 33.33 57.42 33.33C57.5367 33.33 57.6533 33.32 57.7733 33.2933C58.6733 33.1 59.2433 32.2133 59.05 31.3133C58.7067 29.7233 58.28 28.1733 57.7933 26.6633H74.16C75.78 30.7967 76.67 35.2967 76.67 39.9967C76.67 40.53 76.66 41.06 76.6367 41.59C76.5967 42.51 77.31 43.2867 78.23 43.3267C79.17 43.4133 79.93 42.6567 79.9667 41.7333C79.9933 41.1567 80.0033 40.5767 80.0033 39.9933C80 17.9433 62.0567 0 40 0ZM3.33333 40C3.33333 35.3 4.22333 30.8 5.84333 26.6667H22.1933C20.8533 30.82 20 35.3033 20 40C20 44.6967 20.8533 49.18 22.1933 53.3333H5.84333C4.22333 49.2 3.33333 44.7 3.33333 40ZM23.3967 56.6667C26.95 65.5633 32.4733 72.6167 35.8733 76.4333C23.4167 75.0333 12.8267 67.3667 7.34333 56.6667H23.3967ZM23.3967 23.3333H7.34333C12.8267 12.6333 23.4167 4.96667 35.8767 3.56667C32.4767 7.38333 26.95 14.4367 23.3967 23.3333ZM27.05 23.3333C31.13 13.9033 37.44 6.72 40 4.03333C42.5667 6.72333 48.8833 13.91 52.96 23.3333H27.05ZM56.5833 23.3333C53.0233 14.4267 47.51 7.38 44.1167 3.56667C56.5767 4.96667 67.1667 12.6333 72.6533 23.3333H56.5833Z" fill="black"/>
</g>
<defs>
<clipPath id="clip0_87_1627">
<rect width="80" height="80" fill="white"/>
</clipPath>
</defs>
</svg>
