<svg width="33" height="32" viewBox="0 0 33 32" fill="none" xmlns="http://www.w3.org/2000/svg">
<g clip-path="url(#clip0_872_32)">
<path d="M32.488 8.792L31.264 15.172C30.704 17.972 28.2293 20 25.3787 20H8.52667C8.856 22.2813 10.836 24 13.1427 24H26.4987C26.8667 24 27.1653 24.2987 27.1653 24.6667C27.1653 25.0347 26.8667 25.3333 26.4987 25.3333H13.1427C10.164 25.3333 7.60933 23.1093 7.2 20.1587L4.82667 3.05867C4.68933 2.07467 3.83733 1.33333 2.84533 1.33333H1.16667C0.798667 1.33333 0.5 1.03467 0.5 0.666667C0.5 0.298667 0.798667 0 1.16667 0H2.84533C4.49867 0 5.91867 1.236 6.14667 2.87467L6.488 5.33333H14.5C14.868 5.33333 15.1667 5.632 15.1667 6C15.1667 6.368 14.868 6.66667 14.5 6.66667H6.67333L8.34 18.6667H25.38C27.5973 18.6667 29.5213 17.0893 29.956 14.916L31.1787 8.54133C31.248 8.18 31.6013 7.94667 31.9587 8.012C32.32 8.08133 32.5573 8.43067 32.488 8.792ZM12.5 29.3333C12.5 30.804 11.304 32 9.83333 32C8.36267 32 7.16667 30.804 7.16667 29.3333C7.16667 27.8627 8.36267 26.6667 9.83333 26.6667C11.304 26.6667 12.5 27.8627 12.5 29.3333ZM11.1667 29.3333C11.1667 28.5987 10.568 28 9.83333 28C9.09867 28 8.5 28.5987 8.5 29.3333C8.5 30.068 9.09867 30.6667 9.83333 30.6667C10.568 30.6667 11.1667 30.068 11.1667 29.3333ZM25.8333 29.3333C25.8333 30.804 24.6373 32 23.1667 32C21.696 32 20.5 30.804 20.5 29.3333C20.5 27.8627 21.696 26.6667 23.1667 26.6667C24.6373 26.6667 25.8333 27.8627 25.8333 29.3333ZM24.5 29.3333C24.5 28.5987 23.9013 28 23.1667 28C22.432 28 21.8333 28.5987 21.8333 29.3333C21.8333 30.068 22.432 30.6667 23.1667 30.6667C23.9013 30.6667 24.5 30.068 24.5 29.3333ZM21.6267 8.41467C22.2627 9.02267 23.0893 9.32533 23.916 9.32533C24.768 9.32533 25.62 9.004 26.2613 8.36267L32.3333 2.29067C32.5933 2.03067 32.5933 1.608 32.3333 1.348C32.0733 1.088 31.6507 1.088 31.3907 1.348L25.3187 7.42C24.564 8.17467 23.32 8.18933 22.548 7.45067L18.9613 4.02133C18.6947 3.76533 18.272 3.77467 18.0187 4.04267C17.764 4.30933 17.7733 4.73067 18.04 4.98533L21.6267 8.41467Z" fill="white"/>
</g>
<defs>
<clipPath id="clip0_872_32">
<rect width="32" height="32" fill="white" transform="translate(0.5)"/>
</clipPath>
</defs>
</svg>
