<svg width="52" height="52" viewBox="0 0 52 52" fill="none" xmlns="http://www.w3.org/2000/svg">
<g clip-path="url(#clip0_1040_13967)">
<path d="M30.2656 45.5H21.7344C21.5728 45.5 21.4178 45.5642 21.3035 45.6785C21.1892 45.7928 21.125 45.9478 21.125 46.1094C21.125 46.271 21.1892 46.426 21.3035 46.5403C21.4178 46.6545 21.5728 46.7188 21.7344 46.7188H30.2656C30.4272 46.7188 30.5822 46.6545 30.6965 46.5403C30.8108 46.426 30.875 46.271 30.875 46.1094C30.875 45.9478 30.8108 45.7928 30.6965 45.6785C30.5822 45.5642 30.4272 45.5 30.2656 45.5Z" fill="black"/>
<path d="M42.8105 25.196C44.5678 25.1888 46.2857 24.6743 47.7576 23.7143C49.2296 22.7543 50.393 21.3897 51.1081 19.7844C53.4615 14.5771 50.2192 8.28181 44.6122 7.15934C43.702 6.97583 42.7691 6.93159 41.8456 7.02812V5.48438C41.844 4.03032 41.2657 2.63629 40.2375 1.60812C39.2093 0.579947 37.8153 0.00161293 36.3613 0L15.6425 0C14.1884 0.00161293 12.7944 0.579947 11.7662 1.60812C10.7381 2.63629 10.1597 4.03032 10.1581 5.48438V16.4844C3.96159 17.4001 -0.595718 23.6738 0.179813 29.9081C0.825344 35.1 5.00972 39.5878 10.1581 40.4133V46.5156C10.1597 47.9697 10.7381 49.3637 11.7662 50.3919C12.7944 51.4201 14.1884 51.9984 15.6425 52H36.3613C37.408 52.001 38.433 51.7014 39.3145 51.1369C40.1959 50.5723 40.8968 49.7666 41.3338 48.8154C42.3492 49.133 43.4175 49.2462 44.477 49.1483C45.5364 49.0505 46.566 48.7435 47.5061 48.2453C48.4461 47.747 49.2781 47.0673 49.9538 46.2455C50.6296 45.4237 51.1357 44.476 51.4429 43.4574C51.8479 42.0904 51.8906 40.6416 51.5669 39.2532C51.2432 37.8647 50.5641 36.5842 49.5964 35.5373C48.6286 34.4903 47.4054 33.7129 46.0466 33.2812C44.6878 32.8495 43.2402 32.7784 41.8456 33.0748V25.1416C42.166 25.1769 42.4881 25.195 42.8105 25.196ZM33.03 1.21875L32.055 3.03834C31.8467 3.45652 31.5289 3.81039 31.1355 4.06228C30.742 4.31417 30.2876 4.45464 29.8206 4.46875H22.1831C21.7169 4.45402 21.2633 4.31324 20.8707 4.06138C20.4781 3.80952 20.161 3.45598 19.9532 3.03834L18.9758 1.21875H33.03ZM6.46409 37.7203C5.07973 36.8544 3.90591 35.6906 3.02808 34.3137C2.15025 32.9368 1.59051 31.3816 1.38963 29.7611C0.566157 23.3366 5.81369 17.5041 12.2393 17.5134C16.5253 17.5199 20.7706 20.3166 22.3598 24.3319C22.455 24.5665 22.5976 24.7788 22.7787 24.9555C22.9599 25.1323 23.1756 25.2696 23.4124 25.3589C24.6173 25.8458 25.9057 26.0927 27.2052 26.0857C27.3432 26.0864 27.4782 26.126 27.5947 26.1999C27.7112 26.2738 27.8045 26.3791 27.8639 26.5036C27.9233 26.6282 27.9463 26.7669 27.9304 26.904C27.9145 27.041 27.8603 27.1708 27.7739 27.2785C26.3866 28.9035 25.0281 30.0889 23.5254 30.8262C23.3114 30.9312 23.1203 31.0775 22.9633 31.2568C22.8062 31.4361 22.6863 31.6448 22.6105 31.8707C22.0919 33.4408 21.2237 34.8727 20.0713 36.0585C18.9189 37.2444 17.5124 38.1531 15.9578 38.7164C14.4032 39.2796 12.741 39.4827 11.0965 39.3102C9.45195 39.1377 7.86804 38.5939 6.46409 37.7203ZM36.3613 50.7812H15.6425C14.5116 50.78 13.4274 50.3301 12.6277 49.5305C11.828 48.7308 11.3782 47.6465 11.3769 46.5156V40.5693C11.6641 40.5897 11.9513 40.601 12.2381 40.6006C14.7928 40.5952 17.281 39.7861 19.3503 38.2879C21.4196 36.7897 22.9649 34.6784 23.7675 32.253C23.7922 32.1808 23.8311 32.1142 23.8817 32.0571C23.9323 32 23.9937 31.9535 24.0624 31.9203C25.8664 30.9696 27.4515 29.6521 28.716 28.0524C28.9457 27.7653 29.0901 27.4195 29.1326 27.0543C29.1752 26.6892 29.1142 26.3194 28.9567 25.9872C28.7991 25.6551 28.5513 25.3739 28.2416 25.1758C27.932 24.9777 27.5728 24.8707 27.2052 24.867C26.0553 24.8681 24.9159 24.6486 23.8488 24.2202C23.7687 24.1901 23.6956 24.1438 23.634 24.0844C23.5725 24.0249 23.5238 23.9535 23.4908 23.8745C21.6643 19.1015 16.4144 15.8693 11.3769 16.3369V5.48438C11.3782 4.35346 11.828 3.26923 12.6277 2.46955C13.4274 1.66987 14.5116 1.22004 15.6425 1.21875H17.5925L18.8779 3.61562C19.1899 4.22765 19.662 4.74358 20.2441 5.10844C20.8262 5.47331 21.4963 5.67343 22.1831 5.6875H29.8206C30.5072 5.67327 31.177 5.47306 31.7588 5.1082C32.3406 4.74334 32.8125 4.2275 33.1243 3.61562L34.4113 1.21875H36.3613C37.4922 1.22004 38.5764 1.66987 39.3761 2.46955C40.1758 3.26923 40.6256 4.35346 40.6269 5.48438V7.23856C38.3265 7.80045 36.3355 9.23656 35.0764 11.2422C33.8174 13.2478 33.3893 15.665 33.8831 17.981C33.8914 18.0212 33.8912 18.0625 33.8827 18.1026C33.8742 18.1427 33.8574 18.1805 33.8336 18.2138C33.3723 18.9009 32.7821 19.492 32.0956 19.9542C31.8493 20.1264 31.6561 20.3641 31.538 20.6405C31.4198 20.9168 31.3814 21.2207 31.4271 21.5178C31.4728 21.8149 31.6008 22.0932 31.7966 22.3212C31.9924 22.5493 32.2481 22.7179 32.5348 22.8081C33.9895 23.2635 35.5226 23.4137 37.0381 23.2493C37.0725 23.2442 37.1076 23.246 37.1413 23.2545C37.1751 23.263 37.2068 23.2781 37.2347 23.2988C38.2392 24.0731 39.3947 24.6284 40.6269 24.9291V33.447C39.0049 34.0771 37.6347 35.2225 36.7269 36.7071C36.7134 36.7284 36.6955 36.7467 36.6745 36.7606C36.6535 36.7746 36.6299 36.7841 36.605 36.7884C35.8972 36.9388 35.1668 36.9499 34.4547 36.8213C34.179 36.7766 33.8962 36.8105 33.6388 36.9191C33.3814 37.0278 33.1599 37.2068 32.9996 37.4356C32.8394 37.6644 32.7468 37.9338 32.7327 38.2128C32.7185 38.4918 32.7832 38.7691 32.9195 39.013C33.5815 40.2085 34.4799 41.2566 35.5601 42.0936C35.5983 42.1203 35.6243 42.1611 35.6324 42.2069C35.844 43.5247 36.3693 44.7723 37.1639 45.8446C37.9586 46.9168 38.9995 47.7823 40.1987 48.3681C39.852 49.0915 39.3076 49.702 38.6285 50.129C37.9495 50.556 37.1634 50.7822 36.3613 50.7812ZM49.3162 37.1313C49.9142 37.9915 50.311 38.9754 50.4771 40.0098C50.6432 41.0443 50.5744 42.1029 50.2757 43.1072C49.9794 44.0817 49.4698 44.9781 48.7839 45.7312C48.098 46.4842 47.253 47.0751 46.3103 47.461C42.2791 49.1522 37.4699 46.3458 36.8345 42.0201C36.8058 41.8387 36.7416 41.6649 36.6454 41.5085C36.5493 41.3521 36.4232 41.2163 36.2743 41.1088C35.3119 40.396 34.5256 39.4721 33.9757 38.4081C33.9469 38.3663 33.9315 38.3167 33.9314 38.266C33.9314 38.2152 33.9468 38.1656 33.9755 38.1238C34.0043 38.082 34.0451 38.0498 34.0925 38.0317C34.1399 38.0135 34.1917 38.0102 34.241 38.0222C35.1009 38.1626 35.9789 38.1503 36.8345 37.986C37.0255 37.9494 37.2068 37.8736 37.3669 37.7632C37.527 37.6529 37.6623 37.5104 37.7644 37.3449C38.5242 36.106 39.6628 35.1446 41.0116 34.6032C42.4776 34.0223 44.0973 33.9561 45.6059 34.4153C47.1144 34.8746 48.4225 35.8321 49.3162 37.1313ZM40.9438 23.7526C39.8663 23.4937 38.8556 23.01 37.9781 22.3332C37.8215 22.2138 37.6428 22.1267 37.4523 22.0768C37.2618 22.027 37.0633 22.0154 36.8683 22.0427C35.5253 22.2089 34.1622 22.071 32.8797 21.6393C32.8094 21.6208 32.746 21.5821 32.6975 21.528C32.6489 21.4739 32.6173 21.4067 32.6065 21.3348C32.5958 21.2629 32.6063 21.1895 32.6369 21.1235C32.6675 21.0575 32.7167 21.002 32.7785 20.9637C33.5795 20.4076 34.2749 19.7131 34.8321 18.913C34.9519 18.7424 35.0354 18.549 35.0773 18.3448C35.1193 18.1406 35.1188 17.9299 35.0759 17.7259C34.8031 16.4454 34.8534 15.1172 35.2221 13.8609C35.5908 12.6047 36.2664 11.46 37.188 10.5301C38.1095 9.60015 39.2481 8.91421 40.5009 8.53412C41.7537 8.15404 43.0815 8.09176 44.3644 8.35291C45.39 8.56292 46.3637 8.975 47.2284 9.56512C48.0932 10.1552 48.8319 10.9116 49.4014 11.7901C49.9709 12.6686 50.3598 13.6517 50.5455 14.6821C50.7311 15.7124 50.7099 16.7694 50.4829 17.7915C50.2559 18.8135 49.8277 19.7802 49.2233 20.635C48.619 21.4899 47.8504 22.2159 46.9626 22.7708C46.0748 23.3256 45.0854 23.6982 44.0521 23.8668C43.0188 24.0353 41.9619 23.9965 40.9438 23.7526Z" fill="black"/>
<path d="M47.7074 14.9959C47.7088 14.2005 47.3949 13.4369 46.8345 12.8725C46.2741 12.308 45.5128 11.9887 44.7174 11.9844C44.0423 11.9827 43.387 12.212 42.8604 12.6344C42.3338 12.212 41.6785 11.9827 41.0035 11.9844C40.2105 11.9871 39.451 12.3036 38.8907 12.8647C38.3305 13.4258 38.0153 14.1859 38.0139 14.9789C37.9505 17.2315 39.2923 19.1543 42.0012 20.6948C42.2633 20.8428 42.5592 20.9206 42.8602 20.9206C43.1612 20.9206 43.4571 20.8428 43.7192 20.6948C46.4281 19.1535 47.7704 17.2315 47.7074 14.9959ZM42.6037 19.6357C40.2844 18.317 39.1814 16.8049 39.2318 14.9959C39.2294 14.5234 39.4146 14.0693 39.7467 13.7332C40.0787 13.3971 40.5306 13.2065 41.0031 13.2031C41.2687 13.2029 41.5308 13.263 41.7698 13.379C42.0087 13.495 42.2182 13.6638 42.3823 13.8726C42.4415 13.9414 42.5148 13.9965 42.5972 14.0343C42.6797 14.0721 42.7693 14.0917 42.86 14.0917C42.9507 14.0917 43.0404 14.0721 43.1228 14.0343C43.2053 13.9965 43.2786 13.9414 43.3378 13.8726C43.5019 13.6638 43.7113 13.495 43.9502 13.379C44.1892 13.263 44.4514 13.2029 44.717 13.2031C44.9523 13.2052 45.1849 13.2537 45.4014 13.3459C45.6179 13.438 45.814 13.572 45.9786 13.7402C46.1432 13.9083 46.273 14.1073 46.3605 14.3257C46.4481 14.5441 46.4916 14.7777 46.4886 15.013C46.539 16.8049 45.436 18.317 43.1168 19.6357C43.0385 19.68 42.9501 19.7032 42.8602 19.7032C42.7703 19.7032 42.6819 19.68 42.6037 19.6357Z" fill="black"/>
<path d="M14.8281 34.3804C15.959 34.3791 17.0433 33.9293 17.843 33.1296C18.6426 32.3299 19.0925 31.2457 19.0938 30.1147V28.896C19.0925 27.8953 18.7401 26.9268 18.0979 26.1594C17.4557 25.3919 16.5645 24.8742 15.5797 24.6966C15.6857 24.2497 15.8117 23.7415 15.8852 23.5185C16.2638 22.3619 15.4712 20.6061 14.3711 20.1632C13.7845 19.9268 12.9817 20.0414 12.4861 21.072C11.8666 22.394 11.219 24.3005 10.1497 25.3161C9.9802 25.1032 9.76501 24.931 9.52004 24.8123C9.27507 24.6936 9.00658 24.6314 8.73438 24.6304H7.10938C6.62453 24.6304 6.15954 24.823 5.8167 25.1658C5.47386 25.5087 5.28125 25.9736 5.28125 26.4585V32.5522C5.28179 33.0369 5.47457 33.5016 5.81729 33.8443C6.16001 34.1871 6.62469 34.3798 7.10938 34.3804H8.73438C9.03187 34.3801 9.3248 34.3071 9.58774 34.168C9.85067 34.0288 10.0757 33.8275 10.2432 33.5817L11.1971 34.0586C11.6204 34.2697 12.087 34.3798 12.56 34.3804H14.8281ZM9.34375 32.5522C9.34375 32.7139 9.27955 32.8689 9.16527 32.9831C9.05099 33.0974 8.89599 33.1616 8.73438 33.1616H7.10938C6.94776 33.1616 6.79276 33.0974 6.67848 32.9831C6.5642 32.8689 6.5 32.7139 6.5 32.5522V26.4585C6.5 26.2969 6.5642 26.1419 6.67848 26.0276C6.79276 25.9133 6.94776 25.8491 7.10938 25.8491H8.73438C8.89599 25.8491 9.05099 25.9133 9.16527 26.0276C9.27955 26.1419 9.34375 26.2969 9.34375 26.4585V32.5522ZM10.5625 32.3784V26.5414C12.0782 25.4823 12.8342 23.226 13.5842 21.6002C13.7617 21.2317 13.8686 21.2752 13.9161 21.2934C14.3784 21.484 14.9167 22.5593 14.7286 23.1386C14.5661 23.6286 14.2488 25.048 14.2354 25.1061C14.2161 25.195 14.2168 25.2871 14.2376 25.3758C14.2583 25.4644 14.2985 25.5473 14.3553 25.6184C14.412 25.6896 14.4839 25.7472 14.5657 25.7871C14.6475 25.827 14.7371 25.8482 14.8281 25.8491C15.6359 25.85 16.4104 26.1713 16.9816 26.7425C17.5529 27.3137 17.8741 28.0882 17.875 28.896V30.1147C17.8741 30.9226 17.5529 31.697 16.9816 32.2683C16.4104 32.8395 15.6359 33.1608 14.8281 33.1616H12.56C12.2761 33.1614 11.9962 33.0952 11.7422 32.9682L10.5625 32.3784Z" fill="black"/>
<path d="M40.2188 39.6096C40.2188 39.7712 40.283 39.9262 40.3972 40.0405C40.5115 40.1547 40.6665 40.2189 40.8281 40.2189H42.0257L41.5907 41.8439H40.4219C40.2603 41.8439 40.1053 41.9081 39.991 42.0224C39.8767 42.1367 39.8125 42.2917 39.8125 42.4533C39.8125 42.6149 39.8767 42.7699 39.991 42.8842C40.1053 42.9985 40.2603 43.0627 40.4219 43.0627H41.264L40.9545 44.2181C40.9337 44.2954 40.9285 44.3761 40.9389 44.4555C40.9494 44.5349 40.9754 44.6115 41.0154 44.6808C41.0554 44.7502 41.1088 44.811 41.1723 44.8597C41.2358 44.9085 41.3083 44.9442 41.3857 44.965C41.4631 44.9857 41.5437 44.991 41.6231 44.9805C41.7025 44.9701 41.7791 44.9441 41.8485 44.904C41.9178 44.864 41.9786 44.8107 42.0274 44.7471C42.0761 44.6836 42.1119 44.6111 42.1326 44.5337L42.5267 43.0627H44.1362L43.8315 44.2002C43.8108 44.2775 43.8055 44.3582 43.816 44.4376C43.8264 44.517 43.8524 44.5936 43.8925 44.6629C43.9325 44.7323 43.9858 44.7931 44.0494 44.8418C44.1129 44.8906 44.1854 44.9264 44.2628 44.9471C44.3401 44.9678 44.4208 44.9731 44.5002 44.9626C44.5796 44.9522 44.6562 44.9262 44.7255 44.8862C44.7949 44.8461 44.8557 44.7928 44.9044 44.7293C44.9532 44.6657 44.9889 44.5932 45.0097 44.5158L45.3992 43.0627H46.9219C47.0835 43.0627 47.2385 42.9985 47.3528 42.8842C47.467 42.7699 47.5312 42.6149 47.5312 42.4533C47.5312 42.2917 47.467 42.1367 47.3528 42.0224C47.2385 41.9081 47.0835 41.8439 46.9219 41.8439H45.7243L46.1593 40.2189H47.3281C47.4897 40.2189 47.6447 40.1547 47.759 40.0405C47.8733 39.9262 47.9375 39.7712 47.9375 39.6096C47.9375 39.4479 47.8733 39.293 47.759 39.1787C47.6447 39.0644 47.4897 39.0002 47.3281 39.0002H46.486L46.7955 37.8448C46.8163 37.7675 46.8215 37.6868 46.8111 37.6074C46.8006 37.528 46.7746 37.4514 46.7346 37.3821C46.6946 37.3127 46.6412 37.2519 46.5777 37.2032C46.5142 37.1544 46.4417 37.1187 46.3643 37.0979C46.2869 37.0772 46.2063 37.0719 46.1269 37.0824C46.0475 37.0928 45.9709 37.1188 45.9015 37.1589C45.8322 37.1989 45.7714 37.2522 45.7226 37.3157C45.6739 37.3793 45.6381 37.4518 45.6174 37.5292L45.2242 39.0002H43.6146L43.9193 37.8627C43.94 37.7853 43.9453 37.7047 43.9348 37.6253C43.9244 37.5459 43.8984 37.4693 43.8583 37.3999C43.8183 37.3306 43.765 37.2698 43.7015 37.221C43.6379 37.1723 43.5654 37.1365 43.488 37.1158C43.4107 37.0951 43.33 37.0898 43.2506 37.1002C43.1712 37.1107 43.0946 37.1367 43.0253 37.1767C42.9559 37.2168 42.8951 37.2701 42.8464 37.3336C42.7976 37.3972 42.7619 37.4697 42.7412 37.547L42.3524 39.0002H40.8281C40.6665 39.0002 40.5115 39.0644 40.3972 39.1787C40.283 39.293 40.2188 39.4479 40.2188 39.6096ZM43.288 40.2189H44.8975L44.462 41.8439H42.8525L43.288 40.2189Z" fill="black"/>
</g>
<defs>
<clipPath id="clip0_1040_13967">
<rect width="52" height="52" fill="white"/>
</clipPath>
</defs>
</svg>
