<svg width="33" height="32" viewBox="0 0 33 32" fill="none" xmlns="http://www.w3.org/2000/svg">
<path d="M29.8346 29.3333C29.8346 29.7013 29.536 30 29.168 30H11.8346C11.4666 30 11.168 29.7013 11.168 29.3333C11.168 28.9653 11.4666 28.6667 11.8346 28.6667H29.168C29.536 28.6667 29.8346 28.9653 29.8346 29.3333ZM8.5013 29.3333C8.5013 30.804 7.3053 32 5.83464 32C4.36397 32 3.16797 30.804 3.16797 29.3333C3.16797 27.8627 4.36397 26.6667 5.83464 26.6667C7.3053 26.6667 8.5013 27.8627 8.5013 29.3333ZM7.16797 29.3333C7.16797 28.5987 6.5693 28 5.83464 28C5.09997 28 4.5013 28.5987 4.5013 29.3333C4.5013 30.068 5.09997 30.6667 5.83464 30.6667C6.5693 30.6667 7.16797 30.068 7.16797 29.3333ZM11.168 22.6667C11.168 23.0347 11.4666 23.3333 11.8346 23.3333H29.168C29.536 23.3333 29.8346 23.0347 29.8346 22.6667C29.8346 22.2987 29.536 22 29.168 22H11.8346C11.4666 22 11.168 22.2987 11.168 22.6667ZM8.5013 22.6667C8.5013 24.1373 7.3053 25.3333 5.83464 25.3333C4.36397 25.3333 3.16797 24.1373 3.16797 22.6667C3.16797 21.196 4.36397 20 5.83464 20C7.3053 20 8.5013 21.196 8.5013 22.6667ZM7.16797 22.6667C7.16797 21.932 6.5693 21.3333 5.83464 21.3333C5.09997 21.3333 4.5013 21.932 4.5013 22.6667C4.5013 23.4013 5.09997 24 5.83464 24C6.5693 24 7.16797 23.4013 7.16797 22.6667ZM19.168 4.66667C19.168 2.09333 21.2613 0 23.8346 0C26.408 0 28.5013 2.09333 28.5013 4.66667C28.5013 7.24 26.408 9.33333 23.8346 9.33333C21.2613 9.33333 19.168 7.24 19.168 4.66667ZM20.5013 4.66667C20.5013 6.504 21.9973 8 23.8346 8C25.672 8 27.168 6.504 27.168 4.66667C27.168 2.82933 25.672 1.33333 23.8346 1.33333C21.9973 1.33333 20.5013 2.82933 20.5013 4.66667ZM8.0733 15.6573C7.25463 14.6373 6.97864 13.288 7.29597 11.8547C7.43464 11.2293 8.24264 7.91867 8.39197 7.224C9.39997 2.56533 12.28 0 16.5013 0C16.7453 0 16.984 0.008 17.216 0.0253333C17.5826 0.052 17.8586 0.370667 17.832 0.738667C17.8066 1.10667 17.476 1.388 17.1186 1.35467C16.9173 1.34 16.7106 1.33333 16.5 1.33333C11.9786 1.33333 10.304 4.69067 9.69463 7.50533C9.54263 8.20933 8.7333 11.5267 8.5973 12.144C8.3653 13.188 8.54264 14.1147 9.11197 14.8227C9.7213 15.5813 10.7093 16 11.8946 16H21.1053C22.2026 16 23.1466 15.6347 23.7613 14.9693C24.3053 14.3813 24.5573 13.6027 24.488 12.7187C24.46 12.352 24.7346 12.0307 25.1013 12.0027C25.4773 11.9747 25.7893 12.2493 25.8173 12.616C25.9133 13.864 25.5306 15.0213 24.7386 15.876C23.868 16.816 22.5773 17.3347 21.104 17.3347H19.1653C19.1653 18.8053 17.9693 20.0013 16.4986 20.0013C15.028 20.0013 13.832 18.8053 13.832 17.3347H11.8933C10.3186 17.3347 8.9253 16.724 8.07064 15.6587L8.0733 15.6573ZM17.8346 17.3333H15.168C15.168 18.068 15.7666 18.6667 16.5013 18.6667C17.236 18.6667 17.8346 18.068 17.8346 17.3333Z" fill="white"/>
</svg>
