<svg width="32" height="32" viewBox="0 0 32 32" fill="none" xmlns="http://www.w3.org/2000/svg">
<path d="M16.0001 17.9H16C15.4858 17.9 14.9831 18.0525 14.5555 18.3382C14.128 18.6239 13.7947 19.0299 13.5979 19.505C13.4011 19.9801 13.3496 20.5029 13.45 21.0072C13.5503 21.5116 13.7979 21.9749 14.1615 22.3385C14.5251 22.7021 14.9884 22.9497 15.4928 23.05C15.9971 23.1504 16.5199 23.0989 16.995 22.9021C17.4701 22.7053 17.8761 22.3721 18.1618 21.9445C18.4475 21.5169 18.6 21.0142 18.6 20.5V20.4999C18.5992 19.8106 18.325 19.1498 17.8376 18.6624C17.3502 18.175 16.6894 17.9008 16.0001 17.9ZM16 21.9C15.7231 21.9 15.4524 21.8179 15.2222 21.6641C14.992 21.5102 14.8125 21.2916 14.7066 21.0358C14.6006 20.7799 14.5729 20.4984 14.6269 20.2269C14.6809 19.9553 14.8143 19.7058 15.0101 19.5101C15.2058 19.3143 15.4553 19.1809 15.7269 19.1269C15.9984 19.0729 16.2799 19.1006 16.5358 19.2066C16.7916 19.3125 17.0102 19.492 17.1641 19.7222C17.3179 19.9524 17.4 20.2231 17.4 20.5C17.4 20.8713 17.2525 21.2274 16.99 21.4899C16.7274 21.7525 16.3713 21.9 16 21.9Z" fill="white" stroke="white" stroke-width="0.2"/>
<mask id="path-2-outside-1_872_3" maskUnits="userSpaceOnUse" x="0" y="0.00195312" width="32" height="31" fill="black">
<rect fill="white" y="0.00195312" width="32" height="31"/>
<path d="M27.501 9.54943C27.501 9.53343 27.501 9.51793 27.501 9.50193C27.4999 8.96674 27.3764 8.4389 27.1398 7.95884C26.9033 7.47877 26.56 7.05921 26.1363 6.73229C25.7125 6.40538 25.2196 6.17977 24.6952 6.07276C24.1709 5.96575 23.629 5.98017 23.111 6.11493C22.6109 4.62528 21.6555 3.33033 20.3798 2.41292C19.104 1.4955 17.5724 1.00195 16.001 1.00195C14.4297 1.00195 12.898 1.4955 11.6222 2.41292C10.3465 3.33033 9.39113 4.62528 8.89101 6.11493C8.37327 5.98023 7.83158 5.96576 7.30739 6.07263C6.7832 6.17951 6.29041 6.40489 5.86673 6.73153C5.44305 7.05816 5.09972 7.4774 4.863 7.95715C4.62629 8.43691 4.50246 8.96445 4.50101 9.49943C4.50101 9.51543 4.50101 9.53093 4.50101 9.54693C3.29529 10.0986 2.30646 11.0344 1.68923 12.2079C1.072 13.3814 0.861187 14.7264 1.08978 16.0325C1.31838 17.3386 1.97348 18.532 2.9526 19.4261C3.93171 20.3202 5.1796 20.8646 6.50101 20.9739V21.9994C6.50101 22.132 6.55369 22.2592 6.64746 22.353C6.74123 22.4467 6.8684 22.4994 7.00101 22.4994H8.77001C8.93393 23.0931 9.17091 23.6641 9.47551 24.1994L8.22251 25.4494C8.12878 25.5432 8.07612 25.6703 8.07612 25.8029C8.07612 25.9355 8.12878 26.0627 8.22251 26.1564L10.3425 28.2764C10.4363 28.3702 10.5634 28.4228 10.696 28.4228C10.8286 28.4228 10.9557 28.3702 11.0495 28.2764L12.301 27.0249C12.8363 27.3295 13.4073 27.5665 14.001 27.7304V29.4994C14.001 29.632 14.0537 29.7592 14.1475 29.853C14.2412 29.9467 14.3684 29.9994 14.501 29.9994H17.501C17.6336 29.9994 17.7608 29.9467 17.8546 29.853C17.9483 29.7592 18.001 29.632 18.001 29.4994V27.7304C18.5947 27.5664 19.1657 27.3295 19.701 27.0249L20.951 28.2779C21.0465 28.3684 21.173 28.4188 21.3045 28.4188C21.436 28.4188 21.5625 28.3684 21.658 28.2779L23.778 26.1579C23.8717 26.0642 23.9244 25.937 23.9244 25.8044C23.9244 25.6718 23.8717 25.5447 23.778 25.4509L22.5265 24.1994C22.8311 23.6641 23.0681 23.0931 23.232 22.4994H25.001C25.1336 22.4994 25.2608 22.4467 25.3546 22.353C25.4483 22.2592 25.501 22.132 25.501 21.9994V20.9749C25.5155 20.9749 25.531 20.9749 25.5455 20.9724C26.8615 20.8523 28.1009 20.301 29.0713 19.404C30.0416 18.507 30.6885 17.3146 30.9115 16.0121C31.1345 14.7097 30.921 13.37 30.3043 12.2013C29.6875 11.0327 28.7021 10.1004 27.501 9.54943ZM24.501 21.4994H22.841C22.727 21.4994 22.6164 21.5384 22.5275 21.6098C22.4387 21.6813 22.3769 21.781 22.3525 21.8924C22.1881 22.6429 21.8909 23.358 21.475 24.0039C21.4133 24.1 21.3864 24.2143 21.3987 24.3278C21.4109 24.4414 21.4617 24.5473 21.5425 24.6279L22.719 25.8044L21.306 27.2174L20.1295 26.0409C20.0488 25.9603 19.943 25.9097 19.8296 25.8975C19.7162 25.8853 19.602 25.9123 19.506 25.9739C18.8593 26.3887 18.144 26.6851 17.3935 26.8494C17.282 26.874 17.1822 26.936 17.1108 27.0251C17.0394 27.1143 17.0006 27.2252 17.001 27.3394V28.9994H15.001V27.3394C15.0009 27.2255 14.962 27.1151 14.8906 27.0264C14.8193 26.9376 14.7197 26.8759 14.6085 26.8514C13.8579 26.6865 13.1426 26.3894 12.496 25.9739C12.4 25.9123 12.2859 25.8853 12.1725 25.8975C12.059 25.9097 11.9532 25.9603 11.8725 26.0409L10.696 27.2174L9.28301 25.8044L10.4595 24.6279C10.5403 24.5473 10.5911 24.4414 10.6034 24.3278C10.6156 24.2143 10.5887 24.1 10.527 24.0039C10.1116 23.3579 9.81496 22.6428 9.65101 21.8924C9.62655 21.7808 9.56458 21.6809 9.47543 21.6094C9.38627 21.5379 9.2753 21.4991 9.16101 21.4994H7.50101V19.4994H9.16101C9.27505 19.4994 9.38566 19.4605 9.47451 19.389C9.56336 19.3175 9.62511 19.2178 9.64951 19.1064C9.81392 18.3559 10.1111 17.6409 10.527 16.9949C10.5887 16.8988 10.6156 16.7845 10.6034 16.671C10.5911 16.5575 10.5403 16.4516 10.4595 16.3709L9.28301 15.1944L10.696 13.7814L11.8725 14.9579C11.9532 15.0385 12.059 15.0891 12.1725 15.1013C12.2859 15.1135 12.4 15.0866 12.496 15.0249C13.1427 14.6102 13.858 14.3137 14.6085 14.1494C14.7201 14.1249 14.8198 14.0629 14.8913 13.9737C14.9627 13.8846 15.0014 13.7736 15.001 13.6594V11.9994H17.001V13.6594C17.0011 13.7733 17.04 13.8837 17.1114 13.9725C17.1828 14.0612 17.2823 14.1229 17.3935 14.1474C18.1441 14.3123 18.8595 14.6095 19.506 15.0249C19.602 15.0866 19.7162 15.1135 19.8296 15.1013C19.943 15.0891 20.0488 15.0385 20.1295 14.9579L21.306 13.7814L22.719 15.1944L21.5425 16.3709C21.4617 16.4516 21.4109 16.5575 21.3987 16.671C21.3864 16.7845 21.4133 16.8988 21.475 16.9949C21.8904 17.641 22.1871 18.356 22.351 19.1064C22.3755 19.2181 22.4374 19.318 22.5266 19.3895C22.6158 19.461 22.7267 19.4998 22.841 19.4994H24.501V21.4994ZM25.501 19.9704V18.9994C25.501 18.8668 25.4483 18.7396 25.3546 18.6459C25.2608 18.5521 25.1336 18.4994 25.001 18.4994H23.232C23.0681 17.9058 22.8311 17.3347 22.5265 16.7994L23.7795 15.5494C23.8732 15.4557 23.9259 15.3285 23.9259 15.1959C23.9259 15.0633 23.8732 14.9362 23.7795 14.8424L21.6595 12.7224C21.5658 12.6287 21.4386 12.576 21.306 12.576C21.1734 12.576 21.0463 12.6287 20.9525 12.7224L19.701 13.9739C19.1657 13.6694 18.5947 13.4324 18.001 13.2684V11.4994C18.001 11.3668 17.9483 11.2396 17.8546 11.1459C17.7608 11.0521 17.6336 10.9994 17.501 10.9994H14.501C14.3684 10.9994 14.2412 11.0521 14.1475 11.1459C14.0537 11.2396 14.001 11.3668 14.001 11.4994V13.2684C13.4073 13.4324 12.8363 13.6693 12.301 13.9739L11.051 12.7209C10.9555 12.6306 10.829 12.5803 10.6975 12.5803C10.566 12.5803 10.4395 12.6306 10.344 12.7209L8.22401 14.8409C8.13028 14.9347 8.07762 15.0618 8.07762 15.1944C8.07762 15.327 8.13028 15.4542 8.22401 15.5479L9.47551 16.7994C9.17091 17.3347 8.93393 17.9058 8.77001 18.4994H7.00101C6.8684 18.4994 6.74123 18.5521 6.64746 18.6459C6.55369 18.7396 6.50101 18.8668 6.50101 18.9994V19.9739C5.38346 19.8604 4.3367 19.3738 3.52948 18.5926C2.72226 17.8114 2.2016 16.7812 2.05143 15.668C1.90126 14.5547 2.13033 13.4234 2.70171 12.4563C3.27309 11.4891 4.1535 10.7426 5.20101 10.3369C5.30585 10.2971 5.39425 10.2232 5.45201 10.1271C5.50978 10.0309 5.53355 9.91819 5.51951 9.80693C5.47343 9.45488 5.50331 9.09704 5.60716 8.75752C5.71101 8.41799 5.88642 8.10466 6.12155 7.83863C6.35669 7.5726 6.64611 7.36005 6.97031 7.21529C7.29451 7.07053 7.64597 6.99692 8.00101 6.99943C8.34976 6.99658 8.69494 7.06978 9.01251 7.21393C9.07907 7.24448 9.15153 7.26004 9.22477 7.2595C9.29801 7.25897 9.37023 7.24235 9.43634 7.21082C9.50245 7.17929 9.56082 7.13363 9.60733 7.07705C9.65385 7.02048 9.68736 6.95438 9.70551 6.88343C10.0645 5.48647 10.8778 4.24859 12.0176 3.36468C13.1573 2.48076 14.5587 2.00104 16.001 2.00104C17.4433 2.00104 18.8447 2.48076 19.9844 3.36468C21.1242 4.24859 21.9376 5.48647 22.2965 6.88343C22.3147 6.95438 22.3482 7.02048 22.3947 7.07705C22.4412 7.13363 22.4996 7.17929 22.5657 7.21082C22.6318 7.24235 22.704 7.25897 22.7773 7.2595C22.8505 7.26004 22.923 7.24448 22.9895 7.21393C23.3071 7.06978 23.6523 6.99658 24.001 6.99943C24.3558 6.99728 24.707 7.07115 25.0309 7.21607C25.3548 7.36099 25.6439 7.57359 25.8788 7.83958C26.1137 8.10557 26.2888 8.41877 26.3925 8.75812C26.4962 9.09747 26.5261 9.45509 26.48 9.80693C26.466 9.91819 26.4897 10.0309 26.5475 10.1271C26.6053 10.2232 26.6937 10.2971 26.7985 10.3369C27.8477 10.7404 28.7302 11.486 29.3032 12.4531C29.8763 13.4202 30.1064 14.5523 29.9563 15.6664C29.8063 16.7804 29.2848 17.8113 28.4764 18.5924C27.6679 19.3734 26.6196 19.8589 25.501 19.9704Z"/>
</mask>
<path d="M27.501 9.54943C27.501 9.53343 27.501 9.51793 27.501 9.50193C27.4999 8.96674 27.3764 8.4389 27.1398 7.95884C26.9033 7.47877 26.56 7.05921 26.1363 6.73229C25.7125 6.40538 25.2196 6.17977 24.6952 6.07276C24.1709 5.96575 23.629 5.98017 23.111 6.11493C22.6109 4.62528 21.6555 3.33033 20.3798 2.41292C19.104 1.4955 17.5724 1.00195 16.001 1.00195C14.4297 1.00195 12.898 1.4955 11.6222 2.41292C10.3465 3.33033 9.39113 4.62528 8.89101 6.11493C8.37327 5.98023 7.83158 5.96576 7.30739 6.07263C6.7832 6.17951 6.29041 6.40489 5.86673 6.73153C5.44305 7.05816 5.09972 7.4774 4.863 7.95715C4.62629 8.43691 4.50246 8.96445 4.50101 9.49943C4.50101 9.51543 4.50101 9.53093 4.50101 9.54693C3.29529 10.0986 2.30646 11.0344 1.68923 12.2079C1.072 13.3814 0.861187 14.7264 1.08978 16.0325C1.31838 17.3386 1.97348 18.532 2.9526 19.4261C3.93171 20.3202 5.1796 20.8646 6.50101 20.9739V21.9994C6.50101 22.132 6.55369 22.2592 6.64746 22.353C6.74123 22.4467 6.8684 22.4994 7.00101 22.4994H8.77001C8.93393 23.0931 9.17091 23.6641 9.47551 24.1994L8.22251 25.4494C8.12878 25.5432 8.07612 25.6703 8.07612 25.8029C8.07612 25.9355 8.12878 26.0627 8.22251 26.1564L10.3425 28.2764C10.4363 28.3702 10.5634 28.4228 10.696 28.4228C10.8286 28.4228 10.9557 28.3702 11.0495 28.2764L12.301 27.0249C12.8363 27.3295 13.4073 27.5665 14.001 27.7304V29.4994C14.001 29.632 14.0537 29.7592 14.1475 29.853C14.2412 29.9467 14.3684 29.9994 14.501 29.9994H17.501C17.6336 29.9994 17.7608 29.9467 17.8546 29.853C17.9483 29.7592 18.001 29.632 18.001 29.4994V27.7304C18.5947 27.5664 19.1657 27.3295 19.701 27.0249L20.951 28.2779C21.0465 28.3684 21.173 28.4188 21.3045 28.4188C21.436 28.4188 21.5625 28.3684 21.658 28.2779L23.778 26.1579C23.8717 26.0642 23.9244 25.937 23.9244 25.8044C23.9244 25.6718 23.8717 25.5447 23.778 25.4509L22.5265 24.1994C22.8311 23.6641 23.0681 23.0931 23.232 22.4994H25.001C25.1336 22.4994 25.2608 22.4467 25.3546 22.353C25.4483 22.2592 25.501 22.132 25.501 21.9994V20.9749C25.5155 20.9749 25.531 20.9749 25.5455 20.9724C26.8615 20.8523 28.1009 20.301 29.0713 19.404C30.0416 18.507 30.6885 17.3146 30.9115 16.0121C31.1345 14.7097 30.921 13.37 30.3043 12.2013C29.6875 11.0327 28.7021 10.1004 27.501 9.54943ZM24.501 21.4994H22.841C22.727 21.4994 22.6164 21.5384 22.5275 21.6098C22.4387 21.6813 22.3769 21.781 22.3525 21.8924C22.1881 22.6429 21.8909 23.358 21.475 24.0039C21.4133 24.1 21.3864 24.2143 21.3987 24.3278C21.4109 24.4414 21.4617 24.5473 21.5425 24.6279L22.719 25.8044L21.306 27.2174L20.1295 26.0409C20.0488 25.9603 19.943 25.9097 19.8296 25.8975C19.7162 25.8853 19.602 25.9123 19.506 25.9739C18.8593 26.3887 18.144 26.6851 17.3935 26.8494C17.282 26.874 17.1822 26.936 17.1108 27.0251C17.0394 27.1143 17.0006 27.2252 17.001 27.3394V28.9994H15.001V27.3394C15.0009 27.2255 14.962 27.1151 14.8906 27.0264C14.8193 26.9376 14.7197 26.8759 14.6085 26.8514C13.8579 26.6865 13.1426 26.3894 12.496 25.9739C12.4 25.9123 12.2859 25.8853 12.1725 25.8975C12.059 25.9097 11.9532 25.9603 11.8725 26.0409L10.696 27.2174L9.28301 25.8044L10.4595 24.6279C10.5403 24.5473 10.5911 24.4414 10.6034 24.3278C10.6156 24.2143 10.5887 24.1 10.527 24.0039C10.1116 23.3579 9.81496 22.6428 9.65101 21.8924C9.62655 21.7808 9.56458 21.6809 9.47543 21.6094C9.38627 21.5379 9.2753 21.4991 9.16101 21.4994H7.50101V19.4994H9.16101C9.27505 19.4994 9.38566 19.4605 9.47451 19.389C9.56336 19.3175 9.62511 19.2178 9.64951 19.1064C9.81392 18.3559 10.1111 17.6409 10.527 16.9949C10.5887 16.8988 10.6156 16.7845 10.6034 16.671C10.5911 16.5575 10.5403 16.4516 10.4595 16.3709L9.28301 15.1944L10.696 13.7814L11.8725 14.9579C11.9532 15.0385 12.059 15.0891 12.1725 15.1013C12.2859 15.1135 12.4 15.0866 12.496 15.0249C13.1427 14.6102 13.858 14.3137 14.6085 14.1494C14.7201 14.1249 14.8198 14.0629 14.8913 13.9737C14.9627 13.8846 15.0014 13.7736 15.001 13.6594V11.9994H17.001V13.6594C17.0011 13.7733 17.04 13.8837 17.1114 13.9725C17.1828 14.0612 17.2823 14.1229 17.3935 14.1474C18.1441 14.3123 18.8595 14.6095 19.506 15.0249C19.602 15.0866 19.7162 15.1135 19.8296 15.1013C19.943 15.0891 20.0488 15.0385 20.1295 14.9579L21.306 13.7814L22.719 15.1944L21.5425 16.3709C21.4617 16.4516 21.4109 16.5575 21.3987 16.671C21.3864 16.7845 21.4133 16.8988 21.475 16.9949C21.8904 17.641 22.1871 18.356 22.351 19.1064C22.3755 19.2181 22.4374 19.318 22.5266 19.3895C22.6158 19.461 22.7267 19.4998 22.841 19.4994H24.501V21.4994ZM25.501 19.9704V18.9994C25.501 18.8668 25.4483 18.7396 25.3546 18.6459C25.2608 18.5521 25.1336 18.4994 25.001 18.4994H23.232C23.0681 17.9058 22.8311 17.3347 22.5265 16.7994L23.7795 15.5494C23.8732 15.4557 23.9259 15.3285 23.9259 15.1959C23.9259 15.0633 23.8732 14.9362 23.7795 14.8424L21.6595 12.7224C21.5658 12.6287 21.4386 12.576 21.306 12.576C21.1734 12.576 21.0463 12.6287 20.9525 12.7224L19.701 13.9739C19.1657 13.6694 18.5947 13.4324 18.001 13.2684V11.4994C18.001 11.3668 17.9483 11.2396 17.8546 11.1459C17.7608 11.0521 17.6336 10.9994 17.501 10.9994H14.501C14.3684 10.9994 14.2412 11.0521 14.1475 11.1459C14.0537 11.2396 14.001 11.3668 14.001 11.4994V13.2684C13.4073 13.4324 12.8363 13.6693 12.301 13.9739L11.051 12.7209C10.9555 12.6306 10.829 12.5803 10.6975 12.5803C10.566 12.5803 10.4395 12.6306 10.344 12.7209L8.22401 14.8409C8.13028 14.9347 8.07762 15.0618 8.07762 15.1944C8.07762 15.327 8.13028 15.4542 8.22401 15.5479L9.47551 16.7994C9.17091 17.3347 8.93393 17.9058 8.77001 18.4994H7.00101C6.8684 18.4994 6.74123 18.5521 6.64746 18.6459C6.55369 18.7396 6.50101 18.8668 6.50101 18.9994V19.9739C5.38346 19.8604 4.3367 19.3738 3.52948 18.5926C2.72226 17.8114 2.2016 16.7812 2.05143 15.668C1.90126 14.5547 2.13033 13.4234 2.70171 12.4563C3.27309 11.4891 4.1535 10.7426 5.20101 10.3369C5.30585 10.2971 5.39425 10.2232 5.45201 10.1271C5.50978 10.0309 5.53355 9.91819 5.51951 9.80693C5.47343 9.45488 5.50331 9.09704 5.60716 8.75752C5.71101 8.41799 5.88642 8.10466 6.12155 7.83863C6.35669 7.5726 6.64611 7.36005 6.97031 7.21529C7.29451 7.07053 7.64597 6.99692 8.00101 6.99943C8.34976 6.99658 8.69494 7.06978 9.01251 7.21393C9.07907 7.24448 9.15153 7.26004 9.22477 7.2595C9.29801 7.25897 9.37023 7.24235 9.43634 7.21082C9.50245 7.17929 9.56082 7.13363 9.60733 7.07705C9.65385 7.02048 9.68736 6.95438 9.70551 6.88343C10.0645 5.48647 10.8778 4.24859 12.0176 3.36468C13.1573 2.48076 14.5587 2.00104 16.001 2.00104C17.4433 2.00104 18.8447 2.48076 19.9844 3.36468C21.1242 4.24859 21.9376 5.48647 22.2965 6.88343C22.3147 6.95438 22.3482 7.02048 22.3947 7.07705C22.4412 7.13363 22.4996 7.17929 22.5657 7.21082C22.6318 7.24235 22.704 7.25897 22.7773 7.2595C22.8505 7.26004 22.923 7.24448 22.9895 7.21393C23.3071 7.06978 23.6523 6.99658 24.001 6.99943C24.3558 6.99728 24.707 7.07115 25.0309 7.21607C25.3548 7.36099 25.6439 7.57359 25.8788 7.83958C26.1137 8.10557 26.2888 8.41877 26.3925 8.75812C26.4962 9.09747 26.5261 9.45509 26.48 9.80693C26.466 9.91819 26.4897 10.0309 26.5475 10.1271C26.6053 10.2232 26.6937 10.2971 26.7985 10.3369C27.8477 10.7404 28.7302 11.486 29.3032 12.4531C29.8763 13.4202 30.1064 14.5523 29.9563 15.6664C29.8063 16.7804 29.2848 17.8113 28.4764 18.5924C27.6679 19.3734 26.6196 19.8589 25.501 19.9704Z" fill="white"/>
<path d="M27.501 9.54943C27.501 9.53343 27.501 9.51793 27.501 9.50193C27.4999 8.96674 27.3764 8.4389 27.1398 7.95884C26.9033 7.47877 26.56 7.05921 26.1363 6.73229C25.7125 6.40538 25.2196 6.17977 24.6952 6.07276C24.1709 5.96575 23.629 5.98017 23.111 6.11493C22.6109 4.62528 21.6555 3.33033 20.3798 2.41292C19.104 1.4955 17.5724 1.00195 16.001 1.00195C14.4297 1.00195 12.898 1.4955 11.6222 2.41292C10.3465 3.33033 9.39113 4.62528 8.89101 6.11493C8.37327 5.98023 7.83158 5.96576 7.30739 6.07263C6.7832 6.17951 6.29041 6.40489 5.86673 6.73153C5.44305 7.05816 5.09972 7.4774 4.863 7.95715C4.62629 8.43691 4.50246 8.96445 4.50101 9.49943C4.50101 9.51543 4.50101 9.53093 4.50101 9.54693C3.29529 10.0986 2.30646 11.0344 1.68923 12.2079C1.072 13.3814 0.861187 14.7264 1.08978 16.0325C1.31838 17.3386 1.97348 18.532 2.9526 19.4261C3.93171 20.3202 5.1796 20.8646 6.50101 20.9739V21.9994C6.50101 22.132 6.55369 22.2592 6.64746 22.353C6.74123 22.4467 6.8684 22.4994 7.00101 22.4994H8.77001C8.93393 23.0931 9.17091 23.6641 9.47551 24.1994L8.22251 25.4494C8.12878 25.5432 8.07612 25.6703 8.07612 25.8029C8.07612 25.9355 8.12878 26.0627 8.22251 26.1564L10.3425 28.2764C10.4363 28.3702 10.5634 28.4228 10.696 28.4228C10.8286 28.4228 10.9557 28.3702 11.0495 28.2764L12.301 27.0249C12.8363 27.3295 13.4073 27.5665 14.001 27.7304V29.4994C14.001 29.632 14.0537 29.7592 14.1475 29.853C14.2412 29.9467 14.3684 29.9994 14.501 29.9994H17.501C17.6336 29.9994 17.7608 29.9467 17.8546 29.853C17.9483 29.7592 18.001 29.632 18.001 29.4994V27.7304C18.5947 27.5664 19.1657 27.3295 19.701 27.0249L20.951 28.2779C21.0465 28.3684 21.173 28.4188 21.3045 28.4188C21.436 28.4188 21.5625 28.3684 21.658 28.2779L23.778 26.1579C23.8717 26.0642 23.9244 25.937 23.9244 25.8044C23.9244 25.6718 23.8717 25.5447 23.778 25.4509L22.5265 24.1994C22.8311 23.6641 23.0681 23.0931 23.232 22.4994H25.001C25.1336 22.4994 25.2608 22.4467 25.3546 22.353C25.4483 22.2592 25.501 22.132 25.501 21.9994V20.9749C25.5155 20.9749 25.531 20.9749 25.5455 20.9724C26.8615 20.8523 28.1009 20.301 29.0713 19.404C30.0416 18.507 30.6885 17.3146 30.9115 16.0121C31.1345 14.7097 30.921 13.37 30.3043 12.2013C29.6875 11.0327 28.7021 10.1004 27.501 9.54943ZM24.501 21.4994H22.841C22.727 21.4994 22.6164 21.5384 22.5275 21.6098C22.4387 21.6813 22.3769 21.781 22.3525 21.8924C22.1881 22.6429 21.8909 23.358 21.475 24.0039C21.4133 24.1 21.3864 24.2143 21.3987 24.3278C21.4109 24.4414 21.4617 24.5473 21.5425 24.6279L22.719 25.8044L21.306 27.2174L20.1295 26.0409C20.0488 25.9603 19.943 25.9097 19.8296 25.8975C19.7162 25.8853 19.602 25.9123 19.506 25.9739C18.8593 26.3887 18.144 26.6851 17.3935 26.8494C17.282 26.874 17.1822 26.936 17.1108 27.0251C17.0394 27.1143 17.0006 27.2252 17.001 27.3394V28.9994H15.001V27.3394C15.0009 27.2255 14.962 27.1151 14.8906 27.0264C14.8193 26.9376 14.7197 26.8759 14.6085 26.8514C13.8579 26.6865 13.1426 26.3894 12.496 25.9739C12.4 25.9123 12.2859 25.8853 12.1725 25.8975C12.059 25.9097 11.9532 25.9603 11.8725 26.0409L10.696 27.2174L9.28301 25.8044L10.4595 24.6279C10.5403 24.5473 10.5911 24.4414 10.6034 24.3278C10.6156 24.2143 10.5887 24.1 10.527 24.0039C10.1116 23.3579 9.81496 22.6428 9.65101 21.8924C9.62655 21.7808 9.56458 21.6809 9.47543 21.6094C9.38627 21.5379 9.2753 21.4991 9.16101 21.4994H7.50101V19.4994H9.16101C9.27505 19.4994 9.38566 19.4605 9.47451 19.389C9.56336 19.3175 9.62511 19.2178 9.64951 19.1064C9.81392 18.3559 10.1111 17.6409 10.527 16.9949C10.5887 16.8988 10.6156 16.7845 10.6034 16.671C10.5911 16.5575 10.5403 16.4516 10.4595 16.3709L9.28301 15.1944L10.696 13.7814L11.8725 14.9579C11.9532 15.0385 12.059 15.0891 12.1725 15.1013C12.2859 15.1135 12.4 15.0866 12.496 15.0249C13.1427 14.6102 13.858 14.3137 14.6085 14.1494C14.7201 14.1249 14.8198 14.0629 14.8913 13.9737C14.9627 13.8846 15.0014 13.7736 15.001 13.6594V11.9994H17.001V13.6594C17.0011 13.7733 17.04 13.8837 17.1114 13.9725C17.1828 14.0612 17.2823 14.1229 17.3935 14.1474C18.1441 14.3123 18.8595 14.6095 19.506 15.0249C19.602 15.0866 19.7162 15.1135 19.8296 15.1013C19.943 15.0891 20.0488 15.0385 20.1295 14.9579L21.306 13.7814L22.719 15.1944L21.5425 16.3709C21.4617 16.4516 21.4109 16.5575 21.3987 16.671C21.3864 16.7845 21.4133 16.8988 21.475 16.9949C21.8904 17.641 22.1871 18.356 22.351 19.1064C22.3755 19.2181 22.4374 19.318 22.5266 19.3895C22.6158 19.461 22.7267 19.4998 22.841 19.4994H24.501V21.4994ZM25.501 19.9704V18.9994C25.501 18.8668 25.4483 18.7396 25.3546 18.6459C25.2608 18.5521 25.1336 18.4994 25.001 18.4994H23.232C23.0681 17.9058 22.8311 17.3347 22.5265 16.7994L23.7795 15.5494C23.8732 15.4557 23.9259 15.3285 23.9259 15.1959C23.9259 15.0633 23.8732 14.9362 23.7795 14.8424L21.6595 12.7224C21.5658 12.6287 21.4386 12.576 21.306 12.576C21.1734 12.576 21.0463 12.6287 20.9525 12.7224L19.701 13.9739C19.1657 13.6694 18.5947 13.4324 18.001 13.2684V11.4994C18.001 11.3668 17.9483 11.2396 17.8546 11.1459C17.7608 11.0521 17.6336 10.9994 17.501 10.9994H14.501C14.3684 10.9994 14.2412 11.0521 14.1475 11.1459C14.0537 11.2396 14.001 11.3668 14.001 11.4994V13.2684C13.4073 13.4324 12.8363 13.6693 12.301 13.9739L11.051 12.7209C10.9555 12.6306 10.829 12.5803 10.6975 12.5803C10.566 12.5803 10.4395 12.6306 10.344 12.7209L8.22401 14.8409C8.13028 14.9347 8.07762 15.0618 8.07762 15.1944C8.07762 15.327 8.13028 15.4542 8.22401 15.5479L9.47551 16.7994C9.17091 17.3347 8.93393 17.9058 8.77001 18.4994H7.00101C6.8684 18.4994 6.74123 18.5521 6.64746 18.6459C6.55369 18.7396 6.50101 18.8668 6.50101 18.9994V19.9739C5.38346 19.8604 4.3367 19.3738 3.52948 18.5926C2.72226 17.8114 2.2016 16.7812 2.05143 15.668C1.90126 14.5547 2.13033 13.4234 2.70171 12.4563C3.27309 11.4891 4.1535 10.7426 5.20101 10.3369C5.30585 10.2971 5.39425 10.2232 5.45201 10.1271C5.50978 10.0309 5.53355 9.91819 5.51951 9.80693C5.47343 9.45488 5.50331 9.09704 5.60716 8.75752C5.71101 8.41799 5.88642 8.10466 6.12155 7.83863C6.35669 7.5726 6.64611 7.36005 6.97031 7.21529C7.29451 7.07053 7.64597 6.99692 8.00101 6.99943C8.34976 6.99658 8.69494 7.06978 9.01251 7.21393C9.07907 7.24448 9.15153 7.26004 9.22477 7.2595C9.29801 7.25897 9.37023 7.24235 9.43634 7.21082C9.50245 7.17929 9.56082 7.13363 9.60733 7.07705C9.65385 7.02048 9.68736 6.95438 9.70551 6.88343C10.0645 5.48647 10.8778 4.24859 12.0176 3.36468C13.1573 2.48076 14.5587 2.00104 16.001 2.00104C17.4433 2.00104 18.8447 2.48076 19.9844 3.36468C21.1242 4.24859 21.9376 5.48647 22.2965 6.88343C22.3147 6.95438 22.3482 7.02048 22.3947 7.07705C22.4412 7.13363 22.4996 7.17929 22.5657 7.21082C22.6318 7.24235 22.704 7.25897 22.7773 7.2595C22.8505 7.26004 22.923 7.24448 22.9895 7.21393C23.3071 7.06978 23.6523 6.99658 24.001 6.99943C24.3558 6.99728 24.707 7.07115 25.0309 7.21607C25.3548 7.36099 25.6439 7.57359 25.8788 7.83958C26.1137 8.10557 26.2888 8.41877 26.3925 8.75812C26.4962 9.09747 26.5261 9.45509 26.48 9.80693C26.466 9.91819 26.4897 10.0309 26.5475 10.1271C26.6053 10.2232 26.6937 10.2971 26.7985 10.3369C27.8477 10.7404 28.7302 11.486 29.3032 12.4531C29.8763 13.4202 30.1064 14.5523 29.9563 15.6664C29.8063 16.7804 29.2848 17.8113 28.4764 18.5924C27.6679 19.3734 26.6196 19.8589 25.501 19.9704Z" stroke="white" stroke-width="0.4" mask="url(#path-2-outside-1_872_3)"/>
</svg>
