<svg width="33" height="32" viewBox="0 0 33 32" fill="none" xmlns="http://www.w3.org/2000/svg">
<path d="M16.4999 6.66667C18.3373 6.66667 19.8333 5.172 19.8333 3.33333C19.8333 1.49467 18.3373 0 16.4999 0C14.6626 0 13.1666 1.49467 13.1666 3.33333C13.1666 5.172 14.6626 6.66667 16.4999 6.66667ZM16.4999 1.33333C17.6026 1.33333 18.4999 2.23067 18.4999 3.33333C18.4999 4.436 17.6026 5.33333 16.4999 5.33333C15.3973 5.33333 14.4999 4.436 14.4999 3.33333C14.4999 2.23067 15.3973 1.33333 16.4999 1.33333ZM31.1666 11.3333C31.1666 9.49467 29.6706 8 27.8333 8H23.8333C22.7386 8 21.7746 8.53733 21.1666 9.35333C20.5586 8.536 19.5946 8 18.4999 8H14.4999C13.4053 8 12.4413 8.53733 11.8333 9.35333C11.2253 8.536 10.2613 8 9.16659 8H5.16659C3.32925 8 1.83325 9.49467 1.83325 11.3333V22.6667H4.49992V32H5.83325V22.6667H8.49992V32H9.83325V22.6667H13.8333V32H15.1666V22.6667H17.8333V32H19.1666V22.6667H23.1666V32H24.4999V22.6667H27.1666V32H28.4999V22.6667H31.1666V11.3333ZM11.1666 21.3333H3.16659V11.3333C3.16659 10.2307 4.06392 9.33333 5.16659 9.33333H9.16659C10.2693 9.33333 11.1666 10.2307 11.1666 11.3333V21.3333ZM20.4999 21.3333H12.4999V11.3333C12.4999 10.2307 13.3973 9.33333 14.4999 9.33333H18.4999C19.6026 9.33333 20.4999 10.2307 20.4999 11.3333V21.3333ZM29.8333 21.3333H21.8333V11.3333C21.8333 10.2307 22.7306 9.33333 23.8333 9.33333H27.8333C28.9359 9.33333 29.8333 10.2307 29.8333 11.3333V21.3333ZM25.8333 6.66667C27.6706 6.66667 29.1666 5.172 29.1666 3.33333C29.1666 1.49467 27.6706 0 25.8333 0C23.9959 0 22.4999 1.49467 22.4999 3.33333C22.4999 5.172 23.9959 6.66667 25.8333 6.66667ZM25.8333 1.33333C26.9359 1.33333 27.8333 2.23067 27.8333 3.33333C27.8333 4.436 26.9359 5.33333 25.8333 5.33333C24.7306 5.33333 23.8333 4.436 23.8333 3.33333C23.8333 2.23067 24.7306 1.33333 25.8333 1.33333ZM7.16659 6.66667C9.00392 6.66667 10.4999 5.172 10.4999 3.33333C10.4999 1.49467 9.00392 0 7.16659 0C5.32925 0 3.83325 1.49467 3.83325 3.33333C3.83325 5.172 5.32925 6.66667 7.16659 6.66667ZM7.16659 1.33333C8.26925 1.33333 9.16659 2.23067 9.16659 3.33333C9.16659 4.436 8.26925 5.33333 7.16659 5.33333C6.06392 5.33333 5.16659 4.436 5.16659 3.33333C5.16659 2.23067 6.06392 1.33333 7.16659 1.33333Z" fill="white"/>
</svg>
