<svg width="32" height="32" viewBox="0 0 32 32" fill="none" xmlns="http://www.w3.org/2000/svg">
<path d="M20.52 6.94602L22.3999 10.706C22.6533 11.226 23.3333 11.7193 23.9066 11.826L27.3066 12.386C29.4799 12.746 29.9866 14.3193 28.4266 15.8927L25.7732 18.546C25.3332 18.986 25.08 19.8527 25.2266 20.4793L25.9866 23.7594C26.5866 26.346 25.1999 27.3593 22.9199 25.9993L19.7333 24.106C19.1599 23.7593 18.1999 23.7593 17.6266 24.106L14.4399 25.9993C12.1599 27.346 10.7733 26.346 11.3733 23.7594L12.1333 20.4793C12.2799 19.866 12.0266 18.9993 11.5866 18.546L8.93328 15.8927C7.37328 14.3327 7.87995 12.7593 10.0533 12.386L13.4533 11.826C14.0266 11.7327 14.7066 11.226 14.9599 10.706L16.8399 6.94602C17.8399 4.90602 19.4933 4.90602 20.52 6.94602Z" stroke="white" style="stroke:white;stroke-opacity:1;" stroke-width="1.5" stroke-linecap="round" stroke-linejoin="round"/>
<path d="M10.667 6.66602H2.66699" stroke="white" style="stroke:white;stroke-opacity:1;" stroke-width="1.5" stroke-linecap="round" stroke-linejoin="round"/>
<path d="M6.66699 25.334H2.66699" stroke="white" style="stroke:white;stroke-opacity:1;" stroke-width="1.5" stroke-linecap="round" stroke-linejoin="round"/>
<path d="M4.00033 16H2.66699" stroke="white" style="stroke:white;stroke-opacity:1;" stroke-width="1.5" stroke-linecap="round" stroke-linejoin="round"/>
</svg>
