<svg width="52" height="52" viewBox="0 0 52 52" fill="none" xmlns="http://www.w3.org/2000/svg">
<path d="M31.1504 30.0016C33.1286 26.568 33.7792 22.5283 32.979 18.6473C32.1788 14.7663 29.9834 11.3134 26.8084 8.9424C26.7966 7.5561 26.422 6.197 25.722 5.0004C25.022 3.8037 24.0209 2.8112 22.8182 2.1214C21.3176 1.2643 19.6194 0.8131 17.8913 0.8125H16.2337C14.5056 0.8131 12.8074 1.2643 11.3068 2.1214C10.1035 2.8115 9.1021 3.8047 8.402 5.0021C7.7019 6.1995 7.3277 7.5594 7.3166 8.9464C4.9698 10.7049 3.1431 13.0661 2.0303 15.7792C0.9176 18.4924 0.5603 21.4562 0.9965 24.3561C1.4327 27.2559 2.646 29.9835 4.5077 32.2493C6.3693 34.515 8.8098 36.2344 11.57 37.2247L10.0913 39.8125H3.25C2.6035 39.8125 1.9835 40.0693 1.5264 40.5264C1.0693 40.9835 0.8125 41.6035 0.8125 42.25V48.75C0.8125 49.3965 1.0693 50.0165 1.5264 50.4736C1.9835 50.9307 2.6035 51.1875 3.25 51.1875H24.375C25.0215 51.1875 25.6415 50.9307 26.0986 50.4736C26.5557 50.0165 26.8125 49.3965 26.8125 48.75V42.25C26.8125 41.6035 26.5557 40.9835 26.0986 40.5264C25.6415 40.0693 25.0215 39.8125 24.375 39.8125H17.5337L16.5969 38.1729C16.7521 38.1777 16.9073 38.1875 17.0625 38.1875C19.8937 38.1874 22.675 37.4417 25.1266 36.0254L39.0406 49.9395C39.8416 50.7282 40.9218 51.1684 42.0459 51.1642C43.17 51.1599 44.2468 50.7115 45.0417 49.9167C45.8366 49.1219 46.2852 48.0451 46.2896 46.921C46.294 45.7969 45.8539 44.7167 45.0653 43.9156L31.1504 30.0016ZM12.1127 3.5319C13.3681 2.8154 14.7883 2.4382 16.2337 2.4375H17.8913C19.3367 2.4382 20.7569 2.8154 22.0122 3.5319C23.4571 4.3524 24.5174 5.7127 24.9604 7.3141C25.4034 8.9156 25.1928 10.6274 24.375 12.0737V11.2263C24.3764 10.1032 24.0438 9.005 23.4195 8.0714L22.6135 6.8616C22.5522 6.7697 22.4728 6.6912 22.3801 6.631C22.2875 6.5709 22.1835 6.5302 22.0746 6.5116C21.9657 6.4929 21.8541 6.4967 21.7467 6.5227C21.6394 6.5486 21.5384 6.5962 21.45 6.6625L20.3669 7.475C19.0997 8.4216 17.5612 8.9345 15.9794 8.9375H13.8125C12.8742 8.9392 11.9654 9.2651 11.2399 9.8601C10.5144 10.455 10.0167 11.2824 9.8313 12.2021C9.4012 11.4858 9.1189 10.6907 9.0009 9.8636C8.8829 9.0364 8.9317 8.1941 9.1443 7.3861C9.3569 6.5781 9.7291 5.8208 10.2389 5.1589C10.7487 4.497 11.3858 3.9438 12.1127 3.5319ZM13.8125 21.1656V23.6844L12.5068 23.9021C10.8936 24.1756 9.4117 24.9627 8.2818 26.1463C7.4424 24.4134 7.1384 22.4698 7.4086 20.5635C7.6788 18.6571 8.5109 16.8745 9.7988 15.4432C9.9374 16.6561 10.3772 17.8151 11.0783 18.8146C11.7793 19.8141 12.7193 20.6223 13.8125 21.1656ZM15.4375 21.749C16.5063 22.0003 17.6187 22.0003 18.6875 21.749V23.9111C18.1844 24.1682 17.6275 24.3023 17.0625 24.3023C16.4975 24.3023 15.9406 24.1682 15.4375 23.9111V21.749ZM17.0625 20.3125C15.5546 20.3108 14.109 19.711 13.0427 18.6448C11.9765 17.5785 11.3767 16.1329 11.375 14.625V13C11.375 12.3535 11.6318 11.7335 12.0889 11.2764C12.546 10.8193 13.166 10.5625 13.8125 10.5625H15.9794C17.9125 10.5582 19.7929 9.9314 21.3419 8.775L21.7368 8.4784L22.0667 8.9724C22.513 9.6393 22.7508 10.4239 22.75 11.2263V14.625C22.7483 16.1329 22.1485 17.5785 21.0823 18.6448C20.016 19.711 18.5704 20.3108 17.0625 20.3125ZM12.7733 25.5076L14.4796 25.2233C15.2623 25.685 16.1545 25.9285 17.0633 25.9285C17.9721 25.9285 18.8643 25.685 19.6471 25.2233L21.3533 25.5076C22.7758 25.7478 24.0635 26.4943 24.9787 27.6096C24.0798 28.8707 22.8926 29.8988 21.5158 30.6082C20.1391 31.3176 18.6128 31.6877 17.0641 31.6877C15.5154 31.6877 13.9891 31.3176 12.6124 30.6082C11.2357 29.8988 10.0484 28.8707 9.1496 27.6096C10.0643 26.4947 11.3514 25.7481 12.7733 25.5076ZM25.8424 26.1487C24.7125 24.9652 23.2306 24.1781 21.6174 23.9046L20.3125 23.6868V21.1681C21.4057 20.6247 22.3457 19.8165 23.0467 18.817C23.7478 17.8175 24.1876 16.6586 24.3263 15.4456C25.6145 16.8772 26.4468 18.6603 26.7168 20.5672C26.9869 22.474 26.6824 24.4181 25.8424 26.1511V26.1487ZM24.375 41.4375C24.5905 41.4375 24.7972 41.5231 24.9495 41.6755C25.1019 41.8278 25.1875 42.0345 25.1875 42.25V48.75C25.1875 48.9655 25.1019 49.1722 24.9495 49.3245C24.7972 49.4769 24.5905 49.5625 24.375 49.5625H3.25C3.0345 49.5625 2.8278 49.4769 2.6755 49.3245C2.5231 49.1722 2.4375 48.9655 2.4375 48.75V42.25C2.4375 42.0345 2.5231 41.8278 2.6755 41.6755C2.8278 41.5231 3.0345 41.4375 3.25 41.4375H10.5625C10.7054 41.4378 10.8458 41.4004 10.9697 41.329C11.0935 41.2577 11.1963 41.155 11.2678 41.0312L13.8125 36.5755L16.3572 41.028C16.4283 41.1524 16.5309 41.2557 16.6548 41.3276C16.7786 41.3996 16.9193 41.4375 17.0625 41.4375H24.375ZM15.6333 36.4861L14.5178 34.5361C14.4408 34.4195 14.336 34.3237 14.2129 34.2575C14.0899 34.1913 13.9523 34.1566 13.8125 34.1566C13.6727 34.1566 13.5351 34.1913 13.4121 34.2575C13.289 34.3237 13.1842 34.4195 13.1072 34.5361L12.3906 35.789C9.9434 34.9662 7.758 33.5096 6.0567 31.5676C4.3555 29.6255 3.1993 27.2673 2.7058 24.7331C2.2123 22.1989 2.3991 19.5792 3.2473 17.1406C4.0955 14.7021 5.5747 12.5319 7.5343 10.8509C7.7864 11.9031 8.2503 12.8928 8.8977 13.7597L9.0171 13.9222C7.4264 15.5131 6.3432 17.5399 5.9044 19.7464C5.4655 21.9529 5.6909 24.24 6.5519 26.3184C7.4128 28.3969 8.8708 30.1733 10.7414 31.4232C12.612 32.673 14.8112 33.3401 17.0609 33.3401C19.3106 33.3401 21.5098 32.673 23.3804 31.4232C25.251 30.1733 26.7089 28.3969 27.5699 26.3184C28.4309 24.24 28.6562 21.9529 28.2174 19.7464C27.7786 17.5399 26.6953 15.5131 25.1046 13.9222L25.2241 13.7597C25.8714 12.8928 26.3353 11.9031 26.5874 10.8509C28.8532 12.7962 30.469 15.3886 31.2173 18.2796C31.9657 21.1706 31.8107 24.2214 30.7734 27.0217C29.736 29.822 27.8659 32.2374 25.4147 33.9431C22.9635 35.6488 20.0488 36.5629 17.0625 36.5625C16.5856 36.5625 16.107 36.5324 15.6333 36.4861ZM42.0534 49.5625C41.7072 49.5636 41.3642 49.496 41.0444 49.3635C40.7246 49.231 40.4343 49.0362 40.1903 48.7906L26.5224 35.1236C27.9578 34.0912 29.2162 32.8328 30.2486 31.3974L43.9156 45.0645C44.284 45.433 44.5349 45.9024 44.6366 46.4134C44.7383 46.9244 44.6862 47.4541 44.4869 47.9355C44.2875 48.4169 43.95 48.8284 43.5168 49.118C43.0837 49.4076 42.5744 49.5623 42.0534 49.5625Z" fill="black" style="fill:black;fill-opacity:1;"/>
<path d="M36.4624 10.7979L34.9682 16.0256C34.9209 16.1923 34.9282 16.3699 34.989 16.5323C35.0498 16.6946 35.1609 16.8333 35.3062 16.928C35.4514 17.0226 35.6231 17.0684 35.7962 17.0585C35.9693 17.0486 36.1347 16.9836 36.2682 16.873L40.6248 13.2427L44.9782 16.8714C45.1117 16.9818 45.2769 17.0467 45.4499 17.0566C45.6229 17.0665 45.7945 17.0208 45.9397 16.9263C46.0848 16.8317 46.196 16.6933 46.2569 16.5311C46.3178 16.3689 46.3253 16.1915 46.2782 16.0247L44.7848 10.7963L48.5093 7.07176C48.6222 6.95816 48.699 6.81376 48.7301 6.65676C48.7612 6.49966 48.7452 6.33686 48.6841 6.18886C48.623 6.04086 48.5195 5.91416 48.3866 5.82476C48.2538 5.73546 48.0975 5.68726 47.9373 5.68646H43.5653L41.3561 1.26076C41.281 1.13486 41.1745 1.03056 41.047 0.958156C40.9196 0.885756 40.7755 0.847656 40.6289 0.847656C40.4823 0.847656 40.3382 0.885756 40.2107 0.958156C40.0833 1.03056 39.9768 1.13486 39.9017 1.26076L37.686 5.68646H33.3123C33.1517 5.68646 32.9946 5.73416 32.861 5.82346C32.7274 5.91276 32.6233 6.03956 32.5618 6.18806C32.5004 6.33646 32.4843 6.49986 32.5156 6.65746C32.5469 6.81496 32.6243 6.95976 32.7379 7.07336L36.4624 10.7979ZM38.1873 7.31146C38.339 7.31226 38.4879 7.27066 38.6171 7.19126C38.7464 7.11186 38.8508 6.99786 38.9186 6.86216L40.6248 3.44066L42.3351 6.86216C42.4026 6.99716 42.5064 7.11076 42.6349 7.19016C42.7633 7.26956 42.9113 7.31156 43.0623 7.31146H45.976L43.3004 9.98706C43.198 10.0894 43.1248 10.2173 43.0883 10.3574C43.0519 10.4975 43.0536 10.6448 43.0932 10.7841L43.9935 13.9366L41.1497 11.5625C41.0036 11.4407 40.8195 11.374 40.6293 11.374C40.4391 11.374 40.2549 11.4407 40.1089 11.5625L37.2595 13.9366L38.1597 10.7849C38.1995 10.6455 38.2012 10.4981 38.1648 10.3578C38.1284 10.2175 38.0551 10.0895 37.9525 9.98706L35.2737 7.31146H38.1873Z" fill="black" style="fill:black;fill-opacity:1;"/>
<path d="M51.1264 22.4378C51.0648 22.2892 50.9605 22.1623 50.8267 22.0731C50.6929 21.9838 50.5356 21.9363 50.3748 21.9365H46.0028L43.7936 17.5108C43.7185 17.3849 43.612 17.2806 43.4845 17.2082C43.3571 17.1358 43.213 17.0977 43.0664 17.0977C42.9198 17.0977 42.7757 17.1358 42.6482 17.2082C42.5208 17.2806 42.4143 17.3849 42.3392 17.5108L40.1235 21.9365H35.7498C35.5892 21.9365 35.4321 21.9842 35.2985 22.0735C35.1649 22.1628 35.0608 22.2896 34.9993 22.4381C34.9379 22.5865 34.9218 22.7499 34.9531 22.9075C34.9844 23.065 35.0618 23.2098 35.1754 23.3234L38.8999 27.0479L37.4057 32.2755C37.3584 32.4423 37.3657 32.6199 37.4265 32.7823C37.4873 32.9446 37.5984 33.0833 37.7437 33.178C37.8889 33.2726 38.0606 33.3184 38.2337 33.3085C38.4068 33.2986 38.5722 33.2336 38.7057 33.123L43.0623 29.4927L47.4157 33.1214C47.5492 33.2318 47.7144 33.2967 47.8874 33.3066C48.0604 33.3165 48.232 33.2708 48.3772 33.1763C48.5223 33.0817 48.6335 32.9433 48.6944 32.7811C48.7553 32.6189 48.7628 32.4415 48.7157 32.2747L47.2223 27.0463L50.9468 23.3218C51.0607 23.2087 51.1386 23.0643 51.1706 22.907C51.2025 22.7497 51.1871 22.5864 51.1264 22.4378ZM45.7387 26.237C45.6363 26.3394 45.5631 26.4673 45.5266 26.6074C45.4902 26.7475 45.4919 26.8948 45.5315 27.0341L46.4318 30.1866L43.588 27.8125C43.442 27.6907 43.2578 27.624 43.0676 27.624C42.8774 27.624 42.6933 27.6907 42.5472 27.8125L39.6978 30.1866L40.598 27.0349C40.6378 26.8955 40.6396 26.7481 40.6031 26.6078C40.5667 26.4675 40.4934 26.3395 40.3908 26.237L37.7112 23.5615H40.6248C40.7765 23.5623 40.9254 23.5207 41.0546 23.4413C41.1839 23.3619 41.2883 23.2479 41.3561 23.1122L43.0623 19.6907L44.7726 23.1122C44.8401 23.2472 44.9439 23.3608 45.0724 23.4402C45.2008 23.5196 45.3488 23.5616 45.4998 23.5615H48.4135L45.7387 26.237Z" fill="black" style="fill:black;fill-opacity:1;"/>
<path d="M23.5625 46.3125H4.0625V47.9375H23.5625V46.3125Z" fill="black" style="fill:black;fill-opacity:1;"/>
<path d="M21.9375 43.0625H5.6875V44.6875H21.9375V43.0625Z" fill="black" style="fill:black;fill-opacity:1;"/>
</svg>
