<svg width="80" height="80" viewBox="0 0 80 80" fill="none" xmlns="http://www.w3.org/2000/svg">
<path d="M42.6587 50.6069C43.1244 50.0923 43.4308 49.4537 43.5407 48.7685C43.6506 48.0833 43.5593 47.3809 43.2778 46.7466C42.9964 46.1122 42.5369 45.5732 41.9551 45.1949C41.3733 44.8165 40.6943 44.6151 40.0003 44.6151C39.3063 44.6151 38.6273 44.8165 38.0455 45.1949C37.4637 45.5732 37.0042 46.1122 36.7228 46.7466C36.4414 47.3809 36.35 48.0833 36.4599 48.7685C36.5698 49.4537 36.8762 50.0923 37.3419 50.6069C35.1632 51.2249 33.2658 52.5785 31.9725 54.4375C31.8814 54.5685 31.8325 54.7242 31.8325 54.8837C31.8325 55.0433 31.8814 55.199 31.9725 55.33C32.8715 56.6271 34.0714 57.687 35.4694 58.419C36.8675 59.1511 38.4222 59.5335 40.0003 59.5335C41.5785 59.5335 43.1331 59.1511 44.5312 58.419C45.9293 57.687 47.1291 56.6271 48.0281 55.33C48.1193 55.199 48.1681 55.0433 48.1681 54.8837C48.1681 54.7242 48.1193 54.5685 48.0281 54.4375C46.7348 52.5785 44.8374 51.2249 42.6587 50.6069ZM37.9769 48.2094C37.9769 47.8092 38.0955 47.4181 38.3178 47.0854C38.5401 46.7527 38.8561 46.4934 39.2258 46.3402C39.5955 46.1871 40.0022 46.1471 40.3947 46.2251C40.7871 46.3032 41.1476 46.4959 41.4306 46.7788C41.7135 47.0617 41.9062 47.4222 41.9843 47.8147C42.0623 48.2071 42.0222 48.6139 41.8691 48.9836C41.716 49.3533 41.4567 49.6692 41.124 49.8915C40.7913 50.1138 40.4001 50.2325 40 50.2325C39.4636 50.2318 38.9494 50.0185 38.5702 49.6392C38.1909 49.2599 37.9775 48.7457 37.9769 48.2094ZM40 57.9687C38.7683 57.9674 37.5526 57.6893 36.4428 57.155C35.3329 56.6207 34.3574 55.8439 33.5881 54.8819C34.3566 53.9189 35.332 53.1414 36.4421 52.6071C37.5522 52.0728 38.7683 51.7953 40.0003 51.7953C41.2323 51.7953 42.4484 52.0728 43.5585 52.6071C44.6686 53.1414 45.644 53.9189 46.4125 54.8819C45.6432 55.8439 44.6675 56.6208 43.5576 57.1551C42.4476 57.6894 41.2318 57.9675 40 57.9687Z" fill="black"/>
<path d="M59.3912 52.1756C58.0975 50.3174 56.2002 48.9645 54.0219 48.3469C54.4877 47.8321 54.794 47.1931 54.9037 46.5076C55.0134 45.8221 54.9216 45.1194 54.6397 44.485C54.3578 43.8506 53.8977 43.3116 53.3154 42.9336C52.7331 42.5556 52.0535 42.3548 51.3593 42.3555C50.665 42.3563 49.9859 42.5585 49.4044 42.9378C48.8229 43.317 48.364 43.8569 48.0834 44.4919C47.8028 45.127 47.7126 45.8298 47.8237 46.5151C47.9348 47.2004 48.2425 47.8387 48.7094 48.3525C48.1339 48.5101 47.5742 48.7206 47.0375 48.9813C46.8561 49.0756 46.7189 49.2374 46.6555 49.4318C46.592 49.6261 46.6073 49.8377 46.698 50.0209C46.7887 50.2042 46.9477 50.3446 47.1407 50.4119C47.3338 50.4793 47.5456 50.4683 47.7306 50.3812C48.8593 49.8208 50.103 49.5308 51.3631 49.5344C52.5953 49.5361 53.8113 49.8147 54.9212 50.3497C56.0312 50.8846 57.0067 51.6622 57.7756 52.625C57.0063 53.5868 56.0306 54.3635 54.9208 54.8977C53.811 55.4319 52.5954 55.7099 51.3637 55.7113C51.1565 55.7113 50.9578 55.7936 50.8113 55.9401C50.6648 56.0866 50.5825 56.2853 50.5825 56.4925C50.5825 56.6997 50.6648 56.8984 50.8113 57.0449C50.9578 57.1914 51.1565 57.2738 51.3637 57.2738C52.9415 57.2721 54.4955 56.889 55.8932 56.1571C57.2909 55.4253 58.491 54.3664 59.3912 53.0706C59.4829 52.9394 59.5321 52.7832 59.5321 52.6231C59.5321 52.463 59.4829 52.3068 59.3912 52.1756ZM49.34 45.9494C49.34 45.5492 49.4587 45.1581 49.681 44.8254C49.9033 44.4927 50.2192 44.2334 50.5889 44.0803C50.9586 43.9271 51.3654 43.8871 51.7578 43.9651C52.1503 44.0432 52.5107 44.2359 52.7937 44.5188C53.0766 44.8017 53.2693 45.1622 53.3474 45.5547C53.4254 45.9471 53.3854 46.3539 53.2323 46.7236C53.0791 47.0933 52.8198 47.4092 52.4871 47.6315C52.1544 47.8538 51.7633 47.9725 51.3631 47.9725C50.8268 47.9718 50.3126 47.7585 49.9333 47.3792C49.554 46.9999 49.3407 46.4857 49.34 45.9494Z" fill="black"/>
<path d="M28.6362 55.7088C27.4048 55.7077 26.1893 55.43 25.0795 54.8963C23.9697 54.3626 22.994 53.5863 22.2244 52.625C23.4194 51.1265 25.1012 50.0935 26.9781 49.7054C28.8551 49.3172 30.8087 49.5984 32.5 50.5C32.5907 50.555 32.6916 50.591 32.7967 50.6058C32.9018 50.6205 33.0087 50.6137 33.1111 50.5858C33.2134 50.5578 33.309 50.5093 33.392 50.4432C33.475 50.3771 33.5436 50.2949 33.5938 50.2014C33.6439 50.1079 33.6745 50.0052 33.6836 49.8995C33.6928 49.7938 33.6803 49.6873 33.647 49.5866C33.6136 49.4859 33.5601 49.393 33.4897 49.3137C33.4193 49.2343 33.3335 49.1701 33.2375 49.125C32.6204 48.7965 31.9695 48.5358 31.2962 48.3475C31.7618 47.8329 32.0681 47.1943 32.1779 46.5092C32.2878 45.824 32.1964 45.1216 31.9149 44.4873C31.6334 43.853 31.174 43.3141 30.5922 42.9358C30.0105 42.5575 29.3314 42.3561 28.6375 42.3561C27.9436 42.3561 27.2645 42.5575 26.6828 42.9358C26.101 43.3141 25.6416 43.853 25.3601 44.4873C25.0786 45.1216 24.9872 45.824 25.0971 46.5092C25.2069 47.1943 25.5132 47.8329 25.9788 48.3475C23.8004 48.9651 21.9031 50.318 20.6094 52.1763C20.5182 52.3072 20.4694 52.4629 20.4694 52.6225C20.4694 52.7821 20.5182 52.9378 20.6094 53.0688C21.5096 54.3645 22.7097 55.4234 24.1074 56.1552C25.5052 56.8871 27.0591 57.2702 28.6369 57.2719C28.8441 57.2719 29.0428 57.1896 29.1893 57.0431C29.3358 56.8965 29.4181 56.6978 29.4181 56.4906C29.4181 56.2834 29.3358 56.0847 29.1893 55.9382C29.0428 55.7917 28.8441 55.7094 28.6369 55.7094L28.6362 55.7088ZM26.6131 45.9494C26.6131 45.5492 26.7318 45.1581 26.9541 44.8254C27.1764 44.4927 27.4924 44.2334 27.862 44.0803C28.2317 43.9271 28.6385 43.8871 29.0309 43.9651C29.4234 44.0432 29.7839 44.2359 30.0668 44.5188C30.3498 44.8018 30.5424 45.1622 30.6205 45.5547C30.6986 45.9471 30.6585 46.3539 30.5054 46.7236C30.3522 47.0933 30.0929 47.4092 29.7602 47.6315C29.4275 47.8538 29.0364 47.9725 28.6362 47.9725C28.0999 47.9718 27.5857 47.7585 27.2064 47.3792C26.8271 46.9999 26.6138 46.4857 26.6131 45.9494Z" fill="black"/>
<path d="M25.8856 41.205C25.9645 41.2051 26.0429 41.1931 26.1181 41.1694C26.3159 41.1079 26.4812 40.9704 26.5777 40.7871C26.6741 40.6038 26.6939 40.3897 26.6325 40.1919C25.9828 38.1036 25.8314 35.8921 26.1904 33.7347C26.5494 31.5774 27.4089 29.5341 28.6999 27.7688C29.9909 26.0034 31.6775 24.5651 33.6246 23.5691C35.5716 22.573 37.725 22.047 39.912 22.0332C42.099 22.0194 44.2588 22.5181 46.2183 23.4894C48.1778 24.4608 49.8825 25.8776 51.1957 27.6265C52.5089 29.3754 53.3941 31.4076 53.7804 33.5603C54.1667 35.7129 54.0432 37.9261 53.42 40.0225C53.3609 40.2214 53.3833 40.4356 53.4821 40.6181C53.581 40.8005 53.7483 40.9362 53.9472 40.9953C54.1461 41.0544 54.3603 41.0321 54.5428 40.9332C54.7252 40.8343 54.8609 40.667 54.92 40.4681C55.6128 38.1378 55.75 35.6777 55.3206 33.2848C54.8912 30.8919 53.9072 28.633 52.4475 26.6889C50.9877 24.7449 49.0929 23.1699 46.9147 22.0901C44.7366 21.0104 42.3358 20.4559 39.9047 20.4712C37.4737 20.4865 35.0801 21.0712 32.9157 22.1783C30.7513 23.2853 28.8764 24.8841 27.4413 26.8464C26.0062 28.8086 25.0507 31.0798 24.6515 33.4779C24.2523 35.876 24.4204 38.3342 25.1425 40.6556C25.1918 40.8143 25.2905 40.9532 25.4241 41.052C25.5578 41.1508 25.7194 41.2044 25.8856 41.205Z" fill="black"/>
<path d="M39.2188 28.4006V35.645L35.5806 38.4619C35.4984 38.5243 35.4293 38.6023 35.3775 38.6916C35.3256 38.7808 35.2919 38.8794 35.2783 38.9818C35.2648 39.0841 35.2717 39.1881 35.2986 39.2878C35.3255 39.3874 35.3718 39.4808 35.435 39.5624C35.4982 39.644 35.5769 39.7123 35.6666 39.7634C35.7564 39.8144 35.8553 39.8471 35.9578 39.8597C36.0602 39.8723 36.1642 39.8644 36.2636 39.8366C36.363 39.8087 36.4559 39.7615 36.5369 39.6975L40.4781 36.6462C40.5724 36.5733 40.6488 36.4797 40.7013 36.3727C40.7539 36.2656 40.7812 36.148 40.7813 36.0287V28.4037C40.7813 28.1965 40.6989 27.9978 40.5524 27.8513C40.4059 27.7048 40.2072 27.6225 40 27.6225C39.7928 27.6225 39.5941 27.7048 39.4476 27.8513C39.3011 27.9978 39.2188 28.1965 39.2188 28.4037V28.4006Z" fill="black"/>
</svg>
