<svg width="33" height="32" viewBox="0 0 33 32" fill="none" xmlns="http://www.w3.org/2000/svg">
<path d="M16.4907 5.87209C10.0117 5.87209 4.76172 11.1231 4.76172 17.6011C4.76172 20.5401 5.84572 23.2261 7.63372 25.2841L4.88972 28.6471L5.71572 29.3211L8.37472 26.0631C10.4817 28.0841 13.3397 29.3281 16.4907 29.3281C19.6487 29.3281 22.5137 28.0771 24.6227 26.0471L27.2797 29.3251L28.1087 28.6531L25.3627 25.2661C27.1407 23.2101 28.2197 20.5311 28.2197 17.6001C28.2197 11.1221 22.9677 5.87109 16.4907 5.87109V5.87209ZM16.4907 28.2621C10.6107 28.2621 5.82872 23.4801 5.82872 17.6011C5.82872 11.7211 10.6117 6.93909 16.4907 6.93909C22.3697 6.93909 27.1537 11.7221 27.1537 17.6011C27.1537 23.4801 22.3697 28.2621 16.4907 28.2621Z" fill="black"/>
<path d="M11.6709 2.67188H8.50288C5.55788 2.67188 3.17188 5.05888 3.17188 8.00288V11.2109H4.68788L11.6709 4.18888V2.67188ZM10.6039 3.74988L4.23787 10.1449V8.00288C4.23787 5.65188 6.15088 3.73787 8.50288 3.73787H10.6039V3.74988Z" fill="black"/>
<path d="M24.4981 2.67188H21.3281V4.18888L28.3121 11.2109H29.8291V8.00288C29.8291 5.05788 27.4411 2.67188 24.4981 2.67188ZM28.7631 10.1449H28.7561L22.3951 3.74988V3.73888H24.4981C26.8501 3.73888 28.7631 5.65287 28.7631 8.00387V10.1449Z" fill="black"/>
<path d="M15.9678 17.5984H10.0898V18.6644H17.0338V9.06836H15.9678V17.5984Z" fill="black"/>
</svg>
