<svg width="33" height="32" viewBox="0 0 33 32" fill="none" xmlns="http://www.w3.org/2000/svg">
<g clip-path="url(#clip0_989_14573)">
<path d="M28.2812 12.9463H13.4062C13.1474 12.9463 12.9375 13.1562 12.9375 13.415C12.9375 13.6739 13.1474 13.8838 13.4062 13.8838H28.2812C28.5401 13.8838 28.75 13.6739 28.75 13.415C28.75 13.1562 28.5401 12.9463 28.2812 12.9463Z" fill="black"/>
<path d="M28.2812 17.5293H13.4062C13.1474 17.5293 12.9375 17.7392 12.9375 17.998C12.9375 18.2569 13.1474 18.4668 13.4062 18.4668H28.2812C28.5401 18.4668 28.75 18.2569 28.75 17.998C28.75 17.7392 28.5401 17.5293 28.2812 17.5293Z" fill="black"/>
<path d="M29.7746 7.84668H11.9217C10.4184 7.84668 9.19531 9.06968 9.19531 10.5731V21.7991C9.19531 23.3024 10.4183 24.5255 11.9217 24.5255H24.4349C24.5687 24.5255 24.693 24.5857 24.776 24.6907L28.8169 29.8066C28.9762 30.0082 29.2086 30.1181 29.4519 30.1181C29.5423 30.1181 29.6343 30.1029 29.7246 30.0715C30.0575 29.9559 30.2726 29.6534 30.2726 29.301V24.4789C31.5367 24.2428 32.5009 23.1252 32.5009 21.7991V10.573C32.5009 9.06968 31.2779 7.84668 29.7746 7.84668ZM31.5634 21.7991C31.5634 22.7727 30.7714 23.5749 29.7978 23.5872C29.5413 23.5906 29.3351 23.7994 29.3351 24.056V28.9501L25.5117 24.1096C25.2499 23.7781 24.8574 23.5879 24.4349 23.5879H11.9217C10.9353 23.5879 10.1328 22.7854 10.1328 21.7991V10.573C10.1328 9.58662 10.9352 8.78412 11.9217 8.78412H29.7746C30.7609 8.78412 31.5634 9.58662 31.5634 10.573V21.7991Z" fill="black"/>
<path d="M7.40588 15.5975C7.08525 15.643 6.79812 15.8081 6.59737 16.0622L3.37731 20.1388V16.0531C3.37731 15.7966 3.17106 15.5877 2.91456 15.5844C2.10012 15.574 1.4375 14.903 1.4375 14.0885V4.3159C1.4375 3.49071 2.10888 2.81934 2.93406 2.81934H18.4755C19.3007 2.81934 19.9721 3.49071 19.9721 4.3159V6.12415C19.9721 6.38302 20.1819 6.5929 20.4408 6.5929C20.6997 6.5929 20.9096 6.38302 20.9096 6.12415V4.3159C20.9096 2.97377 19.8176 1.88184 18.4755 1.88184H2.93406C1.59194 1.88184 0.5 2.97377 0.5 4.3159V14.0885C0.5 15.2551 1.33569 16.2408 2.43988 16.4712V20.6191C2.43988 20.9521 2.64313 21.2379 2.95775 21.3471C3.04306 21.3768 3.12994 21.3911 3.21544 21.3911C3.44525 21.3911 3.66494 21.2873 3.81538 21.0968L7.33313 16.6433C7.38387 16.579 7.45656 16.5373 7.53769 16.5257C7.794 16.4893 7.97231 16.252 7.93587 15.9957C7.8995 15.7394 7.66256 15.561 7.40588 15.5975Z" fill="black"/>
</g>
<defs>
<clipPath id="clip0_989_14573">
<rect width="32" height="32" fill="white" transform="translate(0.5)"/>
</clipPath>
</defs>
</svg>
