<svg width="52" height="52" viewBox="0 0 52 52" fill="none" xmlns="http://www.w3.org/2000/svg">
<g clip-path="url(#clip0_1044_15341)">
<path d="M26.184 33.0857C22.2949 33.0857 19.1309 29.8994 19.1309 25.9835C19.1309 22.0671 22.2949 18.8809 26.184 18.8809C30.0731 18.8809 33.2371 22.0671 33.2371 25.9835C33.2371 29.8994 30.0731 33.0857 26.184 33.0857ZM26.184 20.5583C23.2196 20.5583 20.8083 22.9918 20.8083 25.9835C20.8083 28.9747 23.2196 31.4082 26.184 31.4082C29.1484 31.4082 31.5597 28.9747 31.5597 25.9835C31.5597 22.9922 29.1484 20.5583 26.184 20.5583Z" fill="#010101"/>
<path d="M28.2985 43.7422H24.0689C23.6055 43.7422 23.2297 43.3668 23.2297 42.9034V39.8556C21.5662 39.4962 19.9642 38.8273 18.5313 37.8934L16.3968 40.0439C16.0743 40.3689 15.5283 40.3689 15.2054 40.0439L12.215 37.0308C11.8904 36.7037 11.8904 36.1766 12.215 35.8495L14.3566 33.6919C13.4265 32.2455 12.7601 30.6285 12.4037 28.9494H9.386C8.92262 28.9494 8.54688 28.5741 8.54688 28.1107V23.8492C8.54688 23.3863 8.92262 23.0105 9.386 23.0105H12.4037C12.7606 21.3314 13.4265 19.7144 14.3566 18.268L12.215 16.1104C11.8904 15.7834 11.8904 15.2562 12.215 14.9291L15.2054 11.9161C15.5203 11.5986 16.0814 11.5986 16.3968 11.9161L18.5313 14.0665C19.9642 13.1326 21.5662 12.4637 23.2297 12.1044V9.05648C23.2297 8.59352 23.6055 8.21777 24.0689 8.21777H28.2985C28.7619 8.21777 29.1376 8.5931 29.1376 9.05648V12.1044C30.8012 12.4637 32.4031 13.1326 33.8361 14.0665L35.9706 11.9161C36.2855 11.5986 36.8466 11.5986 37.162 11.9161L40.1524 14.9291C40.477 15.2562 40.477 15.7834 40.1524 16.1104L38.0107 18.268C38.9409 19.7144 39.6072 21.3314 39.9637 23.0105H42.9814C43.4447 23.0105 43.8205 23.3858 43.8205 23.8492V28.1103C43.8205 28.5733 43.4447 28.949 42.9814 28.949H39.9637C39.6068 30.6281 38.9409 32.2451 38.0107 33.6915L40.1524 35.8491C40.477 36.1762 40.477 36.7033 40.1524 37.0304L37.162 40.0434C36.847 40.3609 36.2859 40.3609 35.9706 40.0434L33.8361 37.893C32.4031 38.8269 30.8012 39.4958 29.1376 39.8552V42.903C29.1372 43.3664 28.7619 43.7422 28.2985 43.7422ZM24.908 42.0647H27.4598V39.1607C27.4598 38.7493 27.7584 38.3983 28.1647 38.3329C30.0568 38.0272 31.8827 37.2644 33.4436 36.1275C33.7782 35.8843 34.2412 35.9204 34.533 36.2143L36.5656 38.2624L38.3743 36.4399L36.3325 34.3826C36.044 34.092 36.0075 33.6357 36.2465 33.3032C37.3763 31.7289 38.1336 29.8875 38.4376 27.9786C38.5022 27.5714 38.8536 27.272 39.2663 27.272H42.1422V24.6879H39.2663C38.8536 24.6879 38.5026 24.3881 38.4376 23.9813C38.134 22.0724 37.3763 20.2315 36.2465 18.6568C36.0079 18.3242 36.044 17.868 36.3325 17.5774L38.3743 15.52L36.5656 13.6975L34.533 15.7456C34.2412 16.0404 33.7782 16.0769 33.4436 15.8324C31.8823 14.6951 30.0568 13.9327 28.1647 13.627C27.7584 13.5612 27.4598 13.2106 27.4598 12.7992V9.89519H24.908V12.7992C24.908 13.2106 24.6094 13.5616 24.2031 13.627C22.3109 13.9327 20.4851 14.6955 18.9242 15.8324C18.5896 16.0765 18.127 16.04 17.8347 15.7456L15.8021 13.6975L13.9935 15.52L16.0353 17.5774C16.3238 17.868 16.3603 18.3242 16.1213 18.6568C14.9915 20.2315 14.2337 22.0724 13.9301 23.9813C13.8656 24.3885 13.5141 24.6879 13.1015 24.6879H10.2256V27.272H13.1015C13.5141 27.272 13.8651 27.5718 13.9301 27.9786C14.2342 29.8879 14.9915 31.7289 16.1213 33.3032C16.3599 33.6357 16.3238 34.092 16.0353 34.3826L13.9935 36.4399L15.8021 38.2624L17.8347 36.2143C18.127 35.9204 18.59 35.8834 18.9242 36.1275C20.4855 37.2648 22.3109 38.0272 24.2031 38.3329C24.6094 38.3987 24.908 38.7493 24.908 39.1607V42.0647Z" fill="#010101"/>
<path d="M48.8124 8.90877C48.8031 7.83313 47.1257 7.83942 47.1345 8.92219L47.1437 10.0561C42.106 3.96081 34.0393 0 26.3005 0C18.2959 0 10.8884 3.64294 5.97819 9.99532C5.31813 10.85 6.64371 11.8761 7.30587 11.0211C11.8961 5.083 18.8193 1.67742 26.3005 1.67742C33.833 1.67742 41.7001 5.68435 46.3746 11.7801H44.0539C42.9737 11.7801 42.9716 13.4575 44.0539 13.4575H48.003C48.4609 13.4575 48.8459 13.07 48.8421 12.6121L48.8124 8.90877Z" fill="#010101"/>
<path d="M51.9997 25.7702C51.9997 22.5848 51.4268 19.4748 50.2971 16.5272C49.9109 15.5186 48.3433 16.1166 48.7304 17.1273C49.7863 19.8828 50.3218 22.7907 50.3218 25.7702C50.3218 35.1356 43.9053 44.127 34.7642 47.9914L35.4113 46.9849C35.9954 46.0766 34.5851 45.1687 33.9997 46.0783L31.999 49.1907C31.726 49.6151 31.9008 50.203 32.3613 50.4089L35.7321 51.9203C36.7196 52.3631 37.4045 50.8317 36.4186 50.3901L34.9512 49.7321C44.9432 45.7218 51.9997 35.9555 51.9997 25.7702Z" fill="#010101"/>
<path d="M27.2958 49.8428C26.9662 49.8562 26.6345 49.863 26.3015 49.863C13.0566 49.863 2.28126 39.0549 2.28126 25.7702C2.28126 23.4176 3.25249 20.4792 4.178 17.9983L4.91565 19.6577C5.35429 20.6431 6.88871 19.9655 6.44881 18.9762L4.88462 15.4582C4.69297 15.0267 4.15955 14.8372 3.73726 15.0515L0.444908 16.7276C-0.517512 17.2179 0.24152 18.7116 1.20646 18.2222L2.56097 17.5328C1.60065 20.1164 0.603004 23.184 0.603004 25.7702C0.603004 39.98 12.1311 51.5404 26.3011 51.5404C26.6571 51.5404 27.0115 51.5332 27.3637 51.519C28.4427 51.4745 28.3786 49.8013 27.2958 49.8428C27.7646 49.8248 26.9657 49.8567 27.2958 49.8428Z" fill="#010101"/>
</g>
<defs>
<clipPath id="clip0_1044_15341">
<rect width="52" height="52" fill="white"/>
</clipPath>
</defs>
</svg>
