<svg width="32" height="32" viewBox="0 0 32 32" fill="none" xmlns="http://www.w3.org/2000/svg">
<path d="M12.4151 27.7372C12.1708 27.7372 11.7691 27.5179 11.1033 27.1549L10.8941 27.0409C8.35683 25.6582 2.45508 21.7909 2.45508 15.7572V9.8972C2.45508 8.75995 2.47158 8.0507 2.69958 7.79395C2.94008 7.52345 3.69408 7.3792 4.90683 7.17345C7.23608 6.7792 9.14733 6.10445 10.7501 5.1107L10.8296 5.0607C11.6596 4.5452 12.1168 4.2607 12.4156 4.2607C12.7143 4.2607 13.1716 4.54445 14.0016 5.0607L14.0813 5.1107C15.6831 6.1042 17.5943 6.77895 19.9236 7.17345C21.1366 7.3792 21.8906 7.52345 22.1308 7.79395C22.3591 8.0507 22.3756 8.75995 22.3756 9.8972V10.6434C22.3756 10.8092 22.4414 10.9682 22.5586 11.0854C22.6758 11.2026 22.8348 11.2684 23.0006 11.2684C23.1663 11.2684 23.3253 11.2026 23.4425 11.0854C23.5597 10.9682 23.6256 10.8092 23.6256 10.6434V9.8972C23.6256 6.8162 23.3318 6.48345 20.1323 5.94095C17.9651 5.5747 16.2013 4.95495 14.7396 4.0497L14.6603 3.9997C13.6353 3.36345 13.0703 3.0127 12.4151 3.0127C11.7598 3.0127 11.1951 3.3627 10.1698 3.9997L10.0908 4.0497C8.62883 4.95645 6.86583 5.5747 4.69808 5.9422C1.50008 6.48345 1.20508 6.8162 1.20508 9.8972V15.7572C1.20508 22.4609 7.56258 26.6489 10.2963 28.1387L10.5048 28.2522C11.3733 28.7272 11.8518 28.9872 12.4151 28.9872C12.5808 28.9872 12.7398 28.9213 12.857 28.8041C12.9742 28.6869 13.0401 28.528 13.0401 28.3622C13.0401 28.1964 12.9742 28.0375 12.857 27.9203C12.7398 27.803 12.5808 27.7372 12.4151 27.7372Z" fill="black"/>
<path d="M17.1243 13.2378L12.0288 17.8903L9.47434 15.5571C9.35191 15.4453 9.19009 15.3867 9.02447 15.3942C8.85885 15.4018 8.70301 15.4748 8.59122 15.5972C8.47943 15.7196 8.42085 15.8815 8.42838 16.0471C8.4359 16.2127 8.50891 16.3685 8.63134 16.4803L11.6073 19.1993C11.7225 19.3045 11.8729 19.3629 12.0288 19.3629C12.1848 19.3629 12.3352 19.3045 12.4503 19.1993L17.9666 14.1608C18.0838 14.0478 18.1522 13.8936 18.1574 13.7309C18.1626 13.5682 18.1041 13.4099 17.9944 13.2897C17.8847 13.1694 17.7324 13.0967 17.5699 13.087C17.4074 13.0774 17.2476 13.1315 17.1243 13.2378Z" fill="black"/>
<path d="M19.4961 17.1789C19.496 17.8892 19.7066 18.5835 20.1012 19.1741C20.4958 19.7648 21.0566 20.2251 21.7129 20.497C22.3691 20.7688 23.0912 20.84 23.7878 20.7014C24.4845 20.5629 25.1244 20.2209 25.6267 19.7186C26.1289 19.2164 26.471 18.5765 26.6096 17.8799C26.7482 17.1832 26.6771 16.4611 26.4053 15.8049C26.1334 15.1487 25.6731 14.5878 25.0826 14.1931C24.492 13.7985 23.7976 13.5879 23.0873 13.5879C22.1353 13.5889 21.2225 13.9676 20.5492 14.6408C19.876 15.314 19.4972 16.2268 19.4961 17.1789ZM25.4283 17.1789C25.4284 17.642 25.2911 18.0947 25.0339 18.4797C24.7766 18.8648 24.411 19.1649 23.9832 19.3421C23.5553 19.5194 23.0846 19.5657 22.6304 19.4754C22.1762 19.3851 21.759 19.1621 21.4316 18.8347C21.1041 18.5072 20.8811 18.09 20.7908 17.6358C20.7005 17.1817 20.7469 16.7109 20.9241 16.2831C21.1013 15.8552 21.4015 15.4896 21.7865 15.2324C22.1716 14.9751 22.6243 14.8378 23.0873 14.8379C23.708 14.8386 24.303 15.0855 24.7419 15.5244C25.1807 15.9632 25.4276 16.5582 25.4283 17.1789Z" fill="black"/>
<path d="M30.579 26.9537L30.517 26.7882C28.6805 21.8677 28.475 21.7279 23.148 21.7552L22.8648 21.7567C17.6075 21.7837 17.3445 21.9529 15.8325 26.2802L15.5918 26.9667C15.414 27.4707 15.251 28.0462 15.5708 28.4982C15.8905 28.9502 16.479 28.9874 17.0055 28.9874H29.1673C29.7003 28.9874 30.296 28.9487 30.6173 28.4874C30.9385 28.0262 30.7653 27.4529 30.579 26.9537ZM29.1673 27.7374H17.0055C16.85 27.7374 16.7405 27.7317 16.6643 27.7244C16.6833 27.6472 16.7158 27.5374 16.7708 27.3824L17.0125 26.6924C17.6768 24.7924 18.01 23.8379 18.633 23.4424C19.2865 23.0262 20.5598 23.0194 22.8713 23.0074H23.1548C25.543 22.9944 26.7423 22.9882 27.4298 23.4574C28.1173 23.9267 28.5255 25.0284 29.3468 27.2284L29.4085 27.3939C29.4504 27.5028 29.4868 27.6137 29.5175 27.7262C29.401 27.7358 29.2842 27.7396 29.1673 27.7374Z" fill="black"/>
</svg>
