<svg width="33" height="32" viewBox="0 0 33 32" fill="none" xmlns="http://www.w3.org/2000/svg">
<g clip-path="url(#clip0_872_306)">
<path d="M16.5 0C7.67733 0 0.5 7.17733 0.5 16C0.5 24.8227 7.67733 32 16.5 32C25.3227 32 32.5 24.8227 32.5 16C32.5 7.17733 25.3227 0 16.5 0ZM16.5 30.6667C8.41333 30.6667 1.83333 24.0867 1.83333 16C1.83333 7.91333 8.41333 1.33333 16.5 1.33333C24.5867 1.33333 31.1667 7.91333 31.1667 16C31.1667 24.0867 24.5867 30.6667 16.5 30.6667ZM21.8333 19.1653C21.8333 21.096 20.2627 22.6667 18.332 22.6667H17.1667V24.6667C17.1667 25.0347 16.868 25.3333 16.5 25.3333C16.132 25.3333 15.8333 25.0347 15.8333 24.6667V22.6667H14.5987C13.2933 22.6667 12.0747 21.9653 11.4227 20.8333C11.2373 20.5147 11.3467 20.1067 11.6667 19.9227C11.984 19.736 12.392 19.8467 12.5773 20.1667C12.9933 20.8867 13.7693 21.3333 14.6 21.3333H18.3333C19.528 21.3333 20.5013 20.3613 20.5013 19.1653C20.5013 18.0947 19.7347 17.1947 18.6773 17.0253L14.1147 16.292C12.408 16.0173 11.168 14.564 11.168 12.8347C11.168 10.904 12.7387 9.33333 14.6693 9.33333H15.8347V7.33333C15.8347 6.96533 16.1333 6.66667 16.5013 6.66667C16.8693 6.66667 17.168 6.96533 17.168 7.33333V9.33333H18.4027C19.708 9.33333 20.9253 10.036 21.5787 11.1667C21.764 11.4853 21.6547 11.8933 21.3347 12.0773C21.02 12.2587 20.608 12.1533 20.424 11.8333C20.008 11.1133 19.232 10.6667 18.4013 10.6667H14.668C13.4733 10.6667 12.5 11.6387 12.5 12.8347C12.5 13.9053 13.2667 14.8053 14.324 14.9747L18.8867 15.708C20.5933 15.9827 21.8333 17.4373 21.8333 19.1653Z" fill="white"/>
</g>
<defs>
<clipPath id="clip0_872_306">
<rect width="32" height="32" fill="white" transform="translate(0.5)"/>
</clipPath>
</defs>
</svg>
