<svg width="32" height="32" viewBox="0 0 32 32" fill="none" xmlns="http://www.w3.org/2000/svg">
<g clip-path="url(#clip0_872_167)">
<path d="M27.8801 10.2838C27.1441 4.98111 22.7427 0.691774 17.4134 0.0811071C14.0734 -0.302893 10.8281 0.669107 8.27874 2.81444C5.76274 4.93177 4.21074 8.02244 4.02141 11.2944C4.00007 11.6624 4.28007 11.9784 4.64807 11.9984C5.01607 12.0278 5.33074 11.7398 5.35207 11.3718C5.52007 8.46244 6.90007 5.71577 9.13741 3.83311C11.4027 1.92777 14.2881 1.06244 17.2614 1.40644C21.9947 1.94777 25.9054 5.75844 26.5601 10.4664C26.8161 12.3158 26.6014 14.1891 25.9374 15.8838C25.2867 17.5478 23.5694 18.6664 21.6641 18.6664H18.3081C18.5361 18.2744 18.6667 17.8184 18.6667 17.3331C18.6667 15.8624 17.4707 14.6664 16.0001 14.6664C14.5294 14.6664 13.3334 15.8624 13.3334 17.3331C13.3334 18.8038 14.5294 19.9998 16.0001 19.9998H21.6641C24.1121 19.9998 26.3294 18.5411 27.1801 16.3704C27.9267 14.4611 28.1681 12.3571 27.8801 10.2838ZM14.6667 17.3331C14.6667 16.5971 15.2654 15.9998 16.0001 15.9998C16.7347 15.9998 17.3334 16.5971 17.3334 17.3331C17.3334 18.0691 16.7347 18.6664 16.0001 18.6664C15.2654 18.6664 14.6667 18.0691 14.6667 17.3331ZM21.9401 15.0291C22.4214 14.0864 22.6667 13.0678 22.6667 11.9998C22.6667 8.32377 19.6761 5.33311 16.0001 5.33311C12.3241 5.33311 9.33341 8.32377 9.33341 11.9998C9.33341 13.5451 9.87474 15.0518 10.8574 16.2424C11.0921 16.5264 11.0521 16.9464 10.7681 17.1811C10.6441 17.2838 10.4934 17.3331 10.3441 17.3331C10.1521 17.3331 9.96141 17.2504 9.82941 17.0904C8.65074 15.6624 8.00007 13.8544 8.00007 11.9998C8.00007 7.58777 11.5881 3.99977 16.0001 3.99977C20.4121 3.99977 24.0001 7.58777 24.0001 11.9998C24.0001 13.2811 23.7067 14.5051 23.1281 15.6371C22.9587 15.9651 22.5534 16.0931 22.2307 15.9278C21.9027 15.7598 21.7721 15.3558 21.9401 15.0291ZM26.6521 31.1971C26.7281 31.5584 26.4961 31.9104 26.1347 31.9851C25.7814 32.0664 25.4214 31.8304 25.3467 31.4678C24.4454 27.1398 20.5147 23.9984 15.9987 23.9984C11.4827 23.9984 7.55207 27.1384 6.65207 31.4678C6.58674 31.7824 6.30941 31.9984 6.00007 31.9984C5.95474 31.9984 5.90941 31.9944 5.86407 31.9838C5.50274 31.9091 5.27207 31.5571 5.34674 31.1958C6.37474 26.2518 10.8547 22.6651 16.0001 22.6651C21.1454 22.6651 25.6241 26.2518 26.6521 31.1958V31.1971Z" fill="white"/>
</g>
<defs>
<clipPath id="clip0_872_167">
<rect width="32" height="32" fill="white"/>
</clipPath>
</defs>
</svg>
