<svg width="33" height="32" viewBox="0 0 33 32" fill="none" xmlns="http://www.w3.org/2000/svg">
<g clip-path="url(#clip0_989_13209)">
<path d="M32.2189 23.2828L28.9389 21.6428L26.8514 16.2128C26.8268 16.1486 26.7893 16.0902 26.7411 16.0411C26.6929 15.9921 26.6352 15.9535 26.5714 15.9278L13.6189 10.7503C13.5283 10.7142 13.4292 10.7055 13.3337 10.725C13.2382 10.7445 13.1505 10.7916 13.0814 10.8603L11.3539 12.5878C11.2861 12.657 11.2398 12.7444 11.2207 12.8393C11.2017 12.9343 11.2106 13.0328 11.2464 13.1228L16.4239 26.0753C16.4496 26.1391 16.4882 26.1968 16.5372 26.245C16.5863 26.2932 16.6447 26.3307 16.7089 26.3553L22.1389 28.4428L23.7789 31.7228C23.8134 31.7951 23.8649 31.8581 23.9288 31.9064C23.9928 31.9547 24.0674 31.9869 24.1464 32.0003C24.173 32.0028 24.1998 32.0028 24.2264 32.0003C24.3588 31.9997 24.4856 31.9467 24.5789 31.8528L32.3489 24.0828C32.4061 24.0276 32.4493 23.9596 32.475 23.8844C32.5006 23.8092 32.508 23.7289 32.4964 23.6503C32.483 23.5713 32.4508 23.4967 32.4025 23.4327C32.3542 23.3687 32.2912 23.3173 32.2189 23.2828ZM12.2939 13.0578L12.5714 12.7828L19.0189 19.2303C18.594 19.8324 18.4105 20.572 18.5046 21.3029C18.5988 22.0338 18.9638 22.7028 19.5275 23.1775C20.0911 23.6523 20.8124 23.8982 21.5487 23.8667C22.2849 23.8353 22.9826 23.5287 23.5037 23.0076C24.0248 22.4865 24.3314 21.7888 24.3628 21.0526C24.3943 20.3163 24.1484 19.595 23.6736 19.0314C23.1989 18.4677 22.5299 18.1027 21.799 18.0085C21.0681 17.9144 20.3285 18.0979 19.7264 18.5228L13.2789 12.0753L13.5539 11.7978L25.9964 16.7753L27.9589 21.8803L22.3764 27.4628L17.2714 25.5003L12.2939 13.0578ZM21.4214 18.9828C21.8708 18.9835 22.306 19.1399 22.653 19.4255C22.9999 19.7111 23.2372 20.1081 23.3242 20.549C23.4113 20.9898 23.3428 21.4472 23.1304 21.8433C22.9181 22.2393 22.575 22.5494 22.1596 22.7209C21.7442 22.8923 21.2822 22.9144 20.8524 22.7835C20.4225 22.6525 20.0514 22.3766 19.8021 22.0026C19.5529 21.6287 19.441 21.1799 19.4856 20.7328C19.5301 20.2856 19.7283 19.8677 20.0464 19.5503C20.4114 19.1864 20.906 18.9823 21.4214 18.9828ZM24.3639 30.6553L23.1139 28.1553L28.6464 22.6228L31.1464 23.8728L24.3639 30.6553Z" fill="black"/>
<path d="M10.0621 26.7499C9.96647 26.6596 9.8399 26.6092 9.70833 26.6092C9.57677 26.6092 9.4502 26.6596 9.35458 26.7499L8.71959 27.3849C7.02503 25.0851 6.09021 22.3138 6.04539 19.4574C6.00058 16.6011 6.84801 13.8018 8.46958 11.4499C8.95541 11.7173 9.51478 11.82 10.0639 11.7426C10.613 11.6653 11.1222 11.4121 11.5153 11.021C11.9084 10.6299 12.1641 10.1219 12.2442 9.57319C12.3243 9.02449 12.2245 8.46461 11.9596 7.97745C14.3115 6.35587 17.1107 5.50844 19.9671 5.55326C22.8235 5.59807 25.5947 6.53289 27.8946 8.22745L27.2496 8.85495C27.1566 8.94869 27.1045 9.07541 27.1046 9.20745C27.1042 9.27325 27.1168 9.33848 27.1417 9.3994C27.1666 9.46032 27.2032 9.51573 27.2496 9.56245L29.4546 11.7499C29.5483 11.8431 29.675 11.8953 29.8071 11.8953C29.9392 11.8953 30.0659 11.8431 30.1596 11.7499L32.3521 9.55745C32.3986 9.51101 32.4355 9.45586 32.4606 9.39517C32.4858 9.33447 32.4987 9.2694 32.4987 9.2037C32.4987 9.13799 32.4858 9.07292 32.4606 9.01223C32.4355 8.95153 32.3986 8.89638 32.3521 8.84995L30.1596 6.65745C30.0659 6.56432 29.9392 6.51205 29.8071 6.51205C29.675 6.51205 29.5483 6.56432 29.4546 6.65745L28.6071 7.49995C26.5183 5.92819 24.0489 4.94069 21.4523 4.63885C18.8558 4.33702 16.2257 4.73173 13.8321 5.78245L16.7146 2.90745C17.0414 3.06362 17.413 3.09897 17.7634 3.00722C18.1138 2.91548 18.4204 2.70258 18.6288 2.40629C18.8372 2.11001 18.9339 1.74948 18.9017 1.38868C18.8696 1.02788 18.7107 0.690131 18.4532 0.43535C18.1957 0.180569 17.8563 0.0252291 17.4952 -0.00311238C17.1341 -0.0314539 16.7746 0.0690358 16.4805 0.280529C16.1864 0.492022 15.9768 0.800846 15.8888 1.15221C15.8007 1.50358 15.84 1.87478 15.9996 2.19995L11.1346 7.07245C10.6406 6.7411 10.0469 6.59153 9.45495 6.6493C8.86296 6.70706 8.30939 6.96858 7.8888 7.38916C7.46821 7.80975 7.2067 8.36332 7.14894 8.95531C7.09117 9.5473 7.24074 10.141 7.57208 10.6349L2.69958 15.4999C2.37314 15.3409 2.00087 15.3027 1.64894 15.3922C1.297 15.4817 0.98818 15.693 0.777359 15.9887C0.566539 16.2844 0.46737 16.6452 0.497473 17.0071C0.527577 17.369 0.685004 17.7085 0.941781 17.9653C1.19856 18.222 1.53805 18.3795 1.89994 18.4096C2.26183 18.4397 2.62267 18.3405 2.91834 18.1297C3.21401 17.9188 3.42537 17.61 3.51486 17.2581C3.60434 16.9062 3.56615 16.5339 3.40708 16.2074L6.28958 13.3324C5.23782 15.7254 4.84186 18.3551 5.14238 20.9517C5.44289 23.5482 6.42904 26.018 7.99958 28.1074L7.15458 28.9549C7.06146 29.0486 7.00919 29.1754 7.00919 29.3074C7.00919 29.4395 7.06146 29.5663 7.15458 29.6599L9.34708 31.8524C9.44042 31.9463 9.56719 31.9994 9.69958 31.9999C9.76556 32 9.8309 31.987 9.89183 31.9617C9.95276 31.9364 10.0081 31.8992 10.0546 31.8524L12.2496 29.6599C12.3427 29.5663 12.395 29.4395 12.395 29.3074C12.395 29.1754 12.3427 29.0486 12.2496 28.9549L10.0621 26.7499ZM29.8121 7.71245L31.2971 9.19745L29.8121 10.6824L28.3271 9.19745L29.8121 7.71245ZM16.9996 1.15745C17.0739 1.08254 17.1688 1.0314 17.2722 1.0105C17.3756 0.989599 17.4829 0.999891 17.5804 1.04007C17.678 1.08024 17.7614 1.14849 17.8201 1.23615C17.8788 1.32382 17.9101 1.42694 17.9101 1.53245C17.9101 1.63795 17.8788 1.74107 17.8201 1.82874C17.7614 1.9164 17.678 1.98465 17.5804 2.02483C17.4829 2.065 17.3756 2.07529 17.2722 2.05439C17.1688 2.0335 17.0739 1.98235 16.9996 1.90745C16.9503 1.85822 16.9112 1.79977 16.8845 1.73542C16.8578 1.67108 16.8441 1.6021 16.8441 1.53245C16.8441 1.46279 16.8578 1.39382 16.8845 1.32947C16.9112 1.26513 16.9503 1.20667 16.9996 1.15745ZM8.59959 8.09995C8.74477 7.95406 8.91735 7.8383 9.10741 7.7593C9.29747 7.68031 9.50126 7.63965 9.70709 7.63965C9.91291 7.63965 10.1167 7.68031 10.3068 7.7593C10.4968 7.8383 10.6694 7.95406 10.8146 8.09995C11.0341 8.31906 11.1836 8.59836 11.2443 8.9025C11.305 9.20663 11.2741 9.52193 11.1555 9.8085C11.0369 10.0951 10.836 10.34 10.5782 10.5124C10.3204 10.6847 10.0172 10.7767 9.70709 10.7767C9.39696 10.7767 9.0938 10.6847 8.83597 10.5124C8.57814 10.34 8.37723 10.0951 8.25866 9.8085C8.1401 9.52193 8.1092 9.20663 8.16989 8.9025C8.23057 8.59836 8.38012 8.31906 8.59959 8.09995ZM2.40958 17.2499C2.30751 17.3351 2.17728 17.3789 2.04451 17.3729C1.91173 17.3669 1.78599 17.3115 1.69201 17.2175C1.59802 17.1235 1.54258 16.9978 1.53659 16.865C1.53059 16.7322 1.57446 16.602 1.65958 16.4999C1.75964 16.4016 1.8943 16.3465 2.03458 16.3465C2.17486 16.3465 2.30953 16.4016 2.40958 16.4999C2.45887 16.5492 2.49797 16.6076 2.52464 16.672C2.55132 16.7363 2.56505 16.8053 2.56505 16.8749C2.56505 16.9446 2.55132 17.0136 2.52464 17.0779C2.49797 17.1423 2.45887 17.2007 2.40958 17.2499ZM9.70709 30.7824L8.22208 29.2974L9.70709 27.8124L11.1921 29.2974L9.70709 30.7824Z" fill="black"/>
</g>
<defs>
<clipPath id="clip0_989_13209">
<rect width="32" height="32" fill="white" transform="translate(0.5)"/>
</clipPath>
</defs>
</svg>
