<svg width="32" height="32" viewBox="0 0 32 32" fill="none" xmlns="http://www.w3.org/2000/svg">
<g clip-path="url(#clip0_872_39)">
<path d="M29.3343 5.9965C29.3343 5.01784 28.7623 4.17117 27.8756 3.8405L18.8983 0.497838C17.0756 -0.180829 15.0649 -0.184829 13.2369 0.489838L4.14893 3.84584C3.25826 4.17384 2.68359 5.0205 2.68359 6.0005C2.68359 6.98184 3.25959 7.8285 4.15026 8.15517L8.00093 9.5725V12.0005C8.00093 16.4125 11.5889 20.0005 16.0009 20.0005C20.4129 20.0005 24.0009 16.4125 24.0009 12.0005V9.5725L27.8676 8.1485C27.9169 8.13117 27.9529 8.09517 28.0009 8.07517V15.3338C28.0009 15.7018 28.2996 16.0005 28.6676 16.0005C29.0356 16.0005 29.3343 15.7018 29.3343 15.3338V6.0005C29.3343 6.0005 29.3343 5.99784 29.3343 5.9965ZM22.6676 12.0005C22.6676 15.6765 19.6769 18.6672 16.0009 18.6672C12.3249 18.6672 9.33426 15.6765 9.33426 12.0005V10.0632L13.1863 11.4805C14.0929 11.8152 15.0463 11.9818 15.9983 11.9818C16.9503 11.9818 17.9036 11.8152 18.8103 11.4818L22.6663 10.0632L22.6676 12.0005ZM27.4076 6.89784L18.3516 10.2312C16.8343 10.7885 15.1636 10.7885 13.6489 10.2312L4.61293 6.9045C4.17426 6.7445 4.01826 6.3325 4.01826 6.0005C4.01826 5.6685 4.17426 5.2565 4.61159 5.09517L13.6996 1.73917C15.2289 1.17784 16.9103 1.17917 18.4343 1.74717L27.4116 5.08984C27.8476 5.25117 28.0023 5.66317 28.0023 5.99384C28.0023 6.32584 27.8436 6.73784 27.4076 6.89784ZM27.9703 31.1338C28.0809 31.4858 27.8863 31.8605 27.5343 31.9698C27.1849 32.0805 26.8103 31.8858 26.6983 31.5352C25.9076 29.0218 24.2436 26.7605 22.2449 25.4872C21.8809 25.2525 21.3929 25.3312 21.1143 25.6645L18.0116 29.7232C17.5063 30.3312 16.7876 30.6685 16.0249 30.6685C15.2623 30.6685 14.5436 30.3325 14.0556 29.7472L10.9023 25.6258C10.6409 25.3138 10.1569 25.2378 9.79026 25.4685C7.77693 26.7432 6.10093 29.0112 5.30759 31.5365C5.21826 31.8205 4.95426 32.0032 4.67159 32.0032C4.60493 32.0032 4.53826 31.9925 4.47159 31.9725C4.11959 31.8632 3.92493 31.4885 4.03559 31.1365C4.92226 28.3218 6.80626 25.7818 9.07693 24.3432C10.0049 23.7578 11.2383 23.9485 11.9449 24.7952L15.0983 28.9165C15.3156 29.1752 15.6596 29.3365 16.0263 29.3365C16.3929 29.3365 16.7383 29.1752 16.9716 28.8925L20.0743 24.8352C20.7996 23.9645 22.0343 23.7738 22.9636 24.3632C25.2169 25.8005 27.0903 28.3338 27.9716 31.1352L27.9703 31.1338Z" fill="white"/>
</g>
<defs>
<clipPath id="clip0_872_39">
<rect width="32" height="32" fill="white"/>
</clipPath>
</defs>
</svg>
