<svg width="80" height="80" viewBox="0 0 80 80" fill="none" xmlns="http://www.w3.org/2000/svg">
<g clip-path="url(#clip0_93_34)">
<path d="M21.6667 33.3333H35C39.5933 33.3333 43.3333 29.3067 43.3333 24.3533C43.3333 18.87 37.74 12.26 32.5733 9.56667C33.8333 8.66667 35.1633 7.45333 36.1 5.89333C36.8267 4.68667 36.8533 3.18 36.1633 1.95667C35.47 0.73 34.2167 0 32.8067 0H23.8633C22.4533 0 21.1967 0.733333 20.5067 1.95667C19.8167 3.18 19.84 4.68667 20.57 5.89C21.51 7.45 22.8367 8.66333 24.0967 9.56333C18.9267 12.2567 13.3367 18.87 13.3367 24.35C13.3367 29.3 17.0767 33.33 21.67 33.33L21.6667 33.3333ZM23.4067 3.59667C23.4733 3.47667 23.61 3.33333 23.86 3.33333H32.8033C33.0567 3.33333 33.19 3.47667 33.2567 3.59667C33.3167 3.70333 33.3967 3.92 33.2433 4.17333C31.9467 6.32667 29.4567 7.66667 28.33 8.19C27.2033 7.66667 24.7167 6.32667 23.4167 4.17333C23.2633 3.92 23.3433 3.70333 23.4033 3.6L23.4067 3.59667ZM28.3333 11.6667C32.35 11.6667 40 19.25 40 24.3533C40 27.4667 37.7567 30 35 30H21.6667C18.91 30 16.6667 27.4667 16.6667 24.3533C16.6667 19.25 24.3167 11.6667 28.3333 11.6667ZM48.9633 12.9867C48.3133 12.3367 48.3133 11.28 48.9633 10.63L58.13 1.46333C59.08 0.513333 60 0 61.6667 0C63.3333 0 64.2533 0.513333 65.2033 1.46333L74.3767 10.6367C75.0267 11.2867 75.0267 12.3433 74.3767 12.9933C74.05 13.32 73.6233 13.48 73.1967 13.48C72.77 13.48 72.3433 13.3167 72.0167 12.9933L63.3333 4.31V25C63.3333 25.92 62.5867 26.6667 61.6667 26.6667C60.7467 26.6667 60 25.92 60 25V4.31L51.32 12.99C50.67 13.64 49.6133 13.64 48.9633 12.99V12.9867ZM77.2667 32.18C75.6133 30.6733 73.4633 29.93 71.2367 30.0067C69.0033 30.1133 66.9433 31.08 65.44 32.7333L53 46.4067C51.9533 42.7133 48.55 39.9967 44.5233 39.9967H11.6667C5.23333 39.9967 0 45.23 0 51.6633V68.33C0 74.7633 5.23333 79.9967 11.6667 79.9967H31.55C40.57 79.9967 49.1867 76.1333 55.1933 69.3967L77.88 43.93C80.9167 40.5233 80.6433 35.25 77.27 32.1767L77.2667 32.18ZM75.39 41.7167L52.7033 67.18C47.33 73.21 39.62 76.6667 31.5467 76.6667H11.6667C7.07333 76.6667 3.33333 72.93 3.33333 68.3333V51.6667C3.33333 47.07 7.07333 43.3333 11.6667 43.3333H44.5233C47.54 43.3333 50 45.79 50 48.81C50 51.5167 47.9833 53.8467 45.34 54.2233L24.8033 56.68C23.89 56.7867 23.2367 57.6167 23.3467 58.5333C23.4567 59.4433 24.26 60.13 25.2 59.99L45.7733 57.53C49.18 57.0433 51.9267 54.6 52.9267 51.45L67.9133 34.9833C68.8167 33.99 70.0567 33.4067 71.4 33.3433C72.7433 33.2767 74.0333 33.7433 75.0267 34.6533C77.0567 36.5033 77.22 39.6733 75.3933 41.7267L75.39 41.7167Z" fill="black"/>
</g>
<defs>
<clipPath id="clip0_93_34">
<rect width="80" height="80" fill="white"/>
</clipPath>
</defs>
</svg>
