<svg width="80" height="80" viewBox="0 0 80 80" fill="none" xmlns="http://www.w3.org/2000/svg">
    <g clip-path="url(#clip0_92_14)">
        <path
            d="M50 41.6667V15C50 8.56667 44.7667 3.33333 38.3333 3.33333H15C8.56667 3.33333 3.33333 8.56667 3.33333 15V65C3.33333 71.4333 8.56667 76.6667 15 76.6667H41.6667C42.5867 76.6667 43.3333 77.4133 43.3333 78.3333C43.3333 79.2533 42.5867 80 41.6667 80H15C6.73 80 0 73.27 0 65V15C0 6.73 6.73 0 15 0H38.3333C46.6033 0 53.3333 6.73 53.3333 15V41.6667C53.3333 42.5867 52.5867 43.3333 51.6667 43.3333C50.7467 43.3333 50 42.5867 50 41.6667ZM21.6667 46.6667H15C14.08 46.6667 13.3333 47.4133 13.3333 48.3333C13.3333 49.2533 14.08 50 15 50H21.6667C22.5867 50 23.3333 49.2533 23.3333 48.3333C23.3333 47.4133 22.5867 46.6667 21.6667 46.6667ZM38.3333 46.6667H31.6667C30.7467 46.6667 30 47.4133 30 48.3333C30 49.2533 30.7467 50 31.6667 50H38.3333C39.2533 50 40 49.2533 40 48.3333C40 47.4133 39.2533 46.6667 38.3333 46.6667ZM21.6667 60H15C14.08 60 13.3333 60.7467 13.3333 61.6667C13.3333 62.5867 14.08 63.3333 15 63.3333H21.6667C22.5867 63.3333 23.3333 62.5867 23.3333 61.6667C23.3333 60.7467 22.5867 60 21.6667 60ZM38.3333 60H31.6667C30.7467 60 30 60.7467 30 61.6667C30 62.5867 30.7467 63.3333 31.6667 63.3333H38.3333C39.2533 63.3333 40 62.5867 40 61.6667C40 60.7467 39.2533 60 38.3333 60ZM26.6667 33.3333C27.5867 33.3333 28.3333 32.5867 28.3333 31.6667V25H35C35.92 25 36.6667 24.2533 36.6667 23.3333C36.6667 22.4133 35.92 21.6667 35 21.6667H28.3333V15C28.3333 14.08 27.5867 13.3333 26.6667 13.3333C25.7467 13.3333 25 14.08 25 15V21.6667H18.3333C17.4133 21.6667 16.6667 22.4133 16.6667 23.3333C16.6667 24.2533 17.4133 25 18.3333 25H25V31.6667C25 32.5867 25.7467 33.3333 26.6667 33.3333ZM56.6667 51.6667C56.6667 47.0733 60.4033 43.3333 65 43.3333C69.5967 43.3333 73.3333 47.0733 73.3333 51.6667C73.3333 56.26 69.5967 60 65 60C60.4033 60 56.6667 56.26 56.6667 51.6667ZM60 51.6667C60 54.4233 62.2433 56.6667 65 56.6667C67.7567 56.6667 70 54.4233 70 51.6667C70 48.91 67.7567 46.6667 65 46.6667C62.2433 46.6667 60 48.91 60 51.6667ZM79.9467 77.9167C78.2667 71.3967 71.98 66.6667 65 66.6667C58.02 66.6667 51.7333 71.3967 50.0533 77.9167C49.8267 78.8067 50.36 79.7167 51.25 79.9467C52.1467 80.1767 53.05 79.6367 53.28 78.7467C54.5633 73.76 59.6 69.9967 65 69.9967C70.4 69.9967 75.4367 73.7567 76.72 78.7467C76.9167 79.5 77.5933 79.9967 78.3333 79.9967C78.47 79.9967 78.61 79.98 78.75 79.9433C79.6433 79.7133 80.1767 78.8067 79.9467 77.9167Z"
            fill="white" />
    </g>
    <defs>
        <clipPath id="clip0_92_14">
            <rect width="80" height="80" fill="white" />
        </clipPath>
    </defs>
</svg>