<svg width="80" height="80" viewBox="0 0 80 80" fill="none" xmlns="http://www.w3.org/2000/svg">
    <g clip-path="url(#clip0_92_20)">
        <path
            d="M68.9933 44.3401C70.2967 45.6434 70.2967 47.7534 68.9933 49.0534C67.69 50.3534 65.58 50.3568 64.28 49.0534C62.98 47.7501 62.9767 45.6401 64.28 44.3401C65.5833 43.0368 67.6933 43.0368 68.9933 44.3401ZM80 50.0001C80 59.1901 72.5233 66.6668 63.3333 66.6668C61.95 66.6668 60.5467 66.4634 59.0667 66.0501L48.5367 76.5801C46.3333 78.7834 43.4033 79.9968 40.2867 79.9968H36.6667C34.83 79.9968 33.3333 78.5034 33.3333 76.6634V71.6634C33.3333 69.8268 34.8267 68.3301 36.6667 68.3301H40V64.9968C40 63.1601 41.4967 61.6634 43.3333 61.6634H44.98L44.95 59.4234C44.93 57.7401 45.5667 56.1501 46.7367 54.9434L47.3067 54.3601C46.8767 52.8501 46.6667 51.4134 46.6667 49.9934C46.6667 40.8034 54.1433 33.3268 63.3333 33.3268C72.5233 33.3268 80 40.8034 80 49.9934V50.0001ZM76.6667 50.0001C76.6667 42.6468 70.6867 36.6668 63.3333 36.6668C55.98 36.6668 50 42.6468 50 50.0001C50 51.3534 50.2533 52.7534 50.77 54.2801C50.9733 54.8734 50.8233 55.5301 50.3867 55.9801L49.1233 57.2768C48.57 57.8434 48.2733 58.5934 48.2833 59.3868L48.3333 63.3134C48.3633 64.2168 47.57 65.0201 46.6667 65.0001H43.3333V70.0001C43.3333 70.9201 42.5867 71.6668 41.6667 71.6668H36.6667V76.6668H40.29C42.5167 76.6668 44.6067 75.8001 46.1833 74.2268L57.4233 62.9868C57.87 62.5401 58.5333 62.3834 59.13 62.5834C60.64 63.0868 62.0133 63.3334 63.3367 63.3334C70.69 63.3334 76.6667 57.3534 76.6667 50.0001ZM25 76.6668H15C8.56667 76.6668 3.33333 71.4334 3.33333 65.0001V31.8701C3.33333 27.9868 5.25667 24.3701 8.47333 22.2001L33.4733 5.33009C37.4367 2.65342 42.5633 2.65342 46.5233 5.33009L71.5233 22.2001C74.7433 24.3734 76.6633 27.9868 76.6633 31.8701C76.6633 32.7901 77.41 33.5368 78.33 33.5368C79.25 33.5368 79.9967 32.7901 79.9967 31.8701C79.9967 26.8768 77.5267 22.2268 73.3867 19.4368L48.39 2.56676C43.2933 -0.869909 36.71 -0.869909 31.61 2.56676L6.61 19.4368C2.47 22.2301 0 26.8768 0 31.8701V65.0001C0 73.2701 6.73 80.0001 15 80.0001H25C25.92 80.0001 26.6667 79.2534 26.6667 78.3334C26.6667 77.4134 25.92 76.6668 25 76.6668Z"
            fill="white" />
    </g>
    <defs>
        <clipPath id="clip0_92_20">
            <rect width="80" height="80" fill="white" />
        </clipPath>
    </defs>
</svg>