<svg width="80" height="80" viewBox="0 0 80 80" fill="none" xmlns="http://www.w3.org/2000/svg">
    <g clip-path="url(#clip0_92_16)">
        <path
            d="M3.33333 76.6667H33.3333V80H0V8.33333C0 3.73667 3.73667 0 8.33333 0H45C49.5967 0 53.3333 3.73667 53.3333 8.33333V33.5033C52.1533 33.6733 51.0367 34.0067 50 34.5067V8.33333C50 5.57667 47.7567 3.33333 45 3.33333H8.33333C5.57667 3.33333 3.33333 5.57667 3.33333 8.33333V76.6667ZM23.3333 43.3333H13.3333V46.6667H23.3333V43.3333ZM13.3333 60H23.3333V56.6667H13.3333V60ZM23.3333 16.6667H13.3333V20H23.3333V16.6667ZM40 16.6667H30V20H40V16.6667ZM23.3333 30H13.3333V33.3333H23.3333V30ZM30 33.3333H40V30H30V33.3333ZM80 53.3333V80H40V53.3333C40 49.6567 42.99 46.6667 46.6667 46.6667H50V45C50 42.2433 52.2433 40 55 40H65C67.7567 40 70 42.2433 70 45V46.6667H73.3333C77.01 46.6667 80 49.6567 80 53.3333ZM53.3333 46.6667H66.6667V45C66.6667 44.0833 65.9167 43.3333 65 43.3333H55C54.0833 43.3333 53.3333 44.0833 53.3333 45V46.6667ZM43.3333 53.3333V60H76.6667V53.3333C76.6667 51.4933 75.1733 50 73.3333 50H46.6667C44.8267 50 43.3333 51.4933 43.3333 53.3333ZM76.6667 76.6667V63.3333H61.6667V70H58.3333V63.3333H43.3333V76.6667H76.6667ZM30 46.6667H35.1867C35.9233 45.4067 36.8467 44.2867 37.94 43.3333H30V46.6667Z"
            fill="white" />
    </g>
    <defs>
        <clipPath id="clip0_92_16">
            <rect width="80" height="80" fill="white" />
        </clipPath>
    </defs>
</svg>