<svg width="80" height="80" viewBox="0 0 80 80" fill="none" xmlns="http://www.w3.org/2000/svg">
    <g clip-path="url(#clip0_92_22)">
        <path
            d="M58.3334 16.6667C62.9267 16.6667 66.6667 12.93 66.6667 8.33333C66.6667 3.73667 62.9267 0 58.3334 0C53.74 0 50 3.73667 50 8.33333C50 12.93 53.74 16.6667 58.3334 16.6667ZM58.3334 3.33333C61.09 3.33333 63.3334 5.57667 63.3334 8.33333C63.3334 11.09 61.09 13.3333 58.3334 13.3333C55.5767 13.3333 53.3334 11.09 53.3334 8.33333C53.3334 5.57667 55.5767 3.33333 58.3334 3.33333ZM79.8234 77.5867L72.5167 62.97C71.69 61.3167 70.3134 59.97 68.6467 59.1733L62.7334 56.3567L65.1634 39.3933L77.5034 46.4433C77.7634 46.59 78.05 46.66 78.33 46.66C78.91 46.66 79.47 46.3567 79.78 45.82C80.2367 45.02 79.96 44.0033 79.16 43.5433L65.6734 35.8367L66.59 29.45C66.9167 27.0667 66.1934 24.6567 64.61 22.8467C63.0267 21.0333 60.74 19.9933 58.3334 19.9933C55.5567 19.9933 52.9467 20.99 50.87 22.7333C50.67 22.8633 33.5067 43.95 33.5067 43.95C32.93 44.67 33.0434 45.7167 33.7634 46.2933C34.4834 46.8733 35.53 46.76 36.1067 46.04L49.1134 29.8367L46.7867 43.4967C46.0767 48.5167 47.91 52.5667 52.0734 54.96L67.2167 62.1767C68.2167 62.6567 69.04 63.4633 69.5367 64.4567L76.8434 79.0733C77.1367 79.6567 77.7234 79.9933 78.3367 79.9933C78.5867 79.9933 78.84 79.9367 79.08 79.8167C79.9034 79.4033 80.2367 78.4033 79.8267 77.58L79.8234 77.5867ZM53.62 52.0167C50.75 50.3633 49.56 47.6533 50.0767 44.0167L53.31 25.0333C54.7434 23.9467 56.49 23.3333 58.3334 23.3333C59.7767 23.3333 61.15 23.96 62.1 25.0467C63.05 26.1333 63.4834 27.58 63.2867 29L59.58 54.86L53.62 52.02V52.0167ZM26.4434 45.15L24.7 43.83C20.6867 41.0733 16.1567 40.5133 11.59 45.5333L1.88002 57.9467C-1.18332 61.9967 -0.413317 67.8267 3.60335 70.9433L10.8867 76.5867C12.0334 78.6133 14.18 80 16.67 80C20.3467 80 23.3367 77.01 23.3367 73.3333C23.3367 71.0233 22.1534 68.9867 20.3634 67.79L28.1134 57.8233C31.1867 53.8733 30.4367 48.1733 26.4434 45.15ZM16.6667 76.6667C14.83 76.6667 13.3334 75.1733 13.3334 73.3333C13.3334 71.4933 14.83 70 16.6667 70C18.5034 70 20 71.4933 20 73.3333C20 75.1733 18.5034 76.6667 16.6667 76.6667ZM25.5134 55.7733L16.99 66.7C16.88 66.6933 16.78 66.6667 16.67 66.6667C13.5334 66.6667 10.9167 68.85 10.21 71.77L5.65002 68.3133C3.07002 66.31 2.57002 62.5633 4.50668 60.0033L14.25 47.55C16.8534 43.9367 20.4334 45.0033 22.66 46.47L24.4567 47.8167C26.9767 49.7067 27.4567 53.2933 25.5167 55.7767L25.5134 55.7733ZM49.69 60.2733L46.6434 78.6067C46.5067 79.42 45.8967 80 44.7267 79.9767C43.82 79.8267 43.2034 78.9667 43.3567 78.06L46.4034 59.7267C46.5534 58.8233 47.4034 58.1967 48.32 58.3567C49.2267 58.5067 49.8434 59.3667 49.69 60.2733Z"
            fill="white" />
    </g>
    <defs>
        <clipPath id="clip0_92_22">
            <rect width="80" height="80" fill="white" />
        </clipPath>
    </defs>
</svg>