<svg width="80" height="80" viewBox="0 0 80 80" fill="none" xmlns="http://www.w3.org/2000/svg">
    <g clip-path="url(#clip0_92_24)">
        <path
            d="M54.3 25.2268C55.7633 22.7934 54.8767 19.6101 52.39 18.2568C52.5367 17.1734 52.5367 16.1634 52.39 15.0801C54.8767 13.7234 55.7667 10.5434 54.3 8.10676C52.8367 5.65343 49.5867 4.9401 47.22 6.5201C46.5267 6.02676 45.7833 5.60677 45 5.26677C45.1367 2.4201 42.8567 -0.00323498 40 0.00343169C37.2433 0.00343169 35 2.24677 35 5.00343V5.26677C34.2167 5.6101 33.4733 6.0301 32.78 6.5201C30.41 4.94343 27.16 5.65677 25.7 8.1101C24.2367 10.5434 25.1233 13.7268 27.61 15.0801C27.4633 16.1634 27.4633 17.1734 27.61 18.2568C25.1233 19.6134 24.2333 22.7934 25.7 25.2301C27.16 27.6801 30.4133 28.3934 32.78 26.8168C33.4733 27.3101 34.2167 27.7268 35 28.0701C34.8633 30.9168 37.1433 33.3401 40 33.3334C42.8567 33.3401 45.1367 30.9168 45 28.0701C45.7833 27.7268 46.5267 27.3068 47.22 26.8168C49.59 28.3934 52.8367 27.6834 54.3 25.2268ZM49.1667 16.6668C49.1667 17.3134 49.0867 17.9834 48.9133 18.7101C48.75 19.4168 49.06 20.1501 49.68 20.5201L50.8633 21.2268C51.65 21.7001 51.9067 22.7268 51.44 23.5134C50.9667 24.3034 49.9433 24.5634 49.15 24.0868L47.9433 23.3634C47.3233 22.9968 46.5333 23.0634 45.99 23.5401C45.07 24.3468 44 24.9501 42.8167 25.3334C42.13 25.5568 41.6633 26.1968 41.6633 26.9201V28.3301C41.6633 29.2501 40.9133 29.9968 39.9967 29.9968C39.08 29.9968 38.33 29.2501 38.33 28.3301V26.9201C38.33 26.1968 37.8633 25.5568 37.1767 25.3334C35.9933 24.9501 34.9233 24.3468 34.0033 23.5401C33.6933 23.2668 33.3 23.1268 32.9067 23.1268C32.61 23.1268 32.3167 23.2034 32.05 23.3634L30.8433 24.0868C30.0533 24.5568 29.03 24.3001 28.5533 23.5101C28.0833 22.7234 28.3433 21.6968 29.13 21.2234L30.3133 20.5168C30.9367 20.1468 31.2433 19.4134 31.08 18.7068C30.74 17.2434 30.74 16.0834 31.08 14.6168C31.2433 13.9101 30.9333 13.1768 30.3133 12.8068L29.13 12.1001C28.3433 11.6268 28.0867 10.6001 28.5533 9.81343C29.03 9.02343 30.05 8.76343 30.8433 9.2401L32.05 9.96343C32.6767 10.3334 33.4633 10.2668 34.0033 9.78677C34.9233 8.98343 35.9933 8.37677 37.18 7.9901C37.8633 7.76677 38.33 7.12676 38.33 6.40343V4.99343C38.33 4.07343 39.08 3.32677 39.9967 3.32677C40.9133 3.32677 41.6633 4.07343 41.6633 4.99343V6.40343C41.6633 7.12343 42.13 7.76343 42.8133 7.9901C44 8.37677 45.07 8.9801 45.99 9.78677C46.53 10.2668 47.32 10.3334 47.9433 9.96343L49.15 9.2401C49.94 8.76677 50.9667 9.02676 51.44 9.81676C51.91 10.6034 51.65 11.6301 50.8633 12.1034L49.68 12.8101C49.0567 13.1801 48.75 13.9134 48.9133 14.6201C49.0867 15.3468 49.1667 16.0201 49.1667 16.6668ZM11.6667 66.6668C15.3433 66.6668 18.3333 63.6768 18.3333 60.0001C18.3333 56.3234 15.3433 53.3334 11.6667 53.3334C7.99 53.3334 5 56.3234 5 60.0001C5 63.6768 7.99 66.6668 11.6667 66.6668ZM11.6667 56.6668C13.5067 56.6668 15 58.1634 15 60.0001C15 61.8368 13.5067 63.3334 11.6667 63.3334C9.82667 63.3334 8.33334 61.8368 8.33334 60.0001C8.33334 58.1634 9.82667 56.6668 11.6667 56.6668ZM24.27 39.2334C24.56 40.1068 24.0867 41.0501 23.2133 41.3401C22.3633 41.6268 21.3967 41.1634 21.1067 40.2834L18.8633 33.5368C17.4467 36.5901 16.6667 39.9401 16.6667 43.3334C16.6667 43.8568 16.6867 44.3768 16.72 44.8901C16.78 45.8101 16.0833 46.6034 15.1633 46.6634C15.1267 46.6634 15.0933 46.6634 15.0533 46.6634C14.1833 46.6634 13.4533 45.9868 13.3933 45.1068C13.3533 44.5201 13.3333 43.9268 13.3333 43.3301C13.3333 39.5901 14.17 35.9001 15.6767 32.5068L9.74334 35.2434C8.92 35.6234 7.92 35.2634 7.53334 34.4268C7.15 33.5901 7.51334 32.6001 8.35 32.2134L16.0433 28.6668C17.0767 28.2068 18.2467 28.1934 19.28 28.6301C20.3433 29.0768 21.17 29.9501 21.5467 31.0268L24.2733 39.2268L24.27 39.2334ZM55.5633 39.2068C56.0667 38.4334 57.1 38.2234 57.87 38.7268L63.2567 42.2634C63.0733 38.2201 61.9 34.3068 59.74 30.8901C59.25 30.1134 59.48 29.0834 60.26 28.5901C61.0233 28.1034 62.06 28.3268 62.5567 29.1101C64.9767 32.9401 66.3067 37.3201 66.5567 41.8468L69.82 35.4168C70.24 34.5934 71.2367 34.2634 72.0633 34.6834C72.8833 35.1001 73.2133 36.1034 72.7967 36.9234L68.9033 44.5968C67.8733 46.6668 65.0567 47.4334 63.13 46.1668L56.04 41.5134C55.2733 41.0101 55.0567 39.9768 55.56 39.2068H55.5633ZM71.6667 53.3334H61.6667C57.07 53.3334 53.3333 57.0734 53.3333 61.6668V71.6668C53.3333 76.2601 57.07 80.0001 61.6667 80.0001H71.6667C76.2633 80.0001 80 76.2601 80 71.6668V61.6668C80 57.0734 76.2633 53.3334 71.6667 53.3334ZM76.6667 71.6668C76.6667 74.4234 74.4233 76.6668 71.6667 76.6668H61.6667C58.91 76.6668 56.6667 74.4234 56.6667 71.6668V61.6668C56.6667 58.9101 58.91 56.6668 61.6667 56.6668H71.6667C74.4233 56.6668 76.6667 58.9101 76.6667 61.6668V71.6668ZM71.6667 61.6668C71.6667 62.5868 70.92 63.3334 70 63.3334H63.3333C62.4133 63.3334 61.6667 62.5868 61.6667 61.6668C61.6667 60.7468 62.4133 60.0001 63.3333 60.0001H70C70.92 60.0001 71.6667 60.7468 71.6667 61.6668ZM23.2267 77.7501C23.5533 78.6101 23.1133 79.5701 22.2533 79.8968C21.4133 80.2168 20.43 79.7934 20.1067 78.9201C18.8533 75.5801 15.46 73.3368 11.6667 73.3368C7.87334 73.3368 4.48 75.5801 3.22667 78.9201C2.90334 79.7834 1.95 80.2134 1.08 79.8968C0.220003 79.5734 -0.219998 78.6134 0.106669 77.7501C1.84334 73.1134 6.48667 70.0001 11.6667 70.0001C16.8467 70.0001 21.49 73.1134 23.2267 77.7501ZM46.6333 67.5034C46.8167 68.4068 46.2333 69.2834 45.33 69.4668C43.5867 69.8201 41.79 70.0001 39.9967 70.0001C37.0233 70.0001 34.1333 69.4968 31.3633 68.5468L35.3767 74.4268C35.8933 75.1868 35.7 76.2234 34.94 76.7434C34.1867 77.2568 33.1467 77.0734 32.6233 76.3068L27.6667 69.0468C27.0433 68.1068 26.84 66.9568 27.09 65.8668C27.3567 64.7401 28.08 63.7801 29.0767 63.2268L36.7833 59.1368C37.5967 58.7068 38.6033 59.0134 39.0367 59.8301C39.47 60.6468 39.16 61.6534 38.3467 62.0834L32.2967 65.2934C36.2533 66.6768 40.55 67.0401 44.6667 66.2001C45.57 66.0168 46.45 66.6001 46.6333 67.5034ZM43.3333 16.6668C43.3333 18.5068 41.84 20.0001 40 20.0001C38.16 20.0001 36.6667 18.5068 36.6667 16.6668C36.6667 14.8268 38.16 13.3334 40 13.3334C41.84 13.3334 43.3333 14.8268 43.3333 16.6668Z"
            fill="white" />
    </g>
    <defs>
        <clipPath id="clip0_92_24">
            <rect width="80" height="80" fill="white" />
        </clipPath>
    </defs>
</svg>