<svg width="80" height="80" viewBox="0 0 80 80" fill="none" xmlns="http://www.w3.org/2000/svg">
<g clip-path="url(#clip0_93_36)">
<path d="M56.6667 48.3167C56.6667 50.53 58.1533 52.5 60.28 53.11L73.9667 57.0233C77.5167 58.0367 80 61.3233 80 65.0167C80 69.6033 76.27 73.3333 71.6833 73.3333H68.3333V78.3333C68.3333 79.2533 67.5867 80 66.6667 80C65.7467 80 65 79.2533 65 78.3333V73.3333H61.65C57.0633 73.3333 53.3333 69.6033 53.3333 65.0167C53.3333 64.0967 54.08 63.35 55 63.35C55.92 63.35 56.6667 64.0967 56.6667 65.0167C56.6667 67.7633 58.9033 70 61.65 70H71.6833C74.43 70 76.6667 67.7633 76.6667 65.0167C76.6667 62.8033 75.18 60.8333 73.0533 60.2233L59.3667 56.31C55.8167 55.2967 53.3333 52.01 53.3333 48.3167C53.3333 43.73 57.0633 40 61.65 40H65V35C65 34.08 65.7467 33.3333 66.6667 33.3333C67.5867 33.3333 68.3333 34.08 68.3333 35V40H71.6833C76.27 40 80 43.73 80 48.3167C80 49.2367 79.2533 49.9833 78.3333 49.9833C77.4133 49.9833 76.6667 49.2367 76.6667 48.3167C76.6667 45.57 74.43 43.3333 71.6833 43.3333H61.65C58.9033 43.3333 56.6667 45.57 56.6667 48.3167ZM75 0H58.3333C57.4133 0 56.6667 0.746667 56.6667 1.66667C56.6667 2.58667 57.4133 3.33333 58.3333 3.33333H74.31L55.9367 21.7067C53.58 24.06 49.7533 24.06 47.3967 21.7067L38.2967 12.6067C34.6433 8.95333 28.6933 8.95333 25.04 12.6067L0.486676 37.1533C-0.163324 37.8033 -0.163324 38.86 0.486676 39.51C0.813343 39.8367 1.24001 39.9967 1.66668 39.9967C2.09334 39.9967 2.52001 39.8333 2.84668 39.51L27.3967 14.96C29.7533 12.6067 33.58 12.6067 35.9367 14.96L45.0367 24.06C48.69 27.7133 54.64 27.7133 58.2933 24.06L76.6667 5.68667V21.6633C76.6667 22.5833 77.4133 23.33 78.3333 23.33C79.2533 23.33 80 22.5833 80 21.6633V5C80 2.24333 77.7567 0 75 0ZM41.6667 30C40.7467 30 40 30.7467 40 31.6667V78.3333C40 79.2533 40.7467 80 41.6667 80C42.5867 80 43.3333 79.2533 43.3333 78.3333V31.6667C43.3333 30.7467 42.5867 30 41.6667 30ZM25 26.6667C24.08 26.6667 23.3333 27.4133 23.3333 28.3333V78.3333C23.3333 79.2533 24.08 80 25 80C25.92 80 26.6667 79.2533 26.6667 78.3333V28.3333C26.6667 27.4133 25.92 26.6667 25 26.6667ZM8.33334 43.3333C7.41334 43.3333 6.66668 44.08 6.66668 45V78.3333C6.66668 79.2533 7.41334 80 8.33334 80C9.25334 80 10 79.2533 10 78.3333V45C10 44.08 9.25334 43.3333 8.33334 43.3333Z" fill="black"/>
</g>
<defs>
<clipPath id="clip0_93_36">
<rect width="80" height="80" fill="white"/>
</clipPath>
</defs>
</svg>
