<svg width="80" height="80" viewBox="0 0 80 80" fill="none" xmlns="http://www.w3.org/2000/svg">
<path d="M30.625 40C30.625 41.8542 31.1748 43.6668 32.205 45.2085C33.2351 46.7502 34.6993 47.9518 36.4123 48.6614C38.1254 49.3709 40.0104 49.5566 41.829 49.1949C43.6475 48.8331 45.318 47.9402 46.6291 46.6291C47.9402 45.318 48.8331 43.6475 49.1949 41.829C49.5566 40.0104 49.3709 38.1254 48.6614 36.4123C47.9518 34.6993 46.7502 33.2351 45.2085 32.205C43.6668 31.1748 41.8542 30.625 40 30.625C37.5144 30.6277 35.1314 31.6163 33.3739 33.3739C31.6163 35.1314 30.6277 37.5144 30.625 40ZM46.875 40C46.875 41.3597 46.4718 42.689 45.7164 43.8195C44.9609 44.9501 43.8872 45.8313 42.6309 46.3517C41.3747 46.872 39.9924 47.0082 38.6588 46.7429C37.3251 46.4776 36.1001 45.8228 35.1386 44.8614C34.1772 43.8999 33.5224 42.6749 33.2571 41.3412C32.9918 40.0076 33.128 38.6253 33.6483 37.3691C34.1687 36.1128 35.0499 35.0391 36.1805 34.2836C37.311 33.5282 38.6403 33.125 40 33.125C41.8227 33.1271 43.5702 33.8521 44.8591 35.1409C46.1479 36.4298 46.8729 38.1773 46.875 40Z" fill="black"/>
<path d="M40 5C33.0777 5 26.3108 7.05271 20.555 10.8986C14.7993 14.7444 10.3133 20.2107 7.66422 26.6061C5.01515 33.0015 4.32203 40.0388 5.67252 46.8282C7.023 53.6175 10.3564 59.8539 15.2513 64.7487C20.1461 69.6436 26.3825 72.977 33.1718 74.3275C39.9612 75.678 46.9985 74.9848 53.3939 72.3358C59.7893 69.6867 65.2556 65.2007 69.1014 59.445C72.9473 53.6892 75 46.9223 75 40C74.9896 30.7206 71.2988 21.8243 64.7372 15.2628C58.1757 8.70124 49.2794 5.01041 40 5ZM40 72.5C33.5721 72.5 27.2886 70.5939 21.944 67.0228C16.5994 63.4516 12.4338 58.3758 9.97392 52.4372C7.51407 46.4986 6.87046 39.9639 8.12448 33.6596C9.3785 27.3552 12.4738 21.5642 17.019 17.019C21.5642 12.4738 27.3552 9.3785 33.6596 8.12448C39.9639 6.87046 46.4986 7.51407 52.4372 9.97392C58.3758 12.4338 63.4516 16.5994 67.0228 21.944C70.5939 27.2886 72.5 33.5721 72.5 40C72.4902 48.6165 69.063 56.8774 62.9702 62.9702C56.8774 69.063 48.6165 72.4903 40 72.5Z" fill="black"/>
<path d="M21.1408 35.4183C21.2612 35.4563 21.3868 35.4757 21.5131 35.4757C21.7795 35.4752 22.0389 35.3897 22.2534 35.2316C22.4679 35.0736 22.6264 34.8511 22.7057 34.5968C23.7098 31.3756 25.5937 28.4989 28.1449 26.2909C30.6962 24.0829 33.8135 22.6313 37.1454 22.0998L35.2893 24.3276C35.1842 24.4537 35.105 24.5994 35.0562 24.7561C35.0074 24.9129 34.99 25.0778 35.0049 25.2413C35.0198 25.4048 35.0668 25.5637 35.1431 25.7091C35.2194 25.8545 35.3237 25.9834 35.4498 26.0884C35.576 26.1935 35.7216 26.2727 35.8784 26.3215C36.0351 26.3703 36.2 26.3878 36.3635 26.3729C36.527 26.358 36.686 26.311 36.8313 26.2347C36.9767 26.1583 37.1056 26.0541 37.2107 25.9279L40.9521 21.4352C41.0444 21.3267 41.1175 21.2033 41.1682 21.0702L41.1688 21.0684C41.178 21.0446 41.1865 21.0189 41.1945 20.9945L41.1951 20.9913L41.1957 20.9901C41.2572 20.7889 41.2669 20.5748 41.2238 20.3688L41.2225 20.3658L41.2219 20.3621L41.2213 20.3591C41.2084 20.2991 41.191 20.2401 41.1694 20.1827L41.1688 20.1815L41.167 20.1772C41.088 19.9713 40.9559 19.79 40.7843 19.6517L40.7812 19.6492L40.7782 19.6467L40.7751 19.6442L40.7727 19.6424L40.7696 19.6399L40.7653 19.6369L36.2719 16.1548C36.1423 16.0532 35.9938 15.9782 35.8351 15.9342C35.6763 15.8901 35.5104 15.8779 35.347 15.8982C35.1835 15.9185 35.0256 15.9709 34.8825 16.0524C34.7393 16.1339 34.6137 16.2429 34.5128 16.3732C34.4119 16.5034 34.3378 16.6523 34.2946 16.8113C34.2515 16.9703 34.2402 17.1362 34.2615 17.2996C34.2827 17.463 34.336 17.6205 34.4183 17.7632C34.5006 17.9059 34.6104 18.0309 34.7412 18.131L36.6888 19.6405C32.9094 20.2552 29.376 21.9106 26.4846 24.4209C23.5933 26.9313 21.4583 30.1974 20.3192 33.8531C20.2702 34.0098 20.2527 34.1746 20.2675 34.3381C20.2823 34.5017 20.3292 34.6606 20.4055 34.806C20.4818 34.9514 20.586 35.0803 20.7122 35.1853C20.8383 35.2904 20.984 35.3696 21.1408 35.4183Z" fill="black"/>
<path d="M34.599 57.3073C32.0585 56.5134 29.7239 55.1701 27.761 53.3725C25.798 51.5749 24.2548 49.3673 23.241 46.9063C22.6982 45.6055 22.3136 44.2443 22.0953 42.8518L24.3274 44.7109C24.4535 44.816 24.5992 44.8952 24.7559 44.944C24.9127 44.9928 25.0776 45.0102 25.2411 44.9953C25.4046 44.9804 25.5635 44.9334 25.7089 44.8571C25.8543 44.7808 25.9832 44.6765 26.0883 44.5504C26.1933 44.4242 26.2725 44.2786 26.3213 44.1218C26.3701 43.9651 26.3876 43.8002 26.3727 43.6367C26.3578 43.4732 26.3108 43.3142 26.2345 43.1689C26.1581 43.0235 26.0539 42.8946 25.9277 42.7895L21.435 39.048C21.3298 38.9583 21.2103 38.8867 21.0816 38.8363L21.0791 38.8356L21.0766 38.8344C21.0461 38.8228 21.015 38.8124 20.9838 38.8027L20.982 38.802C20.7866 38.7444 20.5801 38.7349 20.3802 38.7745L20.3765 38.7752L20.3741 38.7758C20.2989 38.7911 20.2254 38.8133 20.1544 38.8423L20.1513 38.8435C19.951 38.9255 19.7755 39.058 19.6417 39.2281L19.6392 39.2311L19.6367 39.2348L16.1546 43.7282C15.9539 43.9904 15.8651 44.3215 15.9076 44.649C15.9502 44.9765 16.1206 45.2738 16.3817 45.4761C16.6428 45.6783 16.9733 45.769 17.3011 45.7283C17.6288 45.6876 17.9271 45.5189 18.1309 45.2589L19.6375 43.315C19.8882 44.8777 20.3229 46.4053 20.9327 47.8658C22.0861 50.6643 23.8414 53.1746 26.0739 55.2186C28.3065 57.2625 30.9616 58.79 33.8508 59.6926C34.166 59.7881 34.5063 59.7554 34.7975 59.6014C35.0887 59.4475 35.3074 59.1848 35.406 58.8705C35.5046 58.5562 35.4752 58.2156 35.3241 57.9229C35.1729 57.6302 34.9123 57.409 34.599 57.3073Z" fill="black"/>
<path d="M58.8739 44.5823C58.7173 44.5329 58.5525 44.5148 58.3889 44.5292C58.2253 44.5436 58.0661 44.5902 57.9206 44.6662C57.775 44.7423 57.6459 44.8463 57.5406 44.9723C57.4354 45.0984 57.356 45.244 57.3071 45.4008C56.5132 47.9413 55.1698 50.2759 53.3723 52.2388C51.5747 54.2018 49.3671 55.7449 46.9061 56.7588C45.6053 57.3015 44.2441 57.6862 42.8516 57.9044L44.7107 55.6724C44.9229 55.4176 45.0252 55.0889 44.9951 54.7587C44.965 54.4285 44.805 54.1237 44.5502 53.9115C44.2954 53.6993 43.9667 53.597 43.6365 53.6271C43.3063 53.6572 43.0015 53.8172 42.7893 54.072L39.0472 58.5654C38.9553 58.6738 38.8824 58.797 38.8318 58.9298L38.8312 58.9316C38.822 58.9554 38.8135 58.9811 38.8055 59.0055L38.8049 59.0086L38.8043 59.0099C38.7422 59.2136 38.7331 59.4304 38.7781 59.6386L38.7787 59.6416L38.7793 59.6446C38.7919 59.7006 38.8082 59.7557 38.8281 59.8094L38.8294 59.8125C38.9092 60.0263 39.0459 60.2141 39.2249 60.3557L39.2285 60.3582L39.2304 60.3601L39.2346 60.3631L43.728 63.8452C43.8577 63.9468 44.0062 64.0218 44.1649 64.0658C44.3237 64.1098 44.4895 64.1221 44.653 64.1018C44.8165 64.0815 44.9744 64.0291 45.1175 63.9475C45.2607 63.866 45.3863 63.757 45.4872 63.6268C45.5881 63.4965 45.6622 63.3476 45.7053 63.1887C45.7485 63.0297 45.7598 62.8637 45.7385 62.7003C45.7173 62.537 45.664 62.3794 45.5817 62.2367C45.4993 62.094 45.3896 61.969 45.2588 61.8689L43.3148 60.3623C44.8775 60.1116 46.4051 59.6769 47.8656 59.0671C50.6641 57.9137 53.1744 56.1584 55.2184 53.9259C57.2623 51.6933 58.7898 49.0382 59.6924 46.149C59.7415 45.9924 59.7594 45.8276 59.7448 45.6641C59.7303 45.5006 59.6837 45.3416 59.6077 45.1961C59.5317 45.0506 59.4278 44.9215 59.3019 44.8162C59.176 44.7109 59.0305 44.6314 58.8739 44.5823Z" fill="black"/>
<path d="M63.6225 34.5185C63.3604 34.3155 63.0284 34.2249 62.6996 34.2667C62.3708 34.3085 62.072 34.4792 61.869 34.7412L60.3625 36.6852C60.1118 35.1225 59.6771 33.5949 59.0673 32.1344C57.9139 29.3359 56.1586 26.8256 53.9261 24.7817C51.6935 22.7377 49.0384 21.2102 46.1492 20.3076C45.834 20.2121 45.4937 20.2449 45.2025 20.3988C44.9113 20.5527 44.6926 20.8154 44.594 21.1297C44.4954 21.4441 44.5248 21.7846 44.6759 22.0773C44.8271 22.37 45.0876 22.5913 45.4009 22.6929C47.9414 23.4868 50.276 24.8302 52.239 26.6277C54.202 28.4253 55.7451 30.6329 56.759 33.0939C57.3017 34.3947 57.6864 35.756 57.9046 37.1485L55.6726 35.2893C55.5464 35.1843 55.4008 35.1051 55.244 35.0563C55.0872 35.0075 54.9224 34.99 54.7589 35.0049C54.5954 35.0198 54.4364 35.0668 54.291 35.1431C54.1457 35.2195 54.0168 35.3237 53.9117 35.4499C53.8066 35.576 53.7274 35.7216 53.6786 35.8784C53.6298 36.0352 53.6124 36.2 53.6273 36.3635C53.6422 36.527 53.6891 36.686 53.7655 36.8314C53.8418 36.9767 53.9461 37.1056 54.0722 37.2107L58.5656 40.9528C58.6707 41.0422 58.7899 41.1136 58.9184 41.164L58.9209 41.1646L58.9233 41.1658C58.9539 41.1774 58.985 41.1878 59.0161 41.1976L59.018 41.1982C59.1339 41.2325 59.2541 41.25 59.375 41.25C59.4572 41.2502 59.5392 41.242 59.6198 41.2256L59.6234 41.225L59.6259 41.2244C59.7011 41.2091 59.7746 41.1868 59.8456 41.1579L59.8487 41.1566C60.049 41.0746 60.2245 40.9422 60.3583 40.7721L60.3608 40.769L60.3633 40.7654L63.8454 36.272C63.9459 36.1422 64.0199 35.9939 64.0631 35.8356C64.1064 35.6772 64.1179 35.5119 64.0973 35.3491C64.0766 35.1862 64.024 35.0291 63.9426 34.8865C63.8611 34.744 63.7523 34.619 63.6225 34.5185Z" fill="black"/>
</svg>
