<svg width="80" height="80" viewBox="0 0 80 80" fill="none" xmlns="http://www.w3.org/2000/svg">
<path d="M75.5867 53.38C74.9933 51.2333 73.5967 49.4467 71.6633 48.35L69.1667 46.94C69.72 44.6333 70 42.3033 70 40C70 37.6967 69.72 35.3667 69.1667 33.06L71.66 31.6467C75.6567 29.38 77.07 24.2867 74.8033 20.2933C73.7067 18.3533 71.9233 16.96 69.7767 16.3633C67.6333 15.78 65.3833 16.0467 63.4467 17.1433L60.9433 18.5633C57.3967 15.0933 53.08 12.5767 48.33 11.2033V8.33333C48.33 3.73667 44.59 0 39.9967 0C35.4033 0 31.6633 3.73667 31.6633 8.33333V11.2033C26.9133 12.5767 22.5967 15.0933 19.05 18.5633L16.55 17.1467C14.6133 16.0467 12.37 15.78 10.22 16.3633C8.07332 16.96 6.28999 18.3533 5.19332 20.2933C2.92999 24.2867 4.33999 29.3833 8.33666 31.6467L10.83 33.06C10.2767 35.3667 9.99666 37.6967 9.99666 40C9.99666 42.3033 10.2767 44.6333 10.83 46.94L8.33666 48.35C6.39999 49.4467 5.00332 51.2333 4.40999 53.38C3.81666 55.5267 4.09332 57.77 5.18999 59.7067C6.28666 61.6467 8.06999 63.04 10.2167 63.6367C12.3633 64.2233 14.6067 63.9567 16.5467 62.8567L19.05 61.4367C22.5967 64.9067 26.9133 67.4233 31.6633 68.7967V71.6667C31.6633 76.2633 35.4033 80 39.9967 80C44.59 80 48.33 76.2633 48.33 71.6667V68.7967C53.08 67.4233 57.3967 64.9067 60.9433 61.4367L63.4433 62.8533C65.3833 63.9567 67.6267 64.2267 69.7733 63.6367C71.92 63.04 73.7033 61.6467 74.8 59.7067C75.8967 57.77 76.1733 55.5233 75.58 53.38H75.5867ZM71.9067 58.0667C71.25 59.23 70.1767 60.0667 68.89 60.4233C67.6033 60.7733 66.2533 60.6133 65.09 59.95L61.4733 57.9033C60.81 57.5367 59.9667 57.6567 59.4367 58.2167C55.87 62.02 51.32 64.6733 46.2733 65.8933C45.5267 66.0767 45 66.7467 45 67.5133V71.6667C45 74.4233 42.7567 76.6667 40 76.6667C37.2433 76.6667 35 74.4233 35 71.6667V67.5133C35 66.7467 34.4733 66.0733 33.7267 65.8933C28.68 64.6733 24.13 62.02 20.5633 58.2167C20.24 57.87 19.7967 57.69 19.3467 57.69C19.0667 57.69 18.7833 57.76 18.5267 57.9033L14.9067 59.9533C13.7433 60.61 12.3967 60.7733 11.11 60.4233C9.82332 60.0667 8.74999 59.23 8.09332 58.0667C6.73666 55.6667 7.58332 52.61 9.97999 51.2533L13.59 49.21C14.26 48.83 14.58 48.04 14.37 47.3033C13.68 44.8767 13.33 42.4233 13.33 40.0033C13.33 37.5833 13.68 35.1267 14.37 32.7033C14.58 31.9633 14.2567 31.1767 13.59 30.8L9.97999 28.7567C7.57999 27.3967 6.73332 24.34 8.09332 21.94C8.74999 20.7767 9.82332 19.94 11.11 19.5833C12.3967 19.2333 13.7467 19.3933 14.91 20.0567L18.5267 22.1033C19.1967 22.4767 20.04 22.3533 20.5633 21.79C24.1267 17.9867 28.68 15.3333 33.7267 14.1133C34.4733 13.93 35 13.26 35 12.4933V8.34C35 5.58333 37.2433 3.34 40 3.34C42.7567 3.34 45 5.58333 45 8.34V12.4933C45 13.26 45.5267 13.9333 46.2733 14.1133C51.32 15.3333 55.87 17.9867 59.4367 21.79C59.9633 22.35 60.8067 22.47 61.4733 22.1033L65.0933 20.0533C66.2567 19.3967 67.6033 19.2333 68.89 19.5833C70.1767 19.94 71.25 20.7767 71.9067 21.94C73.2667 24.34 72.4167 27.3967 70.02 28.7567L66.41 30.8C65.74 31.1767 65.42 31.9667 65.63 32.7033C66.32 35.13 66.67 37.5833 66.67 40.0033C66.67 42.4233 66.32 44.88 65.63 47.3033C65.42 48.0433 65.7433 48.83 66.41 49.21L70.02 51.2533C71.18 51.91 72.0167 52.9833 72.3733 54.2667C72.73 55.55 72.5633 56.9033 71.9033 58.0667H71.9067ZM28.3567 40.2367L28.3333 24.9967C28.3333 24.08 27.5867 23.3333 26.6667 23.3333C25.7467 23.3333 25 24.0833 25.0033 25.0033L25.0267 40.2367C22.16 40.9833 20.03 43.57 20.03 46.6667C20.03 49.7633 22.1567 52.3433 25.02 53.0933L25.0067 54.9867C25 55.9067 25.74 56.66 26.66 56.6667H26.6733C27.5867 56.6667 28.3333 55.9267 28.34 55.0133L28.3533 53.1C31.2267 52.3567 33.3633 49.7667 33.3633 46.6667C33.3633 43.5667 31.23 40.98 28.36 40.2367H28.3567ZM26.6933 50C24.8567 50 23.36 48.5067 23.36 46.6667C23.36 44.8267 24.8567 43.3333 26.6933 43.3333C28.53 43.3333 30.0267 44.8267 30.0267 46.6667C30.0267 48.5067 28.53 50 26.6933 50ZM55.0233 40.2367L55 24.9967C55 24.08 54.2533 23.3333 53.3333 23.3333C52.4133 23.3333 51.6667 24.0833 51.67 25.0033L51.6933 40.2367C48.8267 40.9833 46.6967 43.57 46.6967 46.6667C46.6967 49.7633 48.8233 52.3433 51.6867 53.0933L51.6733 54.9867C51.6667 55.9067 52.4067 56.66 53.3267 56.6667H53.34C54.2533 56.6667 55 55.9267 55.0067 55.0133L55.02 53.1C57.8933 52.3567 60.03 49.7667 60.03 46.6667C60.03 43.5667 57.8933 40.98 55.0233 40.2367ZM53.36 50C51.5233 50 50.0267 48.5067 50.0267 46.6667C50.0267 44.8267 51.5233 43.3333 53.36 43.3333C55.1967 43.3333 56.6933 44.8267 56.6933 46.6667C56.6933 48.5067 55.1967 50 53.36 50ZM41.6833 26.9L41.67 24.9867C41.6633 24.0733 40.9167 23.3333 40.0033 23.3333H39.99C39.07 23.34 38.33 24.0933 38.3367 25.0133L38.35 26.9067C35.4867 27.6567 33.36 30.24 33.36 33.3333C33.36 36.4267 35.49 39.0167 38.3567 39.7633L38.3333 54.9967C38.3333 55.9167 39.0767 56.6667 39.9967 56.6667C40.9167 56.6667 41.6633 55.92 41.6633 55.0033L41.6867 39.7633C44.5567 39.02 46.69 36.43 46.69 33.3333C46.69 30.2367 44.5533 27.6433 41.68 26.9H41.6833ZM40.0267 36.6667C38.19 36.6667 36.6933 35.1733 36.6933 33.3333C36.6933 31.4933 38.19 30 40.0267 30C41.8633 30 43.36 31.4933 43.36 33.3333C43.36 35.1733 41.8633 36.6667 40.0267 36.6667Z" fill="black"/>
</svg>
