<svg width="80" height="80" viewBox="0 0 80 80" fill="none" xmlns="http://www.w3.org/2000/svg">
    <g clip-path="url(#clip0_92_12)">
        <path
            d="M51.6667 56.6666H3.33333V14.9999C3.33333 8.56658 8.56667 3.33325 15 3.33325H38.3333C41.8933 3.33325 45.21 4.92992 47.4367 7.70658C48.0167 8.42992 49.07 8.54325 49.78 7.96658C50.5 7.39325 50.6133 6.34325 50.04 5.62325C47.1767 2.04992 42.9067 -0.00341797 38.33 -0.00341797H15C6.73 -8.46351e-05 0 6.72992 0 14.9999V64.9999C0 73.2699 6.73 79.9999 15 79.9999H38.3333C46.6033 79.9999 53.3333 73.2699 53.3333 64.9999V58.3332C53.3333 57.4132 52.5867 56.6666 51.6667 56.6666ZM50 59.9999V64.9999C50 71.4333 44.7667 76.6666 38.3333 76.6666H15C8.56667 76.6666 3.33333 71.4333 3.33333 64.9999V59.9999H50ZM78.3333 46.6666H76.6667V29.5699C78.6233 28.7399 80 26.7999 80 24.5466C80 22.5499 78.9133 20.7166 77.1567 19.7566L63.4167 12.2632C61.2733 11.0932 58.7233 11.0932 56.58 12.2632L42.83 19.7632C41.0833 20.7166 39.9967 22.5499 39.9967 24.5466C39.9967 26.8032 41.3733 28.7399 43.33 29.5699V46.6666H41.6633C40.7433 46.6666 39.9967 47.4133 39.9967 48.3333C39.9967 49.2533 40.7433 49.9999 41.6633 49.9999H78.33C79.25 49.9999 79.9967 49.2533 79.9967 48.3333C79.9967 47.4133 79.2533 46.6666 78.3333 46.6666ZM63.3333 29.9999V46.6666H56.6667V29.9999H63.3333ZM66.6667 29.9999H73.3333V46.6666H66.6667V29.9999ZM44.4267 22.6899L58.1767 15.1899C58.75 14.8799 59.3733 14.7232 60 14.7232C60.6267 14.7232 61.2533 14.8799 61.8233 15.1899L75.56 22.6832C76.2433 23.0566 76.6667 23.7699 76.6667 24.5466C76.6667 25.7166 75.7167 26.6666 74.5433 26.6666H45.4567C44.2833 26.6666 43.3333 25.7132 43.3333 24.5432C43.3333 23.7666 43.7533 23.0599 44.4267 22.6899ZM46.6667 29.9999H53.3333V46.6666H46.6667V29.9999ZM31.6667 69.9999H21.6667C20.7467 69.9999 20 69.2533 20 68.3333C20 67.4133 20.7467 66.6666 21.6667 66.6666H31.6667C32.5867 66.6666 33.3333 67.4133 33.3333 68.3333C33.3333 69.2533 32.5867 69.9999 31.6667 69.9999Z"
            fill="white" />
    </g>
    <defs>
        <clipPath id="clip0_92_12">
            <rect width="80" height="80" fill="white" />
        </clipPath>
    </defs>
</svg>