<svg width="80" height="80" viewBox="0 0 80 80" fill="none" xmlns="http://www.w3.org/2000/svg">
<g clip-path="url(#clip0_93_49)">
<path d="M56.6033 41.9867V67.37C56.6367 70.1367 55.3767 73.0533 53.27 75.56V80.3233H49.9367V74.4033C51.6833 72.41 53.3967 69.6833 53.27 67.3733V41.99C53.27 41.07 52.5233 40.3233 51.6033 40.3233C50.6833 40.3233 49.9367 41.07 49.9367 41.99V53.6567H46.6033V38.6567C46.6033 37.7367 45.8567 36.99 44.9367 36.99C44.0167 36.99 43.27 37.7367 43.27 38.6567V53.6567H39.9367V35.3233C39.9367 34.4033 39.19 33.6567 38.27 33.6567C37.35 33.6567 36.6033 34.4033 36.6033 35.3233V53.6567H33.27V38.6567C33.27 37.7367 32.5233 36.99 31.6033 36.99C30.6833 36.99 29.9367 37.7367 29.9367 38.6567V67.6433L23.25 60.9567C22.4567 60.3133 21.61 59.9033 20.5133 60.9567C19.7833 61.6867 19.7433 62.9267 20.4267 63.61L33.27 76.11V80.3233H29.9367V77.5167L18.0833 65.9833C16.0933 63.9933 16.1367 60.62 18.1533 58.6C20.24 56.4033 23.5767 56.5633 25.6033 58.6L26.6 59.5967V38.6567C26.6 35.9 28.8433 33.6567 31.6 33.6567C32.2567 33.6567 32.8833 33.79 33.46 34.0233C34.0367 31.8967 35.9633 30.3233 38.2667 30.3233C40.57 30.3233 42.4967 31.9 43.0733 34.0233C43.65 33.79 44.2733 33.6567 44.9333 33.6567C47.2367 33.6567 49.1633 35.2333 49.74 37.3567C50.3167 37.1233 50.94 36.99 51.6 36.99C54.3567 36.99 56.6 39.2333 56.6 41.99L56.6033 41.9867ZM19.9367 42.2367L8.63 30.5933C6.92333 29.0233 6.26667 25.8633 6.12 23.2167L0 17.05V21.78L2.93 24.7333C3.16667 27.9933 4.28667 30.9533 6.24 32.9167L19.9333 47.02V42.24L19.9367 42.2367ZM34.8167 10.4167C35.7833 10.43 36.62 11.35 36.6033 12.38C36.5433 13.9033 35.6633 14.19 34.6167 14.2833L24.27 14.26L34.5467 24.3267C35.7233 23.9233 36.96 23.6567 38.2733 23.6567C38.4067 23.6567 38.53 23.6933 38.6633 23.6967L32.4567 17.6133H34.5933C37.49 17.7033 39.9667 15.4433 39.94 12.43C39.9833 9.57333 37.66 7.12667 34.85 7.08333L18.2967 7.06333L11.27 0H6.57L16.9067 10.3933L34.8167 10.4167ZM73.2933 20.59L73.27 38.5C73.2567 39.4667 72.3367 40.3033 71.3067 40.2867C69.7833 40.2267 69.4967 39.3467 69.4033 38.3L69.4267 27.9533L61.5567 35.9867C62.18 37.0133 62.6567 38.1333 62.94 39.3367L66.0767 36.1367V38.2733C65.9867 41.17 68.2467 43.6467 71.26 43.62C74.1167 43.6633 76.5633 41.34 76.6067 38.53L76.6267 21.9767L80.0033 18.62V13.92L73.2933 20.59ZM65.2867 0.303333L58.9533 6.61667C55.6933 6.85333 52.7333 7.97333 50.77 9.92667L42.3933 18.06L44.7633 20.4L53.09 12.3133C54.66 10.6067 57.82 9.95 60.4667 9.80333L70.0167 0.303333H65.2867Z" fill="black"/>
</g>
<defs>
<clipPath id="clip0_93_49">
<rect width="80" height="80" fill="white"/>
</clipPath>
</defs>
</svg>
