<svg width="80" height="80" viewBox="0 0 80 80" fill="none" xmlns="http://www.w3.org/2000/svg">
    <g clip-path="url(#clip0_92_18)">
        <path
            d="M50 33.3333C51.84 33.3333 53.3333 34.8267 53.3333 36.6667C53.3333 38.5067 51.84 40 50 40C48.16 40 46.6667 38.5067 46.6667 36.6667C46.6667 34.8267 48.16 33.3333 50 33.3333ZM63.3333 36.6667C63.3333 38.5067 64.8267 40 66.6667 40C68.5067 40 70 38.5067 70 36.6667C70 34.8267 68.5067 33.3333 66.6667 33.3333C64.8267 33.3333 63.3333 34.8267 63.3333 36.6667ZM33.3333 1.66667C33.3333 0.746667 34.08 0 35 0H36.0333C40.02 0 43.41 2.78667 44.1967 6.66667H73.33C75.4767 6.66667 77.4333 7.65667 78.7033 9.38667C79.9733 11.1167 80.33 13.28 79.6867 15.33L76.92 24.16C75.8233 27.6533 72.6267 30 68.9667 30H51.81C47.73 30 44.2733 27.08 43.59 23.0567L40.96 7.5C40.5533 5.08333 38.48 3.33333 36.03 3.33333H34.9967C34.0767 3.33333 33.33 2.58667 33.33 1.66667H33.3333ZM44.7667 10L46.88 22.5C47.29 24.9133 49.3633 26.6667 51.81 26.6667H68.9667C71.1633 26.6667 73.0767 25.26 73.7367 23.1633L76.5067 14.3333C76.83 13.3067 76.65 12.2267 76.0167 11.36C75.3833 10.4933 74.4067 10 73.33 10H44.7667ZM78.3333 33.3333C77.4133 33.3333 76.6667 34.08 76.6667 35V51.6667C76.6667 58.1 71.4333 63.3333 65 63.3333H15C8.56667 63.3333 3.33333 58.1 3.33333 51.6667V25C3.33333 18.5667 8.56667 13.3333 15 13.3333H31.6667C32.5867 13.3333 33.3333 12.5867 33.3333 11.6667C33.3333 10.7467 32.5867 10 31.6667 10H15C6.73 10 0 16.73 0 25V51.6667C0 59.9367 6.73 66.6667 15 66.6667H38.3333V76.6667H25C24.08 76.6667 23.3333 77.4133 23.3333 78.3333C23.3333 79.2533 24.08 80 25 80H55C55.92 80 56.6667 79.2533 56.6667 78.3333C56.6667 77.4133 55.92 76.6667 55 76.6667H41.6667V66.6667H65C73.27 66.6667 80 59.9367 80 51.6667V35C80 34.08 79.2533 33.3333 78.3333 33.3333Z"
            fill="white" />
    </g>
    <defs>
        <clipPath id="clip0_92_18">
            <rect width="80" height="80" fill="white" />
        </clipPath>
    </defs>
</svg>