<svg width="80" height="80" viewBox="0 0 80 80" fill="none" xmlns="http://www.w3.org/2000/svg">
    <g clip-path="url(#clip0_92_10)">
        <path
            d="M43.2967 20.5C43.94 21.16 43.9267 22.2133 43.27 22.8567L27.56 38.2033C25.1533 40.58 21.23 40.5833 18.8133 38.2133L10.49 29.9533C9.84 29.3033 9.83333 28.25 10.4833 27.5967C11.1267 26.9433 12.1867 26.9367 12.84 27.5867L21.1533 35.84C22.27 36.9367 24.1 36.9367 25.2233 35.8267L40.94 20.4733C41.6033 19.8333 42.66 19.8433 43.2967 20.5ZM80 21.6667V41.6667C80 48.1 74.7667 53.3333 68.3333 53.3333H53.3333V65C53.3333 73.27 46.6033 80 38.3333 80H15C6.73 80 0 73.27 0 65V15C0 6.73 6.73 0 15 0H38.3333C44.8433 0 50.34 4.19333 52.4133 10H68.3333C74.7667 10 80 15.2333 80 21.6667ZM50 60H3.33333V65C3.33333 71.4333 8.56667 76.6667 15 76.6667H38.3333C44.7667 76.6667 50 71.4333 50 65V60ZM50 15C50 8.56667 44.7667 3.33333 38.3333 3.33333H15C8.56667 3.33333 3.33333 8.56667 3.33333 15V56.6667H50V15ZM76.6667 26.6667H53.3333V50H68.3333C72.93 50 76.6667 46.26 76.6667 41.6667V26.6667ZM76.6667 21.6667C76.6667 17.0733 72.93 13.3333 68.3333 13.3333H53.1633C53.2267 13.8867 53.3333 14.43 53.3333 15V23.3333H76.6667V21.6667ZM21.6667 70H31.6667C32.5867 70 33.3333 69.2533 33.3333 68.3333C33.3333 67.4133 32.5867 66.6667 31.6667 66.6667H21.6667C20.7467 66.6667 20 67.4133 20 68.3333C20 69.2533 20.7467 70 21.6667 70Z"
            fill="white" />
    </g>
    <defs>
        <clipPath id="clip0_92_10">
            <rect width="80" height="80" fill="black" />
        </clipPath>
    </defs>
</svg>