<svg width="52" height="52" viewBox="0 0 52 52" fill="none" xmlns="http://www.w3.org/2000/svg">
<g clip-path="url(#clip0_889_2482)">
<path d="M32.8306 5.12893C32.6078 4.459 32.0453 3.96847 31.3633 3.8506L28.856 3.4164L27.6791 1.05213C27.3541 0.403867 26.711 0 25.9995 0C25.288 0 24.6449 0.403867 24.3199 1.053L23.143 3.41727L20.6366 3.85147C19.9536 3.96933 19.3903 4.459 19.1684 5.1298C18.9388 5.81793 19.1034 6.56847 19.5965 7.09107L21.3992 8.99947L21.0161 11.6567C20.9104 12.3864 21.2138 13.1014 21.8066 13.5217C22.1272 13.7497 22.5025 13.8649 22.8786 13.8649C23.1707 13.8649 23.4645 13.7956 23.734 13.6543L25.9986 12.4748L28.2632 13.6543C28.882 13.9785 29.6213 13.9256 30.1916 13.5217C30.7852 13.1014 31.0877 12.3855 30.982 11.6567L30.5989 8.99947L32.4016 7.09107C32.8947 6.56847 33.0594 5.81793 32.8297 5.1298L32.8306 5.12893ZM31.1432 5.90027L29.0527 8.11373C28.8707 8.30613 28.7867 8.57047 28.8248 8.8322L29.2685 11.9037C29.2859 12.0267 29.2191 12.0874 29.1905 12.1082C29.1299 12.1489 29.0883 12.129 29.0649 12.1177L26.3999 10.7285C26.1494 10.5985 25.8496 10.5985 25.5991 10.7285L22.9341 12.1177C22.9107 12.1299 22.8682 12.1489 22.8084 12.1082C22.7798 12.0874 22.714 12.0259 22.7304 11.9037L23.1741 8.8322C23.2123 8.57047 23.1282 8.30613 22.9462 8.11373L20.8558 5.90027C20.777 5.8162 20.7995 5.71567 20.8125 5.67667C20.835 5.6082 20.8749 5.5692 20.9321 5.5588L23.8718 5.0492C24.1431 5.00153 24.3762 4.8282 24.5002 4.5812L25.873 1.8252C25.8842 1.80267 25.9189 1.73333 25.9995 1.73333C26.0801 1.73333 26.1156 1.8018 26.126 1.82433L27.4988 4.5812C27.6227 4.8282 27.855 5.00153 28.1272 5.0492L31.0677 5.5588C31.1232 5.5692 31.1631 5.6082 31.1865 5.67667C31.2004 5.71567 31.222 5.8162 31.1432 5.90027Z" fill="black"/>
<path d="M17.232 12.062C17.0093 11.3921 16.4468 10.9016 15.7648 10.7837L13.2575 10.3495L12.0806 7.98524C11.7573 7.33697 11.1142 6.93311 10.4018 6.93311C9.68943 6.93311 9.04723 7.33697 8.72223 7.98611L7.54529 10.3504L5.03889 10.7846C4.35596 10.9024 3.79263 11.3921 3.57076 12.0629C3.34109 12.751 3.50576 13.5016 3.99889 14.0242L5.80156 15.9326L5.41849 18.5898C5.31276 19.3195 5.61609 20.0345 6.20889 20.4548C6.52956 20.6828 6.90483 20.798 7.28096 20.798C7.57303 20.798 7.86683 20.7287 8.13636 20.5874L10.401 19.4079L12.6656 20.5874C13.2852 20.9116 14.0245 20.8587 14.5939 20.4548C15.1876 20.0345 15.49 19.3186 15.3843 18.5898L15.0012 15.9326L16.8039 14.0242C17.297 13.5016 17.4617 12.7502 17.232 12.062ZM15.5446 12.8334L13.4542 15.0468C13.2722 15.2392 13.1882 15.5036 13.2263 15.7653L13.67 18.8368C13.6874 18.9598 13.6206 19.0205 13.592 19.0413C13.5314 19.082 13.4898 19.063 13.4664 19.0508L10.8014 17.6616C10.5509 17.5316 10.251 17.5316 10.0006 17.6616L7.33556 19.0508C7.31216 19.0638 7.27056 19.082 7.20989 19.0413C7.18129 19.0205 7.11543 18.959 7.13189 18.8368L7.57563 15.7653C7.61376 15.5036 7.52969 15.2392 7.34769 15.0468L5.25729 12.8334C5.17843 12.7493 5.20096 12.6488 5.21396 12.6098C5.23649 12.5413 5.27636 12.5023 5.33356 12.4919L8.27329 11.9823C8.54456 11.9346 8.77769 11.7613 8.90163 11.5143L10.2744 8.75831C10.2857 8.73577 10.3204 8.66644 10.401 8.66644C10.4816 8.66644 10.5171 8.73491 10.5275 8.75744L11.9003 11.5143C12.0242 11.7613 12.2565 11.9346 12.5286 11.9823L15.4692 12.4919C15.5247 12.5023 15.5646 12.5413 15.588 12.6098C15.6018 12.6488 15.6235 12.7493 15.5446 12.8334Z" fill="black"/>
<path d="M48.4312 12.062C48.2085 11.3921 47.646 10.9016 46.964 10.7837L44.4567 10.3495L43.2798 7.98524C42.9565 7.33697 42.3134 6.93311 41.601 6.93311C40.8886 6.93311 40.2464 7.33697 39.9214 7.98611L38.7445 10.3504L36.2381 10.7846C35.5552 10.9024 34.9918 11.3921 34.77 12.0629C34.5403 12.751 34.705 13.5016 35.1981 14.0242L37.0008 15.9326L36.6177 18.5898C36.512 19.3195 36.8153 20.0345 37.4081 20.4548C37.7288 20.6828 38.104 20.798 38.4802 20.798C38.7722 20.798 39.066 20.7287 39.3356 20.5874L41.6002 19.4079L43.8648 20.5874C44.4836 20.9116 45.2237 20.8587 45.7931 20.4548C46.3868 20.0345 46.6892 19.3186 46.5835 18.5898L46.2004 15.9326L48.0031 14.0242C48.4962 13.5016 48.6609 12.7502 48.4312 12.062ZM46.7438 12.8334L44.6534 15.0468C44.4714 15.2392 44.3874 15.5036 44.4255 15.7653L44.8692 18.8368C44.8866 18.9598 44.8198 19.0205 44.7912 19.0413C44.7306 19.082 44.689 19.063 44.6656 19.0508L42.0006 17.6616C41.7501 17.5316 41.4502 17.5316 41.1998 17.6616L38.5348 19.0508C38.5122 19.0638 38.4689 19.082 38.4091 19.0413C38.3805 19.0205 38.3146 18.959 38.3311 18.8368L38.7748 15.7653C38.813 15.5036 38.7289 15.2392 38.5469 15.0468L36.4565 12.8334C36.3776 12.7493 36.4002 12.6488 36.4132 12.6098C36.4357 12.5413 36.4756 12.5023 36.5328 12.4919L39.4725 11.9823C39.7438 11.9346 39.9769 11.7613 40.1008 11.5143L41.4736 8.75831C41.4849 8.73577 41.5196 8.66644 41.6002 8.66644C41.6808 8.66644 41.7163 8.73491 41.7267 8.75744L43.0995 11.5143C43.2234 11.7613 43.4557 11.9346 43.7278 11.9823L46.6684 12.4919C46.7239 12.5023 46.7638 12.5413 46.7872 12.6098C46.801 12.6488 46.8227 12.7493 46.7438 12.8334Z" fill="black"/>
<path d="M26 20.7998C11.6636 20.7998 0 32.4634 0 46.7998C0 47.7557 0.7774 48.5331 1.73333 48.5331H12.1333C13.0893 48.5331 13.8667 47.7557 13.8667 46.7998C13.8667 40.1091 19.3093 34.6665 26 34.6665C30.1037 34.6665 33.8971 36.743 36.1322 40.1438C32.2669 41.5105 29.2699 42.6138 27.0634 43.4805C26.7211 43.3929 26.3692 43.3331 26 43.3331C23.6106 43.3331 21.6667 45.2771 21.6667 47.6665C21.6667 50.0559 23.6106 51.9998 26 51.9998C27.7065 51.9998 29.172 50.9997 29.8783 49.5619C32.1429 48.3286 35.0497 46.6542 37.9739 44.9382C38.0692 45.5518 38.1333 46.1723 38.1333 46.7998C38.1333 47.7557 38.9107 48.5331 39.8667 48.5331H50.2667C51.2226 48.5331 52 47.7557 52 46.7998C52 32.4634 40.3364 20.7998 26 20.7998ZM35.1667 36.4076C32.8839 34.3917 29.9754 33.1567 26.8667 32.9626V22.5548C32.9039 22.768 38.3855 25.1947 42.5239 29.0505L35.1667 36.4076ZM12.1333 46.7998H1.73333C1.73333 40.4203 4.21113 34.6119 8.25067 30.2759L15.6156 37.6409C13.4559 40.0866 12.1333 43.2881 12.1333 46.7998ZM16.8411 36.4154L9.47613 29.0505C13.6145 25.1955 19.0953 22.7689 25.1333 22.5548V32.9765C21.9631 33.1741 19.0831 34.4351 16.8411 36.4154ZM44.421 39.096C40.2619 41.5851 34.5003 45.0101 30.3004 47.3493C30.2207 46.2685 29.7605 45.2935 29.0307 44.5777C32.5191 43.2473 37.5804 41.4438 44.421 39.096ZM25.9991 50.2665C24.5657 50.2665 23.3991 49.0999 23.3991 47.6665C23.3991 46.233 24.5657 45.0665 25.9991 45.0665C27.4326 45.0665 28.5991 46.233 28.5991 47.6665C28.5991 49.0999 27.4326 50.2665 25.9991 50.2665ZM39.8658 46.7998C39.8658 45.8517 39.7653 44.9122 39.5755 43.9953C41.613 42.7923 43.5994 41.6076 45.3145 40.5823C46.0937 40.11 46.3805 39.1731 45.9983 38.3541C45.6179 37.5403 44.7252 37.1573 43.8655 37.4537C41.6633 38.2094 39.6509 38.9079 37.8083 39.5545C37.3871 38.8689 36.9113 38.2293 36.3887 37.6365L43.7476 30.2777C47.7871 34.6136 50.2649 40.422 50.2649 46.8015H39.8649L39.8658 46.7998Z" fill="black"/>
</g>
<defs>
<clipPath id="clip0_889_2482">
<rect width="52" height="52" fill="white"/>
</clipPath>
</defs>
</svg>
