<svg width="52" height="52" viewBox="0 0 52 52" fill="none" xmlns="http://www.w3.org/2000/svg">
<path fill-rule="evenodd" clip-rule="evenodd" d="M33.4142 1.62598H35.9838C36.5095 1.62705 37.0133 1.83636 37.3851 2.20809C37.7568 2.57982 37.9661 3.08369 37.9672 3.60939V4.47074C39.0628 4.7602 40.1144 5.196 41.0936 5.76638L41.7029 5.157C42.0754 4.78602 42.5796 4.57773 43.1053 4.57773C43.631 4.57773 44.1353 4.78602 44.5077 5.157L46.3251 6.97385C46.6961 7.34631 46.9044 7.85061 46.9044 8.37633C46.9044 8.90205 46.6961 9.40634 46.3251 9.7788L45.7157 10.3882C46.286 11.3673 46.7218 12.4188 47.0113 13.5144H47.8727C48.3984 13.5154 48.9023 13.7247 49.2741 14.0964C49.6459 14.4681 49.8553 14.972 49.8564 15.4978V18.0673C49.8553 18.593 49.646 19.0969 49.2743 19.4686C48.9025 19.8404 48.3987 20.0497 47.873 20.0507H47.0116C46.722 21.1462 46.2863 22.1978 45.7161 23.177L46.3255 23.7864C46.6965 24.1589 46.9048 24.6631 46.9048 25.1888C46.9048 25.7145 46.6965 26.2188 46.3255 26.5913L44.5084 28.4083C44.136 28.7794 43.6317 28.9877 43.106 28.9877C42.5803 28.9877 42.076 28.7794 41.7035 28.4083L41.0942 27.7989C40.1149 28.3691 39.0633 28.8048 37.9678 29.0945V29.9557C37.9667 30.4814 37.7574 30.9853 37.3857 31.3571C37.0139 31.7288 36.5101 31.9381 35.9844 31.9392H33.4148C32.8891 31.9381 32.3853 31.7287 32.0136 31.357C31.6419 30.9853 31.4325 30.4814 31.4314 29.9557V29.0945C30.3359 28.805 29.2844 28.3692 28.3053 27.7988L27.6959 28.4082C27.3235 28.7793 26.8192 28.9876 26.2935 28.9876C25.7677 28.9876 25.2634 28.7793 24.891 28.4082L23.074 26.5912C22.7038 26.2184 22.4959 25.7142 22.4959 25.1888C22.4959 24.6633 22.7038 24.1592 23.074 23.7864L23.6834 23.177C23.1132 22.1978 22.6774 21.1463 22.3879 20.0507H21.5265C21.0008 20.0499 20.4968 19.8408 20.125 19.4692C19.7531 19.0976 19.5436 18.5938 19.5423 18.068V15.4985C19.5435 14.9728 19.7528 14.469 20.1245 14.0973C20.4962 13.7256 21 13.5162 21.5257 13.5151H22.3871C22.6767 12.4196 23.1125 11.3681 23.6827 10.389L23.0733 9.77962C22.7023 9.40716 22.494 8.90286 22.494 8.37714C22.494 7.85142 22.7023 7.34713 23.0733 6.97466L24.8903 5.1568C25.0731 4.97016 25.2912 4.82188 25.5321 4.72065C25.7729 4.61942 26.0315 4.56728 26.2927 4.56728C26.5539 4.56728 26.8125 4.61942 27.0534 4.72065C27.2942 4.82188 27.5124 4.97016 27.6951 5.1568L28.3045 5.76617C29.2836 5.19578 30.3351 4.75997 31.4306 4.47054V3.60939C31.4317 3.08369 31.641 2.57984 32.0127 2.20812C32.3845 1.8364 32.8885 1.62708 33.4142 1.62598ZM3.44404 35.02L12.1856 48.8348L16.9692 45.8077C14.0555 41.2027 11.1417 36.5978 8.22774 31.993L3.44404 35.02ZM11.437 50.0716C11.5284 50.2168 11.6737 50.3198 11.841 50.3579C12.0082 50.396 12.1838 50.3661 12.329 50.2747L18.2066 46.5563C18.3518 46.4649 18.4548 46.3196 18.4929 46.1523C18.5309 45.985 18.501 45.8094 18.4097 45.6642L17.912 44.8771L18.5386 44.5115L29.4992 46.0943C30.9316 46.3205 32.3966 45.9996 33.6033 45.1954L48.4853 36.6039C48.8456 36.4032 49.1628 36.1333 49.4185 35.8097C49.6742 35.4861 49.8635 35.1151 49.9754 34.7181C50.0874 34.3211 50.1197 33.9059 50.0707 33.4964C50.0217 33.0868 49.8922 32.691 49.6897 32.3317C49.491 31.9796 49.2245 31.6704 48.9054 31.4221C48.5864 31.1737 48.2212 30.9912 47.8311 30.885C47.0351 30.6674 46.1862 30.7587 45.4546 31.1406L36.5646 35.7466C36.1853 35.079 35.5727 34.5752 34.8445 34.3318L22.5267 30.2067C21.2759 29.771 19.9135 29.7782 18.6673 30.227L10.4442 33.0768L8.97605 30.7557C8.93081 30.6838 8.87185 30.6215 8.80253 30.5724C8.73322 30.5233 8.6549 30.4883 8.57206 30.4694C8.48922 30.4505 8.40347 30.4482 8.31972 30.4625C8.23596 30.4767 8.15584 30.5074 8.08392 30.5526L2.20681 34.2719C2.13488 34.3171 2.07257 34.3761 2.02344 34.4454C1.9743 34.5147 1.9393 34.593 1.92044 34.6759C1.90158 34.7587 1.89922 34.8444 1.9135 34.9282C1.92779 35.0119 1.95843 35.092 2.00368 35.1639L11.437 50.0716ZM11.154 34.1981L17.2182 43.7816L18.0619 43.2896C18.1916 43.2077 18.3463 43.1746 18.4981 43.1964L29.6813 44.8113C30.2393 44.8972 30.8083 44.8811 31.3605 44.7638C32.0004 44.6238 32.3788 44.4084 32.9317 44.0906C37.9076 41.218 42.8765 38.2976 47.8726 35.4642C48.2937 35.2238 48.6028 34.8267 48.7324 34.3594C48.862 33.8922 48.8017 33.3926 48.5646 32.9696C48.4492 32.7654 48.2945 32.5862 48.1094 32.4422C47.9242 32.2983 47.7123 32.1925 47.486 32.1311C47.0035 32.0008 46.4896 32.0577 46.0472 32.2902L36.962 36.9977C36.997 37.3609 36.9508 38.1102 36.7493 38.4276C36.3921 39.1416 35.8192 39.7251 35.1118 40.0955C34.7665 40.2719 34.3892 40.3771 34.0023 40.4046C33.6155 40.4322 33.2271 40.3817 32.8602 40.2561L23.8618 37.2426C23.7789 37.2176 23.702 37.1761 23.6354 37.1208C23.5689 37.0654 23.5142 36.9973 23.4744 36.9204C23.4347 36.8435 23.4109 36.7594 23.4042 36.6731C23.3976 36.5868 23.4084 36.5001 23.4359 36.418C23.4634 36.3359 23.5071 36.2602 23.5644 36.1954C23.6217 36.1305 23.6915 36.0778 23.7695 36.0404C23.8475 36.003 23.9323 35.9816 24.0187 35.9776C24.1052 35.9735 24.1916 35.9868 24.2728 36.0168L33.2712 39.0305C33.4774 39.1003 33.6955 39.1278 33.9126 39.1116C34.1296 39.0953 34.3412 39.0356 34.5347 38.9359C34.9961 38.6902 35.369 38.3062 35.6011 37.8378C35.74 37.3808 35.696 36.8876 35.4783 36.4625C35.2606 36.0373 34.8863 35.7132 34.4343 35.5587L22.1163 31.4337C21.1358 31.0878 20.0655 31.0932 19.0885 31.4491L11.154 34.1981ZM34.6992 12.3779C33.9286 12.3778 33.1818 12.6449 32.5861 13.1337C31.9904 13.6225 31.5826 14.3027 31.4322 15.0585C31.2818 15.8142 31.3981 16.5988 31.7613 17.2784C32.1245 17.958 32.7122 18.4906 33.4241 18.7856C34.136 19.0805 34.9281 19.1195 35.6655 18.8958C36.4029 18.6721 37.04 18.1997 37.4681 17.559C37.8962 16.9183 38.0889 16.149 38.0134 15.3821C37.9379 14.6152 37.5988 13.8983 37.0539 13.3534C36.745 13.0437 36.378 12.7981 35.9739 12.6307C35.5698 12.4633 35.1366 12.3774 34.6992 12.3779ZM36.1366 14.2708C35.804 13.9382 35.3664 13.7312 34.8984 13.6851C34.4303 13.639 33.9607 13.7566 33.5696 14.0179C33.1785 14.2792 32.8901 14.668 32.7536 15.1181C32.617 15.5681 32.6408 16.0517 32.8207 16.4862C33.0007 16.9208 33.3258 17.2794 33.7406 17.5012C34.1554 17.7229 34.6343 17.7939 35.0956 17.7022C35.5569 17.6104 35.9721 17.3615 36.2705 16.998C36.5689 16.6344 36.732 16.1786 36.732 15.7082C36.7323 15.4412 36.6799 15.1768 36.5777 14.9301C36.4756 14.6834 36.3256 14.4594 36.1366 14.2708ZM29.262 20.6211C29.5165 20.367 29.8048 20.1493 30.1188 19.9742C30.6903 19.6542 31.3344 19.4861 31.9894 19.4859H37.409C38.0639 19.486 38.7079 19.6541 39.2794 19.9742C39.5934 20.1493 39.8817 20.3671 40.1362 20.6211C40.8395 19.6247 41.2555 18.4542 41.3387 17.2374C41.4219 16.0207 41.1692 14.8044 40.6081 13.7215C40.0469 12.6387 39.199 11.7308 38.157 11.0971C37.1149 10.4634 35.9188 10.1283 34.6991 10.1283C33.4795 10.1283 32.2834 10.4634 31.2413 11.0971C30.1992 11.7308 29.3513 12.6387 28.7902 13.7215C28.2291 14.8044 27.9764 16.0207 28.0596 17.2374C28.1428 18.4542 28.5587 19.6247 29.262 20.6211ZM39.2863 21.6041C39.102 21.4052 38.8875 21.2366 38.6508 21.1043C38.271 20.8929 37.8434 20.7824 37.4088 20.7834H31.9894C31.5548 20.7825 31.1272 20.893 30.7474 21.1043C30.5106 21.2365 30.2961 21.4052 30.1117 21.6041C31.3489 22.7813 32.9913 23.4378 34.6991 23.4378C36.4068 23.4378 38.049 22.7813 39.2863 21.6041ZM34.699 8.83021C32.8592 8.83021 31.0763 9.46814 29.6541 10.6353C28.2319 11.8025 27.2584 13.4266 26.8995 15.2311C26.5405 17.0355 26.8184 18.9086 27.6856 20.5312C28.5529 22.1538 29.9559 23.4254 31.6557 24.1295C33.3554 24.8336 35.2467 24.9266 37.0073 24.3925C38.7679 23.8585 40.2889 22.7305 41.311 21.2008C42.3332 19.671 42.7934 17.8342 42.6131 16.0033C42.4328 14.1723 41.6232 12.4605 40.3223 11.1595C39.5847 10.4199 38.7081 9.83342 37.7431 9.43367C36.7781 9.03392 35.7435 8.82884 34.699 8.83021ZM35.9839 2.92364H33.4143C33.2327 2.92463 33.0589 2.99719 32.9304 3.12557C32.802 3.25395 32.7294 3.4278 32.7284 3.60939L32.726 4.97825C32.726 5.12541 32.6757 5.26814 32.5835 5.38287C32.4914 5.49759 32.3628 5.57746 32.2191 5.60926C30.9362 5.89324 29.712 6.39682 28.6006 7.09776C28.4757 7.19389 28.3201 7.24128 28.1629 7.2311C28.0056 7.22091 27.8574 7.15384 27.746 7.04241L26.7779 6.07421C26.7149 6.00944 26.6394 5.95796 26.5562 5.92281C26.4729 5.88766 26.3834 5.86955 26.293 5.86955C26.2026 5.86955 26.1131 5.88766 26.0298 5.92281C25.9465 5.95796 25.8711 6.00944 25.808 6.07421L23.9906 7.89147C23.8632 8.02071 23.7917 8.19494 23.7917 8.37648C23.7917 8.55802 23.8632 8.73226 23.9906 8.86149L24.9571 9.83162C25.0611 9.93565 25.1264 10.072 25.1424 10.2182C25.1584 10.3644 25.1241 10.5117 25.0451 10.6357C24.3384 11.7439 23.8285 12.9659 23.5379 14.2478C23.5174 14.4039 23.4408 14.5472 23.3225 14.6511C23.2041 14.7549 23.052 14.8122 22.8946 14.8122H21.5257C21.3441 14.8132 21.1703 14.8858 21.0419 15.0142C20.9135 15.1426 20.8409 15.3164 20.8399 15.498V18.0675C20.8408 18.2491 20.9134 18.423 21.0418 18.5514C21.1702 18.6798 21.3441 18.7524 21.5257 18.7534L22.8946 18.7559C23.0417 18.756 23.1845 18.8062 23.2992 18.8984C23.4139 18.9906 23.4938 19.1191 23.5256 19.2628C23.8097 20.5457 24.3133 21.7699 25.0142 22.8813C25.1103 23.0061 25.1577 23.1617 25.1476 23.319C25.1374 23.4762 25.0704 23.6244 24.9589 23.7358L23.9908 24.7041C23.9261 24.7672 23.8746 24.8426 23.8394 24.9259C23.8043 25.0092 23.7862 25.0987 23.7862 25.1891C23.7862 25.2795 23.8043 25.369 23.8394 25.4523C23.8746 25.5356 23.9261 25.611 23.9908 25.674L25.8079 27.4912C25.9371 27.6189 26.1114 27.6905 26.293 27.6905C26.4746 27.6905 26.6489 27.6189 26.778 27.4912L27.748 26.5248C27.8521 26.4209 27.9884 26.3555 28.1346 26.3395C28.2808 26.3235 28.4281 26.3578 28.5521 26.4368C29.6603 27.1436 30.8823 27.6535 32.1642 27.944C32.3203 27.9645 32.4637 28.0411 32.5675 28.1594C32.6713 28.2778 32.7286 28.4299 32.7286 28.5874V29.956C32.7296 30.1376 32.8021 30.3116 32.9306 30.44C33.059 30.5684 33.2329 30.641 33.4145 30.642H35.9841C36.1657 30.641 36.3396 30.5684 36.468 30.44C36.5964 30.3116 36.669 30.1376 36.67 29.956L36.6724 28.5874C36.6725 28.4402 36.7227 28.2974 36.8149 28.1827C36.9071 28.0679 37.0357 27.9881 37.1794 27.9564C38.4623 27.6723 39.6864 27.1687 40.7978 26.4678C40.9227 26.3716 41.0783 26.3242 41.2356 26.3344C41.3929 26.3445 41.5411 26.4116 41.6526 26.523L42.6207 27.4912C42.7498 27.6189 42.9241 27.6905 43.1057 27.6905C43.2873 27.6905 43.4616 27.6189 43.5908 27.4912L45.4079 25.674C45.5356 25.5449 45.6071 25.3707 45.6071 25.1891C45.6071 25.0075 45.5356 24.8333 45.4079 24.7041L44.4415 23.7341C44.3375 23.6301 44.2721 23.4937 44.2561 23.3475C44.2402 23.2013 44.2745 23.0541 44.3535 22.93C45.0602 21.8218 45.57 20.5997 45.8606 19.3179C45.8811 19.1617 45.9577 19.0184 46.0761 18.9145C46.1944 18.8107 46.3465 18.7534 46.504 18.7534H47.8728C48.0544 18.7524 48.2283 18.6798 48.3567 18.5514C48.4851 18.423 48.5577 18.2491 48.5586 18.0675V15.498C48.5576 15.3164 48.485 15.1426 48.3566 15.0142C48.2282 14.8858 48.0543 14.8132 47.8728 14.8122L46.504 14.8098C46.3568 14.8098 46.2141 14.7595 46.0993 14.6673C45.9846 14.5751 45.9047 14.4465 45.873 14.3028C45.5887 13.02 45.085 11.7958 44.3841 10.6844C44.288 10.5596 44.2406 10.404 44.2507 10.2468C44.2609 10.0895 44.3279 9.94134 44.4393 9.82989L45.4075 8.86159C45.535 8.73236 45.6065 8.55812 45.6065 8.37658C45.6065 8.19505 45.535 8.02081 45.4075 7.89157L43.5905 6.07421C43.4614 5.94659 43.2871 5.87501 43.1056 5.87501C42.924 5.87501 42.7498 5.94659 42.6207 6.07421L41.6501 7.04058C41.5461 7.14459 41.4098 7.21 41.2636 7.22599C41.1174 7.24199 40.9701 7.2076 40.8461 7.12853C39.7378 6.42202 38.5159 5.91219 37.2342 5.62155C37.0781 5.60104 36.9348 5.52448 36.8309 5.40612C36.7271 5.28777 36.6698 5.1357 36.6698 4.97825V3.60939C36.6688 3.4278 36.5962 3.25395 36.4677 3.12557C36.3393 2.99719 36.1654 2.92463 35.9839 2.92364Z" fill="black"/>
</svg>
