<svg width="52" height="52" viewBox="0 0 52 52" fill="none" xmlns="http://www.w3.org/2000/svg">
<path fill-rule="evenodd" clip-rule="evenodd" d="M25.1843 7.65401L23.1441 6.47605C22.8917 6.33035 22.7362 6.06107 22.7362 5.76967V2.94291C22.7362 2.6515 22.8917 2.38223 23.1441 2.23652L25.5922 0.823144C25.8445 0.677442 26.1555 0.677442 26.4079 0.823144L28.8559 2.23652C29.1083 2.38223 29.2638 2.6515 29.2638 2.94291V5.76967C29.2638 6.06107 29.1083 6.33035 28.8559 6.47605L26.8157 7.65401V10.8586C26.8157 11.3088 26.4502 11.6743 26 11.6743C25.5499 11.6743 25.1843 11.3088 25.1843 10.8586V7.65401ZM26 2.47144L24.3676 3.41387V5.29871L26 6.24114L27.6324 5.29871V3.41387L26 2.47144ZM42.2961 17.5335L39.5207 19.1358C39.1309 19.3608 38.6316 19.2271 38.4065 18.8373C38.1814 18.4474 38.3152 17.9481 38.705 17.7229L41.4804 16.1206V13.7648C41.4804 13.4734 41.6358 13.2041 41.8883 13.0584L44.3362 11.6451C44.5887 11.4994 44.8996 11.4994 45.1519 11.6451L47.6 13.0584C47.8524 13.2041 48.0078 13.4734 48.0078 13.7648V16.5916C48.0078 16.883 47.8524 17.1523 47.6 17.298L45.1519 18.7113C44.8996 18.8571 44.5887 18.8571 44.3362 18.7113L42.2961 17.5335ZM46.3765 14.2358L44.7441 13.2934L43.1118 14.2358V16.1206L44.7441 17.0631L46.3765 16.1206V14.2358ZM41.4804 35.8796L38.705 34.2773C38.3152 34.0522 38.1814 33.5529 38.4065 33.163C38.6316 32.7732 39.1309 32.6394 39.5207 32.8644L42.2961 34.4667L44.3362 33.2889C44.5887 33.1432 44.8996 33.1432 45.1519 33.2889L47.6 34.7023C47.8524 34.848 48.0078 35.1172 48.0078 35.4086V38.2354C48.0078 38.5268 47.8524 38.7961 47.6 38.9418L45.1519 40.3552C44.8996 40.5009 44.5887 40.5009 44.3362 40.3552L41.8883 38.9418C41.6358 38.7961 41.4804 38.5268 41.4804 38.2354V35.8796ZM46.3765 37.7645V35.8796L44.7441 34.9372L43.1118 35.8796V37.7645L44.7441 38.7069L46.3765 37.7645ZM26.8157 44.3462L28.8559 45.5242C29.1083 45.6699 29.2638 45.9392 29.2638 46.2306V49.0573C29.2638 49.3487 29.1083 49.618 28.8559 49.7637L26.4079 51.1771C26.1555 51.3228 25.8445 51.3228 25.5922 51.1771L23.1441 49.7637C22.8917 49.618 22.7362 49.3487 22.7362 49.0573V46.2306C22.7362 45.9392 22.8917 45.6699 23.1441 45.5242L25.1843 44.3462V41.1416C25.1843 40.6914 25.5499 40.3259 26 40.3259C26.4502 40.3259 26.8157 40.6914 26.8157 41.1416V44.3462ZM26 49.5288L27.6324 48.5864V46.7015L26 45.7591L24.3676 46.7015V48.5864L26 49.5288ZM10.5196 35.8796V38.2354C10.5196 38.5268 10.3642 38.7961 10.1118 38.9418L7.6638 40.3552C7.41134 40.5009 7.10046 40.5009 6.84811 40.3552L4.40003 38.9418C4.14768 38.7961 3.99219 38.5268 3.99219 38.2354V35.4086C3.99219 35.1172 4.14768 34.848 4.40003 34.7023L6.84811 33.2889C7.10046 33.1432 7.41134 33.1432 7.6638 33.2889L9.70393 34.4667L12.4793 32.8644C12.8691 32.6394 13.3684 32.7732 13.5935 33.163C13.8187 33.5529 13.6848 34.0522 13.295 34.2773L10.5196 35.8796ZM5.62356 37.7645L7.25595 38.7069L8.88824 37.7645V35.8796L7.25595 34.9372L5.62356 35.8796V37.7645ZM9.70393 17.5335L7.6638 18.7113C7.41134 18.8571 7.10046 18.8571 6.84811 18.7113L4.40003 17.298C4.14768 17.1523 3.99219 16.883 3.99219 16.5916V13.7648C3.99219 13.4734 4.14768 13.2041 4.40003 13.0584L6.84811 11.6451C7.10046 11.4994 7.41134 11.4994 7.6638 11.6451L10.1118 13.0584C10.3642 13.2041 10.5196 13.4734 10.5196 13.7648V16.1206L13.295 17.7229C13.6848 17.9481 13.8187 18.4474 13.5935 18.8373C13.3684 19.2271 12.8691 19.3608 12.4793 19.1358L9.70393 17.5335ZM5.62356 14.2358V16.1206L7.25595 17.0631L8.88824 16.1206V14.2358L7.25595 13.2934L5.62356 14.2358ZM28.8948 15.753C29.6983 15.9792 30.4715 16.2996 31.2005 16.7084L32.6794 16.0508C32.9878 15.9136 33.3488 15.9807 33.5875 16.2194L35.7807 18.4126C36.0192 18.651 36.0863 19.0114 35.9498 19.3197C35.9498 19.3197 35.2946 20.799 35.2945 20.799C35.7037 21.5286 36.0244 22.3027 36.2507 23.1088L37.7588 23.6893C38.0738 23.8104 38.2816 24.113 38.2816 24.4505V27.5529C38.2816 27.8903 38.0738 28.1929 37.7588 28.3141L36.2502 28.8947C36.0235 29.6982 35.7017 30.4714 35.2941 31.2003L35.9498 32.6805C36.0863 32.9888 36.0192 33.3492 35.7807 33.5876L33.5875 35.7808C33.3491 36.0193 32.9887 36.0864 32.6804 35.9499L31.2016 35.2949C30.4737 35.7037 29.6987 36.0243 28.8946 36.2505L28.314 37.7589C28.1928 38.0739 27.8902 38.2817 27.5528 38.2817H24.4504C24.1129 38.2817 23.8103 38.0739 23.6892 37.7589C23.6892 37.7589 23.1086 36.2507 23.1087 36.2507C22.3029 36.0239 21.529 35.7019 20.7998 35.2943L19.3196 35.9499C19.0113 36.0864 18.6509 36.0193 18.4125 35.7808L16.2193 33.5876C15.9806 33.3489 15.9135 32.9879 16.0507 32.6795L16.708 31.2011C16.2994 30.4735 15.9788 29.6989 15.7507 28.8951L14.2412 28.3141C13.9262 28.1929 13.7184 27.8903 13.7184 27.5529V24.4505C13.7184 24.113 13.9262 23.8104 14.2412 23.6893C14.2412 23.6893 15.7505 23.1084 15.7504 23.1084C15.9786 22.3026 16.2993 21.5288 16.7083 20.7996L16.0507 19.3208C15.9135 19.0123 15.9806 18.6513 16.2193 18.4126L18.4125 16.2194C18.6512 15.9807 19.0122 15.9136 19.3207 16.0508L20.7995 16.7084C21.5287 16.2994 22.3022 15.979 23.1059 15.7528L23.6894 14.2406C23.8108 13.926 24.1132 13.7185 24.4504 13.7185H27.5528C27.8904 13.7185 28.1931 13.9265 28.3141 14.2417L28.8948 15.753ZM27.5224 16.7294L26.9923 15.3499H25.01L24.4772 16.7306C24.3805 16.9813 24.1664 17.1683 23.9048 17.2305C22.9771 17.4509 22.0924 17.8175 21.2792 18.3185C21.05 18.4597 20.7659 18.4788 20.5199 18.3694L19.1699 17.7691L17.769 19.17L18.3693 20.52C18.4787 20.766 18.4596 21.0501 18.3184 21.2793C17.8169 22.0931 17.4503 22.9785 17.2268 23.9098C17.1642 24.1708 16.9771 24.3842 16.7266 24.4807L15.3498 25.0106V26.9928L16.7266 27.5227C16.9769 27.6191 17.1639 27.8323 17.2267 28.093C17.4501 29.0211 17.8164 29.9092 18.3178 30.7199C18.4596 30.9492 18.4789 31.2339 18.3693 31.4802L17.769 32.8303L19.1705 34.2317L20.5209 33.6335C20.7661 33.5249 21.0488 33.5437 21.2774 33.6838C22.091 34.1823 22.9763 34.5522 23.9074 34.7727C24.1694 34.8348 24.3838 35.0222 24.4806 35.2736L25.0105 36.6503H26.9927L27.5226 35.2736C27.6193 35.0224 27.8335 34.8351 28.0952 34.7729C29.0225 34.5525 29.9098 34.1863 30.7198 33.6855C30.9488 33.5439 31.2328 33.5244 31.4791 33.6335L32.8296 34.2317L34.2316 32.8297L33.6334 31.4792C33.5248 31.2341 33.5436 30.9513 33.6837 30.7227C34.1823 29.909 34.5522 29.0237 34.7728 28.0953C34.835 27.8336 35.0223 27.6194 35.2734 27.5227L36.6502 26.9928V25.0106L35.2734 24.4807C35.0221 24.3839 34.8347 24.1695 34.7726 23.9075C34.5522 22.977 34.1857 22.0924 33.6847 21.2793C33.5437 21.0504 33.5245 20.7668 33.6334 20.5211L34.2316 19.1706L32.8302 17.7691L31.4801 18.3694C31.2342 18.4788 30.95 18.4597 30.7208 18.3185C29.9077 17.8175 29.0229 17.4509 28.0952 17.2305C27.8333 17.1682 27.6189 16.9808 27.5224 16.7294ZM26 19.7733C29.4405 19.7733 32.23 22.5597 32.23 26.0001C32.23 29.4405 29.4404 32.2301 26 32.2301C22.5596 32.2301 19.7732 29.4406 19.7732 26.0001C19.7732 22.5596 22.5595 19.7733 26 19.7733ZM26 21.4046C23.4608 21.4046 21.4045 23.4609 21.4045 26.0001C21.4045 28.5394 23.4607 30.5988 26 30.5988C28.5394 30.5988 30.5986 28.5396 30.5986 26.0001C30.5986 23.4608 28.5393 21.4046 26 21.4046Z" fill="black"/>
</svg>
