<svg width="52" height="52" viewBox="0 0 52 52" fill="none" xmlns="http://www.w3.org/2000/svg">
<g clip-path="url(#clip0_889_2461)">
<path fill-rule="evenodd" clip-rule="evenodd" d="M4.54906 43.6454V41.0969C4.54906 40.6467 4.91449 40.2812 5.36475 40.2812C5.81491 40.2812 6.18044 40.6467 6.18044 41.0969V42.8297H45.8179V41.0969C45.8179 40.6467 46.1834 40.2812 46.6336 40.2812C47.0838 40.2812 47.4493 40.6467 47.4493 41.0969V43.6454C47.4493 44.0955 47.0838 44.4611 46.6336 44.4611H26.8149V48.7612L26.8706 48.716C27.2206 48.4327 27.7345 48.487 28.0178 48.8369C28.301 49.1868 28.2469 49.7008 27.897 49.9841L26.5123 51.1047C26.2131 51.347 25.7853 51.347 25.486 51.1047L24.1014 49.9841C23.7514 49.7008 23.6973 49.1868 23.9805 48.8369C24.2638 48.487 24.7778 48.4327 25.1277 48.716L25.1835 48.7612V44.4611H5.36475C4.91449 44.4611 4.54906 44.0955 4.54906 43.6454ZM25.1835 23.4485H6.18044V26.3122L6.23611 26.2672C6.58604 25.9839 7.10012 26.0381 7.38337 26.388C7.66662 26.7379 7.61237 27.2519 7.26244 27.5352L5.87792 28.6559C5.57866 28.8981 5.15073 28.8981 4.85148 28.6559L3.46695 27.5352C3.11702 27.2519 3.06278 26.7379 3.34603 26.388C3.62928 26.0381 4.14336 25.9839 4.49329 26.2672L4.54906 26.3122V22.6328C4.54906 22.1826 4.91449 21.8171 5.36475 21.8171H25.1835V20.727C25.1835 20.2768 25.549 19.9114 25.9992 19.9114C26.4493 19.9114 26.8149 20.2768 26.8149 20.727V21.8171H46.6336C47.0838 21.8171 47.4493 22.1826 47.4493 22.6328V26.3122L47.505 26.2672C47.855 25.9839 48.3691 26.0381 48.6523 26.388C48.9356 26.7379 48.8813 27.2519 48.5314 27.5352L47.1469 28.6559C46.8476 28.8981 46.4197 28.8981 46.1204 28.6559L44.7359 27.5352C44.386 27.2519 44.3317 26.7379 44.615 26.388C44.8982 26.0381 45.4123 25.9839 45.7622 26.2672L45.8179 26.3122V23.4485H26.8149V26.3122L26.8706 26.2672C27.2206 25.9839 27.7345 26.0381 28.0178 26.388C28.301 26.7379 28.2469 27.2519 27.897 27.5352L26.5123 28.6559C26.2131 28.8981 25.7853 28.8981 25.486 28.6559L24.1014 27.5352C23.7514 27.2519 23.6973 26.7379 23.9805 26.388C24.2638 26.0381 24.7778 25.9839 25.1277 26.2672L25.1835 26.3122V23.4485ZM14.3592 8.72686C14.4075 4.29351 18.0154 0.713867 22.4603 0.713867C24.4702 0.713867 26.3106 1.44625 27.727 2.65948C28.3688 2.47758 29.0459 2.38011 29.7461 2.38011C33.3756 2.38011 36.3919 4.99418 37.0195 8.44209C39.0722 9.23167 40.472 11.2232 40.472 13.4593C40.472 16.4143 38.0534 18.8332 35.0964 18.8332H16.9019C13.945 18.8332 11.5263 16.4143 11.5263 13.4593C11.5263 11.4207 12.6764 9.63768 14.3592 8.72686ZM35.0964 17.2018C37.1559 17.2018 38.8406 15.5174 38.8406 13.4593C38.8406 11.7729 37.6968 10.2873 36.0716 9.84619C35.7474 9.7582 35.5104 9.48056 35.4743 9.14664C35.162 6.2588 32.7174 4.01148 29.7461 4.01148C29.0636 4.01148 28.4093 4.12996 27.8017 4.34755C27.5092 4.45236 27.1825 4.3818 26.9593 4.16575C25.7948 3.03847 24.2077 2.34524 22.4603 2.34524C18.8864 2.34524 15.9901 5.24317 15.9901 8.817C15.9901 8.94149 15.9928 9.06598 16 9.18905C16.0202 9.53674 15.8175 9.85883 15.4953 9.99108C14.1291 10.5516 13.1577 11.8969 13.1577 13.4593C13.1577 15.5174 14.8424 17.2018 16.9019 17.2018H35.0964ZM10.0165 30.5815V38.2538C10.0165 38.7043 9.65128 39.0695 9.20082 39.0695H1.52858C1.07811 39.0695 0.712891 38.7043 0.712891 38.2538V30.5815C0.712891 30.1311 1.07811 29.7659 1.52858 29.7659H9.20082C9.65128 29.7659 10.0165 30.1311 10.0165 30.5815ZM8.38513 31.3972H2.34426V37.4381H8.38513V31.3972ZM30.651 30.5815V38.2538C30.651 38.7043 30.2858 39.0695 29.8353 39.0695H22.163C21.7125 39.0695 21.3473 38.7043 21.3473 38.2538V30.5815C21.3473 30.1311 21.7125 29.7659 22.163 29.7659H29.8353C30.2858 29.7659 30.651 30.1311 30.651 30.5815ZM29.0197 31.3972H22.9787V37.4381H29.0197V31.3972ZM51.2854 30.5815V38.2538C51.2854 38.7043 50.9202 39.0695 50.4698 39.0695H42.7975C42.347 39.0695 41.9818 38.7043 41.9818 38.2538V30.5815C41.9818 30.1311 42.347 29.7659 42.7975 29.7659H50.4698C50.9202 29.7659 51.2854 30.1311 51.2854 30.5815ZM49.6541 31.3972H43.6132V37.4381H49.6541V31.3972Z" fill="black"/>
</g>
<defs>
<clipPath id="clip0_889_2461">
<rect width="52" height="52" fill="white"/>
</clipPath>
</defs>
</svg>
