<svg width="52" height="52" viewBox="0 0 52 52" fill="none" xmlns="http://www.w3.org/2000/svg">
<mask id="mask0_889_2488" style="mask-type:luminance" maskUnits="userSpaceOnUse" x="0" y="0" width="51" height="50">
<path d="M0.845703 0.0478516H50.7657V49.9678H0.845703V0.0478516Z" fill="white"/>
</mask>
<g mask="url(#mask0_889_2488)">
<path d="M48.4185 0.392029C48.2209 0.173628 47.9401 0.0488281 47.6468 0.0488281H3.96675C3.67139 0.0488281 3.39267 0.173628 3.19507 0.392029C2.99747 0.608347 2.90179 0.899549 2.93091 1.19283L7.09091 42.7928C7.13043 43.1984 7.40707 43.5457 7.79603 43.6747L26.5161 49.9147C26.6221 49.9521 26.7345 49.9688 26.8447 49.9688C26.9695 49.9688 27.0922 49.9459 27.2129 49.9022L43.8529 43.6622C44.2231 43.5249 44.4831 43.1859 44.5226 42.7928L48.6826 1.19283C48.7117 0.901629 48.6161 0.608347 48.4185 0.392029ZM42.5133 41.942L26.8239 47.8264L9.09187 41.915L5.11283 2.12883H46.4945L42.5133 41.942Z" fill="black"/>
<path d="M28.9248 25.0086H35.9988L34.2516 34.6162L28.5961 36.5027C28.0512 36.6837 27.7579 37.2723 27.9388 37.8173C28.0844 38.2541 28.49 38.5286 28.9248 38.5286C29.0329 38.5286 29.1432 38.512 29.2555 38.4766L35.4955 36.3966C35.8553 36.276 36.1216 35.9702 36.1881 35.5958L38.2681 24.1558C38.3243 23.8522 38.2411 23.5402 38.0435 23.303C37.8459 23.0659 37.5526 22.9286 37.2448 22.9286H29.9648V12.5287H37.9915L37.276 15.3971C37.1366 15.9545 37.4756 16.5182 38.0331 16.6575C38.5843 16.7948 39.1542 16.4579 39.2936 15.9004L40.3336 11.7404C40.4105 11.4284 40.3419 11.0998 40.1443 10.8481C39.9467 10.5964 39.6451 10.4487 39.3248 10.4487H28.9248C28.3507 10.4487 27.8848 10.9147 27.8848 11.4887V23.9686C27.8848 24.5427 28.3507 25.0086 28.9248 25.0086Z" fill="black"/>
<path d="M12.2861 12.5287H23.726V36.1096L18.3826 34.5829L17.4674 30.0048C17.3551 29.4432 16.8163 29.075 16.2443 29.1894C15.6827 29.3018 15.3167 29.8488 15.429 30.4125L16.469 35.6125C16.5459 35.9952 16.8288 36.301 17.2032 36.4091L24.4832 38.4891C24.5768 38.5162 24.6724 38.5286 24.7681 38.5286C24.9907 38.5286 25.2112 38.4558 25.3921 38.3186C25.6521 38.123 25.806 37.8152 25.806 37.4886V11.4887C25.806 10.9147 25.3401 10.4487 24.766 10.4487H12.2861C11.712 10.4487 11.2461 10.9147 11.2461 11.4887C11.2461 12.0628 11.712 12.5287 12.2861 12.5287Z" fill="black"/>
</g>
</svg>
