<svg width="52" height="52" viewBox="0 0 52 52" fill="none" xmlns="http://www.w3.org/2000/svg">
<path d="M42.6562 6.5H9.34375C8.58954 6.5 7.86622 6.79961 7.33292 7.33292C6.79961 7.86622 6.5 8.58954 6.5 9.34375V18.2812C6.5 19.0355 6.79961 19.7588 7.33292 20.2921C7.86622 20.8254 8.58954 21.125 9.34375 21.125H20.3125C20.528 21.125 20.7347 21.0394 20.887 20.887C21.0394 20.7347 21.125 20.528 21.125 20.3125C21.125 20.097 21.0394 19.8903 20.887 19.738C20.7347 19.5856 20.528 19.5 20.3125 19.5H9.34375C9.02052 19.5 8.71052 19.3716 8.48196 19.143C8.2534 18.9145 8.125 18.6045 8.125 18.2812V9.34375C8.125 9.02052 8.2534 8.71052 8.48196 8.48196C8.71052 8.2534 9.02052 8.125 9.34375 8.125H42.6562C42.9795 8.125 43.2895 8.2534 43.518 8.48196C43.7466 8.71052 43.875 9.02052 43.875 9.34375V18.2812C43.875 18.6045 43.7466 18.9145 43.518 19.143C43.2895 19.3716 42.9795 19.5 42.6562 19.5H33.4375C33.222 19.5 33.0153 19.5856 32.863 19.738C32.7106 19.8903 32.625 20.097 32.625 20.3125C32.625 20.528 32.7106 20.7347 32.863 20.887C33.0153 21.0394 33.222 21.125 33.4375 21.125H37.3384C37.1875 21.344 37.0176 21.5493 36.8306 21.7384L31.7241 26.8491C31.639 26.9219 31.5699 27.0115 31.5212 27.1123C31.4724 27.2131 31.445 27.3229 31.4407 27.4348C31.4363 27.5467 31.4552 27.6583 31.496 27.7626C31.5369 27.8668 31.5989 27.9615 31.678 28.0407C31.7572 28.1199 31.8519 28.1819 31.9562 28.2227C32.0604 28.2636 32.172 28.2824 32.2839 28.2781C32.3958 28.2738 32.5056 28.2464 32.6064 28.1976C32.7072 28.1488 32.7969 28.0797 32.8697 27.9947L37.9803 22.8881C38.4866 22.3762 38.8991 21.7795 39.1991 21.125H42.6562C43.4105 21.125 44.1338 20.8254 44.6671 20.2921C45.2004 19.7588 45.5 19.0355 45.5 18.2812V9.34375C45.5 8.58954 45.2004 7.86622 44.6671 7.33292C44.1338 6.79961 43.4105 6.5 42.6562 6.5Z" fill="black"/>
<path d="M42.6562 30.8748H31.6875C31.472 30.8748 31.2653 30.9604 31.113 31.1128C30.9606 31.2651 30.875 31.4718 30.875 31.6873C30.875 31.9028 30.9606 32.1094 31.113 32.2618C31.2653 32.4142 31.472 32.4998 31.6875 32.4998H42.6562C42.9795 32.4998 43.2895 32.6282 43.518 32.8568C43.7466 33.0853 43.875 33.3953 43.875 33.7185V42.656C43.875 42.9793 43.7466 43.2893 43.518 43.5178C43.2895 43.7464 42.9795 43.8748 42.6562 43.8748H9.34375C9.02052 43.8748 8.71052 43.7464 8.48196 43.5178C8.2534 43.2893 8.125 42.9793 8.125 42.656V33.7185C8.125 33.3953 8.2534 33.0853 8.48196 32.8568C8.71052 32.6282 9.02052 32.4998 9.34375 32.4998H20.5625C20.778 32.4998 20.9847 32.4142 21.137 32.2618C21.2894 32.1094 21.375 31.9028 21.375 31.6873C21.375 31.4718 21.2894 31.2651 21.137 31.1128C20.9847 30.9604 20.778 30.8748 20.5625 30.8748H14.6575C14.8111 30.6566 14.9823 30.4515 15.1694 30.2613L20.3369 25.0938C20.4893 24.9414 20.575 24.7346 20.575 24.519C20.575 24.3034 20.4893 24.0966 20.3369 23.9442C20.1844 23.7917 19.9776 23.7061 19.762 23.7061C19.5464 23.7061 19.3396 23.7917 19.1872 23.9442L14.0197 29.1117C13.5134 29.6236 13.1009 30.2203 12.8009 30.8748H9.34375C8.58954 30.8748 7.86622 31.1744 7.33292 31.7077C6.79961 32.241 6.5 32.9643 6.5 33.7185V42.656C6.5 43.4102 6.79961 44.1336 7.33292 44.6669C7.86622 45.2002 8.58954 45.4998 9.34375 45.4998H42.6562C43.4105 45.4998 44.1338 45.2002 44.6671 44.6669C45.2004 44.1336 45.5 43.4102 45.5 42.656V33.7185C45.5 32.9643 45.2004 32.241 44.6671 31.7077C44.1338 31.1744 43.4105 30.8748 42.6562 30.8748Z" fill="black"/>
<path d="M21.8001 36.7694C21.3486 37.2224 20.8115 37.581 20.2201 37.8244C19.6287 38.0678 18.9947 38.1912 18.3551 38.1872C17.7588 38.1782 17.1705 38.0483 16.6258 37.8053C16.0811 37.5623 15.5915 37.2113 15.1864 36.7735C14.6347 36.1717 14.219 35.4581 13.9676 34.6813C13.9443 34.5745 13.8997 34.4735 13.8365 34.3844C13.7732 34.2952 13.6927 34.2198 13.5996 34.1625C13.5065 34.1052 13.4028 34.0673 13.2947 34.0511C13.1866 34.0348 13.0764 34.0405 12.9706 34.0679C12.8647 34.0952 12.7655 34.1436 12.6788 34.2102C12.5922 34.2768 12.5198 34.3602 12.4661 34.4554C12.4124 34.5506 12.3785 34.6556 12.3664 34.7643C12.3542 34.8729 12.3641 34.9828 12.3955 35.0876C12.7164 36.1258 13.263 37.0803 13.9961 37.8826C14.5505 38.4807 15.2205 38.9601 15.9656 39.2918C16.7107 39.6234 17.5153 39.8005 18.3308 39.8122H18.4201C20.1223 39.7996 21.7504 39.1147 22.9498 37.9069L28.2311 32.6257C29.387 31.4522 30.0349 29.8711 30.0349 28.224C30.0349 26.5768 29.387 24.9957 28.2311 23.8222C27.6375 23.2443 26.9508 22.7705 26.1998 22.4207C26.001 22.3366 25.777 22.335 25.577 22.4161C25.377 22.4973 25.2175 22.6545 25.1334 22.8533C25.0494 23.0521 25.0478 23.2761 25.1289 23.4761C25.21 23.6761 25.3673 23.8357 25.5661 23.9197C26.1281 24.1812 26.6429 24.534 27.0895 24.9638C27.9287 25.8377 28.3973 27.0023 28.3973 28.2138C28.3973 29.4253 27.9287 30.5899 27.0895 31.4638L21.8001 36.7694Z" fill="black"/>
<path d="M36.7697 15.1694L36.8306 15.2303C37.3662 15.7671 37.7623 16.4268 37.9844 17.1519C38.0131 17.2563 38.0624 17.3539 38.1294 17.439C38.1964 17.524 38.2797 17.5949 38.3745 17.6473C38.4692 17.6997 38.5735 17.7327 38.6812 17.7442C38.7888 17.7557 38.8977 17.7456 39.0014 17.7145C39.1051 17.6834 39.2016 17.6318 39.2851 17.5629C39.3686 17.4939 39.4374 17.409 39.4877 17.313C39.5379 17.2171 39.5684 17.1121 39.5774 17.0042C39.5865 16.8963 39.5739 16.7877 39.5403 16.6847C39.2421 15.7017 38.7063 14.8073 37.9803 14.0806L37.9194 14.0197C36.7509 12.8527 35.167 12.1973 33.5156 12.1973C31.8642 12.1973 30.2803 12.8527 29.1119 14.0197L23.7697 19.3619C22.6027 20.5303 21.9473 22.1142 21.9473 23.7656C21.9473 25.417 22.6027 27.0009 23.7697 28.1694L23.8306 28.2303C24.3545 28.7549 24.9682 29.1815 25.6425 29.4897C25.7479 29.5393 25.8632 29.5643 25.9797 29.5628C26.1579 29.5542 26.3283 29.4872 26.4646 29.3721C26.6009 29.257 26.6955 29.1002 26.7339 28.926C26.7723 28.7517 26.7522 28.5697 26.6768 28.408C26.6015 28.2463 26.475 28.1139 26.3169 28.0313C25.8194 27.8017 25.3668 27.4853 24.9803 27.0969L24.9194 27.0359C24.059 26.1731 23.5759 25.0044 23.5759 23.7859C23.5759 22.5675 24.059 21.3988 24.9194 20.5359L30.2616 15.1694C31.1247 14.3066 32.2952 13.8219 33.5156 13.8219C34.7361 13.8219 35.9065 14.3066 36.7697 15.1694Z" fill="black"/>
</svg>
