<svg width="52" height="52" viewBox="0 0 52 52" fill="none" xmlns="http://www.w3.org/2000/svg">
<g clip-path="url(#clip0_889_2464)">
<path d="M47.342 19.6934C47.5848 18.8254 47.7075 17.9294 47.7075 17.0193C47.7075 11.5526 43.2592 7.10511 37.7916 7.10511C37.3985 7.10511 37.0087 7.12766 36.6255 7.17245C35.841 5.22082 34.5426 3.5358 32.8336 2.26271C30.8464 0.782437 28.4828 0 25.9985 0C23.5143 0 21.1508 0.782437 19.1635 2.26271C17.4545 3.5358 16.1562 5.22062 15.3717 7.17214C14.9893 7.12766 14.5994 7.10511 14.2054 7.10511C8.73955 7.10511 4.29254 11.5526 4.29254 17.0193C4.29254 17.9294 4.41523 18.8254 4.65796 19.6934C2.26525 21.1875 0.8125 23.7803 0.8125 26.652C0.8125 31.1806 4.49627 34.8649 9.02423 34.8649H10.5792V38.1676C10.5792 39.3531 11.5435 40.3176 12.7288 40.3176H13.1301C13.403 41.2597 13.7793 42.1674 14.2547 43.0299L13.9732 43.3115C13.5664 43.7156 13.342 44.2551 13.3409 44.8305C13.34 45.4073 13.5637 45.9492 13.9703 46.3559L16.2213 48.61C17.0615 49.445 18.4254 49.4438 19.2603 48.6088L19.5472 48.3229C20.4089 48.7975 21.3156 49.1732 22.257 49.4458V49.8473C22.257 51.0343 23.2227 52 24.4095 52H27.5903C28.7772 52 29.7428 51.0342 29.7428 49.8473V49.4455C30.6822 49.1729 31.5885 48.7974 32.4509 48.3231L32.7354 48.6078C33.5743 49.4467 34.9391 49.4466 35.778 48.6077L38.0314 46.354C38.866 45.5138 38.865 44.15 38.0291 43.3139L37.7444 43.0291C38.2185 42.1667 38.5947 41.2593 38.8686 40.3176H39.2682C40.4552 40.3176 41.4207 39.3531 41.4207 38.1676V34.8649H42.9757C47.5036 34.8649 51.1874 31.1806 51.1874 26.652C51.1875 23.7803 49.7347 21.1875 47.342 19.6934ZM39.3896 38.1676C39.3896 38.2309 39.3328 38.2863 39.2683 38.2863H38.0824C37.6077 38.2863 37.1963 38.6151 37.0917 39.0782C36.8058 40.3438 36.3077 41.5454 35.6114 42.6494C35.3583 43.0507 35.4167 43.5739 35.7522 43.9093L36.5927 44.75C36.6371 44.7944 36.636 44.8766 36.5928 44.9202L34.3418 47.1714C34.3146 47.1986 34.2806 47.2043 34.2569 47.2043C34.2332 47.2043 34.1991 47.1985 34.172 47.1715L33.3316 46.3309C32.9959 45.9953 32.4727 45.9368 32.0714 46.19C30.9661 46.8873 29.7662 47.3844 28.5051 47.6672C28.0414 47.7712 27.7117 48.183 27.7117 48.6583V49.8473C27.7117 49.9109 27.6539 49.9688 27.5905 49.9688H24.4097C24.345 49.9688 24.2885 49.912 24.2885 49.8473V48.6583C24.2885 48.1828 23.9587 47.771 23.4948 47.6671C22.2312 47.3843 21.0318 46.8874 19.9298 46.1906C19.5288 45.937 19.0058 45.9947 18.6699 46.3297L17.8254 47.1714C17.7802 47.2164 17.6997 47.2154 17.656 47.1719L15.4075 44.9202C15.3785 44.8911 15.3724 44.8572 15.3724 44.8338C15.3725 44.8013 15.3835 44.7737 15.4074 44.75L16.248 43.9093C16.5839 43.5734 16.642 43.0493 16.3879 42.6479C15.6896 41.5451 15.192 40.3446 14.909 39.08C14.8052 38.6161 14.3933 38.2863 13.9178 38.2863H12.7288C12.6646 38.2863 12.6104 38.232 12.6104 38.1676V34.8649H17.3415C17.2313 35.4252 17.1737 35.9968 17.1737 36.5756C17.1737 41.4423 21.1325 45.4016 25.9986 45.4016C30.8663 45.4016 34.8264 41.4423 34.8264 36.5756C34.8264 35.9982 34.7683 35.4267 34.657 34.8649H39.3897V38.1676H39.3896ZM42.9758 32.8336H30.558C29.9972 32.8336 29.5424 33.2884 29.5424 33.8493C29.5424 34.4101 29.9972 34.8649 30.558 34.8649H32.5744C32.7202 35.4229 32.7951 35.9956 32.7951 36.5756C32.7951 40.3222 29.7461 43.3703 25.9986 43.3703C22.2525 43.3703 19.205 40.3221 19.205 36.5756C19.205 35.993 19.2792 35.4203 19.4234 34.8649H21.4391C22 34.8649 22.4548 34.4101 22.4548 33.8493C22.4548 33.2884 22 32.8336 21.4391 32.8336H9.02423C5.6163 32.8336 2.84375 30.0606 2.84375 26.652C2.84375 24.2638 4.17869 22.1319 6.32765 21.0881C6.80012 20.8586 7.0197 20.3066 6.83384 19.8153C6.49543 18.9207 6.32389 17.9801 6.32389 17.0194C6.32389 12.6728 9.85948 9.13646 14.2055 9.13646C14.7656 9.13646 15.3117 9.19283 15.8288 9.30373C16.3408 9.41373 16.8527 9.11605 17.0105 8.61656C18.2544 4.67776 21.8665 2.03125 25.9985 2.03125C30.1306 2.03125 33.7426 4.67766 34.9866 8.61656C35.1442 9.11564 35.6552 9.41352 36.1672 9.30394C36.6877 9.19273 37.2342 9.13646 37.7915 9.13646C42.1391 9.13646 45.6761 12.6728 45.6761 17.0194C45.6761 17.9801 45.5046 18.9208 45.1662 19.8153C44.9803 20.3066 45.1999 20.8586 45.6724 21.0881C47.8213 22.1319 49.1562 24.2638 49.1562 26.652C49.1562 30.0606 46.3837 32.8336 42.9758 32.8336Z" fill="black"/>
<path d="M36.7266 14.4092C36.1657 14.4092 35.7109 14.864 35.7109 15.4248V25.4433C35.7109 26.0042 36.1657 26.459 36.7266 26.459C37.2874 26.459 37.7422 26.0042 37.7422 25.4433V15.4248C37.7422 14.864 37.2875 14.4092 36.7266 14.4092Z" fill="black"/>
<path d="M28.638 14.4092H25.7969C25.2451 14.4092 24.7812 14.8714 24.7812 15.4248V25.6276C24.7812 26.1884 25.236 26.6432 25.7969 26.6432C26.3577 26.6432 26.8125 26.1884 26.8125 25.6276V22.2061C27.4442 22.2023 28.2206 22.1982 28.638 22.1982C30.8169 22.1982 32.5896 20.4511 32.5896 18.3037C32.5896 16.1563 30.8169 14.4092 28.638 14.4092ZM28.638 20.1669C28.2224 20.1669 27.4572 20.1708 26.8275 20.1747C26.8245 19.5256 26.8212 18.729 26.8212 18.3036C26.8212 17.943 26.8187 17.1164 26.8163 16.4403H28.6381C29.679 16.4403 30.5584 17.2936 30.5584 18.3036C30.5584 19.3136 29.6789 20.1669 28.638 20.1669Z" fill="black"/>
<path d="M17.7975 15.2099C17.7949 15.2029 17.7922 15.1958 17.7893 15.1889C17.5982 14.7147 17.1448 14.4082 16.6343 14.4082C16.1239 14.4082 15.6705 14.7147 15.4794 15.1889C15.4769 15.195 15.4745 15.201 15.4723 15.2071L11.641 25.2659C11.4414 25.7901 11.7044 26.3768 12.2286 26.5765C12.7528 26.7762 13.3395 26.5131 13.5391 25.989L14.244 24.1384H18.9965L19.6939 25.986C19.8474 26.3927 20.2338 26.6433 20.6442 26.6433C20.7634 26.6433 20.8845 26.6222 21.0026 26.5776C21.5274 26.3796 21.7922 25.7936 21.5941 25.2688L17.7975 15.2099ZM15.0177 22.1071L16.631 17.8714L18.2298 22.1071H15.0177Z" fill="black"/>
<path d="M26 32.833C25.4392 32.833 24.9844 33.2878 24.9844 33.8486C24.9844 34.4095 25.4392 34.8643 26 34.8643H26.0059C26.5667 34.8643 27.0187 34.4095 27.0187 33.8486C27.0187 33.2878 26.5609 32.833 26 32.833Z" fill="black"/>
</g>
<defs>
<clipPath id="clip0_889_2464">
<rect width="52" height="52" fill="white"/>
</clipPath>
</defs>
</svg>
