<svg width="80" height="80" viewBox="0 0 80 80" fill="none" xmlns="http://www.w3.org/2000/svg">
<g clip-path="url(#clip0_15_70)">
<path d="M33.3333 78.3333C33.3333 79.2533 32.5867 80 31.6667 80H1.66667C0.746667 80 0 79.2533 0 78.3333C0 77.4133 0.746667 76.6667 1.66667 76.6667H31.6667C32.5867 76.6667 33.3333 77.4133 33.3333 78.3333ZM1.66667 66.6667H25C25.92 66.6667 26.6667 65.92 26.6667 65C26.6667 64.08 25.92 63.3333 25 63.3333H1.66667C0.746667 63.3333 0 64.08 0 65C0 65.92 0.746667 66.6667 1.66667 66.6667ZM1.66667 53.3333H18.3333C19.2533 53.3333 20 52.5867 20 51.6667C20 50.7467 19.2533 50 18.3333 50H1.66667C0.746667 50 0 50.7467 0 51.6667C0 52.5867 0.746667 53.3333 1.66667 53.3333ZM40 0C17.9433 0 0 17.9433 0 40C0 40.5833 0.01 41.1633 0.0366667 41.74C0.0766667 42.66 0.876667 43.3867 1.77333 43.3333C2.69333 43.2933 3.40667 42.5133 3.36667 41.5967C3.34333 41.0667 3.33333 40.5367 3.33333 40.0033C3.33333 19.7833 19.7833 3.33333 40 3.33333C60.2167 3.33333 76.6667 19.7833 76.6667 40C76.6667 59.7 61.2633 75.79 41.5967 76.6333C40.6767 76.6733 39.9633 77.45 40.0033 78.37C40.04 79.2667 40.78 79.9667 41.6667 79.9667C41.69 79.9667 41.7167 79.9667 41.74 79.9667C63.1967 79.05 80.0033 61.4933 80.0033 40.0033C80 17.9433 62.0567 0 40 0ZM41.6667 20C40.7467 20 40 20.7467 40 21.6667V39.9833C40 40.5567 40.2967 41.0933 40.78 41.3967L54.1133 49.7467C54.39 49.92 54.6967 50 55 50C55.5533 50 56.0967 49.7233 56.4133 49.22C56.9 48.44 56.6633 47.41 55.8867 46.9233L43.3333 39.0633V21.67C43.3333 20.75 42.5867 20 41.6667 20Z" fill="black"/>
</g>
<defs>
<clipPath id="clip0_15_70">
<rect width="80" height="80" fill="white"/>
</clipPath>
</defs>
</svg>
