<svg width="80" height="80" viewBox="0 0 80 80" fill="none" xmlns="http://www.w3.org/2000/svg">
<path d="M61.2317 5H38.7683C36.1171 5.00303 33.5753 6.05758 31.7006 7.93228C29.8259 9.80699 28.7713 12.3488 28.7683 15V18.6462C28.7683 18.9778 28.9 19.2957 29.1344 19.5301C29.3688 19.7646 29.6868 19.8962 30.0183 19.8962C30.3498 19.8962 30.6678 19.7646 30.9022 19.5301C31.1366 19.2957 31.2683 18.9778 31.2683 18.6462V15C31.2705 13.0115 32.0614 11.1051 33.4674 9.6991C34.8735 8.29304 36.7799 7.50217 38.7683 7.5H61.2317C63.2201 7.50217 65.1265 8.29304 66.5326 9.6991C67.9386 11.1051 68.7295 13.0115 68.7317 15V62.4915H31.2683V56.7114C31.2683 56.3799 31.1366 56.062 30.9022 55.8276C30.6678 55.5931 30.3498 55.4614 30.0183 55.4614C29.6868 55.4614 29.3688 55.5931 29.1344 55.8276C28.9 56.062 28.7683 56.3799 28.7683 56.7114V65C28.7713 67.6512 29.8259 70.193 31.7006 72.0677C33.5753 73.9424 36.1171 74.997 38.7683 75H61.2317C63.8829 74.997 66.4247 73.9424 68.2994 72.0677C70.1741 70.193 71.2287 67.6512 71.2317 65V15C71.2287 12.3488 70.1741 9.80699 68.2994 7.93228C66.4247 6.05758 63.8829 5.00303 61.2317 5ZM68.7317 65C68.7295 66.9885 67.9386 68.8949 66.5326 70.3009C65.1265 71.707 63.2201 72.4978 61.2317 72.5H38.7683C36.7799 72.4978 34.8735 71.707 33.4674 70.3009C32.0614 68.8949 31.2705 66.9885 31.2683 65V64.9915H68.7317V65Z" fill="black"/>
<path d="M46.875 69.7375H53.125C53.4565 69.7375 53.7745 69.6059 54.0089 69.3714C54.2433 69.137 54.375 68.8191 54.375 68.4875C54.375 68.156 54.2433 67.8381 54.0089 67.6037C53.7745 67.3692 53.4565 67.2375 53.125 67.2375H46.875C46.5435 67.2375 46.2255 67.3692 45.9911 67.6037C45.7567 67.8381 45.625 68.156 45.625 68.4875C45.625 68.8191 45.7567 69.137 45.9911 69.3714C46.2255 69.6059 46.5435 69.7375 46.875 69.7375Z" fill="black"/>
<path d="M15.3906 19.8962H19.5556L24.0734 37.9639H23.103C22.0895 37.9639 21.1175 38.3665 20.4008 39.0831C19.6842 39.7998 19.2816 40.7718 19.2816 41.7853C19.2816 42.7988 19.6842 43.7708 20.4008 44.4874C21.1175 45.2041 22.0895 45.6067 23.103 45.6067H46.2427C46.5742 45.6067 46.8922 45.475 47.1266 45.2406C47.361 45.0062 47.4927 44.6882 47.4927 44.3567C47.4927 44.0252 47.361 43.7072 47.1266 43.4728C46.8922 43.2384 46.5742 43.1067 46.2427 43.1067H23.103C22.7526 43.1067 22.4165 42.9675 22.1687 42.7197C21.9208 42.4718 21.7816 42.1357 21.7816 41.7853C21.7816 41.4348 21.9208 41.0987 22.1687 40.8509C22.4165 40.6031 22.7526 40.4639 23.103 40.4639H44.3897C45.1916 40.4645 45.9734 40.2125 46.624 39.7435C47.2746 39.2746 47.7609 38.6126 48.0139 37.8516L51.4429 27.5671C51.634 26.9927 51.6859 26.3811 51.5945 25.7827C51.503 25.1843 51.2707 24.6162 50.9166 24.1251C50.5626 23.634 50.0971 23.234 49.5582 22.9581C49.0194 22.6821 48.4228 22.5381 47.8174 22.5378H22.7929L21.7444 18.3435C21.677 18.073 21.521 17.8329 21.3014 17.6612C21.0817 17.4896 20.811 17.3963 20.5322 17.3962H15.3906C15.0591 17.3962 14.7412 17.5279 14.5067 17.7624C14.2723 17.9968 14.1406 18.3147 14.1406 18.6462C14.1406 18.9778 14.2723 19.2957 14.5067 19.5301C14.7412 19.7645 15.0591 19.8962 15.3906 19.8962ZM47.8174 25.0378C48.0267 25.0381 48.233 25.088 48.4193 25.1835C48.6055 25.279 48.7664 25.4174 48.8888 25.5872C49.0112 25.757 49.0916 25.9534 49.1232 26.1603C49.1549 26.3672 49.137 26.5787 49.0711 26.7774L45.6433 37.0606C45.5557 37.3237 45.3875 37.5526 45.1624 37.7147C44.9374 37.8769 44.667 37.964 44.3897 37.9639H26.6492L23.4179 25.0378H47.8174Z" fill="black"/>
<path d="M23.1665 45.9656C22.3542 45.9655 21.5601 46.2062 20.8846 46.6574C20.2092 47.1086 19.6827 47.7499 19.3717 48.5004C19.0607 49.2508 18.9793 50.0766 19.1376 50.8733C19.296 51.67 19.687 52.4019 20.2613 52.9763C20.8356 53.5508 21.5674 53.9421 22.3641 54.1007C23.1607 54.2593 23.9865 54.178 24.7371 53.8673C25.4876 53.5566 26.1291 53.0302 26.5805 52.3549C27.0319 51.6796 27.2728 50.8855 27.273 50.0732C27.2715 48.9845 26.8385 47.9407 26.0687 47.1707C25.2989 46.4007 24.2553 45.9673 23.1665 45.9656ZM23.1665 51.6797C22.8486 51.6798 22.5378 51.5856 22.2734 51.4091C22.0091 51.2326 21.803 50.9816 21.6813 50.6879C21.5596 50.3942 21.5277 50.0711 21.5897 49.7593C21.6517 49.4475 21.8048 49.1611 22.0295 48.9363C22.2543 48.7115 22.5407 48.5584 22.8525 48.4964C23.1643 48.4344 23.4875 48.4663 23.7812 48.588C24.0749 48.7097 24.3258 48.9158 24.5024 49.1802C24.6789 49.4445 24.7731 49.7553 24.773 50.0732C24.7724 50.4991 24.6029 50.9074 24.3018 51.2085C24.0006 51.5096 23.5924 51.6791 23.1665 51.6797Z" fill="black"/>
<path d="M43.1665 45.9656C42.3542 45.9655 41.5601 46.2062 40.8846 46.6574C40.2092 47.1086 39.6827 47.7499 39.3717 48.5004C39.0607 49.2508 38.9793 50.0766 39.1376 50.8733C39.296 51.67 39.687 52.4019 40.2613 52.9763C40.8356 53.5508 41.5674 53.9421 42.3641 54.1007C43.1607 54.2593 43.9865 54.178 44.737 53.8673C45.4876 53.5566 46.1291 53.0302 46.5805 52.3549C47.0319 51.6796 47.2728 50.8855 47.273 50.0732C47.2715 48.9845 46.8385 47.9407 46.0687 47.1707C45.2989 46.4007 44.2553 45.9673 43.1665 45.9656ZM43.1665 51.6797C42.8486 51.6798 42.5378 51.5856 42.2734 51.4091C42.0091 51.2326 41.803 50.9816 41.6813 50.6879C41.5596 50.3942 41.5277 50.0711 41.5897 49.7593C41.6517 49.4475 41.8047 49.1611 42.0295 48.9363C42.2543 48.7115 42.5407 48.5584 42.8525 48.4964C43.1643 48.4344 43.4875 48.4663 43.7812 48.588C44.0749 48.7097 44.3258 48.9158 44.5024 49.1802C44.6789 49.4445 44.7731 49.7553 44.773 50.0732C44.7724 50.4991 44.6029 50.9074 44.3018 51.2085C44.0006 51.5096 43.5924 51.6791 43.1665 51.6797Z" fill="black"/>
<path d="M7.69897 26.25H13.8501C14.1816 26.25 14.4996 26.1183 14.734 25.8839C14.9684 25.6495 15.1001 25.3315 15.1001 25C15.1001 24.6685 14.9684 24.3505 14.734 24.1161C14.4996 23.8817 14.1816 23.75 13.8501 23.75H7.69897C7.36745 23.75 7.04951 23.8817 6.81509 24.1161C6.58067 24.3505 6.44897 24.6685 6.44897 25C6.44897 25.3315 6.58067 25.6495 6.81509 25.8839C7.04951 26.1183 7.36745 26.25 7.69897 26.25Z" fill="black"/>
<path d="M7.69897 31.25H16.4087C16.7403 31.25 17.0582 31.1183 17.2926 30.8839C17.5271 30.6495 17.6587 30.3315 17.6587 30C17.6587 29.6685 17.5271 29.3505 17.2926 29.1161C17.0582 28.8817 16.7403 28.75 16.4087 28.75H7.69897C7.36745 28.75 7.04951 28.8817 6.81509 29.1161C6.58067 29.3505 6.44897 29.6685 6.44897 30C6.44897 30.3315 6.58067 30.6495 6.81509 30.8839C7.04951 31.1183 7.36745 31.25 7.69897 31.25Z" fill="black"/>
<path d="M21.25 35C21.2501 34.8358 21.2178 34.6732 21.155 34.5215C21.0923 34.3698 21.0002 34.232 20.8841 34.1159C20.768 33.9998 20.6302 33.9077 20.4785 33.845C20.3268 33.7822 20.1642 33.7499 20 33.75H7.69897C7.36745 33.75 7.04951 33.8817 6.81509 34.1161C6.58067 34.3505 6.44897 34.6685 6.44897 35C6.44897 35.3315 6.58067 35.6495 6.81509 35.8839C7.04951 36.1183 7.36745 36.25 7.69897 36.25H20C20.1642 36.2501 20.3268 36.2178 20.4785 36.155C20.6302 36.0923 20.768 36.0002 20.8841 35.8841C21.0002 35.768 21.0923 35.6302 21.155 35.4785C21.2178 35.3268 21.2501 35.1642 21.25 35Z" fill="black"/>
</svg>
