<svg width="80" height="80" viewBox="0 0 80 80" fill="none" xmlns="http://www.w3.org/2000/svg">
<g clip-path="url(#clip0_16_82)">
<path d="M16.6667 16.6667C20.3433 16.6667 23.3333 13.6767 23.3333 10C23.3333 6.32333 20.3433 3.33333 16.6667 3.33333C12.99 3.33333 10 6.32333 10 10C10 13.6767 12.99 16.6667 16.6667 16.6667ZM16.6667 6.66667C18.5033 6.66667 20 8.16 20 10C20 11.84 18.5033 13.3333 16.6667 13.3333C14.83 13.3333 13.3333 11.84 13.3333 10C13.3333 8.16 14.83 6.66667 16.6667 6.66667ZM40.3833 16.6667C44.9767 16.6667 48.7167 12.93 48.7167 8.33333C48.7167 3.73667 44.9767 0 40.3833 0C35.79 0 32.05 3.73667 32.05 8.33333C32.05 12.93 35.79 16.6667 40.3833 16.6667ZM40.3833 3.33333C43.14 3.33333 45.3833 5.57667 45.3833 8.33333C45.3833 11.09 43.14 13.3333 40.3833 13.3333C37.6267 13.3333 35.3833 11.09 35.3833 8.33333C35.3833 5.57667 37.6267 3.33333 40.3833 3.33333ZM63.3333 16.6667C67.01 16.6667 70 13.6767 70 10C70 6.32333 67.01 3.33333 63.3333 3.33333C59.6567 3.33333 56.6667 6.32333 56.6667 10C56.6667 13.6767 59.6567 16.6667 63.3333 16.6667ZM63.3333 6.66667C65.17 6.66667 66.6667 8.16 66.6667 10C66.6667 11.84 65.17 13.3333 63.3333 13.3333C61.4967 13.3333 60 11.84 60 10C60 8.16 61.4967 6.66667 63.3333 6.66667ZM76.6667 40C76.6667 44.7067 75.7433 49.1933 74.12 53.3333H57.77C59.1133 49.1733 60 44.7033 60 40H56.6667C56.6667 44.69 55.6933 49.1767 54.2267 53.3333H25.7667C24.3067 49.18 23.3333 44.69 23.3333 40H20C20 44.7033 20.8833 49.1733 22.23 53.3333H5.88C4.25667 49.1933 3.33333 44.7067 3.33333 40H0C0 62.0567 17.9433 80 40 80C62.0567 80 80 62.0567 80 40H76.6667ZM52.9233 56.6667C48.8267 66.13 42.5367 73.3033 39.9967 75.96C37.4533 73.3033 31.1633 66.1333 27.0667 56.6667H52.9233ZM7.38 56.6667H23.43C26.9867 65.5633 32.47 72.6033 35.87 76.4167C23.4233 75.0133 12.8633 67.3533 7.38 56.6667ZM44.1333 76.4167C47.53 72.6033 53.0133 65.5633 56.5733 56.6667H72.62C67.1367 67.3533 56.58 75.0133 44.1333 76.4167ZM30 33.3333H26.6667V26.6667C26.6667 22.99 29.6567 20 33.3333 20H46.6667C50.3433 20 53.3333 22.99 53.3333 26.6667V33.3333H50V26.6667C50 24.8267 48.5033 23.3333 46.6667 23.3333H33.3333C31.4967 23.3333 30 24.8267 30 26.6667V33.3333ZM6.66667 33.3333H3.33333V26.6667C3.33333 22.99 6.32333 20 10 20H21.8533C21.25 21.0333 20.78 22.1467 20.4733 23.3333H10C8.16333 23.3333 6.66667 24.8267 6.66667 26.6667V33.3333ZM70 20C73.6767 20 76.6667 22.99 76.6667 26.6667V33.3333H73.3333V26.6667C73.3333 24.8267 71.8367 23.3333 70 23.3333H59.5267C59.2167 22.1467 58.75 21.0333 58.1467 20H70Z" fill="black"/>
</g>
<defs>
<clipPath id="clip0_16_82">
<rect width="80" height="80" fill="white"/>
</clipPath>
</defs>
</svg>
