<svg width="80" height="80" viewBox="0 0 80 80" fill="none" xmlns="http://www.w3.org/2000/svg">
<path d="M33.3334 35L26.6667 43.3333L33.3334 51.6667" stroke="black" stroke-width="2" stroke-linecap="round" stroke-linejoin="round"/>
<path d="M46.6667 35L53.3334 43.3333L46.6667 51.6667" stroke="black" stroke-width="2" stroke-linecap="round" stroke-linejoin="round"/>
<path d="M66.6667 66.6667C68.4348 66.6667 70.1305 65.9643 71.3807 64.714C72.631 63.4638 73.3334 61.7681 73.3334 60V26.6667C73.3334 24.8986 72.631 23.2029 71.3807 21.9526C70.1305 20.7024 68.4348 20 66.6667 20H40.3334C39.2184 20.0109 38.1185 19.742 37.1344 19.2179C36.1502 18.6938 35.3132 17.9313 34.7 17L32 13C31.393 12.0782 30.5666 11.3216 29.595 10.798C28.6234 10.2744 27.537 10.0002 26.4334 10H13.3334C11.5652 10 9.86955 10.7024 8.61931 11.9526C7.36907 13.2029 6.66669 14.8986 6.66669 16.6667V60C6.66669 61.7681 7.36907 63.4638 8.61931 64.714C9.86955 65.9643 11.5652 66.6667 13.3334 66.6667H66.6667Z" stroke="black" stroke-width="2" stroke-linecap="round" stroke-linejoin="round"/>
</svg>
